%FSLAX45Y45*%
G04 Gerber Fmt 4.5, Leading zero omitted, Abs format (unit mm)*
G04 Created by KiCad (PCBNEW (5.1.9-0-10_14)) date 2021-08-05 14:32:15*
%MOMM*%
%LPD*%
G01*
G04 APERTURE LIST*
%TA.AperFunction,Profile*%
%ADD10C,0.050000*%
%TD*%
%ADD11C,0.200000*%
%ADD12C,0.300000*%
G04 APERTURE END LIST*
D10*
X15000000Y-17000000D02*
X15000000Y-16000000D01*
X17250000Y-17000000D02*
X15000000Y-17000000D01*
X17250000Y-22500000D02*
X17250000Y-17000000D01*
X3000000Y-22500000D02*
X17250000Y-22500000D01*
X15000000Y-4000000D02*
X15000000Y-16000000D01*
X15000000Y-4000000D02*
X3000000Y-4000000D01*
X3000000Y-22500000D02*
X3000000Y-4000000D01*
D11*
X4170500Y-21337500D02*
X4495500Y-21662500D01*
X4495500Y-21337500D02*
X4170500Y-21662500D01*
X9504500Y-21337500D02*
X9829500Y-21662500D01*
X9829500Y-21337500D02*
X9504500Y-21662500D01*
X10420500Y-21337500D02*
X10745500Y-21662500D01*
X10745500Y-21337500D02*
X10420500Y-21662500D01*
X15754500Y-21337500D02*
X16079500Y-21662500D01*
X16079500Y-21337500D02*
X15754500Y-21662500D01*
D12*
X3283928Y-22968214D02*
X3283928Y-22668214D01*
X3355357Y-22668214D01*
X3398214Y-22682500D01*
X3426786Y-22711071D01*
X3441071Y-22739643D01*
X3455357Y-22796786D01*
X3455357Y-22839643D01*
X3441071Y-22896786D01*
X3426786Y-22925357D01*
X3398214Y-22953929D01*
X3355357Y-22968214D01*
X3283928Y-22968214D01*
X3583928Y-22968214D02*
X3583928Y-22768214D01*
X3583928Y-22825357D02*
X3598214Y-22796786D01*
X3612500Y-22782500D01*
X3641071Y-22768214D01*
X3669643Y-22768214D01*
X3769643Y-22968214D02*
X3769643Y-22768214D01*
X3769643Y-22668214D02*
X3755357Y-22682500D01*
X3769643Y-22696786D01*
X3783928Y-22682500D01*
X3769643Y-22668214D01*
X3769643Y-22696786D01*
X3955357Y-22968214D02*
X3926786Y-22953929D01*
X3912500Y-22925357D01*
X3912500Y-22668214D01*
X4112500Y-22968214D02*
X4083928Y-22953929D01*
X4069643Y-22925357D01*
X4069643Y-22668214D01*
X4455357Y-22968214D02*
X4455357Y-22668214D01*
X4555357Y-22882500D01*
X4655357Y-22668214D01*
X4655357Y-22968214D01*
X4926786Y-22968214D02*
X4926786Y-22811071D01*
X4912500Y-22782500D01*
X4883928Y-22768214D01*
X4826786Y-22768214D01*
X4798214Y-22782500D01*
X4926786Y-22953929D02*
X4898214Y-22968214D01*
X4826786Y-22968214D01*
X4798214Y-22953929D01*
X4783928Y-22925357D01*
X4783928Y-22896786D01*
X4798214Y-22868214D01*
X4826786Y-22853929D01*
X4898214Y-22853929D01*
X4926786Y-22839643D01*
X5069643Y-22768214D02*
X5069643Y-23068214D01*
X5069643Y-22782500D02*
X5098214Y-22768214D01*
X5155357Y-22768214D01*
X5183928Y-22782500D01*
X5198214Y-22796786D01*
X5212500Y-22825357D01*
X5212500Y-22911071D01*
X5198214Y-22939643D01*
X5183928Y-22953929D01*
X5155357Y-22968214D01*
X5098214Y-22968214D01*
X5069643Y-22953929D01*
X5341071Y-22939643D02*
X5355357Y-22953929D01*
X5341071Y-22968214D01*
X5326786Y-22953929D01*
X5341071Y-22939643D01*
X5341071Y-22968214D01*
X5341071Y-22782500D02*
X5355357Y-22796786D01*
X5341071Y-22811071D01*
X5326786Y-22796786D01*
X5341071Y-22782500D01*
X5341071Y-22811071D01*
X2672500Y-23300000D02*
X2997500Y-23625000D01*
X2997500Y-23300000D02*
X2672500Y-23625000D01*
X3255357Y-23298214D02*
X3441071Y-23298214D01*
X3341071Y-23412500D01*
X3383928Y-23412500D01*
X3412500Y-23426786D01*
X3426786Y-23441071D01*
X3441071Y-23469643D01*
X3441071Y-23541071D01*
X3426786Y-23569643D01*
X3412500Y-23583929D01*
X3383928Y-23598214D01*
X3298214Y-23598214D01*
X3269643Y-23583929D01*
X3255357Y-23569643D01*
X3569643Y-23569643D02*
X3583928Y-23583929D01*
X3569643Y-23598214D01*
X3555357Y-23583929D01*
X3569643Y-23569643D01*
X3569643Y-23598214D01*
X3698214Y-23326786D02*
X3712500Y-23312500D01*
X3741071Y-23298214D01*
X3812500Y-23298214D01*
X3841071Y-23312500D01*
X3855357Y-23326786D01*
X3869643Y-23355357D01*
X3869643Y-23383929D01*
X3855357Y-23426786D01*
X3683928Y-23598214D01*
X3869643Y-23598214D01*
X4141071Y-23298214D02*
X3998214Y-23298214D01*
X3983928Y-23441071D01*
X3998214Y-23426786D01*
X4026786Y-23412500D01*
X4098214Y-23412500D01*
X4126786Y-23426786D01*
X4141071Y-23441071D01*
X4155357Y-23469643D01*
X4155357Y-23541071D01*
X4141071Y-23569643D01*
X4126786Y-23583929D01*
X4098214Y-23598214D01*
X4026786Y-23598214D01*
X3998214Y-23583929D01*
X3983928Y-23569643D01*
X4283928Y-23598214D02*
X4283928Y-23398214D01*
X4283928Y-23426786D02*
X4298214Y-23412500D01*
X4326786Y-23398214D01*
X4369643Y-23398214D01*
X4398214Y-23412500D01*
X4412500Y-23441071D01*
X4412500Y-23598214D01*
X4412500Y-23441071D02*
X4426786Y-23412500D01*
X4455357Y-23398214D01*
X4498214Y-23398214D01*
X4526786Y-23412500D01*
X4541071Y-23441071D01*
X4541071Y-23598214D01*
X4683928Y-23598214D02*
X4683928Y-23398214D01*
X4683928Y-23426786D02*
X4698214Y-23412500D01*
X4726786Y-23398214D01*
X4769643Y-23398214D01*
X4798214Y-23412500D01*
X4812500Y-23441071D01*
X4812500Y-23598214D01*
X4812500Y-23441071D02*
X4826786Y-23412500D01*
X4855357Y-23398214D01*
X4898214Y-23398214D01*
X4926786Y-23412500D01*
X4941071Y-23441071D01*
X4941071Y-23598214D01*
X5526786Y-23283929D02*
X5269643Y-23669643D01*
X5912500Y-23298214D02*
X5941071Y-23298214D01*
X5969643Y-23312500D01*
X5983928Y-23326786D01*
X5998214Y-23355357D01*
X6012500Y-23412500D01*
X6012500Y-23483929D01*
X5998214Y-23541071D01*
X5983928Y-23569643D01*
X5969643Y-23583929D01*
X5941071Y-23598214D01*
X5912500Y-23598214D01*
X5883928Y-23583929D01*
X5869643Y-23569643D01*
X5855357Y-23541071D01*
X5841071Y-23483929D01*
X5841071Y-23412500D01*
X5855357Y-23355357D01*
X5869643Y-23326786D01*
X5883928Y-23312500D01*
X5912500Y-23298214D01*
X6141071Y-23569643D02*
X6155357Y-23583929D01*
X6141071Y-23598214D01*
X6126786Y-23583929D01*
X6141071Y-23569643D01*
X6141071Y-23598214D01*
X6441071Y-23598214D02*
X6269643Y-23598214D01*
X6355357Y-23598214D02*
X6355357Y-23298214D01*
X6326786Y-23341071D01*
X6298214Y-23369643D01*
X6269643Y-23383929D01*
X6555357Y-23326786D02*
X6569643Y-23312500D01*
X6598214Y-23298214D01*
X6669643Y-23298214D01*
X6698214Y-23312500D01*
X6712500Y-23326786D01*
X6726786Y-23355357D01*
X6726786Y-23383929D01*
X6712500Y-23426786D01*
X6541071Y-23598214D01*
X6726786Y-23598214D01*
X6898214Y-23426786D02*
X6869643Y-23412500D01*
X6855357Y-23398214D01*
X6841071Y-23369643D01*
X6841071Y-23355357D01*
X6855357Y-23326786D01*
X6869643Y-23312500D01*
X6898214Y-23298214D01*
X6955357Y-23298214D01*
X6983928Y-23312500D01*
X6998214Y-23326786D01*
X7012500Y-23355357D01*
X7012500Y-23369643D01*
X6998214Y-23398214D01*
X6983928Y-23412500D01*
X6955357Y-23426786D01*
X6898214Y-23426786D01*
X6869643Y-23441071D01*
X6855357Y-23455357D01*
X6841071Y-23483929D01*
X6841071Y-23541071D01*
X6855357Y-23569643D01*
X6869643Y-23583929D01*
X6898214Y-23598214D01*
X6955357Y-23598214D01*
X6983928Y-23583929D01*
X6998214Y-23569643D01*
X7012500Y-23541071D01*
X7012500Y-23483929D01*
X6998214Y-23455357D01*
X6983928Y-23441071D01*
X6955357Y-23426786D01*
X7126786Y-23298214D02*
X7126786Y-23355357D01*
X7241071Y-23298214D02*
X7241071Y-23355357D01*
X7683928Y-23712500D02*
X7669643Y-23698214D01*
X7641071Y-23655357D01*
X7626786Y-23626786D01*
X7612500Y-23583929D01*
X7598214Y-23512500D01*
X7598214Y-23455357D01*
X7612500Y-23383929D01*
X7626786Y-23341071D01*
X7641071Y-23312500D01*
X7669643Y-23269643D01*
X7683928Y-23255357D01*
X7926786Y-23398214D02*
X7926786Y-23598214D01*
X7855357Y-23283929D02*
X7783928Y-23498214D01*
X7969643Y-23498214D01*
X8312500Y-23598214D02*
X8312500Y-23298214D01*
X8441071Y-23598214D02*
X8441071Y-23441071D01*
X8426786Y-23412500D01*
X8398214Y-23398214D01*
X8355357Y-23398214D01*
X8326786Y-23412500D01*
X8312500Y-23426786D01*
X8626786Y-23598214D02*
X8598214Y-23583929D01*
X8583928Y-23569643D01*
X8569643Y-23541071D01*
X8569643Y-23455357D01*
X8583928Y-23426786D01*
X8598214Y-23412500D01*
X8626786Y-23398214D01*
X8669643Y-23398214D01*
X8698214Y-23412500D01*
X8712500Y-23426786D01*
X8726786Y-23455357D01*
X8726786Y-23541071D01*
X8712500Y-23569643D01*
X8698214Y-23583929D01*
X8669643Y-23598214D01*
X8626786Y-23598214D01*
X8898214Y-23598214D02*
X8869643Y-23583929D01*
X8855357Y-23555357D01*
X8855357Y-23298214D01*
X9126786Y-23583929D02*
X9098214Y-23598214D01*
X9041071Y-23598214D01*
X9012500Y-23583929D01*
X8998214Y-23555357D01*
X8998214Y-23441071D01*
X9012500Y-23412500D01*
X9041071Y-23398214D01*
X9098214Y-23398214D01*
X9126786Y-23412500D01*
X9141071Y-23441071D01*
X9141071Y-23469643D01*
X8998214Y-23498214D01*
X9255357Y-23583929D02*
X9283928Y-23598214D01*
X9341071Y-23598214D01*
X9369643Y-23583929D01*
X9383928Y-23555357D01*
X9383928Y-23541071D01*
X9369643Y-23512500D01*
X9341071Y-23498214D01*
X9298214Y-23498214D01*
X9269643Y-23483929D01*
X9255357Y-23455357D01*
X9255357Y-23441071D01*
X9269643Y-23412500D01*
X9298214Y-23398214D01*
X9341071Y-23398214D01*
X9369643Y-23412500D01*
X9483928Y-23712500D02*
X9498214Y-23698214D01*
X9526786Y-23655357D01*
X9541071Y-23626786D01*
X9555357Y-23583929D01*
X9569643Y-23512500D01*
X9569643Y-23455357D01*
X9555357Y-23383929D01*
X9541071Y-23341071D01*
X9526786Y-23312500D01*
X9498214Y-23269643D01*
X9483928Y-23255357D01*
X10026786Y-23712500D02*
X10012500Y-23698214D01*
X9983928Y-23655357D01*
X9969643Y-23626786D01*
X9955357Y-23583929D01*
X9941071Y-23512500D01*
X9941071Y-23455357D01*
X9955357Y-23383929D01*
X9969643Y-23341071D01*
X9983928Y-23312500D01*
X10012500Y-23269643D01*
X10026786Y-23255357D01*
X10141071Y-23398214D02*
X10141071Y-23598214D01*
X10141071Y-23426786D02*
X10155357Y-23412500D01*
X10183928Y-23398214D01*
X10226786Y-23398214D01*
X10255357Y-23412500D01*
X10269643Y-23441071D01*
X10269643Y-23598214D01*
X10455357Y-23598214D02*
X10426786Y-23583929D01*
X10412500Y-23569643D01*
X10398214Y-23541071D01*
X10398214Y-23455357D01*
X10412500Y-23426786D01*
X10426786Y-23412500D01*
X10455357Y-23398214D01*
X10498214Y-23398214D01*
X10526786Y-23412500D01*
X10541071Y-23426786D01*
X10555357Y-23455357D01*
X10555357Y-23541071D01*
X10541071Y-23569643D01*
X10526786Y-23583929D01*
X10498214Y-23598214D01*
X10455357Y-23598214D01*
X10641071Y-23398214D02*
X10755357Y-23398214D01*
X10683928Y-23298214D02*
X10683928Y-23555357D01*
X10698214Y-23583929D01*
X10726786Y-23598214D01*
X10755357Y-23598214D01*
X11083928Y-23398214D02*
X11083928Y-23698214D01*
X11083928Y-23412500D02*
X11112500Y-23398214D01*
X11169643Y-23398214D01*
X11198214Y-23412500D01*
X11212500Y-23426786D01*
X11226786Y-23455357D01*
X11226786Y-23541071D01*
X11212500Y-23569643D01*
X11198214Y-23583929D01*
X11169643Y-23598214D01*
X11112500Y-23598214D01*
X11083928Y-23583929D01*
X11398214Y-23598214D02*
X11369643Y-23583929D01*
X11355357Y-23555357D01*
X11355357Y-23298214D01*
X11641071Y-23598214D02*
X11641071Y-23441071D01*
X11626786Y-23412500D01*
X11598214Y-23398214D01*
X11541071Y-23398214D01*
X11512500Y-23412500D01*
X11641071Y-23583929D02*
X11612500Y-23598214D01*
X11541071Y-23598214D01*
X11512500Y-23583929D01*
X11498214Y-23555357D01*
X11498214Y-23526786D01*
X11512500Y-23498214D01*
X11541071Y-23483929D01*
X11612500Y-23483929D01*
X11641071Y-23469643D01*
X11741071Y-23398214D02*
X11855357Y-23398214D01*
X11783928Y-23298214D02*
X11783928Y-23555357D01*
X11798214Y-23583929D01*
X11826786Y-23598214D01*
X11855357Y-23598214D01*
X12069643Y-23583929D02*
X12041071Y-23598214D01*
X11983928Y-23598214D01*
X11955357Y-23583929D01*
X11941071Y-23555357D01*
X11941071Y-23441071D01*
X11955357Y-23412500D01*
X11983928Y-23398214D01*
X12041071Y-23398214D01*
X12069643Y-23412500D01*
X12083928Y-23441071D01*
X12083928Y-23469643D01*
X11941071Y-23498214D01*
X12341071Y-23598214D02*
X12341071Y-23298214D01*
X12341071Y-23583929D02*
X12312500Y-23598214D01*
X12255357Y-23598214D01*
X12226786Y-23583929D01*
X12212500Y-23569643D01*
X12198214Y-23541071D01*
X12198214Y-23455357D01*
X12212500Y-23426786D01*
X12226786Y-23412500D01*
X12255357Y-23398214D01*
X12312500Y-23398214D01*
X12341071Y-23412500D01*
X12455357Y-23712500D02*
X12469643Y-23698214D01*
X12498214Y-23655357D01*
X12512500Y-23626786D01*
X12526786Y-23583929D01*
X12541071Y-23512500D01*
X12541071Y-23455357D01*
X12526786Y-23383929D01*
X12512500Y-23341071D01*
X12498214Y-23312500D01*
X12469643Y-23269643D01*
X12455357Y-23255357D01*
M02*
