%TF.GenerationSoftware,KiCad,Pcbnew,(5.1.9-0-10_14)*%
%TF.CreationDate,2021-08-05T14:32:20+02:00*%
%TF.ProjectId,MechanicalTheatre,4d656368-616e-4696-9361-6c5468656174,rev?*%
%TF.SameCoordinates,Original*%
%TF.FileFunction,Paste,Top*%
%TF.FilePolarity,Positive*%
%FSLAX46Y46*%
G04 Gerber Fmt 4.6, Leading zero omitted, Abs format (unit mm)*
G04 Created by KiCad (PCBNEW (5.1.9-0-10_14)) date 2021-08-05 14:32:20*
%MOMM*%
%LPD*%
G01*
G04 APERTURE LIST*
%ADD10R,2.000000X1.500000*%
%ADD11R,2.000000X3.800000*%
%ADD12R,0.900000X1.200000*%
%ADD13R,0.600000X1.300000*%
G04 APERTURE END LIST*
%TO.C,D11*%
G36*
G01*
X105677000Y-73733000D02*
X105677000Y-72483000D01*
G75*
G02*
X105927000Y-72233000I250000J0D01*
G01*
X106852000Y-72233000D01*
G75*
G02*
X107102000Y-72483000I0J-250000D01*
G01*
X107102000Y-73733000D01*
G75*
G02*
X106852000Y-73983000I-250000J0D01*
G01*
X105927000Y-73983000D01*
G75*
G02*
X105677000Y-73733000I0J250000D01*
G01*
G37*
G36*
G01*
X102702000Y-73733000D02*
X102702000Y-72483000D01*
G75*
G02*
X102952000Y-72233000I250000J0D01*
G01*
X103877000Y-72233000D01*
G75*
G02*
X104127000Y-72483000I0J-250000D01*
G01*
X104127000Y-73733000D01*
G75*
G02*
X103877000Y-73983000I-250000J0D01*
G01*
X102952000Y-73983000D01*
G75*
G02*
X102702000Y-73733000I0J250000D01*
G01*
G37*
%TD*%
%TO.C,D10*%
G36*
G01*
X98110500Y-124533000D02*
X98110500Y-123283000D01*
G75*
G02*
X98360500Y-123033000I250000J0D01*
G01*
X99285500Y-123033000D01*
G75*
G02*
X99535500Y-123283000I0J-250000D01*
G01*
X99535500Y-124533000D01*
G75*
G02*
X99285500Y-124783000I-250000J0D01*
G01*
X98360500Y-124783000D01*
G75*
G02*
X98110500Y-124533000I0J250000D01*
G01*
G37*
G36*
G01*
X95135500Y-124533000D02*
X95135500Y-123283000D01*
G75*
G02*
X95385500Y-123033000I250000J0D01*
G01*
X96310500Y-123033000D01*
G75*
G02*
X96560500Y-123283000I0J-250000D01*
G01*
X96560500Y-124533000D01*
G75*
G02*
X96310500Y-124783000I-250000J0D01*
G01*
X95385500Y-124783000D01*
G75*
G02*
X95135500Y-124533000I0J250000D01*
G01*
G37*
%TD*%
%TO.C,D8*%
G36*
G01*
X100827000Y-63339000D02*
X100827000Y-64589000D01*
G75*
G02*
X100577000Y-64839000I-250000J0D01*
G01*
X99652000Y-64839000D01*
G75*
G02*
X99402000Y-64589000I0J250000D01*
G01*
X99402000Y-63339000D01*
G75*
G02*
X99652000Y-63089000I250000J0D01*
G01*
X100577000Y-63089000D01*
G75*
G02*
X100827000Y-63339000I0J-250000D01*
G01*
G37*
G36*
G01*
X103802000Y-63339000D02*
X103802000Y-64589000D01*
G75*
G02*
X103552000Y-64839000I-250000J0D01*
G01*
X102627000Y-64839000D01*
G75*
G02*
X102377000Y-64589000I0J250000D01*
G01*
X102377000Y-63339000D01*
G75*
G02*
X102627000Y-63089000I250000J0D01*
G01*
X103552000Y-63089000D01*
G75*
G02*
X103802000Y-63339000I0J-250000D01*
G01*
G37*
%TD*%
%TO.C,D6*%
G36*
G01*
X130799000Y-63339000D02*
X130799000Y-64589000D01*
G75*
G02*
X130549000Y-64839000I-250000J0D01*
G01*
X129624000Y-64839000D01*
G75*
G02*
X129374000Y-64589000I0J250000D01*
G01*
X129374000Y-63339000D01*
G75*
G02*
X129624000Y-63089000I250000J0D01*
G01*
X130549000Y-63089000D01*
G75*
G02*
X130799000Y-63339000I0J-250000D01*
G01*
G37*
G36*
G01*
X133774000Y-63339000D02*
X133774000Y-64589000D01*
G75*
G02*
X133524000Y-64839000I-250000J0D01*
G01*
X132599000Y-64839000D01*
G75*
G02*
X132349000Y-64589000I0J250000D01*
G01*
X132349000Y-63339000D01*
G75*
G02*
X132599000Y-63089000I250000J0D01*
G01*
X133524000Y-63089000D01*
G75*
G02*
X133774000Y-63339000I0J-250000D01*
G01*
G37*
%TD*%
%TO.C,D5*%
G36*
G01*
X115357000Y-63339000D02*
X115357000Y-64589000D01*
G75*
G02*
X115107000Y-64839000I-250000J0D01*
G01*
X114182000Y-64839000D01*
G75*
G02*
X113932000Y-64589000I0J250000D01*
G01*
X113932000Y-63339000D01*
G75*
G02*
X114182000Y-63089000I250000J0D01*
G01*
X115107000Y-63089000D01*
G75*
G02*
X115357000Y-63339000I0J-250000D01*
G01*
G37*
G36*
G01*
X118332000Y-63339000D02*
X118332000Y-64589000D01*
G75*
G02*
X118082000Y-64839000I-250000J0D01*
G01*
X117157000Y-64839000D01*
G75*
G02*
X116907000Y-64589000I0J250000D01*
G01*
X116907000Y-63339000D01*
G75*
G02*
X117157000Y-63089000I250000J0D01*
G01*
X118082000Y-63089000D01*
G75*
G02*
X118332000Y-63339000I0J-250000D01*
G01*
G37*
%TD*%
%TO.C,D4*%
G36*
G01*
X110479000Y-91025000D02*
X110479000Y-92275000D01*
G75*
G02*
X110229000Y-92525000I-250000J0D01*
G01*
X109304000Y-92525000D01*
G75*
G02*
X109054000Y-92275000I0J250000D01*
G01*
X109054000Y-91025000D01*
G75*
G02*
X109304000Y-90775000I250000J0D01*
G01*
X110229000Y-90775000D01*
G75*
G02*
X110479000Y-91025000I0J-250000D01*
G01*
G37*
G36*
G01*
X113454000Y-91025000D02*
X113454000Y-92275000D01*
G75*
G02*
X113204000Y-92525000I-250000J0D01*
G01*
X112279000Y-92525000D01*
G75*
G02*
X112029000Y-92275000I0J250000D01*
G01*
X112029000Y-91025000D01*
G75*
G02*
X112279000Y-90775000I250000J0D01*
G01*
X113204000Y-90775000D01*
G75*
G02*
X113454000Y-91025000I0J-250000D01*
G01*
G37*
%TD*%
%TO.C,D3*%
G36*
G01*
X123003000Y-92275000D02*
X123003000Y-91025000D01*
G75*
G02*
X123253000Y-90775000I250000J0D01*
G01*
X124178000Y-90775000D01*
G75*
G02*
X124428000Y-91025000I0J-250000D01*
G01*
X124428000Y-92275000D01*
G75*
G02*
X124178000Y-92525000I-250000J0D01*
G01*
X123253000Y-92525000D01*
G75*
G02*
X123003000Y-92275000I0J250000D01*
G01*
G37*
G36*
G01*
X120028000Y-92275000D02*
X120028000Y-91025000D01*
G75*
G02*
X120278000Y-90775000I250000J0D01*
G01*
X121203000Y-90775000D01*
G75*
G02*
X121453000Y-91025000I0J-250000D01*
G01*
X121453000Y-92275000D01*
G75*
G02*
X121203000Y-92525000I-250000J0D01*
G01*
X120278000Y-92525000D01*
G75*
G02*
X120028000Y-92275000I0J250000D01*
G01*
G37*
%TD*%
%TO.C,D2*%
G36*
G01*
X86654500Y-92295000D02*
X86654500Y-93545000D01*
G75*
G02*
X86404500Y-93795000I-250000J0D01*
G01*
X85479500Y-93795000D01*
G75*
G02*
X85229500Y-93545000I0J250000D01*
G01*
X85229500Y-92295000D01*
G75*
G02*
X85479500Y-92045000I250000J0D01*
G01*
X86404500Y-92045000D01*
G75*
G02*
X86654500Y-92295000I0J-250000D01*
G01*
G37*
G36*
G01*
X89629500Y-92295000D02*
X89629500Y-93545000D01*
G75*
G02*
X89379500Y-93795000I-250000J0D01*
G01*
X88454500Y-93795000D01*
G75*
G02*
X88204500Y-93545000I0J250000D01*
G01*
X88204500Y-92295000D01*
G75*
G02*
X88454500Y-92045000I250000J0D01*
G01*
X89379500Y-92045000D01*
G75*
G02*
X89629500Y-92295000I0J-250000D01*
G01*
G37*
%TD*%
%TO.C,D1*%
G36*
G01*
X96535000Y-130903000D02*
X96535000Y-132153000D01*
G75*
G02*
X96285000Y-132403000I-250000J0D01*
G01*
X95360000Y-132403000D01*
G75*
G02*
X95110000Y-132153000I0J250000D01*
G01*
X95110000Y-130903000D01*
G75*
G02*
X95360000Y-130653000I250000J0D01*
G01*
X96285000Y-130653000D01*
G75*
G02*
X96535000Y-130903000I0J-250000D01*
G01*
G37*
G36*
G01*
X99510000Y-130903000D02*
X99510000Y-132153000D01*
G75*
G02*
X99260000Y-132403000I-250000J0D01*
G01*
X98335000Y-132403000D01*
G75*
G02*
X98085000Y-132153000I0J250000D01*
G01*
X98085000Y-130903000D01*
G75*
G02*
X98335000Y-130653000I250000J0D01*
G01*
X99260000Y-130653000D01*
G75*
G02*
X99510000Y-130903000I0J-250000D01*
G01*
G37*
%TD*%
%TO.C,R78*%
G36*
G01*
X99993000Y-73345500D02*
X99993000Y-72870500D01*
G75*
G02*
X100230500Y-72633000I237500J0D01*
G01*
X100730500Y-72633000D01*
G75*
G02*
X100968000Y-72870500I0J-237500D01*
G01*
X100968000Y-73345500D01*
G75*
G02*
X100730500Y-73583000I-237500J0D01*
G01*
X100230500Y-73583000D01*
G75*
G02*
X99993000Y-73345500I0J237500D01*
G01*
G37*
G36*
G01*
X98168000Y-73345500D02*
X98168000Y-72870500D01*
G75*
G02*
X98405500Y-72633000I237500J0D01*
G01*
X98905500Y-72633000D01*
G75*
G02*
X99143000Y-72870500I0J-237500D01*
G01*
X99143000Y-73345500D01*
G75*
G02*
X98905500Y-73583000I-237500J0D01*
G01*
X98405500Y-73583000D01*
G75*
G02*
X98168000Y-73345500I0J237500D01*
G01*
G37*
%TD*%
%TO.C,R77*%
G36*
G01*
X102075000Y-123670500D02*
X102075000Y-124145500D01*
G75*
G02*
X101837500Y-124383000I-237500J0D01*
G01*
X101337500Y-124383000D01*
G75*
G02*
X101100000Y-124145500I0J237500D01*
G01*
X101100000Y-123670500D01*
G75*
G02*
X101337500Y-123433000I237500J0D01*
G01*
X101837500Y-123433000D01*
G75*
G02*
X102075000Y-123670500I0J-237500D01*
G01*
G37*
G36*
G01*
X103900000Y-123670500D02*
X103900000Y-124145500D01*
G75*
G02*
X103662500Y-124383000I-237500J0D01*
G01*
X103162500Y-124383000D01*
G75*
G02*
X102925000Y-124145500I0J237500D01*
G01*
X102925000Y-123670500D01*
G75*
G02*
X103162500Y-123433000I237500J0D01*
G01*
X103662500Y-123433000D01*
G75*
G02*
X103900000Y-123670500I0J-237500D01*
G01*
G37*
%TD*%
%TO.C,C4*%
G36*
G01*
X135242000Y-57090000D02*
X135242000Y-55090000D01*
G75*
G02*
X135492000Y-54840000I250000J0D01*
G01*
X139392000Y-54840000D01*
G75*
G02*
X139642000Y-55090000I0J-250000D01*
G01*
X139642000Y-57090000D01*
G75*
G02*
X139392000Y-57340000I-250000J0D01*
G01*
X135492000Y-57340000D01*
G75*
G02*
X135242000Y-57090000I0J250000D01*
G01*
G37*
G36*
G01*
X127842000Y-57090000D02*
X127842000Y-55090000D01*
G75*
G02*
X128092000Y-54840000I250000J0D01*
G01*
X131992000Y-54840000D01*
G75*
G02*
X132242000Y-55090000I0J-250000D01*
G01*
X132242000Y-57090000D01*
G75*
G02*
X131992000Y-57340000I-250000J0D01*
G01*
X128092000Y-57340000D01*
G75*
G02*
X127842000Y-57090000I0J250000D01*
G01*
G37*
%TD*%
%TO.C,C1*%
G36*
G01*
X99476000Y-55090000D02*
X99476000Y-57090000D01*
G75*
G02*
X99226000Y-57340000I-250000J0D01*
G01*
X95326000Y-57340000D01*
G75*
G02*
X95076000Y-57090000I0J250000D01*
G01*
X95076000Y-55090000D01*
G75*
G02*
X95326000Y-54840000I250000J0D01*
G01*
X99226000Y-54840000D01*
G75*
G02*
X99476000Y-55090000I0J-250000D01*
G01*
G37*
G36*
G01*
X106876000Y-55090000D02*
X106876000Y-57090000D01*
G75*
G02*
X106626000Y-57340000I-250000J0D01*
G01*
X102726000Y-57340000D01*
G75*
G02*
X102476000Y-57090000I0J250000D01*
G01*
X102476000Y-55090000D01*
G75*
G02*
X102726000Y-54840000I250000J0D01*
G01*
X106626000Y-54840000D01*
G75*
G02*
X106876000Y-55090000I0J-250000D01*
G01*
G37*
%TD*%
D10*
%TO.C,U16*%
X88268000Y-52548000D03*
X88268000Y-47948000D03*
X88268000Y-50248000D03*
D11*
X81968000Y-50248000D03*
%TD*%
%TO.C,U3*%
G36*
G01*
X109183000Y-142600000D02*
X109183000Y-142300000D01*
G75*
G02*
X109333000Y-142150000I150000J0D01*
G01*
X111008000Y-142150000D01*
G75*
G02*
X111158000Y-142300000I0J-150000D01*
G01*
X111158000Y-142600000D01*
G75*
G02*
X111008000Y-142750000I-150000J0D01*
G01*
X109333000Y-142750000D01*
G75*
G02*
X109183000Y-142600000I0J150000D01*
G01*
G37*
G36*
G01*
X109183000Y-143870000D02*
X109183000Y-143570000D01*
G75*
G02*
X109333000Y-143420000I150000J0D01*
G01*
X111008000Y-143420000D01*
G75*
G02*
X111158000Y-143570000I0J-150000D01*
G01*
X111158000Y-143870000D01*
G75*
G02*
X111008000Y-144020000I-150000J0D01*
G01*
X109333000Y-144020000D01*
G75*
G02*
X109183000Y-143870000I0J150000D01*
G01*
G37*
G36*
G01*
X109183000Y-145140000D02*
X109183000Y-144840000D01*
G75*
G02*
X109333000Y-144690000I150000J0D01*
G01*
X111008000Y-144690000D01*
G75*
G02*
X111158000Y-144840000I0J-150000D01*
G01*
X111158000Y-145140000D01*
G75*
G02*
X111008000Y-145290000I-150000J0D01*
G01*
X109333000Y-145290000D01*
G75*
G02*
X109183000Y-145140000I0J150000D01*
G01*
G37*
G36*
G01*
X109183000Y-146410000D02*
X109183000Y-146110000D01*
G75*
G02*
X109333000Y-145960000I150000J0D01*
G01*
X111008000Y-145960000D01*
G75*
G02*
X111158000Y-146110000I0J-150000D01*
G01*
X111158000Y-146410000D01*
G75*
G02*
X111008000Y-146560000I-150000J0D01*
G01*
X109333000Y-146560000D01*
G75*
G02*
X109183000Y-146410000I0J150000D01*
G01*
G37*
G36*
G01*
X109183000Y-147680000D02*
X109183000Y-147380000D01*
G75*
G02*
X109333000Y-147230000I150000J0D01*
G01*
X111008000Y-147230000D01*
G75*
G02*
X111158000Y-147380000I0J-150000D01*
G01*
X111158000Y-147680000D01*
G75*
G02*
X111008000Y-147830000I-150000J0D01*
G01*
X109333000Y-147830000D01*
G75*
G02*
X109183000Y-147680000I0J150000D01*
G01*
G37*
G36*
G01*
X109183000Y-148950000D02*
X109183000Y-148650000D01*
G75*
G02*
X109333000Y-148500000I150000J0D01*
G01*
X111008000Y-148500000D01*
G75*
G02*
X111158000Y-148650000I0J-150000D01*
G01*
X111158000Y-148950000D01*
G75*
G02*
X111008000Y-149100000I-150000J0D01*
G01*
X109333000Y-149100000D01*
G75*
G02*
X109183000Y-148950000I0J150000D01*
G01*
G37*
G36*
G01*
X109183000Y-150220000D02*
X109183000Y-149920000D01*
G75*
G02*
X109333000Y-149770000I150000J0D01*
G01*
X111008000Y-149770000D01*
G75*
G02*
X111158000Y-149920000I0J-150000D01*
G01*
X111158000Y-150220000D01*
G75*
G02*
X111008000Y-150370000I-150000J0D01*
G01*
X109333000Y-150370000D01*
G75*
G02*
X109183000Y-150220000I0J150000D01*
G01*
G37*
G36*
G01*
X102258000Y-150220000D02*
X102258000Y-149920000D01*
G75*
G02*
X102408000Y-149770000I150000J0D01*
G01*
X104083000Y-149770000D01*
G75*
G02*
X104233000Y-149920000I0J-150000D01*
G01*
X104233000Y-150220000D01*
G75*
G02*
X104083000Y-150370000I-150000J0D01*
G01*
X102408000Y-150370000D01*
G75*
G02*
X102258000Y-150220000I0J150000D01*
G01*
G37*
G36*
G01*
X102258000Y-148950000D02*
X102258000Y-148650000D01*
G75*
G02*
X102408000Y-148500000I150000J0D01*
G01*
X104083000Y-148500000D01*
G75*
G02*
X104233000Y-148650000I0J-150000D01*
G01*
X104233000Y-148950000D01*
G75*
G02*
X104083000Y-149100000I-150000J0D01*
G01*
X102408000Y-149100000D01*
G75*
G02*
X102258000Y-148950000I0J150000D01*
G01*
G37*
G36*
G01*
X102258000Y-147680000D02*
X102258000Y-147380000D01*
G75*
G02*
X102408000Y-147230000I150000J0D01*
G01*
X104083000Y-147230000D01*
G75*
G02*
X104233000Y-147380000I0J-150000D01*
G01*
X104233000Y-147680000D01*
G75*
G02*
X104083000Y-147830000I-150000J0D01*
G01*
X102408000Y-147830000D01*
G75*
G02*
X102258000Y-147680000I0J150000D01*
G01*
G37*
G36*
G01*
X102258000Y-146410000D02*
X102258000Y-146110000D01*
G75*
G02*
X102408000Y-145960000I150000J0D01*
G01*
X104083000Y-145960000D01*
G75*
G02*
X104233000Y-146110000I0J-150000D01*
G01*
X104233000Y-146410000D01*
G75*
G02*
X104083000Y-146560000I-150000J0D01*
G01*
X102408000Y-146560000D01*
G75*
G02*
X102258000Y-146410000I0J150000D01*
G01*
G37*
G36*
G01*
X102258000Y-145140000D02*
X102258000Y-144840000D01*
G75*
G02*
X102408000Y-144690000I150000J0D01*
G01*
X104083000Y-144690000D01*
G75*
G02*
X104233000Y-144840000I0J-150000D01*
G01*
X104233000Y-145140000D01*
G75*
G02*
X104083000Y-145290000I-150000J0D01*
G01*
X102408000Y-145290000D01*
G75*
G02*
X102258000Y-145140000I0J150000D01*
G01*
G37*
G36*
G01*
X102258000Y-143870000D02*
X102258000Y-143570000D01*
G75*
G02*
X102408000Y-143420000I150000J0D01*
G01*
X104083000Y-143420000D01*
G75*
G02*
X104233000Y-143570000I0J-150000D01*
G01*
X104233000Y-143870000D01*
G75*
G02*
X104083000Y-144020000I-150000J0D01*
G01*
X102408000Y-144020000D01*
G75*
G02*
X102258000Y-143870000I0J150000D01*
G01*
G37*
G36*
G01*
X102258000Y-142600000D02*
X102258000Y-142300000D01*
G75*
G02*
X102408000Y-142150000I150000J0D01*
G01*
X104083000Y-142150000D01*
G75*
G02*
X104233000Y-142300000I0J-150000D01*
G01*
X104233000Y-142600000D01*
G75*
G02*
X104083000Y-142750000I-150000J0D01*
G01*
X102408000Y-142750000D01*
G75*
G02*
X102258000Y-142600000I0J150000D01*
G01*
G37*
%TD*%
%TO.C,R76*%
G36*
G01*
X115665000Y-74361500D02*
X115665000Y-73886500D01*
G75*
G02*
X115902500Y-73649000I237500J0D01*
G01*
X116402500Y-73649000D01*
G75*
G02*
X116640000Y-73886500I0J-237500D01*
G01*
X116640000Y-74361500D01*
G75*
G02*
X116402500Y-74599000I-237500J0D01*
G01*
X115902500Y-74599000D01*
G75*
G02*
X115665000Y-74361500I0J237500D01*
G01*
G37*
G36*
G01*
X113840000Y-74361500D02*
X113840000Y-73886500D01*
G75*
G02*
X114077500Y-73649000I237500J0D01*
G01*
X114577500Y-73649000D01*
G75*
G02*
X114815000Y-73886500I0J-237500D01*
G01*
X114815000Y-74361500D01*
G75*
G02*
X114577500Y-74599000I-237500J0D01*
G01*
X114077500Y-74599000D01*
G75*
G02*
X113840000Y-74361500I0J237500D01*
G01*
G37*
%TD*%
%TO.C,R75*%
G36*
G01*
X114815000Y-71854500D02*
X114815000Y-72329500D01*
G75*
G02*
X114577500Y-72567000I-237500J0D01*
G01*
X114077500Y-72567000D01*
G75*
G02*
X113840000Y-72329500I0J237500D01*
G01*
X113840000Y-71854500D01*
G75*
G02*
X114077500Y-71617000I237500J0D01*
G01*
X114577500Y-71617000D01*
G75*
G02*
X114815000Y-71854500I0J-237500D01*
G01*
G37*
G36*
G01*
X116640000Y-71854500D02*
X116640000Y-72329500D01*
G75*
G02*
X116402500Y-72567000I-237500J0D01*
G01*
X115902500Y-72567000D01*
G75*
G02*
X115665000Y-72329500I0J237500D01*
G01*
X115665000Y-71854500D01*
G75*
G02*
X115902500Y-71617000I237500J0D01*
G01*
X116402500Y-71617000D01*
G75*
G02*
X116640000Y-71854500I0J-237500D01*
G01*
G37*
%TD*%
%TO.C,R70*%
G36*
G01*
X107105000Y-64201500D02*
X107105000Y-63726500D01*
G75*
G02*
X107342500Y-63489000I237500J0D01*
G01*
X107842500Y-63489000D01*
G75*
G02*
X108080000Y-63726500I0J-237500D01*
G01*
X108080000Y-64201500D01*
G75*
G02*
X107842500Y-64439000I-237500J0D01*
G01*
X107342500Y-64439000D01*
G75*
G02*
X107105000Y-64201500I0J237500D01*
G01*
G37*
G36*
G01*
X105280000Y-64201500D02*
X105280000Y-63726500D01*
G75*
G02*
X105517500Y-63489000I237500J0D01*
G01*
X106017500Y-63489000D01*
G75*
G02*
X106255000Y-63726500I0J-237500D01*
G01*
X106255000Y-64201500D01*
G75*
G02*
X106017500Y-64439000I-237500J0D01*
G01*
X105517500Y-64439000D01*
G75*
G02*
X105280000Y-64201500I0J237500D01*
G01*
G37*
%TD*%
%TO.C,R69*%
G36*
G01*
X136227000Y-63726500D02*
X136227000Y-64201500D01*
G75*
G02*
X135989500Y-64439000I-237500J0D01*
G01*
X135489500Y-64439000D01*
G75*
G02*
X135252000Y-64201500I0J237500D01*
G01*
X135252000Y-63726500D01*
G75*
G02*
X135489500Y-63489000I237500J0D01*
G01*
X135989500Y-63489000D01*
G75*
G02*
X136227000Y-63726500I0J-237500D01*
G01*
G37*
G36*
G01*
X138052000Y-63726500D02*
X138052000Y-64201500D01*
G75*
G02*
X137814500Y-64439000I-237500J0D01*
G01*
X137314500Y-64439000D01*
G75*
G02*
X137077000Y-64201500I0J237500D01*
G01*
X137077000Y-63726500D01*
G75*
G02*
X137314500Y-63489000I237500J0D01*
G01*
X137814500Y-63489000D01*
G75*
G02*
X138052000Y-63726500I0J-237500D01*
G01*
G37*
%TD*%
%TO.C,R68*%
G36*
G01*
X121583000Y-64201500D02*
X121583000Y-63726500D01*
G75*
G02*
X121820500Y-63489000I237500J0D01*
G01*
X122320500Y-63489000D01*
G75*
G02*
X122558000Y-63726500I0J-237500D01*
G01*
X122558000Y-64201500D01*
G75*
G02*
X122320500Y-64439000I-237500J0D01*
G01*
X121820500Y-64439000D01*
G75*
G02*
X121583000Y-64201500I0J237500D01*
G01*
G37*
G36*
G01*
X119758000Y-64201500D02*
X119758000Y-63726500D01*
G75*
G02*
X119995500Y-63489000I237500J0D01*
G01*
X120495500Y-63489000D01*
G75*
G02*
X120733000Y-63726500I0J-237500D01*
G01*
X120733000Y-64201500D01*
G75*
G02*
X120495500Y-64439000I-237500J0D01*
G01*
X119995500Y-64439000D01*
G75*
G02*
X119758000Y-64201500I0J237500D01*
G01*
G37*
%TD*%
D12*
%TO.C,D9*%
X112042000Y-73108000D03*
X108742000Y-73108000D03*
%TD*%
D13*
%TO.C,D7*%
X141550000Y-126990000D03*
X143450000Y-126990000D03*
X142500000Y-124890000D03*
%TD*%
%TO.C,C31*%
G36*
G01*
X120153500Y-173775000D02*
X119678500Y-173775000D01*
G75*
G02*
X119441000Y-173537500I0J237500D01*
G01*
X119441000Y-172937500D01*
G75*
G02*
X119678500Y-172700000I237500J0D01*
G01*
X120153500Y-172700000D01*
G75*
G02*
X120391000Y-172937500I0J-237500D01*
G01*
X120391000Y-173537500D01*
G75*
G02*
X120153500Y-173775000I-237500J0D01*
G01*
G37*
G36*
G01*
X120153500Y-175500000D02*
X119678500Y-175500000D01*
G75*
G02*
X119441000Y-175262500I0J237500D01*
G01*
X119441000Y-174662500D01*
G75*
G02*
X119678500Y-174425000I237500J0D01*
G01*
X120153500Y-174425000D01*
G75*
G02*
X120391000Y-174662500I0J-237500D01*
G01*
X120391000Y-175262500D01*
G75*
G02*
X120153500Y-175500000I-237500J0D01*
G01*
G37*
%TD*%
%TO.C,C30*%
G36*
G01*
X135393500Y-173775000D02*
X134918500Y-173775000D01*
G75*
G02*
X134681000Y-173537500I0J237500D01*
G01*
X134681000Y-172937500D01*
G75*
G02*
X134918500Y-172700000I237500J0D01*
G01*
X135393500Y-172700000D01*
G75*
G02*
X135631000Y-172937500I0J-237500D01*
G01*
X135631000Y-173537500D01*
G75*
G02*
X135393500Y-173775000I-237500J0D01*
G01*
G37*
G36*
G01*
X135393500Y-175500000D02*
X134918500Y-175500000D01*
G75*
G02*
X134681000Y-175262500I0J237500D01*
G01*
X134681000Y-174662500D01*
G75*
G02*
X134918500Y-174425000I237500J0D01*
G01*
X135393500Y-174425000D01*
G75*
G02*
X135631000Y-174662500I0J-237500D01*
G01*
X135631000Y-175262500D01*
G75*
G02*
X135393500Y-175500000I-237500J0D01*
G01*
G37*
%TD*%
%TO.C,C29*%
G36*
G01*
X104913500Y-173775000D02*
X104438500Y-173775000D01*
G75*
G02*
X104201000Y-173537500I0J237500D01*
G01*
X104201000Y-172937500D01*
G75*
G02*
X104438500Y-172700000I237500J0D01*
G01*
X104913500Y-172700000D01*
G75*
G02*
X105151000Y-172937500I0J-237500D01*
G01*
X105151000Y-173537500D01*
G75*
G02*
X104913500Y-173775000I-237500J0D01*
G01*
G37*
G36*
G01*
X104913500Y-175500000D02*
X104438500Y-175500000D01*
G75*
G02*
X104201000Y-175262500I0J237500D01*
G01*
X104201000Y-174662500D01*
G75*
G02*
X104438500Y-174425000I237500J0D01*
G01*
X104913500Y-174425000D01*
G75*
G02*
X105151000Y-174662500I0J-237500D01*
G01*
X105151000Y-175262500D01*
G75*
G02*
X104913500Y-175500000I-237500J0D01*
G01*
G37*
%TD*%
%TO.C,C28*%
G36*
G01*
X84593500Y-173775000D02*
X84118500Y-173775000D01*
G75*
G02*
X83881000Y-173537500I0J237500D01*
G01*
X83881000Y-172937500D01*
G75*
G02*
X84118500Y-172700000I237500J0D01*
G01*
X84593500Y-172700000D01*
G75*
G02*
X84831000Y-172937500I0J-237500D01*
G01*
X84831000Y-173537500D01*
G75*
G02*
X84593500Y-173775000I-237500J0D01*
G01*
G37*
G36*
G01*
X84593500Y-175500000D02*
X84118500Y-175500000D01*
G75*
G02*
X83881000Y-175262500I0J237500D01*
G01*
X83881000Y-174662500D01*
G75*
G02*
X84118500Y-174425000I237500J0D01*
G01*
X84593500Y-174425000D01*
G75*
G02*
X84831000Y-174662500I0J-237500D01*
G01*
X84831000Y-175262500D01*
G75*
G02*
X84593500Y-175500000I-237500J0D01*
G01*
G37*
%TD*%
%TO.C,C27*%
G36*
G01*
X54113500Y-173875000D02*
X53638500Y-173875000D01*
G75*
G02*
X53401000Y-173637500I0J237500D01*
G01*
X53401000Y-173037500D01*
G75*
G02*
X53638500Y-172800000I237500J0D01*
G01*
X54113500Y-172800000D01*
G75*
G02*
X54351000Y-173037500I0J-237500D01*
G01*
X54351000Y-173637500D01*
G75*
G02*
X54113500Y-173875000I-237500J0D01*
G01*
G37*
G36*
G01*
X54113500Y-175600000D02*
X53638500Y-175600000D01*
G75*
G02*
X53401000Y-175362500I0J237500D01*
G01*
X53401000Y-174762500D01*
G75*
G02*
X53638500Y-174525000I237500J0D01*
G01*
X54113500Y-174525000D01*
G75*
G02*
X54351000Y-174762500I0J-237500D01*
G01*
X54351000Y-175362500D01*
G75*
G02*
X54113500Y-175600000I-237500J0D01*
G01*
G37*
%TD*%
%TO.C,C26*%
G36*
G01*
X69353500Y-173775000D02*
X68878500Y-173775000D01*
G75*
G02*
X68641000Y-173537500I0J237500D01*
G01*
X68641000Y-172937500D01*
G75*
G02*
X68878500Y-172700000I237500J0D01*
G01*
X69353500Y-172700000D01*
G75*
G02*
X69591000Y-172937500I0J-237500D01*
G01*
X69591000Y-173537500D01*
G75*
G02*
X69353500Y-173775000I-237500J0D01*
G01*
G37*
G36*
G01*
X69353500Y-175500000D02*
X68878500Y-175500000D01*
G75*
G02*
X68641000Y-175262500I0J237500D01*
G01*
X68641000Y-174662500D01*
G75*
G02*
X68878500Y-174425000I237500J0D01*
G01*
X69353500Y-174425000D01*
G75*
G02*
X69591000Y-174662500I0J-237500D01*
G01*
X69591000Y-175262500D01*
G75*
G02*
X69353500Y-175500000I-237500J0D01*
G01*
G37*
%TD*%
%TO.C,C25*%
G36*
G01*
X38873500Y-173775000D02*
X38398500Y-173775000D01*
G75*
G02*
X38161000Y-173537500I0J237500D01*
G01*
X38161000Y-172937500D01*
G75*
G02*
X38398500Y-172700000I237500J0D01*
G01*
X38873500Y-172700000D01*
G75*
G02*
X39111000Y-172937500I0J-237500D01*
G01*
X39111000Y-173537500D01*
G75*
G02*
X38873500Y-173775000I-237500J0D01*
G01*
G37*
G36*
G01*
X38873500Y-175500000D02*
X38398500Y-175500000D01*
G75*
G02*
X38161000Y-175262500I0J237500D01*
G01*
X38161000Y-174662500D01*
G75*
G02*
X38398500Y-174425000I237500J0D01*
G01*
X38873500Y-174425000D01*
G75*
G02*
X39111000Y-174662500I0J-237500D01*
G01*
X39111000Y-175262500D01*
G75*
G02*
X38873500Y-175500000I-237500J0D01*
G01*
G37*
%TD*%
%TO.C,C24*%
G36*
G01*
X106933000Y-153101500D02*
X106933000Y-152626500D01*
G75*
G02*
X107170500Y-152389000I237500J0D01*
G01*
X107770500Y-152389000D01*
G75*
G02*
X108008000Y-152626500I0J-237500D01*
G01*
X108008000Y-153101500D01*
G75*
G02*
X107770500Y-153339000I-237500J0D01*
G01*
X107170500Y-153339000D01*
G75*
G02*
X106933000Y-153101500I0J237500D01*
G01*
G37*
G36*
G01*
X105208000Y-153101500D02*
X105208000Y-152626500D01*
G75*
G02*
X105445500Y-152389000I237500J0D01*
G01*
X106045500Y-152389000D01*
G75*
G02*
X106283000Y-152626500I0J-237500D01*
G01*
X106283000Y-153101500D01*
G75*
G02*
X106045500Y-153339000I-237500J0D01*
G01*
X105445500Y-153339000D01*
G75*
G02*
X105208000Y-153101500I0J237500D01*
G01*
G37*
%TD*%
%TO.C,C23*%
G36*
G01*
X107187000Y-139893500D02*
X107187000Y-139418500D01*
G75*
G02*
X107424500Y-139181000I237500J0D01*
G01*
X108024500Y-139181000D01*
G75*
G02*
X108262000Y-139418500I0J-237500D01*
G01*
X108262000Y-139893500D01*
G75*
G02*
X108024500Y-140131000I-237500J0D01*
G01*
X107424500Y-140131000D01*
G75*
G02*
X107187000Y-139893500I0J237500D01*
G01*
G37*
G36*
G01*
X105462000Y-139893500D02*
X105462000Y-139418500D01*
G75*
G02*
X105699500Y-139181000I237500J0D01*
G01*
X106299500Y-139181000D01*
G75*
G02*
X106537000Y-139418500I0J-237500D01*
G01*
X106537000Y-139893500D01*
G75*
G02*
X106299500Y-140131000I-237500J0D01*
G01*
X105699500Y-140131000D01*
G75*
G02*
X105462000Y-139893500I0J237500D01*
G01*
G37*
%TD*%
%TO.C,C19*%
G36*
G01*
X69192000Y-49248000D02*
X69192000Y-51248000D01*
G75*
G02*
X68942000Y-51498000I-250000J0D01*
G01*
X65942000Y-51498000D01*
G75*
G02*
X65692000Y-51248000I0J250000D01*
G01*
X65692000Y-49248000D01*
G75*
G02*
X65942000Y-48998000I250000J0D01*
G01*
X68942000Y-48998000D01*
G75*
G02*
X69192000Y-49248000I0J-250000D01*
G01*
G37*
G36*
G01*
X75692000Y-49248000D02*
X75692000Y-51248000D01*
G75*
G02*
X75442000Y-51498000I-250000J0D01*
G01*
X72442000Y-51498000D01*
G75*
G02*
X72192000Y-51248000I0J250000D01*
G01*
X72192000Y-49248000D01*
G75*
G02*
X72442000Y-48998000I250000J0D01*
G01*
X75442000Y-48998000D01*
G75*
G02*
X75692000Y-49248000I0J-250000D01*
G01*
G37*
%TD*%
%TO.C,U13*%
G36*
G01*
X122860000Y-171705000D02*
X122560000Y-171705000D01*
G75*
G02*
X122410000Y-171555000I0J150000D01*
G01*
X122410000Y-169880000D01*
G75*
G02*
X122560000Y-169730000I150000J0D01*
G01*
X122860000Y-169730000D01*
G75*
G02*
X123010000Y-169880000I0J-150000D01*
G01*
X123010000Y-171555000D01*
G75*
G02*
X122860000Y-171705000I-150000J0D01*
G01*
G37*
G36*
G01*
X124130000Y-171705000D02*
X123830000Y-171705000D01*
G75*
G02*
X123680000Y-171555000I0J150000D01*
G01*
X123680000Y-169880000D01*
G75*
G02*
X123830000Y-169730000I150000J0D01*
G01*
X124130000Y-169730000D01*
G75*
G02*
X124280000Y-169880000I0J-150000D01*
G01*
X124280000Y-171555000D01*
G75*
G02*
X124130000Y-171705000I-150000J0D01*
G01*
G37*
G36*
G01*
X125400000Y-171705000D02*
X125100000Y-171705000D01*
G75*
G02*
X124950000Y-171555000I0J150000D01*
G01*
X124950000Y-169880000D01*
G75*
G02*
X125100000Y-169730000I150000J0D01*
G01*
X125400000Y-169730000D01*
G75*
G02*
X125550000Y-169880000I0J-150000D01*
G01*
X125550000Y-171555000D01*
G75*
G02*
X125400000Y-171705000I-150000J0D01*
G01*
G37*
G36*
G01*
X126670000Y-171705000D02*
X126370000Y-171705000D01*
G75*
G02*
X126220000Y-171555000I0J150000D01*
G01*
X126220000Y-169880000D01*
G75*
G02*
X126370000Y-169730000I150000J0D01*
G01*
X126670000Y-169730000D01*
G75*
G02*
X126820000Y-169880000I0J-150000D01*
G01*
X126820000Y-171555000D01*
G75*
G02*
X126670000Y-171705000I-150000J0D01*
G01*
G37*
G36*
G01*
X127940000Y-171705000D02*
X127640000Y-171705000D01*
G75*
G02*
X127490000Y-171555000I0J150000D01*
G01*
X127490000Y-169880000D01*
G75*
G02*
X127640000Y-169730000I150000J0D01*
G01*
X127940000Y-169730000D01*
G75*
G02*
X128090000Y-169880000I0J-150000D01*
G01*
X128090000Y-171555000D01*
G75*
G02*
X127940000Y-171705000I-150000J0D01*
G01*
G37*
G36*
G01*
X129210000Y-171705000D02*
X128910000Y-171705000D01*
G75*
G02*
X128760000Y-171555000I0J150000D01*
G01*
X128760000Y-169880000D01*
G75*
G02*
X128910000Y-169730000I150000J0D01*
G01*
X129210000Y-169730000D01*
G75*
G02*
X129360000Y-169880000I0J-150000D01*
G01*
X129360000Y-171555000D01*
G75*
G02*
X129210000Y-171705000I-150000J0D01*
G01*
G37*
G36*
G01*
X130480000Y-171705000D02*
X130180000Y-171705000D01*
G75*
G02*
X130030000Y-171555000I0J150000D01*
G01*
X130030000Y-169880000D01*
G75*
G02*
X130180000Y-169730000I150000J0D01*
G01*
X130480000Y-169730000D01*
G75*
G02*
X130630000Y-169880000I0J-150000D01*
G01*
X130630000Y-171555000D01*
G75*
G02*
X130480000Y-171705000I-150000J0D01*
G01*
G37*
G36*
G01*
X130480000Y-178630000D02*
X130180000Y-178630000D01*
G75*
G02*
X130030000Y-178480000I0J150000D01*
G01*
X130030000Y-176805000D01*
G75*
G02*
X130180000Y-176655000I150000J0D01*
G01*
X130480000Y-176655000D01*
G75*
G02*
X130630000Y-176805000I0J-150000D01*
G01*
X130630000Y-178480000D01*
G75*
G02*
X130480000Y-178630000I-150000J0D01*
G01*
G37*
G36*
G01*
X129210000Y-178630000D02*
X128910000Y-178630000D01*
G75*
G02*
X128760000Y-178480000I0J150000D01*
G01*
X128760000Y-176805000D01*
G75*
G02*
X128910000Y-176655000I150000J0D01*
G01*
X129210000Y-176655000D01*
G75*
G02*
X129360000Y-176805000I0J-150000D01*
G01*
X129360000Y-178480000D01*
G75*
G02*
X129210000Y-178630000I-150000J0D01*
G01*
G37*
G36*
G01*
X127940000Y-178630000D02*
X127640000Y-178630000D01*
G75*
G02*
X127490000Y-178480000I0J150000D01*
G01*
X127490000Y-176805000D01*
G75*
G02*
X127640000Y-176655000I150000J0D01*
G01*
X127940000Y-176655000D01*
G75*
G02*
X128090000Y-176805000I0J-150000D01*
G01*
X128090000Y-178480000D01*
G75*
G02*
X127940000Y-178630000I-150000J0D01*
G01*
G37*
G36*
G01*
X126670000Y-178630000D02*
X126370000Y-178630000D01*
G75*
G02*
X126220000Y-178480000I0J150000D01*
G01*
X126220000Y-176805000D01*
G75*
G02*
X126370000Y-176655000I150000J0D01*
G01*
X126670000Y-176655000D01*
G75*
G02*
X126820000Y-176805000I0J-150000D01*
G01*
X126820000Y-178480000D01*
G75*
G02*
X126670000Y-178630000I-150000J0D01*
G01*
G37*
G36*
G01*
X125400000Y-178630000D02*
X125100000Y-178630000D01*
G75*
G02*
X124950000Y-178480000I0J150000D01*
G01*
X124950000Y-176805000D01*
G75*
G02*
X125100000Y-176655000I150000J0D01*
G01*
X125400000Y-176655000D01*
G75*
G02*
X125550000Y-176805000I0J-150000D01*
G01*
X125550000Y-178480000D01*
G75*
G02*
X125400000Y-178630000I-150000J0D01*
G01*
G37*
G36*
G01*
X124130000Y-178630000D02*
X123830000Y-178630000D01*
G75*
G02*
X123680000Y-178480000I0J150000D01*
G01*
X123680000Y-176805000D01*
G75*
G02*
X123830000Y-176655000I150000J0D01*
G01*
X124130000Y-176655000D01*
G75*
G02*
X124280000Y-176805000I0J-150000D01*
G01*
X124280000Y-178480000D01*
G75*
G02*
X124130000Y-178630000I-150000J0D01*
G01*
G37*
G36*
G01*
X122860000Y-178630000D02*
X122560000Y-178630000D01*
G75*
G02*
X122410000Y-178480000I0J150000D01*
G01*
X122410000Y-176805000D01*
G75*
G02*
X122560000Y-176655000I150000J0D01*
G01*
X122860000Y-176655000D01*
G75*
G02*
X123010000Y-176805000I0J-150000D01*
G01*
X123010000Y-178480000D01*
G75*
G02*
X122860000Y-178630000I-150000J0D01*
G01*
G37*
%TD*%
%TO.C,U12*%
G36*
G01*
X138100000Y-171705000D02*
X137800000Y-171705000D01*
G75*
G02*
X137650000Y-171555000I0J150000D01*
G01*
X137650000Y-169880000D01*
G75*
G02*
X137800000Y-169730000I150000J0D01*
G01*
X138100000Y-169730000D01*
G75*
G02*
X138250000Y-169880000I0J-150000D01*
G01*
X138250000Y-171555000D01*
G75*
G02*
X138100000Y-171705000I-150000J0D01*
G01*
G37*
G36*
G01*
X139370000Y-171705000D02*
X139070000Y-171705000D01*
G75*
G02*
X138920000Y-171555000I0J150000D01*
G01*
X138920000Y-169880000D01*
G75*
G02*
X139070000Y-169730000I150000J0D01*
G01*
X139370000Y-169730000D01*
G75*
G02*
X139520000Y-169880000I0J-150000D01*
G01*
X139520000Y-171555000D01*
G75*
G02*
X139370000Y-171705000I-150000J0D01*
G01*
G37*
G36*
G01*
X140640000Y-171705000D02*
X140340000Y-171705000D01*
G75*
G02*
X140190000Y-171555000I0J150000D01*
G01*
X140190000Y-169880000D01*
G75*
G02*
X140340000Y-169730000I150000J0D01*
G01*
X140640000Y-169730000D01*
G75*
G02*
X140790000Y-169880000I0J-150000D01*
G01*
X140790000Y-171555000D01*
G75*
G02*
X140640000Y-171705000I-150000J0D01*
G01*
G37*
G36*
G01*
X141910000Y-171705000D02*
X141610000Y-171705000D01*
G75*
G02*
X141460000Y-171555000I0J150000D01*
G01*
X141460000Y-169880000D01*
G75*
G02*
X141610000Y-169730000I150000J0D01*
G01*
X141910000Y-169730000D01*
G75*
G02*
X142060000Y-169880000I0J-150000D01*
G01*
X142060000Y-171555000D01*
G75*
G02*
X141910000Y-171705000I-150000J0D01*
G01*
G37*
G36*
G01*
X143180000Y-171705000D02*
X142880000Y-171705000D01*
G75*
G02*
X142730000Y-171555000I0J150000D01*
G01*
X142730000Y-169880000D01*
G75*
G02*
X142880000Y-169730000I150000J0D01*
G01*
X143180000Y-169730000D01*
G75*
G02*
X143330000Y-169880000I0J-150000D01*
G01*
X143330000Y-171555000D01*
G75*
G02*
X143180000Y-171705000I-150000J0D01*
G01*
G37*
G36*
G01*
X144450000Y-171705000D02*
X144150000Y-171705000D01*
G75*
G02*
X144000000Y-171555000I0J150000D01*
G01*
X144000000Y-169880000D01*
G75*
G02*
X144150000Y-169730000I150000J0D01*
G01*
X144450000Y-169730000D01*
G75*
G02*
X144600000Y-169880000I0J-150000D01*
G01*
X144600000Y-171555000D01*
G75*
G02*
X144450000Y-171705000I-150000J0D01*
G01*
G37*
G36*
G01*
X145720000Y-171705000D02*
X145420000Y-171705000D01*
G75*
G02*
X145270000Y-171555000I0J150000D01*
G01*
X145270000Y-169880000D01*
G75*
G02*
X145420000Y-169730000I150000J0D01*
G01*
X145720000Y-169730000D01*
G75*
G02*
X145870000Y-169880000I0J-150000D01*
G01*
X145870000Y-171555000D01*
G75*
G02*
X145720000Y-171705000I-150000J0D01*
G01*
G37*
G36*
G01*
X145720000Y-178630000D02*
X145420000Y-178630000D01*
G75*
G02*
X145270000Y-178480000I0J150000D01*
G01*
X145270000Y-176805000D01*
G75*
G02*
X145420000Y-176655000I150000J0D01*
G01*
X145720000Y-176655000D01*
G75*
G02*
X145870000Y-176805000I0J-150000D01*
G01*
X145870000Y-178480000D01*
G75*
G02*
X145720000Y-178630000I-150000J0D01*
G01*
G37*
G36*
G01*
X144450000Y-178630000D02*
X144150000Y-178630000D01*
G75*
G02*
X144000000Y-178480000I0J150000D01*
G01*
X144000000Y-176805000D01*
G75*
G02*
X144150000Y-176655000I150000J0D01*
G01*
X144450000Y-176655000D01*
G75*
G02*
X144600000Y-176805000I0J-150000D01*
G01*
X144600000Y-178480000D01*
G75*
G02*
X144450000Y-178630000I-150000J0D01*
G01*
G37*
G36*
G01*
X143180000Y-178630000D02*
X142880000Y-178630000D01*
G75*
G02*
X142730000Y-178480000I0J150000D01*
G01*
X142730000Y-176805000D01*
G75*
G02*
X142880000Y-176655000I150000J0D01*
G01*
X143180000Y-176655000D01*
G75*
G02*
X143330000Y-176805000I0J-150000D01*
G01*
X143330000Y-178480000D01*
G75*
G02*
X143180000Y-178630000I-150000J0D01*
G01*
G37*
G36*
G01*
X141910000Y-178630000D02*
X141610000Y-178630000D01*
G75*
G02*
X141460000Y-178480000I0J150000D01*
G01*
X141460000Y-176805000D01*
G75*
G02*
X141610000Y-176655000I150000J0D01*
G01*
X141910000Y-176655000D01*
G75*
G02*
X142060000Y-176805000I0J-150000D01*
G01*
X142060000Y-178480000D01*
G75*
G02*
X141910000Y-178630000I-150000J0D01*
G01*
G37*
G36*
G01*
X140640000Y-178630000D02*
X140340000Y-178630000D01*
G75*
G02*
X140190000Y-178480000I0J150000D01*
G01*
X140190000Y-176805000D01*
G75*
G02*
X140340000Y-176655000I150000J0D01*
G01*
X140640000Y-176655000D01*
G75*
G02*
X140790000Y-176805000I0J-150000D01*
G01*
X140790000Y-178480000D01*
G75*
G02*
X140640000Y-178630000I-150000J0D01*
G01*
G37*
G36*
G01*
X139370000Y-178630000D02*
X139070000Y-178630000D01*
G75*
G02*
X138920000Y-178480000I0J150000D01*
G01*
X138920000Y-176805000D01*
G75*
G02*
X139070000Y-176655000I150000J0D01*
G01*
X139370000Y-176655000D01*
G75*
G02*
X139520000Y-176805000I0J-150000D01*
G01*
X139520000Y-178480000D01*
G75*
G02*
X139370000Y-178630000I-150000J0D01*
G01*
G37*
G36*
G01*
X138100000Y-178630000D02*
X137800000Y-178630000D01*
G75*
G02*
X137650000Y-178480000I0J150000D01*
G01*
X137650000Y-176805000D01*
G75*
G02*
X137800000Y-176655000I150000J0D01*
G01*
X138100000Y-176655000D01*
G75*
G02*
X138250000Y-176805000I0J-150000D01*
G01*
X138250000Y-178480000D01*
G75*
G02*
X138100000Y-178630000I-150000J0D01*
G01*
G37*
%TD*%
%TO.C,U11*%
G36*
G01*
X107620000Y-171705000D02*
X107320000Y-171705000D01*
G75*
G02*
X107170000Y-171555000I0J150000D01*
G01*
X107170000Y-169880000D01*
G75*
G02*
X107320000Y-169730000I150000J0D01*
G01*
X107620000Y-169730000D01*
G75*
G02*
X107770000Y-169880000I0J-150000D01*
G01*
X107770000Y-171555000D01*
G75*
G02*
X107620000Y-171705000I-150000J0D01*
G01*
G37*
G36*
G01*
X108890000Y-171705000D02*
X108590000Y-171705000D01*
G75*
G02*
X108440000Y-171555000I0J150000D01*
G01*
X108440000Y-169880000D01*
G75*
G02*
X108590000Y-169730000I150000J0D01*
G01*
X108890000Y-169730000D01*
G75*
G02*
X109040000Y-169880000I0J-150000D01*
G01*
X109040000Y-171555000D01*
G75*
G02*
X108890000Y-171705000I-150000J0D01*
G01*
G37*
G36*
G01*
X110160000Y-171705000D02*
X109860000Y-171705000D01*
G75*
G02*
X109710000Y-171555000I0J150000D01*
G01*
X109710000Y-169880000D01*
G75*
G02*
X109860000Y-169730000I150000J0D01*
G01*
X110160000Y-169730000D01*
G75*
G02*
X110310000Y-169880000I0J-150000D01*
G01*
X110310000Y-171555000D01*
G75*
G02*
X110160000Y-171705000I-150000J0D01*
G01*
G37*
G36*
G01*
X111430000Y-171705000D02*
X111130000Y-171705000D01*
G75*
G02*
X110980000Y-171555000I0J150000D01*
G01*
X110980000Y-169880000D01*
G75*
G02*
X111130000Y-169730000I150000J0D01*
G01*
X111430000Y-169730000D01*
G75*
G02*
X111580000Y-169880000I0J-150000D01*
G01*
X111580000Y-171555000D01*
G75*
G02*
X111430000Y-171705000I-150000J0D01*
G01*
G37*
G36*
G01*
X112700000Y-171705000D02*
X112400000Y-171705000D01*
G75*
G02*
X112250000Y-171555000I0J150000D01*
G01*
X112250000Y-169880000D01*
G75*
G02*
X112400000Y-169730000I150000J0D01*
G01*
X112700000Y-169730000D01*
G75*
G02*
X112850000Y-169880000I0J-150000D01*
G01*
X112850000Y-171555000D01*
G75*
G02*
X112700000Y-171705000I-150000J0D01*
G01*
G37*
G36*
G01*
X113970000Y-171705000D02*
X113670000Y-171705000D01*
G75*
G02*
X113520000Y-171555000I0J150000D01*
G01*
X113520000Y-169880000D01*
G75*
G02*
X113670000Y-169730000I150000J0D01*
G01*
X113970000Y-169730000D01*
G75*
G02*
X114120000Y-169880000I0J-150000D01*
G01*
X114120000Y-171555000D01*
G75*
G02*
X113970000Y-171705000I-150000J0D01*
G01*
G37*
G36*
G01*
X115240000Y-171705000D02*
X114940000Y-171705000D01*
G75*
G02*
X114790000Y-171555000I0J150000D01*
G01*
X114790000Y-169880000D01*
G75*
G02*
X114940000Y-169730000I150000J0D01*
G01*
X115240000Y-169730000D01*
G75*
G02*
X115390000Y-169880000I0J-150000D01*
G01*
X115390000Y-171555000D01*
G75*
G02*
X115240000Y-171705000I-150000J0D01*
G01*
G37*
G36*
G01*
X115240000Y-178630000D02*
X114940000Y-178630000D01*
G75*
G02*
X114790000Y-178480000I0J150000D01*
G01*
X114790000Y-176805000D01*
G75*
G02*
X114940000Y-176655000I150000J0D01*
G01*
X115240000Y-176655000D01*
G75*
G02*
X115390000Y-176805000I0J-150000D01*
G01*
X115390000Y-178480000D01*
G75*
G02*
X115240000Y-178630000I-150000J0D01*
G01*
G37*
G36*
G01*
X113970000Y-178630000D02*
X113670000Y-178630000D01*
G75*
G02*
X113520000Y-178480000I0J150000D01*
G01*
X113520000Y-176805000D01*
G75*
G02*
X113670000Y-176655000I150000J0D01*
G01*
X113970000Y-176655000D01*
G75*
G02*
X114120000Y-176805000I0J-150000D01*
G01*
X114120000Y-178480000D01*
G75*
G02*
X113970000Y-178630000I-150000J0D01*
G01*
G37*
G36*
G01*
X112700000Y-178630000D02*
X112400000Y-178630000D01*
G75*
G02*
X112250000Y-178480000I0J150000D01*
G01*
X112250000Y-176805000D01*
G75*
G02*
X112400000Y-176655000I150000J0D01*
G01*
X112700000Y-176655000D01*
G75*
G02*
X112850000Y-176805000I0J-150000D01*
G01*
X112850000Y-178480000D01*
G75*
G02*
X112700000Y-178630000I-150000J0D01*
G01*
G37*
G36*
G01*
X111430000Y-178630000D02*
X111130000Y-178630000D01*
G75*
G02*
X110980000Y-178480000I0J150000D01*
G01*
X110980000Y-176805000D01*
G75*
G02*
X111130000Y-176655000I150000J0D01*
G01*
X111430000Y-176655000D01*
G75*
G02*
X111580000Y-176805000I0J-150000D01*
G01*
X111580000Y-178480000D01*
G75*
G02*
X111430000Y-178630000I-150000J0D01*
G01*
G37*
G36*
G01*
X110160000Y-178630000D02*
X109860000Y-178630000D01*
G75*
G02*
X109710000Y-178480000I0J150000D01*
G01*
X109710000Y-176805000D01*
G75*
G02*
X109860000Y-176655000I150000J0D01*
G01*
X110160000Y-176655000D01*
G75*
G02*
X110310000Y-176805000I0J-150000D01*
G01*
X110310000Y-178480000D01*
G75*
G02*
X110160000Y-178630000I-150000J0D01*
G01*
G37*
G36*
G01*
X108890000Y-178630000D02*
X108590000Y-178630000D01*
G75*
G02*
X108440000Y-178480000I0J150000D01*
G01*
X108440000Y-176805000D01*
G75*
G02*
X108590000Y-176655000I150000J0D01*
G01*
X108890000Y-176655000D01*
G75*
G02*
X109040000Y-176805000I0J-150000D01*
G01*
X109040000Y-178480000D01*
G75*
G02*
X108890000Y-178630000I-150000J0D01*
G01*
G37*
G36*
G01*
X107620000Y-178630000D02*
X107320000Y-178630000D01*
G75*
G02*
X107170000Y-178480000I0J150000D01*
G01*
X107170000Y-176805000D01*
G75*
G02*
X107320000Y-176655000I150000J0D01*
G01*
X107620000Y-176655000D01*
G75*
G02*
X107770000Y-176805000I0J-150000D01*
G01*
X107770000Y-178480000D01*
G75*
G02*
X107620000Y-178630000I-150000J0D01*
G01*
G37*
%TD*%
%TO.C,U9*%
G36*
G01*
X87300000Y-171705000D02*
X87000000Y-171705000D01*
G75*
G02*
X86850000Y-171555000I0J150000D01*
G01*
X86850000Y-169880000D01*
G75*
G02*
X87000000Y-169730000I150000J0D01*
G01*
X87300000Y-169730000D01*
G75*
G02*
X87450000Y-169880000I0J-150000D01*
G01*
X87450000Y-171555000D01*
G75*
G02*
X87300000Y-171705000I-150000J0D01*
G01*
G37*
G36*
G01*
X88570000Y-171705000D02*
X88270000Y-171705000D01*
G75*
G02*
X88120000Y-171555000I0J150000D01*
G01*
X88120000Y-169880000D01*
G75*
G02*
X88270000Y-169730000I150000J0D01*
G01*
X88570000Y-169730000D01*
G75*
G02*
X88720000Y-169880000I0J-150000D01*
G01*
X88720000Y-171555000D01*
G75*
G02*
X88570000Y-171705000I-150000J0D01*
G01*
G37*
G36*
G01*
X89840000Y-171705000D02*
X89540000Y-171705000D01*
G75*
G02*
X89390000Y-171555000I0J150000D01*
G01*
X89390000Y-169880000D01*
G75*
G02*
X89540000Y-169730000I150000J0D01*
G01*
X89840000Y-169730000D01*
G75*
G02*
X89990000Y-169880000I0J-150000D01*
G01*
X89990000Y-171555000D01*
G75*
G02*
X89840000Y-171705000I-150000J0D01*
G01*
G37*
G36*
G01*
X91110000Y-171705000D02*
X90810000Y-171705000D01*
G75*
G02*
X90660000Y-171555000I0J150000D01*
G01*
X90660000Y-169880000D01*
G75*
G02*
X90810000Y-169730000I150000J0D01*
G01*
X91110000Y-169730000D01*
G75*
G02*
X91260000Y-169880000I0J-150000D01*
G01*
X91260000Y-171555000D01*
G75*
G02*
X91110000Y-171705000I-150000J0D01*
G01*
G37*
G36*
G01*
X92380000Y-171705000D02*
X92080000Y-171705000D01*
G75*
G02*
X91930000Y-171555000I0J150000D01*
G01*
X91930000Y-169880000D01*
G75*
G02*
X92080000Y-169730000I150000J0D01*
G01*
X92380000Y-169730000D01*
G75*
G02*
X92530000Y-169880000I0J-150000D01*
G01*
X92530000Y-171555000D01*
G75*
G02*
X92380000Y-171705000I-150000J0D01*
G01*
G37*
G36*
G01*
X93650000Y-171705000D02*
X93350000Y-171705000D01*
G75*
G02*
X93200000Y-171555000I0J150000D01*
G01*
X93200000Y-169880000D01*
G75*
G02*
X93350000Y-169730000I150000J0D01*
G01*
X93650000Y-169730000D01*
G75*
G02*
X93800000Y-169880000I0J-150000D01*
G01*
X93800000Y-171555000D01*
G75*
G02*
X93650000Y-171705000I-150000J0D01*
G01*
G37*
G36*
G01*
X94920000Y-171705000D02*
X94620000Y-171705000D01*
G75*
G02*
X94470000Y-171555000I0J150000D01*
G01*
X94470000Y-169880000D01*
G75*
G02*
X94620000Y-169730000I150000J0D01*
G01*
X94920000Y-169730000D01*
G75*
G02*
X95070000Y-169880000I0J-150000D01*
G01*
X95070000Y-171555000D01*
G75*
G02*
X94920000Y-171705000I-150000J0D01*
G01*
G37*
G36*
G01*
X94920000Y-178630000D02*
X94620000Y-178630000D01*
G75*
G02*
X94470000Y-178480000I0J150000D01*
G01*
X94470000Y-176805000D01*
G75*
G02*
X94620000Y-176655000I150000J0D01*
G01*
X94920000Y-176655000D01*
G75*
G02*
X95070000Y-176805000I0J-150000D01*
G01*
X95070000Y-178480000D01*
G75*
G02*
X94920000Y-178630000I-150000J0D01*
G01*
G37*
G36*
G01*
X93650000Y-178630000D02*
X93350000Y-178630000D01*
G75*
G02*
X93200000Y-178480000I0J150000D01*
G01*
X93200000Y-176805000D01*
G75*
G02*
X93350000Y-176655000I150000J0D01*
G01*
X93650000Y-176655000D01*
G75*
G02*
X93800000Y-176805000I0J-150000D01*
G01*
X93800000Y-178480000D01*
G75*
G02*
X93650000Y-178630000I-150000J0D01*
G01*
G37*
G36*
G01*
X92380000Y-178630000D02*
X92080000Y-178630000D01*
G75*
G02*
X91930000Y-178480000I0J150000D01*
G01*
X91930000Y-176805000D01*
G75*
G02*
X92080000Y-176655000I150000J0D01*
G01*
X92380000Y-176655000D01*
G75*
G02*
X92530000Y-176805000I0J-150000D01*
G01*
X92530000Y-178480000D01*
G75*
G02*
X92380000Y-178630000I-150000J0D01*
G01*
G37*
G36*
G01*
X91110000Y-178630000D02*
X90810000Y-178630000D01*
G75*
G02*
X90660000Y-178480000I0J150000D01*
G01*
X90660000Y-176805000D01*
G75*
G02*
X90810000Y-176655000I150000J0D01*
G01*
X91110000Y-176655000D01*
G75*
G02*
X91260000Y-176805000I0J-150000D01*
G01*
X91260000Y-178480000D01*
G75*
G02*
X91110000Y-178630000I-150000J0D01*
G01*
G37*
G36*
G01*
X89840000Y-178630000D02*
X89540000Y-178630000D01*
G75*
G02*
X89390000Y-178480000I0J150000D01*
G01*
X89390000Y-176805000D01*
G75*
G02*
X89540000Y-176655000I150000J0D01*
G01*
X89840000Y-176655000D01*
G75*
G02*
X89990000Y-176805000I0J-150000D01*
G01*
X89990000Y-178480000D01*
G75*
G02*
X89840000Y-178630000I-150000J0D01*
G01*
G37*
G36*
G01*
X88570000Y-178630000D02*
X88270000Y-178630000D01*
G75*
G02*
X88120000Y-178480000I0J150000D01*
G01*
X88120000Y-176805000D01*
G75*
G02*
X88270000Y-176655000I150000J0D01*
G01*
X88570000Y-176655000D01*
G75*
G02*
X88720000Y-176805000I0J-150000D01*
G01*
X88720000Y-178480000D01*
G75*
G02*
X88570000Y-178630000I-150000J0D01*
G01*
G37*
G36*
G01*
X87300000Y-178630000D02*
X87000000Y-178630000D01*
G75*
G02*
X86850000Y-178480000I0J150000D01*
G01*
X86850000Y-176805000D01*
G75*
G02*
X87000000Y-176655000I150000J0D01*
G01*
X87300000Y-176655000D01*
G75*
G02*
X87450000Y-176805000I0J-150000D01*
G01*
X87450000Y-178480000D01*
G75*
G02*
X87300000Y-178630000I-150000J0D01*
G01*
G37*
%TD*%
%TO.C,U8*%
G36*
G01*
X56820000Y-171705000D02*
X56520000Y-171705000D01*
G75*
G02*
X56370000Y-171555000I0J150000D01*
G01*
X56370000Y-169880000D01*
G75*
G02*
X56520000Y-169730000I150000J0D01*
G01*
X56820000Y-169730000D01*
G75*
G02*
X56970000Y-169880000I0J-150000D01*
G01*
X56970000Y-171555000D01*
G75*
G02*
X56820000Y-171705000I-150000J0D01*
G01*
G37*
G36*
G01*
X58090000Y-171705000D02*
X57790000Y-171705000D01*
G75*
G02*
X57640000Y-171555000I0J150000D01*
G01*
X57640000Y-169880000D01*
G75*
G02*
X57790000Y-169730000I150000J0D01*
G01*
X58090000Y-169730000D01*
G75*
G02*
X58240000Y-169880000I0J-150000D01*
G01*
X58240000Y-171555000D01*
G75*
G02*
X58090000Y-171705000I-150000J0D01*
G01*
G37*
G36*
G01*
X59360000Y-171705000D02*
X59060000Y-171705000D01*
G75*
G02*
X58910000Y-171555000I0J150000D01*
G01*
X58910000Y-169880000D01*
G75*
G02*
X59060000Y-169730000I150000J0D01*
G01*
X59360000Y-169730000D01*
G75*
G02*
X59510000Y-169880000I0J-150000D01*
G01*
X59510000Y-171555000D01*
G75*
G02*
X59360000Y-171705000I-150000J0D01*
G01*
G37*
G36*
G01*
X60630000Y-171705000D02*
X60330000Y-171705000D01*
G75*
G02*
X60180000Y-171555000I0J150000D01*
G01*
X60180000Y-169880000D01*
G75*
G02*
X60330000Y-169730000I150000J0D01*
G01*
X60630000Y-169730000D01*
G75*
G02*
X60780000Y-169880000I0J-150000D01*
G01*
X60780000Y-171555000D01*
G75*
G02*
X60630000Y-171705000I-150000J0D01*
G01*
G37*
G36*
G01*
X61900000Y-171705000D02*
X61600000Y-171705000D01*
G75*
G02*
X61450000Y-171555000I0J150000D01*
G01*
X61450000Y-169880000D01*
G75*
G02*
X61600000Y-169730000I150000J0D01*
G01*
X61900000Y-169730000D01*
G75*
G02*
X62050000Y-169880000I0J-150000D01*
G01*
X62050000Y-171555000D01*
G75*
G02*
X61900000Y-171705000I-150000J0D01*
G01*
G37*
G36*
G01*
X63170000Y-171705000D02*
X62870000Y-171705000D01*
G75*
G02*
X62720000Y-171555000I0J150000D01*
G01*
X62720000Y-169880000D01*
G75*
G02*
X62870000Y-169730000I150000J0D01*
G01*
X63170000Y-169730000D01*
G75*
G02*
X63320000Y-169880000I0J-150000D01*
G01*
X63320000Y-171555000D01*
G75*
G02*
X63170000Y-171705000I-150000J0D01*
G01*
G37*
G36*
G01*
X64440000Y-171705000D02*
X64140000Y-171705000D01*
G75*
G02*
X63990000Y-171555000I0J150000D01*
G01*
X63990000Y-169880000D01*
G75*
G02*
X64140000Y-169730000I150000J0D01*
G01*
X64440000Y-169730000D01*
G75*
G02*
X64590000Y-169880000I0J-150000D01*
G01*
X64590000Y-171555000D01*
G75*
G02*
X64440000Y-171705000I-150000J0D01*
G01*
G37*
G36*
G01*
X64440000Y-178630000D02*
X64140000Y-178630000D01*
G75*
G02*
X63990000Y-178480000I0J150000D01*
G01*
X63990000Y-176805000D01*
G75*
G02*
X64140000Y-176655000I150000J0D01*
G01*
X64440000Y-176655000D01*
G75*
G02*
X64590000Y-176805000I0J-150000D01*
G01*
X64590000Y-178480000D01*
G75*
G02*
X64440000Y-178630000I-150000J0D01*
G01*
G37*
G36*
G01*
X63170000Y-178630000D02*
X62870000Y-178630000D01*
G75*
G02*
X62720000Y-178480000I0J150000D01*
G01*
X62720000Y-176805000D01*
G75*
G02*
X62870000Y-176655000I150000J0D01*
G01*
X63170000Y-176655000D01*
G75*
G02*
X63320000Y-176805000I0J-150000D01*
G01*
X63320000Y-178480000D01*
G75*
G02*
X63170000Y-178630000I-150000J0D01*
G01*
G37*
G36*
G01*
X61900000Y-178630000D02*
X61600000Y-178630000D01*
G75*
G02*
X61450000Y-178480000I0J150000D01*
G01*
X61450000Y-176805000D01*
G75*
G02*
X61600000Y-176655000I150000J0D01*
G01*
X61900000Y-176655000D01*
G75*
G02*
X62050000Y-176805000I0J-150000D01*
G01*
X62050000Y-178480000D01*
G75*
G02*
X61900000Y-178630000I-150000J0D01*
G01*
G37*
G36*
G01*
X60630000Y-178630000D02*
X60330000Y-178630000D01*
G75*
G02*
X60180000Y-178480000I0J150000D01*
G01*
X60180000Y-176805000D01*
G75*
G02*
X60330000Y-176655000I150000J0D01*
G01*
X60630000Y-176655000D01*
G75*
G02*
X60780000Y-176805000I0J-150000D01*
G01*
X60780000Y-178480000D01*
G75*
G02*
X60630000Y-178630000I-150000J0D01*
G01*
G37*
G36*
G01*
X59360000Y-178630000D02*
X59060000Y-178630000D01*
G75*
G02*
X58910000Y-178480000I0J150000D01*
G01*
X58910000Y-176805000D01*
G75*
G02*
X59060000Y-176655000I150000J0D01*
G01*
X59360000Y-176655000D01*
G75*
G02*
X59510000Y-176805000I0J-150000D01*
G01*
X59510000Y-178480000D01*
G75*
G02*
X59360000Y-178630000I-150000J0D01*
G01*
G37*
G36*
G01*
X58090000Y-178630000D02*
X57790000Y-178630000D01*
G75*
G02*
X57640000Y-178480000I0J150000D01*
G01*
X57640000Y-176805000D01*
G75*
G02*
X57790000Y-176655000I150000J0D01*
G01*
X58090000Y-176655000D01*
G75*
G02*
X58240000Y-176805000I0J-150000D01*
G01*
X58240000Y-178480000D01*
G75*
G02*
X58090000Y-178630000I-150000J0D01*
G01*
G37*
G36*
G01*
X56820000Y-178630000D02*
X56520000Y-178630000D01*
G75*
G02*
X56370000Y-178480000I0J150000D01*
G01*
X56370000Y-176805000D01*
G75*
G02*
X56520000Y-176655000I150000J0D01*
G01*
X56820000Y-176655000D01*
G75*
G02*
X56970000Y-176805000I0J-150000D01*
G01*
X56970000Y-178480000D01*
G75*
G02*
X56820000Y-178630000I-150000J0D01*
G01*
G37*
%TD*%
%TO.C,U7*%
G36*
G01*
X72060000Y-171705000D02*
X71760000Y-171705000D01*
G75*
G02*
X71610000Y-171555000I0J150000D01*
G01*
X71610000Y-169880000D01*
G75*
G02*
X71760000Y-169730000I150000J0D01*
G01*
X72060000Y-169730000D01*
G75*
G02*
X72210000Y-169880000I0J-150000D01*
G01*
X72210000Y-171555000D01*
G75*
G02*
X72060000Y-171705000I-150000J0D01*
G01*
G37*
G36*
G01*
X73330000Y-171705000D02*
X73030000Y-171705000D01*
G75*
G02*
X72880000Y-171555000I0J150000D01*
G01*
X72880000Y-169880000D01*
G75*
G02*
X73030000Y-169730000I150000J0D01*
G01*
X73330000Y-169730000D01*
G75*
G02*
X73480000Y-169880000I0J-150000D01*
G01*
X73480000Y-171555000D01*
G75*
G02*
X73330000Y-171705000I-150000J0D01*
G01*
G37*
G36*
G01*
X74600000Y-171705000D02*
X74300000Y-171705000D01*
G75*
G02*
X74150000Y-171555000I0J150000D01*
G01*
X74150000Y-169880000D01*
G75*
G02*
X74300000Y-169730000I150000J0D01*
G01*
X74600000Y-169730000D01*
G75*
G02*
X74750000Y-169880000I0J-150000D01*
G01*
X74750000Y-171555000D01*
G75*
G02*
X74600000Y-171705000I-150000J0D01*
G01*
G37*
G36*
G01*
X75870000Y-171705000D02*
X75570000Y-171705000D01*
G75*
G02*
X75420000Y-171555000I0J150000D01*
G01*
X75420000Y-169880000D01*
G75*
G02*
X75570000Y-169730000I150000J0D01*
G01*
X75870000Y-169730000D01*
G75*
G02*
X76020000Y-169880000I0J-150000D01*
G01*
X76020000Y-171555000D01*
G75*
G02*
X75870000Y-171705000I-150000J0D01*
G01*
G37*
G36*
G01*
X77140000Y-171705000D02*
X76840000Y-171705000D01*
G75*
G02*
X76690000Y-171555000I0J150000D01*
G01*
X76690000Y-169880000D01*
G75*
G02*
X76840000Y-169730000I150000J0D01*
G01*
X77140000Y-169730000D01*
G75*
G02*
X77290000Y-169880000I0J-150000D01*
G01*
X77290000Y-171555000D01*
G75*
G02*
X77140000Y-171705000I-150000J0D01*
G01*
G37*
G36*
G01*
X78410000Y-171705000D02*
X78110000Y-171705000D01*
G75*
G02*
X77960000Y-171555000I0J150000D01*
G01*
X77960000Y-169880000D01*
G75*
G02*
X78110000Y-169730000I150000J0D01*
G01*
X78410000Y-169730000D01*
G75*
G02*
X78560000Y-169880000I0J-150000D01*
G01*
X78560000Y-171555000D01*
G75*
G02*
X78410000Y-171705000I-150000J0D01*
G01*
G37*
G36*
G01*
X79680000Y-171705000D02*
X79380000Y-171705000D01*
G75*
G02*
X79230000Y-171555000I0J150000D01*
G01*
X79230000Y-169880000D01*
G75*
G02*
X79380000Y-169730000I150000J0D01*
G01*
X79680000Y-169730000D01*
G75*
G02*
X79830000Y-169880000I0J-150000D01*
G01*
X79830000Y-171555000D01*
G75*
G02*
X79680000Y-171705000I-150000J0D01*
G01*
G37*
G36*
G01*
X79680000Y-178630000D02*
X79380000Y-178630000D01*
G75*
G02*
X79230000Y-178480000I0J150000D01*
G01*
X79230000Y-176805000D01*
G75*
G02*
X79380000Y-176655000I150000J0D01*
G01*
X79680000Y-176655000D01*
G75*
G02*
X79830000Y-176805000I0J-150000D01*
G01*
X79830000Y-178480000D01*
G75*
G02*
X79680000Y-178630000I-150000J0D01*
G01*
G37*
G36*
G01*
X78410000Y-178630000D02*
X78110000Y-178630000D01*
G75*
G02*
X77960000Y-178480000I0J150000D01*
G01*
X77960000Y-176805000D01*
G75*
G02*
X78110000Y-176655000I150000J0D01*
G01*
X78410000Y-176655000D01*
G75*
G02*
X78560000Y-176805000I0J-150000D01*
G01*
X78560000Y-178480000D01*
G75*
G02*
X78410000Y-178630000I-150000J0D01*
G01*
G37*
G36*
G01*
X77140000Y-178630000D02*
X76840000Y-178630000D01*
G75*
G02*
X76690000Y-178480000I0J150000D01*
G01*
X76690000Y-176805000D01*
G75*
G02*
X76840000Y-176655000I150000J0D01*
G01*
X77140000Y-176655000D01*
G75*
G02*
X77290000Y-176805000I0J-150000D01*
G01*
X77290000Y-178480000D01*
G75*
G02*
X77140000Y-178630000I-150000J0D01*
G01*
G37*
G36*
G01*
X75870000Y-178630000D02*
X75570000Y-178630000D01*
G75*
G02*
X75420000Y-178480000I0J150000D01*
G01*
X75420000Y-176805000D01*
G75*
G02*
X75570000Y-176655000I150000J0D01*
G01*
X75870000Y-176655000D01*
G75*
G02*
X76020000Y-176805000I0J-150000D01*
G01*
X76020000Y-178480000D01*
G75*
G02*
X75870000Y-178630000I-150000J0D01*
G01*
G37*
G36*
G01*
X74600000Y-178630000D02*
X74300000Y-178630000D01*
G75*
G02*
X74150000Y-178480000I0J150000D01*
G01*
X74150000Y-176805000D01*
G75*
G02*
X74300000Y-176655000I150000J0D01*
G01*
X74600000Y-176655000D01*
G75*
G02*
X74750000Y-176805000I0J-150000D01*
G01*
X74750000Y-178480000D01*
G75*
G02*
X74600000Y-178630000I-150000J0D01*
G01*
G37*
G36*
G01*
X73330000Y-178630000D02*
X73030000Y-178630000D01*
G75*
G02*
X72880000Y-178480000I0J150000D01*
G01*
X72880000Y-176805000D01*
G75*
G02*
X73030000Y-176655000I150000J0D01*
G01*
X73330000Y-176655000D01*
G75*
G02*
X73480000Y-176805000I0J-150000D01*
G01*
X73480000Y-178480000D01*
G75*
G02*
X73330000Y-178630000I-150000J0D01*
G01*
G37*
G36*
G01*
X72060000Y-178630000D02*
X71760000Y-178630000D01*
G75*
G02*
X71610000Y-178480000I0J150000D01*
G01*
X71610000Y-176805000D01*
G75*
G02*
X71760000Y-176655000I150000J0D01*
G01*
X72060000Y-176655000D01*
G75*
G02*
X72210000Y-176805000I0J-150000D01*
G01*
X72210000Y-178480000D01*
G75*
G02*
X72060000Y-178630000I-150000J0D01*
G01*
G37*
%TD*%
%TO.C,U5*%
G36*
G01*
X41580000Y-171705000D02*
X41280000Y-171705000D01*
G75*
G02*
X41130000Y-171555000I0J150000D01*
G01*
X41130000Y-169880000D01*
G75*
G02*
X41280000Y-169730000I150000J0D01*
G01*
X41580000Y-169730000D01*
G75*
G02*
X41730000Y-169880000I0J-150000D01*
G01*
X41730000Y-171555000D01*
G75*
G02*
X41580000Y-171705000I-150000J0D01*
G01*
G37*
G36*
G01*
X42850000Y-171705000D02*
X42550000Y-171705000D01*
G75*
G02*
X42400000Y-171555000I0J150000D01*
G01*
X42400000Y-169880000D01*
G75*
G02*
X42550000Y-169730000I150000J0D01*
G01*
X42850000Y-169730000D01*
G75*
G02*
X43000000Y-169880000I0J-150000D01*
G01*
X43000000Y-171555000D01*
G75*
G02*
X42850000Y-171705000I-150000J0D01*
G01*
G37*
G36*
G01*
X44120000Y-171705000D02*
X43820000Y-171705000D01*
G75*
G02*
X43670000Y-171555000I0J150000D01*
G01*
X43670000Y-169880000D01*
G75*
G02*
X43820000Y-169730000I150000J0D01*
G01*
X44120000Y-169730000D01*
G75*
G02*
X44270000Y-169880000I0J-150000D01*
G01*
X44270000Y-171555000D01*
G75*
G02*
X44120000Y-171705000I-150000J0D01*
G01*
G37*
G36*
G01*
X45390000Y-171705000D02*
X45090000Y-171705000D01*
G75*
G02*
X44940000Y-171555000I0J150000D01*
G01*
X44940000Y-169880000D01*
G75*
G02*
X45090000Y-169730000I150000J0D01*
G01*
X45390000Y-169730000D01*
G75*
G02*
X45540000Y-169880000I0J-150000D01*
G01*
X45540000Y-171555000D01*
G75*
G02*
X45390000Y-171705000I-150000J0D01*
G01*
G37*
G36*
G01*
X46660000Y-171705000D02*
X46360000Y-171705000D01*
G75*
G02*
X46210000Y-171555000I0J150000D01*
G01*
X46210000Y-169880000D01*
G75*
G02*
X46360000Y-169730000I150000J0D01*
G01*
X46660000Y-169730000D01*
G75*
G02*
X46810000Y-169880000I0J-150000D01*
G01*
X46810000Y-171555000D01*
G75*
G02*
X46660000Y-171705000I-150000J0D01*
G01*
G37*
G36*
G01*
X47930000Y-171705000D02*
X47630000Y-171705000D01*
G75*
G02*
X47480000Y-171555000I0J150000D01*
G01*
X47480000Y-169880000D01*
G75*
G02*
X47630000Y-169730000I150000J0D01*
G01*
X47930000Y-169730000D01*
G75*
G02*
X48080000Y-169880000I0J-150000D01*
G01*
X48080000Y-171555000D01*
G75*
G02*
X47930000Y-171705000I-150000J0D01*
G01*
G37*
G36*
G01*
X49200000Y-171705000D02*
X48900000Y-171705000D01*
G75*
G02*
X48750000Y-171555000I0J150000D01*
G01*
X48750000Y-169880000D01*
G75*
G02*
X48900000Y-169730000I150000J0D01*
G01*
X49200000Y-169730000D01*
G75*
G02*
X49350000Y-169880000I0J-150000D01*
G01*
X49350000Y-171555000D01*
G75*
G02*
X49200000Y-171705000I-150000J0D01*
G01*
G37*
G36*
G01*
X49200000Y-178630000D02*
X48900000Y-178630000D01*
G75*
G02*
X48750000Y-178480000I0J150000D01*
G01*
X48750000Y-176805000D01*
G75*
G02*
X48900000Y-176655000I150000J0D01*
G01*
X49200000Y-176655000D01*
G75*
G02*
X49350000Y-176805000I0J-150000D01*
G01*
X49350000Y-178480000D01*
G75*
G02*
X49200000Y-178630000I-150000J0D01*
G01*
G37*
G36*
G01*
X47930000Y-178630000D02*
X47630000Y-178630000D01*
G75*
G02*
X47480000Y-178480000I0J150000D01*
G01*
X47480000Y-176805000D01*
G75*
G02*
X47630000Y-176655000I150000J0D01*
G01*
X47930000Y-176655000D01*
G75*
G02*
X48080000Y-176805000I0J-150000D01*
G01*
X48080000Y-178480000D01*
G75*
G02*
X47930000Y-178630000I-150000J0D01*
G01*
G37*
G36*
G01*
X46660000Y-178630000D02*
X46360000Y-178630000D01*
G75*
G02*
X46210000Y-178480000I0J150000D01*
G01*
X46210000Y-176805000D01*
G75*
G02*
X46360000Y-176655000I150000J0D01*
G01*
X46660000Y-176655000D01*
G75*
G02*
X46810000Y-176805000I0J-150000D01*
G01*
X46810000Y-178480000D01*
G75*
G02*
X46660000Y-178630000I-150000J0D01*
G01*
G37*
G36*
G01*
X45390000Y-178630000D02*
X45090000Y-178630000D01*
G75*
G02*
X44940000Y-178480000I0J150000D01*
G01*
X44940000Y-176805000D01*
G75*
G02*
X45090000Y-176655000I150000J0D01*
G01*
X45390000Y-176655000D01*
G75*
G02*
X45540000Y-176805000I0J-150000D01*
G01*
X45540000Y-178480000D01*
G75*
G02*
X45390000Y-178630000I-150000J0D01*
G01*
G37*
G36*
G01*
X44120000Y-178630000D02*
X43820000Y-178630000D01*
G75*
G02*
X43670000Y-178480000I0J150000D01*
G01*
X43670000Y-176805000D01*
G75*
G02*
X43820000Y-176655000I150000J0D01*
G01*
X44120000Y-176655000D01*
G75*
G02*
X44270000Y-176805000I0J-150000D01*
G01*
X44270000Y-178480000D01*
G75*
G02*
X44120000Y-178630000I-150000J0D01*
G01*
G37*
G36*
G01*
X42850000Y-178630000D02*
X42550000Y-178630000D01*
G75*
G02*
X42400000Y-178480000I0J150000D01*
G01*
X42400000Y-176805000D01*
G75*
G02*
X42550000Y-176655000I150000J0D01*
G01*
X42850000Y-176655000D01*
G75*
G02*
X43000000Y-176805000I0J-150000D01*
G01*
X43000000Y-178480000D01*
G75*
G02*
X42850000Y-178630000I-150000J0D01*
G01*
G37*
G36*
G01*
X41580000Y-178630000D02*
X41280000Y-178630000D01*
G75*
G02*
X41130000Y-178480000I0J150000D01*
G01*
X41130000Y-176805000D01*
G75*
G02*
X41280000Y-176655000I150000J0D01*
G01*
X41580000Y-176655000D01*
G75*
G02*
X41730000Y-176805000I0J-150000D01*
G01*
X41730000Y-178480000D01*
G75*
G02*
X41580000Y-178630000I-150000J0D01*
G01*
G37*
%TD*%
%TO.C,R65*%
G36*
G01*
X148888500Y-187095000D02*
X149363500Y-187095000D01*
G75*
G02*
X149601000Y-187332500I0J-237500D01*
G01*
X149601000Y-187832500D01*
G75*
G02*
X149363500Y-188070000I-237500J0D01*
G01*
X148888500Y-188070000D01*
G75*
G02*
X148651000Y-187832500I0J237500D01*
G01*
X148651000Y-187332500D01*
G75*
G02*
X148888500Y-187095000I237500J0D01*
G01*
G37*
G36*
G01*
X148888500Y-185270000D02*
X149363500Y-185270000D01*
G75*
G02*
X149601000Y-185507500I0J-237500D01*
G01*
X149601000Y-186007500D01*
G75*
G02*
X149363500Y-186245000I-237500J0D01*
G01*
X148888500Y-186245000D01*
G75*
G02*
X148651000Y-186007500I0J237500D01*
G01*
X148651000Y-185507500D01*
G75*
G02*
X148888500Y-185270000I237500J0D01*
G01*
G37*
%TD*%
%TO.C,R64*%
G36*
G01*
X149335500Y-190920000D02*
X148860500Y-190920000D01*
G75*
G02*
X148623000Y-190682500I0J237500D01*
G01*
X148623000Y-190182500D01*
G75*
G02*
X148860500Y-189945000I237500J0D01*
G01*
X149335500Y-189945000D01*
G75*
G02*
X149573000Y-190182500I0J-237500D01*
G01*
X149573000Y-190682500D01*
G75*
G02*
X149335500Y-190920000I-237500J0D01*
G01*
G37*
G36*
G01*
X149335500Y-192745000D02*
X148860500Y-192745000D01*
G75*
G02*
X148623000Y-192507500I0J237500D01*
G01*
X148623000Y-192007500D01*
G75*
G02*
X148860500Y-191770000I237500J0D01*
G01*
X149335500Y-191770000D01*
G75*
G02*
X149573000Y-192007500I0J-237500D01*
G01*
X149573000Y-192507500D01*
G75*
G02*
X149335500Y-192745000I-237500J0D01*
G01*
G37*
%TD*%
%TO.C,R61*%
G36*
G01*
X141243500Y-187095000D02*
X141718500Y-187095000D01*
G75*
G02*
X141956000Y-187332500I0J-237500D01*
G01*
X141956000Y-187832500D01*
G75*
G02*
X141718500Y-188070000I-237500J0D01*
G01*
X141243500Y-188070000D01*
G75*
G02*
X141006000Y-187832500I0J237500D01*
G01*
X141006000Y-187332500D01*
G75*
G02*
X141243500Y-187095000I237500J0D01*
G01*
G37*
G36*
G01*
X141243500Y-185270000D02*
X141718500Y-185270000D01*
G75*
G02*
X141956000Y-185507500I0J-237500D01*
G01*
X141956000Y-186007500D01*
G75*
G02*
X141718500Y-186245000I-237500J0D01*
G01*
X141243500Y-186245000D01*
G75*
G02*
X141006000Y-186007500I0J237500D01*
G01*
X141006000Y-185507500D01*
G75*
G02*
X141243500Y-185270000I237500J0D01*
G01*
G37*
%TD*%
%TO.C,R60*%
G36*
G01*
X141695500Y-190920000D02*
X141220500Y-190920000D01*
G75*
G02*
X140983000Y-190682500I0J237500D01*
G01*
X140983000Y-190182500D01*
G75*
G02*
X141220500Y-189945000I237500J0D01*
G01*
X141695500Y-189945000D01*
G75*
G02*
X141933000Y-190182500I0J-237500D01*
G01*
X141933000Y-190682500D01*
G75*
G02*
X141695500Y-190920000I-237500J0D01*
G01*
G37*
G36*
G01*
X141695500Y-192745000D02*
X141220500Y-192745000D01*
G75*
G02*
X140983000Y-192507500I0J237500D01*
G01*
X140983000Y-192007500D01*
G75*
G02*
X141220500Y-191770000I237500J0D01*
G01*
X141695500Y-191770000D01*
G75*
G02*
X141933000Y-192007500I0J-237500D01*
G01*
X141933000Y-192507500D01*
G75*
G02*
X141695500Y-192745000I-237500J0D01*
G01*
G37*
%TD*%
%TO.C,R57*%
G36*
G01*
X133597500Y-187095000D02*
X134072500Y-187095000D01*
G75*
G02*
X134310000Y-187332500I0J-237500D01*
G01*
X134310000Y-187832500D01*
G75*
G02*
X134072500Y-188070000I-237500J0D01*
G01*
X133597500Y-188070000D01*
G75*
G02*
X133360000Y-187832500I0J237500D01*
G01*
X133360000Y-187332500D01*
G75*
G02*
X133597500Y-187095000I237500J0D01*
G01*
G37*
G36*
G01*
X133597500Y-185270000D02*
X134072500Y-185270000D01*
G75*
G02*
X134310000Y-185507500I0J-237500D01*
G01*
X134310000Y-186007500D01*
G75*
G02*
X134072500Y-186245000I-237500J0D01*
G01*
X133597500Y-186245000D01*
G75*
G02*
X133360000Y-186007500I0J237500D01*
G01*
X133360000Y-185507500D01*
G75*
G02*
X133597500Y-185270000I237500J0D01*
G01*
G37*
%TD*%
%TO.C,R56*%
G36*
G01*
X134055500Y-190920000D02*
X133580500Y-190920000D01*
G75*
G02*
X133343000Y-190682500I0J237500D01*
G01*
X133343000Y-190182500D01*
G75*
G02*
X133580500Y-189945000I237500J0D01*
G01*
X134055500Y-189945000D01*
G75*
G02*
X134293000Y-190182500I0J-237500D01*
G01*
X134293000Y-190682500D01*
G75*
G02*
X134055500Y-190920000I-237500J0D01*
G01*
G37*
G36*
G01*
X134055500Y-192745000D02*
X133580500Y-192745000D01*
G75*
G02*
X133343000Y-192507500I0J237500D01*
G01*
X133343000Y-192007500D01*
G75*
G02*
X133580500Y-191770000I237500J0D01*
G01*
X134055500Y-191770000D01*
G75*
G02*
X134293000Y-192007500I0J-237500D01*
G01*
X134293000Y-192507500D01*
G75*
G02*
X134055500Y-192745000I-237500J0D01*
G01*
G37*
%TD*%
%TO.C,R53*%
G36*
G01*
X125952500Y-187095000D02*
X126427500Y-187095000D01*
G75*
G02*
X126665000Y-187332500I0J-237500D01*
G01*
X126665000Y-187832500D01*
G75*
G02*
X126427500Y-188070000I-237500J0D01*
G01*
X125952500Y-188070000D01*
G75*
G02*
X125715000Y-187832500I0J237500D01*
G01*
X125715000Y-187332500D01*
G75*
G02*
X125952500Y-187095000I237500J0D01*
G01*
G37*
G36*
G01*
X125952500Y-185270000D02*
X126427500Y-185270000D01*
G75*
G02*
X126665000Y-185507500I0J-237500D01*
G01*
X126665000Y-186007500D01*
G75*
G02*
X126427500Y-186245000I-237500J0D01*
G01*
X125952500Y-186245000D01*
G75*
G02*
X125715000Y-186007500I0J237500D01*
G01*
X125715000Y-185507500D01*
G75*
G02*
X125952500Y-185270000I237500J0D01*
G01*
G37*
%TD*%
%TO.C,R52*%
G36*
G01*
X126416500Y-190920000D02*
X125941500Y-190920000D01*
G75*
G02*
X125704000Y-190682500I0J237500D01*
G01*
X125704000Y-190182500D01*
G75*
G02*
X125941500Y-189945000I237500J0D01*
G01*
X126416500Y-189945000D01*
G75*
G02*
X126654000Y-190182500I0J-237500D01*
G01*
X126654000Y-190682500D01*
G75*
G02*
X126416500Y-190920000I-237500J0D01*
G01*
G37*
G36*
G01*
X126416500Y-192745000D02*
X125941500Y-192745000D01*
G75*
G02*
X125704000Y-192507500I0J237500D01*
G01*
X125704000Y-192007500D01*
G75*
G02*
X125941500Y-191770000I237500J0D01*
G01*
X126416500Y-191770000D01*
G75*
G02*
X126654000Y-192007500I0J-237500D01*
G01*
X126654000Y-192507500D01*
G75*
G02*
X126416500Y-192745000I-237500J0D01*
G01*
G37*
%TD*%
%TO.C,R49*%
G36*
G01*
X98342500Y-187372000D02*
X98817500Y-187372000D01*
G75*
G02*
X99055000Y-187609500I0J-237500D01*
G01*
X99055000Y-188109500D01*
G75*
G02*
X98817500Y-188347000I-237500J0D01*
G01*
X98342500Y-188347000D01*
G75*
G02*
X98105000Y-188109500I0J237500D01*
G01*
X98105000Y-187609500D01*
G75*
G02*
X98342500Y-187372000I237500J0D01*
G01*
G37*
G36*
G01*
X98342500Y-185547000D02*
X98817500Y-185547000D01*
G75*
G02*
X99055000Y-185784500I0J-237500D01*
G01*
X99055000Y-186284500D01*
G75*
G02*
X98817500Y-186522000I-237500J0D01*
G01*
X98342500Y-186522000D01*
G75*
G02*
X98105000Y-186284500I0J237500D01*
G01*
X98105000Y-185784500D01*
G75*
G02*
X98342500Y-185547000I237500J0D01*
G01*
G37*
%TD*%
%TO.C,R48*%
G36*
G01*
X98817500Y-190897000D02*
X98342500Y-190897000D01*
G75*
G02*
X98105000Y-190659500I0J237500D01*
G01*
X98105000Y-190159500D01*
G75*
G02*
X98342500Y-189922000I237500J0D01*
G01*
X98817500Y-189922000D01*
G75*
G02*
X99055000Y-190159500I0J-237500D01*
G01*
X99055000Y-190659500D01*
G75*
G02*
X98817500Y-190897000I-237500J0D01*
G01*
G37*
G36*
G01*
X98817500Y-192722000D02*
X98342500Y-192722000D01*
G75*
G02*
X98105000Y-192484500I0J237500D01*
G01*
X98105000Y-191984500D01*
G75*
G02*
X98342500Y-191747000I237500J0D01*
G01*
X98817500Y-191747000D01*
G75*
G02*
X99055000Y-191984500I0J-237500D01*
G01*
X99055000Y-192484500D01*
G75*
G02*
X98817500Y-192722000I-237500J0D01*
G01*
G37*
%TD*%
%TO.C,R45*%
G36*
G01*
X110661500Y-187095000D02*
X111136500Y-187095000D01*
G75*
G02*
X111374000Y-187332500I0J-237500D01*
G01*
X111374000Y-187832500D01*
G75*
G02*
X111136500Y-188070000I-237500J0D01*
G01*
X110661500Y-188070000D01*
G75*
G02*
X110424000Y-187832500I0J237500D01*
G01*
X110424000Y-187332500D01*
G75*
G02*
X110661500Y-187095000I237500J0D01*
G01*
G37*
G36*
G01*
X110661500Y-185270000D02*
X111136500Y-185270000D01*
G75*
G02*
X111374000Y-185507500I0J-237500D01*
G01*
X111374000Y-186007500D01*
G75*
G02*
X111136500Y-186245000I-237500J0D01*
G01*
X110661500Y-186245000D01*
G75*
G02*
X110424000Y-186007500I0J237500D01*
G01*
X110424000Y-185507500D01*
G75*
G02*
X110661500Y-185270000I237500J0D01*
G01*
G37*
%TD*%
%TO.C,R44*%
G36*
G01*
X111136500Y-190920000D02*
X110661500Y-190920000D01*
G75*
G02*
X110424000Y-190682500I0J237500D01*
G01*
X110424000Y-190182500D01*
G75*
G02*
X110661500Y-189945000I237500J0D01*
G01*
X111136500Y-189945000D01*
G75*
G02*
X111374000Y-190182500I0J-237500D01*
G01*
X111374000Y-190682500D01*
G75*
G02*
X111136500Y-190920000I-237500J0D01*
G01*
G37*
G36*
G01*
X111136500Y-192745000D02*
X110661500Y-192745000D01*
G75*
G02*
X110424000Y-192507500I0J237500D01*
G01*
X110424000Y-192007500D01*
G75*
G02*
X110661500Y-191770000I237500J0D01*
G01*
X111136500Y-191770000D01*
G75*
G02*
X111374000Y-192007500I0J-237500D01*
G01*
X111374000Y-192507500D01*
G75*
G02*
X111136500Y-192745000I-237500J0D01*
G01*
G37*
%TD*%
%TO.C,R41*%
G36*
G01*
X118306500Y-187095000D02*
X118781500Y-187095000D01*
G75*
G02*
X119019000Y-187332500I0J-237500D01*
G01*
X119019000Y-187832500D01*
G75*
G02*
X118781500Y-188070000I-237500J0D01*
G01*
X118306500Y-188070000D01*
G75*
G02*
X118069000Y-187832500I0J237500D01*
G01*
X118069000Y-187332500D01*
G75*
G02*
X118306500Y-187095000I237500J0D01*
G01*
G37*
G36*
G01*
X118306500Y-185270000D02*
X118781500Y-185270000D01*
G75*
G02*
X119019000Y-185507500I0J-237500D01*
G01*
X119019000Y-186007500D01*
G75*
G02*
X118781500Y-186245000I-237500J0D01*
G01*
X118306500Y-186245000D01*
G75*
G02*
X118069000Y-186007500I0J237500D01*
G01*
X118069000Y-185507500D01*
G75*
G02*
X118306500Y-185270000I237500J0D01*
G01*
G37*
%TD*%
%TO.C,R40*%
G36*
G01*
X118776500Y-190920000D02*
X118301500Y-190920000D01*
G75*
G02*
X118064000Y-190682500I0J237500D01*
G01*
X118064000Y-190182500D01*
G75*
G02*
X118301500Y-189945000I237500J0D01*
G01*
X118776500Y-189945000D01*
G75*
G02*
X119014000Y-190182500I0J-237500D01*
G01*
X119014000Y-190682500D01*
G75*
G02*
X118776500Y-190920000I-237500J0D01*
G01*
G37*
G36*
G01*
X118776500Y-192745000D02*
X118301500Y-192745000D01*
G75*
G02*
X118064000Y-192507500I0J237500D01*
G01*
X118064000Y-192007500D01*
G75*
G02*
X118301500Y-191770000I237500J0D01*
G01*
X118776500Y-191770000D01*
G75*
G02*
X119014000Y-192007500I0J-237500D01*
G01*
X119014000Y-192507500D01*
G75*
G02*
X118776500Y-192745000I-237500J0D01*
G01*
G37*
%TD*%
%TO.C,R37*%
G36*
G01*
X90686200Y-187372000D02*
X91161200Y-187372000D01*
G75*
G02*
X91398700Y-187609500I0J-237500D01*
G01*
X91398700Y-188109500D01*
G75*
G02*
X91161200Y-188347000I-237500J0D01*
G01*
X90686200Y-188347000D01*
G75*
G02*
X90448700Y-188109500I0J237500D01*
G01*
X90448700Y-187609500D01*
G75*
G02*
X90686200Y-187372000I237500J0D01*
G01*
G37*
G36*
G01*
X90686200Y-185547000D02*
X91161200Y-185547000D01*
G75*
G02*
X91398700Y-185784500I0J-237500D01*
G01*
X91398700Y-186284500D01*
G75*
G02*
X91161200Y-186522000I-237500J0D01*
G01*
X90686200Y-186522000D01*
G75*
G02*
X90448700Y-186284500I0J237500D01*
G01*
X90448700Y-185784500D01*
G75*
G02*
X90686200Y-185547000I237500J0D01*
G01*
G37*
%TD*%
%TO.C,R36*%
G36*
G01*
X91161200Y-190897000D02*
X90686200Y-190897000D01*
G75*
G02*
X90448700Y-190659500I0J237500D01*
G01*
X90448700Y-190159500D01*
G75*
G02*
X90686200Y-189922000I237500J0D01*
G01*
X91161200Y-189922000D01*
G75*
G02*
X91398700Y-190159500I0J-237500D01*
G01*
X91398700Y-190659500D01*
G75*
G02*
X91161200Y-190897000I-237500J0D01*
G01*
G37*
G36*
G01*
X91161200Y-192722000D02*
X90686200Y-192722000D01*
G75*
G02*
X90448700Y-192484500I0J237500D01*
G01*
X90448700Y-191984500D01*
G75*
G02*
X90686200Y-191747000I237500J0D01*
G01*
X91161200Y-191747000D01*
G75*
G02*
X91398700Y-191984500I0J-237500D01*
G01*
X91398700Y-192484500D01*
G75*
G02*
X91161200Y-192722000I-237500J0D01*
G01*
G37*
%TD*%
%TO.C,R33*%
G36*
G01*
X83029900Y-187372000D02*
X83504900Y-187372000D01*
G75*
G02*
X83742400Y-187609500I0J-237500D01*
G01*
X83742400Y-188109500D01*
G75*
G02*
X83504900Y-188347000I-237500J0D01*
G01*
X83029900Y-188347000D01*
G75*
G02*
X82792400Y-188109500I0J237500D01*
G01*
X82792400Y-187609500D01*
G75*
G02*
X83029900Y-187372000I237500J0D01*
G01*
G37*
G36*
G01*
X83029900Y-185547000D02*
X83504900Y-185547000D01*
G75*
G02*
X83742400Y-185784500I0J-237500D01*
G01*
X83742400Y-186284500D01*
G75*
G02*
X83504900Y-186522000I-237500J0D01*
G01*
X83029900Y-186522000D01*
G75*
G02*
X82792400Y-186284500I0J237500D01*
G01*
X82792400Y-185784500D01*
G75*
G02*
X83029900Y-185547000I237500J0D01*
G01*
G37*
%TD*%
%TO.C,R32*%
G36*
G01*
X83504900Y-190897000D02*
X83029900Y-190897000D01*
G75*
G02*
X82792400Y-190659500I0J237500D01*
G01*
X82792400Y-190159500D01*
G75*
G02*
X83029900Y-189922000I237500J0D01*
G01*
X83504900Y-189922000D01*
G75*
G02*
X83742400Y-190159500I0J-237500D01*
G01*
X83742400Y-190659500D01*
G75*
G02*
X83504900Y-190897000I-237500J0D01*
G01*
G37*
G36*
G01*
X83504900Y-192722000D02*
X83029900Y-192722000D01*
G75*
G02*
X82792400Y-192484500I0J237500D01*
G01*
X82792400Y-191984500D01*
G75*
G02*
X83029900Y-191747000I237500J0D01*
G01*
X83504900Y-191747000D01*
G75*
G02*
X83742400Y-191984500I0J-237500D01*
G01*
X83742400Y-192484500D01*
G75*
G02*
X83504900Y-192722000I-237500J0D01*
G01*
G37*
%TD*%
%TO.C,R29*%
G36*
G01*
X75373600Y-187372000D02*
X75848600Y-187372000D01*
G75*
G02*
X76086100Y-187609500I0J-237500D01*
G01*
X76086100Y-188109500D01*
G75*
G02*
X75848600Y-188347000I-237500J0D01*
G01*
X75373600Y-188347000D01*
G75*
G02*
X75136100Y-188109500I0J237500D01*
G01*
X75136100Y-187609500D01*
G75*
G02*
X75373600Y-187372000I237500J0D01*
G01*
G37*
G36*
G01*
X75373600Y-185547000D02*
X75848600Y-185547000D01*
G75*
G02*
X76086100Y-185784500I0J-237500D01*
G01*
X76086100Y-186284500D01*
G75*
G02*
X75848600Y-186522000I-237500J0D01*
G01*
X75373600Y-186522000D01*
G75*
G02*
X75136100Y-186284500I0J237500D01*
G01*
X75136100Y-185784500D01*
G75*
G02*
X75373600Y-185547000I237500J0D01*
G01*
G37*
%TD*%
%TO.C,R28*%
G36*
G01*
X75848600Y-190897000D02*
X75373600Y-190897000D01*
G75*
G02*
X75136100Y-190659500I0J237500D01*
G01*
X75136100Y-190159500D01*
G75*
G02*
X75373600Y-189922000I237500J0D01*
G01*
X75848600Y-189922000D01*
G75*
G02*
X76086100Y-190159500I0J-237500D01*
G01*
X76086100Y-190659500D01*
G75*
G02*
X75848600Y-190897000I-237500J0D01*
G01*
G37*
G36*
G01*
X75848600Y-192722000D02*
X75373600Y-192722000D01*
G75*
G02*
X75136100Y-192484500I0J237500D01*
G01*
X75136100Y-191984500D01*
G75*
G02*
X75373600Y-191747000I237500J0D01*
G01*
X75848600Y-191747000D01*
G75*
G02*
X76086100Y-191984500I0J-237500D01*
G01*
X76086100Y-192484500D01*
G75*
G02*
X75848600Y-192722000I-237500J0D01*
G01*
G37*
%TD*%
%TO.C,R25*%
G36*
G01*
X67717400Y-187372000D02*
X68192400Y-187372000D01*
G75*
G02*
X68429900Y-187609500I0J-237500D01*
G01*
X68429900Y-188109500D01*
G75*
G02*
X68192400Y-188347000I-237500J0D01*
G01*
X67717400Y-188347000D01*
G75*
G02*
X67479900Y-188109500I0J237500D01*
G01*
X67479900Y-187609500D01*
G75*
G02*
X67717400Y-187372000I237500J0D01*
G01*
G37*
G36*
G01*
X67717400Y-185547000D02*
X68192400Y-185547000D01*
G75*
G02*
X68429900Y-185784500I0J-237500D01*
G01*
X68429900Y-186284500D01*
G75*
G02*
X68192400Y-186522000I-237500J0D01*
G01*
X67717400Y-186522000D01*
G75*
G02*
X67479900Y-186284500I0J237500D01*
G01*
X67479900Y-185784500D01*
G75*
G02*
X67717400Y-185547000I237500J0D01*
G01*
G37*
%TD*%
%TO.C,R24*%
G36*
G01*
X68192400Y-190897000D02*
X67717400Y-190897000D01*
G75*
G02*
X67479900Y-190659500I0J237500D01*
G01*
X67479900Y-190159500D01*
G75*
G02*
X67717400Y-189922000I237500J0D01*
G01*
X68192400Y-189922000D01*
G75*
G02*
X68429900Y-190159500I0J-237500D01*
G01*
X68429900Y-190659500D01*
G75*
G02*
X68192400Y-190897000I-237500J0D01*
G01*
G37*
G36*
G01*
X68192400Y-192722000D02*
X67717400Y-192722000D01*
G75*
G02*
X67479900Y-192484500I0J237500D01*
G01*
X67479900Y-191984500D01*
G75*
G02*
X67717400Y-191747000I237500J0D01*
G01*
X68192400Y-191747000D01*
G75*
G02*
X68429900Y-191984500I0J-237500D01*
G01*
X68429900Y-192484500D01*
G75*
G02*
X68192400Y-192722000I-237500J0D01*
G01*
G37*
%TD*%
%TO.C,R21*%
G36*
G01*
X60061100Y-187372000D02*
X60536100Y-187372000D01*
G75*
G02*
X60773600Y-187609500I0J-237500D01*
G01*
X60773600Y-188109500D01*
G75*
G02*
X60536100Y-188347000I-237500J0D01*
G01*
X60061100Y-188347000D01*
G75*
G02*
X59823600Y-188109500I0J237500D01*
G01*
X59823600Y-187609500D01*
G75*
G02*
X60061100Y-187372000I237500J0D01*
G01*
G37*
G36*
G01*
X60061100Y-185547000D02*
X60536100Y-185547000D01*
G75*
G02*
X60773600Y-185784500I0J-237500D01*
G01*
X60773600Y-186284500D01*
G75*
G02*
X60536100Y-186522000I-237500J0D01*
G01*
X60061100Y-186522000D01*
G75*
G02*
X59823600Y-186284500I0J237500D01*
G01*
X59823600Y-185784500D01*
G75*
G02*
X60061100Y-185547000I237500J0D01*
G01*
G37*
%TD*%
%TO.C,R20*%
G36*
G01*
X60536100Y-190897000D02*
X60061100Y-190897000D01*
G75*
G02*
X59823600Y-190659500I0J237500D01*
G01*
X59823600Y-190159500D01*
G75*
G02*
X60061100Y-189922000I237500J0D01*
G01*
X60536100Y-189922000D01*
G75*
G02*
X60773600Y-190159500I0J-237500D01*
G01*
X60773600Y-190659500D01*
G75*
G02*
X60536100Y-190897000I-237500J0D01*
G01*
G37*
G36*
G01*
X60536100Y-192722000D02*
X60061100Y-192722000D01*
G75*
G02*
X59823600Y-192484500I0J237500D01*
G01*
X59823600Y-191984500D01*
G75*
G02*
X60061100Y-191747000I237500J0D01*
G01*
X60536100Y-191747000D01*
G75*
G02*
X60773600Y-191984500I0J-237500D01*
G01*
X60773600Y-192484500D01*
G75*
G02*
X60536100Y-192722000I-237500J0D01*
G01*
G37*
%TD*%
%TO.C,R15*%
G36*
G01*
X44748500Y-187372000D02*
X45223500Y-187372000D01*
G75*
G02*
X45461000Y-187609500I0J-237500D01*
G01*
X45461000Y-188109500D01*
G75*
G02*
X45223500Y-188347000I-237500J0D01*
G01*
X44748500Y-188347000D01*
G75*
G02*
X44511000Y-188109500I0J237500D01*
G01*
X44511000Y-187609500D01*
G75*
G02*
X44748500Y-187372000I237500J0D01*
G01*
G37*
G36*
G01*
X44748500Y-185547000D02*
X45223500Y-185547000D01*
G75*
G02*
X45461000Y-185784500I0J-237500D01*
G01*
X45461000Y-186284500D01*
G75*
G02*
X45223500Y-186522000I-237500J0D01*
G01*
X44748500Y-186522000D01*
G75*
G02*
X44511000Y-186284500I0J237500D01*
G01*
X44511000Y-185784500D01*
G75*
G02*
X44748500Y-185547000I237500J0D01*
G01*
G37*
%TD*%
%TO.C,R14*%
G36*
G01*
X45223500Y-190897000D02*
X44748500Y-190897000D01*
G75*
G02*
X44511000Y-190659500I0J237500D01*
G01*
X44511000Y-190159500D01*
G75*
G02*
X44748500Y-189922000I237500J0D01*
G01*
X45223500Y-189922000D01*
G75*
G02*
X45461000Y-190159500I0J-237500D01*
G01*
X45461000Y-190659500D01*
G75*
G02*
X45223500Y-190897000I-237500J0D01*
G01*
G37*
G36*
G01*
X45223500Y-192722000D02*
X44748500Y-192722000D01*
G75*
G02*
X44511000Y-192484500I0J237500D01*
G01*
X44511000Y-191984500D01*
G75*
G02*
X44748500Y-191747000I237500J0D01*
G01*
X45223500Y-191747000D01*
G75*
G02*
X45461000Y-191984500I0J-237500D01*
G01*
X45461000Y-192484500D01*
G75*
G02*
X45223500Y-192722000I-237500J0D01*
G01*
G37*
%TD*%
%TO.C,R13*%
G36*
G01*
X114411000Y-91412500D02*
X114411000Y-91887500D01*
G75*
G02*
X114173500Y-92125000I-237500J0D01*
G01*
X113673500Y-92125000D01*
G75*
G02*
X113436000Y-91887500I0J237500D01*
G01*
X113436000Y-91412500D01*
G75*
G02*
X113673500Y-91175000I237500J0D01*
G01*
X114173500Y-91175000D01*
G75*
G02*
X114411000Y-91412500I0J-237500D01*
G01*
G37*
G36*
G01*
X116236000Y-91412500D02*
X116236000Y-91887500D01*
G75*
G02*
X115998500Y-92125000I-237500J0D01*
G01*
X115498500Y-92125000D01*
G75*
G02*
X115261000Y-91887500I0J237500D01*
G01*
X115261000Y-91412500D01*
G75*
G02*
X115498500Y-91175000I237500J0D01*
G01*
X115998500Y-91175000D01*
G75*
G02*
X116236000Y-91412500I0J-237500D01*
G01*
G37*
%TD*%
%TO.C,R12*%
G36*
G01*
X118967000Y-91887500D02*
X118967000Y-91412500D01*
G75*
G02*
X119204500Y-91175000I237500J0D01*
G01*
X119704500Y-91175000D01*
G75*
G02*
X119942000Y-91412500I0J-237500D01*
G01*
X119942000Y-91887500D01*
G75*
G02*
X119704500Y-92125000I-237500J0D01*
G01*
X119204500Y-92125000D01*
G75*
G02*
X118967000Y-91887500I0J237500D01*
G01*
G37*
G36*
G01*
X117142000Y-91887500D02*
X117142000Y-91412500D01*
G75*
G02*
X117379500Y-91175000I237500J0D01*
G01*
X117879500Y-91175000D01*
G75*
G02*
X118117000Y-91412500I0J-237500D01*
G01*
X118117000Y-91887500D01*
G75*
G02*
X117879500Y-92125000I-237500J0D01*
G01*
X117379500Y-92125000D01*
G75*
G02*
X117142000Y-91887500I0J237500D01*
G01*
G37*
%TD*%
%TO.C,R11*%
G36*
G01*
X113291000Y-146022500D02*
X113291000Y-146497500D01*
G75*
G02*
X113053500Y-146735000I-237500J0D01*
G01*
X112553500Y-146735000D01*
G75*
G02*
X112316000Y-146497500I0J237500D01*
G01*
X112316000Y-146022500D01*
G75*
G02*
X112553500Y-145785000I237500J0D01*
G01*
X113053500Y-145785000D01*
G75*
G02*
X113291000Y-146022500I0J-237500D01*
G01*
G37*
G36*
G01*
X115116000Y-146022500D02*
X115116000Y-146497500D01*
G75*
G02*
X114878500Y-146735000I-237500J0D01*
G01*
X114378500Y-146735000D01*
G75*
G02*
X114141000Y-146497500I0J237500D01*
G01*
X114141000Y-146022500D01*
G75*
G02*
X114378500Y-145785000I237500J0D01*
G01*
X114878500Y-145785000D01*
G75*
G02*
X115116000Y-146022500I0J-237500D01*
G01*
G37*
%TD*%
%TO.C,R10*%
G36*
G01*
X113291000Y-149832500D02*
X113291000Y-150307500D01*
G75*
G02*
X113053500Y-150545000I-237500J0D01*
G01*
X112553500Y-150545000D01*
G75*
G02*
X112316000Y-150307500I0J237500D01*
G01*
X112316000Y-149832500D01*
G75*
G02*
X112553500Y-149595000I237500J0D01*
G01*
X113053500Y-149595000D01*
G75*
G02*
X113291000Y-149832500I0J-237500D01*
G01*
G37*
G36*
G01*
X115116000Y-149832500D02*
X115116000Y-150307500D01*
G75*
G02*
X114878500Y-150545000I-237500J0D01*
G01*
X114378500Y-150545000D01*
G75*
G02*
X114141000Y-150307500I0J237500D01*
G01*
X114141000Y-149832500D01*
G75*
G02*
X114378500Y-149595000I237500J0D01*
G01*
X114878500Y-149595000D01*
G75*
G02*
X115116000Y-149832500I0J-237500D01*
G01*
G37*
%TD*%
%TO.C,R9*%
G36*
G01*
X100017000Y-149037500D02*
X100017000Y-148562500D01*
G75*
G02*
X100254500Y-148325000I237500J0D01*
G01*
X100754500Y-148325000D01*
G75*
G02*
X100992000Y-148562500I0J-237500D01*
G01*
X100992000Y-149037500D01*
G75*
G02*
X100754500Y-149275000I-237500J0D01*
G01*
X100254500Y-149275000D01*
G75*
G02*
X100017000Y-149037500I0J237500D01*
G01*
G37*
G36*
G01*
X98192000Y-149037500D02*
X98192000Y-148562500D01*
G75*
G02*
X98429500Y-148325000I237500J0D01*
G01*
X98929500Y-148325000D01*
G75*
G02*
X99167000Y-148562500I0J-237500D01*
G01*
X99167000Y-149037500D01*
G75*
G02*
X98929500Y-149275000I-237500J0D01*
G01*
X98429500Y-149275000D01*
G75*
G02*
X98192000Y-149037500I0J237500D01*
G01*
G37*
%TD*%
%TO.C,R8*%
G36*
G01*
X100017000Y-158435500D02*
X100017000Y-157960500D01*
G75*
G02*
X100254500Y-157723000I237500J0D01*
G01*
X100754500Y-157723000D01*
G75*
G02*
X100992000Y-157960500I0J-237500D01*
G01*
X100992000Y-158435500D01*
G75*
G02*
X100754500Y-158673000I-237500J0D01*
G01*
X100254500Y-158673000D01*
G75*
G02*
X100017000Y-158435500I0J237500D01*
G01*
G37*
G36*
G01*
X98192000Y-158435500D02*
X98192000Y-157960500D01*
G75*
G02*
X98429500Y-157723000I237500J0D01*
G01*
X98929500Y-157723000D01*
G75*
G02*
X99167000Y-157960500I0J-237500D01*
G01*
X99167000Y-158435500D01*
G75*
G02*
X98929500Y-158673000I-237500J0D01*
G01*
X98429500Y-158673000D01*
G75*
G02*
X98192000Y-158435500I0J237500D01*
G01*
G37*
%TD*%
%TO.C,R7*%
G36*
G01*
X100017000Y-145227500D02*
X100017000Y-144752500D01*
G75*
G02*
X100254500Y-144515000I237500J0D01*
G01*
X100754500Y-144515000D01*
G75*
G02*
X100992000Y-144752500I0J-237500D01*
G01*
X100992000Y-145227500D01*
G75*
G02*
X100754500Y-145465000I-237500J0D01*
G01*
X100254500Y-145465000D01*
G75*
G02*
X100017000Y-145227500I0J237500D01*
G01*
G37*
G36*
G01*
X98192000Y-145227500D02*
X98192000Y-144752500D01*
G75*
G02*
X98429500Y-144515000I237500J0D01*
G01*
X98929500Y-144515000D01*
G75*
G02*
X99167000Y-144752500I0J-237500D01*
G01*
X99167000Y-145227500D01*
G75*
G02*
X98929500Y-145465000I-237500J0D01*
G01*
X98429500Y-145465000D01*
G75*
G02*
X98192000Y-145227500I0J237500D01*
G01*
G37*
%TD*%
%TO.C,R6*%
G36*
G01*
X92285000Y-92726500D02*
X92285000Y-93201500D01*
G75*
G02*
X92047500Y-93439000I-237500J0D01*
G01*
X91547500Y-93439000D01*
G75*
G02*
X91310000Y-93201500I0J237500D01*
G01*
X91310000Y-92726500D01*
G75*
G02*
X91547500Y-92489000I237500J0D01*
G01*
X92047500Y-92489000D01*
G75*
G02*
X92285000Y-92726500I0J-237500D01*
G01*
G37*
G36*
G01*
X94110000Y-92726500D02*
X94110000Y-93201500D01*
G75*
G02*
X93872500Y-93439000I-237500J0D01*
G01*
X93372500Y-93439000D01*
G75*
G02*
X93135000Y-93201500I0J237500D01*
G01*
X93135000Y-92726500D01*
G75*
G02*
X93372500Y-92489000I237500J0D01*
G01*
X93872500Y-92489000D01*
G75*
G02*
X94110000Y-92726500I0J-237500D01*
G01*
G37*
%TD*%
%TO.C,R5*%
G36*
G01*
X52404800Y-187372000D02*
X52879800Y-187372000D01*
G75*
G02*
X53117300Y-187609500I0J-237500D01*
G01*
X53117300Y-188109500D01*
G75*
G02*
X52879800Y-188347000I-237500J0D01*
G01*
X52404800Y-188347000D01*
G75*
G02*
X52167300Y-188109500I0J237500D01*
G01*
X52167300Y-187609500D01*
G75*
G02*
X52404800Y-187372000I237500J0D01*
G01*
G37*
G36*
G01*
X52404800Y-185547000D02*
X52879800Y-185547000D01*
G75*
G02*
X53117300Y-185784500I0J-237500D01*
G01*
X53117300Y-186284500D01*
G75*
G02*
X52879800Y-186522000I-237500J0D01*
G01*
X52404800Y-186522000D01*
G75*
G02*
X52167300Y-186284500I0J237500D01*
G01*
X52167300Y-185784500D01*
G75*
G02*
X52404800Y-185547000I237500J0D01*
G01*
G37*
%TD*%
%TO.C,R4*%
G36*
G01*
X52879800Y-190897000D02*
X52404800Y-190897000D01*
G75*
G02*
X52167300Y-190659500I0J237500D01*
G01*
X52167300Y-190159500D01*
G75*
G02*
X52404800Y-189922000I237500J0D01*
G01*
X52879800Y-189922000D01*
G75*
G02*
X53117300Y-190159500I0J-237500D01*
G01*
X53117300Y-190659500D01*
G75*
G02*
X52879800Y-190897000I-237500J0D01*
G01*
G37*
G36*
G01*
X52879800Y-192722000D02*
X52404800Y-192722000D01*
G75*
G02*
X52167300Y-192484500I0J237500D01*
G01*
X52167300Y-191984500D01*
G75*
G02*
X52404800Y-191747000I237500J0D01*
G01*
X52879800Y-191747000D01*
G75*
G02*
X53117300Y-191984500I0J-237500D01*
G01*
X53117300Y-192484500D01*
G75*
G02*
X52879800Y-192722000I-237500J0D01*
G01*
G37*
%TD*%
%TO.C,R3*%
G36*
G01*
X102075000Y-131334500D02*
X102075000Y-131809500D01*
G75*
G02*
X101837500Y-132047000I-237500J0D01*
G01*
X101337500Y-132047000D01*
G75*
G02*
X101100000Y-131809500I0J237500D01*
G01*
X101100000Y-131334500D01*
G75*
G02*
X101337500Y-131097000I237500J0D01*
G01*
X101837500Y-131097000D01*
G75*
G02*
X102075000Y-131334500I0J-237500D01*
G01*
G37*
G36*
G01*
X103900000Y-131334500D02*
X103900000Y-131809500D01*
G75*
G02*
X103662500Y-132047000I-237500J0D01*
G01*
X103162500Y-132047000D01*
G75*
G02*
X102925000Y-131809500I0J237500D01*
G01*
X102925000Y-131334500D01*
G75*
G02*
X103162500Y-131097000I237500J0D01*
G01*
X103662500Y-131097000D01*
G75*
G02*
X103900000Y-131334500I0J-237500D01*
G01*
G37*
%TD*%
%TO.C,U4*%
G36*
G01*
X109078000Y-155808000D02*
X109078000Y-155508000D01*
G75*
G02*
X109228000Y-155358000I150000J0D01*
G01*
X110903000Y-155358000D01*
G75*
G02*
X111053000Y-155508000I0J-150000D01*
G01*
X111053000Y-155808000D01*
G75*
G02*
X110903000Y-155958000I-150000J0D01*
G01*
X109228000Y-155958000D01*
G75*
G02*
X109078000Y-155808000I0J150000D01*
G01*
G37*
G36*
G01*
X109078000Y-157078000D02*
X109078000Y-156778000D01*
G75*
G02*
X109228000Y-156628000I150000J0D01*
G01*
X110903000Y-156628000D01*
G75*
G02*
X111053000Y-156778000I0J-150000D01*
G01*
X111053000Y-157078000D01*
G75*
G02*
X110903000Y-157228000I-150000J0D01*
G01*
X109228000Y-157228000D01*
G75*
G02*
X109078000Y-157078000I0J150000D01*
G01*
G37*
G36*
G01*
X109078000Y-158348000D02*
X109078000Y-158048000D01*
G75*
G02*
X109228000Y-157898000I150000J0D01*
G01*
X110903000Y-157898000D01*
G75*
G02*
X111053000Y-158048000I0J-150000D01*
G01*
X111053000Y-158348000D01*
G75*
G02*
X110903000Y-158498000I-150000J0D01*
G01*
X109228000Y-158498000D01*
G75*
G02*
X109078000Y-158348000I0J150000D01*
G01*
G37*
G36*
G01*
X109078000Y-159618000D02*
X109078000Y-159318000D01*
G75*
G02*
X109228000Y-159168000I150000J0D01*
G01*
X110903000Y-159168000D01*
G75*
G02*
X111053000Y-159318000I0J-150000D01*
G01*
X111053000Y-159618000D01*
G75*
G02*
X110903000Y-159768000I-150000J0D01*
G01*
X109228000Y-159768000D01*
G75*
G02*
X109078000Y-159618000I0J150000D01*
G01*
G37*
G36*
G01*
X109078000Y-160888000D02*
X109078000Y-160588000D01*
G75*
G02*
X109228000Y-160438000I150000J0D01*
G01*
X110903000Y-160438000D01*
G75*
G02*
X111053000Y-160588000I0J-150000D01*
G01*
X111053000Y-160888000D01*
G75*
G02*
X110903000Y-161038000I-150000J0D01*
G01*
X109228000Y-161038000D01*
G75*
G02*
X109078000Y-160888000I0J150000D01*
G01*
G37*
G36*
G01*
X109078000Y-162158000D02*
X109078000Y-161858000D01*
G75*
G02*
X109228000Y-161708000I150000J0D01*
G01*
X110903000Y-161708000D01*
G75*
G02*
X111053000Y-161858000I0J-150000D01*
G01*
X111053000Y-162158000D01*
G75*
G02*
X110903000Y-162308000I-150000J0D01*
G01*
X109228000Y-162308000D01*
G75*
G02*
X109078000Y-162158000I0J150000D01*
G01*
G37*
G36*
G01*
X109078000Y-163428000D02*
X109078000Y-163128000D01*
G75*
G02*
X109228000Y-162978000I150000J0D01*
G01*
X110903000Y-162978000D01*
G75*
G02*
X111053000Y-163128000I0J-150000D01*
G01*
X111053000Y-163428000D01*
G75*
G02*
X110903000Y-163578000I-150000J0D01*
G01*
X109228000Y-163578000D01*
G75*
G02*
X109078000Y-163428000I0J150000D01*
G01*
G37*
G36*
G01*
X102153000Y-163428000D02*
X102153000Y-163128000D01*
G75*
G02*
X102303000Y-162978000I150000J0D01*
G01*
X103978000Y-162978000D01*
G75*
G02*
X104128000Y-163128000I0J-150000D01*
G01*
X104128000Y-163428000D01*
G75*
G02*
X103978000Y-163578000I-150000J0D01*
G01*
X102303000Y-163578000D01*
G75*
G02*
X102153000Y-163428000I0J150000D01*
G01*
G37*
G36*
G01*
X102153000Y-162158000D02*
X102153000Y-161858000D01*
G75*
G02*
X102303000Y-161708000I150000J0D01*
G01*
X103978000Y-161708000D01*
G75*
G02*
X104128000Y-161858000I0J-150000D01*
G01*
X104128000Y-162158000D01*
G75*
G02*
X103978000Y-162308000I-150000J0D01*
G01*
X102303000Y-162308000D01*
G75*
G02*
X102153000Y-162158000I0J150000D01*
G01*
G37*
G36*
G01*
X102153000Y-160888000D02*
X102153000Y-160588000D01*
G75*
G02*
X102303000Y-160438000I150000J0D01*
G01*
X103978000Y-160438000D01*
G75*
G02*
X104128000Y-160588000I0J-150000D01*
G01*
X104128000Y-160888000D01*
G75*
G02*
X103978000Y-161038000I-150000J0D01*
G01*
X102303000Y-161038000D01*
G75*
G02*
X102153000Y-160888000I0J150000D01*
G01*
G37*
G36*
G01*
X102153000Y-159618000D02*
X102153000Y-159318000D01*
G75*
G02*
X102303000Y-159168000I150000J0D01*
G01*
X103978000Y-159168000D01*
G75*
G02*
X104128000Y-159318000I0J-150000D01*
G01*
X104128000Y-159618000D01*
G75*
G02*
X103978000Y-159768000I-150000J0D01*
G01*
X102303000Y-159768000D01*
G75*
G02*
X102153000Y-159618000I0J150000D01*
G01*
G37*
G36*
G01*
X102153000Y-158348000D02*
X102153000Y-158048000D01*
G75*
G02*
X102303000Y-157898000I150000J0D01*
G01*
X103978000Y-157898000D01*
G75*
G02*
X104128000Y-158048000I0J-150000D01*
G01*
X104128000Y-158348000D01*
G75*
G02*
X103978000Y-158498000I-150000J0D01*
G01*
X102303000Y-158498000D01*
G75*
G02*
X102153000Y-158348000I0J150000D01*
G01*
G37*
G36*
G01*
X102153000Y-157078000D02*
X102153000Y-156778000D01*
G75*
G02*
X102303000Y-156628000I150000J0D01*
G01*
X103978000Y-156628000D01*
G75*
G02*
X104128000Y-156778000I0J-150000D01*
G01*
X104128000Y-157078000D01*
G75*
G02*
X103978000Y-157228000I-150000J0D01*
G01*
X102303000Y-157228000D01*
G75*
G02*
X102153000Y-157078000I0J150000D01*
G01*
G37*
G36*
G01*
X102153000Y-155808000D02*
X102153000Y-155508000D01*
G75*
G02*
X102303000Y-155358000I150000J0D01*
G01*
X103978000Y-155358000D01*
G75*
G02*
X104128000Y-155508000I0J-150000D01*
G01*
X104128000Y-155808000D01*
G75*
G02*
X103978000Y-155958000I-150000J0D01*
G01*
X102303000Y-155958000D01*
G75*
G02*
X102153000Y-155808000I0J150000D01*
G01*
G37*
%TD*%
M02*
