%TF.GenerationSoftware,KiCad,Pcbnew,(5.1.9-0-10_14)*%
%TF.CreationDate,2021-08-05T14:32:20+02:00*%
%TF.ProjectId,MechanicalTheatre,4d656368-616e-4696-9361-6c5468656174,rev?*%
%TF.SameCoordinates,Original*%
%TF.FileFunction,Soldermask,Bot*%
%TF.FilePolarity,Negative*%
%FSLAX46Y46*%
G04 Gerber Fmt 4.6, Leading zero omitted, Abs format (unit mm)*
G04 Created by KiCad (PCBNEW (5.1.9-0-10_14)) date 2021-08-05 14:32:20*
%MOMM*%
%LPD*%
G01*
G04 APERTURE LIST*
%ADD10C,2.000000*%
%ADD11R,2.000000X2.000000*%
%ADD12C,7.000000*%
%ADD13C,3.900000*%
%ADD14O,1.700000X1.700000*%
%ADD15R,1.700000X1.700000*%
%ADD16C,2.500000*%
%ADD17C,1.500000*%
%ADD18C,3.250000*%
%ADD19C,3.098800*%
%ADD20C,2.362200*%
%ADD21R,2.362200X2.362200*%
%ADD22C,1.524000*%
%ADD23R,1.524000X1.524000*%
%ADD24C,1.600000*%
%ADD25R,1.600000X1.600000*%
%ADD26C,1.560000*%
%ADD27R,1.560000X1.560000*%
%ADD28C,2.800000*%
%ADD29R,2.800000X2.800000*%
G04 APERTURE END LIST*
D10*
%TO.C,BZ2*%
X49500000Y-50502000D03*
D11*
X56000000Y-50502000D03*
%TD*%
D12*
%TO.C,mh2*%
X142500000Y-50000000D03*
D13*
X142500000Y-50000000D03*
%TD*%
D12*
%TO.C,mh1*%
X37500000Y-50000000D03*
D13*
X37500000Y-50000000D03*
%TD*%
D12*
%TO.C,mh3*%
X37500000Y-160000000D03*
D13*
X37500000Y-160000000D03*
%TD*%
D12*
%TO.C,mh4*%
X165000000Y-180000000D03*
D13*
X165000000Y-180000000D03*
%TD*%
D12*
%TO.C,mh6*%
X167500000Y-220000000D03*
D13*
X167500000Y-220000000D03*
%TD*%
D12*
%TO.C,mh5*%
X35000000Y-220000000D03*
D13*
X35000000Y-220000000D03*
%TD*%
%TO.C,U14*%
G36*
G01*
X82982000Y-166231000D02*
X82682000Y-166231000D01*
G75*
G02*
X82532000Y-166081000I0J150000D01*
G01*
X82532000Y-164406000D01*
G75*
G02*
X82682000Y-164256000I150000J0D01*
G01*
X82982000Y-164256000D01*
G75*
G02*
X83132000Y-164406000I0J-150000D01*
G01*
X83132000Y-166081000D01*
G75*
G02*
X82982000Y-166231000I-150000J0D01*
G01*
G37*
G36*
G01*
X81712000Y-166231000D02*
X81412000Y-166231000D01*
G75*
G02*
X81262000Y-166081000I0J150000D01*
G01*
X81262000Y-164406000D01*
G75*
G02*
X81412000Y-164256000I150000J0D01*
G01*
X81712000Y-164256000D01*
G75*
G02*
X81862000Y-164406000I0J-150000D01*
G01*
X81862000Y-166081000D01*
G75*
G02*
X81712000Y-166231000I-150000J0D01*
G01*
G37*
G36*
G01*
X80442000Y-166231000D02*
X80142000Y-166231000D01*
G75*
G02*
X79992000Y-166081000I0J150000D01*
G01*
X79992000Y-164406000D01*
G75*
G02*
X80142000Y-164256000I150000J0D01*
G01*
X80442000Y-164256000D01*
G75*
G02*
X80592000Y-164406000I0J-150000D01*
G01*
X80592000Y-166081000D01*
G75*
G02*
X80442000Y-166231000I-150000J0D01*
G01*
G37*
G36*
G01*
X79172000Y-166231000D02*
X78872000Y-166231000D01*
G75*
G02*
X78722000Y-166081000I0J150000D01*
G01*
X78722000Y-164406000D01*
G75*
G02*
X78872000Y-164256000I150000J0D01*
G01*
X79172000Y-164256000D01*
G75*
G02*
X79322000Y-164406000I0J-150000D01*
G01*
X79322000Y-166081000D01*
G75*
G02*
X79172000Y-166231000I-150000J0D01*
G01*
G37*
G36*
G01*
X77902000Y-166231000D02*
X77602000Y-166231000D01*
G75*
G02*
X77452000Y-166081000I0J150000D01*
G01*
X77452000Y-164406000D01*
G75*
G02*
X77602000Y-164256000I150000J0D01*
G01*
X77902000Y-164256000D01*
G75*
G02*
X78052000Y-164406000I0J-150000D01*
G01*
X78052000Y-166081000D01*
G75*
G02*
X77902000Y-166231000I-150000J0D01*
G01*
G37*
G36*
G01*
X76632000Y-166231000D02*
X76332000Y-166231000D01*
G75*
G02*
X76182000Y-166081000I0J150000D01*
G01*
X76182000Y-164406000D01*
G75*
G02*
X76332000Y-164256000I150000J0D01*
G01*
X76632000Y-164256000D01*
G75*
G02*
X76782000Y-164406000I0J-150000D01*
G01*
X76782000Y-166081000D01*
G75*
G02*
X76632000Y-166231000I-150000J0D01*
G01*
G37*
G36*
G01*
X75362000Y-166231000D02*
X75062000Y-166231000D01*
G75*
G02*
X74912000Y-166081000I0J150000D01*
G01*
X74912000Y-164406000D01*
G75*
G02*
X75062000Y-164256000I150000J0D01*
G01*
X75362000Y-164256000D01*
G75*
G02*
X75512000Y-164406000I0J-150000D01*
G01*
X75512000Y-166081000D01*
G75*
G02*
X75362000Y-166231000I-150000J0D01*
G01*
G37*
G36*
G01*
X75362000Y-173156000D02*
X75062000Y-173156000D01*
G75*
G02*
X74912000Y-173006000I0J150000D01*
G01*
X74912000Y-171331000D01*
G75*
G02*
X75062000Y-171181000I150000J0D01*
G01*
X75362000Y-171181000D01*
G75*
G02*
X75512000Y-171331000I0J-150000D01*
G01*
X75512000Y-173006000D01*
G75*
G02*
X75362000Y-173156000I-150000J0D01*
G01*
G37*
G36*
G01*
X76632000Y-173156000D02*
X76332000Y-173156000D01*
G75*
G02*
X76182000Y-173006000I0J150000D01*
G01*
X76182000Y-171331000D01*
G75*
G02*
X76332000Y-171181000I150000J0D01*
G01*
X76632000Y-171181000D01*
G75*
G02*
X76782000Y-171331000I0J-150000D01*
G01*
X76782000Y-173006000D01*
G75*
G02*
X76632000Y-173156000I-150000J0D01*
G01*
G37*
G36*
G01*
X77902000Y-173156000D02*
X77602000Y-173156000D01*
G75*
G02*
X77452000Y-173006000I0J150000D01*
G01*
X77452000Y-171331000D01*
G75*
G02*
X77602000Y-171181000I150000J0D01*
G01*
X77902000Y-171181000D01*
G75*
G02*
X78052000Y-171331000I0J-150000D01*
G01*
X78052000Y-173006000D01*
G75*
G02*
X77902000Y-173156000I-150000J0D01*
G01*
G37*
G36*
G01*
X79172000Y-173156000D02*
X78872000Y-173156000D01*
G75*
G02*
X78722000Y-173006000I0J150000D01*
G01*
X78722000Y-171331000D01*
G75*
G02*
X78872000Y-171181000I150000J0D01*
G01*
X79172000Y-171181000D01*
G75*
G02*
X79322000Y-171331000I0J-150000D01*
G01*
X79322000Y-173006000D01*
G75*
G02*
X79172000Y-173156000I-150000J0D01*
G01*
G37*
G36*
G01*
X80442000Y-173156000D02*
X80142000Y-173156000D01*
G75*
G02*
X79992000Y-173006000I0J150000D01*
G01*
X79992000Y-171331000D01*
G75*
G02*
X80142000Y-171181000I150000J0D01*
G01*
X80442000Y-171181000D01*
G75*
G02*
X80592000Y-171331000I0J-150000D01*
G01*
X80592000Y-173006000D01*
G75*
G02*
X80442000Y-173156000I-150000J0D01*
G01*
G37*
G36*
G01*
X81712000Y-173156000D02*
X81412000Y-173156000D01*
G75*
G02*
X81262000Y-173006000I0J150000D01*
G01*
X81262000Y-171331000D01*
G75*
G02*
X81412000Y-171181000I150000J0D01*
G01*
X81712000Y-171181000D01*
G75*
G02*
X81862000Y-171331000I0J-150000D01*
G01*
X81862000Y-173006000D01*
G75*
G02*
X81712000Y-173156000I-150000J0D01*
G01*
G37*
G36*
G01*
X82982000Y-173156000D02*
X82682000Y-173156000D01*
G75*
G02*
X82532000Y-173006000I0J150000D01*
G01*
X82532000Y-171331000D01*
G75*
G02*
X82682000Y-171181000I150000J0D01*
G01*
X82982000Y-171181000D01*
G75*
G02*
X83132000Y-171331000I0J-150000D01*
G01*
X83132000Y-173006000D01*
G75*
G02*
X82982000Y-173156000I-150000J0D01*
G01*
G37*
%TD*%
%TO.C,R74*%
G36*
G01*
X72350500Y-162278500D02*
X72350500Y-162753500D01*
G75*
G02*
X72113000Y-162991000I-237500J0D01*
G01*
X71613000Y-162991000D01*
G75*
G02*
X71375500Y-162753500I0J237500D01*
G01*
X71375500Y-162278500D01*
G75*
G02*
X71613000Y-162041000I237500J0D01*
G01*
X72113000Y-162041000D01*
G75*
G02*
X72350500Y-162278500I0J-237500D01*
G01*
G37*
G36*
G01*
X74175500Y-162278500D02*
X74175500Y-162753500D01*
G75*
G02*
X73938000Y-162991000I-237500J0D01*
G01*
X73438000Y-162991000D01*
G75*
G02*
X73200500Y-162753500I0J237500D01*
G01*
X73200500Y-162278500D01*
G75*
G02*
X73438000Y-162041000I237500J0D01*
G01*
X73938000Y-162041000D01*
G75*
G02*
X74175500Y-162278500I0J-237500D01*
G01*
G37*
%TD*%
%TO.C,R73*%
G36*
G01*
X72397500Y-174470500D02*
X72397500Y-174945500D01*
G75*
G02*
X72160000Y-175183000I-237500J0D01*
G01*
X71660000Y-175183000D01*
G75*
G02*
X71422500Y-174945500I0J237500D01*
G01*
X71422500Y-174470500D01*
G75*
G02*
X71660000Y-174233000I237500J0D01*
G01*
X72160000Y-174233000D01*
G75*
G02*
X72397500Y-174470500I0J-237500D01*
G01*
G37*
G36*
G01*
X74222500Y-174470500D02*
X74222500Y-174945500D01*
G75*
G02*
X73985000Y-175183000I-237500J0D01*
G01*
X73485000Y-175183000D01*
G75*
G02*
X73247500Y-174945500I0J237500D01*
G01*
X73247500Y-174470500D01*
G75*
G02*
X73485000Y-174233000I237500J0D01*
G01*
X73985000Y-174233000D01*
G75*
G02*
X74222500Y-174470500I0J-237500D01*
G01*
G37*
%TD*%
%TO.C,R72*%
G36*
G01*
X76973500Y-155383000D02*
X76498500Y-155383000D01*
G75*
G02*
X76261000Y-155145500I0J237500D01*
G01*
X76261000Y-154645500D01*
G75*
G02*
X76498500Y-154408000I237500J0D01*
G01*
X76973500Y-154408000D01*
G75*
G02*
X77211000Y-154645500I0J-237500D01*
G01*
X77211000Y-155145500D01*
G75*
G02*
X76973500Y-155383000I-237500J0D01*
G01*
G37*
G36*
G01*
X76973500Y-157208000D02*
X76498500Y-157208000D01*
G75*
G02*
X76261000Y-156970500I0J237500D01*
G01*
X76261000Y-156470500D01*
G75*
G02*
X76498500Y-156233000I237500J0D01*
G01*
X76973500Y-156233000D01*
G75*
G02*
X77211000Y-156470500I0J-237500D01*
G01*
X77211000Y-156970500D01*
G75*
G02*
X76973500Y-157208000I-237500J0D01*
G01*
G37*
%TD*%
%TO.C,R71*%
G36*
G01*
X76498500Y-181633000D02*
X76973500Y-181633000D01*
G75*
G02*
X77211000Y-181870500I0J-237500D01*
G01*
X77211000Y-182370500D01*
G75*
G02*
X76973500Y-182608000I-237500J0D01*
G01*
X76498500Y-182608000D01*
G75*
G02*
X76261000Y-182370500I0J237500D01*
G01*
X76261000Y-181870500D01*
G75*
G02*
X76498500Y-181633000I237500J0D01*
G01*
G37*
G36*
G01*
X76498500Y-179808000D02*
X76973500Y-179808000D01*
G75*
G02*
X77211000Y-180045500I0J-237500D01*
G01*
X77211000Y-180545500D01*
G75*
G02*
X76973500Y-180783000I-237500J0D01*
G01*
X76498500Y-180783000D01*
G75*
G02*
X76261000Y-180545500I0J237500D01*
G01*
X76261000Y-180045500D01*
G75*
G02*
X76498500Y-179808000I237500J0D01*
G01*
G37*
%TD*%
D14*
%TO.C,JP1*%
X135410000Y-80728000D03*
X135410000Y-78188000D03*
D15*
X135410000Y-75648000D03*
%TD*%
D16*
%TO.C,J12*%
X161960000Y-219570000D03*
X103040000Y-219570000D03*
X103040000Y-199540000D03*
X161960000Y-203600000D03*
X103705000Y-205850000D03*
G36*
G01*
X157140000Y-199915000D02*
X157140000Y-199165000D01*
G75*
G02*
X157515000Y-198790000I375000J0D01*
G01*
X158265000Y-198790000D01*
G75*
G02*
X158640000Y-199165000I0J-375000D01*
G01*
X158640000Y-199915000D01*
G75*
G02*
X158265000Y-200290000I-375000J0D01*
G01*
X157515000Y-200290000D01*
G75*
G02*
X157140000Y-199915000I0J375000D01*
G01*
G37*
D17*
X156630000Y-202080000D03*
X155350000Y-199540000D03*
X154090000Y-202080000D03*
X152810000Y-199540000D03*
X151550000Y-202080000D03*
X150270000Y-199540000D03*
X149010000Y-202080000D03*
X109640000Y-202080000D03*
X107100000Y-202080000D03*
X110900000Y-199540000D03*
G36*
G01*
X115230000Y-199915000D02*
X115230000Y-199165000D01*
G75*
G02*
X115605000Y-198790000I375000J0D01*
G01*
X116355000Y-198790000D01*
G75*
G02*
X116730000Y-199165000I0J-375000D01*
G01*
X116730000Y-199915000D01*
G75*
G02*
X116355000Y-200290000I-375000J0D01*
G01*
X115605000Y-200290000D01*
G75*
G02*
X115230000Y-199915000I0J375000D01*
G01*
G37*
X108360000Y-199540000D03*
X112180000Y-202080000D03*
X113440000Y-199540000D03*
X114720000Y-202080000D03*
X122330000Y-199540000D03*
G36*
G01*
X129200000Y-199915000D02*
X129200000Y-199165000D01*
G75*
G02*
X129575000Y-198790000I375000J0D01*
G01*
X130325000Y-198790000D01*
G75*
G02*
X130700000Y-199165000I0J-375000D01*
G01*
X130700000Y-199915000D01*
G75*
G02*
X130325000Y-200290000I-375000J0D01*
G01*
X129575000Y-200290000D01*
G75*
G02*
X129200000Y-199915000I0J375000D01*
G01*
G37*
X124870000Y-199540000D03*
X121070000Y-202080000D03*
X123610000Y-202080000D03*
X128690000Y-202080000D03*
X127410000Y-199540000D03*
X126150000Y-202080000D03*
X136300000Y-199540000D03*
G36*
G01*
X143170000Y-199915000D02*
X143170000Y-199165000D01*
G75*
G02*
X143545000Y-198790000I375000J0D01*
G01*
X144295000Y-198790000D01*
G75*
G02*
X144670000Y-199165000I0J-375000D01*
G01*
X144670000Y-199915000D01*
G75*
G02*
X144295000Y-200290000I-375000J0D01*
G01*
X143545000Y-200290000D01*
G75*
G02*
X143170000Y-199915000I0J375000D01*
G01*
G37*
X138840000Y-199540000D03*
X135040000Y-202080000D03*
X137580000Y-202080000D03*
X142660000Y-202080000D03*
X141380000Y-199540000D03*
X140120000Y-202080000D03*
X140120000Y-208650000D03*
X141380000Y-206110000D03*
X142660000Y-208650000D03*
X137580000Y-208650000D03*
G36*
G01*
X134290000Y-209149500D02*
X134290000Y-208150500D01*
G75*
G02*
X134540500Y-207900000I250500J0D01*
G01*
X135539500Y-207900000D01*
G75*
G02*
X135790000Y-208150500I0J-250500D01*
G01*
X135790000Y-209149500D01*
G75*
G02*
X135539500Y-209400000I-250500J0D01*
G01*
X134540500Y-209400000D01*
G75*
G02*
X134290000Y-209149500I0J250500D01*
G01*
G37*
X138840000Y-206110000D03*
X143920000Y-206110000D03*
X136300000Y-206110000D03*
X126150000Y-208650000D03*
X127410000Y-206110000D03*
X128690000Y-208650000D03*
X123610000Y-208650000D03*
G36*
G01*
X120320000Y-209149500D02*
X120320000Y-208150500D01*
G75*
G02*
X120570500Y-207900000I250500J0D01*
G01*
X121569500Y-207900000D01*
G75*
G02*
X121820000Y-208150500I0J-250500D01*
G01*
X121820000Y-209149500D01*
G75*
G02*
X121569500Y-209400000I-250500J0D01*
G01*
X120570500Y-209400000D01*
G75*
G02*
X120320000Y-209149500I0J250500D01*
G01*
G37*
X124870000Y-206110000D03*
X129950000Y-206110000D03*
X122330000Y-206110000D03*
X108360000Y-206110000D03*
X115980000Y-206110000D03*
X110900000Y-206110000D03*
G36*
G01*
X106350000Y-209149500D02*
X106350000Y-208150500D01*
G75*
G02*
X106600500Y-207900000I250500J0D01*
G01*
X107599500Y-207900000D01*
G75*
G02*
X107850000Y-208150500I0J-250500D01*
G01*
X107850000Y-209149500D01*
G75*
G02*
X107599500Y-209400000I-250500J0D01*
G01*
X106600500Y-209400000D01*
G75*
G02*
X106350000Y-209149500I0J250500D01*
G01*
G37*
X109640000Y-208650000D03*
X114720000Y-208650000D03*
X113440000Y-206110000D03*
X112180000Y-208650000D03*
G36*
G01*
X148260000Y-209149500D02*
X148260000Y-208150500D01*
G75*
G02*
X148510500Y-207900000I250500J0D01*
G01*
X149509500Y-207900000D01*
G75*
G02*
X149760000Y-208150500I0J-250500D01*
G01*
X149760000Y-209149500D01*
G75*
G02*
X149509500Y-209400000I-250500J0D01*
G01*
X148510500Y-209400000D01*
G75*
G02*
X148260000Y-209149500I0J250500D01*
G01*
G37*
X150270000Y-206110000D03*
X151550000Y-208650000D03*
X152810000Y-206110000D03*
X154090000Y-208650000D03*
X155350000Y-206110000D03*
X156630000Y-208650000D03*
X157890000Y-206110000D03*
D16*
X161295000Y-209150000D03*
D18*
X105830000Y-215000000D03*
X159170000Y-215000000D03*
%TD*%
D14*
%TO.C,J6*%
X124996000Y-78442000D03*
X127536000Y-78442000D03*
D15*
X130076000Y-78442000D03*
%TD*%
D19*
%TO.C,J5*%
X129822000Y-159468000D03*
X129822000Y-134068000D03*
D20*
X140134400Y-146768000D03*
X131346000Y-150832000D03*
X135308400Y-146768000D03*
D21*
X131346000Y-142704000D03*
%TD*%
%TO.C,C34*%
G36*
G01*
X41205500Y-67790500D02*
X41205500Y-68265500D01*
G75*
G02*
X40968000Y-68503000I-237500J0D01*
G01*
X40368000Y-68503000D01*
G75*
G02*
X40130500Y-68265500I0J237500D01*
G01*
X40130500Y-67790500D01*
G75*
G02*
X40368000Y-67553000I237500J0D01*
G01*
X40968000Y-67553000D01*
G75*
G02*
X41205500Y-67790500I0J-237500D01*
G01*
G37*
G36*
G01*
X42930500Y-67790500D02*
X42930500Y-68265500D01*
G75*
G02*
X42693000Y-68503000I-237500J0D01*
G01*
X42093000Y-68503000D01*
G75*
G02*
X41855500Y-68265500I0J237500D01*
G01*
X41855500Y-67790500D01*
G75*
G02*
X42093000Y-67553000I237500J0D01*
G01*
X42693000Y-67553000D01*
G75*
G02*
X42930500Y-67790500I0J-237500D01*
G01*
G37*
%TD*%
%TO.C,C33*%
G36*
G01*
X34334500Y-113465000D02*
X34809500Y-113465000D01*
G75*
G02*
X35047000Y-113702500I0J-237500D01*
G01*
X35047000Y-114302500D01*
G75*
G02*
X34809500Y-114540000I-237500J0D01*
G01*
X34334500Y-114540000D01*
G75*
G02*
X34097000Y-114302500I0J237500D01*
G01*
X34097000Y-113702500D01*
G75*
G02*
X34334500Y-113465000I237500J0D01*
G01*
G37*
G36*
G01*
X34334500Y-111740000D02*
X34809500Y-111740000D01*
G75*
G02*
X35047000Y-111977500I0J-237500D01*
G01*
X35047000Y-112577500D01*
G75*
G02*
X34809500Y-112815000I-237500J0D01*
G01*
X34334500Y-112815000D01*
G75*
G02*
X34097000Y-112577500I0J237500D01*
G01*
X34097000Y-111977500D01*
G75*
G02*
X34334500Y-111740000I237500J0D01*
G01*
G37*
%TD*%
%TO.C,C32*%
G36*
G01*
X34809500Y-139431000D02*
X34334500Y-139431000D01*
G75*
G02*
X34097000Y-139193500I0J237500D01*
G01*
X34097000Y-138593500D01*
G75*
G02*
X34334500Y-138356000I237500J0D01*
G01*
X34809500Y-138356000D01*
G75*
G02*
X35047000Y-138593500I0J-237500D01*
G01*
X35047000Y-139193500D01*
G75*
G02*
X34809500Y-139431000I-237500J0D01*
G01*
G37*
G36*
G01*
X34809500Y-141156000D02*
X34334500Y-141156000D01*
G75*
G02*
X34097000Y-140918500I0J237500D01*
G01*
X34097000Y-140318500D01*
G75*
G02*
X34334500Y-140081000I237500J0D01*
G01*
X34809500Y-140081000D01*
G75*
G02*
X35047000Y-140318500I0J-237500D01*
G01*
X35047000Y-140918500D01*
G75*
G02*
X34809500Y-141156000I-237500J0D01*
G01*
G37*
%TD*%
%TO.C,C22*%
G36*
G01*
X85797500Y-162753500D02*
X85797500Y-162278500D01*
G75*
G02*
X86035000Y-162041000I237500J0D01*
G01*
X86635000Y-162041000D01*
G75*
G02*
X86872500Y-162278500I0J-237500D01*
G01*
X86872500Y-162753500D01*
G75*
G02*
X86635000Y-162991000I-237500J0D01*
G01*
X86035000Y-162991000D01*
G75*
G02*
X85797500Y-162753500I0J237500D01*
G01*
G37*
G36*
G01*
X84072500Y-162753500D02*
X84072500Y-162278500D01*
G75*
G02*
X84310000Y-162041000I237500J0D01*
G01*
X84910000Y-162041000D01*
G75*
G02*
X85147500Y-162278500I0J-237500D01*
G01*
X85147500Y-162753500D01*
G75*
G02*
X84910000Y-162991000I-237500J0D01*
G01*
X84310000Y-162991000D01*
G75*
G02*
X84072500Y-162753500I0J237500D01*
G01*
G37*
%TD*%
%TO.C,C21*%
G36*
G01*
X85797500Y-174945500D02*
X85797500Y-174470500D01*
G75*
G02*
X86035000Y-174233000I237500J0D01*
G01*
X86635000Y-174233000D01*
G75*
G02*
X86872500Y-174470500I0J-237500D01*
G01*
X86872500Y-174945500D01*
G75*
G02*
X86635000Y-175183000I-237500J0D01*
G01*
X86035000Y-175183000D01*
G75*
G02*
X85797500Y-174945500I0J237500D01*
G01*
G37*
G36*
G01*
X84072500Y-174945500D02*
X84072500Y-174470500D01*
G75*
G02*
X84310000Y-174233000I237500J0D01*
G01*
X84910000Y-174233000D01*
G75*
G02*
X85147500Y-174470500I0J-237500D01*
G01*
X85147500Y-174945500D01*
G75*
G02*
X84910000Y-175183000I-237500J0D01*
G01*
X84310000Y-175183000D01*
G75*
G02*
X84072500Y-174945500I0J237500D01*
G01*
G37*
%TD*%
D22*
%TO.C,A1*%
X144554000Y-108922000D03*
X144554000Y-111462000D03*
X144554000Y-114002000D03*
D23*
X144554000Y-116542000D03*
D22*
X103914000Y-116542000D03*
X103914000Y-114002000D03*
X103914000Y-111462000D03*
X103914000Y-108922000D03*
%TD*%
%TO.C,R18*%
G36*
G01*
X115069000Y-176248500D02*
X115069000Y-176723500D01*
G75*
G02*
X114831500Y-176961000I-237500J0D01*
G01*
X114331500Y-176961000D01*
G75*
G02*
X114094000Y-176723500I0J237500D01*
G01*
X114094000Y-176248500D01*
G75*
G02*
X114331500Y-176011000I237500J0D01*
G01*
X114831500Y-176011000D01*
G75*
G02*
X115069000Y-176248500I0J-237500D01*
G01*
G37*
G36*
G01*
X116894000Y-176248500D02*
X116894000Y-176723500D01*
G75*
G02*
X116656500Y-176961000I-237500J0D01*
G01*
X116156500Y-176961000D01*
G75*
G02*
X115919000Y-176723500I0J237500D01*
G01*
X115919000Y-176248500D01*
G75*
G02*
X116156500Y-176011000I237500J0D01*
G01*
X116656500Y-176011000D01*
G75*
G02*
X116894000Y-176248500I0J-237500D01*
G01*
G37*
%TD*%
%TO.C,R19*%
G36*
G01*
X121931500Y-180529000D02*
X121456500Y-180529000D01*
G75*
G02*
X121219000Y-180291500I0J237500D01*
G01*
X121219000Y-179791500D01*
G75*
G02*
X121456500Y-179554000I237500J0D01*
G01*
X121931500Y-179554000D01*
G75*
G02*
X122169000Y-179791500I0J-237500D01*
G01*
X122169000Y-180291500D01*
G75*
G02*
X121931500Y-180529000I-237500J0D01*
G01*
G37*
G36*
G01*
X121931500Y-182354000D02*
X121456500Y-182354000D01*
G75*
G02*
X121219000Y-182116500I0J237500D01*
G01*
X121219000Y-181616500D01*
G75*
G02*
X121456500Y-181379000I237500J0D01*
G01*
X121931500Y-181379000D01*
G75*
G02*
X122169000Y-181616500I0J-237500D01*
G01*
X122169000Y-182116500D01*
G75*
G02*
X121931500Y-182354000I-237500J0D01*
G01*
G37*
%TD*%
D14*
%TO.C,J23*%
X56660000Y-187420000D03*
D15*
X56660000Y-189960000D03*
%TD*%
D14*
%TO.C,J22*%
X145560000Y-187420000D03*
D15*
X145560000Y-189960000D03*
%TD*%
D14*
%TO.C,J21*%
X137940000Y-187420000D03*
D15*
X137940000Y-189960000D03*
%TD*%
D14*
%TO.C,J20*%
X130320000Y-187420000D03*
D15*
X130320000Y-189960000D03*
%TD*%
D14*
%TO.C,J19*%
X122700000Y-187420000D03*
D15*
X122700000Y-189960000D03*
%TD*%
D14*
%TO.C,J18*%
X94760000Y-187420000D03*
D15*
X94760000Y-189960000D03*
%TD*%
D14*
%TO.C,J17*%
X107460000Y-187420000D03*
D15*
X107460000Y-189960000D03*
%TD*%
D14*
%TO.C,J16*%
X115080000Y-187420000D03*
D15*
X115080000Y-189960000D03*
%TD*%
D14*
%TO.C,J15*%
X87140000Y-187420000D03*
D15*
X87140000Y-189960000D03*
%TD*%
D14*
%TO.C,J14*%
X79520000Y-187420000D03*
D15*
X79520000Y-189960000D03*
%TD*%
D14*
%TO.C,J13*%
X71900000Y-187420000D03*
D15*
X71900000Y-189960000D03*
%TD*%
D14*
%TO.C,J10*%
X41420000Y-187420000D03*
D15*
X41420000Y-189960000D03*
%TD*%
D14*
%TO.C,J9*%
X110518000Y-78442000D03*
X113058000Y-78442000D03*
D15*
X115598000Y-78442000D03*
%TD*%
D14*
%TO.C,J8*%
X118392000Y-99270000D03*
X115852000Y-99270000D03*
X113312000Y-99270000D03*
D15*
X110772000Y-99270000D03*
%TD*%
D14*
%TO.C,J4*%
X123317000Y-87188000D03*
X120777000Y-87188000D03*
X118237000Y-87188000D03*
X115697000Y-87188000D03*
X113157000Y-87188000D03*
D15*
X110617000Y-87188000D03*
%TD*%
D14*
%TO.C,J3*%
X64280000Y-187420000D03*
D15*
X64280000Y-189960000D03*
%TD*%
D14*
%TO.C,J2*%
X49040000Y-187420000D03*
D15*
X49040000Y-189960000D03*
%TD*%
D24*
%TO.C,U15*%
X34445000Y-105366000D03*
X36985000Y-105366000D03*
X39525000Y-105366000D03*
X42065000Y-105366000D03*
X44605000Y-105366000D03*
X47145000Y-105366000D03*
X49685000Y-105366000D03*
X52225000Y-105366000D03*
X54765000Y-105366000D03*
X57305000Y-105366000D03*
X59845000Y-105366000D03*
X62385000Y-105366000D03*
X64925000Y-105366000D03*
X67465000Y-105366000D03*
D25*
X34445000Y-120606000D03*
D24*
X36985000Y-120606000D03*
X39525000Y-120606000D03*
X42065000Y-120606000D03*
X44605000Y-120606000D03*
X47145000Y-120606000D03*
X49685000Y-120606000D03*
X52225000Y-120606000D03*
X54765000Y-120606000D03*
X57305000Y-120606000D03*
X59845000Y-120606000D03*
X62385000Y-120606000D03*
X64925000Y-120606000D03*
X70005000Y-105366000D03*
X72545000Y-105366000D03*
X75085000Y-105366000D03*
X77625000Y-105366000D03*
X80165000Y-105366000D03*
X82705000Y-105366000D03*
X85245000Y-105366000D03*
X87785000Y-105366000D03*
X90325000Y-105366000D03*
X92865000Y-105366000D03*
X92865000Y-120606000D03*
X90325000Y-120606000D03*
X87785000Y-120606000D03*
X85245000Y-120606000D03*
X67465000Y-120606000D03*
X70005000Y-120606000D03*
X72545000Y-120606000D03*
X82705000Y-120606000D03*
X80165000Y-120606000D03*
X77625000Y-120606000D03*
X75085000Y-120606000D03*
%TD*%
%TO.C,U10*%
G36*
G01*
X104456000Y-166141000D02*
X104156000Y-166141000D01*
G75*
G02*
X104006000Y-165991000I0J150000D01*
G01*
X104006000Y-164316000D01*
G75*
G02*
X104156000Y-164166000I150000J0D01*
G01*
X104456000Y-164166000D01*
G75*
G02*
X104606000Y-164316000I0J-150000D01*
G01*
X104606000Y-165991000D01*
G75*
G02*
X104456000Y-166141000I-150000J0D01*
G01*
G37*
G36*
G01*
X103186000Y-166141000D02*
X102886000Y-166141000D01*
G75*
G02*
X102736000Y-165991000I0J150000D01*
G01*
X102736000Y-164316000D01*
G75*
G02*
X102886000Y-164166000I150000J0D01*
G01*
X103186000Y-164166000D01*
G75*
G02*
X103336000Y-164316000I0J-150000D01*
G01*
X103336000Y-165991000D01*
G75*
G02*
X103186000Y-166141000I-150000J0D01*
G01*
G37*
G36*
G01*
X101916000Y-166141000D02*
X101616000Y-166141000D01*
G75*
G02*
X101466000Y-165991000I0J150000D01*
G01*
X101466000Y-164316000D01*
G75*
G02*
X101616000Y-164166000I150000J0D01*
G01*
X101916000Y-164166000D01*
G75*
G02*
X102066000Y-164316000I0J-150000D01*
G01*
X102066000Y-165991000D01*
G75*
G02*
X101916000Y-166141000I-150000J0D01*
G01*
G37*
G36*
G01*
X100646000Y-166141000D02*
X100346000Y-166141000D01*
G75*
G02*
X100196000Y-165991000I0J150000D01*
G01*
X100196000Y-164316000D01*
G75*
G02*
X100346000Y-164166000I150000J0D01*
G01*
X100646000Y-164166000D01*
G75*
G02*
X100796000Y-164316000I0J-150000D01*
G01*
X100796000Y-165991000D01*
G75*
G02*
X100646000Y-166141000I-150000J0D01*
G01*
G37*
G36*
G01*
X99376000Y-166141000D02*
X99076000Y-166141000D01*
G75*
G02*
X98926000Y-165991000I0J150000D01*
G01*
X98926000Y-164316000D01*
G75*
G02*
X99076000Y-164166000I150000J0D01*
G01*
X99376000Y-164166000D01*
G75*
G02*
X99526000Y-164316000I0J-150000D01*
G01*
X99526000Y-165991000D01*
G75*
G02*
X99376000Y-166141000I-150000J0D01*
G01*
G37*
G36*
G01*
X98106000Y-166141000D02*
X97806000Y-166141000D01*
G75*
G02*
X97656000Y-165991000I0J150000D01*
G01*
X97656000Y-164316000D01*
G75*
G02*
X97806000Y-164166000I150000J0D01*
G01*
X98106000Y-164166000D01*
G75*
G02*
X98256000Y-164316000I0J-150000D01*
G01*
X98256000Y-165991000D01*
G75*
G02*
X98106000Y-166141000I-150000J0D01*
G01*
G37*
G36*
G01*
X96836000Y-166141000D02*
X96536000Y-166141000D01*
G75*
G02*
X96386000Y-165991000I0J150000D01*
G01*
X96386000Y-164316000D01*
G75*
G02*
X96536000Y-164166000I150000J0D01*
G01*
X96836000Y-164166000D01*
G75*
G02*
X96986000Y-164316000I0J-150000D01*
G01*
X96986000Y-165991000D01*
G75*
G02*
X96836000Y-166141000I-150000J0D01*
G01*
G37*
G36*
G01*
X96836000Y-173066000D02*
X96536000Y-173066000D01*
G75*
G02*
X96386000Y-172916000I0J150000D01*
G01*
X96386000Y-171241000D01*
G75*
G02*
X96536000Y-171091000I150000J0D01*
G01*
X96836000Y-171091000D01*
G75*
G02*
X96986000Y-171241000I0J-150000D01*
G01*
X96986000Y-172916000D01*
G75*
G02*
X96836000Y-173066000I-150000J0D01*
G01*
G37*
G36*
G01*
X98106000Y-173066000D02*
X97806000Y-173066000D01*
G75*
G02*
X97656000Y-172916000I0J150000D01*
G01*
X97656000Y-171241000D01*
G75*
G02*
X97806000Y-171091000I150000J0D01*
G01*
X98106000Y-171091000D01*
G75*
G02*
X98256000Y-171241000I0J-150000D01*
G01*
X98256000Y-172916000D01*
G75*
G02*
X98106000Y-173066000I-150000J0D01*
G01*
G37*
G36*
G01*
X99376000Y-173066000D02*
X99076000Y-173066000D01*
G75*
G02*
X98926000Y-172916000I0J150000D01*
G01*
X98926000Y-171241000D01*
G75*
G02*
X99076000Y-171091000I150000J0D01*
G01*
X99376000Y-171091000D01*
G75*
G02*
X99526000Y-171241000I0J-150000D01*
G01*
X99526000Y-172916000D01*
G75*
G02*
X99376000Y-173066000I-150000J0D01*
G01*
G37*
G36*
G01*
X100646000Y-173066000D02*
X100346000Y-173066000D01*
G75*
G02*
X100196000Y-172916000I0J150000D01*
G01*
X100196000Y-171241000D01*
G75*
G02*
X100346000Y-171091000I150000J0D01*
G01*
X100646000Y-171091000D01*
G75*
G02*
X100796000Y-171241000I0J-150000D01*
G01*
X100796000Y-172916000D01*
G75*
G02*
X100646000Y-173066000I-150000J0D01*
G01*
G37*
G36*
G01*
X101916000Y-173066000D02*
X101616000Y-173066000D01*
G75*
G02*
X101466000Y-172916000I0J150000D01*
G01*
X101466000Y-171241000D01*
G75*
G02*
X101616000Y-171091000I150000J0D01*
G01*
X101916000Y-171091000D01*
G75*
G02*
X102066000Y-171241000I0J-150000D01*
G01*
X102066000Y-172916000D01*
G75*
G02*
X101916000Y-173066000I-150000J0D01*
G01*
G37*
G36*
G01*
X103186000Y-173066000D02*
X102886000Y-173066000D01*
G75*
G02*
X102736000Y-172916000I0J150000D01*
G01*
X102736000Y-171241000D01*
G75*
G02*
X102886000Y-171091000I150000J0D01*
G01*
X103186000Y-171091000D01*
G75*
G02*
X103336000Y-171241000I0J-150000D01*
G01*
X103336000Y-172916000D01*
G75*
G02*
X103186000Y-173066000I-150000J0D01*
G01*
G37*
G36*
G01*
X104456000Y-173066000D02*
X104156000Y-173066000D01*
G75*
G02*
X104006000Y-172916000I0J150000D01*
G01*
X104006000Y-171241000D01*
G75*
G02*
X104156000Y-171091000I150000J0D01*
G01*
X104456000Y-171091000D01*
G75*
G02*
X104606000Y-171241000I0J-150000D01*
G01*
X104606000Y-172916000D01*
G75*
G02*
X104456000Y-173066000I-150000J0D01*
G01*
G37*
%TD*%
%TO.C,U6*%
G36*
G01*
X125781000Y-166141000D02*
X125481000Y-166141000D01*
G75*
G02*
X125331000Y-165991000I0J150000D01*
G01*
X125331000Y-164316000D01*
G75*
G02*
X125481000Y-164166000I150000J0D01*
G01*
X125781000Y-164166000D01*
G75*
G02*
X125931000Y-164316000I0J-150000D01*
G01*
X125931000Y-165991000D01*
G75*
G02*
X125781000Y-166141000I-150000J0D01*
G01*
G37*
G36*
G01*
X124511000Y-166141000D02*
X124211000Y-166141000D01*
G75*
G02*
X124061000Y-165991000I0J150000D01*
G01*
X124061000Y-164316000D01*
G75*
G02*
X124211000Y-164166000I150000J0D01*
G01*
X124511000Y-164166000D01*
G75*
G02*
X124661000Y-164316000I0J-150000D01*
G01*
X124661000Y-165991000D01*
G75*
G02*
X124511000Y-166141000I-150000J0D01*
G01*
G37*
G36*
G01*
X123241000Y-166141000D02*
X122941000Y-166141000D01*
G75*
G02*
X122791000Y-165991000I0J150000D01*
G01*
X122791000Y-164316000D01*
G75*
G02*
X122941000Y-164166000I150000J0D01*
G01*
X123241000Y-164166000D01*
G75*
G02*
X123391000Y-164316000I0J-150000D01*
G01*
X123391000Y-165991000D01*
G75*
G02*
X123241000Y-166141000I-150000J0D01*
G01*
G37*
G36*
G01*
X121971000Y-166141000D02*
X121671000Y-166141000D01*
G75*
G02*
X121521000Y-165991000I0J150000D01*
G01*
X121521000Y-164316000D01*
G75*
G02*
X121671000Y-164166000I150000J0D01*
G01*
X121971000Y-164166000D01*
G75*
G02*
X122121000Y-164316000I0J-150000D01*
G01*
X122121000Y-165991000D01*
G75*
G02*
X121971000Y-166141000I-150000J0D01*
G01*
G37*
G36*
G01*
X120701000Y-166141000D02*
X120401000Y-166141000D01*
G75*
G02*
X120251000Y-165991000I0J150000D01*
G01*
X120251000Y-164316000D01*
G75*
G02*
X120401000Y-164166000I150000J0D01*
G01*
X120701000Y-164166000D01*
G75*
G02*
X120851000Y-164316000I0J-150000D01*
G01*
X120851000Y-165991000D01*
G75*
G02*
X120701000Y-166141000I-150000J0D01*
G01*
G37*
G36*
G01*
X119431000Y-166141000D02*
X119131000Y-166141000D01*
G75*
G02*
X118981000Y-165991000I0J150000D01*
G01*
X118981000Y-164316000D01*
G75*
G02*
X119131000Y-164166000I150000J0D01*
G01*
X119431000Y-164166000D01*
G75*
G02*
X119581000Y-164316000I0J-150000D01*
G01*
X119581000Y-165991000D01*
G75*
G02*
X119431000Y-166141000I-150000J0D01*
G01*
G37*
G36*
G01*
X118161000Y-166141000D02*
X117861000Y-166141000D01*
G75*
G02*
X117711000Y-165991000I0J150000D01*
G01*
X117711000Y-164316000D01*
G75*
G02*
X117861000Y-164166000I150000J0D01*
G01*
X118161000Y-164166000D01*
G75*
G02*
X118311000Y-164316000I0J-150000D01*
G01*
X118311000Y-165991000D01*
G75*
G02*
X118161000Y-166141000I-150000J0D01*
G01*
G37*
G36*
G01*
X118161000Y-173066000D02*
X117861000Y-173066000D01*
G75*
G02*
X117711000Y-172916000I0J150000D01*
G01*
X117711000Y-171241000D01*
G75*
G02*
X117861000Y-171091000I150000J0D01*
G01*
X118161000Y-171091000D01*
G75*
G02*
X118311000Y-171241000I0J-150000D01*
G01*
X118311000Y-172916000D01*
G75*
G02*
X118161000Y-173066000I-150000J0D01*
G01*
G37*
G36*
G01*
X119431000Y-173066000D02*
X119131000Y-173066000D01*
G75*
G02*
X118981000Y-172916000I0J150000D01*
G01*
X118981000Y-171241000D01*
G75*
G02*
X119131000Y-171091000I150000J0D01*
G01*
X119431000Y-171091000D01*
G75*
G02*
X119581000Y-171241000I0J-150000D01*
G01*
X119581000Y-172916000D01*
G75*
G02*
X119431000Y-173066000I-150000J0D01*
G01*
G37*
G36*
G01*
X120701000Y-173066000D02*
X120401000Y-173066000D01*
G75*
G02*
X120251000Y-172916000I0J150000D01*
G01*
X120251000Y-171241000D01*
G75*
G02*
X120401000Y-171091000I150000J0D01*
G01*
X120701000Y-171091000D01*
G75*
G02*
X120851000Y-171241000I0J-150000D01*
G01*
X120851000Y-172916000D01*
G75*
G02*
X120701000Y-173066000I-150000J0D01*
G01*
G37*
G36*
G01*
X121971000Y-173066000D02*
X121671000Y-173066000D01*
G75*
G02*
X121521000Y-172916000I0J150000D01*
G01*
X121521000Y-171241000D01*
G75*
G02*
X121671000Y-171091000I150000J0D01*
G01*
X121971000Y-171091000D01*
G75*
G02*
X122121000Y-171241000I0J-150000D01*
G01*
X122121000Y-172916000D01*
G75*
G02*
X121971000Y-173066000I-150000J0D01*
G01*
G37*
G36*
G01*
X123241000Y-173066000D02*
X122941000Y-173066000D01*
G75*
G02*
X122791000Y-172916000I0J150000D01*
G01*
X122791000Y-171241000D01*
G75*
G02*
X122941000Y-171091000I150000J0D01*
G01*
X123241000Y-171091000D01*
G75*
G02*
X123391000Y-171241000I0J-150000D01*
G01*
X123391000Y-172916000D01*
G75*
G02*
X123241000Y-173066000I-150000J0D01*
G01*
G37*
G36*
G01*
X124511000Y-173066000D02*
X124211000Y-173066000D01*
G75*
G02*
X124061000Y-172916000I0J150000D01*
G01*
X124061000Y-171241000D01*
G75*
G02*
X124211000Y-171091000I150000J0D01*
G01*
X124511000Y-171091000D01*
G75*
G02*
X124661000Y-171241000I0J-150000D01*
G01*
X124661000Y-172916000D01*
G75*
G02*
X124511000Y-173066000I-150000J0D01*
G01*
G37*
G36*
G01*
X125781000Y-173066000D02*
X125481000Y-173066000D01*
G75*
G02*
X125331000Y-172916000I0J150000D01*
G01*
X125331000Y-171241000D01*
G75*
G02*
X125481000Y-171091000I150000J0D01*
G01*
X125781000Y-171091000D01*
G75*
G02*
X125931000Y-171241000I0J-150000D01*
G01*
X125931000Y-172916000D01*
G75*
G02*
X125781000Y-173066000I-150000J0D01*
G01*
G37*
%TD*%
D26*
%TO.C,U2*%
X35028000Y-89110000D03*
X37568000Y-89110000D03*
X40108000Y-89110000D03*
X42648000Y-89110000D03*
X45188000Y-89110000D03*
X47728000Y-89110000D03*
X50268000Y-89110000D03*
X52808000Y-89110000D03*
X55348000Y-89110000D03*
X57888000Y-89110000D03*
X60428000Y-89110000D03*
X62968000Y-89110000D03*
X65508000Y-89110000D03*
X68048000Y-89110000D03*
X70588000Y-89110000D03*
X73128000Y-89110000D03*
X75668000Y-89110000D03*
X78208000Y-89110000D03*
X80748000Y-89110000D03*
X37568000Y-63710000D03*
X40108000Y-63710000D03*
X42648000Y-63710000D03*
X45188000Y-63710000D03*
X47728000Y-63710000D03*
X50268000Y-63710000D03*
X52808000Y-63710000D03*
X55348000Y-63710000D03*
X57888000Y-63710000D03*
X60428000Y-63710000D03*
X62968000Y-63710000D03*
X65508000Y-63710000D03*
X68048000Y-63710000D03*
X70588000Y-63710000D03*
X73128000Y-63710000D03*
X75668000Y-63710000D03*
X35028000Y-63710000D03*
X78208000Y-63710000D03*
D27*
X80748000Y-63710000D03*
%TD*%
%TO.C,R67*%
G36*
G01*
X79513500Y-180783000D02*
X79038500Y-180783000D01*
G75*
G02*
X78801000Y-180545500I0J237500D01*
G01*
X78801000Y-180045500D01*
G75*
G02*
X79038500Y-179808000I237500J0D01*
G01*
X79513500Y-179808000D01*
G75*
G02*
X79751000Y-180045500I0J-237500D01*
G01*
X79751000Y-180545500D01*
G75*
G02*
X79513500Y-180783000I-237500J0D01*
G01*
G37*
G36*
G01*
X79513500Y-182608000D02*
X79038500Y-182608000D01*
G75*
G02*
X78801000Y-182370500I0J237500D01*
G01*
X78801000Y-181870500D01*
G75*
G02*
X79038500Y-181633000I237500J0D01*
G01*
X79513500Y-181633000D01*
G75*
G02*
X79751000Y-181870500I0J-237500D01*
G01*
X79751000Y-182370500D01*
G75*
G02*
X79513500Y-182608000I-237500J0D01*
G01*
G37*
%TD*%
%TO.C,R66*%
G36*
G01*
X72350500Y-176248500D02*
X72350500Y-176723500D01*
G75*
G02*
X72113000Y-176961000I-237500J0D01*
G01*
X71613000Y-176961000D01*
G75*
G02*
X71375500Y-176723500I0J237500D01*
G01*
X71375500Y-176248500D01*
G75*
G02*
X71613000Y-176011000I237500J0D01*
G01*
X72113000Y-176011000D01*
G75*
G02*
X72350500Y-176248500I0J-237500D01*
G01*
G37*
G36*
G01*
X74175500Y-176248500D02*
X74175500Y-176723500D01*
G75*
G02*
X73938000Y-176961000I-237500J0D01*
G01*
X73438000Y-176961000D01*
G75*
G02*
X73200500Y-176723500I0J237500D01*
G01*
X73200500Y-176248500D01*
G75*
G02*
X73438000Y-176011000I237500J0D01*
G01*
X73938000Y-176011000D01*
G75*
G02*
X74175500Y-176248500I0J-237500D01*
G01*
G37*
%TD*%
%TO.C,R63*%
G36*
G01*
X82053500Y-180783000D02*
X81578500Y-180783000D01*
G75*
G02*
X81341000Y-180545500I0J237500D01*
G01*
X81341000Y-180045500D01*
G75*
G02*
X81578500Y-179808000I237500J0D01*
G01*
X82053500Y-179808000D01*
G75*
G02*
X82291000Y-180045500I0J-237500D01*
G01*
X82291000Y-180545500D01*
G75*
G02*
X82053500Y-180783000I-237500J0D01*
G01*
G37*
G36*
G01*
X82053500Y-182608000D02*
X81578500Y-182608000D01*
G75*
G02*
X81341000Y-182370500I0J237500D01*
G01*
X81341000Y-181870500D01*
G75*
G02*
X81578500Y-181633000I237500J0D01*
G01*
X82053500Y-181633000D01*
G75*
G02*
X82291000Y-181870500I0J-237500D01*
G01*
X82291000Y-182370500D01*
G75*
G02*
X82053500Y-182608000I-237500J0D01*
G01*
G37*
%TD*%
%TO.C,R62*%
G36*
G01*
X72350500Y-178026500D02*
X72350500Y-178501500D01*
G75*
G02*
X72113000Y-178739000I-237500J0D01*
G01*
X71613000Y-178739000D01*
G75*
G02*
X71375500Y-178501500I0J237500D01*
G01*
X71375500Y-178026500D01*
G75*
G02*
X71613000Y-177789000I237500J0D01*
G01*
X72113000Y-177789000D01*
G75*
G02*
X72350500Y-178026500I0J-237500D01*
G01*
G37*
G36*
G01*
X74175500Y-178026500D02*
X74175500Y-178501500D01*
G75*
G02*
X73938000Y-178739000I-237500J0D01*
G01*
X73438000Y-178739000D01*
G75*
G02*
X73200500Y-178501500I0J237500D01*
G01*
X73200500Y-178026500D01*
G75*
G02*
X73438000Y-177789000I237500J0D01*
G01*
X73938000Y-177789000D01*
G75*
G02*
X74175500Y-178026500I0J-237500D01*
G01*
G37*
%TD*%
%TO.C,R59*%
G36*
G01*
X102660500Y-156233000D02*
X103135500Y-156233000D01*
G75*
G02*
X103373000Y-156470500I0J-237500D01*
G01*
X103373000Y-156970500D01*
G75*
G02*
X103135500Y-157208000I-237500J0D01*
G01*
X102660500Y-157208000D01*
G75*
G02*
X102423000Y-156970500I0J237500D01*
G01*
X102423000Y-156470500D01*
G75*
G02*
X102660500Y-156233000I237500J0D01*
G01*
G37*
G36*
G01*
X102660500Y-154408000D02*
X103135500Y-154408000D01*
G75*
G02*
X103373000Y-154645500I0J-237500D01*
G01*
X103373000Y-155145500D01*
G75*
G02*
X103135500Y-155383000I-237500J0D01*
G01*
X102660500Y-155383000D01*
G75*
G02*
X102423000Y-155145500I0J237500D01*
G01*
X102423000Y-154645500D01*
G75*
G02*
X102660500Y-154408000I237500J0D01*
G01*
G37*
%TD*%
%TO.C,R58*%
G36*
G01*
X93733500Y-162278500D02*
X93733500Y-162753500D01*
G75*
G02*
X93496000Y-162991000I-237500J0D01*
G01*
X92996000Y-162991000D01*
G75*
G02*
X92758500Y-162753500I0J237500D01*
G01*
X92758500Y-162278500D01*
G75*
G02*
X92996000Y-162041000I237500J0D01*
G01*
X93496000Y-162041000D01*
G75*
G02*
X93733500Y-162278500I0J-237500D01*
G01*
G37*
G36*
G01*
X95558500Y-162278500D02*
X95558500Y-162753500D01*
G75*
G02*
X95321000Y-162991000I-237500J0D01*
G01*
X94821000Y-162991000D01*
G75*
G02*
X94583500Y-162753500I0J237500D01*
G01*
X94583500Y-162278500D01*
G75*
G02*
X94821000Y-162041000I237500J0D01*
G01*
X95321000Y-162041000D01*
G75*
G02*
X95558500Y-162278500I0J-237500D01*
G01*
G37*
%TD*%
%TO.C,R55*%
G36*
G01*
X100374500Y-156233000D02*
X100849500Y-156233000D01*
G75*
G02*
X101087000Y-156470500I0J-237500D01*
G01*
X101087000Y-156970500D01*
G75*
G02*
X100849500Y-157208000I-237500J0D01*
G01*
X100374500Y-157208000D01*
G75*
G02*
X100137000Y-156970500I0J237500D01*
G01*
X100137000Y-156470500D01*
G75*
G02*
X100374500Y-156233000I237500J0D01*
G01*
G37*
G36*
G01*
X100374500Y-154408000D02*
X100849500Y-154408000D01*
G75*
G02*
X101087000Y-154645500I0J-237500D01*
G01*
X101087000Y-155145500D01*
G75*
G02*
X100849500Y-155383000I-237500J0D01*
G01*
X100374500Y-155383000D01*
G75*
G02*
X100137000Y-155145500I0J237500D01*
G01*
X100137000Y-154645500D01*
G75*
G02*
X100374500Y-154408000I237500J0D01*
G01*
G37*
%TD*%
%TO.C,R54*%
G36*
G01*
X93733500Y-160500500D02*
X93733500Y-160975500D01*
G75*
G02*
X93496000Y-161213000I-237500J0D01*
G01*
X92996000Y-161213000D01*
G75*
G02*
X92758500Y-160975500I0J237500D01*
G01*
X92758500Y-160500500D01*
G75*
G02*
X92996000Y-160263000I237500J0D01*
G01*
X93496000Y-160263000D01*
G75*
G02*
X93733500Y-160500500I0J-237500D01*
G01*
G37*
G36*
G01*
X95558500Y-160500500D02*
X95558500Y-160975500D01*
G75*
G02*
X95321000Y-161213000I-237500J0D01*
G01*
X94821000Y-161213000D01*
G75*
G02*
X94583500Y-160975500I0J237500D01*
G01*
X94583500Y-160500500D01*
G75*
G02*
X94821000Y-160263000I237500J0D01*
G01*
X95321000Y-160263000D01*
G75*
G02*
X95558500Y-160500500I0J-237500D01*
G01*
G37*
%TD*%
%TO.C,R51*%
G36*
G01*
X103135500Y-180783000D02*
X102660500Y-180783000D01*
G75*
G02*
X102423000Y-180545500I0J237500D01*
G01*
X102423000Y-180045500D01*
G75*
G02*
X102660500Y-179808000I237500J0D01*
G01*
X103135500Y-179808000D01*
G75*
G02*
X103373000Y-180045500I0J-237500D01*
G01*
X103373000Y-180545500D01*
G75*
G02*
X103135500Y-180783000I-237500J0D01*
G01*
G37*
G36*
G01*
X103135500Y-182608000D02*
X102660500Y-182608000D01*
G75*
G02*
X102423000Y-182370500I0J237500D01*
G01*
X102423000Y-181870500D01*
G75*
G02*
X102660500Y-181633000I237500J0D01*
G01*
X103135500Y-181633000D01*
G75*
G02*
X103373000Y-181870500I0J-237500D01*
G01*
X103373000Y-182370500D01*
G75*
G02*
X103135500Y-182608000I-237500J0D01*
G01*
G37*
%TD*%
%TO.C,R50*%
G36*
G01*
X93733500Y-176248500D02*
X93733500Y-176723500D01*
G75*
G02*
X93496000Y-176961000I-237500J0D01*
G01*
X92996000Y-176961000D01*
G75*
G02*
X92758500Y-176723500I0J237500D01*
G01*
X92758500Y-176248500D01*
G75*
G02*
X92996000Y-176011000I237500J0D01*
G01*
X93496000Y-176011000D01*
G75*
G02*
X93733500Y-176248500I0J-237500D01*
G01*
G37*
G36*
G01*
X95558500Y-176248500D02*
X95558500Y-176723500D01*
G75*
G02*
X95321000Y-176961000I-237500J0D01*
G01*
X94821000Y-176961000D01*
G75*
G02*
X94583500Y-176723500I0J237500D01*
G01*
X94583500Y-176248500D01*
G75*
G02*
X94821000Y-176011000I237500J0D01*
G01*
X95321000Y-176011000D01*
G75*
G02*
X95558500Y-176248500I0J-237500D01*
G01*
G37*
%TD*%
%TO.C,R47*%
G36*
G01*
X98563500Y-180783000D02*
X98088500Y-180783000D01*
G75*
G02*
X97851000Y-180545500I0J237500D01*
G01*
X97851000Y-180045500D01*
G75*
G02*
X98088500Y-179808000I237500J0D01*
G01*
X98563500Y-179808000D01*
G75*
G02*
X98801000Y-180045500I0J-237500D01*
G01*
X98801000Y-180545500D01*
G75*
G02*
X98563500Y-180783000I-237500J0D01*
G01*
G37*
G36*
G01*
X98563500Y-182608000D02*
X98088500Y-182608000D01*
G75*
G02*
X97851000Y-182370500I0J237500D01*
G01*
X97851000Y-181870500D01*
G75*
G02*
X98088500Y-181633000I237500J0D01*
G01*
X98563500Y-181633000D01*
G75*
G02*
X98801000Y-181870500I0J-237500D01*
G01*
X98801000Y-182370500D01*
G75*
G02*
X98563500Y-182608000I-237500J0D01*
G01*
G37*
%TD*%
%TO.C,R46*%
G36*
G01*
X93733500Y-174470500D02*
X93733500Y-174945500D01*
G75*
G02*
X93496000Y-175183000I-237500J0D01*
G01*
X92996000Y-175183000D01*
G75*
G02*
X92758500Y-174945500I0J237500D01*
G01*
X92758500Y-174470500D01*
G75*
G02*
X92996000Y-174233000I237500J0D01*
G01*
X93496000Y-174233000D01*
G75*
G02*
X93733500Y-174470500I0J-237500D01*
G01*
G37*
G36*
G01*
X95558500Y-174470500D02*
X95558500Y-174945500D01*
G75*
G02*
X95321000Y-175183000I-237500J0D01*
G01*
X94821000Y-175183000D01*
G75*
G02*
X94583500Y-174945500I0J237500D01*
G01*
X94583500Y-174470500D01*
G75*
G02*
X94821000Y-174233000I237500J0D01*
G01*
X95321000Y-174233000D01*
G75*
G02*
X95558500Y-174470500I0J-237500D01*
G01*
G37*
%TD*%
%TO.C,R43*%
G36*
G01*
X98088500Y-156233000D02*
X98563500Y-156233000D01*
G75*
G02*
X98801000Y-156470500I0J-237500D01*
G01*
X98801000Y-156970500D01*
G75*
G02*
X98563500Y-157208000I-237500J0D01*
G01*
X98088500Y-157208000D01*
G75*
G02*
X97851000Y-156970500I0J237500D01*
G01*
X97851000Y-156470500D01*
G75*
G02*
X98088500Y-156233000I237500J0D01*
G01*
G37*
G36*
G01*
X98088500Y-154408000D02*
X98563500Y-154408000D01*
G75*
G02*
X98801000Y-154645500I0J-237500D01*
G01*
X98801000Y-155145500D01*
G75*
G02*
X98563500Y-155383000I-237500J0D01*
G01*
X98088500Y-155383000D01*
G75*
G02*
X97851000Y-155145500I0J237500D01*
G01*
X97851000Y-154645500D01*
G75*
G02*
X98088500Y-154408000I237500J0D01*
G01*
G37*
%TD*%
%TO.C,R42*%
G36*
G01*
X93733500Y-158722500D02*
X93733500Y-159197500D01*
G75*
G02*
X93496000Y-159435000I-237500J0D01*
G01*
X92996000Y-159435000D01*
G75*
G02*
X92758500Y-159197500I0J237500D01*
G01*
X92758500Y-158722500D01*
G75*
G02*
X92996000Y-158485000I237500J0D01*
G01*
X93496000Y-158485000D01*
G75*
G02*
X93733500Y-158722500I0J-237500D01*
G01*
G37*
G36*
G01*
X95558500Y-158722500D02*
X95558500Y-159197500D01*
G75*
G02*
X95321000Y-159435000I-237500J0D01*
G01*
X94821000Y-159435000D01*
G75*
G02*
X94583500Y-159197500I0J237500D01*
G01*
X94583500Y-158722500D01*
G75*
G02*
X94821000Y-158485000I237500J0D01*
G01*
X95321000Y-158485000D01*
G75*
G02*
X95558500Y-158722500I0J-237500D01*
G01*
G37*
%TD*%
%TO.C,R39*%
G36*
G01*
X100849500Y-180783000D02*
X100374500Y-180783000D01*
G75*
G02*
X100137000Y-180545500I0J237500D01*
G01*
X100137000Y-180045500D01*
G75*
G02*
X100374500Y-179808000I237500J0D01*
G01*
X100849500Y-179808000D01*
G75*
G02*
X101087000Y-180045500I0J-237500D01*
G01*
X101087000Y-180545500D01*
G75*
G02*
X100849500Y-180783000I-237500J0D01*
G01*
G37*
G36*
G01*
X100849500Y-182608000D02*
X100374500Y-182608000D01*
G75*
G02*
X100137000Y-182370500I0J237500D01*
G01*
X100137000Y-181870500D01*
G75*
G02*
X100374500Y-181633000I237500J0D01*
G01*
X100849500Y-181633000D01*
G75*
G02*
X101087000Y-181870500I0J-237500D01*
G01*
X101087000Y-182370500D01*
G75*
G02*
X100849500Y-182608000I-237500J0D01*
G01*
G37*
%TD*%
%TO.C,R38*%
G36*
G01*
X93733500Y-178026500D02*
X93733500Y-178501500D01*
G75*
G02*
X93496000Y-178739000I-237500J0D01*
G01*
X92996000Y-178739000D01*
G75*
G02*
X92758500Y-178501500I0J237500D01*
G01*
X92758500Y-178026500D01*
G75*
G02*
X92996000Y-177789000I237500J0D01*
G01*
X93496000Y-177789000D01*
G75*
G02*
X93733500Y-178026500I0J-237500D01*
G01*
G37*
G36*
G01*
X95558500Y-178026500D02*
X95558500Y-178501500D01*
G75*
G02*
X95321000Y-178739000I-237500J0D01*
G01*
X94821000Y-178739000D01*
G75*
G02*
X94583500Y-178501500I0J237500D01*
G01*
X94583500Y-178026500D01*
G75*
G02*
X94821000Y-177789000I237500J0D01*
G01*
X95321000Y-177789000D01*
G75*
G02*
X95558500Y-178026500I0J-237500D01*
G01*
G37*
%TD*%
%TO.C,R35*%
G36*
G01*
X123996500Y-156187000D02*
X124471500Y-156187000D01*
G75*
G02*
X124709000Y-156424500I0J-237500D01*
G01*
X124709000Y-156924500D01*
G75*
G02*
X124471500Y-157162000I-237500J0D01*
G01*
X123996500Y-157162000D01*
G75*
G02*
X123759000Y-156924500I0J237500D01*
G01*
X123759000Y-156424500D01*
G75*
G02*
X123996500Y-156187000I237500J0D01*
G01*
G37*
G36*
G01*
X123996500Y-154362000D02*
X124471500Y-154362000D01*
G75*
G02*
X124709000Y-154599500I0J-237500D01*
G01*
X124709000Y-155099500D01*
G75*
G02*
X124471500Y-155337000I-237500J0D01*
G01*
X123996500Y-155337000D01*
G75*
G02*
X123759000Y-155099500I0J237500D01*
G01*
X123759000Y-154599500D01*
G75*
G02*
X123996500Y-154362000I237500J0D01*
G01*
G37*
%TD*%
%TO.C,R34*%
G36*
G01*
X115069000Y-162278500D02*
X115069000Y-162753500D01*
G75*
G02*
X114831500Y-162991000I-237500J0D01*
G01*
X114331500Y-162991000D01*
G75*
G02*
X114094000Y-162753500I0J237500D01*
G01*
X114094000Y-162278500D01*
G75*
G02*
X114331500Y-162041000I237500J0D01*
G01*
X114831500Y-162041000D01*
G75*
G02*
X115069000Y-162278500I0J-237500D01*
G01*
G37*
G36*
G01*
X116894000Y-162278500D02*
X116894000Y-162753500D01*
G75*
G02*
X116656500Y-162991000I-237500J0D01*
G01*
X116156500Y-162991000D01*
G75*
G02*
X115919000Y-162753500I0J237500D01*
G01*
X115919000Y-162278500D01*
G75*
G02*
X116156500Y-162041000I237500J0D01*
G01*
X116656500Y-162041000D01*
G75*
G02*
X116894000Y-162278500I0J-237500D01*
G01*
G37*
%TD*%
%TO.C,R31*%
G36*
G01*
X121710500Y-156187000D02*
X122185500Y-156187000D01*
G75*
G02*
X122423000Y-156424500I0J-237500D01*
G01*
X122423000Y-156924500D01*
G75*
G02*
X122185500Y-157162000I-237500J0D01*
G01*
X121710500Y-157162000D01*
G75*
G02*
X121473000Y-156924500I0J237500D01*
G01*
X121473000Y-156424500D01*
G75*
G02*
X121710500Y-156187000I237500J0D01*
G01*
G37*
G36*
G01*
X121710500Y-154362000D02*
X122185500Y-154362000D01*
G75*
G02*
X122423000Y-154599500I0J-237500D01*
G01*
X122423000Y-155099500D01*
G75*
G02*
X122185500Y-155337000I-237500J0D01*
G01*
X121710500Y-155337000D01*
G75*
G02*
X121473000Y-155099500I0J237500D01*
G01*
X121473000Y-154599500D01*
G75*
G02*
X121710500Y-154362000I237500J0D01*
G01*
G37*
%TD*%
%TO.C,R30*%
G36*
G01*
X115069000Y-160500500D02*
X115069000Y-160975500D01*
G75*
G02*
X114831500Y-161213000I-237500J0D01*
G01*
X114331500Y-161213000D01*
G75*
G02*
X114094000Y-160975500I0J237500D01*
G01*
X114094000Y-160500500D01*
G75*
G02*
X114331500Y-160263000I237500J0D01*
G01*
X114831500Y-160263000D01*
G75*
G02*
X115069000Y-160500500I0J-237500D01*
G01*
G37*
G36*
G01*
X116894000Y-160500500D02*
X116894000Y-160975500D01*
G75*
G02*
X116656500Y-161213000I-237500J0D01*
G01*
X116156500Y-161213000D01*
G75*
G02*
X115919000Y-160975500I0J237500D01*
G01*
X115919000Y-160500500D01*
G75*
G02*
X116156500Y-160263000I237500J0D01*
G01*
X116656500Y-160263000D01*
G75*
G02*
X116894000Y-160500500I0J-237500D01*
G01*
G37*
%TD*%
%TO.C,R27*%
G36*
G01*
X119424500Y-156233000D02*
X119899500Y-156233000D01*
G75*
G02*
X120137000Y-156470500I0J-237500D01*
G01*
X120137000Y-156970500D01*
G75*
G02*
X119899500Y-157208000I-237500J0D01*
G01*
X119424500Y-157208000D01*
G75*
G02*
X119187000Y-156970500I0J237500D01*
G01*
X119187000Y-156470500D01*
G75*
G02*
X119424500Y-156233000I237500J0D01*
G01*
G37*
G36*
G01*
X119424500Y-154408000D02*
X119899500Y-154408000D01*
G75*
G02*
X120137000Y-154645500I0J-237500D01*
G01*
X120137000Y-155145500D01*
G75*
G02*
X119899500Y-155383000I-237500J0D01*
G01*
X119424500Y-155383000D01*
G75*
G02*
X119187000Y-155145500I0J237500D01*
G01*
X119187000Y-154645500D01*
G75*
G02*
X119424500Y-154408000I237500J0D01*
G01*
G37*
%TD*%
%TO.C,R26*%
G36*
G01*
X115069000Y-158722500D02*
X115069000Y-159197500D01*
G75*
G02*
X114831500Y-159435000I-237500J0D01*
G01*
X114331500Y-159435000D01*
G75*
G02*
X114094000Y-159197500I0J237500D01*
G01*
X114094000Y-158722500D01*
G75*
G02*
X114331500Y-158485000I237500J0D01*
G01*
X114831500Y-158485000D01*
G75*
G02*
X115069000Y-158722500I0J-237500D01*
G01*
G37*
G36*
G01*
X116894000Y-158722500D02*
X116894000Y-159197500D01*
G75*
G02*
X116656500Y-159435000I-237500J0D01*
G01*
X116156500Y-159435000D01*
G75*
G02*
X115919000Y-159197500I0J237500D01*
G01*
X115919000Y-158722500D01*
G75*
G02*
X116156500Y-158485000I237500J0D01*
G01*
X116656500Y-158485000D01*
G75*
G02*
X116894000Y-158722500I0J-237500D01*
G01*
G37*
%TD*%
%TO.C,R23*%
G36*
G01*
X119645500Y-180529000D02*
X119170500Y-180529000D01*
G75*
G02*
X118933000Y-180291500I0J237500D01*
G01*
X118933000Y-179791500D01*
G75*
G02*
X119170500Y-179554000I237500J0D01*
G01*
X119645500Y-179554000D01*
G75*
G02*
X119883000Y-179791500I0J-237500D01*
G01*
X119883000Y-180291500D01*
G75*
G02*
X119645500Y-180529000I-237500J0D01*
G01*
G37*
G36*
G01*
X119645500Y-182354000D02*
X119170500Y-182354000D01*
G75*
G02*
X118933000Y-182116500I0J237500D01*
G01*
X118933000Y-181616500D01*
G75*
G02*
X119170500Y-181379000I237500J0D01*
G01*
X119645500Y-181379000D01*
G75*
G02*
X119883000Y-181616500I0J-237500D01*
G01*
X119883000Y-182116500D01*
G75*
G02*
X119645500Y-182354000I-237500J0D01*
G01*
G37*
%TD*%
%TO.C,R22*%
G36*
G01*
X115069000Y-174470500D02*
X115069000Y-174945500D01*
G75*
G02*
X114831500Y-175183000I-237500J0D01*
G01*
X114331500Y-175183000D01*
G75*
G02*
X114094000Y-174945500I0J237500D01*
G01*
X114094000Y-174470500D01*
G75*
G02*
X114331500Y-174233000I237500J0D01*
G01*
X114831500Y-174233000D01*
G75*
G02*
X115069000Y-174470500I0J-237500D01*
G01*
G37*
G36*
G01*
X116894000Y-174470500D02*
X116894000Y-174945500D01*
G75*
G02*
X116656500Y-175183000I-237500J0D01*
G01*
X116156500Y-175183000D01*
G75*
G02*
X115919000Y-174945500I0J237500D01*
G01*
X115919000Y-174470500D01*
G75*
G02*
X116156500Y-174233000I237500J0D01*
G01*
X116656500Y-174233000D01*
G75*
G02*
X116894000Y-174470500I0J-237500D01*
G01*
G37*
%TD*%
%TO.C,R17*%
G36*
G01*
X124217500Y-180529000D02*
X123742500Y-180529000D01*
G75*
G02*
X123505000Y-180291500I0J237500D01*
G01*
X123505000Y-179791500D01*
G75*
G02*
X123742500Y-179554000I237500J0D01*
G01*
X124217500Y-179554000D01*
G75*
G02*
X124455000Y-179791500I0J-237500D01*
G01*
X124455000Y-180291500D01*
G75*
G02*
X124217500Y-180529000I-237500J0D01*
G01*
G37*
G36*
G01*
X124217500Y-182354000D02*
X123742500Y-182354000D01*
G75*
G02*
X123505000Y-182116500I0J237500D01*
G01*
X123505000Y-181616500D01*
G75*
G02*
X123742500Y-181379000I237500J0D01*
G01*
X124217500Y-181379000D01*
G75*
G02*
X124455000Y-181616500I0J-237500D01*
G01*
X124455000Y-182116500D01*
G75*
G02*
X124217500Y-182354000I-237500J0D01*
G01*
G37*
%TD*%
%TO.C,R16*%
G36*
G01*
X115069000Y-178026500D02*
X115069000Y-178501500D01*
G75*
G02*
X114831500Y-178739000I-237500J0D01*
G01*
X114331500Y-178739000D01*
G75*
G02*
X114094000Y-178501500I0J237500D01*
G01*
X114094000Y-178026500D01*
G75*
G02*
X114331500Y-177789000I237500J0D01*
G01*
X114831500Y-177789000D01*
G75*
G02*
X115069000Y-178026500I0J-237500D01*
G01*
G37*
G36*
G01*
X116894000Y-178026500D02*
X116894000Y-178501500D01*
G75*
G02*
X116656500Y-178739000I-237500J0D01*
G01*
X116156500Y-178739000D01*
G75*
G02*
X115919000Y-178501500I0J237500D01*
G01*
X115919000Y-178026500D01*
G75*
G02*
X116156500Y-177789000I237500J0D01*
G01*
X116656500Y-177789000D01*
G75*
G02*
X116894000Y-178026500I0J-237500D01*
G01*
G37*
%TD*%
%TO.C,R2*%
G36*
G01*
X70460000Y-79420500D02*
X70460000Y-78945500D01*
G75*
G02*
X70697500Y-78708000I237500J0D01*
G01*
X71197500Y-78708000D01*
G75*
G02*
X71435000Y-78945500I0J-237500D01*
G01*
X71435000Y-79420500D01*
G75*
G02*
X71197500Y-79658000I-237500J0D01*
G01*
X70697500Y-79658000D01*
G75*
G02*
X70460000Y-79420500I0J237500D01*
G01*
G37*
G36*
G01*
X68635000Y-79420500D02*
X68635000Y-78945500D01*
G75*
G02*
X68872500Y-78708000I237500J0D01*
G01*
X69372500Y-78708000D01*
G75*
G02*
X69610000Y-78945500I0J-237500D01*
G01*
X69610000Y-79420500D01*
G75*
G02*
X69372500Y-79658000I-237500J0D01*
G01*
X68872500Y-79658000D01*
G75*
G02*
X68635000Y-79420500I0J237500D01*
G01*
G37*
%TD*%
%TO.C,R1*%
G36*
G01*
X74810000Y-79420500D02*
X74810000Y-78945500D01*
G75*
G02*
X75047500Y-78708000I237500J0D01*
G01*
X75547500Y-78708000D01*
G75*
G02*
X75785000Y-78945500I0J-237500D01*
G01*
X75785000Y-79420500D01*
G75*
G02*
X75547500Y-79658000I-237500J0D01*
G01*
X75047500Y-79658000D01*
G75*
G02*
X74810000Y-79420500I0J237500D01*
G01*
G37*
G36*
G01*
X72985000Y-79420500D02*
X72985000Y-78945500D01*
G75*
G02*
X73222500Y-78708000I237500J0D01*
G01*
X73722500Y-78708000D01*
G75*
G02*
X73960000Y-78945500I0J-237500D01*
G01*
X73960000Y-79420500D01*
G75*
G02*
X73722500Y-79658000I-237500J0D01*
G01*
X73222500Y-79658000D01*
G75*
G02*
X72985000Y-79420500I0J237500D01*
G01*
G37*
%TD*%
D16*
%TO.C,J11*%
X99460000Y-219570000D03*
X40540000Y-219570000D03*
X40540000Y-199540000D03*
X99460000Y-203600000D03*
X41205000Y-205850000D03*
G36*
G01*
X94640000Y-199915000D02*
X94640000Y-199165000D01*
G75*
G02*
X95015000Y-198790000I375000J0D01*
G01*
X95765000Y-198790000D01*
G75*
G02*
X96140000Y-199165000I0J-375000D01*
G01*
X96140000Y-199915000D01*
G75*
G02*
X95765000Y-200290000I-375000J0D01*
G01*
X95015000Y-200290000D01*
G75*
G02*
X94640000Y-199915000I0J375000D01*
G01*
G37*
D17*
X94130000Y-202080000D03*
X92850000Y-199540000D03*
X91590000Y-202080000D03*
X90310000Y-199540000D03*
X89050000Y-202080000D03*
X87770000Y-199540000D03*
X86510000Y-202080000D03*
X47140000Y-202080000D03*
X44600000Y-202080000D03*
X48400000Y-199540000D03*
G36*
G01*
X52730000Y-199915000D02*
X52730000Y-199165000D01*
G75*
G02*
X53105000Y-198790000I375000J0D01*
G01*
X53855000Y-198790000D01*
G75*
G02*
X54230000Y-199165000I0J-375000D01*
G01*
X54230000Y-199915000D01*
G75*
G02*
X53855000Y-200290000I-375000J0D01*
G01*
X53105000Y-200290000D01*
G75*
G02*
X52730000Y-199915000I0J375000D01*
G01*
G37*
X45860000Y-199540000D03*
X49680000Y-202080000D03*
X50940000Y-199540000D03*
X52220000Y-202080000D03*
X59830000Y-199540000D03*
G36*
G01*
X66700000Y-199915000D02*
X66700000Y-199165000D01*
G75*
G02*
X67075000Y-198790000I375000J0D01*
G01*
X67825000Y-198790000D01*
G75*
G02*
X68200000Y-199165000I0J-375000D01*
G01*
X68200000Y-199915000D01*
G75*
G02*
X67825000Y-200290000I-375000J0D01*
G01*
X67075000Y-200290000D01*
G75*
G02*
X66700000Y-199915000I0J375000D01*
G01*
G37*
X62370000Y-199540000D03*
X58570000Y-202080000D03*
X61110000Y-202080000D03*
X66190000Y-202080000D03*
X64910000Y-199540000D03*
X63650000Y-202080000D03*
X73800000Y-199540000D03*
G36*
G01*
X80670000Y-199915000D02*
X80670000Y-199165000D01*
G75*
G02*
X81045000Y-198790000I375000J0D01*
G01*
X81795000Y-198790000D01*
G75*
G02*
X82170000Y-199165000I0J-375000D01*
G01*
X82170000Y-199915000D01*
G75*
G02*
X81795000Y-200290000I-375000J0D01*
G01*
X81045000Y-200290000D01*
G75*
G02*
X80670000Y-199915000I0J375000D01*
G01*
G37*
X76340000Y-199540000D03*
X72540000Y-202080000D03*
X75080000Y-202080000D03*
X80160000Y-202080000D03*
X78880000Y-199540000D03*
X77620000Y-202080000D03*
X77620000Y-208650000D03*
X78880000Y-206110000D03*
X80160000Y-208650000D03*
X75080000Y-208650000D03*
G36*
G01*
X71790000Y-209149500D02*
X71790000Y-208150500D01*
G75*
G02*
X72040500Y-207900000I250500J0D01*
G01*
X73039500Y-207900000D01*
G75*
G02*
X73290000Y-208150500I0J-250500D01*
G01*
X73290000Y-209149500D01*
G75*
G02*
X73039500Y-209400000I-250500J0D01*
G01*
X72040500Y-209400000D01*
G75*
G02*
X71790000Y-209149500I0J250500D01*
G01*
G37*
X76340000Y-206110000D03*
X81420000Y-206110000D03*
X73800000Y-206110000D03*
X63650000Y-208650000D03*
X64910000Y-206110000D03*
X66190000Y-208650000D03*
X61110000Y-208650000D03*
G36*
G01*
X57820000Y-209149500D02*
X57820000Y-208150500D01*
G75*
G02*
X58070500Y-207900000I250500J0D01*
G01*
X59069500Y-207900000D01*
G75*
G02*
X59320000Y-208150500I0J-250500D01*
G01*
X59320000Y-209149500D01*
G75*
G02*
X59069500Y-209400000I-250500J0D01*
G01*
X58070500Y-209400000D01*
G75*
G02*
X57820000Y-209149500I0J250500D01*
G01*
G37*
X62370000Y-206110000D03*
X67450000Y-206110000D03*
X59830000Y-206110000D03*
X45860000Y-206110000D03*
X53480000Y-206110000D03*
X48400000Y-206110000D03*
G36*
G01*
X43850000Y-209149500D02*
X43850000Y-208150500D01*
G75*
G02*
X44100500Y-207900000I250500J0D01*
G01*
X45099500Y-207900000D01*
G75*
G02*
X45350000Y-208150500I0J-250500D01*
G01*
X45350000Y-209149500D01*
G75*
G02*
X45099500Y-209400000I-250500J0D01*
G01*
X44100500Y-209400000D01*
G75*
G02*
X43850000Y-209149500I0J250500D01*
G01*
G37*
X47140000Y-208650000D03*
X52220000Y-208650000D03*
X50940000Y-206110000D03*
X49680000Y-208650000D03*
G36*
G01*
X85760000Y-209149500D02*
X85760000Y-208150500D01*
G75*
G02*
X86010500Y-207900000I250500J0D01*
G01*
X87009500Y-207900000D01*
G75*
G02*
X87260000Y-208150500I0J-250500D01*
G01*
X87260000Y-209149500D01*
G75*
G02*
X87009500Y-209400000I-250500J0D01*
G01*
X86010500Y-209400000D01*
G75*
G02*
X85760000Y-209149500I0J250500D01*
G01*
G37*
X87770000Y-206110000D03*
X89050000Y-208650000D03*
X90310000Y-206110000D03*
X91590000Y-208650000D03*
X92850000Y-206110000D03*
X94130000Y-208650000D03*
X95390000Y-206110000D03*
D16*
X98795000Y-209150000D03*
D18*
X43330000Y-215000000D03*
X96670000Y-215000000D03*
%TD*%
D28*
%TO.C,J1*%
X112456000Y-54058000D03*
X117456000Y-54058000D03*
D29*
X122456000Y-54058000D03*
%TD*%
%TO.C,C20*%
G36*
G01*
X85797500Y-176723500D02*
X85797500Y-176248500D01*
G75*
G02*
X86035000Y-176011000I237500J0D01*
G01*
X86635000Y-176011000D01*
G75*
G02*
X86872500Y-176248500I0J-237500D01*
G01*
X86872500Y-176723500D01*
G75*
G02*
X86635000Y-176961000I-237500J0D01*
G01*
X86035000Y-176961000D01*
G75*
G02*
X85797500Y-176723500I0J237500D01*
G01*
G37*
G36*
G01*
X84072500Y-176723500D02*
X84072500Y-176248500D01*
G75*
G02*
X84310000Y-176011000I237500J0D01*
G01*
X84910000Y-176011000D01*
G75*
G02*
X85147500Y-176248500I0J-237500D01*
G01*
X85147500Y-176723500D01*
G75*
G02*
X84910000Y-176961000I-237500J0D01*
G01*
X84310000Y-176961000D01*
G75*
G02*
X84072500Y-176723500I0J237500D01*
G01*
G37*
%TD*%
%TO.C,C18*%
G36*
G01*
X85797500Y-178501500D02*
X85797500Y-178026500D01*
G75*
G02*
X86035000Y-177789000I237500J0D01*
G01*
X86635000Y-177789000D01*
G75*
G02*
X86872500Y-178026500I0J-237500D01*
G01*
X86872500Y-178501500D01*
G75*
G02*
X86635000Y-178739000I-237500J0D01*
G01*
X86035000Y-178739000D01*
G75*
G02*
X85797500Y-178501500I0J237500D01*
G01*
G37*
G36*
G01*
X84072500Y-178501500D02*
X84072500Y-178026500D01*
G75*
G02*
X84310000Y-177789000I237500J0D01*
G01*
X84910000Y-177789000D01*
G75*
G02*
X85147500Y-178026500I0J-237500D01*
G01*
X85147500Y-178501500D01*
G75*
G02*
X84910000Y-178739000I-237500J0D01*
G01*
X84310000Y-178739000D01*
G75*
G02*
X84072500Y-178501500I0J237500D01*
G01*
G37*
%TD*%
%TO.C,C17*%
G36*
G01*
X86216500Y-168451000D02*
X85741500Y-168451000D01*
G75*
G02*
X85504000Y-168213500I0J237500D01*
G01*
X85504000Y-167613500D01*
G75*
G02*
X85741500Y-167376000I237500J0D01*
G01*
X86216500Y-167376000D01*
G75*
G02*
X86454000Y-167613500I0J-237500D01*
G01*
X86454000Y-168213500D01*
G75*
G02*
X86216500Y-168451000I-237500J0D01*
G01*
G37*
G36*
G01*
X86216500Y-170176000D02*
X85741500Y-170176000D01*
G75*
G02*
X85504000Y-169938500I0J237500D01*
G01*
X85504000Y-169338500D01*
G75*
G02*
X85741500Y-169101000I237500J0D01*
G01*
X86216500Y-169101000D01*
G75*
G02*
X86454000Y-169338500I0J-237500D01*
G01*
X86454000Y-169938500D01*
G75*
G02*
X86216500Y-170176000I-237500J0D01*
G01*
G37*
%TD*%
%TO.C,C16*%
G36*
G01*
X107187000Y-162753500D02*
X107187000Y-162278500D01*
G75*
G02*
X107424500Y-162041000I237500J0D01*
G01*
X108024500Y-162041000D01*
G75*
G02*
X108262000Y-162278500I0J-237500D01*
G01*
X108262000Y-162753500D01*
G75*
G02*
X108024500Y-162991000I-237500J0D01*
G01*
X107424500Y-162991000D01*
G75*
G02*
X107187000Y-162753500I0J237500D01*
G01*
G37*
G36*
G01*
X105462000Y-162753500D02*
X105462000Y-162278500D01*
G75*
G02*
X105699500Y-162041000I237500J0D01*
G01*
X106299500Y-162041000D01*
G75*
G02*
X106537000Y-162278500I0J-237500D01*
G01*
X106537000Y-162753500D01*
G75*
G02*
X106299500Y-162991000I-237500J0D01*
G01*
X105699500Y-162991000D01*
G75*
G02*
X105462000Y-162753500I0J237500D01*
G01*
G37*
%TD*%
%TO.C,C15*%
G36*
G01*
X107187000Y-160975500D02*
X107187000Y-160500500D01*
G75*
G02*
X107424500Y-160263000I237500J0D01*
G01*
X108024500Y-160263000D01*
G75*
G02*
X108262000Y-160500500I0J-237500D01*
G01*
X108262000Y-160975500D01*
G75*
G02*
X108024500Y-161213000I-237500J0D01*
G01*
X107424500Y-161213000D01*
G75*
G02*
X107187000Y-160975500I0J237500D01*
G01*
G37*
G36*
G01*
X105462000Y-160975500D02*
X105462000Y-160500500D01*
G75*
G02*
X105699500Y-160263000I237500J0D01*
G01*
X106299500Y-160263000D01*
G75*
G02*
X106537000Y-160500500I0J-237500D01*
G01*
X106537000Y-160975500D01*
G75*
G02*
X106299500Y-161213000I-237500J0D01*
G01*
X105699500Y-161213000D01*
G75*
G02*
X105462000Y-160975500I0J237500D01*
G01*
G37*
%TD*%
%TO.C,C14*%
G36*
G01*
X107133000Y-176723500D02*
X107133000Y-176248500D01*
G75*
G02*
X107370500Y-176011000I237500J0D01*
G01*
X107970500Y-176011000D01*
G75*
G02*
X108208000Y-176248500I0J-237500D01*
G01*
X108208000Y-176723500D01*
G75*
G02*
X107970500Y-176961000I-237500J0D01*
G01*
X107370500Y-176961000D01*
G75*
G02*
X107133000Y-176723500I0J237500D01*
G01*
G37*
G36*
G01*
X105408000Y-176723500D02*
X105408000Y-176248500D01*
G75*
G02*
X105645500Y-176011000I237500J0D01*
G01*
X106245500Y-176011000D01*
G75*
G02*
X106483000Y-176248500I0J-237500D01*
G01*
X106483000Y-176723500D01*
G75*
G02*
X106245500Y-176961000I-237500J0D01*
G01*
X105645500Y-176961000D01*
G75*
G02*
X105408000Y-176723500I0J237500D01*
G01*
G37*
%TD*%
%TO.C,C13*%
G36*
G01*
X107133000Y-174945500D02*
X107133000Y-174470500D01*
G75*
G02*
X107370500Y-174233000I237500J0D01*
G01*
X107970500Y-174233000D01*
G75*
G02*
X108208000Y-174470500I0J-237500D01*
G01*
X108208000Y-174945500D01*
G75*
G02*
X107970500Y-175183000I-237500J0D01*
G01*
X107370500Y-175183000D01*
G75*
G02*
X107133000Y-174945500I0J237500D01*
G01*
G37*
G36*
G01*
X105408000Y-174945500D02*
X105408000Y-174470500D01*
G75*
G02*
X105645500Y-174233000I237500J0D01*
G01*
X106245500Y-174233000D01*
G75*
G02*
X106483000Y-174470500I0J-237500D01*
G01*
X106483000Y-174945500D01*
G75*
G02*
X106245500Y-175183000I-237500J0D01*
G01*
X105645500Y-175183000D01*
G75*
G02*
X105408000Y-174945500I0J237500D01*
G01*
G37*
%TD*%
%TO.C,C12*%
G36*
G01*
X107187000Y-159197500D02*
X107187000Y-158722500D01*
G75*
G02*
X107424500Y-158485000I237500J0D01*
G01*
X108024500Y-158485000D01*
G75*
G02*
X108262000Y-158722500I0J-237500D01*
G01*
X108262000Y-159197500D01*
G75*
G02*
X108024500Y-159435000I-237500J0D01*
G01*
X107424500Y-159435000D01*
G75*
G02*
X107187000Y-159197500I0J237500D01*
G01*
G37*
G36*
G01*
X105462000Y-159197500D02*
X105462000Y-158722500D01*
G75*
G02*
X105699500Y-158485000I237500J0D01*
G01*
X106299500Y-158485000D01*
G75*
G02*
X106537000Y-158722500I0J-237500D01*
G01*
X106537000Y-159197500D01*
G75*
G02*
X106299500Y-159435000I-237500J0D01*
G01*
X105699500Y-159435000D01*
G75*
G02*
X105462000Y-159197500I0J237500D01*
G01*
G37*
%TD*%
%TO.C,C11*%
G36*
G01*
X107133000Y-178501500D02*
X107133000Y-178026500D01*
G75*
G02*
X107370500Y-177789000I237500J0D01*
G01*
X107970500Y-177789000D01*
G75*
G02*
X108208000Y-178026500I0J-237500D01*
G01*
X108208000Y-178501500D01*
G75*
G02*
X107970500Y-178739000I-237500J0D01*
G01*
X107370500Y-178739000D01*
G75*
G02*
X107133000Y-178501500I0J237500D01*
G01*
G37*
G36*
G01*
X105408000Y-178501500D02*
X105408000Y-178026500D01*
G75*
G02*
X105645500Y-177789000I237500J0D01*
G01*
X106245500Y-177789000D01*
G75*
G02*
X106483000Y-178026500I0J-237500D01*
G01*
X106483000Y-178501500D01*
G75*
G02*
X106245500Y-178739000I-237500J0D01*
G01*
X105645500Y-178739000D01*
G75*
G02*
X105408000Y-178501500I0J237500D01*
G01*
G37*
%TD*%
%TO.C,C10*%
G36*
G01*
X107679500Y-168451000D02*
X107204500Y-168451000D01*
G75*
G02*
X106967000Y-168213500I0J237500D01*
G01*
X106967000Y-167613500D01*
G75*
G02*
X107204500Y-167376000I237500J0D01*
G01*
X107679500Y-167376000D01*
G75*
G02*
X107917000Y-167613500I0J-237500D01*
G01*
X107917000Y-168213500D01*
G75*
G02*
X107679500Y-168451000I-237500J0D01*
G01*
G37*
G36*
G01*
X107679500Y-170176000D02*
X107204500Y-170176000D01*
G75*
G02*
X106967000Y-169938500I0J237500D01*
G01*
X106967000Y-169338500D01*
G75*
G02*
X107204500Y-169101000I237500J0D01*
G01*
X107679500Y-169101000D01*
G75*
G02*
X107917000Y-169338500I0J-237500D01*
G01*
X107917000Y-169938500D01*
G75*
G02*
X107679500Y-170176000I-237500J0D01*
G01*
G37*
%TD*%
%TO.C,C9*%
G36*
G01*
X128269000Y-162753500D02*
X128269000Y-162278500D01*
G75*
G02*
X128506500Y-162041000I237500J0D01*
G01*
X129106500Y-162041000D01*
G75*
G02*
X129344000Y-162278500I0J-237500D01*
G01*
X129344000Y-162753500D01*
G75*
G02*
X129106500Y-162991000I-237500J0D01*
G01*
X128506500Y-162991000D01*
G75*
G02*
X128269000Y-162753500I0J237500D01*
G01*
G37*
G36*
G01*
X126544000Y-162753500D02*
X126544000Y-162278500D01*
G75*
G02*
X126781500Y-162041000I237500J0D01*
G01*
X127381500Y-162041000D01*
G75*
G02*
X127619000Y-162278500I0J-237500D01*
G01*
X127619000Y-162753500D01*
G75*
G02*
X127381500Y-162991000I-237500J0D01*
G01*
X126781500Y-162991000D01*
G75*
G02*
X126544000Y-162753500I0J237500D01*
G01*
G37*
%TD*%
%TO.C,C8*%
G36*
G01*
X128269000Y-160975500D02*
X128269000Y-160500500D01*
G75*
G02*
X128506500Y-160263000I237500J0D01*
G01*
X129106500Y-160263000D01*
G75*
G02*
X129344000Y-160500500I0J-237500D01*
G01*
X129344000Y-160975500D01*
G75*
G02*
X129106500Y-161213000I-237500J0D01*
G01*
X128506500Y-161213000D01*
G75*
G02*
X128269000Y-160975500I0J237500D01*
G01*
G37*
G36*
G01*
X126544000Y-160975500D02*
X126544000Y-160500500D01*
G75*
G02*
X126781500Y-160263000I237500J0D01*
G01*
X127381500Y-160263000D01*
G75*
G02*
X127619000Y-160500500I0J-237500D01*
G01*
X127619000Y-160975500D01*
G75*
G02*
X127381500Y-161213000I-237500J0D01*
G01*
X126781500Y-161213000D01*
G75*
G02*
X126544000Y-160975500I0J237500D01*
G01*
G37*
%TD*%
%TO.C,C7*%
G36*
G01*
X128269000Y-159197500D02*
X128269000Y-158722500D01*
G75*
G02*
X128506500Y-158485000I237500J0D01*
G01*
X129106500Y-158485000D01*
G75*
G02*
X129344000Y-158722500I0J-237500D01*
G01*
X129344000Y-159197500D01*
G75*
G02*
X129106500Y-159435000I-237500J0D01*
G01*
X128506500Y-159435000D01*
G75*
G02*
X128269000Y-159197500I0J237500D01*
G01*
G37*
G36*
G01*
X126544000Y-159197500D02*
X126544000Y-158722500D01*
G75*
G02*
X126781500Y-158485000I237500J0D01*
G01*
X127381500Y-158485000D01*
G75*
G02*
X127619000Y-158722500I0J-237500D01*
G01*
X127619000Y-159197500D01*
G75*
G02*
X127381500Y-159435000I-237500J0D01*
G01*
X126781500Y-159435000D01*
G75*
G02*
X126544000Y-159197500I0J237500D01*
G01*
G37*
%TD*%
%TO.C,C6*%
G36*
G01*
X128215000Y-178501500D02*
X128215000Y-178026500D01*
G75*
G02*
X128452500Y-177789000I237500J0D01*
G01*
X129052500Y-177789000D01*
G75*
G02*
X129290000Y-178026500I0J-237500D01*
G01*
X129290000Y-178501500D01*
G75*
G02*
X129052500Y-178739000I-237500J0D01*
G01*
X128452500Y-178739000D01*
G75*
G02*
X128215000Y-178501500I0J237500D01*
G01*
G37*
G36*
G01*
X126490000Y-178501500D02*
X126490000Y-178026500D01*
G75*
G02*
X126727500Y-177789000I237500J0D01*
G01*
X127327500Y-177789000D01*
G75*
G02*
X127565000Y-178026500I0J-237500D01*
G01*
X127565000Y-178501500D01*
G75*
G02*
X127327500Y-178739000I-237500J0D01*
G01*
X126727500Y-178739000D01*
G75*
G02*
X126490000Y-178501500I0J237500D01*
G01*
G37*
%TD*%
%TO.C,C5*%
G36*
G01*
X128761500Y-168451000D02*
X128286500Y-168451000D01*
G75*
G02*
X128049000Y-168213500I0J237500D01*
G01*
X128049000Y-167613500D01*
G75*
G02*
X128286500Y-167376000I237500J0D01*
G01*
X128761500Y-167376000D01*
G75*
G02*
X128999000Y-167613500I0J-237500D01*
G01*
X128999000Y-168213500D01*
G75*
G02*
X128761500Y-168451000I-237500J0D01*
G01*
G37*
G36*
G01*
X128761500Y-170176000D02*
X128286500Y-170176000D01*
G75*
G02*
X128049000Y-169938500I0J237500D01*
G01*
X128049000Y-169338500D01*
G75*
G02*
X128286500Y-169101000I237500J0D01*
G01*
X128761500Y-169101000D01*
G75*
G02*
X128999000Y-169338500I0J-237500D01*
G01*
X128999000Y-169938500D01*
G75*
G02*
X128761500Y-170176000I-237500J0D01*
G01*
G37*
%TD*%
%TO.C,C3*%
G36*
G01*
X128215000Y-174945500D02*
X128215000Y-174470500D01*
G75*
G02*
X128452500Y-174233000I237500J0D01*
G01*
X129052500Y-174233000D01*
G75*
G02*
X129290000Y-174470500I0J-237500D01*
G01*
X129290000Y-174945500D01*
G75*
G02*
X129052500Y-175183000I-237500J0D01*
G01*
X128452500Y-175183000D01*
G75*
G02*
X128215000Y-174945500I0J237500D01*
G01*
G37*
G36*
G01*
X126490000Y-174945500D02*
X126490000Y-174470500D01*
G75*
G02*
X126727500Y-174233000I237500J0D01*
G01*
X127327500Y-174233000D01*
G75*
G02*
X127565000Y-174470500I0J-237500D01*
G01*
X127565000Y-174945500D01*
G75*
G02*
X127327500Y-175183000I-237500J0D01*
G01*
X126727500Y-175183000D01*
G75*
G02*
X126490000Y-174945500I0J237500D01*
G01*
G37*
%TD*%
%TO.C,C2*%
G36*
G01*
X128215000Y-176723500D02*
X128215000Y-176248500D01*
G75*
G02*
X128452500Y-176011000I237500J0D01*
G01*
X129052500Y-176011000D01*
G75*
G02*
X129290000Y-176248500I0J-237500D01*
G01*
X129290000Y-176723500D01*
G75*
G02*
X129052500Y-176961000I-237500J0D01*
G01*
X128452500Y-176961000D01*
G75*
G02*
X128215000Y-176723500I0J237500D01*
G01*
G37*
G36*
G01*
X126490000Y-176723500D02*
X126490000Y-176248500D01*
G75*
G02*
X126727500Y-176011000I237500J0D01*
G01*
X127327500Y-176011000D01*
G75*
G02*
X127565000Y-176248500I0J-237500D01*
G01*
X127565000Y-176723500D01*
G75*
G02*
X127327500Y-176961000I-237500J0D01*
G01*
X126727500Y-176961000D01*
G75*
G02*
X126490000Y-176723500I0J237500D01*
G01*
G37*
%TD*%
D24*
%TO.C,U1*%
X34572000Y-134576000D03*
X37112000Y-134576000D03*
X39652000Y-134576000D03*
X42192000Y-134576000D03*
X44732000Y-134576000D03*
X47272000Y-134576000D03*
X49812000Y-134576000D03*
X52352000Y-134576000D03*
X54892000Y-134576000D03*
X57432000Y-134576000D03*
X59972000Y-134576000D03*
X62512000Y-134576000D03*
X65052000Y-134576000D03*
X67592000Y-134576000D03*
D25*
X34572000Y-149816000D03*
D24*
X37112000Y-149816000D03*
X39652000Y-149816000D03*
X42192000Y-149816000D03*
X44732000Y-149816000D03*
X47272000Y-149816000D03*
X49812000Y-149816000D03*
X52352000Y-149816000D03*
X54892000Y-149816000D03*
X57432000Y-149816000D03*
X59972000Y-149816000D03*
X62512000Y-149816000D03*
X65052000Y-149816000D03*
X70132000Y-134576000D03*
X72672000Y-134576000D03*
X75212000Y-134576000D03*
X77752000Y-134576000D03*
X80292000Y-134576000D03*
X82832000Y-134576000D03*
X85372000Y-134576000D03*
X87912000Y-134576000D03*
X90452000Y-134576000D03*
X92992000Y-134576000D03*
X92992000Y-149816000D03*
X90452000Y-149816000D03*
X87912000Y-149816000D03*
X85372000Y-149816000D03*
X67592000Y-149816000D03*
X70132000Y-149816000D03*
X72672000Y-149816000D03*
X82832000Y-149816000D03*
X80292000Y-149816000D03*
X77752000Y-149816000D03*
X75212000Y-149816000D03*
%TD*%
M02*
