M48
; DRILL file {KiCad (5.1.9-0-10_14)} date Thursday, August 05, 2021 at 02:32:39 PM
; FORMAT={-:-/ absolute / metric / decimal}
; #@! TF.CreationDate,2021-08-05T14:32:39+02:00
; #@! TF.GenerationSoftware,Kicad,Pcbnew,(5.1.9-0-10_14)
FMAT,2
METRIC
T1C0.400
T2C0.762
T3C0.900
T4C1.000
T5C1.040
T6C1.100
T7C1.400
T8C1.575
T9C1.600
T10C2.083
T11C3.500
T12C3.250
%
G90
G05
T1
X31.377Y-132.498
X41.0Y-97.5
X42.137Y-196.011
X42.99Y-174.111
X44.564Y-172.448
X46.474Y-174.3
X47.717Y-175.815
X48.783Y-172.319
X49.5Y-115.0
X50.0Y-125.0
X50.5Y-163.0
X50.555Y-195.779
X50.843Y-147.642
X51.247Y-93.044
X51.742Y-176.027
X51.895Y-152.034
X52.0Y-115.0
X52.0Y-125.0
X52.389Y-147.281
X53.473Y-171.85
X53.5Y-139.5
X54.284Y-195.388
X55.065Y-145.837
X55.121Y-171.366
X55.136Y-92.441
X55.5Y-79.0
X55.5Y-115.0
X55.5Y-125.0
X58.094Y-101.935
X58.112Y-147.653
X58.482Y-91.753
X61.5Y-116.5
X62.0Y-125.0
X62.017Y-188.29
X62.333Y-94.084
X62.444Y-209.369
X62.771Y-148.091
X63.157Y-186.319
X63.593Y-212.601
X64.153Y-156.686
X64.338Y-160.103
X64.739Y-148.388
X64.855Y-198.182
X65.773Y-113.712
X66.0Y-165.5
X67.779Y-94.111
X68.336Y-203.331
X69.718Y-189.574
X69.896Y-186.658
X69.985Y-188.183
X70.317Y-156.339
X70.334Y-210.872
X70.574Y-170.776
X70.61Y-76.79
X70.614Y-129.873
X71.587Y-145.739
X72.221Y-98.706
X72.532Y-92.407
X72.636Y-116.588
X73.199Y-151.372
X73.5Y-113.0
X74.192Y-204.014
X74.401Y-197.94
X74.669Y-147.267
X74.846Y-195.388
X75.198Y-163.517
X75.659Y-167.526
X76.449Y-196.716
X76.648Y-148.073
X76.973Y-93.502
X78.041Y-167.026
X79.018Y-174.868
X79.429Y-192.189
X79.563Y-173.938
X80.0Y-112.5
X80.5Y-98.5
X80.587Y-175.602
X80.831Y-176.648
X80.92Y-169.779
X82.667Y-147.64
X82.684Y-160.877
X82.732Y-202.526
X83.039Y-145.129
X83.383Y-210.124
X84.49Y-209.668
X84.629Y-153.845
X84.922Y-170.613
X86.959Y-127.367
X87.377Y-60.795
X87.377Y-112.796
X87.545Y-173.729
X87.908Y-131.58
X90.287Y-143.409
X90.645Y-129.729
X91.148Y-184.939
X91.399Y-136.951
X91.869Y-183.418
X91.871Y-203.785
X92.777Y-131.689
X93.657Y-154.622
X94.843Y-149.605
X96.326Y-159.293
X96.423Y-174.988
X96.712Y-180.145
X96.917Y-179.067
X96.937Y-133.707
X98.518Y-161.276
X98.547Y-170.367
X98.97Y-143.295
X98.98Y-168.872
X99.129Y-173.672
X99.185Y-120.76
X99.185Y-119.533
X99.268Y-69.45
X99.269Y-163.109
X100.144Y-185.767
X100.296Y-196.131
X100.702Y-183.571
X102.169Y-202.966
X103.0Y-170.095
X104.324Y-139.299
X104.877Y-170.545
X105.192Y-151.553
X105.354Y-198.671
X105.428Y-195.003
X105.621Y-201.269
X105.778Y-155.635
X105.991Y-163.62
X106.245Y-132.498
X106.617Y-144.618
X106.782Y-134.272
X107.618Y-165.391
X108.39Y-131.451
X108.391Y-143.117
X109.723Y-74.534
X110.91Y-207.49
X110.949Y-67.854
X111.532Y-151.604
X112.042Y-159.959
X112.374Y-172.689
X113.737Y-167.3
X114.18Y-147.647
X115.247Y-155.94
X115.255Y-183.646
X115.368Y-196.102
X115.916Y-164.492
X115.921Y-172.94
X116.308Y-153.802
X116.877Y-148.524
X116.936Y-156.566
X117.446Y-203.241
X117.865Y-153.583
X118.089Y-181.281
X118.28Y-168.094
X118.456Y-175.117
X118.968Y-163.109
X119.037Y-202.422
X119.312Y-178.642
X119.375Y-161.457
X119.566Y-170.343
X119.606Y-159.297
X119.895Y-168.484
X120.283Y-199.368
X120.497Y-191.072
X120.796Y-155.352
X121.371Y-143.895
X121.383Y-162.643
X121.656Y-196.615
X122.721Y-139.278
X122.856Y-162.743
X122.915Y-148.249
X123.203Y-152.379
X123.389Y-174.892
X123.667Y-163.658
X124.134Y-167.94
X124.411Y-174.32
X124.808Y-146.817
X125.233Y-153.962
X125.314Y-182.104
X125.56Y-155.187
X128.374Y-188.585
X128.406Y-180.188
X129.027Y-151.06
X130.866Y-174.96
X131.317Y-199.886
X131.663Y-208.73
X131.855Y-171.608
X132.051Y-180.126
X132.383Y-195.815
X132.755Y-194.128
X133.155Y-203.7
X133.92Y-133.515
X134.41Y-199.423
X135.39Y-170.808
X135.402Y-155.682
X136.48Y-173.003
X137.849Y-172.716
X138.281Y-175.724
X139.418Y-64.387
X140.267Y-149.09
X140.786Y-182.357
X142.711Y-182.571
X145.39Y-166.525
X146.47Y-195.961
X147.185Y-163.862
X147.535Y-144.217
X147.866Y-191.607
X148.02Y-165.149
X148.031Y-186.11
X151.177Y-191.606
T2
X103.914Y-108.922
X103.914Y-111.462
X103.914Y-114.002
X103.914Y-116.542
X144.554Y-108.922
X144.554Y-111.462
X144.554Y-114.002
X144.554Y-116.542
T3
X44.6Y-202.08
X44.6Y-208.65
X45.86Y-199.54
X45.86Y-206.11
X47.14Y-202.08
X47.14Y-208.65
X48.4Y-199.54
X48.4Y-206.11
X49.68Y-202.08
X49.68Y-208.65
X50.94Y-199.54
X50.94Y-206.11
X52.22Y-202.08
X52.22Y-208.65
X53.48Y-199.54
X53.48Y-206.11
X58.57Y-202.08
X58.57Y-208.65
X59.83Y-199.54
X59.83Y-206.11
X61.11Y-202.08
X61.11Y-208.65
X62.37Y-199.54
X62.37Y-206.11
X63.65Y-202.08
X63.65Y-208.65
X64.91Y-199.54
X64.91Y-206.11
X66.19Y-202.08
X66.19Y-208.65
X67.45Y-199.54
X67.45Y-206.11
X72.54Y-202.08
X72.54Y-208.65
X73.8Y-199.54
X73.8Y-206.11
X75.08Y-202.08
X75.08Y-208.65
X76.34Y-199.54
X76.34Y-206.11
X77.62Y-202.08
X77.62Y-208.65
X78.88Y-199.54
X78.88Y-206.11
X80.16Y-202.08
X80.16Y-208.65
X81.42Y-199.54
X81.42Y-206.11
X86.51Y-202.08
X86.51Y-208.65
X87.77Y-199.54
X87.77Y-206.11
X89.05Y-202.08
X89.05Y-208.65
X90.31Y-199.54
X90.31Y-206.11
X91.59Y-202.08
X91.59Y-208.65
X92.85Y-199.54
X92.85Y-206.11
X94.13Y-202.08
X94.13Y-208.65
X95.39Y-199.54
X95.39Y-206.11
X107.1Y-202.08
X107.1Y-208.65
X108.36Y-199.54
X108.36Y-206.11
X109.64Y-202.08
X109.64Y-208.65
X110.9Y-199.54
X110.9Y-206.11
X112.18Y-202.08
X112.18Y-208.65
X113.44Y-199.54
X113.44Y-206.11
X114.72Y-202.08
X114.72Y-208.65
X115.98Y-199.54
X115.98Y-206.11
X121.07Y-202.08
X121.07Y-208.65
X122.33Y-199.54
X122.33Y-206.11
X123.61Y-202.08
X123.61Y-208.65
X124.87Y-199.54
X124.87Y-206.11
X126.15Y-202.08
X126.15Y-208.65
X127.41Y-199.54
X127.41Y-206.11
X128.69Y-202.08
X128.69Y-208.65
X129.95Y-199.54
X129.95Y-206.11
X135.04Y-202.08
X135.04Y-208.65
X136.3Y-199.54
X136.3Y-206.11
X137.58Y-202.08
X137.58Y-208.65
X138.84Y-199.54
X138.84Y-206.11
X140.12Y-202.08
X140.12Y-208.65
X141.38Y-199.54
X141.38Y-206.11
X142.66Y-202.08
X142.66Y-208.65
X143.92Y-199.54
X143.92Y-206.11
X149.01Y-202.08
X149.01Y-208.65
X150.27Y-199.54
X150.27Y-206.11
X151.55Y-202.08
X151.55Y-208.65
X152.81Y-199.54
X152.81Y-206.11
X154.09Y-202.08
X154.09Y-208.65
X155.35Y-199.54
X155.35Y-206.11
X156.63Y-202.08
X156.63Y-208.65
X157.89Y-199.54
X157.89Y-206.11
T4
X41.42Y-187.42
X41.42Y-189.96
X49.04Y-187.42
X49.04Y-189.96
X49.5Y-50.502
X56.0Y-50.502
X56.66Y-187.42
X56.66Y-189.96
X64.28Y-187.42
X64.28Y-189.96
X71.9Y-187.42
X71.9Y-189.96
X79.52Y-187.42
X79.52Y-189.96
X87.14Y-187.42
X87.14Y-189.96
X94.76Y-187.42
X94.76Y-189.96
X107.46Y-187.42
X107.46Y-189.96
X110.518Y-78.442
X110.617Y-87.188
X110.772Y-99.27
X113.058Y-78.442
X113.157Y-87.188
X113.312Y-99.27
X115.08Y-187.42
X115.08Y-189.96
X115.598Y-78.442
X115.697Y-87.188
X115.852Y-99.27
X118.237Y-87.188
X118.392Y-99.27
X120.777Y-87.188
X122.7Y-187.42
X122.7Y-189.96
X123.317Y-87.188
X124.996Y-78.442
X127.536Y-78.442
X130.076Y-78.442
X130.32Y-187.42
X130.32Y-189.96
X135.41Y-75.648
X135.41Y-78.188
X135.41Y-80.728
X137.94Y-187.42
X137.94Y-189.96
X145.56Y-187.42
X145.56Y-189.96
T5
X35.028Y-63.71
X35.028Y-89.11
X37.568Y-63.71
X37.568Y-89.11
X40.108Y-63.71
X40.108Y-89.11
X42.648Y-63.71
X42.648Y-89.11
X45.188Y-63.71
X45.188Y-89.11
X47.728Y-63.71
X47.728Y-89.11
X50.268Y-63.71
X50.268Y-89.11
X52.808Y-63.71
X52.808Y-89.11
X55.348Y-63.71
X55.348Y-89.11
X57.888Y-63.71
X57.888Y-89.11
X60.428Y-63.71
X60.428Y-89.11
X62.968Y-63.71
X62.968Y-89.11
X65.508Y-63.71
X65.508Y-89.11
X68.048Y-63.71
X68.048Y-89.11
X70.588Y-63.71
X70.588Y-89.11
X73.128Y-63.71
X73.128Y-89.11
X75.668Y-63.71
X75.668Y-89.11
X78.208Y-63.71
X78.208Y-89.11
X80.748Y-63.71
X80.748Y-89.11
T6
X34.445Y-105.366
X34.445Y-120.606
X34.572Y-134.576
X34.572Y-149.816
X36.985Y-105.366
X36.985Y-120.606
X37.112Y-134.576
X37.112Y-149.816
X39.525Y-105.366
X39.525Y-120.606
X39.652Y-134.576
X39.652Y-149.816
X42.065Y-105.366
X42.065Y-120.606
X42.192Y-134.576
X42.192Y-149.816
X44.605Y-105.366
X44.605Y-120.606
X44.732Y-134.576
X44.732Y-149.816
X47.145Y-105.366
X47.145Y-120.606
X47.272Y-134.576
X47.272Y-149.816
X49.685Y-105.366
X49.685Y-120.606
X49.812Y-134.576
X49.812Y-149.816
X52.225Y-105.366
X52.225Y-120.606
X52.352Y-134.576
X52.352Y-149.816
X54.765Y-105.366
X54.765Y-120.606
X54.892Y-134.576
X54.892Y-149.816
X57.305Y-105.366
X57.305Y-120.606
X57.432Y-134.576
X57.432Y-149.816
X59.845Y-105.366
X59.845Y-120.606
X59.972Y-134.576
X59.972Y-149.816
X62.385Y-105.366
X62.385Y-120.606
X62.512Y-134.576
X62.512Y-149.816
X64.925Y-105.366
X64.925Y-120.606
X65.052Y-134.576
X65.052Y-149.816
X67.465Y-105.366
X67.465Y-120.606
X67.592Y-134.576
X67.592Y-149.816
X70.005Y-105.366
X70.005Y-120.606
X70.132Y-134.576
X70.132Y-149.816
X72.545Y-105.366
X72.545Y-120.606
X72.672Y-134.576
X72.672Y-149.816
X75.085Y-105.366
X75.085Y-120.606
X75.212Y-134.576
X75.212Y-149.816
X77.625Y-105.366
X77.625Y-120.606
X77.752Y-134.576
X77.752Y-149.816
X80.165Y-105.366
X80.165Y-120.606
X80.292Y-134.576
X80.292Y-149.816
X82.705Y-105.366
X82.705Y-120.606
X82.832Y-134.576
X82.832Y-149.816
X85.245Y-105.366
X85.245Y-120.606
X85.372Y-134.576
X85.372Y-149.816
X87.785Y-105.366
X87.785Y-120.606
X87.912Y-134.576
X87.912Y-149.816
X90.325Y-105.366
X90.325Y-120.606
X90.452Y-134.576
X90.452Y-149.816
X92.865Y-105.366
X92.865Y-120.606
X92.992Y-134.576
X92.992Y-149.816
T7
X112.456Y-54.058
X117.456Y-54.058
X122.456Y-54.058
T8
X131.346Y-142.704
X131.346Y-150.832
X135.308Y-146.768
X140.134Y-146.768
T9
X40.54Y-199.54
X40.54Y-219.57
X41.205Y-205.85
X98.795Y-209.15
X99.46Y-203.6
X99.46Y-219.57
X103.04Y-199.54
X103.04Y-219.57
X103.705Y-205.85
X161.295Y-209.15
X161.96Y-203.6
X161.96Y-219.57
T10
X129.822Y-134.068
X129.822Y-159.468
T11
X35.0Y-220.0
X37.5Y-50.0
X37.5Y-160.0
X142.5Y-50.0
X165.0Y-180.0
X167.5Y-220.0
T12
X43.33Y-215.0
X96.67Y-215.0
X105.83Y-215.0
X159.17Y-215.0
T0
M30
