%TF.GenerationSoftware,KiCad,Pcbnew,(5.1.9-0-10_14)*%
%TF.CreationDate,2021-08-20T09:49:49+02:00*%
%TF.ProjectId,MechanicalTheatre,4d656368-616e-4696-9361-6c5468656174,rev?*%
%TF.SameCoordinates,Original*%
%TF.FileFunction,Legend,Bot*%
%TF.FilePolarity,Positive*%
%FSLAX46Y46*%
G04 Gerber Fmt 4.6, Leading zero omitted, Abs format (unit mm)*
G04 Created by KiCad (PCBNEW (5.1.9-0-10_14)) date 2021-08-20 09:49:49*
%MOMM*%
%LPD*%
G01*
G04 APERTURE LIST*
%ADD10C,0.120000*%
%ADD11C,0.150000*%
%ADD12C,7.000000*%
%ADD13O,1.600000X1.600000*%
%ADD14R,1.600000X1.600000*%
%ADD15O,1.700000X1.700000*%
%ADD16R,1.700000X1.700000*%
%ADD17C,1.524000*%
%ADD18R,1.524000X1.524000*%
%ADD19C,2.000000*%
%ADD20R,2.000000X2.000000*%
%ADD21C,2.500000*%
%ADD22C,1.500000*%
%ADD23C,3.250000*%
%ADD24C,1.600000*%
%ADD25C,1.560000*%
%ADD26R,1.560000X1.560000*%
%ADD27C,2.800000*%
%ADD28R,2.800000X2.800000*%
G04 APERTURE END LIST*
D10*
%TO.C,U14*%
X57012000Y-165416000D02*
X57012000Y-162656000D01*
X57012000Y-162656000D02*
X57852000Y-162656000D01*
X57012000Y-165416000D02*
X57012000Y-168176000D01*
X57012000Y-168176000D02*
X57852000Y-168176000D01*
X67432000Y-165416000D02*
X67432000Y-162656000D01*
X67432000Y-162656000D02*
X66592000Y-162656000D01*
X67432000Y-165416000D02*
X67432000Y-168176000D01*
X67432000Y-168176000D02*
X66592000Y-168176000D01*
X66592000Y-168176000D02*
X66592000Y-169866000D01*
%TO.C,R74*%
X45167224Y-180477500D02*
X44657776Y-180477500D01*
X45167224Y-181522500D02*
X44657776Y-181522500D01*
%TO.C,R73*%
X45167224Y-177477500D02*
X44657776Y-177477500D01*
X45167224Y-178522500D02*
X44657776Y-178522500D01*
%TO.C,R72*%
X52477500Y-188657276D02*
X52477500Y-189166724D01*
X53522500Y-188657276D02*
X53522500Y-189166724D01*
%TO.C,R71*%
X48477500Y-188657276D02*
X48477500Y-189166724D01*
X49522500Y-188657276D02*
X49522500Y-189166724D01*
%TO.C,C34*%
X41676767Y-67518000D02*
X41384233Y-67518000D01*
X41676767Y-68538000D02*
X41384233Y-68538000D01*
%TO.C,C33*%
X34062000Y-112993733D02*
X34062000Y-113286267D01*
X35082000Y-112993733D02*
X35082000Y-113286267D01*
%TO.C,C32*%
X35082000Y-142284267D02*
X35082000Y-141991733D01*
X34062000Y-142284267D02*
X34062000Y-141991733D01*
%TO.C,C22*%
X61991233Y-181510000D02*
X62283767Y-181510000D01*
X61991233Y-180490000D02*
X62283767Y-180490000D01*
%TO.C,C21*%
X61991233Y-178510000D02*
X62283767Y-178510000D01*
X61991233Y-177490000D02*
X62283767Y-177490000D01*
%TO.C,R18*%
X138248724Y-181522500D02*
X137739276Y-181522500D01*
X138248724Y-180477500D02*
X137739276Y-180477500D01*
%TO.C,R19*%
X147477500Y-189166724D02*
X147477500Y-188657276D01*
X148522500Y-189166724D02*
X148522500Y-188657276D01*
%TO.C,U10*%
X97966000Y-168176000D02*
X97966000Y-169866000D01*
X98806000Y-168176000D02*
X97966000Y-168176000D01*
X98806000Y-165416000D02*
X98806000Y-168176000D01*
X98806000Y-162656000D02*
X97966000Y-162656000D01*
X98806000Y-165416000D02*
X98806000Y-162656000D01*
X88386000Y-168176000D02*
X89226000Y-168176000D01*
X88386000Y-165416000D02*
X88386000Y-168176000D01*
X88386000Y-162656000D02*
X89226000Y-162656000D01*
X88386000Y-165416000D02*
X88386000Y-162656000D01*
%TO.C,U6*%
X133291000Y-168176000D02*
X133291000Y-169866000D01*
X134131000Y-168176000D02*
X133291000Y-168176000D01*
X134131000Y-165416000D02*
X134131000Y-168176000D01*
X134131000Y-162656000D02*
X133291000Y-162656000D01*
X134131000Y-165416000D02*
X134131000Y-162656000D01*
X123711000Y-168176000D02*
X124551000Y-168176000D01*
X123711000Y-165416000D02*
X123711000Y-168176000D01*
X123711000Y-162656000D02*
X124551000Y-162656000D01*
X123711000Y-165416000D02*
X123711000Y-162656000D01*
%TO.C,R63*%
X56477500Y-189166724D02*
X56477500Y-188657276D01*
X57522500Y-189166724D02*
X57522500Y-188657276D01*
%TO.C,R62*%
X45167224Y-184522500D02*
X44657776Y-184522500D01*
X45167224Y-183477500D02*
X44657776Y-183477500D01*
%TO.C,R59*%
X72477500Y-189166724D02*
X72477500Y-188657276D01*
X73522500Y-189166724D02*
X73522500Y-188657276D01*
%TO.C,R58*%
X86832776Y-177477500D02*
X87342224Y-177477500D01*
X86832776Y-178522500D02*
X87342224Y-178522500D01*
%TO.C,R55*%
X76477500Y-189166724D02*
X76477500Y-188657276D01*
X77522500Y-189166724D02*
X77522500Y-188657276D01*
%TO.C,R54*%
X86832776Y-180477500D02*
X87342224Y-180477500D01*
X86832776Y-181522500D02*
X87342224Y-181522500D01*
%TO.C,R51*%
X102477500Y-189166724D02*
X102477500Y-188657276D01*
X103522500Y-189166724D02*
X103522500Y-188657276D01*
%TO.C,R50*%
X91167224Y-181522500D02*
X90657776Y-181522500D01*
X91167224Y-180477500D02*
X90657776Y-180477500D01*
%TO.C,R47*%
X94477500Y-189166724D02*
X94477500Y-188657276D01*
X95522500Y-189166724D02*
X95522500Y-188657276D01*
%TO.C,R46*%
X91167224Y-178522500D02*
X90657776Y-178522500D01*
X91167224Y-177477500D02*
X90657776Y-177477500D01*
%TO.C,R43*%
X80477500Y-189166724D02*
X80477500Y-188657276D01*
X81522500Y-189166724D02*
X81522500Y-188657276D01*
%TO.C,R42*%
X86832776Y-183477500D02*
X87342224Y-183477500D01*
X86832776Y-184522500D02*
X87342224Y-184522500D01*
%TO.C,R39*%
X98477500Y-189166724D02*
X98477500Y-188657276D01*
X99522500Y-189166724D02*
X99522500Y-188657276D01*
%TO.C,R38*%
X91167224Y-184522500D02*
X90657776Y-184522500D01*
X91167224Y-183477500D02*
X90657776Y-183477500D01*
%TO.C,R35*%
X118477500Y-189166724D02*
X118477500Y-188657276D01*
X119522500Y-189166724D02*
X119522500Y-188657276D01*
%TO.C,R34*%
X133833276Y-177477500D02*
X134342724Y-177477500D01*
X133833276Y-178522500D02*
X134342724Y-178522500D01*
%TO.C,R31*%
X122477500Y-189166724D02*
X122477500Y-188657276D01*
X123522500Y-189166724D02*
X123522500Y-188657276D01*
%TO.C,R30*%
X133833276Y-180477500D02*
X134342724Y-180477500D01*
X133833276Y-181522500D02*
X134342724Y-181522500D01*
%TO.C,R27*%
X126477500Y-189166724D02*
X126477500Y-188657276D01*
X127522500Y-189166724D02*
X127522500Y-188657276D01*
%TO.C,R26*%
X133833276Y-183477500D02*
X134342724Y-183477500D01*
X133833276Y-184522500D02*
X134342724Y-184522500D01*
%TO.C,R23*%
X143477500Y-189166724D02*
X143477500Y-188657276D01*
X144522500Y-189166724D02*
X144522500Y-188657276D01*
%TO.C,R22*%
X138166724Y-178522500D02*
X137657276Y-178522500D01*
X138166724Y-177477500D02*
X137657276Y-177477500D01*
%TO.C,R17*%
X151477500Y-189166724D02*
X151477500Y-188657276D01*
X152522500Y-189166724D02*
X152522500Y-188657276D01*
%TO.C,R16*%
X138248724Y-184522500D02*
X137739276Y-184522500D01*
X138248724Y-183477500D02*
X137739276Y-183477500D01*
%TO.C,R2*%
X69745276Y-84477500D02*
X70254724Y-84477500D01*
X69745276Y-85522500D02*
X70254724Y-85522500D01*
%TO.C,R1*%
X74130276Y-84477500D02*
X74639724Y-84477500D01*
X74130276Y-85522500D02*
X74639724Y-85522500D01*
%TO.C,C18*%
X61991233Y-183490000D02*
X62283767Y-183490000D01*
X61991233Y-184510000D02*
X62283767Y-184510000D01*
%TO.C,C17*%
X68669000Y-165562267D02*
X68669000Y-165269733D01*
X69689000Y-165562267D02*
X69689000Y-165269733D01*
%TO.C,C16*%
X66008767Y-178510000D02*
X65716233Y-178510000D01*
X66008767Y-177490000D02*
X65716233Y-177490000D01*
%TO.C,C15*%
X66008767Y-181510000D02*
X65716233Y-181510000D01*
X66008767Y-180490000D02*
X65716233Y-180490000D01*
%TO.C,C14*%
X108991733Y-180490000D02*
X109284267Y-180490000D01*
X108991733Y-181510000D02*
X109284267Y-181510000D01*
%TO.C,C13*%
X108991733Y-177490000D02*
X109284267Y-177490000D01*
X108991733Y-178510000D02*
X109284267Y-178510000D01*
%TO.C,C12*%
X66008767Y-184510000D02*
X65716233Y-184510000D01*
X66008767Y-183490000D02*
X65716233Y-183490000D01*
%TO.C,C11*%
X108991733Y-183490000D02*
X109284267Y-183490000D01*
X108991733Y-184510000D02*
X109284267Y-184510000D01*
%TO.C,C10*%
X100032000Y-165562267D02*
X100032000Y-165269733D01*
X101052000Y-165562267D02*
X101052000Y-165269733D01*
%TO.C,C9*%
X113008267Y-178510000D02*
X112715733Y-178510000D01*
X113008267Y-177490000D02*
X112715733Y-177490000D01*
%TO.C,C8*%
X113008267Y-181510000D02*
X112715733Y-181510000D01*
X113008267Y-180490000D02*
X112715733Y-180490000D01*
%TO.C,C7*%
X113008267Y-184510000D02*
X112715733Y-184510000D01*
X113008267Y-183490000D02*
X112715733Y-183490000D01*
%TO.C,C6*%
X155991733Y-183490000D02*
X156284267Y-183490000D01*
X155991733Y-184510000D02*
X156284267Y-184510000D01*
%TO.C,C5*%
X135114000Y-165562267D02*
X135114000Y-165269733D01*
X136134000Y-165562267D02*
X136134000Y-165269733D01*
%TO.C,C3*%
X155991733Y-177490000D02*
X156284267Y-177490000D01*
X155991733Y-178510000D02*
X156284267Y-178510000D01*
%TO.C,C2*%
X155991733Y-180490000D02*
X156284267Y-180490000D01*
X155991733Y-181510000D02*
X156284267Y-181510000D01*
%TO.C,U14*%
D11*
X55578380Y-164084404D02*
X56387904Y-164084404D01*
X56483142Y-164132023D01*
X56530761Y-164179642D01*
X56578380Y-164274880D01*
X56578380Y-164465357D01*
X56530761Y-164560595D01*
X56483142Y-164608214D01*
X56387904Y-164655833D01*
X55578380Y-164655833D01*
X56578380Y-165655833D02*
X56578380Y-165084404D01*
X56578380Y-165370119D02*
X55578380Y-165370119D01*
X55721238Y-165274880D01*
X55816476Y-165179642D01*
X55864095Y-165084404D01*
X55911714Y-166512976D02*
X56578380Y-166512976D01*
X55530761Y-166274880D02*
X56245047Y-166036785D01*
X56245047Y-166655833D01*
%TO.C,R74*%
X48767857Y-181652380D02*
X49101190Y-181176190D01*
X49339285Y-181652380D02*
X49339285Y-180652380D01*
X48958333Y-180652380D01*
X48863095Y-180700000D01*
X48815476Y-180747619D01*
X48767857Y-180842857D01*
X48767857Y-180985714D01*
X48815476Y-181080952D01*
X48863095Y-181128571D01*
X48958333Y-181176190D01*
X49339285Y-181176190D01*
X48434523Y-180652380D02*
X47767857Y-180652380D01*
X48196428Y-181652380D01*
X46958333Y-180985714D02*
X46958333Y-181652380D01*
X47196428Y-180604761D02*
X47434523Y-181319047D01*
X46815476Y-181319047D01*
%TO.C,R73*%
X48756857Y-178552380D02*
X49090190Y-178076190D01*
X49328285Y-178552380D02*
X49328285Y-177552380D01*
X48947333Y-177552380D01*
X48852095Y-177600000D01*
X48804476Y-177647619D01*
X48756857Y-177742857D01*
X48756857Y-177885714D01*
X48804476Y-177980952D01*
X48852095Y-178028571D01*
X48947333Y-178076190D01*
X49328285Y-178076190D01*
X48423523Y-177552380D02*
X47756857Y-177552380D01*
X48185428Y-178552380D01*
X47471142Y-177552380D02*
X46852095Y-177552380D01*
X47185428Y-177933333D01*
X47042571Y-177933333D01*
X46947333Y-177980952D01*
X46899714Y-178028571D01*
X46852095Y-178123809D01*
X46852095Y-178361904D01*
X46899714Y-178457142D01*
X46947333Y-178504761D01*
X47042571Y-178552380D01*
X47328285Y-178552380D01*
X47423523Y-178504761D01*
X47471142Y-178457142D01*
%TO.C,R72*%
X53388380Y-191577142D02*
X52912190Y-191243809D01*
X53388380Y-191005714D02*
X52388380Y-191005714D01*
X52388380Y-191386666D01*
X52436000Y-191481904D01*
X52483619Y-191529523D01*
X52578857Y-191577142D01*
X52721714Y-191577142D01*
X52816952Y-191529523D01*
X52864571Y-191481904D01*
X52912190Y-191386666D01*
X52912190Y-191005714D01*
X52388380Y-191910476D02*
X52388380Y-192577142D01*
X53388380Y-192148571D01*
X52483619Y-192910476D02*
X52436000Y-192958095D01*
X52388380Y-193053333D01*
X52388380Y-193291428D01*
X52436000Y-193386666D01*
X52483619Y-193434285D01*
X52578857Y-193481904D01*
X52674095Y-193481904D01*
X52816952Y-193434285D01*
X53388380Y-192862857D01*
X53388380Y-193481904D01*
%TO.C,R71*%
X49452380Y-191420642D02*
X48976190Y-191087309D01*
X49452380Y-190849214D02*
X48452380Y-190849214D01*
X48452380Y-191230166D01*
X48500000Y-191325404D01*
X48547619Y-191373023D01*
X48642857Y-191420642D01*
X48785714Y-191420642D01*
X48880952Y-191373023D01*
X48928571Y-191325404D01*
X48976190Y-191230166D01*
X48976190Y-190849214D01*
X48452380Y-191753976D02*
X48452380Y-192420642D01*
X49452380Y-191992071D01*
X49452380Y-193325404D02*
X49452380Y-192753976D01*
X49452380Y-193039690D02*
X48452380Y-193039690D01*
X48595238Y-192944452D01*
X48690476Y-192849214D01*
X48738095Y-192753976D01*
%TO.C,C34*%
X42173357Y-66955142D02*
X42220976Y-67002761D01*
X42363833Y-67050380D01*
X42459071Y-67050380D01*
X42601928Y-67002761D01*
X42697166Y-66907523D01*
X42744785Y-66812285D01*
X42792404Y-66621809D01*
X42792404Y-66478952D01*
X42744785Y-66288476D01*
X42697166Y-66193238D01*
X42601928Y-66098000D01*
X42459071Y-66050380D01*
X42363833Y-66050380D01*
X42220976Y-66098000D01*
X42173357Y-66145619D01*
X41840023Y-66050380D02*
X41220976Y-66050380D01*
X41554309Y-66431333D01*
X41411452Y-66431333D01*
X41316214Y-66478952D01*
X41268595Y-66526571D01*
X41220976Y-66621809D01*
X41220976Y-66859904D01*
X41268595Y-66955142D01*
X41316214Y-67002761D01*
X41411452Y-67050380D01*
X41697166Y-67050380D01*
X41792404Y-67002761D01*
X41840023Y-66955142D01*
X40363833Y-66383714D02*
X40363833Y-67050380D01*
X40601928Y-66002761D02*
X40840023Y-66717047D01*
X40220976Y-66717047D01*
%TO.C,C33*%
X33499142Y-112497142D02*
X33546761Y-112449523D01*
X33594380Y-112306666D01*
X33594380Y-112211428D01*
X33546761Y-112068571D01*
X33451523Y-111973333D01*
X33356285Y-111925714D01*
X33165809Y-111878095D01*
X33022952Y-111878095D01*
X32832476Y-111925714D01*
X32737238Y-111973333D01*
X32642000Y-112068571D01*
X32594380Y-112211428D01*
X32594380Y-112306666D01*
X32642000Y-112449523D01*
X32689619Y-112497142D01*
X32594380Y-112830476D02*
X32594380Y-113449523D01*
X32975333Y-113116190D01*
X32975333Y-113259047D01*
X33022952Y-113354285D01*
X33070571Y-113401904D01*
X33165809Y-113449523D01*
X33403904Y-113449523D01*
X33499142Y-113401904D01*
X33546761Y-113354285D01*
X33594380Y-113259047D01*
X33594380Y-112973333D01*
X33546761Y-112878095D01*
X33499142Y-112830476D01*
X32594380Y-113782857D02*
X32594380Y-114401904D01*
X32975333Y-114068571D01*
X32975333Y-114211428D01*
X33022952Y-114306666D01*
X33070571Y-114354285D01*
X33165809Y-114401904D01*
X33403904Y-114401904D01*
X33499142Y-114354285D01*
X33546761Y-114306666D01*
X33594380Y-114211428D01*
X33594380Y-113925714D01*
X33546761Y-113830476D01*
X33499142Y-113782857D01*
%TO.C,C32*%
X36359142Y-141495142D02*
X36406761Y-141447523D01*
X36454380Y-141304666D01*
X36454380Y-141209428D01*
X36406761Y-141066571D01*
X36311523Y-140971333D01*
X36216285Y-140923714D01*
X36025809Y-140876095D01*
X35882952Y-140876095D01*
X35692476Y-140923714D01*
X35597238Y-140971333D01*
X35502000Y-141066571D01*
X35454380Y-141209428D01*
X35454380Y-141304666D01*
X35502000Y-141447523D01*
X35549619Y-141495142D01*
X35454380Y-141828476D02*
X35454380Y-142447523D01*
X35835333Y-142114190D01*
X35835333Y-142257047D01*
X35882952Y-142352285D01*
X35930571Y-142399904D01*
X36025809Y-142447523D01*
X36263904Y-142447523D01*
X36359142Y-142399904D01*
X36406761Y-142352285D01*
X36454380Y-142257047D01*
X36454380Y-141971333D01*
X36406761Y-141876095D01*
X36359142Y-141828476D01*
X35549619Y-142828476D02*
X35502000Y-142876095D01*
X35454380Y-142971333D01*
X35454380Y-143209428D01*
X35502000Y-143304666D01*
X35549619Y-143352285D01*
X35644857Y-143399904D01*
X35740095Y-143399904D01*
X35882952Y-143352285D01*
X36454380Y-142780857D01*
X36454380Y-143399904D01*
%TO.C,C22*%
X59607857Y-181441142D02*
X59655476Y-181488761D01*
X59798333Y-181536380D01*
X59893571Y-181536380D01*
X60036428Y-181488761D01*
X60131666Y-181393523D01*
X60179285Y-181298285D01*
X60226904Y-181107809D01*
X60226904Y-180964952D01*
X60179285Y-180774476D01*
X60131666Y-180679238D01*
X60036428Y-180584000D01*
X59893571Y-180536380D01*
X59798333Y-180536380D01*
X59655476Y-180584000D01*
X59607857Y-180631619D01*
X59226904Y-180631619D02*
X59179285Y-180584000D01*
X59084047Y-180536380D01*
X58845952Y-180536380D01*
X58750714Y-180584000D01*
X58703095Y-180631619D01*
X58655476Y-180726857D01*
X58655476Y-180822095D01*
X58703095Y-180964952D01*
X59274523Y-181536380D01*
X58655476Y-181536380D01*
X58274523Y-180631619D02*
X58226904Y-180584000D01*
X58131666Y-180536380D01*
X57893571Y-180536380D01*
X57798333Y-180584000D01*
X57750714Y-180631619D01*
X57703095Y-180726857D01*
X57703095Y-180822095D01*
X57750714Y-180964952D01*
X58322142Y-181536380D01*
X57703095Y-181536380D01*
%TO.C,C21*%
X59578857Y-178357142D02*
X59626476Y-178404761D01*
X59769333Y-178452380D01*
X59864571Y-178452380D01*
X60007428Y-178404761D01*
X60102666Y-178309523D01*
X60150285Y-178214285D01*
X60197904Y-178023809D01*
X60197904Y-177880952D01*
X60150285Y-177690476D01*
X60102666Y-177595238D01*
X60007428Y-177500000D01*
X59864571Y-177452380D01*
X59769333Y-177452380D01*
X59626476Y-177500000D01*
X59578857Y-177547619D01*
X59197904Y-177547619D02*
X59150285Y-177500000D01*
X59055047Y-177452380D01*
X58816952Y-177452380D01*
X58721714Y-177500000D01*
X58674095Y-177547619D01*
X58626476Y-177642857D01*
X58626476Y-177738095D01*
X58674095Y-177880952D01*
X59245523Y-178452380D01*
X58626476Y-178452380D01*
X57674095Y-178452380D02*
X58245523Y-178452380D01*
X57959809Y-178452380D02*
X57959809Y-177452380D01*
X58055047Y-177595238D01*
X58150285Y-177690476D01*
X58245523Y-177738095D01*
%TO.C,R18*%
X141938357Y-181552380D02*
X142271690Y-181076190D01*
X142509785Y-181552380D02*
X142509785Y-180552380D01*
X142128833Y-180552380D01*
X142033595Y-180600000D01*
X141985976Y-180647619D01*
X141938357Y-180742857D01*
X141938357Y-180885714D01*
X141985976Y-180980952D01*
X142033595Y-181028571D01*
X142128833Y-181076190D01*
X142509785Y-181076190D01*
X140985976Y-181552380D02*
X141557404Y-181552380D01*
X141271690Y-181552380D02*
X141271690Y-180552380D01*
X141366928Y-180695238D01*
X141462166Y-180790476D01*
X141557404Y-180838095D01*
X140414547Y-180980952D02*
X140509785Y-180933333D01*
X140557404Y-180885714D01*
X140605023Y-180790476D01*
X140605023Y-180742857D01*
X140557404Y-180647619D01*
X140509785Y-180600000D01*
X140414547Y-180552380D01*
X140224071Y-180552380D01*
X140128833Y-180600000D01*
X140081214Y-180647619D01*
X140033595Y-180742857D01*
X140033595Y-180790476D01*
X140081214Y-180885714D01*
X140128833Y-180933333D01*
X140224071Y-180980952D01*
X140414547Y-180980952D01*
X140509785Y-181028571D01*
X140557404Y-181076190D01*
X140605023Y-181171428D01*
X140605023Y-181361904D01*
X140557404Y-181457142D01*
X140509785Y-181504761D01*
X140414547Y-181552380D01*
X140224071Y-181552380D01*
X140128833Y-181504761D01*
X140081214Y-181457142D01*
X140033595Y-181361904D01*
X140033595Y-181171428D01*
X140081214Y-181076190D01*
X140128833Y-181028571D01*
X140224071Y-180980952D01*
%TO.C,R19*%
X148452380Y-191420642D02*
X147976190Y-191087309D01*
X148452380Y-190849214D02*
X147452380Y-190849214D01*
X147452380Y-191230166D01*
X147500000Y-191325404D01*
X147547619Y-191373023D01*
X147642857Y-191420642D01*
X147785714Y-191420642D01*
X147880952Y-191373023D01*
X147928571Y-191325404D01*
X147976190Y-191230166D01*
X147976190Y-190849214D01*
X148452380Y-192373023D02*
X148452380Y-191801595D01*
X148452380Y-192087309D02*
X147452380Y-192087309D01*
X147595238Y-191992071D01*
X147690476Y-191896833D01*
X147738095Y-191801595D01*
X148452380Y-192849214D02*
X148452380Y-193039690D01*
X148404761Y-193134928D01*
X148357142Y-193182547D01*
X148214285Y-193277785D01*
X148023809Y-193325404D01*
X147642857Y-193325404D01*
X147547619Y-193277785D01*
X147500000Y-193230166D01*
X147452380Y-193134928D01*
X147452380Y-192944452D01*
X147500000Y-192849214D01*
X147547619Y-192801595D01*
X147642857Y-192753976D01*
X147880952Y-192753976D01*
X147976190Y-192801595D01*
X148023809Y-192849214D01*
X148071428Y-192944452D01*
X148071428Y-193134928D01*
X148023809Y-193230166D01*
X147976190Y-193277785D01*
X147880952Y-193325404D01*
%TO.C,U10*%
X86814380Y-164173904D02*
X87623904Y-164173904D01*
X87719142Y-164221523D01*
X87766761Y-164269142D01*
X87814380Y-164364380D01*
X87814380Y-164554857D01*
X87766761Y-164650095D01*
X87719142Y-164697714D01*
X87623904Y-164745333D01*
X86814380Y-164745333D01*
X87814380Y-165745333D02*
X87814380Y-165173904D01*
X87814380Y-165459619D02*
X86814380Y-165459619D01*
X86957238Y-165364380D01*
X87052476Y-165269142D01*
X87100095Y-165173904D01*
X86814380Y-166364380D02*
X86814380Y-166459619D01*
X86862000Y-166554857D01*
X86909619Y-166602476D01*
X87004857Y-166650095D01*
X87195333Y-166697714D01*
X87433428Y-166697714D01*
X87623904Y-166650095D01*
X87719142Y-166602476D01*
X87766761Y-166554857D01*
X87814380Y-166459619D01*
X87814380Y-166364380D01*
X87766761Y-166269142D01*
X87719142Y-166221523D01*
X87623904Y-166173904D01*
X87433428Y-166126285D01*
X87195333Y-166126285D01*
X87004857Y-166173904D01*
X86909619Y-166221523D01*
X86862000Y-166269142D01*
X86814380Y-166364380D01*
%TO.C,U6*%
X122404380Y-164650095D02*
X123213904Y-164650095D01*
X123309142Y-164697714D01*
X123356761Y-164745333D01*
X123404380Y-164840571D01*
X123404380Y-165031047D01*
X123356761Y-165126285D01*
X123309142Y-165173904D01*
X123213904Y-165221523D01*
X122404380Y-165221523D01*
X122404380Y-166126285D02*
X122404380Y-165935809D01*
X122452000Y-165840571D01*
X122499619Y-165792952D01*
X122642476Y-165697714D01*
X122832952Y-165650095D01*
X123213904Y-165650095D01*
X123309142Y-165697714D01*
X123356761Y-165745333D01*
X123404380Y-165840571D01*
X123404380Y-166031047D01*
X123356761Y-166126285D01*
X123309142Y-166173904D01*
X123213904Y-166221523D01*
X122975809Y-166221523D01*
X122880571Y-166173904D01*
X122832952Y-166126285D01*
X122785333Y-166031047D01*
X122785333Y-165840571D01*
X122832952Y-165745333D01*
X122880571Y-165697714D01*
X122975809Y-165650095D01*
%TO.C,R63*%
X57452380Y-191420642D02*
X56976190Y-191087309D01*
X57452380Y-190849214D02*
X56452380Y-190849214D01*
X56452380Y-191230166D01*
X56500000Y-191325404D01*
X56547619Y-191373023D01*
X56642857Y-191420642D01*
X56785714Y-191420642D01*
X56880952Y-191373023D01*
X56928571Y-191325404D01*
X56976190Y-191230166D01*
X56976190Y-190849214D01*
X56452380Y-192277785D02*
X56452380Y-192087309D01*
X56500000Y-191992071D01*
X56547619Y-191944452D01*
X56690476Y-191849214D01*
X56880952Y-191801595D01*
X57261904Y-191801595D01*
X57357142Y-191849214D01*
X57404761Y-191896833D01*
X57452380Y-191992071D01*
X57452380Y-192182547D01*
X57404761Y-192277785D01*
X57357142Y-192325404D01*
X57261904Y-192373023D01*
X57023809Y-192373023D01*
X56928571Y-192325404D01*
X56880952Y-192277785D01*
X56833333Y-192182547D01*
X56833333Y-191992071D01*
X56880952Y-191896833D01*
X56928571Y-191849214D01*
X57023809Y-191801595D01*
X56452380Y-192706357D02*
X56452380Y-193325404D01*
X56833333Y-192992071D01*
X56833333Y-193134928D01*
X56880952Y-193230166D01*
X56928571Y-193277785D01*
X57023809Y-193325404D01*
X57261904Y-193325404D01*
X57357142Y-193277785D01*
X57404761Y-193230166D01*
X57452380Y-193134928D01*
X57452380Y-192849214D01*
X57404761Y-192753976D01*
X57357142Y-192706357D01*
%TO.C,R62*%
X48803857Y-184552380D02*
X49137190Y-184076190D01*
X49375285Y-184552380D02*
X49375285Y-183552380D01*
X48994333Y-183552380D01*
X48899095Y-183600000D01*
X48851476Y-183647619D01*
X48803857Y-183742857D01*
X48803857Y-183885714D01*
X48851476Y-183980952D01*
X48899095Y-184028571D01*
X48994333Y-184076190D01*
X49375285Y-184076190D01*
X47946714Y-183552380D02*
X48137190Y-183552380D01*
X48232428Y-183600000D01*
X48280047Y-183647619D01*
X48375285Y-183790476D01*
X48422904Y-183980952D01*
X48422904Y-184361904D01*
X48375285Y-184457142D01*
X48327666Y-184504761D01*
X48232428Y-184552380D01*
X48041952Y-184552380D01*
X47946714Y-184504761D01*
X47899095Y-184457142D01*
X47851476Y-184361904D01*
X47851476Y-184123809D01*
X47899095Y-184028571D01*
X47946714Y-183980952D01*
X48041952Y-183933333D01*
X48232428Y-183933333D01*
X48327666Y-183980952D01*
X48375285Y-184028571D01*
X48422904Y-184123809D01*
X47470523Y-183647619D02*
X47422904Y-183600000D01*
X47327666Y-183552380D01*
X47089571Y-183552380D01*
X46994333Y-183600000D01*
X46946714Y-183647619D01*
X46899095Y-183742857D01*
X46899095Y-183838095D01*
X46946714Y-183980952D01*
X47518142Y-184552380D01*
X46899095Y-184552380D01*
%TO.C,R59*%
X73382380Y-191469142D02*
X72906190Y-191135809D01*
X73382380Y-190897714D02*
X72382380Y-190897714D01*
X72382380Y-191278666D01*
X72430000Y-191373904D01*
X72477619Y-191421523D01*
X72572857Y-191469142D01*
X72715714Y-191469142D01*
X72810952Y-191421523D01*
X72858571Y-191373904D01*
X72906190Y-191278666D01*
X72906190Y-190897714D01*
X72382380Y-192373904D02*
X72382380Y-191897714D01*
X72858571Y-191850095D01*
X72810952Y-191897714D01*
X72763333Y-191992952D01*
X72763333Y-192231047D01*
X72810952Y-192326285D01*
X72858571Y-192373904D01*
X72953809Y-192421523D01*
X73191904Y-192421523D01*
X73287142Y-192373904D01*
X73334761Y-192326285D01*
X73382380Y-192231047D01*
X73382380Y-191992952D01*
X73334761Y-191897714D01*
X73287142Y-191850095D01*
X73382380Y-192897714D02*
X73382380Y-193088190D01*
X73334761Y-193183428D01*
X73287142Y-193231047D01*
X73144285Y-193326285D01*
X72953809Y-193373904D01*
X72572857Y-193373904D01*
X72477619Y-193326285D01*
X72430000Y-193278666D01*
X72382380Y-193183428D01*
X72382380Y-192992952D01*
X72430000Y-192897714D01*
X72477619Y-192850095D01*
X72572857Y-192802476D01*
X72810952Y-192802476D01*
X72906190Y-192850095D01*
X72953809Y-192897714D01*
X73001428Y-192992952D01*
X73001428Y-193183428D01*
X72953809Y-193278666D01*
X72906190Y-193326285D01*
X72810952Y-193373904D01*
%TO.C,R58*%
X84530357Y-178382380D02*
X84863690Y-177906190D01*
X85101785Y-178382380D02*
X85101785Y-177382380D01*
X84720833Y-177382380D01*
X84625595Y-177430000D01*
X84577976Y-177477619D01*
X84530357Y-177572857D01*
X84530357Y-177715714D01*
X84577976Y-177810952D01*
X84625595Y-177858571D01*
X84720833Y-177906190D01*
X85101785Y-177906190D01*
X83625595Y-177382380D02*
X84101785Y-177382380D01*
X84149404Y-177858571D01*
X84101785Y-177810952D01*
X84006547Y-177763333D01*
X83768452Y-177763333D01*
X83673214Y-177810952D01*
X83625595Y-177858571D01*
X83577976Y-177953809D01*
X83577976Y-178191904D01*
X83625595Y-178287142D01*
X83673214Y-178334761D01*
X83768452Y-178382380D01*
X84006547Y-178382380D01*
X84101785Y-178334761D01*
X84149404Y-178287142D01*
X83006547Y-177810952D02*
X83101785Y-177763333D01*
X83149404Y-177715714D01*
X83197023Y-177620476D01*
X83197023Y-177572857D01*
X83149404Y-177477619D01*
X83101785Y-177430000D01*
X83006547Y-177382380D01*
X82816071Y-177382380D01*
X82720833Y-177430000D01*
X82673214Y-177477619D01*
X82625595Y-177572857D01*
X82625595Y-177620476D01*
X82673214Y-177715714D01*
X82720833Y-177763333D01*
X82816071Y-177810952D01*
X83006547Y-177810952D01*
X83101785Y-177858571D01*
X83149404Y-177906190D01*
X83197023Y-178001428D01*
X83197023Y-178191904D01*
X83149404Y-178287142D01*
X83101785Y-178334761D01*
X83006547Y-178382380D01*
X82816071Y-178382380D01*
X82720833Y-178334761D01*
X82673214Y-178287142D01*
X82625595Y-178191904D01*
X82625595Y-178001428D01*
X82673214Y-177906190D01*
X82720833Y-177858571D01*
X82816071Y-177810952D01*
%TO.C,R55*%
X77382380Y-191469142D02*
X76906190Y-191135809D01*
X77382380Y-190897714D02*
X76382380Y-190897714D01*
X76382380Y-191278666D01*
X76430000Y-191373904D01*
X76477619Y-191421523D01*
X76572857Y-191469142D01*
X76715714Y-191469142D01*
X76810952Y-191421523D01*
X76858571Y-191373904D01*
X76906190Y-191278666D01*
X76906190Y-190897714D01*
X76382380Y-192373904D02*
X76382380Y-191897714D01*
X76858571Y-191850095D01*
X76810952Y-191897714D01*
X76763333Y-191992952D01*
X76763333Y-192231047D01*
X76810952Y-192326285D01*
X76858571Y-192373904D01*
X76953809Y-192421523D01*
X77191904Y-192421523D01*
X77287142Y-192373904D01*
X77334761Y-192326285D01*
X77382380Y-192231047D01*
X77382380Y-191992952D01*
X77334761Y-191897714D01*
X77287142Y-191850095D01*
X76382380Y-193326285D02*
X76382380Y-192850095D01*
X76858571Y-192802476D01*
X76810952Y-192850095D01*
X76763333Y-192945333D01*
X76763333Y-193183428D01*
X76810952Y-193278666D01*
X76858571Y-193326285D01*
X76953809Y-193373904D01*
X77191904Y-193373904D01*
X77287142Y-193326285D01*
X77334761Y-193278666D01*
X77382380Y-193183428D01*
X77382380Y-192945333D01*
X77334761Y-192850095D01*
X77287142Y-192802476D01*
%TO.C,R54*%
X84530357Y-181382380D02*
X84863690Y-180906190D01*
X85101785Y-181382380D02*
X85101785Y-180382380D01*
X84720833Y-180382380D01*
X84625595Y-180430000D01*
X84577976Y-180477619D01*
X84530357Y-180572857D01*
X84530357Y-180715714D01*
X84577976Y-180810952D01*
X84625595Y-180858571D01*
X84720833Y-180906190D01*
X85101785Y-180906190D01*
X83625595Y-180382380D02*
X84101785Y-180382380D01*
X84149404Y-180858571D01*
X84101785Y-180810952D01*
X84006547Y-180763333D01*
X83768452Y-180763333D01*
X83673214Y-180810952D01*
X83625595Y-180858571D01*
X83577976Y-180953809D01*
X83577976Y-181191904D01*
X83625595Y-181287142D01*
X83673214Y-181334761D01*
X83768452Y-181382380D01*
X84006547Y-181382380D01*
X84101785Y-181334761D01*
X84149404Y-181287142D01*
X82720833Y-180715714D02*
X82720833Y-181382380D01*
X82958928Y-180334761D02*
X83197023Y-181049047D01*
X82577976Y-181049047D01*
%TO.C,R51*%
X103452380Y-191420642D02*
X102976190Y-191087309D01*
X103452380Y-190849214D02*
X102452380Y-190849214D01*
X102452380Y-191230166D01*
X102500000Y-191325404D01*
X102547619Y-191373023D01*
X102642857Y-191420642D01*
X102785714Y-191420642D01*
X102880952Y-191373023D01*
X102928571Y-191325404D01*
X102976190Y-191230166D01*
X102976190Y-190849214D01*
X102452380Y-192325404D02*
X102452380Y-191849214D01*
X102928571Y-191801595D01*
X102880952Y-191849214D01*
X102833333Y-191944452D01*
X102833333Y-192182547D01*
X102880952Y-192277785D01*
X102928571Y-192325404D01*
X103023809Y-192373023D01*
X103261904Y-192373023D01*
X103357142Y-192325404D01*
X103404761Y-192277785D01*
X103452380Y-192182547D01*
X103452380Y-191944452D01*
X103404761Y-191849214D01*
X103357142Y-191801595D01*
X103452380Y-193325404D02*
X103452380Y-192753976D01*
X103452380Y-193039690D02*
X102452380Y-193039690D01*
X102595238Y-192944452D01*
X102690476Y-192849214D01*
X102738095Y-192753976D01*
%TO.C,R50*%
X94756857Y-181352380D02*
X95090190Y-180876190D01*
X95328285Y-181352380D02*
X95328285Y-180352380D01*
X94947333Y-180352380D01*
X94852095Y-180400000D01*
X94804476Y-180447619D01*
X94756857Y-180542857D01*
X94756857Y-180685714D01*
X94804476Y-180780952D01*
X94852095Y-180828571D01*
X94947333Y-180876190D01*
X95328285Y-180876190D01*
X93852095Y-180352380D02*
X94328285Y-180352380D01*
X94375904Y-180828571D01*
X94328285Y-180780952D01*
X94233047Y-180733333D01*
X93994952Y-180733333D01*
X93899714Y-180780952D01*
X93852095Y-180828571D01*
X93804476Y-180923809D01*
X93804476Y-181161904D01*
X93852095Y-181257142D01*
X93899714Y-181304761D01*
X93994952Y-181352380D01*
X94233047Y-181352380D01*
X94328285Y-181304761D01*
X94375904Y-181257142D01*
X93185428Y-180352380D02*
X93090190Y-180352380D01*
X92994952Y-180400000D01*
X92947333Y-180447619D01*
X92899714Y-180542857D01*
X92852095Y-180733333D01*
X92852095Y-180971428D01*
X92899714Y-181161904D01*
X92947333Y-181257142D01*
X92994952Y-181304761D01*
X93090190Y-181352380D01*
X93185428Y-181352380D01*
X93280666Y-181304761D01*
X93328285Y-181257142D01*
X93375904Y-181161904D01*
X93423523Y-180971428D01*
X93423523Y-180733333D01*
X93375904Y-180542857D01*
X93328285Y-180447619D01*
X93280666Y-180400000D01*
X93185428Y-180352380D01*
%TO.C,R47*%
X95452380Y-191420642D02*
X94976190Y-191087309D01*
X95452380Y-190849214D02*
X94452380Y-190849214D01*
X94452380Y-191230166D01*
X94500000Y-191325404D01*
X94547619Y-191373023D01*
X94642857Y-191420642D01*
X94785714Y-191420642D01*
X94880952Y-191373023D01*
X94928571Y-191325404D01*
X94976190Y-191230166D01*
X94976190Y-190849214D01*
X94785714Y-192277785D02*
X95452380Y-192277785D01*
X94404761Y-192039690D02*
X95119047Y-191801595D01*
X95119047Y-192420642D01*
X94452380Y-192706357D02*
X94452380Y-193373023D01*
X95452380Y-192944452D01*
%TO.C,R46*%
X94756857Y-178352380D02*
X95090190Y-177876190D01*
X95328285Y-178352380D02*
X95328285Y-177352380D01*
X94947333Y-177352380D01*
X94852095Y-177400000D01*
X94804476Y-177447619D01*
X94756857Y-177542857D01*
X94756857Y-177685714D01*
X94804476Y-177780952D01*
X94852095Y-177828571D01*
X94947333Y-177876190D01*
X95328285Y-177876190D01*
X93899714Y-177685714D02*
X93899714Y-178352380D01*
X94137809Y-177304761D02*
X94375904Y-178019047D01*
X93756857Y-178019047D01*
X92947333Y-177352380D02*
X93137809Y-177352380D01*
X93233047Y-177400000D01*
X93280666Y-177447619D01*
X93375904Y-177590476D01*
X93423523Y-177780952D01*
X93423523Y-178161904D01*
X93375904Y-178257142D01*
X93328285Y-178304761D01*
X93233047Y-178352380D01*
X93042571Y-178352380D01*
X92947333Y-178304761D01*
X92899714Y-178257142D01*
X92852095Y-178161904D01*
X92852095Y-177923809D01*
X92899714Y-177828571D01*
X92947333Y-177780952D01*
X93042571Y-177733333D01*
X93233047Y-177733333D01*
X93328285Y-177780952D01*
X93375904Y-177828571D01*
X93423523Y-177923809D01*
%TO.C,R43*%
X81382380Y-191469142D02*
X80906190Y-191135809D01*
X81382380Y-190897714D02*
X80382380Y-190897714D01*
X80382380Y-191278666D01*
X80430000Y-191373904D01*
X80477619Y-191421523D01*
X80572857Y-191469142D01*
X80715714Y-191469142D01*
X80810952Y-191421523D01*
X80858571Y-191373904D01*
X80906190Y-191278666D01*
X80906190Y-190897714D01*
X80715714Y-192326285D02*
X81382380Y-192326285D01*
X80334761Y-192088190D02*
X81049047Y-191850095D01*
X81049047Y-192469142D01*
X80382380Y-192754857D02*
X80382380Y-193373904D01*
X80763333Y-193040571D01*
X80763333Y-193183428D01*
X80810952Y-193278666D01*
X80858571Y-193326285D01*
X80953809Y-193373904D01*
X81191904Y-193373904D01*
X81287142Y-193326285D01*
X81334761Y-193278666D01*
X81382380Y-193183428D01*
X81382380Y-192897714D01*
X81334761Y-192802476D01*
X81287142Y-192754857D01*
%TO.C,R42*%
X84530357Y-184382380D02*
X84863690Y-183906190D01*
X85101785Y-184382380D02*
X85101785Y-183382380D01*
X84720833Y-183382380D01*
X84625595Y-183430000D01*
X84577976Y-183477619D01*
X84530357Y-183572857D01*
X84530357Y-183715714D01*
X84577976Y-183810952D01*
X84625595Y-183858571D01*
X84720833Y-183906190D01*
X85101785Y-183906190D01*
X83673214Y-183715714D02*
X83673214Y-184382380D01*
X83911309Y-183334761D02*
X84149404Y-184049047D01*
X83530357Y-184049047D01*
X83197023Y-183477619D02*
X83149404Y-183430000D01*
X83054166Y-183382380D01*
X82816071Y-183382380D01*
X82720833Y-183430000D01*
X82673214Y-183477619D01*
X82625595Y-183572857D01*
X82625595Y-183668095D01*
X82673214Y-183810952D01*
X83244642Y-184382380D01*
X82625595Y-184382380D01*
%TO.C,R39*%
X99452380Y-191420642D02*
X98976190Y-191087309D01*
X99452380Y-190849214D02*
X98452380Y-190849214D01*
X98452380Y-191230166D01*
X98500000Y-191325404D01*
X98547619Y-191373023D01*
X98642857Y-191420642D01*
X98785714Y-191420642D01*
X98880952Y-191373023D01*
X98928571Y-191325404D01*
X98976190Y-191230166D01*
X98976190Y-190849214D01*
X98452380Y-191753976D02*
X98452380Y-192373023D01*
X98833333Y-192039690D01*
X98833333Y-192182547D01*
X98880952Y-192277785D01*
X98928571Y-192325404D01*
X99023809Y-192373023D01*
X99261904Y-192373023D01*
X99357142Y-192325404D01*
X99404761Y-192277785D01*
X99452380Y-192182547D01*
X99452380Y-191896833D01*
X99404761Y-191801595D01*
X99357142Y-191753976D01*
X99452380Y-192849214D02*
X99452380Y-193039690D01*
X99404761Y-193134928D01*
X99357142Y-193182547D01*
X99214285Y-193277785D01*
X99023809Y-193325404D01*
X98642857Y-193325404D01*
X98547619Y-193277785D01*
X98500000Y-193230166D01*
X98452380Y-193134928D01*
X98452380Y-192944452D01*
X98500000Y-192849214D01*
X98547619Y-192801595D01*
X98642857Y-192753976D01*
X98880952Y-192753976D01*
X98976190Y-192801595D01*
X99023809Y-192849214D01*
X99071428Y-192944452D01*
X99071428Y-193134928D01*
X99023809Y-193230166D01*
X98976190Y-193277785D01*
X98880952Y-193325404D01*
%TO.C,R38*%
X94756857Y-184352380D02*
X95090190Y-183876190D01*
X95328285Y-184352380D02*
X95328285Y-183352380D01*
X94947333Y-183352380D01*
X94852095Y-183400000D01*
X94804476Y-183447619D01*
X94756857Y-183542857D01*
X94756857Y-183685714D01*
X94804476Y-183780952D01*
X94852095Y-183828571D01*
X94947333Y-183876190D01*
X95328285Y-183876190D01*
X94423523Y-183352380D02*
X93804476Y-183352380D01*
X94137809Y-183733333D01*
X93994952Y-183733333D01*
X93899714Y-183780952D01*
X93852095Y-183828571D01*
X93804476Y-183923809D01*
X93804476Y-184161904D01*
X93852095Y-184257142D01*
X93899714Y-184304761D01*
X93994952Y-184352380D01*
X94280666Y-184352380D01*
X94375904Y-184304761D01*
X94423523Y-184257142D01*
X93233047Y-183780952D02*
X93328285Y-183733333D01*
X93375904Y-183685714D01*
X93423523Y-183590476D01*
X93423523Y-183542857D01*
X93375904Y-183447619D01*
X93328285Y-183400000D01*
X93233047Y-183352380D01*
X93042571Y-183352380D01*
X92947333Y-183400000D01*
X92899714Y-183447619D01*
X92852095Y-183542857D01*
X92852095Y-183590476D01*
X92899714Y-183685714D01*
X92947333Y-183733333D01*
X93042571Y-183780952D01*
X93233047Y-183780952D01*
X93328285Y-183828571D01*
X93375904Y-183876190D01*
X93423523Y-183971428D01*
X93423523Y-184161904D01*
X93375904Y-184257142D01*
X93328285Y-184304761D01*
X93233047Y-184352380D01*
X93042571Y-184352380D01*
X92947333Y-184304761D01*
X92899714Y-184257142D01*
X92852095Y-184161904D01*
X92852095Y-183971428D01*
X92899714Y-183876190D01*
X92947333Y-183828571D01*
X93042571Y-183780952D01*
%TO.C,R35*%
X119382380Y-191569142D02*
X118906190Y-191235809D01*
X119382380Y-190997714D02*
X118382380Y-190997714D01*
X118382380Y-191378666D01*
X118430000Y-191473904D01*
X118477619Y-191521523D01*
X118572857Y-191569142D01*
X118715714Y-191569142D01*
X118810952Y-191521523D01*
X118858571Y-191473904D01*
X118906190Y-191378666D01*
X118906190Y-190997714D01*
X118382380Y-191902476D02*
X118382380Y-192521523D01*
X118763333Y-192188190D01*
X118763333Y-192331047D01*
X118810952Y-192426285D01*
X118858571Y-192473904D01*
X118953809Y-192521523D01*
X119191904Y-192521523D01*
X119287142Y-192473904D01*
X119334761Y-192426285D01*
X119382380Y-192331047D01*
X119382380Y-192045333D01*
X119334761Y-191950095D01*
X119287142Y-191902476D01*
X118382380Y-193426285D02*
X118382380Y-192950095D01*
X118858571Y-192902476D01*
X118810952Y-192950095D01*
X118763333Y-193045333D01*
X118763333Y-193283428D01*
X118810952Y-193378666D01*
X118858571Y-193426285D01*
X118953809Y-193473904D01*
X119191904Y-193473904D01*
X119287142Y-193426285D01*
X119334761Y-193378666D01*
X119382380Y-193283428D01*
X119382380Y-193045333D01*
X119334761Y-192950095D01*
X119287142Y-192902476D01*
%TO.C,R34*%
X131530857Y-178382380D02*
X131864190Y-177906190D01*
X132102285Y-178382380D02*
X132102285Y-177382380D01*
X131721333Y-177382380D01*
X131626095Y-177430000D01*
X131578476Y-177477619D01*
X131530857Y-177572857D01*
X131530857Y-177715714D01*
X131578476Y-177810952D01*
X131626095Y-177858571D01*
X131721333Y-177906190D01*
X132102285Y-177906190D01*
X131197523Y-177382380D02*
X130578476Y-177382380D01*
X130911809Y-177763333D01*
X130768952Y-177763333D01*
X130673714Y-177810952D01*
X130626095Y-177858571D01*
X130578476Y-177953809D01*
X130578476Y-178191904D01*
X130626095Y-178287142D01*
X130673714Y-178334761D01*
X130768952Y-178382380D01*
X131054666Y-178382380D01*
X131149904Y-178334761D01*
X131197523Y-178287142D01*
X129721333Y-177715714D02*
X129721333Y-178382380D01*
X129959428Y-177334761D02*
X130197523Y-178049047D01*
X129578476Y-178049047D01*
%TO.C,R31*%
X123382380Y-191569142D02*
X122906190Y-191235809D01*
X123382380Y-190997714D02*
X122382380Y-190997714D01*
X122382380Y-191378666D01*
X122430000Y-191473904D01*
X122477619Y-191521523D01*
X122572857Y-191569142D01*
X122715714Y-191569142D01*
X122810952Y-191521523D01*
X122858571Y-191473904D01*
X122906190Y-191378666D01*
X122906190Y-190997714D01*
X122382380Y-191902476D02*
X122382380Y-192521523D01*
X122763333Y-192188190D01*
X122763333Y-192331047D01*
X122810952Y-192426285D01*
X122858571Y-192473904D01*
X122953809Y-192521523D01*
X123191904Y-192521523D01*
X123287142Y-192473904D01*
X123334761Y-192426285D01*
X123382380Y-192331047D01*
X123382380Y-192045333D01*
X123334761Y-191950095D01*
X123287142Y-191902476D01*
X123382380Y-193473904D02*
X123382380Y-192902476D01*
X123382380Y-193188190D02*
X122382380Y-193188190D01*
X122525238Y-193092952D01*
X122620476Y-192997714D01*
X122668095Y-192902476D01*
%TO.C,R30*%
X131530857Y-181382380D02*
X131864190Y-180906190D01*
X132102285Y-181382380D02*
X132102285Y-180382380D01*
X131721333Y-180382380D01*
X131626095Y-180430000D01*
X131578476Y-180477619D01*
X131530857Y-180572857D01*
X131530857Y-180715714D01*
X131578476Y-180810952D01*
X131626095Y-180858571D01*
X131721333Y-180906190D01*
X132102285Y-180906190D01*
X131197523Y-180382380D02*
X130578476Y-180382380D01*
X130911809Y-180763333D01*
X130768952Y-180763333D01*
X130673714Y-180810952D01*
X130626095Y-180858571D01*
X130578476Y-180953809D01*
X130578476Y-181191904D01*
X130626095Y-181287142D01*
X130673714Y-181334761D01*
X130768952Y-181382380D01*
X131054666Y-181382380D01*
X131149904Y-181334761D01*
X131197523Y-181287142D01*
X129959428Y-180382380D02*
X129864190Y-180382380D01*
X129768952Y-180430000D01*
X129721333Y-180477619D01*
X129673714Y-180572857D01*
X129626095Y-180763333D01*
X129626095Y-181001428D01*
X129673714Y-181191904D01*
X129721333Y-181287142D01*
X129768952Y-181334761D01*
X129864190Y-181382380D01*
X129959428Y-181382380D01*
X130054666Y-181334761D01*
X130102285Y-181287142D01*
X130149904Y-181191904D01*
X130197523Y-181001428D01*
X130197523Y-180763333D01*
X130149904Y-180572857D01*
X130102285Y-180477619D01*
X130054666Y-180430000D01*
X129959428Y-180382380D01*
%TO.C,R27*%
X127382380Y-191569142D02*
X126906190Y-191235809D01*
X127382380Y-190997714D02*
X126382380Y-190997714D01*
X126382380Y-191378666D01*
X126430000Y-191473904D01*
X126477619Y-191521523D01*
X126572857Y-191569142D01*
X126715714Y-191569142D01*
X126810952Y-191521523D01*
X126858571Y-191473904D01*
X126906190Y-191378666D01*
X126906190Y-190997714D01*
X126477619Y-191950095D02*
X126430000Y-191997714D01*
X126382380Y-192092952D01*
X126382380Y-192331047D01*
X126430000Y-192426285D01*
X126477619Y-192473904D01*
X126572857Y-192521523D01*
X126668095Y-192521523D01*
X126810952Y-192473904D01*
X127382380Y-191902476D01*
X127382380Y-192521523D01*
X126382380Y-192854857D02*
X126382380Y-193521523D01*
X127382380Y-193092952D01*
%TO.C,R26*%
X131530857Y-184382380D02*
X131864190Y-183906190D01*
X132102285Y-184382380D02*
X132102285Y-183382380D01*
X131721333Y-183382380D01*
X131626095Y-183430000D01*
X131578476Y-183477619D01*
X131530857Y-183572857D01*
X131530857Y-183715714D01*
X131578476Y-183810952D01*
X131626095Y-183858571D01*
X131721333Y-183906190D01*
X132102285Y-183906190D01*
X131149904Y-183477619D02*
X131102285Y-183430000D01*
X131007047Y-183382380D01*
X130768952Y-183382380D01*
X130673714Y-183430000D01*
X130626095Y-183477619D01*
X130578476Y-183572857D01*
X130578476Y-183668095D01*
X130626095Y-183810952D01*
X131197523Y-184382380D01*
X130578476Y-184382380D01*
X129721333Y-183382380D02*
X129911809Y-183382380D01*
X130007047Y-183430000D01*
X130054666Y-183477619D01*
X130149904Y-183620476D01*
X130197523Y-183810952D01*
X130197523Y-184191904D01*
X130149904Y-184287142D01*
X130102285Y-184334761D01*
X130007047Y-184382380D01*
X129816571Y-184382380D01*
X129721333Y-184334761D01*
X129673714Y-184287142D01*
X129626095Y-184191904D01*
X129626095Y-183953809D01*
X129673714Y-183858571D01*
X129721333Y-183810952D01*
X129816571Y-183763333D01*
X130007047Y-183763333D01*
X130102285Y-183810952D01*
X130149904Y-183858571D01*
X130197523Y-183953809D01*
%TO.C,R23*%
X144452380Y-191420642D02*
X143976190Y-191087309D01*
X144452380Y-190849214D02*
X143452380Y-190849214D01*
X143452380Y-191230166D01*
X143500000Y-191325404D01*
X143547619Y-191373023D01*
X143642857Y-191420642D01*
X143785714Y-191420642D01*
X143880952Y-191373023D01*
X143928571Y-191325404D01*
X143976190Y-191230166D01*
X143976190Y-190849214D01*
X143547619Y-191801595D02*
X143500000Y-191849214D01*
X143452380Y-191944452D01*
X143452380Y-192182547D01*
X143500000Y-192277785D01*
X143547619Y-192325404D01*
X143642857Y-192373023D01*
X143738095Y-192373023D01*
X143880952Y-192325404D01*
X144452380Y-191753976D01*
X144452380Y-192373023D01*
X143452380Y-192706357D02*
X143452380Y-193325404D01*
X143833333Y-192992071D01*
X143833333Y-193134928D01*
X143880952Y-193230166D01*
X143928571Y-193277785D01*
X144023809Y-193325404D01*
X144261904Y-193325404D01*
X144357142Y-193277785D01*
X144404761Y-193230166D01*
X144452380Y-193134928D01*
X144452380Y-192849214D01*
X144404761Y-192753976D01*
X144357142Y-192706357D01*
%TO.C,R22*%
X141856357Y-178552380D02*
X142189690Y-178076190D01*
X142427785Y-178552380D02*
X142427785Y-177552380D01*
X142046833Y-177552380D01*
X141951595Y-177600000D01*
X141903976Y-177647619D01*
X141856357Y-177742857D01*
X141856357Y-177885714D01*
X141903976Y-177980952D01*
X141951595Y-178028571D01*
X142046833Y-178076190D01*
X142427785Y-178076190D01*
X141475404Y-177647619D02*
X141427785Y-177600000D01*
X141332547Y-177552380D01*
X141094452Y-177552380D01*
X140999214Y-177600000D01*
X140951595Y-177647619D01*
X140903976Y-177742857D01*
X140903976Y-177838095D01*
X140951595Y-177980952D01*
X141523023Y-178552380D01*
X140903976Y-178552380D01*
X140523023Y-177647619D02*
X140475404Y-177600000D01*
X140380166Y-177552380D01*
X140142071Y-177552380D01*
X140046833Y-177600000D01*
X139999214Y-177647619D01*
X139951595Y-177742857D01*
X139951595Y-177838095D01*
X139999214Y-177980952D01*
X140570642Y-178552380D01*
X139951595Y-178552380D01*
%TO.C,R17*%
X152452380Y-191420642D02*
X151976190Y-191087309D01*
X152452380Y-190849214D02*
X151452380Y-190849214D01*
X151452380Y-191230166D01*
X151500000Y-191325404D01*
X151547619Y-191373023D01*
X151642857Y-191420642D01*
X151785714Y-191420642D01*
X151880952Y-191373023D01*
X151928571Y-191325404D01*
X151976190Y-191230166D01*
X151976190Y-190849214D01*
X152452380Y-192373023D02*
X152452380Y-191801595D01*
X152452380Y-192087309D02*
X151452380Y-192087309D01*
X151595238Y-191992071D01*
X151690476Y-191896833D01*
X151738095Y-191801595D01*
X151452380Y-192706357D02*
X151452380Y-193373023D01*
X152452380Y-192944452D01*
%TO.C,R16*%
X141938357Y-184552380D02*
X142271690Y-184076190D01*
X142509785Y-184552380D02*
X142509785Y-183552380D01*
X142128833Y-183552380D01*
X142033595Y-183600000D01*
X141985976Y-183647619D01*
X141938357Y-183742857D01*
X141938357Y-183885714D01*
X141985976Y-183980952D01*
X142033595Y-184028571D01*
X142128833Y-184076190D01*
X142509785Y-184076190D01*
X140985976Y-184552380D02*
X141557404Y-184552380D01*
X141271690Y-184552380D02*
X141271690Y-183552380D01*
X141366928Y-183695238D01*
X141462166Y-183790476D01*
X141557404Y-183838095D01*
X140128833Y-183552380D02*
X140319309Y-183552380D01*
X140414547Y-183600000D01*
X140462166Y-183647619D01*
X140557404Y-183790476D01*
X140605023Y-183980952D01*
X140605023Y-184361904D01*
X140557404Y-184457142D01*
X140509785Y-184504761D01*
X140414547Y-184552380D01*
X140224071Y-184552380D01*
X140128833Y-184504761D01*
X140081214Y-184457142D01*
X140033595Y-184361904D01*
X140033595Y-184123809D01*
X140081214Y-184028571D01*
X140128833Y-183980952D01*
X140224071Y-183933333D01*
X140414547Y-183933333D01*
X140509785Y-183980952D01*
X140557404Y-184028571D01*
X140605023Y-184123809D01*
%TO.C,R2*%
X70166666Y-86882380D02*
X70500000Y-86406190D01*
X70738095Y-86882380D02*
X70738095Y-85882380D01*
X70357142Y-85882380D01*
X70261904Y-85930000D01*
X70214285Y-85977619D01*
X70166666Y-86072857D01*
X70166666Y-86215714D01*
X70214285Y-86310952D01*
X70261904Y-86358571D01*
X70357142Y-86406190D01*
X70738095Y-86406190D01*
X69785714Y-85977619D02*
X69738095Y-85930000D01*
X69642857Y-85882380D01*
X69404761Y-85882380D01*
X69309523Y-85930000D01*
X69261904Y-85977619D01*
X69214285Y-86072857D01*
X69214285Y-86168095D01*
X69261904Y-86310952D01*
X69833333Y-86882380D01*
X69214285Y-86882380D01*
%TO.C,R1*%
X74551666Y-86882380D02*
X74885000Y-86406190D01*
X75123095Y-86882380D02*
X75123095Y-85882380D01*
X74742142Y-85882380D01*
X74646904Y-85930000D01*
X74599285Y-85977619D01*
X74551666Y-86072857D01*
X74551666Y-86215714D01*
X74599285Y-86310952D01*
X74646904Y-86358571D01*
X74742142Y-86406190D01*
X75123095Y-86406190D01*
X73599285Y-86882380D02*
X74170714Y-86882380D01*
X73885000Y-86882380D02*
X73885000Y-85882380D01*
X73980238Y-86025238D01*
X74075476Y-86120476D01*
X74170714Y-86168095D01*
%TO.C,C18*%
X59631857Y-184357142D02*
X59679476Y-184404761D01*
X59822333Y-184452380D01*
X59917571Y-184452380D01*
X60060428Y-184404761D01*
X60155666Y-184309523D01*
X60203285Y-184214285D01*
X60250904Y-184023809D01*
X60250904Y-183880952D01*
X60203285Y-183690476D01*
X60155666Y-183595238D01*
X60060428Y-183500000D01*
X59917571Y-183452380D01*
X59822333Y-183452380D01*
X59679476Y-183500000D01*
X59631857Y-183547619D01*
X58679476Y-184452380D02*
X59250904Y-184452380D01*
X58965190Y-184452380D02*
X58965190Y-183452380D01*
X59060428Y-183595238D01*
X59155666Y-183690476D01*
X59250904Y-183738095D01*
X58108047Y-183880952D02*
X58203285Y-183833333D01*
X58250904Y-183785714D01*
X58298523Y-183690476D01*
X58298523Y-183642857D01*
X58250904Y-183547619D01*
X58203285Y-183500000D01*
X58108047Y-183452380D01*
X57917571Y-183452380D01*
X57822333Y-183500000D01*
X57774714Y-183547619D01*
X57727095Y-183642857D01*
X57727095Y-183690476D01*
X57774714Y-183785714D01*
X57822333Y-183833333D01*
X57917571Y-183880952D01*
X58108047Y-183880952D01*
X58203285Y-183928571D01*
X58250904Y-183976190D01*
X58298523Y-184071428D01*
X58298523Y-184261904D01*
X58250904Y-184357142D01*
X58203285Y-184404761D01*
X58108047Y-184452380D01*
X57917571Y-184452380D01*
X57822333Y-184404761D01*
X57774714Y-184357142D01*
X57727095Y-184261904D01*
X57727095Y-184071428D01*
X57774714Y-183976190D01*
X57822333Y-183928571D01*
X57917571Y-183880952D01*
%TO.C,C17*%
X70966142Y-164773142D02*
X71013761Y-164725523D01*
X71061380Y-164582666D01*
X71061380Y-164487428D01*
X71013761Y-164344571D01*
X70918523Y-164249333D01*
X70823285Y-164201714D01*
X70632809Y-164154095D01*
X70489952Y-164154095D01*
X70299476Y-164201714D01*
X70204238Y-164249333D01*
X70109000Y-164344571D01*
X70061380Y-164487428D01*
X70061380Y-164582666D01*
X70109000Y-164725523D01*
X70156619Y-164773142D01*
X71061380Y-165725523D02*
X71061380Y-165154095D01*
X71061380Y-165439809D02*
X70061380Y-165439809D01*
X70204238Y-165344571D01*
X70299476Y-165249333D01*
X70347095Y-165154095D01*
X70061380Y-166058857D02*
X70061380Y-166725523D01*
X71061380Y-166296952D01*
%TO.C,C16*%
X69705357Y-178327142D02*
X69752976Y-178374761D01*
X69895833Y-178422380D01*
X69991071Y-178422380D01*
X70133928Y-178374761D01*
X70229166Y-178279523D01*
X70276785Y-178184285D01*
X70324404Y-177993809D01*
X70324404Y-177850952D01*
X70276785Y-177660476D01*
X70229166Y-177565238D01*
X70133928Y-177470000D01*
X69991071Y-177422380D01*
X69895833Y-177422380D01*
X69752976Y-177470000D01*
X69705357Y-177517619D01*
X68752976Y-178422380D02*
X69324404Y-178422380D01*
X69038690Y-178422380D02*
X69038690Y-177422380D01*
X69133928Y-177565238D01*
X69229166Y-177660476D01*
X69324404Y-177708095D01*
X67895833Y-177422380D02*
X68086309Y-177422380D01*
X68181547Y-177470000D01*
X68229166Y-177517619D01*
X68324404Y-177660476D01*
X68372023Y-177850952D01*
X68372023Y-178231904D01*
X68324404Y-178327142D01*
X68276785Y-178374761D01*
X68181547Y-178422380D01*
X67991071Y-178422380D01*
X67895833Y-178374761D01*
X67848214Y-178327142D01*
X67800595Y-178231904D01*
X67800595Y-177993809D01*
X67848214Y-177898571D01*
X67895833Y-177850952D01*
X67991071Y-177803333D01*
X68181547Y-177803333D01*
X68276785Y-177850952D01*
X68324404Y-177898571D01*
X68372023Y-177993809D01*
%TO.C,C15*%
X69705357Y-181327142D02*
X69752976Y-181374761D01*
X69895833Y-181422380D01*
X69991071Y-181422380D01*
X70133928Y-181374761D01*
X70229166Y-181279523D01*
X70276785Y-181184285D01*
X70324404Y-180993809D01*
X70324404Y-180850952D01*
X70276785Y-180660476D01*
X70229166Y-180565238D01*
X70133928Y-180470000D01*
X69991071Y-180422380D01*
X69895833Y-180422380D01*
X69752976Y-180470000D01*
X69705357Y-180517619D01*
X68752976Y-181422380D02*
X69324404Y-181422380D01*
X69038690Y-181422380D02*
X69038690Y-180422380D01*
X69133928Y-180565238D01*
X69229166Y-180660476D01*
X69324404Y-180708095D01*
X67848214Y-180422380D02*
X68324404Y-180422380D01*
X68372023Y-180898571D01*
X68324404Y-180850952D01*
X68229166Y-180803333D01*
X67991071Y-180803333D01*
X67895833Y-180850952D01*
X67848214Y-180898571D01*
X67800595Y-180993809D01*
X67800595Y-181231904D01*
X67848214Y-181327142D01*
X67895833Y-181374761D01*
X67991071Y-181422380D01*
X68229166Y-181422380D01*
X68324404Y-181374761D01*
X68372023Y-181327142D01*
%TO.C,C14*%
X106378357Y-181357142D02*
X106425976Y-181404761D01*
X106568833Y-181452380D01*
X106664071Y-181452380D01*
X106806928Y-181404761D01*
X106902166Y-181309523D01*
X106949785Y-181214285D01*
X106997404Y-181023809D01*
X106997404Y-180880952D01*
X106949785Y-180690476D01*
X106902166Y-180595238D01*
X106806928Y-180500000D01*
X106664071Y-180452380D01*
X106568833Y-180452380D01*
X106425976Y-180500000D01*
X106378357Y-180547619D01*
X105425976Y-181452380D02*
X105997404Y-181452380D01*
X105711690Y-181452380D02*
X105711690Y-180452380D01*
X105806928Y-180595238D01*
X105902166Y-180690476D01*
X105997404Y-180738095D01*
X104568833Y-180785714D02*
X104568833Y-181452380D01*
X104806928Y-180404761D02*
X105045023Y-181119047D01*
X104425976Y-181119047D01*
%TO.C,C13*%
X106378357Y-178357142D02*
X106425976Y-178404761D01*
X106568833Y-178452380D01*
X106664071Y-178452380D01*
X106806928Y-178404761D01*
X106902166Y-178309523D01*
X106949785Y-178214285D01*
X106997404Y-178023809D01*
X106997404Y-177880952D01*
X106949785Y-177690476D01*
X106902166Y-177595238D01*
X106806928Y-177500000D01*
X106664071Y-177452380D01*
X106568833Y-177452380D01*
X106425976Y-177500000D01*
X106378357Y-177547619D01*
X105425976Y-178452380D02*
X105997404Y-178452380D01*
X105711690Y-178452380D02*
X105711690Y-177452380D01*
X105806928Y-177595238D01*
X105902166Y-177690476D01*
X105997404Y-177738095D01*
X105092642Y-177452380D02*
X104473595Y-177452380D01*
X104806928Y-177833333D01*
X104664071Y-177833333D01*
X104568833Y-177880952D01*
X104521214Y-177928571D01*
X104473595Y-178023809D01*
X104473595Y-178261904D01*
X104521214Y-178357142D01*
X104568833Y-178404761D01*
X104664071Y-178452380D01*
X104949785Y-178452380D01*
X105045023Y-178404761D01*
X105092642Y-178357142D01*
%TO.C,C12*%
X69705357Y-184327142D02*
X69752976Y-184374761D01*
X69895833Y-184422380D01*
X69991071Y-184422380D01*
X70133928Y-184374761D01*
X70229166Y-184279523D01*
X70276785Y-184184285D01*
X70324404Y-183993809D01*
X70324404Y-183850952D01*
X70276785Y-183660476D01*
X70229166Y-183565238D01*
X70133928Y-183470000D01*
X69991071Y-183422380D01*
X69895833Y-183422380D01*
X69752976Y-183470000D01*
X69705357Y-183517619D01*
X68752976Y-184422380D02*
X69324404Y-184422380D01*
X69038690Y-184422380D02*
X69038690Y-183422380D01*
X69133928Y-183565238D01*
X69229166Y-183660476D01*
X69324404Y-183708095D01*
X68372023Y-183517619D02*
X68324404Y-183470000D01*
X68229166Y-183422380D01*
X67991071Y-183422380D01*
X67895833Y-183470000D01*
X67848214Y-183517619D01*
X67800595Y-183612857D01*
X67800595Y-183708095D01*
X67848214Y-183850952D01*
X68419642Y-184422380D01*
X67800595Y-184422380D01*
%TO.C,C11*%
X106378357Y-184357142D02*
X106425976Y-184404761D01*
X106568833Y-184452380D01*
X106664071Y-184452380D01*
X106806928Y-184404761D01*
X106902166Y-184309523D01*
X106949785Y-184214285D01*
X106997404Y-184023809D01*
X106997404Y-183880952D01*
X106949785Y-183690476D01*
X106902166Y-183595238D01*
X106806928Y-183500000D01*
X106664071Y-183452380D01*
X106568833Y-183452380D01*
X106425976Y-183500000D01*
X106378357Y-183547619D01*
X105425976Y-184452380D02*
X105997404Y-184452380D01*
X105711690Y-184452380D02*
X105711690Y-183452380D01*
X105806928Y-183595238D01*
X105902166Y-183690476D01*
X105997404Y-183738095D01*
X104473595Y-184452380D02*
X105045023Y-184452380D01*
X104759309Y-184452380D02*
X104759309Y-183452380D01*
X104854547Y-183595238D01*
X104949785Y-183690476D01*
X105045023Y-183738095D01*
%TO.C,C10*%
X102329142Y-164773142D02*
X102376761Y-164725523D01*
X102424380Y-164582666D01*
X102424380Y-164487428D01*
X102376761Y-164344571D01*
X102281523Y-164249333D01*
X102186285Y-164201714D01*
X101995809Y-164154095D01*
X101852952Y-164154095D01*
X101662476Y-164201714D01*
X101567238Y-164249333D01*
X101472000Y-164344571D01*
X101424380Y-164487428D01*
X101424380Y-164582666D01*
X101472000Y-164725523D01*
X101519619Y-164773142D01*
X102424380Y-165725523D02*
X102424380Y-165154095D01*
X102424380Y-165439809D02*
X101424380Y-165439809D01*
X101567238Y-165344571D01*
X101662476Y-165249333D01*
X101710095Y-165154095D01*
X101424380Y-166344571D02*
X101424380Y-166439809D01*
X101472000Y-166535047D01*
X101519619Y-166582666D01*
X101614857Y-166630285D01*
X101805333Y-166677904D01*
X102043428Y-166677904D01*
X102233904Y-166630285D01*
X102329142Y-166582666D01*
X102376761Y-166535047D01*
X102424380Y-166439809D01*
X102424380Y-166344571D01*
X102376761Y-166249333D01*
X102329142Y-166201714D01*
X102233904Y-166154095D01*
X102043428Y-166106476D01*
X101805333Y-166106476D01*
X101614857Y-166154095D01*
X101519619Y-166201714D01*
X101472000Y-166249333D01*
X101424380Y-166344571D01*
%TO.C,C9*%
X115828666Y-178327142D02*
X115876285Y-178374761D01*
X116019142Y-178422380D01*
X116114380Y-178422380D01*
X116257238Y-178374761D01*
X116352476Y-178279523D01*
X116400095Y-178184285D01*
X116447714Y-177993809D01*
X116447714Y-177850952D01*
X116400095Y-177660476D01*
X116352476Y-177565238D01*
X116257238Y-177470000D01*
X116114380Y-177422380D01*
X116019142Y-177422380D01*
X115876285Y-177470000D01*
X115828666Y-177517619D01*
X115352476Y-178422380D02*
X115162000Y-178422380D01*
X115066761Y-178374761D01*
X115019142Y-178327142D01*
X114923904Y-178184285D01*
X114876285Y-177993809D01*
X114876285Y-177612857D01*
X114923904Y-177517619D01*
X114971523Y-177470000D01*
X115066761Y-177422380D01*
X115257238Y-177422380D01*
X115352476Y-177470000D01*
X115400095Y-177517619D01*
X115447714Y-177612857D01*
X115447714Y-177850952D01*
X115400095Y-177946190D01*
X115352476Y-177993809D01*
X115257238Y-178041428D01*
X115066761Y-178041428D01*
X114971523Y-177993809D01*
X114923904Y-177946190D01*
X114876285Y-177850952D01*
%TO.C,C8*%
X115828666Y-181327142D02*
X115876285Y-181374761D01*
X116019142Y-181422380D01*
X116114380Y-181422380D01*
X116257238Y-181374761D01*
X116352476Y-181279523D01*
X116400095Y-181184285D01*
X116447714Y-180993809D01*
X116447714Y-180850952D01*
X116400095Y-180660476D01*
X116352476Y-180565238D01*
X116257238Y-180470000D01*
X116114380Y-180422380D01*
X116019142Y-180422380D01*
X115876285Y-180470000D01*
X115828666Y-180517619D01*
X115257238Y-180850952D02*
X115352476Y-180803333D01*
X115400095Y-180755714D01*
X115447714Y-180660476D01*
X115447714Y-180612857D01*
X115400095Y-180517619D01*
X115352476Y-180470000D01*
X115257238Y-180422380D01*
X115066761Y-180422380D01*
X114971523Y-180470000D01*
X114923904Y-180517619D01*
X114876285Y-180612857D01*
X114876285Y-180660476D01*
X114923904Y-180755714D01*
X114971523Y-180803333D01*
X115066761Y-180850952D01*
X115257238Y-180850952D01*
X115352476Y-180898571D01*
X115400095Y-180946190D01*
X115447714Y-181041428D01*
X115447714Y-181231904D01*
X115400095Y-181327142D01*
X115352476Y-181374761D01*
X115257238Y-181422380D01*
X115066761Y-181422380D01*
X114971523Y-181374761D01*
X114923904Y-181327142D01*
X114876285Y-181231904D01*
X114876285Y-181041428D01*
X114923904Y-180946190D01*
X114971523Y-180898571D01*
X115066761Y-180850952D01*
%TO.C,C7*%
X115828666Y-184327142D02*
X115876285Y-184374761D01*
X116019142Y-184422380D01*
X116114380Y-184422380D01*
X116257238Y-184374761D01*
X116352476Y-184279523D01*
X116400095Y-184184285D01*
X116447714Y-183993809D01*
X116447714Y-183850952D01*
X116400095Y-183660476D01*
X116352476Y-183565238D01*
X116257238Y-183470000D01*
X116114380Y-183422380D01*
X116019142Y-183422380D01*
X115876285Y-183470000D01*
X115828666Y-183517619D01*
X115495333Y-183422380D02*
X114828666Y-183422380D01*
X115257238Y-184422380D01*
%TO.C,C6*%
X153445166Y-184357142D02*
X153492785Y-184404761D01*
X153635642Y-184452380D01*
X153730880Y-184452380D01*
X153873738Y-184404761D01*
X153968976Y-184309523D01*
X154016595Y-184214285D01*
X154064214Y-184023809D01*
X154064214Y-183880952D01*
X154016595Y-183690476D01*
X153968976Y-183595238D01*
X153873738Y-183500000D01*
X153730880Y-183452380D01*
X153635642Y-183452380D01*
X153492785Y-183500000D01*
X153445166Y-183547619D01*
X152588023Y-183452380D02*
X152778500Y-183452380D01*
X152873738Y-183500000D01*
X152921357Y-183547619D01*
X153016595Y-183690476D01*
X153064214Y-183880952D01*
X153064214Y-184261904D01*
X153016595Y-184357142D01*
X152968976Y-184404761D01*
X152873738Y-184452380D01*
X152683261Y-184452380D01*
X152588023Y-184404761D01*
X152540404Y-184357142D01*
X152492785Y-184261904D01*
X152492785Y-184023809D01*
X152540404Y-183928571D01*
X152588023Y-183880952D01*
X152683261Y-183833333D01*
X152873738Y-183833333D01*
X152968976Y-183880952D01*
X153016595Y-183928571D01*
X153064214Y-184023809D01*
%TO.C,C5*%
X137411142Y-165249333D02*
X137458761Y-165201714D01*
X137506380Y-165058857D01*
X137506380Y-164963619D01*
X137458761Y-164820761D01*
X137363523Y-164725523D01*
X137268285Y-164677904D01*
X137077809Y-164630285D01*
X136934952Y-164630285D01*
X136744476Y-164677904D01*
X136649238Y-164725523D01*
X136554000Y-164820761D01*
X136506380Y-164963619D01*
X136506380Y-165058857D01*
X136554000Y-165201714D01*
X136601619Y-165249333D01*
X136506380Y-166154095D02*
X136506380Y-165677904D01*
X136982571Y-165630285D01*
X136934952Y-165677904D01*
X136887333Y-165773142D01*
X136887333Y-166011238D01*
X136934952Y-166106476D01*
X136982571Y-166154095D01*
X137077809Y-166201714D01*
X137315904Y-166201714D01*
X137411142Y-166154095D01*
X137458761Y-166106476D01*
X137506380Y-166011238D01*
X137506380Y-165773142D01*
X137458761Y-165677904D01*
X137411142Y-165630285D01*
%TO.C,C3*%
X153445166Y-178357142D02*
X153492785Y-178404761D01*
X153635642Y-178452380D01*
X153730880Y-178452380D01*
X153873738Y-178404761D01*
X153968976Y-178309523D01*
X154016595Y-178214285D01*
X154064214Y-178023809D01*
X154064214Y-177880952D01*
X154016595Y-177690476D01*
X153968976Y-177595238D01*
X153873738Y-177500000D01*
X153730880Y-177452380D01*
X153635642Y-177452380D01*
X153492785Y-177500000D01*
X153445166Y-177547619D01*
X153111833Y-177452380D02*
X152492785Y-177452380D01*
X152826119Y-177833333D01*
X152683261Y-177833333D01*
X152588023Y-177880952D01*
X152540404Y-177928571D01*
X152492785Y-178023809D01*
X152492785Y-178261904D01*
X152540404Y-178357142D01*
X152588023Y-178404761D01*
X152683261Y-178452380D01*
X152968976Y-178452380D01*
X153064214Y-178404761D01*
X153111833Y-178357142D01*
%TO.C,C2*%
X153445166Y-181357142D02*
X153492785Y-181404761D01*
X153635642Y-181452380D01*
X153730880Y-181452380D01*
X153873738Y-181404761D01*
X153968976Y-181309523D01*
X154016595Y-181214285D01*
X154064214Y-181023809D01*
X154064214Y-180880952D01*
X154016595Y-180690476D01*
X153968976Y-180595238D01*
X153873738Y-180500000D01*
X153730880Y-180452380D01*
X153635642Y-180452380D01*
X153492785Y-180500000D01*
X153445166Y-180547619D01*
X153064214Y-180547619D02*
X153016595Y-180500000D01*
X152921357Y-180452380D01*
X152683261Y-180452380D01*
X152588023Y-180500000D01*
X152540404Y-180547619D01*
X152492785Y-180642857D01*
X152492785Y-180738095D01*
X152540404Y-180880952D01*
X153111833Y-181452380D01*
X152492785Y-181452380D01*
%TD*%
%LPC*%
D12*
%TO.C,MH2*%
X144000000Y-50000000D03*
%TD*%
%TO.C,MH1*%
X35000000Y-50000000D03*
%TD*%
%TO.C,MH6*%
X35000000Y-160000000D03*
%TD*%
%TO.C,MH5*%
X35000000Y-220000000D03*
%TD*%
%TO.C,MH3*%
X167500000Y-160000000D03*
%TD*%
%TO.C,MH4*%
X167500000Y-220000000D03*
%TD*%
D13*
%TO.C,SW1*%
X110000000Y-79852500D03*
X102380000Y-72232500D03*
X107460000Y-79852500D03*
X104920000Y-72232500D03*
X104920000Y-79852500D03*
X107460000Y-72232500D03*
X102380000Y-79852500D03*
D14*
X110000000Y-72232500D03*
%TD*%
D15*
%TO.C,J4*%
X139000000Y-103460000D03*
D16*
X139000000Y-106000000D03*
%TD*%
D17*
%TO.C,A1*%
X142320000Y-134190000D03*
X142320000Y-136730000D03*
X142320000Y-139270000D03*
D18*
X142320000Y-141810000D03*
D17*
X101680000Y-141810000D03*
X101680000Y-139270000D03*
X101680000Y-136730000D03*
X101680000Y-134190000D03*
%TD*%
D15*
%TO.C,J5*%
X132000000Y-115300000D03*
X129460000Y-115300000D03*
D16*
X126920000Y-115300000D03*
%TD*%
D19*
%TO.C,BZ2*%
X49500000Y-50502000D03*
D20*
X56000000Y-50502000D03*
%TD*%
%TO.C,U14*%
G36*
G01*
X66182000Y-162941000D02*
X65882000Y-162941000D01*
G75*
G02*
X65732000Y-162791000I0J150000D01*
G01*
X65732000Y-161116000D01*
G75*
G02*
X65882000Y-160966000I150000J0D01*
G01*
X66182000Y-160966000D01*
G75*
G02*
X66332000Y-161116000I0J-150000D01*
G01*
X66332000Y-162791000D01*
G75*
G02*
X66182000Y-162941000I-150000J0D01*
G01*
G37*
G36*
G01*
X64912000Y-162941000D02*
X64612000Y-162941000D01*
G75*
G02*
X64462000Y-162791000I0J150000D01*
G01*
X64462000Y-161116000D01*
G75*
G02*
X64612000Y-160966000I150000J0D01*
G01*
X64912000Y-160966000D01*
G75*
G02*
X65062000Y-161116000I0J-150000D01*
G01*
X65062000Y-162791000D01*
G75*
G02*
X64912000Y-162941000I-150000J0D01*
G01*
G37*
G36*
G01*
X63642000Y-162941000D02*
X63342000Y-162941000D01*
G75*
G02*
X63192000Y-162791000I0J150000D01*
G01*
X63192000Y-161116000D01*
G75*
G02*
X63342000Y-160966000I150000J0D01*
G01*
X63642000Y-160966000D01*
G75*
G02*
X63792000Y-161116000I0J-150000D01*
G01*
X63792000Y-162791000D01*
G75*
G02*
X63642000Y-162941000I-150000J0D01*
G01*
G37*
G36*
G01*
X62372000Y-162941000D02*
X62072000Y-162941000D01*
G75*
G02*
X61922000Y-162791000I0J150000D01*
G01*
X61922000Y-161116000D01*
G75*
G02*
X62072000Y-160966000I150000J0D01*
G01*
X62372000Y-160966000D01*
G75*
G02*
X62522000Y-161116000I0J-150000D01*
G01*
X62522000Y-162791000D01*
G75*
G02*
X62372000Y-162941000I-150000J0D01*
G01*
G37*
G36*
G01*
X61102000Y-162941000D02*
X60802000Y-162941000D01*
G75*
G02*
X60652000Y-162791000I0J150000D01*
G01*
X60652000Y-161116000D01*
G75*
G02*
X60802000Y-160966000I150000J0D01*
G01*
X61102000Y-160966000D01*
G75*
G02*
X61252000Y-161116000I0J-150000D01*
G01*
X61252000Y-162791000D01*
G75*
G02*
X61102000Y-162941000I-150000J0D01*
G01*
G37*
G36*
G01*
X59832000Y-162941000D02*
X59532000Y-162941000D01*
G75*
G02*
X59382000Y-162791000I0J150000D01*
G01*
X59382000Y-161116000D01*
G75*
G02*
X59532000Y-160966000I150000J0D01*
G01*
X59832000Y-160966000D01*
G75*
G02*
X59982000Y-161116000I0J-150000D01*
G01*
X59982000Y-162791000D01*
G75*
G02*
X59832000Y-162941000I-150000J0D01*
G01*
G37*
G36*
G01*
X58562000Y-162941000D02*
X58262000Y-162941000D01*
G75*
G02*
X58112000Y-162791000I0J150000D01*
G01*
X58112000Y-161116000D01*
G75*
G02*
X58262000Y-160966000I150000J0D01*
G01*
X58562000Y-160966000D01*
G75*
G02*
X58712000Y-161116000I0J-150000D01*
G01*
X58712000Y-162791000D01*
G75*
G02*
X58562000Y-162941000I-150000J0D01*
G01*
G37*
G36*
G01*
X58562000Y-169866000D02*
X58262000Y-169866000D01*
G75*
G02*
X58112000Y-169716000I0J150000D01*
G01*
X58112000Y-168041000D01*
G75*
G02*
X58262000Y-167891000I150000J0D01*
G01*
X58562000Y-167891000D01*
G75*
G02*
X58712000Y-168041000I0J-150000D01*
G01*
X58712000Y-169716000D01*
G75*
G02*
X58562000Y-169866000I-150000J0D01*
G01*
G37*
G36*
G01*
X59832000Y-169866000D02*
X59532000Y-169866000D01*
G75*
G02*
X59382000Y-169716000I0J150000D01*
G01*
X59382000Y-168041000D01*
G75*
G02*
X59532000Y-167891000I150000J0D01*
G01*
X59832000Y-167891000D01*
G75*
G02*
X59982000Y-168041000I0J-150000D01*
G01*
X59982000Y-169716000D01*
G75*
G02*
X59832000Y-169866000I-150000J0D01*
G01*
G37*
G36*
G01*
X61102000Y-169866000D02*
X60802000Y-169866000D01*
G75*
G02*
X60652000Y-169716000I0J150000D01*
G01*
X60652000Y-168041000D01*
G75*
G02*
X60802000Y-167891000I150000J0D01*
G01*
X61102000Y-167891000D01*
G75*
G02*
X61252000Y-168041000I0J-150000D01*
G01*
X61252000Y-169716000D01*
G75*
G02*
X61102000Y-169866000I-150000J0D01*
G01*
G37*
G36*
G01*
X62372000Y-169866000D02*
X62072000Y-169866000D01*
G75*
G02*
X61922000Y-169716000I0J150000D01*
G01*
X61922000Y-168041000D01*
G75*
G02*
X62072000Y-167891000I150000J0D01*
G01*
X62372000Y-167891000D01*
G75*
G02*
X62522000Y-168041000I0J-150000D01*
G01*
X62522000Y-169716000D01*
G75*
G02*
X62372000Y-169866000I-150000J0D01*
G01*
G37*
G36*
G01*
X63642000Y-169866000D02*
X63342000Y-169866000D01*
G75*
G02*
X63192000Y-169716000I0J150000D01*
G01*
X63192000Y-168041000D01*
G75*
G02*
X63342000Y-167891000I150000J0D01*
G01*
X63642000Y-167891000D01*
G75*
G02*
X63792000Y-168041000I0J-150000D01*
G01*
X63792000Y-169716000D01*
G75*
G02*
X63642000Y-169866000I-150000J0D01*
G01*
G37*
G36*
G01*
X64912000Y-169866000D02*
X64612000Y-169866000D01*
G75*
G02*
X64462000Y-169716000I0J150000D01*
G01*
X64462000Y-168041000D01*
G75*
G02*
X64612000Y-167891000I150000J0D01*
G01*
X64912000Y-167891000D01*
G75*
G02*
X65062000Y-168041000I0J-150000D01*
G01*
X65062000Y-169716000D01*
G75*
G02*
X64912000Y-169866000I-150000J0D01*
G01*
G37*
G36*
G01*
X66182000Y-169866000D02*
X65882000Y-169866000D01*
G75*
G02*
X65732000Y-169716000I0J150000D01*
G01*
X65732000Y-168041000D01*
G75*
G02*
X65882000Y-167891000I150000J0D01*
G01*
X66182000Y-167891000D01*
G75*
G02*
X66332000Y-168041000I0J-150000D01*
G01*
X66332000Y-169716000D01*
G75*
G02*
X66182000Y-169866000I-150000J0D01*
G01*
G37*
%TD*%
%TO.C,R74*%
G36*
G01*
X44487500Y-180762500D02*
X44487500Y-181237500D01*
G75*
G02*
X44250000Y-181475000I-237500J0D01*
G01*
X43750000Y-181475000D01*
G75*
G02*
X43512500Y-181237500I0J237500D01*
G01*
X43512500Y-180762500D01*
G75*
G02*
X43750000Y-180525000I237500J0D01*
G01*
X44250000Y-180525000D01*
G75*
G02*
X44487500Y-180762500I0J-237500D01*
G01*
G37*
G36*
G01*
X46312500Y-180762500D02*
X46312500Y-181237500D01*
G75*
G02*
X46075000Y-181475000I-237500J0D01*
G01*
X45575000Y-181475000D01*
G75*
G02*
X45337500Y-181237500I0J237500D01*
G01*
X45337500Y-180762500D01*
G75*
G02*
X45575000Y-180525000I237500J0D01*
G01*
X46075000Y-180525000D01*
G75*
G02*
X46312500Y-180762500I0J-237500D01*
G01*
G37*
%TD*%
%TO.C,R73*%
G36*
G01*
X44487500Y-177762500D02*
X44487500Y-178237500D01*
G75*
G02*
X44250000Y-178475000I-237500J0D01*
G01*
X43750000Y-178475000D01*
G75*
G02*
X43512500Y-178237500I0J237500D01*
G01*
X43512500Y-177762500D01*
G75*
G02*
X43750000Y-177525000I237500J0D01*
G01*
X44250000Y-177525000D01*
G75*
G02*
X44487500Y-177762500I0J-237500D01*
G01*
G37*
G36*
G01*
X46312500Y-177762500D02*
X46312500Y-178237500D01*
G75*
G02*
X46075000Y-178475000I-237500J0D01*
G01*
X45575000Y-178475000D01*
G75*
G02*
X45337500Y-178237500I0J237500D01*
G01*
X45337500Y-177762500D01*
G75*
G02*
X45575000Y-177525000I237500J0D01*
G01*
X46075000Y-177525000D01*
G75*
G02*
X46312500Y-177762500I0J-237500D01*
G01*
G37*
%TD*%
%TO.C,R72*%
G36*
G01*
X52762500Y-189337000D02*
X53237500Y-189337000D01*
G75*
G02*
X53475000Y-189574500I0J-237500D01*
G01*
X53475000Y-190074500D01*
G75*
G02*
X53237500Y-190312000I-237500J0D01*
G01*
X52762500Y-190312000D01*
G75*
G02*
X52525000Y-190074500I0J237500D01*
G01*
X52525000Y-189574500D01*
G75*
G02*
X52762500Y-189337000I237500J0D01*
G01*
G37*
G36*
G01*
X52762500Y-187512000D02*
X53237500Y-187512000D01*
G75*
G02*
X53475000Y-187749500I0J-237500D01*
G01*
X53475000Y-188249500D01*
G75*
G02*
X53237500Y-188487000I-237500J0D01*
G01*
X52762500Y-188487000D01*
G75*
G02*
X52525000Y-188249500I0J237500D01*
G01*
X52525000Y-187749500D01*
G75*
G02*
X52762500Y-187512000I237500J0D01*
G01*
G37*
%TD*%
%TO.C,R71*%
G36*
G01*
X48762500Y-189337000D02*
X49237500Y-189337000D01*
G75*
G02*
X49475000Y-189574500I0J-237500D01*
G01*
X49475000Y-190074500D01*
G75*
G02*
X49237500Y-190312000I-237500J0D01*
G01*
X48762500Y-190312000D01*
G75*
G02*
X48525000Y-190074500I0J237500D01*
G01*
X48525000Y-189574500D01*
G75*
G02*
X48762500Y-189337000I237500J0D01*
G01*
G37*
G36*
G01*
X48762500Y-187512000D02*
X49237500Y-187512000D01*
G75*
G02*
X49475000Y-187749500I0J-237500D01*
G01*
X49475000Y-188249500D01*
G75*
G02*
X49237500Y-188487000I-237500J0D01*
G01*
X48762500Y-188487000D01*
G75*
G02*
X48525000Y-188249500I0J237500D01*
G01*
X48525000Y-187749500D01*
G75*
G02*
X48762500Y-187512000I237500J0D01*
G01*
G37*
%TD*%
D15*
%TO.C,JP1*%
X136410000Y-96728000D03*
X136410000Y-94188000D03*
D16*
X136410000Y-91648000D03*
%TD*%
D21*
%TO.C,J12*%
X161960000Y-219570000D03*
X103040000Y-219570000D03*
X103040000Y-199540000D03*
X161960000Y-203600000D03*
X103705000Y-205850000D03*
G36*
G01*
X157140000Y-199915000D02*
X157140000Y-199165000D01*
G75*
G02*
X157515000Y-198790000I375000J0D01*
G01*
X158265000Y-198790000D01*
G75*
G02*
X158640000Y-199165000I0J-375000D01*
G01*
X158640000Y-199915000D01*
G75*
G02*
X158265000Y-200290000I-375000J0D01*
G01*
X157515000Y-200290000D01*
G75*
G02*
X157140000Y-199915000I0J375000D01*
G01*
G37*
D22*
X156630000Y-202080000D03*
X155350000Y-199540000D03*
X154090000Y-202080000D03*
X152810000Y-199540000D03*
X151550000Y-202080000D03*
X150270000Y-199540000D03*
X149010000Y-202080000D03*
X109640000Y-202080000D03*
X107100000Y-202080000D03*
X110900000Y-199540000D03*
G36*
G01*
X115230000Y-199915000D02*
X115230000Y-199165000D01*
G75*
G02*
X115605000Y-198790000I375000J0D01*
G01*
X116355000Y-198790000D01*
G75*
G02*
X116730000Y-199165000I0J-375000D01*
G01*
X116730000Y-199915000D01*
G75*
G02*
X116355000Y-200290000I-375000J0D01*
G01*
X115605000Y-200290000D01*
G75*
G02*
X115230000Y-199915000I0J375000D01*
G01*
G37*
X108360000Y-199540000D03*
X112180000Y-202080000D03*
X113440000Y-199540000D03*
X114720000Y-202080000D03*
X122330000Y-199540000D03*
G36*
G01*
X129200000Y-199915000D02*
X129200000Y-199165000D01*
G75*
G02*
X129575000Y-198790000I375000J0D01*
G01*
X130325000Y-198790000D01*
G75*
G02*
X130700000Y-199165000I0J-375000D01*
G01*
X130700000Y-199915000D01*
G75*
G02*
X130325000Y-200290000I-375000J0D01*
G01*
X129575000Y-200290000D01*
G75*
G02*
X129200000Y-199915000I0J375000D01*
G01*
G37*
X124870000Y-199540000D03*
X121070000Y-202080000D03*
X123610000Y-202080000D03*
X128690000Y-202080000D03*
X127410000Y-199540000D03*
X126150000Y-202080000D03*
X136300000Y-199540000D03*
G36*
G01*
X143170000Y-199915000D02*
X143170000Y-199165000D01*
G75*
G02*
X143545000Y-198790000I375000J0D01*
G01*
X144295000Y-198790000D01*
G75*
G02*
X144670000Y-199165000I0J-375000D01*
G01*
X144670000Y-199915000D01*
G75*
G02*
X144295000Y-200290000I-375000J0D01*
G01*
X143545000Y-200290000D01*
G75*
G02*
X143170000Y-199915000I0J375000D01*
G01*
G37*
X138840000Y-199540000D03*
X135040000Y-202080000D03*
X137580000Y-202080000D03*
X142660000Y-202080000D03*
X141380000Y-199540000D03*
X140120000Y-202080000D03*
X140120000Y-208650000D03*
X141380000Y-206110000D03*
X142660000Y-208650000D03*
X137580000Y-208650000D03*
G36*
G01*
X134290000Y-209149500D02*
X134290000Y-208150500D01*
G75*
G02*
X134540500Y-207900000I250500J0D01*
G01*
X135539500Y-207900000D01*
G75*
G02*
X135790000Y-208150500I0J-250500D01*
G01*
X135790000Y-209149500D01*
G75*
G02*
X135539500Y-209400000I-250500J0D01*
G01*
X134540500Y-209400000D01*
G75*
G02*
X134290000Y-209149500I0J250500D01*
G01*
G37*
X138840000Y-206110000D03*
X143920000Y-206110000D03*
X136300000Y-206110000D03*
X126150000Y-208650000D03*
X127410000Y-206110000D03*
X128690000Y-208650000D03*
X123610000Y-208650000D03*
G36*
G01*
X120320000Y-209149500D02*
X120320000Y-208150500D01*
G75*
G02*
X120570500Y-207900000I250500J0D01*
G01*
X121569500Y-207900000D01*
G75*
G02*
X121820000Y-208150500I0J-250500D01*
G01*
X121820000Y-209149500D01*
G75*
G02*
X121569500Y-209400000I-250500J0D01*
G01*
X120570500Y-209400000D01*
G75*
G02*
X120320000Y-209149500I0J250500D01*
G01*
G37*
X124870000Y-206110000D03*
X129950000Y-206110000D03*
X122330000Y-206110000D03*
X108360000Y-206110000D03*
X115980000Y-206110000D03*
X110900000Y-206110000D03*
G36*
G01*
X106350000Y-209149500D02*
X106350000Y-208150500D01*
G75*
G02*
X106600500Y-207900000I250500J0D01*
G01*
X107599500Y-207900000D01*
G75*
G02*
X107850000Y-208150500I0J-250500D01*
G01*
X107850000Y-209149500D01*
G75*
G02*
X107599500Y-209400000I-250500J0D01*
G01*
X106600500Y-209400000D01*
G75*
G02*
X106350000Y-209149500I0J250500D01*
G01*
G37*
X109640000Y-208650000D03*
X114720000Y-208650000D03*
X113440000Y-206110000D03*
X112180000Y-208650000D03*
G36*
G01*
X148260000Y-209149500D02*
X148260000Y-208150500D01*
G75*
G02*
X148510500Y-207900000I250500J0D01*
G01*
X149509500Y-207900000D01*
G75*
G02*
X149760000Y-208150500I0J-250500D01*
G01*
X149760000Y-209149500D01*
G75*
G02*
X149509500Y-209400000I-250500J0D01*
G01*
X148510500Y-209400000D01*
G75*
G02*
X148260000Y-209149500I0J250500D01*
G01*
G37*
X150270000Y-206110000D03*
X151550000Y-208650000D03*
X152810000Y-206110000D03*
X154090000Y-208650000D03*
X155350000Y-206110000D03*
X156630000Y-208650000D03*
X157890000Y-206110000D03*
D21*
X161295000Y-209150000D03*
D23*
X105830000Y-215000000D03*
X159170000Y-215000000D03*
%TD*%
D15*
%TO.C,J6*%
X130980000Y-94500000D03*
X128440000Y-94500000D03*
D16*
X125900000Y-94500000D03*
%TD*%
%TO.C,C34*%
G36*
G01*
X41205500Y-67790500D02*
X41205500Y-68265500D01*
G75*
G02*
X40968000Y-68503000I-237500J0D01*
G01*
X40368000Y-68503000D01*
G75*
G02*
X40130500Y-68265500I0J237500D01*
G01*
X40130500Y-67790500D01*
G75*
G02*
X40368000Y-67553000I237500J0D01*
G01*
X40968000Y-67553000D01*
G75*
G02*
X41205500Y-67790500I0J-237500D01*
G01*
G37*
G36*
G01*
X42930500Y-67790500D02*
X42930500Y-68265500D01*
G75*
G02*
X42693000Y-68503000I-237500J0D01*
G01*
X42093000Y-68503000D01*
G75*
G02*
X41855500Y-68265500I0J237500D01*
G01*
X41855500Y-67790500D01*
G75*
G02*
X42093000Y-67553000I237500J0D01*
G01*
X42693000Y-67553000D01*
G75*
G02*
X42930500Y-67790500I0J-237500D01*
G01*
G37*
%TD*%
%TO.C,C33*%
G36*
G01*
X34334500Y-113465000D02*
X34809500Y-113465000D01*
G75*
G02*
X35047000Y-113702500I0J-237500D01*
G01*
X35047000Y-114302500D01*
G75*
G02*
X34809500Y-114540000I-237500J0D01*
G01*
X34334500Y-114540000D01*
G75*
G02*
X34097000Y-114302500I0J237500D01*
G01*
X34097000Y-113702500D01*
G75*
G02*
X34334500Y-113465000I237500J0D01*
G01*
G37*
G36*
G01*
X34334500Y-111740000D02*
X34809500Y-111740000D01*
G75*
G02*
X35047000Y-111977500I0J-237500D01*
G01*
X35047000Y-112577500D01*
G75*
G02*
X34809500Y-112815000I-237500J0D01*
G01*
X34334500Y-112815000D01*
G75*
G02*
X34097000Y-112577500I0J237500D01*
G01*
X34097000Y-111977500D01*
G75*
G02*
X34334500Y-111740000I237500J0D01*
G01*
G37*
%TD*%
%TO.C,C32*%
G36*
G01*
X34809500Y-141813000D02*
X34334500Y-141813000D01*
G75*
G02*
X34097000Y-141575500I0J237500D01*
G01*
X34097000Y-140975500D01*
G75*
G02*
X34334500Y-140738000I237500J0D01*
G01*
X34809500Y-140738000D01*
G75*
G02*
X35047000Y-140975500I0J-237500D01*
G01*
X35047000Y-141575500D01*
G75*
G02*
X34809500Y-141813000I-237500J0D01*
G01*
G37*
G36*
G01*
X34809500Y-143538000D02*
X34334500Y-143538000D01*
G75*
G02*
X34097000Y-143300500I0J237500D01*
G01*
X34097000Y-142700500D01*
G75*
G02*
X34334500Y-142463000I237500J0D01*
G01*
X34809500Y-142463000D01*
G75*
G02*
X35047000Y-142700500I0J-237500D01*
G01*
X35047000Y-143300500D01*
G75*
G02*
X34809500Y-143538000I-237500J0D01*
G01*
G37*
%TD*%
%TO.C,C22*%
G36*
G01*
X62462500Y-181237500D02*
X62462500Y-180762500D01*
G75*
G02*
X62700000Y-180525000I237500J0D01*
G01*
X63300000Y-180525000D01*
G75*
G02*
X63537500Y-180762500I0J-237500D01*
G01*
X63537500Y-181237500D01*
G75*
G02*
X63300000Y-181475000I-237500J0D01*
G01*
X62700000Y-181475000D01*
G75*
G02*
X62462500Y-181237500I0J237500D01*
G01*
G37*
G36*
G01*
X60737500Y-181237500D02*
X60737500Y-180762500D01*
G75*
G02*
X60975000Y-180525000I237500J0D01*
G01*
X61575000Y-180525000D01*
G75*
G02*
X61812500Y-180762500I0J-237500D01*
G01*
X61812500Y-181237500D01*
G75*
G02*
X61575000Y-181475000I-237500J0D01*
G01*
X60975000Y-181475000D01*
G75*
G02*
X60737500Y-181237500I0J237500D01*
G01*
G37*
%TD*%
%TO.C,C21*%
G36*
G01*
X62462500Y-178237500D02*
X62462500Y-177762500D01*
G75*
G02*
X62700000Y-177525000I237500J0D01*
G01*
X63300000Y-177525000D01*
G75*
G02*
X63537500Y-177762500I0J-237500D01*
G01*
X63537500Y-178237500D01*
G75*
G02*
X63300000Y-178475000I-237500J0D01*
G01*
X62700000Y-178475000D01*
G75*
G02*
X62462500Y-178237500I0J237500D01*
G01*
G37*
G36*
G01*
X60737500Y-178237500D02*
X60737500Y-177762500D01*
G75*
G02*
X60975000Y-177525000I237500J0D01*
G01*
X61575000Y-177525000D01*
G75*
G02*
X61812500Y-177762500I0J-237500D01*
G01*
X61812500Y-178237500D01*
G75*
G02*
X61575000Y-178475000I-237500J0D01*
G01*
X60975000Y-178475000D01*
G75*
G02*
X60737500Y-178237500I0J237500D01*
G01*
G37*
%TD*%
%TO.C,R18*%
G36*
G01*
X137569000Y-180762500D02*
X137569000Y-181237500D01*
G75*
G02*
X137331500Y-181475000I-237500J0D01*
G01*
X136831500Y-181475000D01*
G75*
G02*
X136594000Y-181237500I0J237500D01*
G01*
X136594000Y-180762500D01*
G75*
G02*
X136831500Y-180525000I237500J0D01*
G01*
X137331500Y-180525000D01*
G75*
G02*
X137569000Y-180762500I0J-237500D01*
G01*
G37*
G36*
G01*
X139394000Y-180762500D02*
X139394000Y-181237500D01*
G75*
G02*
X139156500Y-181475000I-237500J0D01*
G01*
X138656500Y-181475000D01*
G75*
G02*
X138419000Y-181237500I0J237500D01*
G01*
X138419000Y-180762500D01*
G75*
G02*
X138656500Y-180525000I237500J0D01*
G01*
X139156500Y-180525000D01*
G75*
G02*
X139394000Y-180762500I0J-237500D01*
G01*
G37*
%TD*%
%TO.C,R19*%
G36*
G01*
X148237500Y-188487000D02*
X147762500Y-188487000D01*
G75*
G02*
X147525000Y-188249500I0J237500D01*
G01*
X147525000Y-187749500D01*
G75*
G02*
X147762500Y-187512000I237500J0D01*
G01*
X148237500Y-187512000D01*
G75*
G02*
X148475000Y-187749500I0J-237500D01*
G01*
X148475000Y-188249500D01*
G75*
G02*
X148237500Y-188487000I-237500J0D01*
G01*
G37*
G36*
G01*
X148237500Y-190312000D02*
X147762500Y-190312000D01*
G75*
G02*
X147525000Y-190074500I0J237500D01*
G01*
X147525000Y-189574500D01*
G75*
G02*
X147762500Y-189337000I237500J0D01*
G01*
X148237500Y-189337000D01*
G75*
G02*
X148475000Y-189574500I0J-237500D01*
G01*
X148475000Y-190074500D01*
G75*
G02*
X148237500Y-190312000I-237500J0D01*
G01*
G37*
%TD*%
D15*
%TO.C,J9*%
X116680000Y-94500000D03*
X114140000Y-94500000D03*
D16*
X111600000Y-94500000D03*
%TD*%
D15*
%TO.C,J8*%
X117620000Y-115270000D03*
X115080000Y-115270000D03*
X112540000Y-115270000D03*
D16*
X110000000Y-115270000D03*
%TD*%
D15*
%TO.C,J3*%
X114000000Y-103460000D03*
D16*
X114000000Y-106000000D03*
%TD*%
D15*
%TO.C,J2*%
X42000000Y-57540000D03*
D16*
X42000000Y-55000000D03*
%TD*%
D24*
%TO.C,U15*%
X34445000Y-105366000D03*
X36985000Y-105366000D03*
X39525000Y-105366000D03*
X42065000Y-105366000D03*
X44605000Y-105366000D03*
X47145000Y-105366000D03*
X49685000Y-105366000D03*
X52225000Y-105366000D03*
X54765000Y-105366000D03*
X57305000Y-105366000D03*
X59845000Y-105366000D03*
X62385000Y-105366000D03*
X64925000Y-105366000D03*
X67465000Y-105366000D03*
D14*
X34445000Y-120606000D03*
D24*
X36985000Y-120606000D03*
X39525000Y-120606000D03*
X42065000Y-120606000D03*
X44605000Y-120606000D03*
X47145000Y-120606000D03*
X49685000Y-120606000D03*
X52225000Y-120606000D03*
X54765000Y-120606000D03*
X57305000Y-120606000D03*
X59845000Y-120606000D03*
X62385000Y-120606000D03*
X64925000Y-120606000D03*
X70005000Y-105366000D03*
X72545000Y-105366000D03*
X75085000Y-105366000D03*
X77625000Y-105366000D03*
X80165000Y-105366000D03*
X82705000Y-105366000D03*
X85245000Y-105366000D03*
X87785000Y-105366000D03*
X90325000Y-105366000D03*
X92865000Y-105366000D03*
X92865000Y-120606000D03*
X90325000Y-120606000D03*
X87785000Y-120606000D03*
X85245000Y-120606000D03*
X67465000Y-120606000D03*
X70005000Y-120606000D03*
X72545000Y-120606000D03*
X82705000Y-120606000D03*
X80165000Y-120606000D03*
X77625000Y-120606000D03*
X75085000Y-120606000D03*
%TD*%
%TO.C,U10*%
G36*
G01*
X97556000Y-162941000D02*
X97256000Y-162941000D01*
G75*
G02*
X97106000Y-162791000I0J150000D01*
G01*
X97106000Y-161116000D01*
G75*
G02*
X97256000Y-160966000I150000J0D01*
G01*
X97556000Y-160966000D01*
G75*
G02*
X97706000Y-161116000I0J-150000D01*
G01*
X97706000Y-162791000D01*
G75*
G02*
X97556000Y-162941000I-150000J0D01*
G01*
G37*
G36*
G01*
X96286000Y-162941000D02*
X95986000Y-162941000D01*
G75*
G02*
X95836000Y-162791000I0J150000D01*
G01*
X95836000Y-161116000D01*
G75*
G02*
X95986000Y-160966000I150000J0D01*
G01*
X96286000Y-160966000D01*
G75*
G02*
X96436000Y-161116000I0J-150000D01*
G01*
X96436000Y-162791000D01*
G75*
G02*
X96286000Y-162941000I-150000J0D01*
G01*
G37*
G36*
G01*
X95016000Y-162941000D02*
X94716000Y-162941000D01*
G75*
G02*
X94566000Y-162791000I0J150000D01*
G01*
X94566000Y-161116000D01*
G75*
G02*
X94716000Y-160966000I150000J0D01*
G01*
X95016000Y-160966000D01*
G75*
G02*
X95166000Y-161116000I0J-150000D01*
G01*
X95166000Y-162791000D01*
G75*
G02*
X95016000Y-162941000I-150000J0D01*
G01*
G37*
G36*
G01*
X93746000Y-162941000D02*
X93446000Y-162941000D01*
G75*
G02*
X93296000Y-162791000I0J150000D01*
G01*
X93296000Y-161116000D01*
G75*
G02*
X93446000Y-160966000I150000J0D01*
G01*
X93746000Y-160966000D01*
G75*
G02*
X93896000Y-161116000I0J-150000D01*
G01*
X93896000Y-162791000D01*
G75*
G02*
X93746000Y-162941000I-150000J0D01*
G01*
G37*
G36*
G01*
X92476000Y-162941000D02*
X92176000Y-162941000D01*
G75*
G02*
X92026000Y-162791000I0J150000D01*
G01*
X92026000Y-161116000D01*
G75*
G02*
X92176000Y-160966000I150000J0D01*
G01*
X92476000Y-160966000D01*
G75*
G02*
X92626000Y-161116000I0J-150000D01*
G01*
X92626000Y-162791000D01*
G75*
G02*
X92476000Y-162941000I-150000J0D01*
G01*
G37*
G36*
G01*
X91206000Y-162941000D02*
X90906000Y-162941000D01*
G75*
G02*
X90756000Y-162791000I0J150000D01*
G01*
X90756000Y-161116000D01*
G75*
G02*
X90906000Y-160966000I150000J0D01*
G01*
X91206000Y-160966000D01*
G75*
G02*
X91356000Y-161116000I0J-150000D01*
G01*
X91356000Y-162791000D01*
G75*
G02*
X91206000Y-162941000I-150000J0D01*
G01*
G37*
G36*
G01*
X89936000Y-162941000D02*
X89636000Y-162941000D01*
G75*
G02*
X89486000Y-162791000I0J150000D01*
G01*
X89486000Y-161116000D01*
G75*
G02*
X89636000Y-160966000I150000J0D01*
G01*
X89936000Y-160966000D01*
G75*
G02*
X90086000Y-161116000I0J-150000D01*
G01*
X90086000Y-162791000D01*
G75*
G02*
X89936000Y-162941000I-150000J0D01*
G01*
G37*
G36*
G01*
X89936000Y-169866000D02*
X89636000Y-169866000D01*
G75*
G02*
X89486000Y-169716000I0J150000D01*
G01*
X89486000Y-168041000D01*
G75*
G02*
X89636000Y-167891000I150000J0D01*
G01*
X89936000Y-167891000D01*
G75*
G02*
X90086000Y-168041000I0J-150000D01*
G01*
X90086000Y-169716000D01*
G75*
G02*
X89936000Y-169866000I-150000J0D01*
G01*
G37*
G36*
G01*
X91206000Y-169866000D02*
X90906000Y-169866000D01*
G75*
G02*
X90756000Y-169716000I0J150000D01*
G01*
X90756000Y-168041000D01*
G75*
G02*
X90906000Y-167891000I150000J0D01*
G01*
X91206000Y-167891000D01*
G75*
G02*
X91356000Y-168041000I0J-150000D01*
G01*
X91356000Y-169716000D01*
G75*
G02*
X91206000Y-169866000I-150000J0D01*
G01*
G37*
G36*
G01*
X92476000Y-169866000D02*
X92176000Y-169866000D01*
G75*
G02*
X92026000Y-169716000I0J150000D01*
G01*
X92026000Y-168041000D01*
G75*
G02*
X92176000Y-167891000I150000J0D01*
G01*
X92476000Y-167891000D01*
G75*
G02*
X92626000Y-168041000I0J-150000D01*
G01*
X92626000Y-169716000D01*
G75*
G02*
X92476000Y-169866000I-150000J0D01*
G01*
G37*
G36*
G01*
X93746000Y-169866000D02*
X93446000Y-169866000D01*
G75*
G02*
X93296000Y-169716000I0J150000D01*
G01*
X93296000Y-168041000D01*
G75*
G02*
X93446000Y-167891000I150000J0D01*
G01*
X93746000Y-167891000D01*
G75*
G02*
X93896000Y-168041000I0J-150000D01*
G01*
X93896000Y-169716000D01*
G75*
G02*
X93746000Y-169866000I-150000J0D01*
G01*
G37*
G36*
G01*
X95016000Y-169866000D02*
X94716000Y-169866000D01*
G75*
G02*
X94566000Y-169716000I0J150000D01*
G01*
X94566000Y-168041000D01*
G75*
G02*
X94716000Y-167891000I150000J0D01*
G01*
X95016000Y-167891000D01*
G75*
G02*
X95166000Y-168041000I0J-150000D01*
G01*
X95166000Y-169716000D01*
G75*
G02*
X95016000Y-169866000I-150000J0D01*
G01*
G37*
G36*
G01*
X96286000Y-169866000D02*
X95986000Y-169866000D01*
G75*
G02*
X95836000Y-169716000I0J150000D01*
G01*
X95836000Y-168041000D01*
G75*
G02*
X95986000Y-167891000I150000J0D01*
G01*
X96286000Y-167891000D01*
G75*
G02*
X96436000Y-168041000I0J-150000D01*
G01*
X96436000Y-169716000D01*
G75*
G02*
X96286000Y-169866000I-150000J0D01*
G01*
G37*
G36*
G01*
X97556000Y-169866000D02*
X97256000Y-169866000D01*
G75*
G02*
X97106000Y-169716000I0J150000D01*
G01*
X97106000Y-168041000D01*
G75*
G02*
X97256000Y-167891000I150000J0D01*
G01*
X97556000Y-167891000D01*
G75*
G02*
X97706000Y-168041000I0J-150000D01*
G01*
X97706000Y-169716000D01*
G75*
G02*
X97556000Y-169866000I-150000J0D01*
G01*
G37*
%TD*%
%TO.C,U6*%
G36*
G01*
X132881000Y-162941000D02*
X132581000Y-162941000D01*
G75*
G02*
X132431000Y-162791000I0J150000D01*
G01*
X132431000Y-161116000D01*
G75*
G02*
X132581000Y-160966000I150000J0D01*
G01*
X132881000Y-160966000D01*
G75*
G02*
X133031000Y-161116000I0J-150000D01*
G01*
X133031000Y-162791000D01*
G75*
G02*
X132881000Y-162941000I-150000J0D01*
G01*
G37*
G36*
G01*
X131611000Y-162941000D02*
X131311000Y-162941000D01*
G75*
G02*
X131161000Y-162791000I0J150000D01*
G01*
X131161000Y-161116000D01*
G75*
G02*
X131311000Y-160966000I150000J0D01*
G01*
X131611000Y-160966000D01*
G75*
G02*
X131761000Y-161116000I0J-150000D01*
G01*
X131761000Y-162791000D01*
G75*
G02*
X131611000Y-162941000I-150000J0D01*
G01*
G37*
G36*
G01*
X130341000Y-162941000D02*
X130041000Y-162941000D01*
G75*
G02*
X129891000Y-162791000I0J150000D01*
G01*
X129891000Y-161116000D01*
G75*
G02*
X130041000Y-160966000I150000J0D01*
G01*
X130341000Y-160966000D01*
G75*
G02*
X130491000Y-161116000I0J-150000D01*
G01*
X130491000Y-162791000D01*
G75*
G02*
X130341000Y-162941000I-150000J0D01*
G01*
G37*
G36*
G01*
X129071000Y-162941000D02*
X128771000Y-162941000D01*
G75*
G02*
X128621000Y-162791000I0J150000D01*
G01*
X128621000Y-161116000D01*
G75*
G02*
X128771000Y-160966000I150000J0D01*
G01*
X129071000Y-160966000D01*
G75*
G02*
X129221000Y-161116000I0J-150000D01*
G01*
X129221000Y-162791000D01*
G75*
G02*
X129071000Y-162941000I-150000J0D01*
G01*
G37*
G36*
G01*
X127801000Y-162941000D02*
X127501000Y-162941000D01*
G75*
G02*
X127351000Y-162791000I0J150000D01*
G01*
X127351000Y-161116000D01*
G75*
G02*
X127501000Y-160966000I150000J0D01*
G01*
X127801000Y-160966000D01*
G75*
G02*
X127951000Y-161116000I0J-150000D01*
G01*
X127951000Y-162791000D01*
G75*
G02*
X127801000Y-162941000I-150000J0D01*
G01*
G37*
G36*
G01*
X126531000Y-162941000D02*
X126231000Y-162941000D01*
G75*
G02*
X126081000Y-162791000I0J150000D01*
G01*
X126081000Y-161116000D01*
G75*
G02*
X126231000Y-160966000I150000J0D01*
G01*
X126531000Y-160966000D01*
G75*
G02*
X126681000Y-161116000I0J-150000D01*
G01*
X126681000Y-162791000D01*
G75*
G02*
X126531000Y-162941000I-150000J0D01*
G01*
G37*
G36*
G01*
X125261000Y-162941000D02*
X124961000Y-162941000D01*
G75*
G02*
X124811000Y-162791000I0J150000D01*
G01*
X124811000Y-161116000D01*
G75*
G02*
X124961000Y-160966000I150000J0D01*
G01*
X125261000Y-160966000D01*
G75*
G02*
X125411000Y-161116000I0J-150000D01*
G01*
X125411000Y-162791000D01*
G75*
G02*
X125261000Y-162941000I-150000J0D01*
G01*
G37*
G36*
G01*
X125261000Y-169866000D02*
X124961000Y-169866000D01*
G75*
G02*
X124811000Y-169716000I0J150000D01*
G01*
X124811000Y-168041000D01*
G75*
G02*
X124961000Y-167891000I150000J0D01*
G01*
X125261000Y-167891000D01*
G75*
G02*
X125411000Y-168041000I0J-150000D01*
G01*
X125411000Y-169716000D01*
G75*
G02*
X125261000Y-169866000I-150000J0D01*
G01*
G37*
G36*
G01*
X126531000Y-169866000D02*
X126231000Y-169866000D01*
G75*
G02*
X126081000Y-169716000I0J150000D01*
G01*
X126081000Y-168041000D01*
G75*
G02*
X126231000Y-167891000I150000J0D01*
G01*
X126531000Y-167891000D01*
G75*
G02*
X126681000Y-168041000I0J-150000D01*
G01*
X126681000Y-169716000D01*
G75*
G02*
X126531000Y-169866000I-150000J0D01*
G01*
G37*
G36*
G01*
X127801000Y-169866000D02*
X127501000Y-169866000D01*
G75*
G02*
X127351000Y-169716000I0J150000D01*
G01*
X127351000Y-168041000D01*
G75*
G02*
X127501000Y-167891000I150000J0D01*
G01*
X127801000Y-167891000D01*
G75*
G02*
X127951000Y-168041000I0J-150000D01*
G01*
X127951000Y-169716000D01*
G75*
G02*
X127801000Y-169866000I-150000J0D01*
G01*
G37*
G36*
G01*
X129071000Y-169866000D02*
X128771000Y-169866000D01*
G75*
G02*
X128621000Y-169716000I0J150000D01*
G01*
X128621000Y-168041000D01*
G75*
G02*
X128771000Y-167891000I150000J0D01*
G01*
X129071000Y-167891000D01*
G75*
G02*
X129221000Y-168041000I0J-150000D01*
G01*
X129221000Y-169716000D01*
G75*
G02*
X129071000Y-169866000I-150000J0D01*
G01*
G37*
G36*
G01*
X130341000Y-169866000D02*
X130041000Y-169866000D01*
G75*
G02*
X129891000Y-169716000I0J150000D01*
G01*
X129891000Y-168041000D01*
G75*
G02*
X130041000Y-167891000I150000J0D01*
G01*
X130341000Y-167891000D01*
G75*
G02*
X130491000Y-168041000I0J-150000D01*
G01*
X130491000Y-169716000D01*
G75*
G02*
X130341000Y-169866000I-150000J0D01*
G01*
G37*
G36*
G01*
X131611000Y-169866000D02*
X131311000Y-169866000D01*
G75*
G02*
X131161000Y-169716000I0J150000D01*
G01*
X131161000Y-168041000D01*
G75*
G02*
X131311000Y-167891000I150000J0D01*
G01*
X131611000Y-167891000D01*
G75*
G02*
X131761000Y-168041000I0J-150000D01*
G01*
X131761000Y-169716000D01*
G75*
G02*
X131611000Y-169866000I-150000J0D01*
G01*
G37*
G36*
G01*
X132881000Y-169866000D02*
X132581000Y-169866000D01*
G75*
G02*
X132431000Y-169716000I0J150000D01*
G01*
X132431000Y-168041000D01*
G75*
G02*
X132581000Y-167891000I150000J0D01*
G01*
X132881000Y-167891000D01*
G75*
G02*
X133031000Y-168041000I0J-150000D01*
G01*
X133031000Y-169716000D01*
G75*
G02*
X132881000Y-169866000I-150000J0D01*
G01*
G37*
%TD*%
D25*
%TO.C,U2*%
X35028000Y-89110000D03*
X37568000Y-89110000D03*
X40108000Y-89110000D03*
X42648000Y-89110000D03*
X45188000Y-89110000D03*
X47728000Y-89110000D03*
X50268000Y-89110000D03*
X52808000Y-89110000D03*
X55348000Y-89110000D03*
X57888000Y-89110000D03*
X60428000Y-89110000D03*
X62968000Y-89110000D03*
X65508000Y-89110000D03*
X68048000Y-89110000D03*
X70588000Y-89110000D03*
X73128000Y-89110000D03*
X75668000Y-89110000D03*
X78208000Y-89110000D03*
X80748000Y-89110000D03*
X37568000Y-63710000D03*
X40108000Y-63710000D03*
X42648000Y-63710000D03*
X45188000Y-63710000D03*
X47728000Y-63710000D03*
X50268000Y-63710000D03*
X52808000Y-63710000D03*
X55348000Y-63710000D03*
X57888000Y-63710000D03*
X60428000Y-63710000D03*
X62968000Y-63710000D03*
X65508000Y-63710000D03*
X68048000Y-63710000D03*
X70588000Y-63710000D03*
X73128000Y-63710000D03*
X75668000Y-63710000D03*
X35028000Y-63710000D03*
X78208000Y-63710000D03*
D26*
X80748000Y-63710000D03*
%TD*%
%TO.C,R63*%
G36*
G01*
X57237500Y-188487000D02*
X56762500Y-188487000D01*
G75*
G02*
X56525000Y-188249500I0J237500D01*
G01*
X56525000Y-187749500D01*
G75*
G02*
X56762500Y-187512000I237500J0D01*
G01*
X57237500Y-187512000D01*
G75*
G02*
X57475000Y-187749500I0J-237500D01*
G01*
X57475000Y-188249500D01*
G75*
G02*
X57237500Y-188487000I-237500J0D01*
G01*
G37*
G36*
G01*
X57237500Y-190312000D02*
X56762500Y-190312000D01*
G75*
G02*
X56525000Y-190074500I0J237500D01*
G01*
X56525000Y-189574500D01*
G75*
G02*
X56762500Y-189337000I237500J0D01*
G01*
X57237500Y-189337000D01*
G75*
G02*
X57475000Y-189574500I0J-237500D01*
G01*
X57475000Y-190074500D01*
G75*
G02*
X57237500Y-190312000I-237500J0D01*
G01*
G37*
%TD*%
%TO.C,R62*%
G36*
G01*
X44487500Y-183762500D02*
X44487500Y-184237500D01*
G75*
G02*
X44250000Y-184475000I-237500J0D01*
G01*
X43750000Y-184475000D01*
G75*
G02*
X43512500Y-184237500I0J237500D01*
G01*
X43512500Y-183762500D01*
G75*
G02*
X43750000Y-183525000I237500J0D01*
G01*
X44250000Y-183525000D01*
G75*
G02*
X44487500Y-183762500I0J-237500D01*
G01*
G37*
G36*
G01*
X46312500Y-183762500D02*
X46312500Y-184237500D01*
G75*
G02*
X46075000Y-184475000I-237500J0D01*
G01*
X45575000Y-184475000D01*
G75*
G02*
X45337500Y-184237500I0J237500D01*
G01*
X45337500Y-183762500D01*
G75*
G02*
X45575000Y-183525000I237500J0D01*
G01*
X46075000Y-183525000D01*
G75*
G02*
X46312500Y-183762500I0J-237500D01*
G01*
G37*
%TD*%
%TO.C,R59*%
G36*
G01*
X73237500Y-188487000D02*
X72762500Y-188487000D01*
G75*
G02*
X72525000Y-188249500I0J237500D01*
G01*
X72525000Y-187749500D01*
G75*
G02*
X72762500Y-187512000I237500J0D01*
G01*
X73237500Y-187512000D01*
G75*
G02*
X73475000Y-187749500I0J-237500D01*
G01*
X73475000Y-188249500D01*
G75*
G02*
X73237500Y-188487000I-237500J0D01*
G01*
G37*
G36*
G01*
X73237500Y-190312000D02*
X72762500Y-190312000D01*
G75*
G02*
X72525000Y-190074500I0J237500D01*
G01*
X72525000Y-189574500D01*
G75*
G02*
X72762500Y-189337000I237500J0D01*
G01*
X73237500Y-189337000D01*
G75*
G02*
X73475000Y-189574500I0J-237500D01*
G01*
X73475000Y-190074500D01*
G75*
G02*
X73237500Y-190312000I-237500J0D01*
G01*
G37*
%TD*%
%TO.C,R58*%
G36*
G01*
X87512500Y-178237500D02*
X87512500Y-177762500D01*
G75*
G02*
X87750000Y-177525000I237500J0D01*
G01*
X88250000Y-177525000D01*
G75*
G02*
X88487500Y-177762500I0J-237500D01*
G01*
X88487500Y-178237500D01*
G75*
G02*
X88250000Y-178475000I-237500J0D01*
G01*
X87750000Y-178475000D01*
G75*
G02*
X87512500Y-178237500I0J237500D01*
G01*
G37*
G36*
G01*
X85687500Y-178237500D02*
X85687500Y-177762500D01*
G75*
G02*
X85925000Y-177525000I237500J0D01*
G01*
X86425000Y-177525000D01*
G75*
G02*
X86662500Y-177762500I0J-237500D01*
G01*
X86662500Y-178237500D01*
G75*
G02*
X86425000Y-178475000I-237500J0D01*
G01*
X85925000Y-178475000D01*
G75*
G02*
X85687500Y-178237500I0J237500D01*
G01*
G37*
%TD*%
%TO.C,R55*%
G36*
G01*
X77237500Y-188487000D02*
X76762500Y-188487000D01*
G75*
G02*
X76525000Y-188249500I0J237500D01*
G01*
X76525000Y-187749500D01*
G75*
G02*
X76762500Y-187512000I237500J0D01*
G01*
X77237500Y-187512000D01*
G75*
G02*
X77475000Y-187749500I0J-237500D01*
G01*
X77475000Y-188249500D01*
G75*
G02*
X77237500Y-188487000I-237500J0D01*
G01*
G37*
G36*
G01*
X77237500Y-190312000D02*
X76762500Y-190312000D01*
G75*
G02*
X76525000Y-190074500I0J237500D01*
G01*
X76525000Y-189574500D01*
G75*
G02*
X76762500Y-189337000I237500J0D01*
G01*
X77237500Y-189337000D01*
G75*
G02*
X77475000Y-189574500I0J-237500D01*
G01*
X77475000Y-190074500D01*
G75*
G02*
X77237500Y-190312000I-237500J0D01*
G01*
G37*
%TD*%
%TO.C,R54*%
G36*
G01*
X87512500Y-181237500D02*
X87512500Y-180762500D01*
G75*
G02*
X87750000Y-180525000I237500J0D01*
G01*
X88250000Y-180525000D01*
G75*
G02*
X88487500Y-180762500I0J-237500D01*
G01*
X88487500Y-181237500D01*
G75*
G02*
X88250000Y-181475000I-237500J0D01*
G01*
X87750000Y-181475000D01*
G75*
G02*
X87512500Y-181237500I0J237500D01*
G01*
G37*
G36*
G01*
X85687500Y-181237500D02*
X85687500Y-180762500D01*
G75*
G02*
X85925000Y-180525000I237500J0D01*
G01*
X86425000Y-180525000D01*
G75*
G02*
X86662500Y-180762500I0J-237500D01*
G01*
X86662500Y-181237500D01*
G75*
G02*
X86425000Y-181475000I-237500J0D01*
G01*
X85925000Y-181475000D01*
G75*
G02*
X85687500Y-181237500I0J237500D01*
G01*
G37*
%TD*%
%TO.C,R51*%
G36*
G01*
X103237500Y-188487000D02*
X102762500Y-188487000D01*
G75*
G02*
X102525000Y-188249500I0J237500D01*
G01*
X102525000Y-187749500D01*
G75*
G02*
X102762500Y-187512000I237500J0D01*
G01*
X103237500Y-187512000D01*
G75*
G02*
X103475000Y-187749500I0J-237500D01*
G01*
X103475000Y-188249500D01*
G75*
G02*
X103237500Y-188487000I-237500J0D01*
G01*
G37*
G36*
G01*
X103237500Y-190312000D02*
X102762500Y-190312000D01*
G75*
G02*
X102525000Y-190074500I0J237500D01*
G01*
X102525000Y-189574500D01*
G75*
G02*
X102762500Y-189337000I237500J0D01*
G01*
X103237500Y-189337000D01*
G75*
G02*
X103475000Y-189574500I0J-237500D01*
G01*
X103475000Y-190074500D01*
G75*
G02*
X103237500Y-190312000I-237500J0D01*
G01*
G37*
%TD*%
%TO.C,R50*%
G36*
G01*
X90487500Y-180762500D02*
X90487500Y-181237500D01*
G75*
G02*
X90250000Y-181475000I-237500J0D01*
G01*
X89750000Y-181475000D01*
G75*
G02*
X89512500Y-181237500I0J237500D01*
G01*
X89512500Y-180762500D01*
G75*
G02*
X89750000Y-180525000I237500J0D01*
G01*
X90250000Y-180525000D01*
G75*
G02*
X90487500Y-180762500I0J-237500D01*
G01*
G37*
G36*
G01*
X92312500Y-180762500D02*
X92312500Y-181237500D01*
G75*
G02*
X92075000Y-181475000I-237500J0D01*
G01*
X91575000Y-181475000D01*
G75*
G02*
X91337500Y-181237500I0J237500D01*
G01*
X91337500Y-180762500D01*
G75*
G02*
X91575000Y-180525000I237500J0D01*
G01*
X92075000Y-180525000D01*
G75*
G02*
X92312500Y-180762500I0J-237500D01*
G01*
G37*
%TD*%
%TO.C,R47*%
G36*
G01*
X95237500Y-188487000D02*
X94762500Y-188487000D01*
G75*
G02*
X94525000Y-188249500I0J237500D01*
G01*
X94525000Y-187749500D01*
G75*
G02*
X94762500Y-187512000I237500J0D01*
G01*
X95237500Y-187512000D01*
G75*
G02*
X95475000Y-187749500I0J-237500D01*
G01*
X95475000Y-188249500D01*
G75*
G02*
X95237500Y-188487000I-237500J0D01*
G01*
G37*
G36*
G01*
X95237500Y-190312000D02*
X94762500Y-190312000D01*
G75*
G02*
X94525000Y-190074500I0J237500D01*
G01*
X94525000Y-189574500D01*
G75*
G02*
X94762500Y-189337000I237500J0D01*
G01*
X95237500Y-189337000D01*
G75*
G02*
X95475000Y-189574500I0J-237500D01*
G01*
X95475000Y-190074500D01*
G75*
G02*
X95237500Y-190312000I-237500J0D01*
G01*
G37*
%TD*%
%TO.C,R46*%
G36*
G01*
X90487500Y-177762500D02*
X90487500Y-178237500D01*
G75*
G02*
X90250000Y-178475000I-237500J0D01*
G01*
X89750000Y-178475000D01*
G75*
G02*
X89512500Y-178237500I0J237500D01*
G01*
X89512500Y-177762500D01*
G75*
G02*
X89750000Y-177525000I237500J0D01*
G01*
X90250000Y-177525000D01*
G75*
G02*
X90487500Y-177762500I0J-237500D01*
G01*
G37*
G36*
G01*
X92312500Y-177762500D02*
X92312500Y-178237500D01*
G75*
G02*
X92075000Y-178475000I-237500J0D01*
G01*
X91575000Y-178475000D01*
G75*
G02*
X91337500Y-178237500I0J237500D01*
G01*
X91337500Y-177762500D01*
G75*
G02*
X91575000Y-177525000I237500J0D01*
G01*
X92075000Y-177525000D01*
G75*
G02*
X92312500Y-177762500I0J-237500D01*
G01*
G37*
%TD*%
%TO.C,R43*%
G36*
G01*
X81237500Y-188487000D02*
X80762500Y-188487000D01*
G75*
G02*
X80525000Y-188249500I0J237500D01*
G01*
X80525000Y-187749500D01*
G75*
G02*
X80762500Y-187512000I237500J0D01*
G01*
X81237500Y-187512000D01*
G75*
G02*
X81475000Y-187749500I0J-237500D01*
G01*
X81475000Y-188249500D01*
G75*
G02*
X81237500Y-188487000I-237500J0D01*
G01*
G37*
G36*
G01*
X81237500Y-190312000D02*
X80762500Y-190312000D01*
G75*
G02*
X80525000Y-190074500I0J237500D01*
G01*
X80525000Y-189574500D01*
G75*
G02*
X80762500Y-189337000I237500J0D01*
G01*
X81237500Y-189337000D01*
G75*
G02*
X81475000Y-189574500I0J-237500D01*
G01*
X81475000Y-190074500D01*
G75*
G02*
X81237500Y-190312000I-237500J0D01*
G01*
G37*
%TD*%
%TO.C,R42*%
G36*
G01*
X87512500Y-184237500D02*
X87512500Y-183762500D01*
G75*
G02*
X87750000Y-183525000I237500J0D01*
G01*
X88250000Y-183525000D01*
G75*
G02*
X88487500Y-183762500I0J-237500D01*
G01*
X88487500Y-184237500D01*
G75*
G02*
X88250000Y-184475000I-237500J0D01*
G01*
X87750000Y-184475000D01*
G75*
G02*
X87512500Y-184237500I0J237500D01*
G01*
G37*
G36*
G01*
X85687500Y-184237500D02*
X85687500Y-183762500D01*
G75*
G02*
X85925000Y-183525000I237500J0D01*
G01*
X86425000Y-183525000D01*
G75*
G02*
X86662500Y-183762500I0J-237500D01*
G01*
X86662500Y-184237500D01*
G75*
G02*
X86425000Y-184475000I-237500J0D01*
G01*
X85925000Y-184475000D01*
G75*
G02*
X85687500Y-184237500I0J237500D01*
G01*
G37*
%TD*%
%TO.C,R39*%
G36*
G01*
X99237500Y-188487000D02*
X98762500Y-188487000D01*
G75*
G02*
X98525000Y-188249500I0J237500D01*
G01*
X98525000Y-187749500D01*
G75*
G02*
X98762500Y-187512000I237500J0D01*
G01*
X99237500Y-187512000D01*
G75*
G02*
X99475000Y-187749500I0J-237500D01*
G01*
X99475000Y-188249500D01*
G75*
G02*
X99237500Y-188487000I-237500J0D01*
G01*
G37*
G36*
G01*
X99237500Y-190312000D02*
X98762500Y-190312000D01*
G75*
G02*
X98525000Y-190074500I0J237500D01*
G01*
X98525000Y-189574500D01*
G75*
G02*
X98762500Y-189337000I237500J0D01*
G01*
X99237500Y-189337000D01*
G75*
G02*
X99475000Y-189574500I0J-237500D01*
G01*
X99475000Y-190074500D01*
G75*
G02*
X99237500Y-190312000I-237500J0D01*
G01*
G37*
%TD*%
%TO.C,R38*%
G36*
G01*
X90487500Y-183762500D02*
X90487500Y-184237500D01*
G75*
G02*
X90250000Y-184475000I-237500J0D01*
G01*
X89750000Y-184475000D01*
G75*
G02*
X89512500Y-184237500I0J237500D01*
G01*
X89512500Y-183762500D01*
G75*
G02*
X89750000Y-183525000I237500J0D01*
G01*
X90250000Y-183525000D01*
G75*
G02*
X90487500Y-183762500I0J-237500D01*
G01*
G37*
G36*
G01*
X92312500Y-183762500D02*
X92312500Y-184237500D01*
G75*
G02*
X92075000Y-184475000I-237500J0D01*
G01*
X91575000Y-184475000D01*
G75*
G02*
X91337500Y-184237500I0J237500D01*
G01*
X91337500Y-183762500D01*
G75*
G02*
X91575000Y-183525000I237500J0D01*
G01*
X92075000Y-183525000D01*
G75*
G02*
X92312500Y-183762500I0J-237500D01*
G01*
G37*
%TD*%
%TO.C,R35*%
G36*
G01*
X119237500Y-188487000D02*
X118762500Y-188487000D01*
G75*
G02*
X118525000Y-188249500I0J237500D01*
G01*
X118525000Y-187749500D01*
G75*
G02*
X118762500Y-187512000I237500J0D01*
G01*
X119237500Y-187512000D01*
G75*
G02*
X119475000Y-187749500I0J-237500D01*
G01*
X119475000Y-188249500D01*
G75*
G02*
X119237500Y-188487000I-237500J0D01*
G01*
G37*
G36*
G01*
X119237500Y-190312000D02*
X118762500Y-190312000D01*
G75*
G02*
X118525000Y-190074500I0J237500D01*
G01*
X118525000Y-189574500D01*
G75*
G02*
X118762500Y-189337000I237500J0D01*
G01*
X119237500Y-189337000D01*
G75*
G02*
X119475000Y-189574500I0J-237500D01*
G01*
X119475000Y-190074500D01*
G75*
G02*
X119237500Y-190312000I-237500J0D01*
G01*
G37*
%TD*%
%TO.C,R34*%
G36*
G01*
X134513000Y-178237500D02*
X134513000Y-177762500D01*
G75*
G02*
X134750500Y-177525000I237500J0D01*
G01*
X135250500Y-177525000D01*
G75*
G02*
X135488000Y-177762500I0J-237500D01*
G01*
X135488000Y-178237500D01*
G75*
G02*
X135250500Y-178475000I-237500J0D01*
G01*
X134750500Y-178475000D01*
G75*
G02*
X134513000Y-178237500I0J237500D01*
G01*
G37*
G36*
G01*
X132688000Y-178237500D02*
X132688000Y-177762500D01*
G75*
G02*
X132925500Y-177525000I237500J0D01*
G01*
X133425500Y-177525000D01*
G75*
G02*
X133663000Y-177762500I0J-237500D01*
G01*
X133663000Y-178237500D01*
G75*
G02*
X133425500Y-178475000I-237500J0D01*
G01*
X132925500Y-178475000D01*
G75*
G02*
X132688000Y-178237500I0J237500D01*
G01*
G37*
%TD*%
%TO.C,R31*%
G36*
G01*
X123237500Y-188487000D02*
X122762500Y-188487000D01*
G75*
G02*
X122525000Y-188249500I0J237500D01*
G01*
X122525000Y-187749500D01*
G75*
G02*
X122762500Y-187512000I237500J0D01*
G01*
X123237500Y-187512000D01*
G75*
G02*
X123475000Y-187749500I0J-237500D01*
G01*
X123475000Y-188249500D01*
G75*
G02*
X123237500Y-188487000I-237500J0D01*
G01*
G37*
G36*
G01*
X123237500Y-190312000D02*
X122762500Y-190312000D01*
G75*
G02*
X122525000Y-190074500I0J237500D01*
G01*
X122525000Y-189574500D01*
G75*
G02*
X122762500Y-189337000I237500J0D01*
G01*
X123237500Y-189337000D01*
G75*
G02*
X123475000Y-189574500I0J-237500D01*
G01*
X123475000Y-190074500D01*
G75*
G02*
X123237500Y-190312000I-237500J0D01*
G01*
G37*
%TD*%
%TO.C,R30*%
G36*
G01*
X134513000Y-181237500D02*
X134513000Y-180762500D01*
G75*
G02*
X134750500Y-180525000I237500J0D01*
G01*
X135250500Y-180525000D01*
G75*
G02*
X135488000Y-180762500I0J-237500D01*
G01*
X135488000Y-181237500D01*
G75*
G02*
X135250500Y-181475000I-237500J0D01*
G01*
X134750500Y-181475000D01*
G75*
G02*
X134513000Y-181237500I0J237500D01*
G01*
G37*
G36*
G01*
X132688000Y-181237500D02*
X132688000Y-180762500D01*
G75*
G02*
X132925500Y-180525000I237500J0D01*
G01*
X133425500Y-180525000D01*
G75*
G02*
X133663000Y-180762500I0J-237500D01*
G01*
X133663000Y-181237500D01*
G75*
G02*
X133425500Y-181475000I-237500J0D01*
G01*
X132925500Y-181475000D01*
G75*
G02*
X132688000Y-181237500I0J237500D01*
G01*
G37*
%TD*%
%TO.C,R27*%
G36*
G01*
X127237500Y-188487000D02*
X126762500Y-188487000D01*
G75*
G02*
X126525000Y-188249500I0J237500D01*
G01*
X126525000Y-187749500D01*
G75*
G02*
X126762500Y-187512000I237500J0D01*
G01*
X127237500Y-187512000D01*
G75*
G02*
X127475000Y-187749500I0J-237500D01*
G01*
X127475000Y-188249500D01*
G75*
G02*
X127237500Y-188487000I-237500J0D01*
G01*
G37*
G36*
G01*
X127237500Y-190312000D02*
X126762500Y-190312000D01*
G75*
G02*
X126525000Y-190074500I0J237500D01*
G01*
X126525000Y-189574500D01*
G75*
G02*
X126762500Y-189337000I237500J0D01*
G01*
X127237500Y-189337000D01*
G75*
G02*
X127475000Y-189574500I0J-237500D01*
G01*
X127475000Y-190074500D01*
G75*
G02*
X127237500Y-190312000I-237500J0D01*
G01*
G37*
%TD*%
%TO.C,R26*%
G36*
G01*
X134513000Y-184237500D02*
X134513000Y-183762500D01*
G75*
G02*
X134750500Y-183525000I237500J0D01*
G01*
X135250500Y-183525000D01*
G75*
G02*
X135488000Y-183762500I0J-237500D01*
G01*
X135488000Y-184237500D01*
G75*
G02*
X135250500Y-184475000I-237500J0D01*
G01*
X134750500Y-184475000D01*
G75*
G02*
X134513000Y-184237500I0J237500D01*
G01*
G37*
G36*
G01*
X132688000Y-184237500D02*
X132688000Y-183762500D01*
G75*
G02*
X132925500Y-183525000I237500J0D01*
G01*
X133425500Y-183525000D01*
G75*
G02*
X133663000Y-183762500I0J-237500D01*
G01*
X133663000Y-184237500D01*
G75*
G02*
X133425500Y-184475000I-237500J0D01*
G01*
X132925500Y-184475000D01*
G75*
G02*
X132688000Y-184237500I0J237500D01*
G01*
G37*
%TD*%
%TO.C,R23*%
G36*
G01*
X144237500Y-188487000D02*
X143762500Y-188487000D01*
G75*
G02*
X143525000Y-188249500I0J237500D01*
G01*
X143525000Y-187749500D01*
G75*
G02*
X143762500Y-187512000I237500J0D01*
G01*
X144237500Y-187512000D01*
G75*
G02*
X144475000Y-187749500I0J-237500D01*
G01*
X144475000Y-188249500D01*
G75*
G02*
X144237500Y-188487000I-237500J0D01*
G01*
G37*
G36*
G01*
X144237500Y-190312000D02*
X143762500Y-190312000D01*
G75*
G02*
X143525000Y-190074500I0J237500D01*
G01*
X143525000Y-189574500D01*
G75*
G02*
X143762500Y-189337000I237500J0D01*
G01*
X144237500Y-189337000D01*
G75*
G02*
X144475000Y-189574500I0J-237500D01*
G01*
X144475000Y-190074500D01*
G75*
G02*
X144237500Y-190312000I-237500J0D01*
G01*
G37*
%TD*%
%TO.C,R22*%
G36*
G01*
X137487000Y-177762500D02*
X137487000Y-178237500D01*
G75*
G02*
X137249500Y-178475000I-237500J0D01*
G01*
X136749500Y-178475000D01*
G75*
G02*
X136512000Y-178237500I0J237500D01*
G01*
X136512000Y-177762500D01*
G75*
G02*
X136749500Y-177525000I237500J0D01*
G01*
X137249500Y-177525000D01*
G75*
G02*
X137487000Y-177762500I0J-237500D01*
G01*
G37*
G36*
G01*
X139312000Y-177762500D02*
X139312000Y-178237500D01*
G75*
G02*
X139074500Y-178475000I-237500J0D01*
G01*
X138574500Y-178475000D01*
G75*
G02*
X138337000Y-178237500I0J237500D01*
G01*
X138337000Y-177762500D01*
G75*
G02*
X138574500Y-177525000I237500J0D01*
G01*
X139074500Y-177525000D01*
G75*
G02*
X139312000Y-177762500I0J-237500D01*
G01*
G37*
%TD*%
%TO.C,R17*%
G36*
G01*
X152237500Y-188487000D02*
X151762500Y-188487000D01*
G75*
G02*
X151525000Y-188249500I0J237500D01*
G01*
X151525000Y-187749500D01*
G75*
G02*
X151762500Y-187512000I237500J0D01*
G01*
X152237500Y-187512000D01*
G75*
G02*
X152475000Y-187749500I0J-237500D01*
G01*
X152475000Y-188249500D01*
G75*
G02*
X152237500Y-188487000I-237500J0D01*
G01*
G37*
G36*
G01*
X152237500Y-190312000D02*
X151762500Y-190312000D01*
G75*
G02*
X151525000Y-190074500I0J237500D01*
G01*
X151525000Y-189574500D01*
G75*
G02*
X151762500Y-189337000I237500J0D01*
G01*
X152237500Y-189337000D01*
G75*
G02*
X152475000Y-189574500I0J-237500D01*
G01*
X152475000Y-190074500D01*
G75*
G02*
X152237500Y-190312000I-237500J0D01*
G01*
G37*
%TD*%
%TO.C,R16*%
G36*
G01*
X137569000Y-183762500D02*
X137569000Y-184237500D01*
G75*
G02*
X137331500Y-184475000I-237500J0D01*
G01*
X136831500Y-184475000D01*
G75*
G02*
X136594000Y-184237500I0J237500D01*
G01*
X136594000Y-183762500D01*
G75*
G02*
X136831500Y-183525000I237500J0D01*
G01*
X137331500Y-183525000D01*
G75*
G02*
X137569000Y-183762500I0J-237500D01*
G01*
G37*
G36*
G01*
X139394000Y-183762500D02*
X139394000Y-184237500D01*
G75*
G02*
X139156500Y-184475000I-237500J0D01*
G01*
X138656500Y-184475000D01*
G75*
G02*
X138419000Y-184237500I0J237500D01*
G01*
X138419000Y-183762500D01*
G75*
G02*
X138656500Y-183525000I237500J0D01*
G01*
X139156500Y-183525000D01*
G75*
G02*
X139394000Y-183762500I0J-237500D01*
G01*
G37*
%TD*%
%TO.C,R2*%
G36*
G01*
X70425000Y-85237500D02*
X70425000Y-84762500D01*
G75*
G02*
X70662500Y-84525000I237500J0D01*
G01*
X71162500Y-84525000D01*
G75*
G02*
X71400000Y-84762500I0J-237500D01*
G01*
X71400000Y-85237500D01*
G75*
G02*
X71162500Y-85475000I-237500J0D01*
G01*
X70662500Y-85475000D01*
G75*
G02*
X70425000Y-85237500I0J237500D01*
G01*
G37*
G36*
G01*
X68600000Y-85237500D02*
X68600000Y-84762500D01*
G75*
G02*
X68837500Y-84525000I237500J0D01*
G01*
X69337500Y-84525000D01*
G75*
G02*
X69575000Y-84762500I0J-237500D01*
G01*
X69575000Y-85237500D01*
G75*
G02*
X69337500Y-85475000I-237500J0D01*
G01*
X68837500Y-85475000D01*
G75*
G02*
X68600000Y-85237500I0J237500D01*
G01*
G37*
%TD*%
%TO.C,R1*%
G36*
G01*
X74810000Y-85237500D02*
X74810000Y-84762500D01*
G75*
G02*
X75047500Y-84525000I237500J0D01*
G01*
X75547500Y-84525000D01*
G75*
G02*
X75785000Y-84762500I0J-237500D01*
G01*
X75785000Y-85237500D01*
G75*
G02*
X75547500Y-85475000I-237500J0D01*
G01*
X75047500Y-85475000D01*
G75*
G02*
X74810000Y-85237500I0J237500D01*
G01*
G37*
G36*
G01*
X72985000Y-85237500D02*
X72985000Y-84762500D01*
G75*
G02*
X73222500Y-84525000I237500J0D01*
G01*
X73722500Y-84525000D01*
G75*
G02*
X73960000Y-84762500I0J-237500D01*
G01*
X73960000Y-85237500D01*
G75*
G02*
X73722500Y-85475000I-237500J0D01*
G01*
X73222500Y-85475000D01*
G75*
G02*
X72985000Y-85237500I0J237500D01*
G01*
G37*
%TD*%
D21*
%TO.C,J11*%
X99460000Y-219570000D03*
X40540000Y-219570000D03*
X40540000Y-199540000D03*
X99460000Y-203600000D03*
X41205000Y-205850000D03*
G36*
G01*
X94640000Y-199915000D02*
X94640000Y-199165000D01*
G75*
G02*
X95015000Y-198790000I375000J0D01*
G01*
X95765000Y-198790000D01*
G75*
G02*
X96140000Y-199165000I0J-375000D01*
G01*
X96140000Y-199915000D01*
G75*
G02*
X95765000Y-200290000I-375000J0D01*
G01*
X95015000Y-200290000D01*
G75*
G02*
X94640000Y-199915000I0J375000D01*
G01*
G37*
D22*
X94130000Y-202080000D03*
X92850000Y-199540000D03*
X91590000Y-202080000D03*
X90310000Y-199540000D03*
X89050000Y-202080000D03*
X87770000Y-199540000D03*
X86510000Y-202080000D03*
X47140000Y-202080000D03*
X44600000Y-202080000D03*
X48400000Y-199540000D03*
G36*
G01*
X52730000Y-199915000D02*
X52730000Y-199165000D01*
G75*
G02*
X53105000Y-198790000I375000J0D01*
G01*
X53855000Y-198790000D01*
G75*
G02*
X54230000Y-199165000I0J-375000D01*
G01*
X54230000Y-199915000D01*
G75*
G02*
X53855000Y-200290000I-375000J0D01*
G01*
X53105000Y-200290000D01*
G75*
G02*
X52730000Y-199915000I0J375000D01*
G01*
G37*
X45860000Y-199540000D03*
X49680000Y-202080000D03*
X50940000Y-199540000D03*
X52220000Y-202080000D03*
X59830000Y-199540000D03*
G36*
G01*
X66700000Y-199915000D02*
X66700000Y-199165000D01*
G75*
G02*
X67075000Y-198790000I375000J0D01*
G01*
X67825000Y-198790000D01*
G75*
G02*
X68200000Y-199165000I0J-375000D01*
G01*
X68200000Y-199915000D01*
G75*
G02*
X67825000Y-200290000I-375000J0D01*
G01*
X67075000Y-200290000D01*
G75*
G02*
X66700000Y-199915000I0J375000D01*
G01*
G37*
X62370000Y-199540000D03*
X58570000Y-202080000D03*
X61110000Y-202080000D03*
X66190000Y-202080000D03*
X64910000Y-199540000D03*
X63650000Y-202080000D03*
X73800000Y-199540000D03*
G36*
G01*
X80670000Y-199915000D02*
X80670000Y-199165000D01*
G75*
G02*
X81045000Y-198790000I375000J0D01*
G01*
X81795000Y-198790000D01*
G75*
G02*
X82170000Y-199165000I0J-375000D01*
G01*
X82170000Y-199915000D01*
G75*
G02*
X81795000Y-200290000I-375000J0D01*
G01*
X81045000Y-200290000D01*
G75*
G02*
X80670000Y-199915000I0J375000D01*
G01*
G37*
X76340000Y-199540000D03*
X72540000Y-202080000D03*
X75080000Y-202080000D03*
X80160000Y-202080000D03*
X78880000Y-199540000D03*
X77620000Y-202080000D03*
X77620000Y-208650000D03*
X78880000Y-206110000D03*
X80160000Y-208650000D03*
X75080000Y-208650000D03*
G36*
G01*
X71790000Y-209149500D02*
X71790000Y-208150500D01*
G75*
G02*
X72040500Y-207900000I250500J0D01*
G01*
X73039500Y-207900000D01*
G75*
G02*
X73290000Y-208150500I0J-250500D01*
G01*
X73290000Y-209149500D01*
G75*
G02*
X73039500Y-209400000I-250500J0D01*
G01*
X72040500Y-209400000D01*
G75*
G02*
X71790000Y-209149500I0J250500D01*
G01*
G37*
X76340000Y-206110000D03*
X81420000Y-206110000D03*
X73800000Y-206110000D03*
X63650000Y-208650000D03*
X64910000Y-206110000D03*
X66190000Y-208650000D03*
X61110000Y-208650000D03*
G36*
G01*
X57820000Y-209149500D02*
X57820000Y-208150500D01*
G75*
G02*
X58070500Y-207900000I250500J0D01*
G01*
X59069500Y-207900000D01*
G75*
G02*
X59320000Y-208150500I0J-250500D01*
G01*
X59320000Y-209149500D01*
G75*
G02*
X59069500Y-209400000I-250500J0D01*
G01*
X58070500Y-209400000D01*
G75*
G02*
X57820000Y-209149500I0J250500D01*
G01*
G37*
X62370000Y-206110000D03*
X67450000Y-206110000D03*
X59830000Y-206110000D03*
X45860000Y-206110000D03*
X53480000Y-206110000D03*
X48400000Y-206110000D03*
G36*
G01*
X43850000Y-209149500D02*
X43850000Y-208150500D01*
G75*
G02*
X44100500Y-207900000I250500J0D01*
G01*
X45099500Y-207900000D01*
G75*
G02*
X45350000Y-208150500I0J-250500D01*
G01*
X45350000Y-209149500D01*
G75*
G02*
X45099500Y-209400000I-250500J0D01*
G01*
X44100500Y-209400000D01*
G75*
G02*
X43850000Y-209149500I0J250500D01*
G01*
G37*
X47140000Y-208650000D03*
X52220000Y-208650000D03*
X50940000Y-206110000D03*
X49680000Y-208650000D03*
G36*
G01*
X85760000Y-209149500D02*
X85760000Y-208150500D01*
G75*
G02*
X86010500Y-207900000I250500J0D01*
G01*
X87009500Y-207900000D01*
G75*
G02*
X87260000Y-208150500I0J-250500D01*
G01*
X87260000Y-209149500D01*
G75*
G02*
X87009500Y-209400000I-250500J0D01*
G01*
X86010500Y-209400000D01*
G75*
G02*
X85760000Y-209149500I0J250500D01*
G01*
G37*
X87770000Y-206110000D03*
X89050000Y-208650000D03*
X90310000Y-206110000D03*
X91590000Y-208650000D03*
X92850000Y-206110000D03*
X94130000Y-208650000D03*
X95390000Y-206110000D03*
D21*
X98795000Y-209150000D03*
D23*
X43330000Y-215000000D03*
X96670000Y-215000000D03*
%TD*%
D27*
%TO.C,J1*%
X112456000Y-54058000D03*
X117456000Y-54058000D03*
D28*
X122456000Y-54058000D03*
%TD*%
%TO.C,C18*%
G36*
G01*
X62462500Y-184237500D02*
X62462500Y-183762500D01*
G75*
G02*
X62700000Y-183525000I237500J0D01*
G01*
X63300000Y-183525000D01*
G75*
G02*
X63537500Y-183762500I0J-237500D01*
G01*
X63537500Y-184237500D01*
G75*
G02*
X63300000Y-184475000I-237500J0D01*
G01*
X62700000Y-184475000D01*
G75*
G02*
X62462500Y-184237500I0J237500D01*
G01*
G37*
G36*
G01*
X60737500Y-184237500D02*
X60737500Y-183762500D01*
G75*
G02*
X60975000Y-183525000I237500J0D01*
G01*
X61575000Y-183525000D01*
G75*
G02*
X61812500Y-183762500I0J-237500D01*
G01*
X61812500Y-184237500D01*
G75*
G02*
X61575000Y-184475000I-237500J0D01*
G01*
X60975000Y-184475000D01*
G75*
G02*
X60737500Y-184237500I0J237500D01*
G01*
G37*
%TD*%
%TO.C,C17*%
G36*
G01*
X69416500Y-165091000D02*
X68941500Y-165091000D01*
G75*
G02*
X68704000Y-164853500I0J237500D01*
G01*
X68704000Y-164253500D01*
G75*
G02*
X68941500Y-164016000I237500J0D01*
G01*
X69416500Y-164016000D01*
G75*
G02*
X69654000Y-164253500I0J-237500D01*
G01*
X69654000Y-164853500D01*
G75*
G02*
X69416500Y-165091000I-237500J0D01*
G01*
G37*
G36*
G01*
X69416500Y-166816000D02*
X68941500Y-166816000D01*
G75*
G02*
X68704000Y-166578500I0J237500D01*
G01*
X68704000Y-165978500D01*
G75*
G02*
X68941500Y-165741000I237500J0D01*
G01*
X69416500Y-165741000D01*
G75*
G02*
X69654000Y-165978500I0J-237500D01*
G01*
X69654000Y-166578500D01*
G75*
G02*
X69416500Y-166816000I-237500J0D01*
G01*
G37*
%TD*%
%TO.C,C16*%
G36*
G01*
X65537500Y-177762500D02*
X65537500Y-178237500D01*
G75*
G02*
X65300000Y-178475000I-237500J0D01*
G01*
X64700000Y-178475000D01*
G75*
G02*
X64462500Y-178237500I0J237500D01*
G01*
X64462500Y-177762500D01*
G75*
G02*
X64700000Y-177525000I237500J0D01*
G01*
X65300000Y-177525000D01*
G75*
G02*
X65537500Y-177762500I0J-237500D01*
G01*
G37*
G36*
G01*
X67262500Y-177762500D02*
X67262500Y-178237500D01*
G75*
G02*
X67025000Y-178475000I-237500J0D01*
G01*
X66425000Y-178475000D01*
G75*
G02*
X66187500Y-178237500I0J237500D01*
G01*
X66187500Y-177762500D01*
G75*
G02*
X66425000Y-177525000I237500J0D01*
G01*
X67025000Y-177525000D01*
G75*
G02*
X67262500Y-177762500I0J-237500D01*
G01*
G37*
%TD*%
%TO.C,C15*%
G36*
G01*
X65537500Y-180762500D02*
X65537500Y-181237500D01*
G75*
G02*
X65300000Y-181475000I-237500J0D01*
G01*
X64700000Y-181475000D01*
G75*
G02*
X64462500Y-181237500I0J237500D01*
G01*
X64462500Y-180762500D01*
G75*
G02*
X64700000Y-180525000I237500J0D01*
G01*
X65300000Y-180525000D01*
G75*
G02*
X65537500Y-180762500I0J-237500D01*
G01*
G37*
G36*
G01*
X67262500Y-180762500D02*
X67262500Y-181237500D01*
G75*
G02*
X67025000Y-181475000I-237500J0D01*
G01*
X66425000Y-181475000D01*
G75*
G02*
X66187500Y-181237500I0J237500D01*
G01*
X66187500Y-180762500D01*
G75*
G02*
X66425000Y-180525000I237500J0D01*
G01*
X67025000Y-180525000D01*
G75*
G02*
X67262500Y-180762500I0J-237500D01*
G01*
G37*
%TD*%
%TO.C,C14*%
G36*
G01*
X109463000Y-181237500D02*
X109463000Y-180762500D01*
G75*
G02*
X109700500Y-180525000I237500J0D01*
G01*
X110300500Y-180525000D01*
G75*
G02*
X110538000Y-180762500I0J-237500D01*
G01*
X110538000Y-181237500D01*
G75*
G02*
X110300500Y-181475000I-237500J0D01*
G01*
X109700500Y-181475000D01*
G75*
G02*
X109463000Y-181237500I0J237500D01*
G01*
G37*
G36*
G01*
X107738000Y-181237500D02*
X107738000Y-180762500D01*
G75*
G02*
X107975500Y-180525000I237500J0D01*
G01*
X108575500Y-180525000D01*
G75*
G02*
X108813000Y-180762500I0J-237500D01*
G01*
X108813000Y-181237500D01*
G75*
G02*
X108575500Y-181475000I-237500J0D01*
G01*
X107975500Y-181475000D01*
G75*
G02*
X107738000Y-181237500I0J237500D01*
G01*
G37*
%TD*%
%TO.C,C13*%
G36*
G01*
X109463000Y-178237500D02*
X109463000Y-177762500D01*
G75*
G02*
X109700500Y-177525000I237500J0D01*
G01*
X110300500Y-177525000D01*
G75*
G02*
X110538000Y-177762500I0J-237500D01*
G01*
X110538000Y-178237500D01*
G75*
G02*
X110300500Y-178475000I-237500J0D01*
G01*
X109700500Y-178475000D01*
G75*
G02*
X109463000Y-178237500I0J237500D01*
G01*
G37*
G36*
G01*
X107738000Y-178237500D02*
X107738000Y-177762500D01*
G75*
G02*
X107975500Y-177525000I237500J0D01*
G01*
X108575500Y-177525000D01*
G75*
G02*
X108813000Y-177762500I0J-237500D01*
G01*
X108813000Y-178237500D01*
G75*
G02*
X108575500Y-178475000I-237500J0D01*
G01*
X107975500Y-178475000D01*
G75*
G02*
X107738000Y-178237500I0J237500D01*
G01*
G37*
%TD*%
%TO.C,C12*%
G36*
G01*
X65537500Y-183762500D02*
X65537500Y-184237500D01*
G75*
G02*
X65300000Y-184475000I-237500J0D01*
G01*
X64700000Y-184475000D01*
G75*
G02*
X64462500Y-184237500I0J237500D01*
G01*
X64462500Y-183762500D01*
G75*
G02*
X64700000Y-183525000I237500J0D01*
G01*
X65300000Y-183525000D01*
G75*
G02*
X65537500Y-183762500I0J-237500D01*
G01*
G37*
G36*
G01*
X67262500Y-183762500D02*
X67262500Y-184237500D01*
G75*
G02*
X67025000Y-184475000I-237500J0D01*
G01*
X66425000Y-184475000D01*
G75*
G02*
X66187500Y-184237500I0J237500D01*
G01*
X66187500Y-183762500D01*
G75*
G02*
X66425000Y-183525000I237500J0D01*
G01*
X67025000Y-183525000D01*
G75*
G02*
X67262500Y-183762500I0J-237500D01*
G01*
G37*
%TD*%
%TO.C,C11*%
G36*
G01*
X109463000Y-184237500D02*
X109463000Y-183762500D01*
G75*
G02*
X109700500Y-183525000I237500J0D01*
G01*
X110300500Y-183525000D01*
G75*
G02*
X110538000Y-183762500I0J-237500D01*
G01*
X110538000Y-184237500D01*
G75*
G02*
X110300500Y-184475000I-237500J0D01*
G01*
X109700500Y-184475000D01*
G75*
G02*
X109463000Y-184237500I0J237500D01*
G01*
G37*
G36*
G01*
X107738000Y-184237500D02*
X107738000Y-183762500D01*
G75*
G02*
X107975500Y-183525000I237500J0D01*
G01*
X108575500Y-183525000D01*
G75*
G02*
X108813000Y-183762500I0J-237500D01*
G01*
X108813000Y-184237500D01*
G75*
G02*
X108575500Y-184475000I-237500J0D01*
G01*
X107975500Y-184475000D01*
G75*
G02*
X107738000Y-184237500I0J237500D01*
G01*
G37*
%TD*%
%TO.C,C10*%
G36*
G01*
X100779500Y-165091000D02*
X100304500Y-165091000D01*
G75*
G02*
X100067000Y-164853500I0J237500D01*
G01*
X100067000Y-164253500D01*
G75*
G02*
X100304500Y-164016000I237500J0D01*
G01*
X100779500Y-164016000D01*
G75*
G02*
X101017000Y-164253500I0J-237500D01*
G01*
X101017000Y-164853500D01*
G75*
G02*
X100779500Y-165091000I-237500J0D01*
G01*
G37*
G36*
G01*
X100779500Y-166816000D02*
X100304500Y-166816000D01*
G75*
G02*
X100067000Y-166578500I0J237500D01*
G01*
X100067000Y-165978500D01*
G75*
G02*
X100304500Y-165741000I237500J0D01*
G01*
X100779500Y-165741000D01*
G75*
G02*
X101017000Y-165978500I0J-237500D01*
G01*
X101017000Y-166578500D01*
G75*
G02*
X100779500Y-166816000I-237500J0D01*
G01*
G37*
%TD*%
%TO.C,C9*%
G36*
G01*
X112537000Y-177762500D02*
X112537000Y-178237500D01*
G75*
G02*
X112299500Y-178475000I-237500J0D01*
G01*
X111699500Y-178475000D01*
G75*
G02*
X111462000Y-178237500I0J237500D01*
G01*
X111462000Y-177762500D01*
G75*
G02*
X111699500Y-177525000I237500J0D01*
G01*
X112299500Y-177525000D01*
G75*
G02*
X112537000Y-177762500I0J-237500D01*
G01*
G37*
G36*
G01*
X114262000Y-177762500D02*
X114262000Y-178237500D01*
G75*
G02*
X114024500Y-178475000I-237500J0D01*
G01*
X113424500Y-178475000D01*
G75*
G02*
X113187000Y-178237500I0J237500D01*
G01*
X113187000Y-177762500D01*
G75*
G02*
X113424500Y-177525000I237500J0D01*
G01*
X114024500Y-177525000D01*
G75*
G02*
X114262000Y-177762500I0J-237500D01*
G01*
G37*
%TD*%
%TO.C,C8*%
G36*
G01*
X112537000Y-180762500D02*
X112537000Y-181237500D01*
G75*
G02*
X112299500Y-181475000I-237500J0D01*
G01*
X111699500Y-181475000D01*
G75*
G02*
X111462000Y-181237500I0J237500D01*
G01*
X111462000Y-180762500D01*
G75*
G02*
X111699500Y-180525000I237500J0D01*
G01*
X112299500Y-180525000D01*
G75*
G02*
X112537000Y-180762500I0J-237500D01*
G01*
G37*
G36*
G01*
X114262000Y-180762500D02*
X114262000Y-181237500D01*
G75*
G02*
X114024500Y-181475000I-237500J0D01*
G01*
X113424500Y-181475000D01*
G75*
G02*
X113187000Y-181237500I0J237500D01*
G01*
X113187000Y-180762500D01*
G75*
G02*
X113424500Y-180525000I237500J0D01*
G01*
X114024500Y-180525000D01*
G75*
G02*
X114262000Y-180762500I0J-237500D01*
G01*
G37*
%TD*%
%TO.C,C7*%
G36*
G01*
X112537000Y-183762500D02*
X112537000Y-184237500D01*
G75*
G02*
X112299500Y-184475000I-237500J0D01*
G01*
X111699500Y-184475000D01*
G75*
G02*
X111462000Y-184237500I0J237500D01*
G01*
X111462000Y-183762500D01*
G75*
G02*
X111699500Y-183525000I237500J0D01*
G01*
X112299500Y-183525000D01*
G75*
G02*
X112537000Y-183762500I0J-237500D01*
G01*
G37*
G36*
G01*
X114262000Y-183762500D02*
X114262000Y-184237500D01*
G75*
G02*
X114024500Y-184475000I-237500J0D01*
G01*
X113424500Y-184475000D01*
G75*
G02*
X113187000Y-184237500I0J237500D01*
G01*
X113187000Y-183762500D01*
G75*
G02*
X113424500Y-183525000I237500J0D01*
G01*
X114024500Y-183525000D01*
G75*
G02*
X114262000Y-183762500I0J-237500D01*
G01*
G37*
%TD*%
%TO.C,C6*%
G36*
G01*
X156463000Y-184237500D02*
X156463000Y-183762500D01*
G75*
G02*
X156700500Y-183525000I237500J0D01*
G01*
X157300500Y-183525000D01*
G75*
G02*
X157538000Y-183762500I0J-237500D01*
G01*
X157538000Y-184237500D01*
G75*
G02*
X157300500Y-184475000I-237500J0D01*
G01*
X156700500Y-184475000D01*
G75*
G02*
X156463000Y-184237500I0J237500D01*
G01*
G37*
G36*
G01*
X154738000Y-184237500D02*
X154738000Y-183762500D01*
G75*
G02*
X154975500Y-183525000I237500J0D01*
G01*
X155575500Y-183525000D01*
G75*
G02*
X155813000Y-183762500I0J-237500D01*
G01*
X155813000Y-184237500D01*
G75*
G02*
X155575500Y-184475000I-237500J0D01*
G01*
X154975500Y-184475000D01*
G75*
G02*
X154738000Y-184237500I0J237500D01*
G01*
G37*
%TD*%
%TO.C,C5*%
G36*
G01*
X135861500Y-165091000D02*
X135386500Y-165091000D01*
G75*
G02*
X135149000Y-164853500I0J237500D01*
G01*
X135149000Y-164253500D01*
G75*
G02*
X135386500Y-164016000I237500J0D01*
G01*
X135861500Y-164016000D01*
G75*
G02*
X136099000Y-164253500I0J-237500D01*
G01*
X136099000Y-164853500D01*
G75*
G02*
X135861500Y-165091000I-237500J0D01*
G01*
G37*
G36*
G01*
X135861500Y-166816000D02*
X135386500Y-166816000D01*
G75*
G02*
X135149000Y-166578500I0J237500D01*
G01*
X135149000Y-165978500D01*
G75*
G02*
X135386500Y-165741000I237500J0D01*
G01*
X135861500Y-165741000D01*
G75*
G02*
X136099000Y-165978500I0J-237500D01*
G01*
X136099000Y-166578500D01*
G75*
G02*
X135861500Y-166816000I-237500J0D01*
G01*
G37*
%TD*%
%TO.C,C3*%
G36*
G01*
X156463000Y-178237500D02*
X156463000Y-177762500D01*
G75*
G02*
X156700500Y-177525000I237500J0D01*
G01*
X157300500Y-177525000D01*
G75*
G02*
X157538000Y-177762500I0J-237500D01*
G01*
X157538000Y-178237500D01*
G75*
G02*
X157300500Y-178475000I-237500J0D01*
G01*
X156700500Y-178475000D01*
G75*
G02*
X156463000Y-178237500I0J237500D01*
G01*
G37*
G36*
G01*
X154738000Y-178237500D02*
X154738000Y-177762500D01*
G75*
G02*
X154975500Y-177525000I237500J0D01*
G01*
X155575500Y-177525000D01*
G75*
G02*
X155813000Y-177762500I0J-237500D01*
G01*
X155813000Y-178237500D01*
G75*
G02*
X155575500Y-178475000I-237500J0D01*
G01*
X154975500Y-178475000D01*
G75*
G02*
X154738000Y-178237500I0J237500D01*
G01*
G37*
%TD*%
%TO.C,C2*%
G36*
G01*
X156463000Y-181237500D02*
X156463000Y-180762500D01*
G75*
G02*
X156700500Y-180525000I237500J0D01*
G01*
X157300500Y-180525000D01*
G75*
G02*
X157538000Y-180762500I0J-237500D01*
G01*
X157538000Y-181237500D01*
G75*
G02*
X157300500Y-181475000I-237500J0D01*
G01*
X156700500Y-181475000D01*
G75*
G02*
X156463000Y-181237500I0J237500D01*
G01*
G37*
G36*
G01*
X154738000Y-181237500D02*
X154738000Y-180762500D01*
G75*
G02*
X154975500Y-180525000I237500J0D01*
G01*
X155575500Y-180525000D01*
G75*
G02*
X155813000Y-180762500I0J-237500D01*
G01*
X155813000Y-181237500D01*
G75*
G02*
X155575500Y-181475000I-237500J0D01*
G01*
X154975500Y-181475000D01*
G75*
G02*
X154738000Y-181237500I0J237500D01*
G01*
G37*
%TD*%
D24*
%TO.C,U1*%
X34572000Y-134576000D03*
X37112000Y-134576000D03*
X39652000Y-134576000D03*
X42192000Y-134576000D03*
X44732000Y-134576000D03*
X47272000Y-134576000D03*
X49812000Y-134576000D03*
X52352000Y-134576000D03*
X54892000Y-134576000D03*
X57432000Y-134576000D03*
X59972000Y-134576000D03*
X62512000Y-134576000D03*
X65052000Y-134576000D03*
X67592000Y-134576000D03*
D14*
X34572000Y-149816000D03*
D24*
X37112000Y-149816000D03*
X39652000Y-149816000D03*
X42192000Y-149816000D03*
X44732000Y-149816000D03*
X47272000Y-149816000D03*
X49812000Y-149816000D03*
X52352000Y-149816000D03*
X54892000Y-149816000D03*
X57432000Y-149816000D03*
X59972000Y-149816000D03*
X62512000Y-149816000D03*
X65052000Y-149816000D03*
X70132000Y-134576000D03*
X72672000Y-134576000D03*
X75212000Y-134576000D03*
X77752000Y-134576000D03*
X80292000Y-134576000D03*
X82832000Y-134576000D03*
X85372000Y-134576000D03*
X87912000Y-134576000D03*
X90452000Y-134576000D03*
X92992000Y-134576000D03*
X92992000Y-149816000D03*
X90452000Y-149816000D03*
X87912000Y-149816000D03*
X85372000Y-149816000D03*
X67592000Y-149816000D03*
X70132000Y-149816000D03*
X72672000Y-149816000D03*
X82832000Y-149816000D03*
X80292000Y-149816000D03*
X77752000Y-149816000D03*
X75212000Y-149816000D03*
%TD*%
M02*
