M48
; DRILL file {KiCad (5.1.9-0-10_14)} date Friday, August 20, 2021 at 09:49:34 AM
; FORMAT={-:-/ absolute / metric / decimal}
; #@! TF.CreationDate,2021-08-20T09:49:34+02:00
; #@! TF.GenerationSoftware,Kicad,Pcbnew,(5.1.9-0-10_14)
FMAT,2
METRIC
T1C0.400
T2C0.762
T3C0.800
T4C0.900
T5C1.000
T6C1.040
T7C1.100
T8C1.400
T9C1.600
T10C3.500
T11C3.250
%
G90
G05
T1
X39.196Y-178.817
X42.515Y-185.184
X43.942Y-143.834
X45.728Y-185.085
X49.348Y-171.078
X51.2Y-126.2
X51.6Y-173.6
X51.637Y-191.931
X51.823Y-169.27
X52.052Y-144.086
X52.614Y-142.828
X53.274Y-181.073
X54.95Y-183.083
X54.997Y-190.236
X55.106Y-202.08
X55.6Y-99.2
X55.6Y-113.0
X55.642Y-167.31
X55.8Y-81.0
X55.8Y-171.8
X56.511Y-162.686
X57.467Y-159.269
X58.42Y-73.391
X58.773Y-146.449
X60.415Y-165.415
X61.098Y-154.684
X61.663Y-179.327
X62.417Y-171.491
X63.0Y-113.2
X63.358Y-188.089
X63.8Y-191.8
X64.553Y-138.059
X65.8Y-154.8
X66.186Y-185.955
X67.694Y-187.114
X68.8Y-160.2
X69.153Y-203.34
X70.032Y-195.409
X70.159Y-176.835
X71.229Y-190.835
X71.686Y-176.835
X72.4Y-127.6
X72.442Y-178.415
X72.486Y-116.469
X72.736Y-192.156
X74.962Y-184.761
X75.564Y-196.18
X75.564Y-167.31
X75.8Y-78.8
X76.122Y-179.357
X76.694Y-192.655
X77.2Y-160.6
X78.89Y-209.949
X79.401Y-190.658
X79.401Y-194.658
X80.0Y-170.6
X80.447Y-194.671
X81.25Y-185.765
X81.786Y-200.968
X82.059Y-151.698
X82.234Y-190.227
X82.269Y-193.398
X82.312Y-177.808
X82.576Y-195.299
X83.392Y-190.816
X84.624Y-92.92
X84.884Y-181.084
X84.933Y-204.709
X86.181Y-211.361
X86.463Y-179.079
X87.207Y-191.229
X87.716Y-211.687
X87.8Y-140.4
X87.926Y-210.077
X88.864Y-161.957
X89.0Y-188.0
X91.019Y-166.508
X91.085Y-147.428
X91.266Y-194.063
X91.561Y-97.562
X91.594Y-175.133
X92.345Y-182.691
X92.4Y-65.8
X92.601Y-166.893
X92.766Y-164.246
X93.739Y-182.494
X94.557Y-172.981
X94.869Y-181.769
X95.304Y-81.272
X95.708Y-164.363
X96.496Y-171.114
X97.572Y-185.005
X97.804Y-187.999
X97.863Y-174.79
X98.075Y-190.595
X99.123Y-75.602
X99.178Y-174.354
X100.45Y-212.545
X100.778Y-181.488
X101.422Y-184.757
X102.4Y-156.4
X102.692Y-179.209
X104.794Y-194.036
X107.603Y-179.852
X109.742Y-90.556
X110.884Y-179.708
X111.2Y-188.6
X112.311Y-196.459
X114.624Y-194.496
X116.677Y-188.407
X119.589Y-184.913
X119.624Y-159.557
X121.462Y-178.753
X121.797Y-190.2
X122.587Y-163.811
X122.732Y-184.838
X123.415Y-186.547
X124.251Y-184.769
X124.413Y-142.969
X125.272Y-180.736
X125.615Y-69.433
X125.968Y-163.865
X126.316Y-108.855
X126.381Y-170.488
X127.038Y-163.403
X127.229Y-148.179
X127.25Y-69.612
X127.403Y-82.246
X128.118Y-167.019
X128.668Y-149.759
X129.356Y-182.678
X129.4Y-188.6
X129.481Y-181.0
X129.998Y-166.975
X131.472Y-163.542
X131.472Y-177.473
X131.658Y-194.114
X131.814Y-158.735
X132.137Y-160.175
X133.6Y-131.8
X133.8Y-122.6
X135.739Y-170.181
X135.926Y-191.924
X136.2Y-154.4
X138.745Y-164.022
X138.969Y-179.125
X141.865Y-150.818
X142.557Y-152.207
X142.871Y-68.94
X143.966Y-180.708
X145.313Y-190.755
X145.313Y-200.822
X145.537Y-178.949
X147.052Y-198.636
X153.376Y-182.314
X159.0Y-179.534
X159.622Y-201.781
X160.598Y-181.103
T2
X101.68Y-134.19
X101.68Y-136.73
X101.68Y-139.27
X101.68Y-141.81
X142.32Y-134.19
X142.32Y-136.73
X142.32Y-139.27
X142.32Y-141.81
T3
X102.38Y-72.233
X102.38Y-79.852
X104.92Y-72.233
X104.92Y-79.852
X107.46Y-72.233
X107.46Y-79.852
X110.0Y-72.233
X110.0Y-79.852
T4
X44.6Y-202.08
X44.6Y-208.65
X45.86Y-199.54
X45.86Y-206.11
X47.14Y-202.08
X47.14Y-208.65
X48.4Y-199.54
X48.4Y-206.11
X49.68Y-202.08
X49.68Y-208.65
X50.94Y-199.54
X50.94Y-206.11
X52.22Y-202.08
X52.22Y-208.65
X53.48Y-199.54
X53.48Y-206.11
X58.57Y-202.08
X58.57Y-208.65
X59.83Y-199.54
X59.83Y-206.11
X61.11Y-202.08
X61.11Y-208.65
X62.37Y-199.54
X62.37Y-206.11
X63.65Y-202.08
X63.65Y-208.65
X64.91Y-199.54
X64.91Y-206.11
X66.19Y-202.08
X66.19Y-208.65
X67.45Y-199.54
X67.45Y-206.11
X72.54Y-202.08
X72.54Y-208.65
X73.8Y-199.54
X73.8Y-206.11
X75.08Y-202.08
X75.08Y-208.65
X76.34Y-199.54
X76.34Y-206.11
X77.62Y-202.08
X77.62Y-208.65
X78.88Y-199.54
X78.88Y-206.11
X80.16Y-202.08
X80.16Y-208.65
X81.42Y-199.54
X81.42Y-206.11
X86.51Y-202.08
X86.51Y-208.65
X87.77Y-199.54
X87.77Y-206.11
X89.05Y-202.08
X89.05Y-208.65
X90.31Y-199.54
X90.31Y-206.11
X91.59Y-202.08
X91.59Y-208.65
X92.85Y-199.54
X92.85Y-206.11
X94.13Y-202.08
X94.13Y-208.65
X95.39Y-199.54
X95.39Y-206.11
X107.1Y-202.08
X107.1Y-208.65
X108.36Y-199.54
X108.36Y-206.11
X109.64Y-202.08
X109.64Y-208.65
X110.9Y-199.54
X110.9Y-206.11
X112.18Y-202.08
X112.18Y-208.65
X113.44Y-199.54
X113.44Y-206.11
X114.72Y-202.08
X114.72Y-208.65
X115.98Y-199.54
X115.98Y-206.11
X121.07Y-202.08
X121.07Y-208.65
X122.33Y-199.54
X122.33Y-206.11
X123.61Y-202.08
X123.61Y-208.65
X124.87Y-199.54
X124.87Y-206.11
X126.15Y-202.08
X126.15Y-208.65
X127.41Y-199.54
X127.41Y-206.11
X128.69Y-202.08
X128.69Y-208.65
X129.95Y-199.54
X129.95Y-206.11
X135.04Y-202.08
X135.04Y-208.65
X136.3Y-199.54
X136.3Y-206.11
X137.58Y-202.08
X137.58Y-208.65
X138.84Y-199.54
X138.84Y-206.11
X140.12Y-202.08
X140.12Y-208.65
X141.38Y-199.54
X141.38Y-206.11
X142.66Y-202.08
X142.66Y-208.65
X143.92Y-199.54
X143.92Y-206.11
X149.01Y-202.08
X149.01Y-208.65
X150.27Y-199.54
X150.27Y-206.11
X151.55Y-202.08
X151.55Y-208.65
X152.81Y-199.54
X152.81Y-206.11
X154.09Y-202.08
X154.09Y-208.65
X155.35Y-199.54
X155.35Y-206.11
X156.63Y-202.08
X156.63Y-208.65
X157.89Y-199.54
X157.89Y-206.11
T5
X42.0Y-55.0
X42.0Y-57.54
X49.5Y-50.502
X56.0Y-50.502
X110.0Y-115.27
X111.6Y-94.5
X112.54Y-115.27
X114.0Y-103.46
X114.0Y-106.0
X114.14Y-94.5
X115.08Y-115.27
X116.68Y-94.5
X117.62Y-115.27
X125.9Y-94.5
X126.92Y-115.3
X128.44Y-94.5
X129.46Y-115.3
X130.98Y-94.5
X132.0Y-115.3
X136.41Y-91.648
X136.41Y-94.188
X136.41Y-96.728
X139.0Y-103.46
X139.0Y-106.0
T6
X35.028Y-63.71
X35.028Y-89.11
X37.568Y-63.71
X37.568Y-89.11
X40.108Y-63.71
X40.108Y-89.11
X42.648Y-63.71
X42.648Y-89.11
X45.188Y-63.71
X45.188Y-89.11
X47.728Y-63.71
X47.728Y-89.11
X50.268Y-63.71
X50.268Y-89.11
X52.808Y-63.71
X52.808Y-89.11
X55.348Y-63.71
X55.348Y-89.11
X57.888Y-63.71
X57.888Y-89.11
X60.428Y-63.71
X60.428Y-89.11
X62.968Y-63.71
X62.968Y-89.11
X65.508Y-63.71
X65.508Y-89.11
X68.048Y-63.71
X68.048Y-89.11
X70.588Y-63.71
X70.588Y-89.11
X73.128Y-63.71
X73.128Y-89.11
X75.668Y-63.71
X75.668Y-89.11
X78.208Y-63.71
X78.208Y-89.11
X80.748Y-63.71
X80.748Y-89.11
T7
X34.445Y-105.366
X34.445Y-120.606
X34.572Y-134.576
X34.572Y-149.816
X36.985Y-105.366
X36.985Y-120.606
X37.112Y-134.576
X37.112Y-149.816
X39.525Y-105.366
X39.525Y-120.606
X39.652Y-134.576
X39.652Y-149.816
X42.065Y-105.366
X42.065Y-120.606
X42.192Y-134.576
X42.192Y-149.816
X44.605Y-105.366
X44.605Y-120.606
X44.732Y-134.576
X44.732Y-149.816
X47.145Y-105.366
X47.145Y-120.606
X47.272Y-134.576
X47.272Y-149.816
X49.685Y-105.366
X49.685Y-120.606
X49.812Y-134.576
X49.812Y-149.816
X52.225Y-105.366
X52.225Y-120.606
X52.352Y-134.576
X52.352Y-149.816
X54.765Y-105.366
X54.765Y-120.606
X54.892Y-134.576
X54.892Y-149.816
X57.305Y-105.366
X57.305Y-120.606
X57.432Y-134.576
X57.432Y-149.816
X59.845Y-105.366
X59.845Y-120.606
X59.972Y-134.576
X59.972Y-149.816
X62.385Y-105.366
X62.385Y-120.606
X62.512Y-134.576
X62.512Y-149.816
X64.925Y-105.366
X64.925Y-120.606
X65.052Y-134.576
X65.052Y-149.816
X67.465Y-105.366
X67.465Y-120.606
X67.592Y-134.576
X67.592Y-149.816
X70.005Y-105.366
X70.005Y-120.606
X70.132Y-134.576
X70.132Y-149.816
X72.545Y-105.366
X72.545Y-120.606
X72.672Y-134.576
X72.672Y-149.816
X75.085Y-105.366
X75.085Y-120.606
X75.212Y-134.576
X75.212Y-149.816
X77.625Y-105.366
X77.625Y-120.606
X77.752Y-134.576
X77.752Y-149.816
X80.165Y-105.366
X80.165Y-120.606
X80.292Y-134.576
X80.292Y-149.816
X82.705Y-105.366
X82.705Y-120.606
X82.832Y-134.576
X82.832Y-149.816
X85.245Y-105.366
X85.245Y-120.606
X85.372Y-134.576
X85.372Y-149.816
X87.785Y-105.366
X87.785Y-120.606
X87.912Y-134.576
X87.912Y-149.816
X90.325Y-105.366
X90.325Y-120.606
X90.452Y-134.576
X90.452Y-149.816
X92.865Y-105.366
X92.865Y-120.606
X92.992Y-134.576
X92.992Y-149.816
T8
X112.456Y-54.058
X117.456Y-54.058
X122.456Y-54.058
T9
X40.54Y-199.54
X40.54Y-219.57
X41.205Y-205.85
X98.795Y-209.15
X99.46Y-203.6
X99.46Y-219.57
X103.04Y-199.54
X103.04Y-219.57
X103.705Y-205.85
X161.295Y-209.15
X161.96Y-203.6
X161.96Y-219.57
T10
X35.0Y-50.0
X35.0Y-160.0
X35.0Y-220.0
X144.0Y-50.0
X167.5Y-160.0
X167.5Y-220.0
T11
X43.33Y-215.0
X96.67Y-215.0
X105.83Y-215.0
X159.17Y-215.0
T0
M30
