%TF.GenerationSoftware,KiCad,Pcbnew,(5.1.9-0-10_14)*%
%TF.CreationDate,2021-08-20T09:49:49+02:00*%
%TF.ProjectId,MechanicalTheatre,4d656368-616e-4696-9361-6c5468656174,rev?*%
%TF.SameCoordinates,Original*%
%TF.FileFunction,Paste,Bot*%
%TF.FilePolarity,Positive*%
%FSLAX46Y46*%
G04 Gerber Fmt 4.6, Leading zero omitted, Abs format (unit mm)*
G04 Created by KiCad (PCBNEW (5.1.9-0-10_14)) date 2021-08-20 09:49:49*
%MOMM*%
%LPD*%
G01*
G04 APERTURE LIST*
G04 APERTURE END LIST*
%TO.C,U14*%
G36*
G01*
X66182000Y-162941000D02*
X65882000Y-162941000D01*
G75*
G02*
X65732000Y-162791000I0J150000D01*
G01*
X65732000Y-161116000D01*
G75*
G02*
X65882000Y-160966000I150000J0D01*
G01*
X66182000Y-160966000D01*
G75*
G02*
X66332000Y-161116000I0J-150000D01*
G01*
X66332000Y-162791000D01*
G75*
G02*
X66182000Y-162941000I-150000J0D01*
G01*
G37*
G36*
G01*
X64912000Y-162941000D02*
X64612000Y-162941000D01*
G75*
G02*
X64462000Y-162791000I0J150000D01*
G01*
X64462000Y-161116000D01*
G75*
G02*
X64612000Y-160966000I150000J0D01*
G01*
X64912000Y-160966000D01*
G75*
G02*
X65062000Y-161116000I0J-150000D01*
G01*
X65062000Y-162791000D01*
G75*
G02*
X64912000Y-162941000I-150000J0D01*
G01*
G37*
G36*
G01*
X63642000Y-162941000D02*
X63342000Y-162941000D01*
G75*
G02*
X63192000Y-162791000I0J150000D01*
G01*
X63192000Y-161116000D01*
G75*
G02*
X63342000Y-160966000I150000J0D01*
G01*
X63642000Y-160966000D01*
G75*
G02*
X63792000Y-161116000I0J-150000D01*
G01*
X63792000Y-162791000D01*
G75*
G02*
X63642000Y-162941000I-150000J0D01*
G01*
G37*
G36*
G01*
X62372000Y-162941000D02*
X62072000Y-162941000D01*
G75*
G02*
X61922000Y-162791000I0J150000D01*
G01*
X61922000Y-161116000D01*
G75*
G02*
X62072000Y-160966000I150000J0D01*
G01*
X62372000Y-160966000D01*
G75*
G02*
X62522000Y-161116000I0J-150000D01*
G01*
X62522000Y-162791000D01*
G75*
G02*
X62372000Y-162941000I-150000J0D01*
G01*
G37*
G36*
G01*
X61102000Y-162941000D02*
X60802000Y-162941000D01*
G75*
G02*
X60652000Y-162791000I0J150000D01*
G01*
X60652000Y-161116000D01*
G75*
G02*
X60802000Y-160966000I150000J0D01*
G01*
X61102000Y-160966000D01*
G75*
G02*
X61252000Y-161116000I0J-150000D01*
G01*
X61252000Y-162791000D01*
G75*
G02*
X61102000Y-162941000I-150000J0D01*
G01*
G37*
G36*
G01*
X59832000Y-162941000D02*
X59532000Y-162941000D01*
G75*
G02*
X59382000Y-162791000I0J150000D01*
G01*
X59382000Y-161116000D01*
G75*
G02*
X59532000Y-160966000I150000J0D01*
G01*
X59832000Y-160966000D01*
G75*
G02*
X59982000Y-161116000I0J-150000D01*
G01*
X59982000Y-162791000D01*
G75*
G02*
X59832000Y-162941000I-150000J0D01*
G01*
G37*
G36*
G01*
X58562000Y-162941000D02*
X58262000Y-162941000D01*
G75*
G02*
X58112000Y-162791000I0J150000D01*
G01*
X58112000Y-161116000D01*
G75*
G02*
X58262000Y-160966000I150000J0D01*
G01*
X58562000Y-160966000D01*
G75*
G02*
X58712000Y-161116000I0J-150000D01*
G01*
X58712000Y-162791000D01*
G75*
G02*
X58562000Y-162941000I-150000J0D01*
G01*
G37*
G36*
G01*
X58562000Y-169866000D02*
X58262000Y-169866000D01*
G75*
G02*
X58112000Y-169716000I0J150000D01*
G01*
X58112000Y-168041000D01*
G75*
G02*
X58262000Y-167891000I150000J0D01*
G01*
X58562000Y-167891000D01*
G75*
G02*
X58712000Y-168041000I0J-150000D01*
G01*
X58712000Y-169716000D01*
G75*
G02*
X58562000Y-169866000I-150000J0D01*
G01*
G37*
G36*
G01*
X59832000Y-169866000D02*
X59532000Y-169866000D01*
G75*
G02*
X59382000Y-169716000I0J150000D01*
G01*
X59382000Y-168041000D01*
G75*
G02*
X59532000Y-167891000I150000J0D01*
G01*
X59832000Y-167891000D01*
G75*
G02*
X59982000Y-168041000I0J-150000D01*
G01*
X59982000Y-169716000D01*
G75*
G02*
X59832000Y-169866000I-150000J0D01*
G01*
G37*
G36*
G01*
X61102000Y-169866000D02*
X60802000Y-169866000D01*
G75*
G02*
X60652000Y-169716000I0J150000D01*
G01*
X60652000Y-168041000D01*
G75*
G02*
X60802000Y-167891000I150000J0D01*
G01*
X61102000Y-167891000D01*
G75*
G02*
X61252000Y-168041000I0J-150000D01*
G01*
X61252000Y-169716000D01*
G75*
G02*
X61102000Y-169866000I-150000J0D01*
G01*
G37*
G36*
G01*
X62372000Y-169866000D02*
X62072000Y-169866000D01*
G75*
G02*
X61922000Y-169716000I0J150000D01*
G01*
X61922000Y-168041000D01*
G75*
G02*
X62072000Y-167891000I150000J0D01*
G01*
X62372000Y-167891000D01*
G75*
G02*
X62522000Y-168041000I0J-150000D01*
G01*
X62522000Y-169716000D01*
G75*
G02*
X62372000Y-169866000I-150000J0D01*
G01*
G37*
G36*
G01*
X63642000Y-169866000D02*
X63342000Y-169866000D01*
G75*
G02*
X63192000Y-169716000I0J150000D01*
G01*
X63192000Y-168041000D01*
G75*
G02*
X63342000Y-167891000I150000J0D01*
G01*
X63642000Y-167891000D01*
G75*
G02*
X63792000Y-168041000I0J-150000D01*
G01*
X63792000Y-169716000D01*
G75*
G02*
X63642000Y-169866000I-150000J0D01*
G01*
G37*
G36*
G01*
X64912000Y-169866000D02*
X64612000Y-169866000D01*
G75*
G02*
X64462000Y-169716000I0J150000D01*
G01*
X64462000Y-168041000D01*
G75*
G02*
X64612000Y-167891000I150000J0D01*
G01*
X64912000Y-167891000D01*
G75*
G02*
X65062000Y-168041000I0J-150000D01*
G01*
X65062000Y-169716000D01*
G75*
G02*
X64912000Y-169866000I-150000J0D01*
G01*
G37*
G36*
G01*
X66182000Y-169866000D02*
X65882000Y-169866000D01*
G75*
G02*
X65732000Y-169716000I0J150000D01*
G01*
X65732000Y-168041000D01*
G75*
G02*
X65882000Y-167891000I150000J0D01*
G01*
X66182000Y-167891000D01*
G75*
G02*
X66332000Y-168041000I0J-150000D01*
G01*
X66332000Y-169716000D01*
G75*
G02*
X66182000Y-169866000I-150000J0D01*
G01*
G37*
%TD*%
%TO.C,R74*%
G36*
G01*
X44487500Y-180762500D02*
X44487500Y-181237500D01*
G75*
G02*
X44250000Y-181475000I-237500J0D01*
G01*
X43750000Y-181475000D01*
G75*
G02*
X43512500Y-181237500I0J237500D01*
G01*
X43512500Y-180762500D01*
G75*
G02*
X43750000Y-180525000I237500J0D01*
G01*
X44250000Y-180525000D01*
G75*
G02*
X44487500Y-180762500I0J-237500D01*
G01*
G37*
G36*
G01*
X46312500Y-180762500D02*
X46312500Y-181237500D01*
G75*
G02*
X46075000Y-181475000I-237500J0D01*
G01*
X45575000Y-181475000D01*
G75*
G02*
X45337500Y-181237500I0J237500D01*
G01*
X45337500Y-180762500D01*
G75*
G02*
X45575000Y-180525000I237500J0D01*
G01*
X46075000Y-180525000D01*
G75*
G02*
X46312500Y-180762500I0J-237500D01*
G01*
G37*
%TD*%
%TO.C,R73*%
G36*
G01*
X44487500Y-177762500D02*
X44487500Y-178237500D01*
G75*
G02*
X44250000Y-178475000I-237500J0D01*
G01*
X43750000Y-178475000D01*
G75*
G02*
X43512500Y-178237500I0J237500D01*
G01*
X43512500Y-177762500D01*
G75*
G02*
X43750000Y-177525000I237500J0D01*
G01*
X44250000Y-177525000D01*
G75*
G02*
X44487500Y-177762500I0J-237500D01*
G01*
G37*
G36*
G01*
X46312500Y-177762500D02*
X46312500Y-178237500D01*
G75*
G02*
X46075000Y-178475000I-237500J0D01*
G01*
X45575000Y-178475000D01*
G75*
G02*
X45337500Y-178237500I0J237500D01*
G01*
X45337500Y-177762500D01*
G75*
G02*
X45575000Y-177525000I237500J0D01*
G01*
X46075000Y-177525000D01*
G75*
G02*
X46312500Y-177762500I0J-237500D01*
G01*
G37*
%TD*%
%TO.C,R72*%
G36*
G01*
X52762500Y-189337000D02*
X53237500Y-189337000D01*
G75*
G02*
X53475000Y-189574500I0J-237500D01*
G01*
X53475000Y-190074500D01*
G75*
G02*
X53237500Y-190312000I-237500J0D01*
G01*
X52762500Y-190312000D01*
G75*
G02*
X52525000Y-190074500I0J237500D01*
G01*
X52525000Y-189574500D01*
G75*
G02*
X52762500Y-189337000I237500J0D01*
G01*
G37*
G36*
G01*
X52762500Y-187512000D02*
X53237500Y-187512000D01*
G75*
G02*
X53475000Y-187749500I0J-237500D01*
G01*
X53475000Y-188249500D01*
G75*
G02*
X53237500Y-188487000I-237500J0D01*
G01*
X52762500Y-188487000D01*
G75*
G02*
X52525000Y-188249500I0J237500D01*
G01*
X52525000Y-187749500D01*
G75*
G02*
X52762500Y-187512000I237500J0D01*
G01*
G37*
%TD*%
%TO.C,R71*%
G36*
G01*
X48762500Y-189337000D02*
X49237500Y-189337000D01*
G75*
G02*
X49475000Y-189574500I0J-237500D01*
G01*
X49475000Y-190074500D01*
G75*
G02*
X49237500Y-190312000I-237500J0D01*
G01*
X48762500Y-190312000D01*
G75*
G02*
X48525000Y-190074500I0J237500D01*
G01*
X48525000Y-189574500D01*
G75*
G02*
X48762500Y-189337000I237500J0D01*
G01*
G37*
G36*
G01*
X48762500Y-187512000D02*
X49237500Y-187512000D01*
G75*
G02*
X49475000Y-187749500I0J-237500D01*
G01*
X49475000Y-188249500D01*
G75*
G02*
X49237500Y-188487000I-237500J0D01*
G01*
X48762500Y-188487000D01*
G75*
G02*
X48525000Y-188249500I0J237500D01*
G01*
X48525000Y-187749500D01*
G75*
G02*
X48762500Y-187512000I237500J0D01*
G01*
G37*
%TD*%
%TO.C,C34*%
G36*
G01*
X41205500Y-67790500D02*
X41205500Y-68265500D01*
G75*
G02*
X40968000Y-68503000I-237500J0D01*
G01*
X40368000Y-68503000D01*
G75*
G02*
X40130500Y-68265500I0J237500D01*
G01*
X40130500Y-67790500D01*
G75*
G02*
X40368000Y-67553000I237500J0D01*
G01*
X40968000Y-67553000D01*
G75*
G02*
X41205500Y-67790500I0J-237500D01*
G01*
G37*
G36*
G01*
X42930500Y-67790500D02*
X42930500Y-68265500D01*
G75*
G02*
X42693000Y-68503000I-237500J0D01*
G01*
X42093000Y-68503000D01*
G75*
G02*
X41855500Y-68265500I0J237500D01*
G01*
X41855500Y-67790500D01*
G75*
G02*
X42093000Y-67553000I237500J0D01*
G01*
X42693000Y-67553000D01*
G75*
G02*
X42930500Y-67790500I0J-237500D01*
G01*
G37*
%TD*%
%TO.C,C33*%
G36*
G01*
X34334500Y-113465000D02*
X34809500Y-113465000D01*
G75*
G02*
X35047000Y-113702500I0J-237500D01*
G01*
X35047000Y-114302500D01*
G75*
G02*
X34809500Y-114540000I-237500J0D01*
G01*
X34334500Y-114540000D01*
G75*
G02*
X34097000Y-114302500I0J237500D01*
G01*
X34097000Y-113702500D01*
G75*
G02*
X34334500Y-113465000I237500J0D01*
G01*
G37*
G36*
G01*
X34334500Y-111740000D02*
X34809500Y-111740000D01*
G75*
G02*
X35047000Y-111977500I0J-237500D01*
G01*
X35047000Y-112577500D01*
G75*
G02*
X34809500Y-112815000I-237500J0D01*
G01*
X34334500Y-112815000D01*
G75*
G02*
X34097000Y-112577500I0J237500D01*
G01*
X34097000Y-111977500D01*
G75*
G02*
X34334500Y-111740000I237500J0D01*
G01*
G37*
%TD*%
%TO.C,C32*%
G36*
G01*
X34809500Y-141813000D02*
X34334500Y-141813000D01*
G75*
G02*
X34097000Y-141575500I0J237500D01*
G01*
X34097000Y-140975500D01*
G75*
G02*
X34334500Y-140738000I237500J0D01*
G01*
X34809500Y-140738000D01*
G75*
G02*
X35047000Y-140975500I0J-237500D01*
G01*
X35047000Y-141575500D01*
G75*
G02*
X34809500Y-141813000I-237500J0D01*
G01*
G37*
G36*
G01*
X34809500Y-143538000D02*
X34334500Y-143538000D01*
G75*
G02*
X34097000Y-143300500I0J237500D01*
G01*
X34097000Y-142700500D01*
G75*
G02*
X34334500Y-142463000I237500J0D01*
G01*
X34809500Y-142463000D01*
G75*
G02*
X35047000Y-142700500I0J-237500D01*
G01*
X35047000Y-143300500D01*
G75*
G02*
X34809500Y-143538000I-237500J0D01*
G01*
G37*
%TD*%
%TO.C,C22*%
G36*
G01*
X62462500Y-181237500D02*
X62462500Y-180762500D01*
G75*
G02*
X62700000Y-180525000I237500J0D01*
G01*
X63300000Y-180525000D01*
G75*
G02*
X63537500Y-180762500I0J-237500D01*
G01*
X63537500Y-181237500D01*
G75*
G02*
X63300000Y-181475000I-237500J0D01*
G01*
X62700000Y-181475000D01*
G75*
G02*
X62462500Y-181237500I0J237500D01*
G01*
G37*
G36*
G01*
X60737500Y-181237500D02*
X60737500Y-180762500D01*
G75*
G02*
X60975000Y-180525000I237500J0D01*
G01*
X61575000Y-180525000D01*
G75*
G02*
X61812500Y-180762500I0J-237500D01*
G01*
X61812500Y-181237500D01*
G75*
G02*
X61575000Y-181475000I-237500J0D01*
G01*
X60975000Y-181475000D01*
G75*
G02*
X60737500Y-181237500I0J237500D01*
G01*
G37*
%TD*%
%TO.C,C21*%
G36*
G01*
X62462500Y-178237500D02*
X62462500Y-177762500D01*
G75*
G02*
X62700000Y-177525000I237500J0D01*
G01*
X63300000Y-177525000D01*
G75*
G02*
X63537500Y-177762500I0J-237500D01*
G01*
X63537500Y-178237500D01*
G75*
G02*
X63300000Y-178475000I-237500J0D01*
G01*
X62700000Y-178475000D01*
G75*
G02*
X62462500Y-178237500I0J237500D01*
G01*
G37*
G36*
G01*
X60737500Y-178237500D02*
X60737500Y-177762500D01*
G75*
G02*
X60975000Y-177525000I237500J0D01*
G01*
X61575000Y-177525000D01*
G75*
G02*
X61812500Y-177762500I0J-237500D01*
G01*
X61812500Y-178237500D01*
G75*
G02*
X61575000Y-178475000I-237500J0D01*
G01*
X60975000Y-178475000D01*
G75*
G02*
X60737500Y-178237500I0J237500D01*
G01*
G37*
%TD*%
%TO.C,R18*%
G36*
G01*
X137569000Y-180762500D02*
X137569000Y-181237500D01*
G75*
G02*
X137331500Y-181475000I-237500J0D01*
G01*
X136831500Y-181475000D01*
G75*
G02*
X136594000Y-181237500I0J237500D01*
G01*
X136594000Y-180762500D01*
G75*
G02*
X136831500Y-180525000I237500J0D01*
G01*
X137331500Y-180525000D01*
G75*
G02*
X137569000Y-180762500I0J-237500D01*
G01*
G37*
G36*
G01*
X139394000Y-180762500D02*
X139394000Y-181237500D01*
G75*
G02*
X139156500Y-181475000I-237500J0D01*
G01*
X138656500Y-181475000D01*
G75*
G02*
X138419000Y-181237500I0J237500D01*
G01*
X138419000Y-180762500D01*
G75*
G02*
X138656500Y-180525000I237500J0D01*
G01*
X139156500Y-180525000D01*
G75*
G02*
X139394000Y-180762500I0J-237500D01*
G01*
G37*
%TD*%
%TO.C,R19*%
G36*
G01*
X148237500Y-188487000D02*
X147762500Y-188487000D01*
G75*
G02*
X147525000Y-188249500I0J237500D01*
G01*
X147525000Y-187749500D01*
G75*
G02*
X147762500Y-187512000I237500J0D01*
G01*
X148237500Y-187512000D01*
G75*
G02*
X148475000Y-187749500I0J-237500D01*
G01*
X148475000Y-188249500D01*
G75*
G02*
X148237500Y-188487000I-237500J0D01*
G01*
G37*
G36*
G01*
X148237500Y-190312000D02*
X147762500Y-190312000D01*
G75*
G02*
X147525000Y-190074500I0J237500D01*
G01*
X147525000Y-189574500D01*
G75*
G02*
X147762500Y-189337000I237500J0D01*
G01*
X148237500Y-189337000D01*
G75*
G02*
X148475000Y-189574500I0J-237500D01*
G01*
X148475000Y-190074500D01*
G75*
G02*
X148237500Y-190312000I-237500J0D01*
G01*
G37*
%TD*%
%TO.C,U10*%
G36*
G01*
X97556000Y-162941000D02*
X97256000Y-162941000D01*
G75*
G02*
X97106000Y-162791000I0J150000D01*
G01*
X97106000Y-161116000D01*
G75*
G02*
X97256000Y-160966000I150000J0D01*
G01*
X97556000Y-160966000D01*
G75*
G02*
X97706000Y-161116000I0J-150000D01*
G01*
X97706000Y-162791000D01*
G75*
G02*
X97556000Y-162941000I-150000J0D01*
G01*
G37*
G36*
G01*
X96286000Y-162941000D02*
X95986000Y-162941000D01*
G75*
G02*
X95836000Y-162791000I0J150000D01*
G01*
X95836000Y-161116000D01*
G75*
G02*
X95986000Y-160966000I150000J0D01*
G01*
X96286000Y-160966000D01*
G75*
G02*
X96436000Y-161116000I0J-150000D01*
G01*
X96436000Y-162791000D01*
G75*
G02*
X96286000Y-162941000I-150000J0D01*
G01*
G37*
G36*
G01*
X95016000Y-162941000D02*
X94716000Y-162941000D01*
G75*
G02*
X94566000Y-162791000I0J150000D01*
G01*
X94566000Y-161116000D01*
G75*
G02*
X94716000Y-160966000I150000J0D01*
G01*
X95016000Y-160966000D01*
G75*
G02*
X95166000Y-161116000I0J-150000D01*
G01*
X95166000Y-162791000D01*
G75*
G02*
X95016000Y-162941000I-150000J0D01*
G01*
G37*
G36*
G01*
X93746000Y-162941000D02*
X93446000Y-162941000D01*
G75*
G02*
X93296000Y-162791000I0J150000D01*
G01*
X93296000Y-161116000D01*
G75*
G02*
X93446000Y-160966000I150000J0D01*
G01*
X93746000Y-160966000D01*
G75*
G02*
X93896000Y-161116000I0J-150000D01*
G01*
X93896000Y-162791000D01*
G75*
G02*
X93746000Y-162941000I-150000J0D01*
G01*
G37*
G36*
G01*
X92476000Y-162941000D02*
X92176000Y-162941000D01*
G75*
G02*
X92026000Y-162791000I0J150000D01*
G01*
X92026000Y-161116000D01*
G75*
G02*
X92176000Y-160966000I150000J0D01*
G01*
X92476000Y-160966000D01*
G75*
G02*
X92626000Y-161116000I0J-150000D01*
G01*
X92626000Y-162791000D01*
G75*
G02*
X92476000Y-162941000I-150000J0D01*
G01*
G37*
G36*
G01*
X91206000Y-162941000D02*
X90906000Y-162941000D01*
G75*
G02*
X90756000Y-162791000I0J150000D01*
G01*
X90756000Y-161116000D01*
G75*
G02*
X90906000Y-160966000I150000J0D01*
G01*
X91206000Y-160966000D01*
G75*
G02*
X91356000Y-161116000I0J-150000D01*
G01*
X91356000Y-162791000D01*
G75*
G02*
X91206000Y-162941000I-150000J0D01*
G01*
G37*
G36*
G01*
X89936000Y-162941000D02*
X89636000Y-162941000D01*
G75*
G02*
X89486000Y-162791000I0J150000D01*
G01*
X89486000Y-161116000D01*
G75*
G02*
X89636000Y-160966000I150000J0D01*
G01*
X89936000Y-160966000D01*
G75*
G02*
X90086000Y-161116000I0J-150000D01*
G01*
X90086000Y-162791000D01*
G75*
G02*
X89936000Y-162941000I-150000J0D01*
G01*
G37*
G36*
G01*
X89936000Y-169866000D02*
X89636000Y-169866000D01*
G75*
G02*
X89486000Y-169716000I0J150000D01*
G01*
X89486000Y-168041000D01*
G75*
G02*
X89636000Y-167891000I150000J0D01*
G01*
X89936000Y-167891000D01*
G75*
G02*
X90086000Y-168041000I0J-150000D01*
G01*
X90086000Y-169716000D01*
G75*
G02*
X89936000Y-169866000I-150000J0D01*
G01*
G37*
G36*
G01*
X91206000Y-169866000D02*
X90906000Y-169866000D01*
G75*
G02*
X90756000Y-169716000I0J150000D01*
G01*
X90756000Y-168041000D01*
G75*
G02*
X90906000Y-167891000I150000J0D01*
G01*
X91206000Y-167891000D01*
G75*
G02*
X91356000Y-168041000I0J-150000D01*
G01*
X91356000Y-169716000D01*
G75*
G02*
X91206000Y-169866000I-150000J0D01*
G01*
G37*
G36*
G01*
X92476000Y-169866000D02*
X92176000Y-169866000D01*
G75*
G02*
X92026000Y-169716000I0J150000D01*
G01*
X92026000Y-168041000D01*
G75*
G02*
X92176000Y-167891000I150000J0D01*
G01*
X92476000Y-167891000D01*
G75*
G02*
X92626000Y-168041000I0J-150000D01*
G01*
X92626000Y-169716000D01*
G75*
G02*
X92476000Y-169866000I-150000J0D01*
G01*
G37*
G36*
G01*
X93746000Y-169866000D02*
X93446000Y-169866000D01*
G75*
G02*
X93296000Y-169716000I0J150000D01*
G01*
X93296000Y-168041000D01*
G75*
G02*
X93446000Y-167891000I150000J0D01*
G01*
X93746000Y-167891000D01*
G75*
G02*
X93896000Y-168041000I0J-150000D01*
G01*
X93896000Y-169716000D01*
G75*
G02*
X93746000Y-169866000I-150000J0D01*
G01*
G37*
G36*
G01*
X95016000Y-169866000D02*
X94716000Y-169866000D01*
G75*
G02*
X94566000Y-169716000I0J150000D01*
G01*
X94566000Y-168041000D01*
G75*
G02*
X94716000Y-167891000I150000J0D01*
G01*
X95016000Y-167891000D01*
G75*
G02*
X95166000Y-168041000I0J-150000D01*
G01*
X95166000Y-169716000D01*
G75*
G02*
X95016000Y-169866000I-150000J0D01*
G01*
G37*
G36*
G01*
X96286000Y-169866000D02*
X95986000Y-169866000D01*
G75*
G02*
X95836000Y-169716000I0J150000D01*
G01*
X95836000Y-168041000D01*
G75*
G02*
X95986000Y-167891000I150000J0D01*
G01*
X96286000Y-167891000D01*
G75*
G02*
X96436000Y-168041000I0J-150000D01*
G01*
X96436000Y-169716000D01*
G75*
G02*
X96286000Y-169866000I-150000J0D01*
G01*
G37*
G36*
G01*
X97556000Y-169866000D02*
X97256000Y-169866000D01*
G75*
G02*
X97106000Y-169716000I0J150000D01*
G01*
X97106000Y-168041000D01*
G75*
G02*
X97256000Y-167891000I150000J0D01*
G01*
X97556000Y-167891000D01*
G75*
G02*
X97706000Y-168041000I0J-150000D01*
G01*
X97706000Y-169716000D01*
G75*
G02*
X97556000Y-169866000I-150000J0D01*
G01*
G37*
%TD*%
%TO.C,U6*%
G36*
G01*
X132881000Y-162941000D02*
X132581000Y-162941000D01*
G75*
G02*
X132431000Y-162791000I0J150000D01*
G01*
X132431000Y-161116000D01*
G75*
G02*
X132581000Y-160966000I150000J0D01*
G01*
X132881000Y-160966000D01*
G75*
G02*
X133031000Y-161116000I0J-150000D01*
G01*
X133031000Y-162791000D01*
G75*
G02*
X132881000Y-162941000I-150000J0D01*
G01*
G37*
G36*
G01*
X131611000Y-162941000D02*
X131311000Y-162941000D01*
G75*
G02*
X131161000Y-162791000I0J150000D01*
G01*
X131161000Y-161116000D01*
G75*
G02*
X131311000Y-160966000I150000J0D01*
G01*
X131611000Y-160966000D01*
G75*
G02*
X131761000Y-161116000I0J-150000D01*
G01*
X131761000Y-162791000D01*
G75*
G02*
X131611000Y-162941000I-150000J0D01*
G01*
G37*
G36*
G01*
X130341000Y-162941000D02*
X130041000Y-162941000D01*
G75*
G02*
X129891000Y-162791000I0J150000D01*
G01*
X129891000Y-161116000D01*
G75*
G02*
X130041000Y-160966000I150000J0D01*
G01*
X130341000Y-160966000D01*
G75*
G02*
X130491000Y-161116000I0J-150000D01*
G01*
X130491000Y-162791000D01*
G75*
G02*
X130341000Y-162941000I-150000J0D01*
G01*
G37*
G36*
G01*
X129071000Y-162941000D02*
X128771000Y-162941000D01*
G75*
G02*
X128621000Y-162791000I0J150000D01*
G01*
X128621000Y-161116000D01*
G75*
G02*
X128771000Y-160966000I150000J0D01*
G01*
X129071000Y-160966000D01*
G75*
G02*
X129221000Y-161116000I0J-150000D01*
G01*
X129221000Y-162791000D01*
G75*
G02*
X129071000Y-162941000I-150000J0D01*
G01*
G37*
G36*
G01*
X127801000Y-162941000D02*
X127501000Y-162941000D01*
G75*
G02*
X127351000Y-162791000I0J150000D01*
G01*
X127351000Y-161116000D01*
G75*
G02*
X127501000Y-160966000I150000J0D01*
G01*
X127801000Y-160966000D01*
G75*
G02*
X127951000Y-161116000I0J-150000D01*
G01*
X127951000Y-162791000D01*
G75*
G02*
X127801000Y-162941000I-150000J0D01*
G01*
G37*
G36*
G01*
X126531000Y-162941000D02*
X126231000Y-162941000D01*
G75*
G02*
X126081000Y-162791000I0J150000D01*
G01*
X126081000Y-161116000D01*
G75*
G02*
X126231000Y-160966000I150000J0D01*
G01*
X126531000Y-160966000D01*
G75*
G02*
X126681000Y-161116000I0J-150000D01*
G01*
X126681000Y-162791000D01*
G75*
G02*
X126531000Y-162941000I-150000J0D01*
G01*
G37*
G36*
G01*
X125261000Y-162941000D02*
X124961000Y-162941000D01*
G75*
G02*
X124811000Y-162791000I0J150000D01*
G01*
X124811000Y-161116000D01*
G75*
G02*
X124961000Y-160966000I150000J0D01*
G01*
X125261000Y-160966000D01*
G75*
G02*
X125411000Y-161116000I0J-150000D01*
G01*
X125411000Y-162791000D01*
G75*
G02*
X125261000Y-162941000I-150000J0D01*
G01*
G37*
G36*
G01*
X125261000Y-169866000D02*
X124961000Y-169866000D01*
G75*
G02*
X124811000Y-169716000I0J150000D01*
G01*
X124811000Y-168041000D01*
G75*
G02*
X124961000Y-167891000I150000J0D01*
G01*
X125261000Y-167891000D01*
G75*
G02*
X125411000Y-168041000I0J-150000D01*
G01*
X125411000Y-169716000D01*
G75*
G02*
X125261000Y-169866000I-150000J0D01*
G01*
G37*
G36*
G01*
X126531000Y-169866000D02*
X126231000Y-169866000D01*
G75*
G02*
X126081000Y-169716000I0J150000D01*
G01*
X126081000Y-168041000D01*
G75*
G02*
X126231000Y-167891000I150000J0D01*
G01*
X126531000Y-167891000D01*
G75*
G02*
X126681000Y-168041000I0J-150000D01*
G01*
X126681000Y-169716000D01*
G75*
G02*
X126531000Y-169866000I-150000J0D01*
G01*
G37*
G36*
G01*
X127801000Y-169866000D02*
X127501000Y-169866000D01*
G75*
G02*
X127351000Y-169716000I0J150000D01*
G01*
X127351000Y-168041000D01*
G75*
G02*
X127501000Y-167891000I150000J0D01*
G01*
X127801000Y-167891000D01*
G75*
G02*
X127951000Y-168041000I0J-150000D01*
G01*
X127951000Y-169716000D01*
G75*
G02*
X127801000Y-169866000I-150000J0D01*
G01*
G37*
G36*
G01*
X129071000Y-169866000D02*
X128771000Y-169866000D01*
G75*
G02*
X128621000Y-169716000I0J150000D01*
G01*
X128621000Y-168041000D01*
G75*
G02*
X128771000Y-167891000I150000J0D01*
G01*
X129071000Y-167891000D01*
G75*
G02*
X129221000Y-168041000I0J-150000D01*
G01*
X129221000Y-169716000D01*
G75*
G02*
X129071000Y-169866000I-150000J0D01*
G01*
G37*
G36*
G01*
X130341000Y-169866000D02*
X130041000Y-169866000D01*
G75*
G02*
X129891000Y-169716000I0J150000D01*
G01*
X129891000Y-168041000D01*
G75*
G02*
X130041000Y-167891000I150000J0D01*
G01*
X130341000Y-167891000D01*
G75*
G02*
X130491000Y-168041000I0J-150000D01*
G01*
X130491000Y-169716000D01*
G75*
G02*
X130341000Y-169866000I-150000J0D01*
G01*
G37*
G36*
G01*
X131611000Y-169866000D02*
X131311000Y-169866000D01*
G75*
G02*
X131161000Y-169716000I0J150000D01*
G01*
X131161000Y-168041000D01*
G75*
G02*
X131311000Y-167891000I150000J0D01*
G01*
X131611000Y-167891000D01*
G75*
G02*
X131761000Y-168041000I0J-150000D01*
G01*
X131761000Y-169716000D01*
G75*
G02*
X131611000Y-169866000I-150000J0D01*
G01*
G37*
G36*
G01*
X132881000Y-169866000D02*
X132581000Y-169866000D01*
G75*
G02*
X132431000Y-169716000I0J150000D01*
G01*
X132431000Y-168041000D01*
G75*
G02*
X132581000Y-167891000I150000J0D01*
G01*
X132881000Y-167891000D01*
G75*
G02*
X133031000Y-168041000I0J-150000D01*
G01*
X133031000Y-169716000D01*
G75*
G02*
X132881000Y-169866000I-150000J0D01*
G01*
G37*
%TD*%
%TO.C,R63*%
G36*
G01*
X57237500Y-188487000D02*
X56762500Y-188487000D01*
G75*
G02*
X56525000Y-188249500I0J237500D01*
G01*
X56525000Y-187749500D01*
G75*
G02*
X56762500Y-187512000I237500J0D01*
G01*
X57237500Y-187512000D01*
G75*
G02*
X57475000Y-187749500I0J-237500D01*
G01*
X57475000Y-188249500D01*
G75*
G02*
X57237500Y-188487000I-237500J0D01*
G01*
G37*
G36*
G01*
X57237500Y-190312000D02*
X56762500Y-190312000D01*
G75*
G02*
X56525000Y-190074500I0J237500D01*
G01*
X56525000Y-189574500D01*
G75*
G02*
X56762500Y-189337000I237500J0D01*
G01*
X57237500Y-189337000D01*
G75*
G02*
X57475000Y-189574500I0J-237500D01*
G01*
X57475000Y-190074500D01*
G75*
G02*
X57237500Y-190312000I-237500J0D01*
G01*
G37*
%TD*%
%TO.C,R62*%
G36*
G01*
X44487500Y-183762500D02*
X44487500Y-184237500D01*
G75*
G02*
X44250000Y-184475000I-237500J0D01*
G01*
X43750000Y-184475000D01*
G75*
G02*
X43512500Y-184237500I0J237500D01*
G01*
X43512500Y-183762500D01*
G75*
G02*
X43750000Y-183525000I237500J0D01*
G01*
X44250000Y-183525000D01*
G75*
G02*
X44487500Y-183762500I0J-237500D01*
G01*
G37*
G36*
G01*
X46312500Y-183762500D02*
X46312500Y-184237500D01*
G75*
G02*
X46075000Y-184475000I-237500J0D01*
G01*
X45575000Y-184475000D01*
G75*
G02*
X45337500Y-184237500I0J237500D01*
G01*
X45337500Y-183762500D01*
G75*
G02*
X45575000Y-183525000I237500J0D01*
G01*
X46075000Y-183525000D01*
G75*
G02*
X46312500Y-183762500I0J-237500D01*
G01*
G37*
%TD*%
%TO.C,R59*%
G36*
G01*
X73237500Y-188487000D02*
X72762500Y-188487000D01*
G75*
G02*
X72525000Y-188249500I0J237500D01*
G01*
X72525000Y-187749500D01*
G75*
G02*
X72762500Y-187512000I237500J0D01*
G01*
X73237500Y-187512000D01*
G75*
G02*
X73475000Y-187749500I0J-237500D01*
G01*
X73475000Y-188249500D01*
G75*
G02*
X73237500Y-188487000I-237500J0D01*
G01*
G37*
G36*
G01*
X73237500Y-190312000D02*
X72762500Y-190312000D01*
G75*
G02*
X72525000Y-190074500I0J237500D01*
G01*
X72525000Y-189574500D01*
G75*
G02*
X72762500Y-189337000I237500J0D01*
G01*
X73237500Y-189337000D01*
G75*
G02*
X73475000Y-189574500I0J-237500D01*
G01*
X73475000Y-190074500D01*
G75*
G02*
X73237500Y-190312000I-237500J0D01*
G01*
G37*
%TD*%
%TO.C,R58*%
G36*
G01*
X87512500Y-178237500D02*
X87512500Y-177762500D01*
G75*
G02*
X87750000Y-177525000I237500J0D01*
G01*
X88250000Y-177525000D01*
G75*
G02*
X88487500Y-177762500I0J-237500D01*
G01*
X88487500Y-178237500D01*
G75*
G02*
X88250000Y-178475000I-237500J0D01*
G01*
X87750000Y-178475000D01*
G75*
G02*
X87512500Y-178237500I0J237500D01*
G01*
G37*
G36*
G01*
X85687500Y-178237500D02*
X85687500Y-177762500D01*
G75*
G02*
X85925000Y-177525000I237500J0D01*
G01*
X86425000Y-177525000D01*
G75*
G02*
X86662500Y-177762500I0J-237500D01*
G01*
X86662500Y-178237500D01*
G75*
G02*
X86425000Y-178475000I-237500J0D01*
G01*
X85925000Y-178475000D01*
G75*
G02*
X85687500Y-178237500I0J237500D01*
G01*
G37*
%TD*%
%TO.C,R55*%
G36*
G01*
X77237500Y-188487000D02*
X76762500Y-188487000D01*
G75*
G02*
X76525000Y-188249500I0J237500D01*
G01*
X76525000Y-187749500D01*
G75*
G02*
X76762500Y-187512000I237500J0D01*
G01*
X77237500Y-187512000D01*
G75*
G02*
X77475000Y-187749500I0J-237500D01*
G01*
X77475000Y-188249500D01*
G75*
G02*
X77237500Y-188487000I-237500J0D01*
G01*
G37*
G36*
G01*
X77237500Y-190312000D02*
X76762500Y-190312000D01*
G75*
G02*
X76525000Y-190074500I0J237500D01*
G01*
X76525000Y-189574500D01*
G75*
G02*
X76762500Y-189337000I237500J0D01*
G01*
X77237500Y-189337000D01*
G75*
G02*
X77475000Y-189574500I0J-237500D01*
G01*
X77475000Y-190074500D01*
G75*
G02*
X77237500Y-190312000I-237500J0D01*
G01*
G37*
%TD*%
%TO.C,R54*%
G36*
G01*
X87512500Y-181237500D02*
X87512500Y-180762500D01*
G75*
G02*
X87750000Y-180525000I237500J0D01*
G01*
X88250000Y-180525000D01*
G75*
G02*
X88487500Y-180762500I0J-237500D01*
G01*
X88487500Y-181237500D01*
G75*
G02*
X88250000Y-181475000I-237500J0D01*
G01*
X87750000Y-181475000D01*
G75*
G02*
X87512500Y-181237500I0J237500D01*
G01*
G37*
G36*
G01*
X85687500Y-181237500D02*
X85687500Y-180762500D01*
G75*
G02*
X85925000Y-180525000I237500J0D01*
G01*
X86425000Y-180525000D01*
G75*
G02*
X86662500Y-180762500I0J-237500D01*
G01*
X86662500Y-181237500D01*
G75*
G02*
X86425000Y-181475000I-237500J0D01*
G01*
X85925000Y-181475000D01*
G75*
G02*
X85687500Y-181237500I0J237500D01*
G01*
G37*
%TD*%
%TO.C,R51*%
G36*
G01*
X103237500Y-188487000D02*
X102762500Y-188487000D01*
G75*
G02*
X102525000Y-188249500I0J237500D01*
G01*
X102525000Y-187749500D01*
G75*
G02*
X102762500Y-187512000I237500J0D01*
G01*
X103237500Y-187512000D01*
G75*
G02*
X103475000Y-187749500I0J-237500D01*
G01*
X103475000Y-188249500D01*
G75*
G02*
X103237500Y-188487000I-237500J0D01*
G01*
G37*
G36*
G01*
X103237500Y-190312000D02*
X102762500Y-190312000D01*
G75*
G02*
X102525000Y-190074500I0J237500D01*
G01*
X102525000Y-189574500D01*
G75*
G02*
X102762500Y-189337000I237500J0D01*
G01*
X103237500Y-189337000D01*
G75*
G02*
X103475000Y-189574500I0J-237500D01*
G01*
X103475000Y-190074500D01*
G75*
G02*
X103237500Y-190312000I-237500J0D01*
G01*
G37*
%TD*%
%TO.C,R50*%
G36*
G01*
X90487500Y-180762500D02*
X90487500Y-181237500D01*
G75*
G02*
X90250000Y-181475000I-237500J0D01*
G01*
X89750000Y-181475000D01*
G75*
G02*
X89512500Y-181237500I0J237500D01*
G01*
X89512500Y-180762500D01*
G75*
G02*
X89750000Y-180525000I237500J0D01*
G01*
X90250000Y-180525000D01*
G75*
G02*
X90487500Y-180762500I0J-237500D01*
G01*
G37*
G36*
G01*
X92312500Y-180762500D02*
X92312500Y-181237500D01*
G75*
G02*
X92075000Y-181475000I-237500J0D01*
G01*
X91575000Y-181475000D01*
G75*
G02*
X91337500Y-181237500I0J237500D01*
G01*
X91337500Y-180762500D01*
G75*
G02*
X91575000Y-180525000I237500J0D01*
G01*
X92075000Y-180525000D01*
G75*
G02*
X92312500Y-180762500I0J-237500D01*
G01*
G37*
%TD*%
%TO.C,R47*%
G36*
G01*
X95237500Y-188487000D02*
X94762500Y-188487000D01*
G75*
G02*
X94525000Y-188249500I0J237500D01*
G01*
X94525000Y-187749500D01*
G75*
G02*
X94762500Y-187512000I237500J0D01*
G01*
X95237500Y-187512000D01*
G75*
G02*
X95475000Y-187749500I0J-237500D01*
G01*
X95475000Y-188249500D01*
G75*
G02*
X95237500Y-188487000I-237500J0D01*
G01*
G37*
G36*
G01*
X95237500Y-190312000D02*
X94762500Y-190312000D01*
G75*
G02*
X94525000Y-190074500I0J237500D01*
G01*
X94525000Y-189574500D01*
G75*
G02*
X94762500Y-189337000I237500J0D01*
G01*
X95237500Y-189337000D01*
G75*
G02*
X95475000Y-189574500I0J-237500D01*
G01*
X95475000Y-190074500D01*
G75*
G02*
X95237500Y-190312000I-237500J0D01*
G01*
G37*
%TD*%
%TO.C,R46*%
G36*
G01*
X90487500Y-177762500D02*
X90487500Y-178237500D01*
G75*
G02*
X90250000Y-178475000I-237500J0D01*
G01*
X89750000Y-178475000D01*
G75*
G02*
X89512500Y-178237500I0J237500D01*
G01*
X89512500Y-177762500D01*
G75*
G02*
X89750000Y-177525000I237500J0D01*
G01*
X90250000Y-177525000D01*
G75*
G02*
X90487500Y-177762500I0J-237500D01*
G01*
G37*
G36*
G01*
X92312500Y-177762500D02*
X92312500Y-178237500D01*
G75*
G02*
X92075000Y-178475000I-237500J0D01*
G01*
X91575000Y-178475000D01*
G75*
G02*
X91337500Y-178237500I0J237500D01*
G01*
X91337500Y-177762500D01*
G75*
G02*
X91575000Y-177525000I237500J0D01*
G01*
X92075000Y-177525000D01*
G75*
G02*
X92312500Y-177762500I0J-237500D01*
G01*
G37*
%TD*%
%TO.C,R43*%
G36*
G01*
X81237500Y-188487000D02*
X80762500Y-188487000D01*
G75*
G02*
X80525000Y-188249500I0J237500D01*
G01*
X80525000Y-187749500D01*
G75*
G02*
X80762500Y-187512000I237500J0D01*
G01*
X81237500Y-187512000D01*
G75*
G02*
X81475000Y-187749500I0J-237500D01*
G01*
X81475000Y-188249500D01*
G75*
G02*
X81237500Y-188487000I-237500J0D01*
G01*
G37*
G36*
G01*
X81237500Y-190312000D02*
X80762500Y-190312000D01*
G75*
G02*
X80525000Y-190074500I0J237500D01*
G01*
X80525000Y-189574500D01*
G75*
G02*
X80762500Y-189337000I237500J0D01*
G01*
X81237500Y-189337000D01*
G75*
G02*
X81475000Y-189574500I0J-237500D01*
G01*
X81475000Y-190074500D01*
G75*
G02*
X81237500Y-190312000I-237500J0D01*
G01*
G37*
%TD*%
%TO.C,R42*%
G36*
G01*
X87512500Y-184237500D02*
X87512500Y-183762500D01*
G75*
G02*
X87750000Y-183525000I237500J0D01*
G01*
X88250000Y-183525000D01*
G75*
G02*
X88487500Y-183762500I0J-237500D01*
G01*
X88487500Y-184237500D01*
G75*
G02*
X88250000Y-184475000I-237500J0D01*
G01*
X87750000Y-184475000D01*
G75*
G02*
X87512500Y-184237500I0J237500D01*
G01*
G37*
G36*
G01*
X85687500Y-184237500D02*
X85687500Y-183762500D01*
G75*
G02*
X85925000Y-183525000I237500J0D01*
G01*
X86425000Y-183525000D01*
G75*
G02*
X86662500Y-183762500I0J-237500D01*
G01*
X86662500Y-184237500D01*
G75*
G02*
X86425000Y-184475000I-237500J0D01*
G01*
X85925000Y-184475000D01*
G75*
G02*
X85687500Y-184237500I0J237500D01*
G01*
G37*
%TD*%
%TO.C,R39*%
G36*
G01*
X99237500Y-188487000D02*
X98762500Y-188487000D01*
G75*
G02*
X98525000Y-188249500I0J237500D01*
G01*
X98525000Y-187749500D01*
G75*
G02*
X98762500Y-187512000I237500J0D01*
G01*
X99237500Y-187512000D01*
G75*
G02*
X99475000Y-187749500I0J-237500D01*
G01*
X99475000Y-188249500D01*
G75*
G02*
X99237500Y-188487000I-237500J0D01*
G01*
G37*
G36*
G01*
X99237500Y-190312000D02*
X98762500Y-190312000D01*
G75*
G02*
X98525000Y-190074500I0J237500D01*
G01*
X98525000Y-189574500D01*
G75*
G02*
X98762500Y-189337000I237500J0D01*
G01*
X99237500Y-189337000D01*
G75*
G02*
X99475000Y-189574500I0J-237500D01*
G01*
X99475000Y-190074500D01*
G75*
G02*
X99237500Y-190312000I-237500J0D01*
G01*
G37*
%TD*%
%TO.C,R38*%
G36*
G01*
X90487500Y-183762500D02*
X90487500Y-184237500D01*
G75*
G02*
X90250000Y-184475000I-237500J0D01*
G01*
X89750000Y-184475000D01*
G75*
G02*
X89512500Y-184237500I0J237500D01*
G01*
X89512500Y-183762500D01*
G75*
G02*
X89750000Y-183525000I237500J0D01*
G01*
X90250000Y-183525000D01*
G75*
G02*
X90487500Y-183762500I0J-237500D01*
G01*
G37*
G36*
G01*
X92312500Y-183762500D02*
X92312500Y-184237500D01*
G75*
G02*
X92075000Y-184475000I-237500J0D01*
G01*
X91575000Y-184475000D01*
G75*
G02*
X91337500Y-184237500I0J237500D01*
G01*
X91337500Y-183762500D01*
G75*
G02*
X91575000Y-183525000I237500J0D01*
G01*
X92075000Y-183525000D01*
G75*
G02*
X92312500Y-183762500I0J-237500D01*
G01*
G37*
%TD*%
%TO.C,R35*%
G36*
G01*
X119237500Y-188487000D02*
X118762500Y-188487000D01*
G75*
G02*
X118525000Y-188249500I0J237500D01*
G01*
X118525000Y-187749500D01*
G75*
G02*
X118762500Y-187512000I237500J0D01*
G01*
X119237500Y-187512000D01*
G75*
G02*
X119475000Y-187749500I0J-237500D01*
G01*
X119475000Y-188249500D01*
G75*
G02*
X119237500Y-188487000I-237500J0D01*
G01*
G37*
G36*
G01*
X119237500Y-190312000D02*
X118762500Y-190312000D01*
G75*
G02*
X118525000Y-190074500I0J237500D01*
G01*
X118525000Y-189574500D01*
G75*
G02*
X118762500Y-189337000I237500J0D01*
G01*
X119237500Y-189337000D01*
G75*
G02*
X119475000Y-189574500I0J-237500D01*
G01*
X119475000Y-190074500D01*
G75*
G02*
X119237500Y-190312000I-237500J0D01*
G01*
G37*
%TD*%
%TO.C,R34*%
G36*
G01*
X134513000Y-178237500D02*
X134513000Y-177762500D01*
G75*
G02*
X134750500Y-177525000I237500J0D01*
G01*
X135250500Y-177525000D01*
G75*
G02*
X135488000Y-177762500I0J-237500D01*
G01*
X135488000Y-178237500D01*
G75*
G02*
X135250500Y-178475000I-237500J0D01*
G01*
X134750500Y-178475000D01*
G75*
G02*
X134513000Y-178237500I0J237500D01*
G01*
G37*
G36*
G01*
X132688000Y-178237500D02*
X132688000Y-177762500D01*
G75*
G02*
X132925500Y-177525000I237500J0D01*
G01*
X133425500Y-177525000D01*
G75*
G02*
X133663000Y-177762500I0J-237500D01*
G01*
X133663000Y-178237500D01*
G75*
G02*
X133425500Y-178475000I-237500J0D01*
G01*
X132925500Y-178475000D01*
G75*
G02*
X132688000Y-178237500I0J237500D01*
G01*
G37*
%TD*%
%TO.C,R31*%
G36*
G01*
X123237500Y-188487000D02*
X122762500Y-188487000D01*
G75*
G02*
X122525000Y-188249500I0J237500D01*
G01*
X122525000Y-187749500D01*
G75*
G02*
X122762500Y-187512000I237500J0D01*
G01*
X123237500Y-187512000D01*
G75*
G02*
X123475000Y-187749500I0J-237500D01*
G01*
X123475000Y-188249500D01*
G75*
G02*
X123237500Y-188487000I-237500J0D01*
G01*
G37*
G36*
G01*
X123237500Y-190312000D02*
X122762500Y-190312000D01*
G75*
G02*
X122525000Y-190074500I0J237500D01*
G01*
X122525000Y-189574500D01*
G75*
G02*
X122762500Y-189337000I237500J0D01*
G01*
X123237500Y-189337000D01*
G75*
G02*
X123475000Y-189574500I0J-237500D01*
G01*
X123475000Y-190074500D01*
G75*
G02*
X123237500Y-190312000I-237500J0D01*
G01*
G37*
%TD*%
%TO.C,R30*%
G36*
G01*
X134513000Y-181237500D02*
X134513000Y-180762500D01*
G75*
G02*
X134750500Y-180525000I237500J0D01*
G01*
X135250500Y-180525000D01*
G75*
G02*
X135488000Y-180762500I0J-237500D01*
G01*
X135488000Y-181237500D01*
G75*
G02*
X135250500Y-181475000I-237500J0D01*
G01*
X134750500Y-181475000D01*
G75*
G02*
X134513000Y-181237500I0J237500D01*
G01*
G37*
G36*
G01*
X132688000Y-181237500D02*
X132688000Y-180762500D01*
G75*
G02*
X132925500Y-180525000I237500J0D01*
G01*
X133425500Y-180525000D01*
G75*
G02*
X133663000Y-180762500I0J-237500D01*
G01*
X133663000Y-181237500D01*
G75*
G02*
X133425500Y-181475000I-237500J0D01*
G01*
X132925500Y-181475000D01*
G75*
G02*
X132688000Y-181237500I0J237500D01*
G01*
G37*
%TD*%
%TO.C,R27*%
G36*
G01*
X127237500Y-188487000D02*
X126762500Y-188487000D01*
G75*
G02*
X126525000Y-188249500I0J237500D01*
G01*
X126525000Y-187749500D01*
G75*
G02*
X126762500Y-187512000I237500J0D01*
G01*
X127237500Y-187512000D01*
G75*
G02*
X127475000Y-187749500I0J-237500D01*
G01*
X127475000Y-188249500D01*
G75*
G02*
X127237500Y-188487000I-237500J0D01*
G01*
G37*
G36*
G01*
X127237500Y-190312000D02*
X126762500Y-190312000D01*
G75*
G02*
X126525000Y-190074500I0J237500D01*
G01*
X126525000Y-189574500D01*
G75*
G02*
X126762500Y-189337000I237500J0D01*
G01*
X127237500Y-189337000D01*
G75*
G02*
X127475000Y-189574500I0J-237500D01*
G01*
X127475000Y-190074500D01*
G75*
G02*
X127237500Y-190312000I-237500J0D01*
G01*
G37*
%TD*%
%TO.C,R26*%
G36*
G01*
X134513000Y-184237500D02*
X134513000Y-183762500D01*
G75*
G02*
X134750500Y-183525000I237500J0D01*
G01*
X135250500Y-183525000D01*
G75*
G02*
X135488000Y-183762500I0J-237500D01*
G01*
X135488000Y-184237500D01*
G75*
G02*
X135250500Y-184475000I-237500J0D01*
G01*
X134750500Y-184475000D01*
G75*
G02*
X134513000Y-184237500I0J237500D01*
G01*
G37*
G36*
G01*
X132688000Y-184237500D02*
X132688000Y-183762500D01*
G75*
G02*
X132925500Y-183525000I237500J0D01*
G01*
X133425500Y-183525000D01*
G75*
G02*
X133663000Y-183762500I0J-237500D01*
G01*
X133663000Y-184237500D01*
G75*
G02*
X133425500Y-184475000I-237500J0D01*
G01*
X132925500Y-184475000D01*
G75*
G02*
X132688000Y-184237500I0J237500D01*
G01*
G37*
%TD*%
%TO.C,R23*%
G36*
G01*
X144237500Y-188487000D02*
X143762500Y-188487000D01*
G75*
G02*
X143525000Y-188249500I0J237500D01*
G01*
X143525000Y-187749500D01*
G75*
G02*
X143762500Y-187512000I237500J0D01*
G01*
X144237500Y-187512000D01*
G75*
G02*
X144475000Y-187749500I0J-237500D01*
G01*
X144475000Y-188249500D01*
G75*
G02*
X144237500Y-188487000I-237500J0D01*
G01*
G37*
G36*
G01*
X144237500Y-190312000D02*
X143762500Y-190312000D01*
G75*
G02*
X143525000Y-190074500I0J237500D01*
G01*
X143525000Y-189574500D01*
G75*
G02*
X143762500Y-189337000I237500J0D01*
G01*
X144237500Y-189337000D01*
G75*
G02*
X144475000Y-189574500I0J-237500D01*
G01*
X144475000Y-190074500D01*
G75*
G02*
X144237500Y-190312000I-237500J0D01*
G01*
G37*
%TD*%
%TO.C,R22*%
G36*
G01*
X137487000Y-177762500D02*
X137487000Y-178237500D01*
G75*
G02*
X137249500Y-178475000I-237500J0D01*
G01*
X136749500Y-178475000D01*
G75*
G02*
X136512000Y-178237500I0J237500D01*
G01*
X136512000Y-177762500D01*
G75*
G02*
X136749500Y-177525000I237500J0D01*
G01*
X137249500Y-177525000D01*
G75*
G02*
X137487000Y-177762500I0J-237500D01*
G01*
G37*
G36*
G01*
X139312000Y-177762500D02*
X139312000Y-178237500D01*
G75*
G02*
X139074500Y-178475000I-237500J0D01*
G01*
X138574500Y-178475000D01*
G75*
G02*
X138337000Y-178237500I0J237500D01*
G01*
X138337000Y-177762500D01*
G75*
G02*
X138574500Y-177525000I237500J0D01*
G01*
X139074500Y-177525000D01*
G75*
G02*
X139312000Y-177762500I0J-237500D01*
G01*
G37*
%TD*%
%TO.C,R17*%
G36*
G01*
X152237500Y-188487000D02*
X151762500Y-188487000D01*
G75*
G02*
X151525000Y-188249500I0J237500D01*
G01*
X151525000Y-187749500D01*
G75*
G02*
X151762500Y-187512000I237500J0D01*
G01*
X152237500Y-187512000D01*
G75*
G02*
X152475000Y-187749500I0J-237500D01*
G01*
X152475000Y-188249500D01*
G75*
G02*
X152237500Y-188487000I-237500J0D01*
G01*
G37*
G36*
G01*
X152237500Y-190312000D02*
X151762500Y-190312000D01*
G75*
G02*
X151525000Y-190074500I0J237500D01*
G01*
X151525000Y-189574500D01*
G75*
G02*
X151762500Y-189337000I237500J0D01*
G01*
X152237500Y-189337000D01*
G75*
G02*
X152475000Y-189574500I0J-237500D01*
G01*
X152475000Y-190074500D01*
G75*
G02*
X152237500Y-190312000I-237500J0D01*
G01*
G37*
%TD*%
%TO.C,R16*%
G36*
G01*
X137569000Y-183762500D02*
X137569000Y-184237500D01*
G75*
G02*
X137331500Y-184475000I-237500J0D01*
G01*
X136831500Y-184475000D01*
G75*
G02*
X136594000Y-184237500I0J237500D01*
G01*
X136594000Y-183762500D01*
G75*
G02*
X136831500Y-183525000I237500J0D01*
G01*
X137331500Y-183525000D01*
G75*
G02*
X137569000Y-183762500I0J-237500D01*
G01*
G37*
G36*
G01*
X139394000Y-183762500D02*
X139394000Y-184237500D01*
G75*
G02*
X139156500Y-184475000I-237500J0D01*
G01*
X138656500Y-184475000D01*
G75*
G02*
X138419000Y-184237500I0J237500D01*
G01*
X138419000Y-183762500D01*
G75*
G02*
X138656500Y-183525000I237500J0D01*
G01*
X139156500Y-183525000D01*
G75*
G02*
X139394000Y-183762500I0J-237500D01*
G01*
G37*
%TD*%
%TO.C,R2*%
G36*
G01*
X70425000Y-85237500D02*
X70425000Y-84762500D01*
G75*
G02*
X70662500Y-84525000I237500J0D01*
G01*
X71162500Y-84525000D01*
G75*
G02*
X71400000Y-84762500I0J-237500D01*
G01*
X71400000Y-85237500D01*
G75*
G02*
X71162500Y-85475000I-237500J0D01*
G01*
X70662500Y-85475000D01*
G75*
G02*
X70425000Y-85237500I0J237500D01*
G01*
G37*
G36*
G01*
X68600000Y-85237500D02*
X68600000Y-84762500D01*
G75*
G02*
X68837500Y-84525000I237500J0D01*
G01*
X69337500Y-84525000D01*
G75*
G02*
X69575000Y-84762500I0J-237500D01*
G01*
X69575000Y-85237500D01*
G75*
G02*
X69337500Y-85475000I-237500J0D01*
G01*
X68837500Y-85475000D01*
G75*
G02*
X68600000Y-85237500I0J237500D01*
G01*
G37*
%TD*%
%TO.C,R1*%
G36*
G01*
X74810000Y-85237500D02*
X74810000Y-84762500D01*
G75*
G02*
X75047500Y-84525000I237500J0D01*
G01*
X75547500Y-84525000D01*
G75*
G02*
X75785000Y-84762500I0J-237500D01*
G01*
X75785000Y-85237500D01*
G75*
G02*
X75547500Y-85475000I-237500J0D01*
G01*
X75047500Y-85475000D01*
G75*
G02*
X74810000Y-85237500I0J237500D01*
G01*
G37*
G36*
G01*
X72985000Y-85237500D02*
X72985000Y-84762500D01*
G75*
G02*
X73222500Y-84525000I237500J0D01*
G01*
X73722500Y-84525000D01*
G75*
G02*
X73960000Y-84762500I0J-237500D01*
G01*
X73960000Y-85237500D01*
G75*
G02*
X73722500Y-85475000I-237500J0D01*
G01*
X73222500Y-85475000D01*
G75*
G02*
X72985000Y-85237500I0J237500D01*
G01*
G37*
%TD*%
%TO.C,C18*%
G36*
G01*
X62462500Y-184237500D02*
X62462500Y-183762500D01*
G75*
G02*
X62700000Y-183525000I237500J0D01*
G01*
X63300000Y-183525000D01*
G75*
G02*
X63537500Y-183762500I0J-237500D01*
G01*
X63537500Y-184237500D01*
G75*
G02*
X63300000Y-184475000I-237500J0D01*
G01*
X62700000Y-184475000D01*
G75*
G02*
X62462500Y-184237500I0J237500D01*
G01*
G37*
G36*
G01*
X60737500Y-184237500D02*
X60737500Y-183762500D01*
G75*
G02*
X60975000Y-183525000I237500J0D01*
G01*
X61575000Y-183525000D01*
G75*
G02*
X61812500Y-183762500I0J-237500D01*
G01*
X61812500Y-184237500D01*
G75*
G02*
X61575000Y-184475000I-237500J0D01*
G01*
X60975000Y-184475000D01*
G75*
G02*
X60737500Y-184237500I0J237500D01*
G01*
G37*
%TD*%
%TO.C,C17*%
G36*
G01*
X69416500Y-165091000D02*
X68941500Y-165091000D01*
G75*
G02*
X68704000Y-164853500I0J237500D01*
G01*
X68704000Y-164253500D01*
G75*
G02*
X68941500Y-164016000I237500J0D01*
G01*
X69416500Y-164016000D01*
G75*
G02*
X69654000Y-164253500I0J-237500D01*
G01*
X69654000Y-164853500D01*
G75*
G02*
X69416500Y-165091000I-237500J0D01*
G01*
G37*
G36*
G01*
X69416500Y-166816000D02*
X68941500Y-166816000D01*
G75*
G02*
X68704000Y-166578500I0J237500D01*
G01*
X68704000Y-165978500D01*
G75*
G02*
X68941500Y-165741000I237500J0D01*
G01*
X69416500Y-165741000D01*
G75*
G02*
X69654000Y-165978500I0J-237500D01*
G01*
X69654000Y-166578500D01*
G75*
G02*
X69416500Y-166816000I-237500J0D01*
G01*
G37*
%TD*%
%TO.C,C16*%
G36*
G01*
X65537500Y-177762500D02*
X65537500Y-178237500D01*
G75*
G02*
X65300000Y-178475000I-237500J0D01*
G01*
X64700000Y-178475000D01*
G75*
G02*
X64462500Y-178237500I0J237500D01*
G01*
X64462500Y-177762500D01*
G75*
G02*
X64700000Y-177525000I237500J0D01*
G01*
X65300000Y-177525000D01*
G75*
G02*
X65537500Y-177762500I0J-237500D01*
G01*
G37*
G36*
G01*
X67262500Y-177762500D02*
X67262500Y-178237500D01*
G75*
G02*
X67025000Y-178475000I-237500J0D01*
G01*
X66425000Y-178475000D01*
G75*
G02*
X66187500Y-178237500I0J237500D01*
G01*
X66187500Y-177762500D01*
G75*
G02*
X66425000Y-177525000I237500J0D01*
G01*
X67025000Y-177525000D01*
G75*
G02*
X67262500Y-177762500I0J-237500D01*
G01*
G37*
%TD*%
%TO.C,C15*%
G36*
G01*
X65537500Y-180762500D02*
X65537500Y-181237500D01*
G75*
G02*
X65300000Y-181475000I-237500J0D01*
G01*
X64700000Y-181475000D01*
G75*
G02*
X64462500Y-181237500I0J237500D01*
G01*
X64462500Y-180762500D01*
G75*
G02*
X64700000Y-180525000I237500J0D01*
G01*
X65300000Y-180525000D01*
G75*
G02*
X65537500Y-180762500I0J-237500D01*
G01*
G37*
G36*
G01*
X67262500Y-180762500D02*
X67262500Y-181237500D01*
G75*
G02*
X67025000Y-181475000I-237500J0D01*
G01*
X66425000Y-181475000D01*
G75*
G02*
X66187500Y-181237500I0J237500D01*
G01*
X66187500Y-180762500D01*
G75*
G02*
X66425000Y-180525000I237500J0D01*
G01*
X67025000Y-180525000D01*
G75*
G02*
X67262500Y-180762500I0J-237500D01*
G01*
G37*
%TD*%
%TO.C,C14*%
G36*
G01*
X109463000Y-181237500D02*
X109463000Y-180762500D01*
G75*
G02*
X109700500Y-180525000I237500J0D01*
G01*
X110300500Y-180525000D01*
G75*
G02*
X110538000Y-180762500I0J-237500D01*
G01*
X110538000Y-181237500D01*
G75*
G02*
X110300500Y-181475000I-237500J0D01*
G01*
X109700500Y-181475000D01*
G75*
G02*
X109463000Y-181237500I0J237500D01*
G01*
G37*
G36*
G01*
X107738000Y-181237500D02*
X107738000Y-180762500D01*
G75*
G02*
X107975500Y-180525000I237500J0D01*
G01*
X108575500Y-180525000D01*
G75*
G02*
X108813000Y-180762500I0J-237500D01*
G01*
X108813000Y-181237500D01*
G75*
G02*
X108575500Y-181475000I-237500J0D01*
G01*
X107975500Y-181475000D01*
G75*
G02*
X107738000Y-181237500I0J237500D01*
G01*
G37*
%TD*%
%TO.C,C13*%
G36*
G01*
X109463000Y-178237500D02*
X109463000Y-177762500D01*
G75*
G02*
X109700500Y-177525000I237500J0D01*
G01*
X110300500Y-177525000D01*
G75*
G02*
X110538000Y-177762500I0J-237500D01*
G01*
X110538000Y-178237500D01*
G75*
G02*
X110300500Y-178475000I-237500J0D01*
G01*
X109700500Y-178475000D01*
G75*
G02*
X109463000Y-178237500I0J237500D01*
G01*
G37*
G36*
G01*
X107738000Y-178237500D02*
X107738000Y-177762500D01*
G75*
G02*
X107975500Y-177525000I237500J0D01*
G01*
X108575500Y-177525000D01*
G75*
G02*
X108813000Y-177762500I0J-237500D01*
G01*
X108813000Y-178237500D01*
G75*
G02*
X108575500Y-178475000I-237500J0D01*
G01*
X107975500Y-178475000D01*
G75*
G02*
X107738000Y-178237500I0J237500D01*
G01*
G37*
%TD*%
%TO.C,C12*%
G36*
G01*
X65537500Y-183762500D02*
X65537500Y-184237500D01*
G75*
G02*
X65300000Y-184475000I-237500J0D01*
G01*
X64700000Y-184475000D01*
G75*
G02*
X64462500Y-184237500I0J237500D01*
G01*
X64462500Y-183762500D01*
G75*
G02*
X64700000Y-183525000I237500J0D01*
G01*
X65300000Y-183525000D01*
G75*
G02*
X65537500Y-183762500I0J-237500D01*
G01*
G37*
G36*
G01*
X67262500Y-183762500D02*
X67262500Y-184237500D01*
G75*
G02*
X67025000Y-184475000I-237500J0D01*
G01*
X66425000Y-184475000D01*
G75*
G02*
X66187500Y-184237500I0J237500D01*
G01*
X66187500Y-183762500D01*
G75*
G02*
X66425000Y-183525000I237500J0D01*
G01*
X67025000Y-183525000D01*
G75*
G02*
X67262500Y-183762500I0J-237500D01*
G01*
G37*
%TD*%
%TO.C,C11*%
G36*
G01*
X109463000Y-184237500D02*
X109463000Y-183762500D01*
G75*
G02*
X109700500Y-183525000I237500J0D01*
G01*
X110300500Y-183525000D01*
G75*
G02*
X110538000Y-183762500I0J-237500D01*
G01*
X110538000Y-184237500D01*
G75*
G02*
X110300500Y-184475000I-237500J0D01*
G01*
X109700500Y-184475000D01*
G75*
G02*
X109463000Y-184237500I0J237500D01*
G01*
G37*
G36*
G01*
X107738000Y-184237500D02*
X107738000Y-183762500D01*
G75*
G02*
X107975500Y-183525000I237500J0D01*
G01*
X108575500Y-183525000D01*
G75*
G02*
X108813000Y-183762500I0J-237500D01*
G01*
X108813000Y-184237500D01*
G75*
G02*
X108575500Y-184475000I-237500J0D01*
G01*
X107975500Y-184475000D01*
G75*
G02*
X107738000Y-184237500I0J237500D01*
G01*
G37*
%TD*%
%TO.C,C10*%
G36*
G01*
X100779500Y-165091000D02*
X100304500Y-165091000D01*
G75*
G02*
X100067000Y-164853500I0J237500D01*
G01*
X100067000Y-164253500D01*
G75*
G02*
X100304500Y-164016000I237500J0D01*
G01*
X100779500Y-164016000D01*
G75*
G02*
X101017000Y-164253500I0J-237500D01*
G01*
X101017000Y-164853500D01*
G75*
G02*
X100779500Y-165091000I-237500J0D01*
G01*
G37*
G36*
G01*
X100779500Y-166816000D02*
X100304500Y-166816000D01*
G75*
G02*
X100067000Y-166578500I0J237500D01*
G01*
X100067000Y-165978500D01*
G75*
G02*
X100304500Y-165741000I237500J0D01*
G01*
X100779500Y-165741000D01*
G75*
G02*
X101017000Y-165978500I0J-237500D01*
G01*
X101017000Y-166578500D01*
G75*
G02*
X100779500Y-166816000I-237500J0D01*
G01*
G37*
%TD*%
%TO.C,C9*%
G36*
G01*
X112537000Y-177762500D02*
X112537000Y-178237500D01*
G75*
G02*
X112299500Y-178475000I-237500J0D01*
G01*
X111699500Y-178475000D01*
G75*
G02*
X111462000Y-178237500I0J237500D01*
G01*
X111462000Y-177762500D01*
G75*
G02*
X111699500Y-177525000I237500J0D01*
G01*
X112299500Y-177525000D01*
G75*
G02*
X112537000Y-177762500I0J-237500D01*
G01*
G37*
G36*
G01*
X114262000Y-177762500D02*
X114262000Y-178237500D01*
G75*
G02*
X114024500Y-178475000I-237500J0D01*
G01*
X113424500Y-178475000D01*
G75*
G02*
X113187000Y-178237500I0J237500D01*
G01*
X113187000Y-177762500D01*
G75*
G02*
X113424500Y-177525000I237500J0D01*
G01*
X114024500Y-177525000D01*
G75*
G02*
X114262000Y-177762500I0J-237500D01*
G01*
G37*
%TD*%
%TO.C,C8*%
G36*
G01*
X112537000Y-180762500D02*
X112537000Y-181237500D01*
G75*
G02*
X112299500Y-181475000I-237500J0D01*
G01*
X111699500Y-181475000D01*
G75*
G02*
X111462000Y-181237500I0J237500D01*
G01*
X111462000Y-180762500D01*
G75*
G02*
X111699500Y-180525000I237500J0D01*
G01*
X112299500Y-180525000D01*
G75*
G02*
X112537000Y-180762500I0J-237500D01*
G01*
G37*
G36*
G01*
X114262000Y-180762500D02*
X114262000Y-181237500D01*
G75*
G02*
X114024500Y-181475000I-237500J0D01*
G01*
X113424500Y-181475000D01*
G75*
G02*
X113187000Y-181237500I0J237500D01*
G01*
X113187000Y-180762500D01*
G75*
G02*
X113424500Y-180525000I237500J0D01*
G01*
X114024500Y-180525000D01*
G75*
G02*
X114262000Y-180762500I0J-237500D01*
G01*
G37*
%TD*%
%TO.C,C7*%
G36*
G01*
X112537000Y-183762500D02*
X112537000Y-184237500D01*
G75*
G02*
X112299500Y-184475000I-237500J0D01*
G01*
X111699500Y-184475000D01*
G75*
G02*
X111462000Y-184237500I0J237500D01*
G01*
X111462000Y-183762500D01*
G75*
G02*
X111699500Y-183525000I237500J0D01*
G01*
X112299500Y-183525000D01*
G75*
G02*
X112537000Y-183762500I0J-237500D01*
G01*
G37*
G36*
G01*
X114262000Y-183762500D02*
X114262000Y-184237500D01*
G75*
G02*
X114024500Y-184475000I-237500J0D01*
G01*
X113424500Y-184475000D01*
G75*
G02*
X113187000Y-184237500I0J237500D01*
G01*
X113187000Y-183762500D01*
G75*
G02*
X113424500Y-183525000I237500J0D01*
G01*
X114024500Y-183525000D01*
G75*
G02*
X114262000Y-183762500I0J-237500D01*
G01*
G37*
%TD*%
%TO.C,C6*%
G36*
G01*
X156463000Y-184237500D02*
X156463000Y-183762500D01*
G75*
G02*
X156700500Y-183525000I237500J0D01*
G01*
X157300500Y-183525000D01*
G75*
G02*
X157538000Y-183762500I0J-237500D01*
G01*
X157538000Y-184237500D01*
G75*
G02*
X157300500Y-184475000I-237500J0D01*
G01*
X156700500Y-184475000D01*
G75*
G02*
X156463000Y-184237500I0J237500D01*
G01*
G37*
G36*
G01*
X154738000Y-184237500D02*
X154738000Y-183762500D01*
G75*
G02*
X154975500Y-183525000I237500J0D01*
G01*
X155575500Y-183525000D01*
G75*
G02*
X155813000Y-183762500I0J-237500D01*
G01*
X155813000Y-184237500D01*
G75*
G02*
X155575500Y-184475000I-237500J0D01*
G01*
X154975500Y-184475000D01*
G75*
G02*
X154738000Y-184237500I0J237500D01*
G01*
G37*
%TD*%
%TO.C,C5*%
G36*
G01*
X135861500Y-165091000D02*
X135386500Y-165091000D01*
G75*
G02*
X135149000Y-164853500I0J237500D01*
G01*
X135149000Y-164253500D01*
G75*
G02*
X135386500Y-164016000I237500J0D01*
G01*
X135861500Y-164016000D01*
G75*
G02*
X136099000Y-164253500I0J-237500D01*
G01*
X136099000Y-164853500D01*
G75*
G02*
X135861500Y-165091000I-237500J0D01*
G01*
G37*
G36*
G01*
X135861500Y-166816000D02*
X135386500Y-166816000D01*
G75*
G02*
X135149000Y-166578500I0J237500D01*
G01*
X135149000Y-165978500D01*
G75*
G02*
X135386500Y-165741000I237500J0D01*
G01*
X135861500Y-165741000D01*
G75*
G02*
X136099000Y-165978500I0J-237500D01*
G01*
X136099000Y-166578500D01*
G75*
G02*
X135861500Y-166816000I-237500J0D01*
G01*
G37*
%TD*%
%TO.C,C3*%
G36*
G01*
X156463000Y-178237500D02*
X156463000Y-177762500D01*
G75*
G02*
X156700500Y-177525000I237500J0D01*
G01*
X157300500Y-177525000D01*
G75*
G02*
X157538000Y-177762500I0J-237500D01*
G01*
X157538000Y-178237500D01*
G75*
G02*
X157300500Y-178475000I-237500J0D01*
G01*
X156700500Y-178475000D01*
G75*
G02*
X156463000Y-178237500I0J237500D01*
G01*
G37*
G36*
G01*
X154738000Y-178237500D02*
X154738000Y-177762500D01*
G75*
G02*
X154975500Y-177525000I237500J0D01*
G01*
X155575500Y-177525000D01*
G75*
G02*
X155813000Y-177762500I0J-237500D01*
G01*
X155813000Y-178237500D01*
G75*
G02*
X155575500Y-178475000I-237500J0D01*
G01*
X154975500Y-178475000D01*
G75*
G02*
X154738000Y-178237500I0J237500D01*
G01*
G37*
%TD*%
%TO.C,C2*%
G36*
G01*
X156463000Y-181237500D02*
X156463000Y-180762500D01*
G75*
G02*
X156700500Y-180525000I237500J0D01*
G01*
X157300500Y-180525000D01*
G75*
G02*
X157538000Y-180762500I0J-237500D01*
G01*
X157538000Y-181237500D01*
G75*
G02*
X157300500Y-181475000I-237500J0D01*
G01*
X156700500Y-181475000D01*
G75*
G02*
X156463000Y-181237500I0J237500D01*
G01*
G37*
G36*
G01*
X154738000Y-181237500D02*
X154738000Y-180762500D01*
G75*
G02*
X154975500Y-180525000I237500J0D01*
G01*
X155575500Y-180525000D01*
G75*
G02*
X155813000Y-180762500I0J-237500D01*
G01*
X155813000Y-181237500D01*
G75*
G02*
X155575500Y-181475000I-237500J0D01*
G01*
X154975500Y-181475000D01*
G75*
G02*
X154738000Y-181237500I0J237500D01*
G01*
G37*
%TD*%
M02*
