M48
; DRILL file {KiCad (5.1.9-0-10_14)} date Friday, June 18, 2021 at 10:34:21 AM
; FORMAT={-:-/ absolute / metric / decimal}
; #@! TF.CreationDate,2021-06-18T10:34:21+02:00
; #@! TF.GenerationSoftware,Kicad,Pcbnew,(5.1.9-0-10_14)
; #@! TF.FileFunction,Plated,1,2,PTH
FMAT,2
METRIC
T1C0.400
T2C0.900
T3C1.000
T4C1.200
T5C1.400
T6C1.630
%
G90
G05
T1
X77.47Y-26.67
X96.52Y-29.21
T2
X88.265Y-24.13
X88.265Y-26.67
X88.265Y-29.21
X88.265Y-31.75
X90.805Y-25.39
X90.805Y-27.93
X90.805Y-30.47
X90.805Y-33.01
T3
X75.565Y-41.91
X75.565Y-44.45
T4
X101.6Y-19.05
X101.6Y-22.86
X101.6Y-26.67
X101.6Y-30.48
X104.14Y-19.05
X104.14Y-22.86
X104.14Y-26.67
X104.14Y-30.48
T5
X81.28Y-47.625
X86.28Y-47.625
X91.28Y-47.625
X99.06Y-35.56
X99.06Y-40.64
X99.06Y-45.72
X99.06Y-50.8
X104.14Y-35.56
X104.14Y-40.64
X104.14Y-45.72
X104.14Y-50.8
T6
X84.955Y-20.825
X84.955Y-36.315
T0
M30
