%TF.GenerationSoftware,KiCad,Pcbnew,(5.1.9-0-10_14)*%
%TF.CreationDate,2021-06-18T10:34:29+02:00*%
%TF.ProjectId,RJ45-Terminalblock-Adapter,524a3435-2d54-4657-926d-696e616c626c,rev?*%
%TF.SameCoordinates,Original*%
%TF.FileFunction,Copper,L1,Top*%
%TF.FilePolarity,Positive*%
%FSLAX46Y46*%
G04 Gerber Fmt 4.6, Leading zero omitted, Abs format (unit mm)*
G04 Created by KiCad (PCBNEW (5.1.9-0-10_14)) date 2021-06-18 10:34:29*
%MOMM*%
%LPD*%
G01*
G04 APERTURE LIST*
%TA.AperFunction,ComponentPad*%
%ADD10C,3.000000*%
%TD*%
%TA.AperFunction,ComponentPad*%
%ADD11R,3.000000X3.000000*%
%TD*%
%TA.AperFunction,ComponentPad*%
%ADD12C,2.670000*%
%TD*%
%TA.AperFunction,ComponentPad*%
%ADD13R,2.670000X2.670000*%
%TD*%
%TA.AperFunction,ComponentPad*%
%ADD14C,1.500000*%
%TD*%
%TA.AperFunction,ComponentPad*%
%ADD15C,2.500000*%
%TD*%
%TA.AperFunction,ComponentPad*%
%ADD16R,2.800000X2.800000*%
%TD*%
%TA.AperFunction,ComponentPad*%
%ADD17C,2.800000*%
%TD*%
%TA.AperFunction,ComponentPad*%
%ADD18R,1.700000X1.700000*%
%TD*%
%TA.AperFunction,ComponentPad*%
%ADD19O,1.700000X1.700000*%
%TD*%
%TA.AperFunction,ViaPad*%
%ADD20C,0.800000*%
%TD*%
%TA.AperFunction,Conductor*%
%ADD21C,0.250000*%
%TD*%
%TA.AperFunction,Conductor*%
%ADD22C,0.254000*%
%TD*%
%TA.AperFunction,Conductor*%
%ADD23C,0.100000*%
%TD*%
G04 APERTURE END LIST*
D10*
%TO.P,J3,4*%
%TO.N,/DIR*%
X104140000Y-35560000D03*
%TO.P,J3,3*%
%TO.N,/5V*%
X104140000Y-40640000D03*
%TO.P,J3,2*%
%TO.N,/STEP*%
X104140000Y-45720000D03*
D11*
%TO.P,J3,1*%
%TO.N,/5V*%
X104140000Y-50800000D03*
D10*
%TO.P,J3,4*%
%TO.N,/DIR*%
X99060000Y-35560000D03*
%TO.P,J3,3*%
%TO.N,/5V*%
X99060000Y-40640000D03*
%TO.P,J3,2*%
%TO.N,/STEP*%
X99060000Y-45720000D03*
D11*
%TO.P,J3,1*%
%TO.N,/5V*%
X99060000Y-50800000D03*
%TD*%
D12*
%TO.P,J4,4*%
%TO.N,Net-(J4-Pad4)*%
X104140000Y-19050000D03*
%TO.P,J4,3*%
%TO.N,/5V*%
X104140000Y-22860000D03*
%TO.P,J4,2*%
%TO.N,/DIR*%
X104140000Y-26670000D03*
D13*
%TO.P,J4,1*%
%TO.N,/STEP*%
X104140000Y-30480000D03*
X101600000Y-30480000D03*
D12*
%TO.P,J4,2*%
%TO.N,/DIR*%
X101600000Y-26670000D03*
%TO.P,J4,3*%
%TO.N,/5V*%
X101600000Y-22860000D03*
%TO.P,J4,4*%
%TO.N,Net-(J4-Pad4)*%
X101600000Y-19050000D03*
%TD*%
%TO.P,J1,1*%
%TO.N,/DIR*%
%TA.AperFunction,ComponentPad*%
G36*
G01*
X87765500Y-23380000D02*
X88764500Y-23380000D01*
G75*
G02*
X89015000Y-23630500I0J-250500D01*
G01*
X89015000Y-24629500D01*
G75*
G02*
X88764500Y-24880000I-250500J0D01*
G01*
X87765500Y-24880000D01*
G75*
G02*
X87515000Y-24629500I0J250500D01*
G01*
X87515000Y-23630500D01*
G75*
G02*
X87765500Y-23380000I250500J0D01*
G01*
G37*
%TD.AperFunction*%
D14*
%TO.P,J1,2*%
%TO.N,/5V*%
X90805000Y-25390000D03*
%TO.P,J1,3*%
%TO.N,/STEP*%
X88265000Y-26670000D03*
%TO.P,J1,4*%
%TO.N,Net-(J1-Pad4)*%
X90805000Y-27930000D03*
%TO.P,J1,5*%
%TO.N,Net-(J1-Pad5)*%
X88265000Y-29210000D03*
%TO.P,J1,6*%
%TO.N,/END_SW_2*%
X90805000Y-30470000D03*
%TO.P,J1,7*%
%TO.N,/GND*%
X88265000Y-31750000D03*
D15*
%TO.P,J1,SH*%
%TO.N,N/C*%
X84955000Y-20825000D03*
D14*
%TO.P,J1,8*%
%TO.N,/END_SW_1*%
X90805000Y-33010000D03*
D15*
%TO.P,J1,SH*%
%TO.N,N/C*%
X84955000Y-36315000D03*
%TD*%
D16*
%TO.P,J2,1*%
%TO.N,/END_SW_1*%
X81280000Y-47625000D03*
D17*
%TO.P,J2,2*%
%TO.N,/GND*%
X86280000Y-47625000D03*
%TO.P,J2,3*%
%TO.N,/END_SW_2*%
X91280000Y-47625000D03*
%TD*%
D18*
%TO.P,J5,1*%
%TO.N,Net-(J1-Pad4)*%
X75565000Y-44450000D03*
D19*
%TO.P,J5,2*%
%TO.N,Net-(J1-Pad5)*%
X75565000Y-41910000D03*
%TD*%
D20*
%TO.N,/GND*%
X77470000Y-26670000D03*
X96520000Y-29210000D03*
%TD*%
D21*
%TO.N,/STEP*%
X97790000Y-26670000D02*
X101600000Y-30480000D01*
X88265000Y-26670000D02*
X97790000Y-26670000D01*
X97234999Y-43894999D02*
X99060000Y-45720000D01*
X97234999Y-33260001D02*
X97234999Y-43894999D01*
X100015000Y-30480000D02*
X97234999Y-33260001D01*
X101600000Y-30480000D02*
X100015000Y-30480000D01*
X99060000Y-45720000D02*
X104140000Y-45720000D01*
%TO.N,/DIR*%
X99060000Y-24130000D02*
X101600000Y-26670000D01*
X88265000Y-24130000D02*
X99060000Y-24130000D01*
X105800001Y-33899999D02*
X104140000Y-35560000D01*
X105800001Y-28330001D02*
X105800001Y-33899999D01*
X104140000Y-26670000D02*
X105800001Y-28330001D01*
X104140000Y-35560000D02*
X99060000Y-35560000D01*
%TO.N,/END_SW_2*%
X91880001Y-45834999D02*
X90090000Y-47625000D01*
X91880001Y-31545001D02*
X91880001Y-45834999D01*
X90805000Y-30470000D02*
X91880001Y-31545001D01*
%TO.N,/END_SW_1*%
X90805000Y-36910000D02*
X80090000Y-47625000D01*
X90805000Y-33010000D02*
X90805000Y-36910000D01*
%TD*%
D22*
%TO.N,/GND*%
X100666855Y-17304209D02*
X100344198Y-17519801D01*
X100069801Y-17794198D01*
X99854209Y-18116855D01*
X99705706Y-18475372D01*
X99630000Y-18855972D01*
X99630000Y-19244028D01*
X99705706Y-19624628D01*
X99854209Y-19983145D01*
X100069801Y-20305802D01*
X100344198Y-20580199D01*
X100666855Y-20795791D01*
X101025372Y-20944294D01*
X101079195Y-20955000D01*
X101025372Y-20965706D01*
X100666855Y-21114209D01*
X100344198Y-21329801D01*
X100069801Y-21604198D01*
X99854209Y-21926855D01*
X99705706Y-22285372D01*
X99630000Y-22665972D01*
X99630000Y-23054028D01*
X99705706Y-23434628D01*
X99854209Y-23793145D01*
X99967503Y-23962701D01*
X99623804Y-23619003D01*
X99600001Y-23589999D01*
X99484276Y-23495026D01*
X99352247Y-23424454D01*
X99208986Y-23380997D01*
X99097333Y-23370000D01*
X99097322Y-23370000D01*
X99060000Y-23366324D01*
X99022678Y-23370000D01*
X89609562Y-23370000D01*
X89585433Y-23290458D01*
X89503321Y-23136836D01*
X89392815Y-23002185D01*
X89258164Y-22891679D01*
X89104542Y-22809567D01*
X88937852Y-22759002D01*
X88764500Y-22741928D01*
X87765500Y-22741928D01*
X87592148Y-22759002D01*
X87425458Y-22809567D01*
X87271836Y-22891679D01*
X87137185Y-23002185D01*
X87026679Y-23136836D01*
X86944567Y-23290458D01*
X86894002Y-23457148D01*
X86876928Y-23630500D01*
X86876928Y-24629500D01*
X86894002Y-24802852D01*
X86944567Y-24969542D01*
X87026679Y-25123164D01*
X87137185Y-25257815D01*
X87271836Y-25368321D01*
X87425458Y-25450433D01*
X87543629Y-25486280D01*
X87382114Y-25594201D01*
X87189201Y-25787114D01*
X87037629Y-26013957D01*
X86933225Y-26266011D01*
X86880000Y-26533589D01*
X86880000Y-26806411D01*
X86933225Y-27073989D01*
X87037629Y-27326043D01*
X87189201Y-27552886D01*
X87382114Y-27745799D01*
X87608957Y-27897371D01*
X87711873Y-27940000D01*
X87608957Y-27982629D01*
X87382114Y-28134201D01*
X87189201Y-28327114D01*
X87037629Y-28553957D01*
X86933225Y-28806011D01*
X86880000Y-29073589D01*
X86880000Y-29346411D01*
X86933225Y-29613989D01*
X87037629Y-29866043D01*
X87189201Y-30092886D01*
X87382114Y-30285799D01*
X87608957Y-30437371D01*
X87708279Y-30478511D01*
X87666168Y-30493723D01*
X87553137Y-30554140D01*
X87487612Y-30793007D01*
X88265000Y-31570395D01*
X89042388Y-30793007D01*
X88976863Y-30554140D01*
X88818523Y-30479836D01*
X88921043Y-30437371D01*
X89147886Y-30285799D01*
X89340799Y-30092886D01*
X89492371Y-29866043D01*
X89596775Y-29613989D01*
X89650000Y-29346411D01*
X89650000Y-29073589D01*
X89596775Y-28806011D01*
X89492371Y-28553957D01*
X89340799Y-28327114D01*
X89147886Y-28134201D01*
X88921043Y-27982629D01*
X88818127Y-27940000D01*
X88921043Y-27897371D01*
X89147886Y-27745799D01*
X89340799Y-27552886D01*
X89422909Y-27430000D01*
X89512994Y-27430000D01*
X89473225Y-27526011D01*
X89420000Y-27793589D01*
X89420000Y-28066411D01*
X89473225Y-28333989D01*
X89577629Y-28586043D01*
X89729201Y-28812886D01*
X89922114Y-29005799D01*
X90148957Y-29157371D01*
X90251873Y-29200000D01*
X90148957Y-29242629D01*
X89922114Y-29394201D01*
X89729201Y-29587114D01*
X89577629Y-29813957D01*
X89473225Y-30066011D01*
X89420000Y-30333589D01*
X89420000Y-30606411D01*
X89473225Y-30873989D01*
X89577629Y-31126043D01*
X89729201Y-31352886D01*
X89922114Y-31545799D01*
X90148957Y-31697371D01*
X90251873Y-31740000D01*
X90148957Y-31782629D01*
X89922114Y-31934201D01*
X89729201Y-32127114D01*
X89577629Y-32353957D01*
X89473225Y-32606011D01*
X89420000Y-32873589D01*
X89420000Y-33146411D01*
X89473225Y-33413989D01*
X89577629Y-33666043D01*
X89729201Y-33892886D01*
X89922114Y-34085799D01*
X90045000Y-34167909D01*
X90045001Y-36595197D01*
X81053271Y-45586928D01*
X79880000Y-45586928D01*
X79755518Y-45599188D01*
X79635820Y-45635498D01*
X79525506Y-45694463D01*
X79428815Y-45773815D01*
X79349463Y-45870506D01*
X79290498Y-45980820D01*
X79254188Y-46100518D01*
X79241928Y-46225000D01*
X79241928Y-49025000D01*
X79254188Y-49149482D01*
X79290498Y-49269180D01*
X79349463Y-49379494D01*
X79428815Y-49476185D01*
X79525506Y-49555537D01*
X79635820Y-49614502D01*
X79755518Y-49650812D01*
X79880000Y-49663072D01*
X82680000Y-49663072D01*
X82804482Y-49650812D01*
X82924180Y-49614502D01*
X83034494Y-49555537D01*
X83131185Y-49476185D01*
X83210537Y-49379494D01*
X83269502Y-49269180D01*
X83305812Y-49149482D01*
X83316058Y-49045447D01*
X85039158Y-49045447D01*
X85183135Y-49350770D01*
X85540892Y-49531597D01*
X85927053Y-49639155D01*
X86326777Y-49669310D01*
X86724704Y-49620904D01*
X87105540Y-49495795D01*
X87376865Y-49350770D01*
X87520842Y-49045447D01*
X86280000Y-47804605D01*
X85039158Y-49045447D01*
X83316058Y-49045447D01*
X83318072Y-49025000D01*
X83318072Y-47671777D01*
X84235690Y-47671777D01*
X84284096Y-48069704D01*
X84409205Y-48450540D01*
X84554230Y-48721865D01*
X84859553Y-48865842D01*
X86100395Y-47625000D01*
X86459605Y-47625000D01*
X87700447Y-48865842D01*
X88005770Y-48721865D01*
X88186597Y-48364108D01*
X88294155Y-47977947D01*
X88324310Y-47578223D01*
X88275904Y-47180296D01*
X88150795Y-46799460D01*
X88005770Y-46528135D01*
X87700447Y-46384158D01*
X86459605Y-47625000D01*
X86100395Y-47625000D01*
X84859553Y-46384158D01*
X84554230Y-46528135D01*
X84373403Y-46885892D01*
X84265845Y-47272053D01*
X84235690Y-47671777D01*
X83318072Y-47671777D01*
X83318072Y-46225000D01*
X83316059Y-46204553D01*
X85039158Y-46204553D01*
X86280000Y-47445395D01*
X87520842Y-46204553D01*
X87376865Y-45899230D01*
X87019108Y-45718403D01*
X86632947Y-45610845D01*
X86233223Y-45580690D01*
X85835296Y-45629096D01*
X85454460Y-45754205D01*
X85183135Y-45899230D01*
X85039158Y-46204553D01*
X83316059Y-46204553D01*
X83305812Y-46100518D01*
X83269502Y-45980820D01*
X83210537Y-45870506D01*
X83131185Y-45773815D01*
X83067912Y-45721889D01*
X91120001Y-37669801D01*
X91120002Y-45520196D01*
X91042905Y-45597293D01*
X90686413Y-45668204D01*
X90316066Y-45821607D01*
X89982763Y-46044313D01*
X89699313Y-46327763D01*
X89476607Y-46661066D01*
X89323204Y-47031413D01*
X89245000Y-47424570D01*
X89245000Y-47825430D01*
X89323204Y-48218587D01*
X89476607Y-48588934D01*
X89699313Y-48922237D01*
X89982763Y-49205687D01*
X90316066Y-49428393D01*
X90686413Y-49581796D01*
X91079570Y-49660000D01*
X91480430Y-49660000D01*
X91873587Y-49581796D01*
X92243934Y-49428393D01*
X92436087Y-49300000D01*
X96921928Y-49300000D01*
X96921928Y-52300000D01*
X96934188Y-52424482D01*
X96970498Y-52544180D01*
X97029463Y-52654494D01*
X97108815Y-52751185D01*
X97205506Y-52830537D01*
X97315820Y-52889502D01*
X97435518Y-52925812D01*
X97560000Y-52938072D01*
X100560000Y-52938072D01*
X100684482Y-52925812D01*
X100804180Y-52889502D01*
X100914494Y-52830537D01*
X101011185Y-52751185D01*
X101090537Y-52654494D01*
X101149502Y-52544180D01*
X101185812Y-52424482D01*
X101198072Y-52300000D01*
X101198072Y-49300000D01*
X101185812Y-49175518D01*
X101149502Y-49055820D01*
X101090537Y-48945506D01*
X101011185Y-48848815D01*
X100914494Y-48769463D01*
X100804180Y-48710498D01*
X100684482Y-48674188D01*
X100560000Y-48661928D01*
X97560000Y-48661928D01*
X97435518Y-48674188D01*
X97315820Y-48710498D01*
X97205506Y-48769463D01*
X97108815Y-48848815D01*
X97029463Y-48945506D01*
X96970498Y-49055820D01*
X96934188Y-49175518D01*
X96921928Y-49300000D01*
X92436087Y-49300000D01*
X92577237Y-49205687D01*
X92860687Y-48922237D01*
X93083393Y-48588934D01*
X93236796Y-48218587D01*
X93315000Y-47825430D01*
X93315000Y-47424570D01*
X93236796Y-47031413D01*
X93083393Y-46661066D01*
X92860687Y-46327763D01*
X92602915Y-46069991D01*
X92629004Y-45983985D01*
X92640001Y-45872332D01*
X92640001Y-45872324D01*
X92643677Y-45834999D01*
X92640001Y-45797674D01*
X92640001Y-31582323D01*
X92643677Y-31545001D01*
X92640001Y-31507678D01*
X92640001Y-31507668D01*
X92629004Y-31396015D01*
X92585547Y-31252754D01*
X92549623Y-31185546D01*
X92514975Y-31120724D01*
X92443800Y-31033998D01*
X92420002Y-31005000D01*
X92391005Y-30981203D01*
X92161167Y-30751365D01*
X92190000Y-30606411D01*
X92190000Y-30333589D01*
X92136775Y-30066011D01*
X92032371Y-29813957D01*
X91880799Y-29587114D01*
X91687886Y-29394201D01*
X91461043Y-29242629D01*
X91358127Y-29200000D01*
X91461043Y-29157371D01*
X91687886Y-29005799D01*
X91880799Y-28812886D01*
X92032371Y-28586043D01*
X92136775Y-28333989D01*
X92190000Y-28066411D01*
X92190000Y-27793589D01*
X92136775Y-27526011D01*
X92097006Y-27430000D01*
X97475199Y-27430000D01*
X99626928Y-29581730D01*
X99626928Y-29825674D01*
X99590723Y-29845026D01*
X99516182Y-29906201D01*
X99474999Y-29939999D01*
X99451201Y-29968997D01*
X96724002Y-32696197D01*
X96694998Y-32720000D01*
X96639870Y-32787175D01*
X96600025Y-32835725D01*
X96541156Y-32945860D01*
X96529453Y-32967755D01*
X96485996Y-33111016D01*
X96474999Y-33222669D01*
X96474999Y-33222679D01*
X96471323Y-33260001D01*
X96474999Y-33297323D01*
X96475000Y-43857667D01*
X96471323Y-43894999D01*
X96485997Y-44043984D01*
X96529453Y-44187245D01*
X96600025Y-44319275D01*
X96632641Y-44359017D01*
X96694999Y-44435000D01*
X96723997Y-44458798D01*
X97111140Y-44845941D01*
X97007047Y-45097244D01*
X96925000Y-45509721D01*
X96925000Y-45930279D01*
X97007047Y-46342756D01*
X97167988Y-46731302D01*
X97401637Y-47080983D01*
X97699017Y-47378363D01*
X98048698Y-47612012D01*
X98437244Y-47772953D01*
X98849721Y-47855000D01*
X99270279Y-47855000D01*
X99682756Y-47772953D01*
X100071302Y-47612012D01*
X100420983Y-47378363D01*
X100718363Y-47080983D01*
X100952012Y-46731302D01*
X101056105Y-46480000D01*
X102143895Y-46480000D01*
X102247988Y-46731302D01*
X102481637Y-47080983D01*
X102779017Y-47378363D01*
X103128698Y-47612012D01*
X103517244Y-47772953D01*
X103929721Y-47855000D01*
X104350279Y-47855000D01*
X104762756Y-47772953D01*
X105151302Y-47612012D01*
X105500983Y-47378363D01*
X105798363Y-47080983D01*
X106020001Y-46749278D01*
X106020001Y-48790396D01*
X105994494Y-48769463D01*
X105884180Y-48710498D01*
X105764482Y-48674188D01*
X105640000Y-48661928D01*
X102640000Y-48661928D01*
X102515518Y-48674188D01*
X102395820Y-48710498D01*
X102285506Y-48769463D01*
X102188815Y-48848815D01*
X102109463Y-48945506D01*
X102050498Y-49055820D01*
X102014188Y-49175518D01*
X102001928Y-49300000D01*
X102001928Y-52300000D01*
X102014188Y-52424482D01*
X102050498Y-52544180D01*
X102109463Y-52654494D01*
X102188815Y-52751185D01*
X102285506Y-52830537D01*
X102395820Y-52889502D01*
X102515518Y-52925812D01*
X102640000Y-52938072D01*
X105253452Y-52938072D01*
X105189514Y-52990965D01*
X104867304Y-53165184D01*
X104517385Y-53273502D01*
X104122557Y-53315000D01*
X76232279Y-53315000D01*
X75835455Y-53276091D01*
X75484794Y-53170220D01*
X75161377Y-52998257D01*
X74877518Y-52766748D01*
X74644035Y-52484514D01*
X74469816Y-52162304D01*
X74361498Y-51812385D01*
X74320000Y-51417557D01*
X74320000Y-45797295D01*
X74360506Y-45830537D01*
X74470820Y-45889502D01*
X74590518Y-45925812D01*
X74715000Y-45938072D01*
X76415000Y-45938072D01*
X76539482Y-45925812D01*
X76659180Y-45889502D01*
X76769494Y-45830537D01*
X76866185Y-45751185D01*
X76945537Y-45654494D01*
X77004502Y-45544180D01*
X77040812Y-45424482D01*
X77053072Y-45300000D01*
X77053072Y-43600000D01*
X77040812Y-43475518D01*
X77004502Y-43355820D01*
X76945537Y-43245506D01*
X76866185Y-43148815D01*
X76769494Y-43069463D01*
X76659180Y-43010498D01*
X76586620Y-42988487D01*
X76718475Y-42856632D01*
X76880990Y-42613411D01*
X76992932Y-42343158D01*
X77050000Y-42056260D01*
X77050000Y-41763740D01*
X76992932Y-41476842D01*
X76880990Y-41206589D01*
X76718475Y-40963368D01*
X76511632Y-40756525D01*
X76268411Y-40594010D01*
X75998158Y-40482068D01*
X75711260Y-40425000D01*
X75418740Y-40425000D01*
X75131842Y-40482068D01*
X74861589Y-40594010D01*
X74618368Y-40756525D01*
X74411525Y-40963368D01*
X74320000Y-41100345D01*
X74320000Y-34062409D01*
X79645000Y-34062409D01*
X79645000Y-34507591D01*
X79731851Y-34944218D01*
X79902214Y-35355511D01*
X80149544Y-35725666D01*
X80464334Y-36040456D01*
X80834489Y-36287786D01*
X81245782Y-36458149D01*
X81682409Y-36545000D01*
X82127591Y-36545000D01*
X82564218Y-36458149D01*
X82975511Y-36287786D01*
X83070000Y-36224650D01*
X83070000Y-36500656D01*
X83142439Y-36864834D01*
X83284534Y-37207882D01*
X83490825Y-37516618D01*
X83753382Y-37779175D01*
X84062118Y-37985466D01*
X84405166Y-38127561D01*
X84769344Y-38200000D01*
X85140656Y-38200000D01*
X85504834Y-38127561D01*
X85847882Y-37985466D01*
X86156618Y-37779175D01*
X86419175Y-37516618D01*
X86625466Y-37207882D01*
X86767561Y-36864834D01*
X86840000Y-36500656D01*
X86840000Y-36129344D01*
X86767561Y-35765166D01*
X86625466Y-35422118D01*
X86419175Y-35113382D01*
X86156618Y-34850825D01*
X85847882Y-34644534D01*
X85504834Y-34502439D01*
X85140656Y-34430000D01*
X84769344Y-34430000D01*
X84405166Y-34502439D01*
X84144552Y-34610389D01*
X84165000Y-34507591D01*
X84165000Y-34062409D01*
X84078149Y-33625782D01*
X83907786Y-33214489D01*
X83660456Y-32844334D01*
X83523115Y-32706993D01*
X87487612Y-32706993D01*
X87553137Y-32945860D01*
X87800116Y-33061760D01*
X88064960Y-33127250D01*
X88337492Y-33139812D01*
X88607238Y-33098965D01*
X88863832Y-33006277D01*
X88976863Y-32945860D01*
X89042388Y-32706993D01*
X88265000Y-31929605D01*
X87487612Y-32706993D01*
X83523115Y-32706993D01*
X83345666Y-32529544D01*
X82975511Y-32282214D01*
X82564218Y-32111851D01*
X82127591Y-32025000D01*
X81682409Y-32025000D01*
X81245782Y-32111851D01*
X80834489Y-32282214D01*
X80464334Y-32529544D01*
X80149544Y-32844334D01*
X79902214Y-33214489D01*
X79731851Y-33625782D01*
X79645000Y-34062409D01*
X74320000Y-34062409D01*
X74320000Y-31822492D01*
X86875188Y-31822492D01*
X86916035Y-32092238D01*
X87008723Y-32348832D01*
X87069140Y-32461863D01*
X87308007Y-32527388D01*
X88085395Y-31750000D01*
X88444605Y-31750000D01*
X89221993Y-32527388D01*
X89460860Y-32461863D01*
X89576760Y-32214884D01*
X89642250Y-31950040D01*
X89654812Y-31677508D01*
X89613965Y-31407762D01*
X89521277Y-31151168D01*
X89460860Y-31038137D01*
X89221993Y-30972612D01*
X88444605Y-31750000D01*
X88085395Y-31750000D01*
X87308007Y-30972612D01*
X87069140Y-31038137D01*
X86953240Y-31285116D01*
X86887750Y-31549960D01*
X86875188Y-31822492D01*
X74320000Y-31822492D01*
X74320000Y-22632409D01*
X79645000Y-22632409D01*
X79645000Y-23077591D01*
X79731851Y-23514218D01*
X79902214Y-23925511D01*
X80149544Y-24295666D01*
X80464334Y-24610456D01*
X80834489Y-24857786D01*
X81245782Y-25028149D01*
X81682409Y-25115000D01*
X82127591Y-25115000D01*
X82564218Y-25028149D01*
X82975511Y-24857786D01*
X83345666Y-24610456D01*
X83660456Y-24295666D01*
X83907786Y-23925511D01*
X84078149Y-23514218D01*
X84165000Y-23077591D01*
X84165000Y-22632409D01*
X84144552Y-22529611D01*
X84405166Y-22637561D01*
X84769344Y-22710000D01*
X85140656Y-22710000D01*
X85504834Y-22637561D01*
X85847882Y-22495466D01*
X86156618Y-22289175D01*
X86419175Y-22026618D01*
X86625466Y-21717882D01*
X86767561Y-21374834D01*
X86840000Y-21010656D01*
X86840000Y-20639344D01*
X86767561Y-20275166D01*
X86625466Y-19932118D01*
X86419175Y-19623382D01*
X86156618Y-19360825D01*
X85847882Y-19154534D01*
X85504834Y-19012439D01*
X85140656Y-18940000D01*
X84769344Y-18940000D01*
X84405166Y-19012439D01*
X84062118Y-19154534D01*
X83753382Y-19360825D01*
X83490825Y-19623382D01*
X83284534Y-19932118D01*
X83142439Y-20275166D01*
X83070000Y-20639344D01*
X83070000Y-20915350D01*
X82975511Y-20852214D01*
X82564218Y-20681851D01*
X82127591Y-20595000D01*
X81682409Y-20595000D01*
X81245782Y-20681851D01*
X80834489Y-20852214D01*
X80464334Y-21099544D01*
X80149544Y-21414334D01*
X79902214Y-21784489D01*
X79731851Y-22195782D01*
X79645000Y-22632409D01*
X74320000Y-22632409D01*
X74320000Y-18447277D01*
X74346815Y-18173796D01*
X74416867Y-17941774D01*
X74530650Y-17727778D01*
X74683832Y-17539959D01*
X74870577Y-17385470D01*
X75083769Y-17270199D01*
X75315300Y-17198528D01*
X75586725Y-17170000D01*
X100990863Y-17170000D01*
X100666855Y-17304209D01*
%TA.AperFunction,Conductor*%
D23*
G36*
X100666855Y-17304209D02*
G01*
X100344198Y-17519801D01*
X100069801Y-17794198D01*
X99854209Y-18116855D01*
X99705706Y-18475372D01*
X99630000Y-18855972D01*
X99630000Y-19244028D01*
X99705706Y-19624628D01*
X99854209Y-19983145D01*
X100069801Y-20305802D01*
X100344198Y-20580199D01*
X100666855Y-20795791D01*
X101025372Y-20944294D01*
X101079195Y-20955000D01*
X101025372Y-20965706D01*
X100666855Y-21114209D01*
X100344198Y-21329801D01*
X100069801Y-21604198D01*
X99854209Y-21926855D01*
X99705706Y-22285372D01*
X99630000Y-22665972D01*
X99630000Y-23054028D01*
X99705706Y-23434628D01*
X99854209Y-23793145D01*
X99967503Y-23962701D01*
X99623804Y-23619003D01*
X99600001Y-23589999D01*
X99484276Y-23495026D01*
X99352247Y-23424454D01*
X99208986Y-23380997D01*
X99097333Y-23370000D01*
X99097322Y-23370000D01*
X99060000Y-23366324D01*
X99022678Y-23370000D01*
X89609562Y-23370000D01*
X89585433Y-23290458D01*
X89503321Y-23136836D01*
X89392815Y-23002185D01*
X89258164Y-22891679D01*
X89104542Y-22809567D01*
X88937852Y-22759002D01*
X88764500Y-22741928D01*
X87765500Y-22741928D01*
X87592148Y-22759002D01*
X87425458Y-22809567D01*
X87271836Y-22891679D01*
X87137185Y-23002185D01*
X87026679Y-23136836D01*
X86944567Y-23290458D01*
X86894002Y-23457148D01*
X86876928Y-23630500D01*
X86876928Y-24629500D01*
X86894002Y-24802852D01*
X86944567Y-24969542D01*
X87026679Y-25123164D01*
X87137185Y-25257815D01*
X87271836Y-25368321D01*
X87425458Y-25450433D01*
X87543629Y-25486280D01*
X87382114Y-25594201D01*
X87189201Y-25787114D01*
X87037629Y-26013957D01*
X86933225Y-26266011D01*
X86880000Y-26533589D01*
X86880000Y-26806411D01*
X86933225Y-27073989D01*
X87037629Y-27326043D01*
X87189201Y-27552886D01*
X87382114Y-27745799D01*
X87608957Y-27897371D01*
X87711873Y-27940000D01*
X87608957Y-27982629D01*
X87382114Y-28134201D01*
X87189201Y-28327114D01*
X87037629Y-28553957D01*
X86933225Y-28806011D01*
X86880000Y-29073589D01*
X86880000Y-29346411D01*
X86933225Y-29613989D01*
X87037629Y-29866043D01*
X87189201Y-30092886D01*
X87382114Y-30285799D01*
X87608957Y-30437371D01*
X87708279Y-30478511D01*
X87666168Y-30493723D01*
X87553137Y-30554140D01*
X87487612Y-30793007D01*
X88265000Y-31570395D01*
X89042388Y-30793007D01*
X88976863Y-30554140D01*
X88818523Y-30479836D01*
X88921043Y-30437371D01*
X89147886Y-30285799D01*
X89340799Y-30092886D01*
X89492371Y-29866043D01*
X89596775Y-29613989D01*
X89650000Y-29346411D01*
X89650000Y-29073589D01*
X89596775Y-28806011D01*
X89492371Y-28553957D01*
X89340799Y-28327114D01*
X89147886Y-28134201D01*
X88921043Y-27982629D01*
X88818127Y-27940000D01*
X88921043Y-27897371D01*
X89147886Y-27745799D01*
X89340799Y-27552886D01*
X89422909Y-27430000D01*
X89512994Y-27430000D01*
X89473225Y-27526011D01*
X89420000Y-27793589D01*
X89420000Y-28066411D01*
X89473225Y-28333989D01*
X89577629Y-28586043D01*
X89729201Y-28812886D01*
X89922114Y-29005799D01*
X90148957Y-29157371D01*
X90251873Y-29200000D01*
X90148957Y-29242629D01*
X89922114Y-29394201D01*
X89729201Y-29587114D01*
X89577629Y-29813957D01*
X89473225Y-30066011D01*
X89420000Y-30333589D01*
X89420000Y-30606411D01*
X89473225Y-30873989D01*
X89577629Y-31126043D01*
X89729201Y-31352886D01*
X89922114Y-31545799D01*
X90148957Y-31697371D01*
X90251873Y-31740000D01*
X90148957Y-31782629D01*
X89922114Y-31934201D01*
X89729201Y-32127114D01*
X89577629Y-32353957D01*
X89473225Y-32606011D01*
X89420000Y-32873589D01*
X89420000Y-33146411D01*
X89473225Y-33413989D01*
X89577629Y-33666043D01*
X89729201Y-33892886D01*
X89922114Y-34085799D01*
X90045000Y-34167909D01*
X90045001Y-36595197D01*
X81053271Y-45586928D01*
X79880000Y-45586928D01*
X79755518Y-45599188D01*
X79635820Y-45635498D01*
X79525506Y-45694463D01*
X79428815Y-45773815D01*
X79349463Y-45870506D01*
X79290498Y-45980820D01*
X79254188Y-46100518D01*
X79241928Y-46225000D01*
X79241928Y-49025000D01*
X79254188Y-49149482D01*
X79290498Y-49269180D01*
X79349463Y-49379494D01*
X79428815Y-49476185D01*
X79525506Y-49555537D01*
X79635820Y-49614502D01*
X79755518Y-49650812D01*
X79880000Y-49663072D01*
X82680000Y-49663072D01*
X82804482Y-49650812D01*
X82924180Y-49614502D01*
X83034494Y-49555537D01*
X83131185Y-49476185D01*
X83210537Y-49379494D01*
X83269502Y-49269180D01*
X83305812Y-49149482D01*
X83316058Y-49045447D01*
X85039158Y-49045447D01*
X85183135Y-49350770D01*
X85540892Y-49531597D01*
X85927053Y-49639155D01*
X86326777Y-49669310D01*
X86724704Y-49620904D01*
X87105540Y-49495795D01*
X87376865Y-49350770D01*
X87520842Y-49045447D01*
X86280000Y-47804605D01*
X85039158Y-49045447D01*
X83316058Y-49045447D01*
X83318072Y-49025000D01*
X83318072Y-47671777D01*
X84235690Y-47671777D01*
X84284096Y-48069704D01*
X84409205Y-48450540D01*
X84554230Y-48721865D01*
X84859553Y-48865842D01*
X86100395Y-47625000D01*
X86459605Y-47625000D01*
X87700447Y-48865842D01*
X88005770Y-48721865D01*
X88186597Y-48364108D01*
X88294155Y-47977947D01*
X88324310Y-47578223D01*
X88275904Y-47180296D01*
X88150795Y-46799460D01*
X88005770Y-46528135D01*
X87700447Y-46384158D01*
X86459605Y-47625000D01*
X86100395Y-47625000D01*
X84859553Y-46384158D01*
X84554230Y-46528135D01*
X84373403Y-46885892D01*
X84265845Y-47272053D01*
X84235690Y-47671777D01*
X83318072Y-47671777D01*
X83318072Y-46225000D01*
X83316059Y-46204553D01*
X85039158Y-46204553D01*
X86280000Y-47445395D01*
X87520842Y-46204553D01*
X87376865Y-45899230D01*
X87019108Y-45718403D01*
X86632947Y-45610845D01*
X86233223Y-45580690D01*
X85835296Y-45629096D01*
X85454460Y-45754205D01*
X85183135Y-45899230D01*
X85039158Y-46204553D01*
X83316059Y-46204553D01*
X83305812Y-46100518D01*
X83269502Y-45980820D01*
X83210537Y-45870506D01*
X83131185Y-45773815D01*
X83067912Y-45721889D01*
X91120001Y-37669801D01*
X91120002Y-45520196D01*
X91042905Y-45597293D01*
X90686413Y-45668204D01*
X90316066Y-45821607D01*
X89982763Y-46044313D01*
X89699313Y-46327763D01*
X89476607Y-46661066D01*
X89323204Y-47031413D01*
X89245000Y-47424570D01*
X89245000Y-47825430D01*
X89323204Y-48218587D01*
X89476607Y-48588934D01*
X89699313Y-48922237D01*
X89982763Y-49205687D01*
X90316066Y-49428393D01*
X90686413Y-49581796D01*
X91079570Y-49660000D01*
X91480430Y-49660000D01*
X91873587Y-49581796D01*
X92243934Y-49428393D01*
X92436087Y-49300000D01*
X96921928Y-49300000D01*
X96921928Y-52300000D01*
X96934188Y-52424482D01*
X96970498Y-52544180D01*
X97029463Y-52654494D01*
X97108815Y-52751185D01*
X97205506Y-52830537D01*
X97315820Y-52889502D01*
X97435518Y-52925812D01*
X97560000Y-52938072D01*
X100560000Y-52938072D01*
X100684482Y-52925812D01*
X100804180Y-52889502D01*
X100914494Y-52830537D01*
X101011185Y-52751185D01*
X101090537Y-52654494D01*
X101149502Y-52544180D01*
X101185812Y-52424482D01*
X101198072Y-52300000D01*
X101198072Y-49300000D01*
X101185812Y-49175518D01*
X101149502Y-49055820D01*
X101090537Y-48945506D01*
X101011185Y-48848815D01*
X100914494Y-48769463D01*
X100804180Y-48710498D01*
X100684482Y-48674188D01*
X100560000Y-48661928D01*
X97560000Y-48661928D01*
X97435518Y-48674188D01*
X97315820Y-48710498D01*
X97205506Y-48769463D01*
X97108815Y-48848815D01*
X97029463Y-48945506D01*
X96970498Y-49055820D01*
X96934188Y-49175518D01*
X96921928Y-49300000D01*
X92436087Y-49300000D01*
X92577237Y-49205687D01*
X92860687Y-48922237D01*
X93083393Y-48588934D01*
X93236796Y-48218587D01*
X93315000Y-47825430D01*
X93315000Y-47424570D01*
X93236796Y-47031413D01*
X93083393Y-46661066D01*
X92860687Y-46327763D01*
X92602915Y-46069991D01*
X92629004Y-45983985D01*
X92640001Y-45872332D01*
X92640001Y-45872324D01*
X92643677Y-45834999D01*
X92640001Y-45797674D01*
X92640001Y-31582323D01*
X92643677Y-31545001D01*
X92640001Y-31507678D01*
X92640001Y-31507668D01*
X92629004Y-31396015D01*
X92585547Y-31252754D01*
X92549623Y-31185546D01*
X92514975Y-31120724D01*
X92443800Y-31033998D01*
X92420002Y-31005000D01*
X92391005Y-30981203D01*
X92161167Y-30751365D01*
X92190000Y-30606411D01*
X92190000Y-30333589D01*
X92136775Y-30066011D01*
X92032371Y-29813957D01*
X91880799Y-29587114D01*
X91687886Y-29394201D01*
X91461043Y-29242629D01*
X91358127Y-29200000D01*
X91461043Y-29157371D01*
X91687886Y-29005799D01*
X91880799Y-28812886D01*
X92032371Y-28586043D01*
X92136775Y-28333989D01*
X92190000Y-28066411D01*
X92190000Y-27793589D01*
X92136775Y-27526011D01*
X92097006Y-27430000D01*
X97475199Y-27430000D01*
X99626928Y-29581730D01*
X99626928Y-29825674D01*
X99590723Y-29845026D01*
X99516182Y-29906201D01*
X99474999Y-29939999D01*
X99451201Y-29968997D01*
X96724002Y-32696197D01*
X96694998Y-32720000D01*
X96639870Y-32787175D01*
X96600025Y-32835725D01*
X96541156Y-32945860D01*
X96529453Y-32967755D01*
X96485996Y-33111016D01*
X96474999Y-33222669D01*
X96474999Y-33222679D01*
X96471323Y-33260001D01*
X96474999Y-33297323D01*
X96475000Y-43857667D01*
X96471323Y-43894999D01*
X96485997Y-44043984D01*
X96529453Y-44187245D01*
X96600025Y-44319275D01*
X96632641Y-44359017D01*
X96694999Y-44435000D01*
X96723997Y-44458798D01*
X97111140Y-44845941D01*
X97007047Y-45097244D01*
X96925000Y-45509721D01*
X96925000Y-45930279D01*
X97007047Y-46342756D01*
X97167988Y-46731302D01*
X97401637Y-47080983D01*
X97699017Y-47378363D01*
X98048698Y-47612012D01*
X98437244Y-47772953D01*
X98849721Y-47855000D01*
X99270279Y-47855000D01*
X99682756Y-47772953D01*
X100071302Y-47612012D01*
X100420983Y-47378363D01*
X100718363Y-47080983D01*
X100952012Y-46731302D01*
X101056105Y-46480000D01*
X102143895Y-46480000D01*
X102247988Y-46731302D01*
X102481637Y-47080983D01*
X102779017Y-47378363D01*
X103128698Y-47612012D01*
X103517244Y-47772953D01*
X103929721Y-47855000D01*
X104350279Y-47855000D01*
X104762756Y-47772953D01*
X105151302Y-47612012D01*
X105500983Y-47378363D01*
X105798363Y-47080983D01*
X106020001Y-46749278D01*
X106020001Y-48790396D01*
X105994494Y-48769463D01*
X105884180Y-48710498D01*
X105764482Y-48674188D01*
X105640000Y-48661928D01*
X102640000Y-48661928D01*
X102515518Y-48674188D01*
X102395820Y-48710498D01*
X102285506Y-48769463D01*
X102188815Y-48848815D01*
X102109463Y-48945506D01*
X102050498Y-49055820D01*
X102014188Y-49175518D01*
X102001928Y-49300000D01*
X102001928Y-52300000D01*
X102014188Y-52424482D01*
X102050498Y-52544180D01*
X102109463Y-52654494D01*
X102188815Y-52751185D01*
X102285506Y-52830537D01*
X102395820Y-52889502D01*
X102515518Y-52925812D01*
X102640000Y-52938072D01*
X105253452Y-52938072D01*
X105189514Y-52990965D01*
X104867304Y-53165184D01*
X104517385Y-53273502D01*
X104122557Y-53315000D01*
X76232279Y-53315000D01*
X75835455Y-53276091D01*
X75484794Y-53170220D01*
X75161377Y-52998257D01*
X74877518Y-52766748D01*
X74644035Y-52484514D01*
X74469816Y-52162304D01*
X74361498Y-51812385D01*
X74320000Y-51417557D01*
X74320000Y-45797295D01*
X74360506Y-45830537D01*
X74470820Y-45889502D01*
X74590518Y-45925812D01*
X74715000Y-45938072D01*
X76415000Y-45938072D01*
X76539482Y-45925812D01*
X76659180Y-45889502D01*
X76769494Y-45830537D01*
X76866185Y-45751185D01*
X76945537Y-45654494D01*
X77004502Y-45544180D01*
X77040812Y-45424482D01*
X77053072Y-45300000D01*
X77053072Y-43600000D01*
X77040812Y-43475518D01*
X77004502Y-43355820D01*
X76945537Y-43245506D01*
X76866185Y-43148815D01*
X76769494Y-43069463D01*
X76659180Y-43010498D01*
X76586620Y-42988487D01*
X76718475Y-42856632D01*
X76880990Y-42613411D01*
X76992932Y-42343158D01*
X77050000Y-42056260D01*
X77050000Y-41763740D01*
X76992932Y-41476842D01*
X76880990Y-41206589D01*
X76718475Y-40963368D01*
X76511632Y-40756525D01*
X76268411Y-40594010D01*
X75998158Y-40482068D01*
X75711260Y-40425000D01*
X75418740Y-40425000D01*
X75131842Y-40482068D01*
X74861589Y-40594010D01*
X74618368Y-40756525D01*
X74411525Y-40963368D01*
X74320000Y-41100345D01*
X74320000Y-34062409D01*
X79645000Y-34062409D01*
X79645000Y-34507591D01*
X79731851Y-34944218D01*
X79902214Y-35355511D01*
X80149544Y-35725666D01*
X80464334Y-36040456D01*
X80834489Y-36287786D01*
X81245782Y-36458149D01*
X81682409Y-36545000D01*
X82127591Y-36545000D01*
X82564218Y-36458149D01*
X82975511Y-36287786D01*
X83070000Y-36224650D01*
X83070000Y-36500656D01*
X83142439Y-36864834D01*
X83284534Y-37207882D01*
X83490825Y-37516618D01*
X83753382Y-37779175D01*
X84062118Y-37985466D01*
X84405166Y-38127561D01*
X84769344Y-38200000D01*
X85140656Y-38200000D01*
X85504834Y-38127561D01*
X85847882Y-37985466D01*
X86156618Y-37779175D01*
X86419175Y-37516618D01*
X86625466Y-37207882D01*
X86767561Y-36864834D01*
X86840000Y-36500656D01*
X86840000Y-36129344D01*
X86767561Y-35765166D01*
X86625466Y-35422118D01*
X86419175Y-35113382D01*
X86156618Y-34850825D01*
X85847882Y-34644534D01*
X85504834Y-34502439D01*
X85140656Y-34430000D01*
X84769344Y-34430000D01*
X84405166Y-34502439D01*
X84144552Y-34610389D01*
X84165000Y-34507591D01*
X84165000Y-34062409D01*
X84078149Y-33625782D01*
X83907786Y-33214489D01*
X83660456Y-32844334D01*
X83523115Y-32706993D01*
X87487612Y-32706993D01*
X87553137Y-32945860D01*
X87800116Y-33061760D01*
X88064960Y-33127250D01*
X88337492Y-33139812D01*
X88607238Y-33098965D01*
X88863832Y-33006277D01*
X88976863Y-32945860D01*
X89042388Y-32706993D01*
X88265000Y-31929605D01*
X87487612Y-32706993D01*
X83523115Y-32706993D01*
X83345666Y-32529544D01*
X82975511Y-32282214D01*
X82564218Y-32111851D01*
X82127591Y-32025000D01*
X81682409Y-32025000D01*
X81245782Y-32111851D01*
X80834489Y-32282214D01*
X80464334Y-32529544D01*
X80149544Y-32844334D01*
X79902214Y-33214489D01*
X79731851Y-33625782D01*
X79645000Y-34062409D01*
X74320000Y-34062409D01*
X74320000Y-31822492D01*
X86875188Y-31822492D01*
X86916035Y-32092238D01*
X87008723Y-32348832D01*
X87069140Y-32461863D01*
X87308007Y-32527388D01*
X88085395Y-31750000D01*
X88444605Y-31750000D01*
X89221993Y-32527388D01*
X89460860Y-32461863D01*
X89576760Y-32214884D01*
X89642250Y-31950040D01*
X89654812Y-31677508D01*
X89613965Y-31407762D01*
X89521277Y-31151168D01*
X89460860Y-31038137D01*
X89221993Y-30972612D01*
X88444605Y-31750000D01*
X88085395Y-31750000D01*
X87308007Y-30972612D01*
X87069140Y-31038137D01*
X86953240Y-31285116D01*
X86887750Y-31549960D01*
X86875188Y-31822492D01*
X74320000Y-31822492D01*
X74320000Y-22632409D01*
X79645000Y-22632409D01*
X79645000Y-23077591D01*
X79731851Y-23514218D01*
X79902214Y-23925511D01*
X80149544Y-24295666D01*
X80464334Y-24610456D01*
X80834489Y-24857786D01*
X81245782Y-25028149D01*
X81682409Y-25115000D01*
X82127591Y-25115000D01*
X82564218Y-25028149D01*
X82975511Y-24857786D01*
X83345666Y-24610456D01*
X83660456Y-24295666D01*
X83907786Y-23925511D01*
X84078149Y-23514218D01*
X84165000Y-23077591D01*
X84165000Y-22632409D01*
X84144552Y-22529611D01*
X84405166Y-22637561D01*
X84769344Y-22710000D01*
X85140656Y-22710000D01*
X85504834Y-22637561D01*
X85847882Y-22495466D01*
X86156618Y-22289175D01*
X86419175Y-22026618D01*
X86625466Y-21717882D01*
X86767561Y-21374834D01*
X86840000Y-21010656D01*
X86840000Y-20639344D01*
X86767561Y-20275166D01*
X86625466Y-19932118D01*
X86419175Y-19623382D01*
X86156618Y-19360825D01*
X85847882Y-19154534D01*
X85504834Y-19012439D01*
X85140656Y-18940000D01*
X84769344Y-18940000D01*
X84405166Y-19012439D01*
X84062118Y-19154534D01*
X83753382Y-19360825D01*
X83490825Y-19623382D01*
X83284534Y-19932118D01*
X83142439Y-20275166D01*
X83070000Y-20639344D01*
X83070000Y-20915350D01*
X82975511Y-20852214D01*
X82564218Y-20681851D01*
X82127591Y-20595000D01*
X81682409Y-20595000D01*
X81245782Y-20681851D01*
X80834489Y-20852214D01*
X80464334Y-21099544D01*
X80149544Y-21414334D01*
X79902214Y-21784489D01*
X79731851Y-22195782D01*
X79645000Y-22632409D01*
X74320000Y-22632409D01*
X74320000Y-18447277D01*
X74346815Y-18173796D01*
X74416867Y-17941774D01*
X74530650Y-17727778D01*
X74683832Y-17539959D01*
X74870577Y-17385470D01*
X75083769Y-17270199D01*
X75315300Y-17198528D01*
X75586725Y-17170000D01*
X100990863Y-17170000D01*
X100666855Y-17304209D01*
G37*
%TD.AperFunction*%
%TD*%
M02*
