%TF.GenerationSoftware,KiCad,Pcbnew,(5.1.9-0-10_14)*%
%TF.CreationDate,2021-06-18T10:34:29+02:00*%
%TF.ProjectId,RJ45-Terminalblock-Adapter,524a3435-2d54-4657-926d-696e616c626c,rev?*%
%TF.SameCoordinates,Original*%
%TF.FileFunction,Legend,Top*%
%TF.FilePolarity,Positive*%
%FSLAX46Y46*%
G04 Gerber Fmt 4.6, Leading zero omitted, Abs format (unit mm)*
G04 Created by KiCad (PCBNEW (5.1.9-0-10_14)) date 2021-06-18 10:34:29*
%MOMM*%
%LPD*%
G01*
G04 APERTURE LIST*
%ADD10C,0.120000*%
%ADD11C,0.100000*%
%ADD12C,0.150000*%
G04 APERTURE END LIST*
D10*
%TO.C,J3*%
X107315000Y-53340000D02*
X95250000Y-53340000D01*
X107315000Y-33655000D02*
X107315000Y-53340000D01*
X95250000Y-33655000D02*
X107315000Y-33655000D01*
X95250000Y-53340000D02*
X95250000Y-33655000D01*
D11*
%TO.C,J4*%
X99750000Y-17480000D02*
X99750000Y-17980000D01*
X99750000Y-17430000D02*
X107260000Y-17430000D01*
X99750000Y-17430000D02*
X99750000Y-17480000D01*
X99750000Y-32180000D02*
X99750000Y-17780000D01*
X99750000Y-32180000D02*
X100250000Y-32180000D01*
X107260000Y-32180000D02*
X107260000Y-31680000D01*
X107260000Y-32180000D02*
X100250000Y-32180000D01*
X107260000Y-17430000D02*
X107260000Y-31750000D01*
X107260000Y-17430000D02*
X106760000Y-17430000D01*
D10*
%TO.C,J1*%
X71005000Y-20670000D02*
X70755000Y-20670000D01*
X71155000Y-20570000D02*
X71155000Y-20320000D01*
X83335000Y-36690000D02*
X70885000Y-36690000D01*
X70885000Y-36690000D02*
X70885000Y-20450000D01*
X83335000Y-20450000D02*
X70885000Y-20450000D01*
X92525000Y-20450000D02*
X86615000Y-20450000D01*
X92525000Y-36690000D02*
X86615000Y-36690000D01*
X92525000Y-20450000D02*
X92525000Y-36690000D01*
%TO.C,J2*%
X78480000Y-51925000D02*
X80480000Y-51925000D01*
X78480000Y-49685000D02*
X78480000Y-51925000D01*
X89980000Y-48708000D02*
X89930000Y-48758000D01*
X92413000Y-46275000D02*
X92388000Y-46299000D01*
X90172000Y-48950000D02*
X90148000Y-48975000D01*
X92630000Y-46492000D02*
X92581000Y-46542000D01*
X84980000Y-48708000D02*
X84930000Y-48758000D01*
X87413000Y-46275000D02*
X87388000Y-46299000D01*
X85172000Y-48950000D02*
X85148000Y-48975000D01*
X87630000Y-46492000D02*
X87581000Y-46542000D01*
X93840000Y-41065000D02*
X93840000Y-51685000D01*
X78720000Y-41065000D02*
X78720000Y-51685000D01*
X78720000Y-51685000D02*
X93840000Y-51685000D01*
X78720000Y-41065000D02*
X93840000Y-41065000D01*
X78720000Y-44625000D02*
X93840000Y-44625000D01*
X78720000Y-45625000D02*
X93840000Y-45625000D01*
X78720000Y-49625000D02*
X93840000Y-49625000D01*
X93060000Y-47625000D02*
G75*
G03*
X93060000Y-47625000I-1780000J0D01*
G01*
X88060000Y-47625000D02*
G75*
G03*
X88060000Y-47625000I-1780000J0D01*
G01*
X81975501Y-49263499D02*
G75*
G02*
X81280000Y-49405000I-695501J1638499D01*
G01*
X82919205Y-46929484D02*
G75*
G02*
X82919000Y-48321000I-1639205J-695516D01*
G01*
X80584484Y-45985795D02*
G75*
G02*
X81976000Y-45986000I695516J-1639205D01*
G01*
X79640795Y-48320516D02*
G75*
G02*
X79641000Y-46929000I1639205J695516D01*
G01*
X81310814Y-49405389D02*
G75*
G02*
X80584000Y-49264000I-30814J1780389D01*
G01*
%TO.C,J5*%
X76895000Y-45780000D02*
X75565000Y-45780000D01*
X76895000Y-44450000D02*
X76895000Y-45780000D01*
X76895000Y-43180000D02*
X74235000Y-43180000D01*
X74235000Y-43180000D02*
X74235000Y-40580000D01*
X76895000Y-43180000D02*
X76895000Y-40580000D01*
X76895000Y-40580000D02*
X74235000Y-40580000D01*
%TO.C,J3*%
D12*
X93732380Y-38433333D02*
X94446666Y-38433333D01*
X94589523Y-38480952D01*
X94684761Y-38576190D01*
X94732380Y-38719047D01*
X94732380Y-38814285D01*
X93732380Y-38052380D02*
X93732380Y-37433333D01*
X94113333Y-37766666D01*
X94113333Y-37623809D01*
X94160952Y-37528571D01*
X94208571Y-37480952D01*
X94303809Y-37433333D01*
X94541904Y-37433333D01*
X94637142Y-37480952D01*
X94684761Y-37528571D01*
X94732380Y-37623809D01*
X94732380Y-37909523D01*
X94684761Y-38004761D01*
X94637142Y-38052380D01*
%TO.C,J4*%
X97877380Y-29543333D02*
X98591666Y-29543333D01*
X98734523Y-29590952D01*
X98829761Y-29686190D01*
X98877380Y-29829047D01*
X98877380Y-29924285D01*
X98210714Y-28638571D02*
X98877380Y-28638571D01*
X97829761Y-28876666D02*
X98544047Y-29114761D01*
X98544047Y-28495714D01*
%TO.C,J1*%
X93432380Y-28913333D02*
X94146666Y-28913333D01*
X94289523Y-28960952D01*
X94384761Y-29056190D01*
X94432380Y-29199047D01*
X94432380Y-29294285D01*
X94432380Y-27913333D02*
X94432380Y-28484761D01*
X94432380Y-28199047D02*
X93432380Y-28199047D01*
X93575238Y-28294285D01*
X93670476Y-28389523D01*
X93718095Y-28484761D01*
%TO.C,J2*%
X92376666Y-39457380D02*
X92376666Y-40171666D01*
X92329047Y-40314523D01*
X92233809Y-40409761D01*
X92090952Y-40457380D01*
X91995714Y-40457380D01*
X92805238Y-39552619D02*
X92852857Y-39505000D01*
X92948095Y-39457380D01*
X93186190Y-39457380D01*
X93281428Y-39505000D01*
X93329047Y-39552619D01*
X93376666Y-39647857D01*
X93376666Y-39743095D01*
X93329047Y-39885952D01*
X92757619Y-40457380D01*
X93376666Y-40457380D01*
%TO.C,J5*%
X75231666Y-46232380D02*
X75231666Y-46946666D01*
X75184047Y-47089523D01*
X75088809Y-47184761D01*
X74945952Y-47232380D01*
X74850714Y-47232380D01*
X76184047Y-46232380D02*
X75707857Y-46232380D01*
X75660238Y-46708571D01*
X75707857Y-46660952D01*
X75803095Y-46613333D01*
X76041190Y-46613333D01*
X76136428Y-46660952D01*
X76184047Y-46708571D01*
X76231666Y-46803809D01*
X76231666Y-47041904D01*
X76184047Y-47137142D01*
X76136428Y-47184761D01*
X76041190Y-47232380D01*
X75803095Y-47232380D01*
X75707857Y-47184761D01*
X75660238Y-47137142D01*
%TD*%
M02*
