%FSLAX45Y45*%
G04 Gerber Fmt 4.5, Leading zero omitted, Abs format (unit mm)*
G04 Created by KiCad (PCBNEW (5.1.9-0-10_14)) date 2021-06-23 09:31:43*
%MOMM*%
%LPD*%
G01*
G04 APERTURE LIST*
%TA.AperFunction,Profile*%
%ADD10C,0.050000*%
%TD*%
%ADD11C,0.200000*%
%ADD12C,0.300000*%
G04 APERTURE END LIST*
D10*
X14660000Y-4400000D02*
G75*
G03*
X14660000Y-4400000I-160000J0D01*
G01*
X3460000Y-4400000D02*
G75*
G03*
X3460000Y-4400000I-160000J0D01*
G01*
X3460000Y-16500000D02*
G75*
G03*
X3460000Y-16500000I-160000J0D01*
G01*
X17060000Y-16500000D02*
G75*
G03*
X17060000Y-16500000I-160000J0D01*
G01*
X15000000Y-16000000D02*
X17200000Y-16000000D01*
X15000000Y-4000000D02*
X15000000Y-16000000D01*
X15000000Y-4000000D02*
X3000000Y-4000000D01*
X17200000Y-22500000D02*
X3000000Y-22500000D01*
X17200000Y-22500000D02*
X17200000Y-16000000D01*
X17060000Y-22200000D02*
G75*
G03*
X17060000Y-22200000I-160000J0D01*
G01*
X3460000Y-22200000D02*
G75*
G03*
X3460000Y-22200000I-160000J0D01*
G01*
X3000000Y-22500000D02*
X3000000Y-4000000D01*
D11*
X4288530Y-17906820D02*
X4328530Y-17946820D01*
X4328530Y-17906820D02*
X4288530Y-17946820D01*
X4495330Y-16891430D02*
X4535330Y-16931430D01*
X4535330Y-16891430D02*
X4495330Y-16931430D01*
X4669530Y-17903310D02*
X4709530Y-17943310D01*
X4709530Y-17903310D02*
X4669530Y-17943310D01*
X4758000Y-16891430D02*
X4798000Y-16931430D01*
X4798000Y-16891430D02*
X4758000Y-16931430D01*
X5336370Y-21029190D02*
X5376370Y-21069190D01*
X5376370Y-21029190D02*
X5336370Y-21069190D01*
X5901000Y-18180340D02*
X5941000Y-18220340D01*
X5941000Y-18180340D02*
X5901000Y-18220340D01*
X6007780Y-13179060D02*
X6047780Y-13219060D01*
X6047780Y-13179060D02*
X6007780Y-13219060D01*
X6244890Y-15126180D02*
X6284890Y-15166180D01*
X6284890Y-15126180D02*
X6244890Y-15166180D01*
X6282000Y-17906040D02*
X6322000Y-17946040D01*
X6322000Y-17906040D02*
X6282000Y-17946040D01*
X6286630Y-14129590D02*
X6326630Y-14169590D01*
X6326630Y-14129590D02*
X6286630Y-14169590D01*
X6381560Y-19216620D02*
X6421560Y-19256620D01*
X6421560Y-19216620D02*
X6381560Y-19256620D01*
X6459530Y-19388060D02*
X6499530Y-19428060D01*
X6499530Y-19388060D02*
X6459530Y-19428060D01*
X6609440Y-14395260D02*
X6649440Y-14435260D01*
X6649440Y-14395260D02*
X6609440Y-14435260D01*
X6738780Y-14508170D02*
X6778780Y-14548170D01*
X6778780Y-14508170D02*
X6738780Y-14548170D01*
X6780560Y-14648590D02*
X6820560Y-14688590D01*
X6820560Y-14648590D02*
X6780560Y-14688590D01*
X7031460Y-20460090D02*
X7071460Y-20500090D01*
X7071460Y-20460090D02*
X7031460Y-20500090D01*
X7091580Y-19491680D02*
X7131580Y-19531680D01*
X7131580Y-19491680D02*
X7091580Y-19531680D01*
X7132840Y-15782080D02*
X7172840Y-15822080D01*
X7172840Y-15782080D02*
X7132840Y-15822080D01*
X7139860Y-8208390D02*
X7179860Y-8248390D01*
X7179860Y-8208390D02*
X7139860Y-8248390D01*
X7363950Y-12779960D02*
X7403950Y-12819960D01*
X7403950Y-12779960D02*
X7363950Y-12819960D01*
X7806000Y-16054520D02*
X7846000Y-16094520D01*
X7846000Y-16054520D02*
X7806000Y-16094520D01*
X7868430Y-13235120D02*
X7908430Y-13275120D01*
X7908430Y-13235120D02*
X7868430Y-13275120D01*
X8022000Y-20107720D02*
X8062000Y-20147720D01*
X8062000Y-20107720D02*
X8022000Y-20147720D01*
X8039040Y-13480370D02*
X8079040Y-13520370D01*
X8079040Y-13480370D02*
X8039040Y-13520370D01*
X8318510Y-17868570D02*
X8358510Y-17908570D01*
X8358510Y-17868570D02*
X8318510Y-17908570D01*
X8376430Y-13248990D02*
X8416430Y-13288990D01*
X8416430Y-13248990D02*
X8376430Y-13288990D01*
X8520890Y-19950080D02*
X8560890Y-19990080D01*
X8560890Y-19950080D02*
X8520890Y-19990080D01*
X8521000Y-15876340D02*
X8561000Y-15916340D01*
X8561000Y-15876340D02*
X8521000Y-15916340D01*
X8822000Y-17449480D02*
X8862000Y-17489480D01*
X8862000Y-17449480D02*
X8822000Y-17489480D01*
X8949000Y-18245340D02*
X8989000Y-18285340D01*
X8989000Y-18245340D02*
X8949000Y-18285340D01*
X9142020Y-17522050D02*
X9182020Y-17562050D01*
X9182020Y-17522050D02*
X9142020Y-17562050D01*
X9240880Y-18270520D02*
X9280880Y-18310520D01*
X9280880Y-18270520D02*
X9240880Y-18310520D01*
X9356720Y-17558230D02*
X9396720Y-17598230D01*
X9396720Y-17558230D02*
X9356720Y-17598230D01*
X9604650Y-16252110D02*
X9644650Y-16292110D01*
X9644650Y-16252110D02*
X9604650Y-16292110D01*
X9825670Y-17492840D02*
X9865670Y-17532840D01*
X9865670Y-17492840D02*
X9825670Y-17532840D01*
X9920720Y-17891360D02*
X9960720Y-17931360D01*
X9960720Y-17891360D02*
X9920720Y-17931360D01*
X9990400Y-20600400D02*
X10030400Y-20640400D01*
X10030400Y-20600400D02*
X9990400Y-20640400D01*
X10035600Y-19749340D02*
X10075600Y-19789340D01*
X10075600Y-19749340D02*
X10035600Y-19789340D01*
X10047420Y-16336070D02*
X10087420Y-16376070D01*
X10087420Y-16336070D02*
X10047420Y-16376070D01*
X10254350Y-14407390D02*
X10294350Y-14447390D01*
X10294350Y-14407390D02*
X10254350Y-14447390D01*
X10510530Y-14661410D02*
X10550530Y-14701410D01*
X10550530Y-14661410D02*
X10510530Y-14701410D01*
X10513050Y-19750880D02*
X10553050Y-19790880D01*
X10553050Y-19750880D02*
X10513050Y-19790880D01*
X10536850Y-15608850D02*
X10576850Y-15648850D01*
X10576850Y-15608850D02*
X10536850Y-15648850D01*
X10537470Y-20327830D02*
X10577470Y-20367830D01*
X10577470Y-20327830D02*
X10537470Y-20367830D01*
X10815610Y-18133130D02*
X10855610Y-18173130D01*
X10855610Y-18133130D02*
X10815610Y-18173130D01*
X10875630Y-16438490D02*
X10915630Y-16478490D01*
X10915630Y-16438490D02*
X10875630Y-16478490D01*
X10970270Y-13694990D02*
X11010270Y-13734990D01*
X11010270Y-13694990D02*
X10970270Y-13734990D01*
X10993730Y-16725430D02*
X11033730Y-16765430D01*
X11033730Y-16725430D02*
X10993730Y-16765430D01*
X11007730Y-18856250D02*
X11047730Y-18896250D01*
X11047730Y-18856250D02*
X11007730Y-18896250D01*
X11216470Y-13683690D02*
X11256470Y-13723690D01*
X11256470Y-13683690D02*
X11216470Y-13723690D01*
X11230240Y-13874100D02*
X11270240Y-13914100D01*
X11270240Y-13874100D02*
X11230240Y-13914100D01*
X11235000Y-17213890D02*
X11275000Y-17253890D01*
X11275000Y-17213890D02*
X11235000Y-17253890D01*
X11237560Y-16061340D02*
X11277560Y-16101340D01*
X11277560Y-16061340D02*
X11237560Y-16101340D01*
X11348000Y-19590470D02*
X11388000Y-19630470D01*
X11388000Y-19590470D02*
X11348000Y-19630470D01*
X11554840Y-14293140D02*
X11594840Y-14333140D01*
X11594840Y-14293140D02*
X11554840Y-14333140D01*
X11625900Y-13478440D02*
X11665900Y-13518440D01*
X11665900Y-13478440D02*
X11625900Y-13518440D01*
X11653060Y-15539350D02*
X11693060Y-15579350D01*
X11693060Y-15539350D02*
X11653060Y-15579350D01*
X11723410Y-18594030D02*
X11763410Y-18634030D01*
X11763410Y-18594030D02*
X11723410Y-18634030D01*
X11762250Y-17820340D02*
X11802250Y-17860340D01*
X11802250Y-17820340D02*
X11762250Y-17860340D01*
X11864610Y-15084540D02*
X11904610Y-15124540D01*
X11904610Y-15084540D02*
X11864610Y-15124540D01*
X11881130Y-16304390D02*
X11921130Y-16344390D01*
X11921130Y-16304390D02*
X11881130Y-16344390D01*
X11891200Y-15329210D02*
X11931200Y-15369210D01*
X11931200Y-15329210D02*
X11891200Y-15369210D01*
X11911740Y-15562370D02*
X11951740Y-15602370D01*
X11951740Y-15562370D02*
X11911740Y-15602370D01*
X12218100Y-18393470D02*
X12258100Y-18433470D01*
X12258100Y-18393470D02*
X12218100Y-18433470D01*
X12284960Y-15325680D02*
X12324960Y-15365680D01*
X12324960Y-15325680D02*
X12284960Y-15365680D01*
X12337150Y-18394870D02*
X12377150Y-18434870D01*
X12377150Y-18394870D02*
X12337150Y-18434870D01*
X12641770Y-18097950D02*
X12681770Y-18137950D01*
X12681770Y-18097950D02*
X12641770Y-18137950D01*
X12720360Y-19510330D02*
X12760360Y-19550330D01*
X12760360Y-19510330D02*
X12720360Y-19550330D01*
X12734140Y-16869190D02*
X12774140Y-16909190D01*
X12774140Y-16869190D02*
X12734140Y-16909190D01*
X12797210Y-18539370D02*
X12837210Y-18579370D01*
X12837210Y-18539370D02*
X12797210Y-18579370D01*
X13077530Y-17915680D02*
X13117530Y-17955680D01*
X13117530Y-17915680D02*
X13077530Y-17955680D01*
X13488370Y-18678920D02*
X13528370Y-18718920D01*
X13528370Y-18678920D02*
X13488370Y-18718920D01*
X13669880Y-15185800D02*
X13709880Y-15225800D01*
X13709880Y-15185800D02*
X13669880Y-15225800D01*
X14029000Y-16860080D02*
X14069000Y-16900080D01*
X14069000Y-16860080D02*
X14029000Y-16900080D01*
X14218230Y-17598210D02*
X14258230Y-17638210D01*
X14258230Y-17598210D02*
X14218230Y-17638210D01*
X14410000Y-16862510D02*
X14450000Y-16902510D01*
X14450000Y-16862510D02*
X14410000Y-16902510D01*
X14819210Y-18835370D02*
X14859210Y-18875370D01*
X14859210Y-18835370D02*
X14819210Y-18875370D01*
X14889800Y-19315500D02*
X14929800Y-19355500D01*
X14929800Y-19315500D02*
X14889800Y-19355500D01*
X15553000Y-18924000D02*
X15593000Y-18964000D01*
X15593000Y-18924000D02*
X15553000Y-18964000D01*
X15850690Y-19491430D02*
X15890690Y-19531430D01*
X15890690Y-19491430D02*
X15850690Y-19531430D01*
X4405000Y-20208000D02*
G75*
G03*
X4405000Y-20208000I-45000J0D01*
G01*
X4405000Y-20865000D02*
G75*
G03*
X4405000Y-20865000I-45000J0D01*
G01*
X4531000Y-19954000D02*
G75*
G03*
X4531000Y-19954000I-45000J0D01*
G01*
X4531000Y-20611000D02*
G75*
G03*
X4531000Y-20611000I-45000J0D01*
G01*
X4659000Y-20208000D02*
G75*
G03*
X4659000Y-20208000I-45000J0D01*
G01*
X4659000Y-20865000D02*
G75*
G03*
X4659000Y-20865000I-45000J0D01*
G01*
X4785000Y-19954000D02*
G75*
G03*
X4785000Y-19954000I-45000J0D01*
G01*
X4785000Y-20611000D02*
G75*
G03*
X4785000Y-20611000I-45000J0D01*
G01*
X4913000Y-20208000D02*
G75*
G03*
X4913000Y-20208000I-45000J0D01*
G01*
X4913000Y-20865000D02*
G75*
G03*
X4913000Y-20865000I-45000J0D01*
G01*
X5039000Y-19954000D02*
G75*
G03*
X5039000Y-19954000I-45000J0D01*
G01*
X5039000Y-20611000D02*
G75*
G03*
X5039000Y-20611000I-45000J0D01*
G01*
X5167000Y-20208000D02*
G75*
G03*
X5167000Y-20208000I-45000J0D01*
G01*
X5167000Y-20865000D02*
G75*
G03*
X5167000Y-20865000I-45000J0D01*
G01*
X5293000Y-19954000D02*
G75*
G03*
X5293000Y-19954000I-45000J0D01*
G01*
X5293000Y-20611000D02*
G75*
G03*
X5293000Y-20611000I-45000J0D01*
G01*
X5802000Y-20208000D02*
G75*
G03*
X5802000Y-20208000I-45000J0D01*
G01*
X5802000Y-20865000D02*
G75*
G03*
X5802000Y-20865000I-45000J0D01*
G01*
X5928000Y-19954000D02*
G75*
G03*
X5928000Y-19954000I-45000J0D01*
G01*
X5928000Y-20611000D02*
G75*
G03*
X5928000Y-20611000I-45000J0D01*
G01*
X6056000Y-20208000D02*
G75*
G03*
X6056000Y-20208000I-45000J0D01*
G01*
X6056000Y-20865000D02*
G75*
G03*
X6056000Y-20865000I-45000J0D01*
G01*
X6182000Y-19954000D02*
G75*
G03*
X6182000Y-19954000I-45000J0D01*
G01*
X6182000Y-20611000D02*
G75*
G03*
X6182000Y-20611000I-45000J0D01*
G01*
X6310000Y-20208000D02*
G75*
G03*
X6310000Y-20208000I-45000J0D01*
G01*
X6310000Y-20865000D02*
G75*
G03*
X6310000Y-20865000I-45000J0D01*
G01*
X6436000Y-19954000D02*
G75*
G03*
X6436000Y-19954000I-45000J0D01*
G01*
X6436000Y-20611000D02*
G75*
G03*
X6436000Y-20611000I-45000J0D01*
G01*
X6564000Y-20208000D02*
G75*
G03*
X6564000Y-20208000I-45000J0D01*
G01*
X6564000Y-20865000D02*
G75*
G03*
X6564000Y-20865000I-45000J0D01*
G01*
X6690000Y-19954000D02*
G75*
G03*
X6690000Y-19954000I-45000J0D01*
G01*
X6690000Y-20611000D02*
G75*
G03*
X6690000Y-20611000I-45000J0D01*
G01*
X7199000Y-20208000D02*
G75*
G03*
X7199000Y-20208000I-45000J0D01*
G01*
X7199000Y-20865000D02*
G75*
G03*
X7199000Y-20865000I-45000J0D01*
G01*
X7325000Y-19954000D02*
G75*
G03*
X7325000Y-19954000I-45000J0D01*
G01*
X7325000Y-20611000D02*
G75*
G03*
X7325000Y-20611000I-45000J0D01*
G01*
X7453000Y-20208000D02*
G75*
G03*
X7453000Y-20208000I-45000J0D01*
G01*
X7453000Y-20865000D02*
G75*
G03*
X7453000Y-20865000I-45000J0D01*
G01*
X7579000Y-19954000D02*
G75*
G03*
X7579000Y-19954000I-45000J0D01*
G01*
X7579000Y-20611000D02*
G75*
G03*
X7579000Y-20611000I-45000J0D01*
G01*
X7707000Y-20208000D02*
G75*
G03*
X7707000Y-20208000I-45000J0D01*
G01*
X7707000Y-20865000D02*
G75*
G03*
X7707000Y-20865000I-45000J0D01*
G01*
X7833000Y-19954000D02*
G75*
G03*
X7833000Y-19954000I-45000J0D01*
G01*
X7833000Y-20611000D02*
G75*
G03*
X7833000Y-20611000I-45000J0D01*
G01*
X7961000Y-20208000D02*
G75*
G03*
X7961000Y-20208000I-45000J0D01*
G01*
X7961000Y-20865000D02*
G75*
G03*
X7961000Y-20865000I-45000J0D01*
G01*
X8087000Y-19954000D02*
G75*
G03*
X8087000Y-19954000I-45000J0D01*
G01*
X8087000Y-20611000D02*
G75*
G03*
X8087000Y-20611000I-45000J0D01*
G01*
X8596000Y-20208000D02*
G75*
G03*
X8596000Y-20208000I-45000J0D01*
G01*
X8596000Y-20865000D02*
G75*
G03*
X8596000Y-20865000I-45000J0D01*
G01*
X8722000Y-19954000D02*
G75*
G03*
X8722000Y-19954000I-45000J0D01*
G01*
X8722000Y-20611000D02*
G75*
G03*
X8722000Y-20611000I-45000J0D01*
G01*
X8850000Y-20208000D02*
G75*
G03*
X8850000Y-20208000I-45000J0D01*
G01*
X8850000Y-20865000D02*
G75*
G03*
X8850000Y-20865000I-45000J0D01*
G01*
X8976000Y-19954000D02*
G75*
G03*
X8976000Y-19954000I-45000J0D01*
G01*
X8976000Y-20611000D02*
G75*
G03*
X8976000Y-20611000I-45000J0D01*
G01*
X9104000Y-20208000D02*
G75*
G03*
X9104000Y-20208000I-45000J0D01*
G01*
X9104000Y-20865000D02*
G75*
G03*
X9104000Y-20865000I-45000J0D01*
G01*
X9230000Y-19954000D02*
G75*
G03*
X9230000Y-19954000I-45000J0D01*
G01*
X9230000Y-20611000D02*
G75*
G03*
X9230000Y-20611000I-45000J0D01*
G01*
X9358000Y-20208000D02*
G75*
G03*
X9358000Y-20208000I-45000J0D01*
G01*
X9358000Y-20865000D02*
G75*
G03*
X9358000Y-20865000I-45000J0D01*
G01*
X9484000Y-19954000D02*
G75*
G03*
X9484000Y-19954000I-45000J0D01*
G01*
X9484000Y-20611000D02*
G75*
G03*
X9484000Y-20611000I-45000J0D01*
G01*
X10905000Y-20208000D02*
G75*
G03*
X10905000Y-20208000I-45000J0D01*
G01*
X10905000Y-20865000D02*
G75*
G03*
X10905000Y-20865000I-45000J0D01*
G01*
X11031000Y-19954000D02*
G75*
G03*
X11031000Y-19954000I-45000J0D01*
G01*
X11031000Y-20611000D02*
G75*
G03*
X11031000Y-20611000I-45000J0D01*
G01*
X11159000Y-20208000D02*
G75*
G03*
X11159000Y-20208000I-45000J0D01*
G01*
X11159000Y-20865000D02*
G75*
G03*
X11159000Y-20865000I-45000J0D01*
G01*
X11285000Y-19954000D02*
G75*
G03*
X11285000Y-19954000I-45000J0D01*
G01*
X11285000Y-20611000D02*
G75*
G03*
X11285000Y-20611000I-45000J0D01*
G01*
X11413000Y-20208000D02*
G75*
G03*
X11413000Y-20208000I-45000J0D01*
G01*
X11413000Y-20865000D02*
G75*
G03*
X11413000Y-20865000I-45000J0D01*
G01*
X11539000Y-19954000D02*
G75*
G03*
X11539000Y-19954000I-45000J0D01*
G01*
X11539000Y-20611000D02*
G75*
G03*
X11539000Y-20611000I-45000J0D01*
G01*
X11667000Y-20208000D02*
G75*
G03*
X11667000Y-20208000I-45000J0D01*
G01*
X11667000Y-20865000D02*
G75*
G03*
X11667000Y-20865000I-45000J0D01*
G01*
X11793000Y-19954000D02*
G75*
G03*
X11793000Y-19954000I-45000J0D01*
G01*
X11793000Y-20611000D02*
G75*
G03*
X11793000Y-20611000I-45000J0D01*
G01*
X12302000Y-20208000D02*
G75*
G03*
X12302000Y-20208000I-45000J0D01*
G01*
X12302000Y-20865000D02*
G75*
G03*
X12302000Y-20865000I-45000J0D01*
G01*
X12428000Y-19954000D02*
G75*
G03*
X12428000Y-19954000I-45000J0D01*
G01*
X12428000Y-20611000D02*
G75*
G03*
X12428000Y-20611000I-45000J0D01*
G01*
X12556000Y-20208000D02*
G75*
G03*
X12556000Y-20208000I-45000J0D01*
G01*
X12556000Y-20865000D02*
G75*
G03*
X12556000Y-20865000I-45000J0D01*
G01*
X12682000Y-19954000D02*
G75*
G03*
X12682000Y-19954000I-45000J0D01*
G01*
X12682000Y-20611000D02*
G75*
G03*
X12682000Y-20611000I-45000J0D01*
G01*
X12810000Y-20208000D02*
G75*
G03*
X12810000Y-20208000I-45000J0D01*
G01*
X12810000Y-20865000D02*
G75*
G03*
X12810000Y-20865000I-45000J0D01*
G01*
X12936000Y-19954000D02*
G75*
G03*
X12936000Y-19954000I-45000J0D01*
G01*
X12936000Y-20611000D02*
G75*
G03*
X12936000Y-20611000I-45000J0D01*
G01*
X13064000Y-20208000D02*
G75*
G03*
X13064000Y-20208000I-45000J0D01*
G01*
X13064000Y-20865000D02*
G75*
G03*
X13064000Y-20865000I-45000J0D01*
G01*
X13190000Y-19954000D02*
G75*
G03*
X13190000Y-19954000I-45000J0D01*
G01*
X13190000Y-20611000D02*
G75*
G03*
X13190000Y-20611000I-45000J0D01*
G01*
X13699000Y-20208000D02*
G75*
G03*
X13699000Y-20208000I-45000J0D01*
G01*
X13699000Y-20865000D02*
G75*
G03*
X13699000Y-20865000I-45000J0D01*
G01*
X13825000Y-19954000D02*
G75*
G03*
X13825000Y-19954000I-45000J0D01*
G01*
X13825000Y-20611000D02*
G75*
G03*
X13825000Y-20611000I-45000J0D01*
G01*
X13953000Y-20208000D02*
G75*
G03*
X13953000Y-20208000I-45000J0D01*
G01*
X13953000Y-20865000D02*
G75*
G03*
X13953000Y-20865000I-45000J0D01*
G01*
X14079000Y-19954000D02*
G75*
G03*
X14079000Y-19954000I-45000J0D01*
G01*
X14079000Y-20611000D02*
G75*
G03*
X14079000Y-20611000I-45000J0D01*
G01*
X14207000Y-20208000D02*
G75*
G03*
X14207000Y-20208000I-45000J0D01*
G01*
X14207000Y-20865000D02*
G75*
G03*
X14207000Y-20865000I-45000J0D01*
G01*
X14333000Y-19954000D02*
G75*
G03*
X14333000Y-19954000I-45000J0D01*
G01*
X14333000Y-20611000D02*
G75*
G03*
X14333000Y-20611000I-45000J0D01*
G01*
X14461000Y-20208000D02*
G75*
G03*
X14461000Y-20208000I-45000J0D01*
G01*
X14461000Y-20865000D02*
G75*
G03*
X14461000Y-20865000I-45000J0D01*
G01*
X14587000Y-19954000D02*
G75*
G03*
X14587000Y-19954000I-45000J0D01*
G01*
X14587000Y-20611000D02*
G75*
G03*
X14587000Y-20611000I-45000J0D01*
G01*
X15096000Y-20208000D02*
G75*
G03*
X15096000Y-20208000I-45000J0D01*
G01*
X15096000Y-20865000D02*
G75*
G03*
X15096000Y-20865000I-45000J0D01*
G01*
X15222000Y-19954000D02*
G75*
G03*
X15222000Y-19954000I-45000J0D01*
G01*
X15222000Y-20611000D02*
G75*
G03*
X15222000Y-20611000I-45000J0D01*
G01*
X15350000Y-20208000D02*
G75*
G03*
X15350000Y-20208000I-45000J0D01*
G01*
X15350000Y-20865000D02*
G75*
G03*
X15350000Y-20865000I-45000J0D01*
G01*
X15476000Y-19954000D02*
G75*
G03*
X15476000Y-19954000I-45000J0D01*
G01*
X15476000Y-20611000D02*
G75*
G03*
X15476000Y-20611000I-45000J0D01*
G01*
X15604000Y-20208000D02*
G75*
G03*
X15604000Y-20208000I-45000J0D01*
G01*
X15604000Y-20865000D02*
G75*
G03*
X15604000Y-20865000I-45000J0D01*
G01*
X15730000Y-19954000D02*
G75*
G03*
X15730000Y-19954000I-45000J0D01*
G01*
X15730000Y-20611000D02*
G75*
G03*
X15730000Y-20611000I-45000J0D01*
G01*
X15858000Y-20208000D02*
G75*
G03*
X15858000Y-20208000I-45000J0D01*
G01*
X15858000Y-20865000D02*
G75*
G03*
X15858000Y-20865000I-45000J0D01*
G01*
X15984000Y-19954000D02*
G75*
G03*
X15984000Y-19954000I-45000J0D01*
G01*
X15984000Y-20611000D02*
G75*
G03*
X15984000Y-20611000I-45000J0D01*
G01*
X4142000Y-18692000D02*
X4142000Y-18792000D01*
X4092000Y-18742000D02*
X4192000Y-18742000D01*
X4142000Y-18946000D02*
X4142000Y-19046000D01*
X4092000Y-18996000D02*
X4192000Y-18996000D01*
X4904000Y-18692000D02*
X4904000Y-18792000D01*
X4854000Y-18742000D02*
X4954000Y-18742000D01*
X4904000Y-18946000D02*
X4904000Y-19046000D01*
X4854000Y-18996000D02*
X4954000Y-18996000D01*
X5666000Y-18692000D02*
X5666000Y-18792000D01*
X5616000Y-18742000D02*
X5716000Y-18742000D01*
X5666000Y-18946000D02*
X5666000Y-19046000D01*
X5616000Y-18996000D02*
X5716000Y-18996000D01*
X6428000Y-18692000D02*
X6428000Y-18792000D01*
X6378000Y-18742000D02*
X6478000Y-18742000D01*
X6428000Y-18946000D02*
X6428000Y-19046000D01*
X6378000Y-18996000D02*
X6478000Y-18996000D01*
X7190000Y-18692000D02*
X7190000Y-18792000D01*
X7140000Y-18742000D02*
X7240000Y-18742000D01*
X7190000Y-18946000D02*
X7190000Y-19046000D01*
X7140000Y-18996000D02*
X7240000Y-18996000D01*
X7952000Y-18692000D02*
X7952000Y-18792000D01*
X7902000Y-18742000D02*
X8002000Y-18742000D01*
X7952000Y-18946000D02*
X7952000Y-19046000D01*
X7902000Y-18996000D02*
X8002000Y-18996000D01*
X8714000Y-18692000D02*
X8714000Y-18792000D01*
X8664000Y-18742000D02*
X8764000Y-18742000D01*
X8714000Y-18946000D02*
X8714000Y-19046000D01*
X8664000Y-18996000D02*
X8764000Y-18996000D01*
X8788400Y-8325900D02*
X8788400Y-8425900D01*
X8738400Y-8375900D02*
X8838400Y-8375900D01*
X8788400Y-12161300D02*
X8788400Y-12261300D01*
X8738400Y-12211300D02*
X8838400Y-12211300D01*
X9476000Y-18692000D02*
X9476000Y-18792000D01*
X9426000Y-18742000D02*
X9526000Y-18742000D01*
X9476000Y-18946000D02*
X9476000Y-19046000D01*
X9426000Y-18996000D02*
X9526000Y-18996000D01*
X9548400Y-8325900D02*
X9548400Y-8425900D01*
X9498400Y-8375900D02*
X9598400Y-8375900D01*
X9548400Y-12161300D02*
X9548400Y-12261300D01*
X9498400Y-12211300D02*
X9598400Y-12211300D01*
X10147300Y-7208300D02*
X10147300Y-7308300D01*
X10097300Y-7258300D02*
X10197300Y-7258300D01*
X10155200Y-6367300D02*
X10155200Y-6467300D01*
X10105200Y-6417300D02*
X10205200Y-6417300D01*
X10401300Y-7208300D02*
X10401300Y-7308300D01*
X10351300Y-7258300D02*
X10451300Y-7258300D01*
X10405200Y-6367300D02*
X10405200Y-6467300D01*
X10355200Y-6417300D02*
X10455200Y-6417300D01*
X10620000Y-10004000D02*
X10620000Y-10104000D01*
X10570000Y-10054000D02*
X10670000Y-10054000D01*
X10629900Y-8491000D02*
X10629900Y-8591000D01*
X10579900Y-8541000D02*
X10679900Y-8541000D01*
X10655200Y-6367300D02*
X10655200Y-6467300D01*
X10605200Y-6417300D02*
X10705200Y-6417300D01*
X10655300Y-7208300D02*
X10655300Y-7308300D01*
X10605300Y-7258300D02*
X10705300Y-7258300D01*
X10693400Y-13367800D02*
X10693400Y-13467800D01*
X10643400Y-13417800D02*
X10743400Y-13417800D01*
X10746000Y-18692000D02*
X10746000Y-18792000D01*
X10696000Y-18742000D02*
X10796000Y-18742000D01*
X10746000Y-18946000D02*
X10746000Y-19046000D01*
X10696000Y-18996000D02*
X10796000Y-18996000D01*
X10874000Y-10004000D02*
X10874000Y-10104000D01*
X10824000Y-10054000D02*
X10924000Y-10054000D01*
X10883900Y-8491000D02*
X10883900Y-8591000D01*
X10833900Y-8541000D02*
X10933900Y-8541000D01*
X10947400Y-13367800D02*
X10947400Y-13467800D01*
X10897400Y-13417800D02*
X10997400Y-13417800D01*
X11128000Y-10004000D02*
X11128000Y-10104000D01*
X11078000Y-10054000D02*
X11178000Y-10054000D01*
X11137900Y-8491000D02*
X11137900Y-8591000D01*
X11087900Y-8541000D02*
X11187900Y-8541000D01*
X11201400Y-13367800D02*
X11201400Y-13467800D01*
X11151400Y-13417800D02*
X11251400Y-13417800D01*
X11382000Y-10004000D02*
X11382000Y-10104000D01*
X11332000Y-10054000D02*
X11432000Y-10054000D01*
X11391900Y-8491000D02*
X11391900Y-8591000D01*
X11341900Y-8541000D02*
X11441900Y-8541000D01*
X11455400Y-13367800D02*
X11455400Y-13467800D01*
X11405400Y-13417800D02*
X11505400Y-13417800D01*
X11508000Y-18692000D02*
X11508000Y-18792000D01*
X11458000Y-18742000D02*
X11558000Y-18742000D01*
X11508000Y-18946000D02*
X11508000Y-19046000D01*
X11458000Y-18996000D02*
X11558000Y-18996000D01*
X11645900Y-8491000D02*
X11645900Y-8591000D01*
X11595900Y-8541000D02*
X11695900Y-8541000D01*
X11899900Y-8491000D02*
X11899900Y-8591000D01*
X11849900Y-8541000D02*
X11949900Y-8541000D01*
X12270000Y-18692000D02*
X12270000Y-18792000D01*
X12220000Y-18742000D02*
X12320000Y-18742000D01*
X12270000Y-18946000D02*
X12270000Y-19046000D01*
X12220000Y-18996000D02*
X12320000Y-18996000D01*
X13032000Y-18692000D02*
X13032000Y-18792000D01*
X12982000Y-18742000D02*
X13082000Y-18742000D01*
X13032000Y-18946000D02*
X13032000Y-19046000D01*
X12982000Y-18996000D02*
X13082000Y-18996000D01*
X13794000Y-18692000D02*
X13794000Y-18792000D01*
X13744000Y-18742000D02*
X13844000Y-18742000D01*
X13794000Y-18946000D02*
X13794000Y-19046000D01*
X13744000Y-18996000D02*
X13844000Y-18996000D01*
X14556000Y-18692000D02*
X14556000Y-18792000D01*
X14506000Y-18742000D02*
X14606000Y-18742000D01*
X14556000Y-18946000D02*
X14556000Y-19046000D01*
X14506000Y-18996000D02*
X14606000Y-18996000D01*
X3568770Y-5090970D02*
X3568770Y-5017430D01*
X3495230Y-5017430D01*
X3495230Y-5090970D01*
X3568770Y-5090970D01*
X3568770Y-7630970D02*
X3568770Y-7557430D01*
X3495230Y-7557430D01*
X3495230Y-7630970D01*
X3568770Y-7630970D01*
X3822770Y-5090970D02*
X3822770Y-5017430D01*
X3749230Y-5017430D01*
X3749230Y-5090970D01*
X3822770Y-5090970D01*
X3822770Y-7630970D02*
X3822770Y-7557430D01*
X3749230Y-7557430D01*
X3749230Y-7630970D01*
X3822770Y-7630970D01*
X4076770Y-5090970D02*
X4076770Y-5017430D01*
X4003230Y-5017430D01*
X4003230Y-5090970D01*
X4076770Y-5090970D01*
X4076770Y-7630970D02*
X4076770Y-7557430D01*
X4003230Y-7557430D01*
X4003230Y-7630970D01*
X4076770Y-7630970D01*
X4330770Y-5090970D02*
X4330770Y-5017430D01*
X4257230Y-5017430D01*
X4257230Y-5090970D01*
X4330770Y-5090970D01*
X4330770Y-7630970D02*
X4330770Y-7557430D01*
X4257230Y-7557430D01*
X4257230Y-7630970D01*
X4330770Y-7630970D01*
X4584770Y-5090970D02*
X4584770Y-5017430D01*
X4511230Y-5017430D01*
X4511230Y-5090970D01*
X4584770Y-5090970D01*
X4584770Y-7630970D02*
X4584770Y-7557430D01*
X4511230Y-7557430D01*
X4511230Y-7630970D01*
X4584770Y-7630970D01*
X4838770Y-5090970D02*
X4838770Y-5017430D01*
X4765230Y-5017430D01*
X4765230Y-5090970D01*
X4838770Y-5090970D01*
X4838770Y-7630970D02*
X4838770Y-7557430D01*
X4765230Y-7557430D01*
X4765230Y-7630970D01*
X4838770Y-7630970D01*
X5092770Y-5090970D02*
X5092770Y-5017430D01*
X5019230Y-5017430D01*
X5019230Y-5090970D01*
X5092770Y-5090970D01*
X5092770Y-7630970D02*
X5092770Y-7557430D01*
X5019230Y-7557430D01*
X5019230Y-7630970D01*
X5092770Y-7630970D01*
X5346770Y-5090970D02*
X5346770Y-5017430D01*
X5273230Y-5017430D01*
X5273230Y-5090970D01*
X5346770Y-5090970D01*
X5346770Y-7630970D02*
X5346770Y-7557430D01*
X5273230Y-7557430D01*
X5273230Y-7630970D01*
X5346770Y-7630970D01*
X5600770Y-5090970D02*
X5600770Y-5017430D01*
X5527230Y-5017430D01*
X5527230Y-5090970D01*
X5600770Y-5090970D01*
X5600770Y-7630970D02*
X5600770Y-7557430D01*
X5527230Y-7557430D01*
X5527230Y-7630970D01*
X5600770Y-7630970D01*
X5854770Y-5090970D02*
X5854770Y-5017430D01*
X5781230Y-5017430D01*
X5781230Y-5090970D01*
X5854770Y-5090970D01*
X5854770Y-7630970D02*
X5854770Y-7557430D01*
X5781230Y-7557430D01*
X5781230Y-7630970D01*
X5854770Y-7630970D01*
X6108770Y-5090970D02*
X6108770Y-5017430D01*
X6035230Y-5017430D01*
X6035230Y-5090970D01*
X6108770Y-5090970D01*
X6108770Y-7630970D02*
X6108770Y-7557430D01*
X6035230Y-7557430D01*
X6035230Y-7630970D01*
X6108770Y-7630970D01*
X6362770Y-5090970D02*
X6362770Y-5017430D01*
X6289230Y-5017430D01*
X6289230Y-5090970D01*
X6362770Y-5090970D01*
X6362770Y-7630970D02*
X6362770Y-7557430D01*
X6289230Y-7557430D01*
X6289230Y-7630970D01*
X6362770Y-7630970D01*
X6616770Y-5090970D02*
X6616770Y-5017430D01*
X6543230Y-5017430D01*
X6543230Y-5090970D01*
X6616770Y-5090970D01*
X6616770Y-7630970D02*
X6616770Y-7557430D01*
X6543230Y-7557430D01*
X6543230Y-7630970D01*
X6616770Y-7630970D01*
X6870770Y-5090970D02*
X6870770Y-5017430D01*
X6797230Y-5017430D01*
X6797230Y-5090970D01*
X6870770Y-5090970D01*
X6870770Y-7630970D02*
X6870770Y-7557430D01*
X6797230Y-7557430D01*
X6797230Y-7630970D01*
X6870770Y-7630970D01*
X7124770Y-5090970D02*
X7124770Y-5017430D01*
X7051230Y-5017430D01*
X7051230Y-5090970D01*
X7124770Y-5090970D01*
X7124770Y-7630970D02*
X7124770Y-7557430D01*
X7051230Y-7557430D01*
X7051230Y-7630970D01*
X7124770Y-7630970D01*
X7378770Y-5090970D02*
X7378770Y-5017430D01*
X7305230Y-5017430D01*
X7305230Y-5090970D01*
X7378770Y-5090970D01*
X7378770Y-7630970D02*
X7378770Y-7557430D01*
X7305230Y-7557430D01*
X7305230Y-7630970D01*
X7378770Y-7630970D01*
X7632770Y-5090970D02*
X7632770Y-5017430D01*
X7559230Y-5017430D01*
X7559230Y-5090970D01*
X7632770Y-5090970D01*
X7632770Y-7630970D02*
X7632770Y-7557430D01*
X7559230Y-7557430D01*
X7559230Y-7630970D01*
X7632770Y-7630970D01*
X7886770Y-5090970D02*
X7886770Y-5017430D01*
X7813230Y-5017430D01*
X7813230Y-5090970D01*
X7886770Y-5090970D01*
X7886770Y-7630970D02*
X7886770Y-7557430D01*
X7813230Y-7557430D01*
X7813230Y-7630970D01*
X7886770Y-7630970D01*
X8140770Y-5090970D02*
X8140770Y-5017430D01*
X8067230Y-5017430D01*
X8067230Y-5090970D01*
X8140770Y-5090970D01*
X8140770Y-7630970D02*
X8140770Y-7557430D01*
X8067230Y-7557430D01*
X8067230Y-7630970D01*
X8140770Y-7630970D01*
X3461000Y-9605000D02*
X3516000Y-9550000D01*
X3461000Y-9495000D01*
X3406000Y-9550000D01*
X3461000Y-9605000D01*
X3461000Y-11129000D02*
X3516000Y-11074000D01*
X3461000Y-11019000D01*
X3406000Y-11074000D01*
X3461000Y-11129000D01*
X3461000Y-13415000D02*
X3516000Y-13360000D01*
X3461000Y-13305000D01*
X3406000Y-13360000D01*
X3461000Y-13415000D01*
X3461000Y-14939000D02*
X3516000Y-14884000D01*
X3461000Y-14829000D01*
X3406000Y-14884000D01*
X3461000Y-14939000D01*
X3715000Y-9605000D02*
X3770000Y-9550000D01*
X3715000Y-9495000D01*
X3660000Y-9550000D01*
X3715000Y-9605000D01*
X3715000Y-11129000D02*
X3770000Y-11074000D01*
X3715000Y-11019000D01*
X3660000Y-11074000D01*
X3715000Y-11129000D01*
X3715000Y-13415000D02*
X3770000Y-13360000D01*
X3715000Y-13305000D01*
X3660000Y-13360000D01*
X3715000Y-13415000D01*
X3715000Y-14939000D02*
X3770000Y-14884000D01*
X3715000Y-14829000D01*
X3660000Y-14884000D01*
X3715000Y-14939000D01*
X3969000Y-9605000D02*
X4024000Y-9550000D01*
X3969000Y-9495000D01*
X3914000Y-9550000D01*
X3969000Y-9605000D01*
X3969000Y-11129000D02*
X4024000Y-11074000D01*
X3969000Y-11019000D01*
X3914000Y-11074000D01*
X3969000Y-11129000D01*
X3969000Y-13415000D02*
X4024000Y-13360000D01*
X3969000Y-13305000D01*
X3914000Y-13360000D01*
X3969000Y-13415000D01*
X3969000Y-14939000D02*
X4024000Y-14884000D01*
X3969000Y-14829000D01*
X3914000Y-14884000D01*
X3969000Y-14939000D01*
X4223000Y-9605000D02*
X4278000Y-9550000D01*
X4223000Y-9495000D01*
X4168000Y-9550000D01*
X4223000Y-9605000D01*
X4223000Y-11129000D02*
X4278000Y-11074000D01*
X4223000Y-11019000D01*
X4168000Y-11074000D01*
X4223000Y-11129000D01*
X4223000Y-13415000D02*
X4278000Y-13360000D01*
X4223000Y-13305000D01*
X4168000Y-13360000D01*
X4223000Y-13415000D01*
X4223000Y-14939000D02*
X4278000Y-14884000D01*
X4223000Y-14829000D01*
X4168000Y-14884000D01*
X4223000Y-14939000D01*
X4477000Y-9605000D02*
X4532000Y-9550000D01*
X4477000Y-9495000D01*
X4422000Y-9550000D01*
X4477000Y-9605000D01*
X4477000Y-11129000D02*
X4532000Y-11074000D01*
X4477000Y-11019000D01*
X4422000Y-11074000D01*
X4477000Y-11129000D01*
X4477000Y-13415000D02*
X4532000Y-13360000D01*
X4477000Y-13305000D01*
X4422000Y-13360000D01*
X4477000Y-13415000D01*
X4477000Y-14939000D02*
X4532000Y-14884000D01*
X4477000Y-14829000D01*
X4422000Y-14884000D01*
X4477000Y-14939000D01*
X4731000Y-9605000D02*
X4786000Y-9550000D01*
X4731000Y-9495000D01*
X4676000Y-9550000D01*
X4731000Y-9605000D01*
X4731000Y-11129000D02*
X4786000Y-11074000D01*
X4731000Y-11019000D01*
X4676000Y-11074000D01*
X4731000Y-11129000D01*
X4731000Y-13415000D02*
X4786000Y-13360000D01*
X4731000Y-13305000D01*
X4676000Y-13360000D01*
X4731000Y-13415000D01*
X4731000Y-14939000D02*
X4786000Y-14884000D01*
X4731000Y-14829000D01*
X4676000Y-14884000D01*
X4731000Y-14939000D01*
X4985000Y-9605000D02*
X5040000Y-9550000D01*
X4985000Y-9495000D01*
X4930000Y-9550000D01*
X4985000Y-9605000D01*
X4985000Y-11129000D02*
X5040000Y-11074000D01*
X4985000Y-11019000D01*
X4930000Y-11074000D01*
X4985000Y-11129000D01*
X4985000Y-13415000D02*
X5040000Y-13360000D01*
X4985000Y-13305000D01*
X4930000Y-13360000D01*
X4985000Y-13415000D01*
X4985000Y-14939000D02*
X5040000Y-14884000D01*
X4985000Y-14829000D01*
X4930000Y-14884000D01*
X4985000Y-14939000D01*
X5239000Y-9605000D02*
X5294000Y-9550000D01*
X5239000Y-9495000D01*
X5184000Y-9550000D01*
X5239000Y-9605000D01*
X5239000Y-11129000D02*
X5294000Y-11074000D01*
X5239000Y-11019000D01*
X5184000Y-11074000D01*
X5239000Y-11129000D01*
X5239000Y-13415000D02*
X5294000Y-13360000D01*
X5239000Y-13305000D01*
X5184000Y-13360000D01*
X5239000Y-13415000D01*
X5239000Y-14939000D02*
X5294000Y-14884000D01*
X5239000Y-14829000D01*
X5184000Y-14884000D01*
X5239000Y-14939000D01*
X5493000Y-9605000D02*
X5548000Y-9550000D01*
X5493000Y-9495000D01*
X5438000Y-9550000D01*
X5493000Y-9605000D01*
X5493000Y-11129000D02*
X5548000Y-11074000D01*
X5493000Y-11019000D01*
X5438000Y-11074000D01*
X5493000Y-11129000D01*
X5493000Y-13415000D02*
X5548000Y-13360000D01*
X5493000Y-13305000D01*
X5438000Y-13360000D01*
X5493000Y-13415000D01*
X5493000Y-14939000D02*
X5548000Y-14884000D01*
X5493000Y-14829000D01*
X5438000Y-14884000D01*
X5493000Y-14939000D01*
X5747000Y-9605000D02*
X5802000Y-9550000D01*
X5747000Y-9495000D01*
X5692000Y-9550000D01*
X5747000Y-9605000D01*
X5747000Y-11129000D02*
X5802000Y-11074000D01*
X5747000Y-11019000D01*
X5692000Y-11074000D01*
X5747000Y-11129000D01*
X5747000Y-13415000D02*
X5802000Y-13360000D01*
X5747000Y-13305000D01*
X5692000Y-13360000D01*
X5747000Y-13415000D01*
X5747000Y-14939000D02*
X5802000Y-14884000D01*
X5747000Y-14829000D01*
X5692000Y-14884000D01*
X5747000Y-14939000D01*
X6001000Y-9605000D02*
X6056000Y-9550000D01*
X6001000Y-9495000D01*
X5946000Y-9550000D01*
X6001000Y-9605000D01*
X6001000Y-11129000D02*
X6056000Y-11074000D01*
X6001000Y-11019000D01*
X5946000Y-11074000D01*
X6001000Y-11129000D01*
X6001000Y-13415000D02*
X6056000Y-13360000D01*
X6001000Y-13305000D01*
X5946000Y-13360000D01*
X6001000Y-13415000D01*
X6001000Y-14939000D02*
X6056000Y-14884000D01*
X6001000Y-14829000D01*
X5946000Y-14884000D01*
X6001000Y-14939000D01*
X6255000Y-9605000D02*
X6310000Y-9550000D01*
X6255000Y-9495000D01*
X6200000Y-9550000D01*
X6255000Y-9605000D01*
X6255000Y-11129000D02*
X6310000Y-11074000D01*
X6255000Y-11019000D01*
X6200000Y-11074000D01*
X6255000Y-11129000D01*
X6255000Y-13415000D02*
X6310000Y-13360000D01*
X6255000Y-13305000D01*
X6200000Y-13360000D01*
X6255000Y-13415000D01*
X6255000Y-14939000D02*
X6310000Y-14884000D01*
X6255000Y-14829000D01*
X6200000Y-14884000D01*
X6255000Y-14939000D01*
X6509000Y-9605000D02*
X6564000Y-9550000D01*
X6509000Y-9495000D01*
X6454000Y-9550000D01*
X6509000Y-9605000D01*
X6509000Y-11129000D02*
X6564000Y-11074000D01*
X6509000Y-11019000D01*
X6454000Y-11074000D01*
X6509000Y-11129000D01*
X6509000Y-13415000D02*
X6564000Y-13360000D01*
X6509000Y-13305000D01*
X6454000Y-13360000D01*
X6509000Y-13415000D01*
X6509000Y-14939000D02*
X6564000Y-14884000D01*
X6509000Y-14829000D01*
X6454000Y-14884000D01*
X6509000Y-14939000D01*
X6763000Y-9605000D02*
X6818000Y-9550000D01*
X6763000Y-9495000D01*
X6708000Y-9550000D01*
X6763000Y-9605000D01*
X6763000Y-11129000D02*
X6818000Y-11074000D01*
X6763000Y-11019000D01*
X6708000Y-11074000D01*
X6763000Y-11129000D01*
X6763000Y-13415000D02*
X6818000Y-13360000D01*
X6763000Y-13305000D01*
X6708000Y-13360000D01*
X6763000Y-13415000D01*
X6763000Y-14939000D02*
X6818000Y-14884000D01*
X6763000Y-14829000D01*
X6708000Y-14884000D01*
X6763000Y-14939000D01*
X7017000Y-9605000D02*
X7072000Y-9550000D01*
X7017000Y-9495000D01*
X6962000Y-9550000D01*
X7017000Y-9605000D01*
X7017000Y-11129000D02*
X7072000Y-11074000D01*
X7017000Y-11019000D01*
X6962000Y-11074000D01*
X7017000Y-11129000D01*
X7017000Y-13415000D02*
X7072000Y-13360000D01*
X7017000Y-13305000D01*
X6962000Y-13360000D01*
X7017000Y-13415000D01*
X7017000Y-14939000D02*
X7072000Y-14884000D01*
X7017000Y-14829000D01*
X6962000Y-14884000D01*
X7017000Y-14939000D01*
X7271000Y-9605000D02*
X7326000Y-9550000D01*
X7271000Y-9495000D01*
X7216000Y-9550000D01*
X7271000Y-9605000D01*
X7271000Y-11129000D02*
X7326000Y-11074000D01*
X7271000Y-11019000D01*
X7216000Y-11074000D01*
X7271000Y-11129000D01*
X7271000Y-13415000D02*
X7326000Y-13360000D01*
X7271000Y-13305000D01*
X7216000Y-13360000D01*
X7271000Y-13415000D01*
X7271000Y-14939000D02*
X7326000Y-14884000D01*
X7271000Y-14829000D01*
X7216000Y-14884000D01*
X7271000Y-14939000D01*
X7525000Y-9605000D02*
X7580000Y-9550000D01*
X7525000Y-9495000D01*
X7470000Y-9550000D01*
X7525000Y-9605000D01*
X7525000Y-11129000D02*
X7580000Y-11074000D01*
X7525000Y-11019000D01*
X7470000Y-11074000D01*
X7525000Y-11129000D01*
X7525000Y-13415000D02*
X7580000Y-13360000D01*
X7525000Y-13305000D01*
X7470000Y-13360000D01*
X7525000Y-13415000D01*
X7525000Y-14939000D02*
X7580000Y-14884000D01*
X7525000Y-14829000D01*
X7470000Y-14884000D01*
X7525000Y-14939000D01*
X7779000Y-9605000D02*
X7834000Y-9550000D01*
X7779000Y-9495000D01*
X7724000Y-9550000D01*
X7779000Y-9605000D01*
X7779000Y-11129000D02*
X7834000Y-11074000D01*
X7779000Y-11019000D01*
X7724000Y-11074000D01*
X7779000Y-11129000D01*
X7779000Y-13415000D02*
X7834000Y-13360000D01*
X7779000Y-13305000D01*
X7724000Y-13360000D01*
X7779000Y-13415000D01*
X7779000Y-14939000D02*
X7834000Y-14884000D01*
X7779000Y-14829000D01*
X7724000Y-14884000D01*
X7779000Y-14939000D01*
X8033000Y-9605000D02*
X8088000Y-9550000D01*
X8033000Y-9495000D01*
X7978000Y-9550000D01*
X8033000Y-9605000D01*
X8033000Y-11129000D02*
X8088000Y-11074000D01*
X8033000Y-11019000D01*
X7978000Y-11074000D01*
X8033000Y-11129000D01*
X8033000Y-13415000D02*
X8088000Y-13360000D01*
X8033000Y-13305000D01*
X7978000Y-13360000D01*
X8033000Y-13415000D01*
X8033000Y-14939000D02*
X8088000Y-14884000D01*
X8033000Y-14829000D01*
X7978000Y-14884000D01*
X8033000Y-14939000D01*
X8287000Y-9605000D02*
X8342000Y-9550000D01*
X8287000Y-9495000D01*
X8232000Y-9550000D01*
X8287000Y-9605000D01*
X8287000Y-11129000D02*
X8342000Y-11074000D01*
X8287000Y-11019000D01*
X8232000Y-11074000D01*
X8287000Y-11129000D01*
X8287000Y-13415000D02*
X8342000Y-13360000D01*
X8287000Y-13305000D01*
X8232000Y-13360000D01*
X8287000Y-13415000D01*
X8287000Y-14939000D02*
X8342000Y-14884000D01*
X8287000Y-14829000D01*
X8232000Y-14884000D01*
X8287000Y-14939000D01*
X8541000Y-9605000D02*
X8596000Y-9550000D01*
X8541000Y-9495000D01*
X8486000Y-9550000D01*
X8541000Y-9605000D01*
X8541000Y-11129000D02*
X8596000Y-11074000D01*
X8541000Y-11019000D01*
X8486000Y-11074000D01*
X8541000Y-11129000D01*
X8541000Y-13415000D02*
X8596000Y-13360000D01*
X8541000Y-13305000D01*
X8486000Y-13360000D01*
X8541000Y-13415000D01*
X8541000Y-14939000D02*
X8596000Y-14884000D01*
X8541000Y-14829000D01*
X8486000Y-14884000D01*
X8541000Y-14939000D01*
X8795000Y-9605000D02*
X8850000Y-9550000D01*
X8795000Y-9495000D01*
X8740000Y-9550000D01*
X8795000Y-9605000D01*
X8795000Y-11129000D02*
X8850000Y-11074000D01*
X8795000Y-11019000D01*
X8740000Y-11074000D01*
X8795000Y-11129000D01*
X8795000Y-13415000D02*
X8850000Y-13360000D01*
X8795000Y-13305000D01*
X8740000Y-13360000D01*
X8795000Y-13415000D01*
X8795000Y-14939000D02*
X8850000Y-14884000D01*
X8795000Y-14829000D01*
X8740000Y-14884000D01*
X8795000Y-14939000D01*
X9049000Y-9605000D02*
X9104000Y-9550000D01*
X9049000Y-9495000D01*
X8994000Y-9550000D01*
X9049000Y-9605000D01*
X9049000Y-11129000D02*
X9104000Y-11074000D01*
X9049000Y-11019000D01*
X8994000Y-11074000D01*
X9049000Y-11129000D01*
X9049000Y-13415000D02*
X9104000Y-13360000D01*
X9049000Y-13305000D01*
X8994000Y-13360000D01*
X9049000Y-13415000D01*
X9049000Y-14939000D02*
X9104000Y-14884000D01*
X9049000Y-14829000D01*
X8994000Y-14884000D01*
X9049000Y-14939000D01*
X9303000Y-9605000D02*
X9358000Y-9550000D01*
X9303000Y-9495000D01*
X9248000Y-9550000D01*
X9303000Y-9605000D01*
X9303000Y-11129000D02*
X9358000Y-11074000D01*
X9303000Y-11019000D01*
X9248000Y-11074000D01*
X9303000Y-11129000D01*
X9303000Y-13415000D02*
X9358000Y-13360000D01*
X9303000Y-13305000D01*
X9248000Y-13360000D01*
X9303000Y-13415000D01*
X9303000Y-14939000D02*
X9358000Y-14884000D01*
X9303000Y-14829000D01*
X9248000Y-14884000D01*
X9303000Y-14939000D01*
X12658700Y-5931000D02*
X12798700Y-6071000D01*
X12798700Y-5931000D02*
X12658700Y-6071000D01*
X12798700Y-6001000D02*
G75*
G03*
X12798700Y-6001000I-70000J0D01*
G01*
X13158700Y-5931000D02*
X13298700Y-6071000D01*
X13298700Y-5931000D02*
X13158700Y-6071000D01*
X13298700Y-6001000D02*
G75*
G03*
X13298700Y-6001000I-70000J0D01*
G01*
X13658700Y-5931000D02*
X13798700Y-6071000D01*
X13798700Y-5931000D02*
X13658700Y-6071000D01*
X13798700Y-6001000D02*
G75*
G03*
X13798700Y-6001000I-70000J0D01*
G01*
X3874000Y-19874000D02*
X4034000Y-20034000D01*
X4034000Y-19874000D02*
X3874000Y-20034000D01*
X3954000Y-19874000D02*
X3954000Y-20034000D01*
X3874000Y-19954000D02*
X4034000Y-19954000D01*
X3874000Y-21877000D02*
X4034000Y-22037000D01*
X4034000Y-21877000D02*
X3874000Y-22037000D01*
X3954000Y-21877000D02*
X3954000Y-22037000D01*
X3874000Y-21957000D02*
X4034000Y-21957000D01*
X3940500Y-20505000D02*
X4100500Y-20665000D01*
X4100500Y-20505000D02*
X3940500Y-20665000D01*
X4020500Y-20505000D02*
X4020500Y-20665000D01*
X3940500Y-20585000D02*
X4100500Y-20585000D01*
X9699500Y-20835000D02*
X9859500Y-20995000D01*
X9859500Y-20835000D02*
X9699500Y-20995000D01*
X9779500Y-20835000D02*
X9779500Y-20995000D01*
X9699500Y-20915000D02*
X9859500Y-20915000D01*
X9766000Y-20280000D02*
X9926000Y-20440000D01*
X9926000Y-20280000D02*
X9766000Y-20440000D01*
X9846000Y-20280000D02*
X9846000Y-20440000D01*
X9766000Y-20360000D02*
X9926000Y-20360000D01*
X9766000Y-21877000D02*
X9926000Y-22037000D01*
X9926000Y-21877000D02*
X9766000Y-22037000D01*
X9846000Y-21877000D02*
X9846000Y-22037000D01*
X9766000Y-21957000D02*
X9926000Y-21957000D01*
X10374000Y-19874000D02*
X10534000Y-20034000D01*
X10534000Y-19874000D02*
X10374000Y-20034000D01*
X10454000Y-19874000D02*
X10454000Y-20034000D01*
X10374000Y-19954000D02*
X10534000Y-19954000D01*
X10374000Y-21877000D02*
X10534000Y-22037000D01*
X10534000Y-21877000D02*
X10374000Y-22037000D01*
X10454000Y-21877000D02*
X10454000Y-22037000D01*
X10374000Y-21957000D02*
X10534000Y-21957000D01*
X10440500Y-20505000D02*
X10600500Y-20665000D01*
X10600500Y-20505000D02*
X10440500Y-20665000D01*
X10520500Y-20505000D02*
X10520500Y-20665000D01*
X10440500Y-20585000D02*
X10600500Y-20585000D01*
X16199500Y-20835000D02*
X16359500Y-20995000D01*
X16359500Y-20835000D02*
X16199500Y-20995000D01*
X16279500Y-20835000D02*
X16279500Y-20995000D01*
X16199500Y-20915000D02*
X16359500Y-20915000D01*
X16266000Y-20280000D02*
X16426000Y-20440000D01*
X16426000Y-20280000D02*
X16266000Y-20440000D01*
X16346000Y-20280000D02*
X16346000Y-20440000D01*
X16266000Y-20360000D02*
X16426000Y-20360000D01*
X16266000Y-21877000D02*
X16426000Y-22037000D01*
X16426000Y-21877000D02*
X16266000Y-22037000D01*
X16346000Y-21877000D02*
X16346000Y-22037000D01*
X16266000Y-21957000D02*
X16426000Y-21957000D01*
D12*
X3283928Y-22968214D02*
X3283928Y-22668214D01*
X3355357Y-22668214D01*
X3398214Y-22682500D01*
X3426786Y-22711071D01*
X3441071Y-22739643D01*
X3455357Y-22796786D01*
X3455357Y-22839643D01*
X3441071Y-22896786D01*
X3426786Y-22925357D01*
X3398214Y-22953929D01*
X3355357Y-22968214D01*
X3283928Y-22968214D01*
X3583928Y-22968214D02*
X3583928Y-22768214D01*
X3583928Y-22825357D02*
X3598214Y-22796786D01*
X3612500Y-22782500D01*
X3641071Y-22768214D01*
X3669643Y-22768214D01*
X3769643Y-22968214D02*
X3769643Y-22768214D01*
X3769643Y-22668214D02*
X3755357Y-22682500D01*
X3769643Y-22696786D01*
X3783928Y-22682500D01*
X3769643Y-22668214D01*
X3769643Y-22696786D01*
X3955357Y-22968214D02*
X3926786Y-22953929D01*
X3912500Y-22925357D01*
X3912500Y-22668214D01*
X4112500Y-22968214D02*
X4083928Y-22953929D01*
X4069643Y-22925357D01*
X4069643Y-22668214D01*
X4455357Y-22968214D02*
X4455357Y-22668214D01*
X4555357Y-22882500D01*
X4655357Y-22668214D01*
X4655357Y-22968214D01*
X4926786Y-22968214D02*
X4926786Y-22811071D01*
X4912500Y-22782500D01*
X4883928Y-22768214D01*
X4826786Y-22768214D01*
X4798214Y-22782500D01*
X4926786Y-22953929D02*
X4898214Y-22968214D01*
X4826786Y-22968214D01*
X4798214Y-22953929D01*
X4783928Y-22925357D01*
X4783928Y-22896786D01*
X4798214Y-22868214D01*
X4826786Y-22853929D01*
X4898214Y-22853929D01*
X4926786Y-22839643D01*
X5069643Y-22768214D02*
X5069643Y-23068214D01*
X5069643Y-22782500D02*
X5098214Y-22768214D01*
X5155357Y-22768214D01*
X5183928Y-22782500D01*
X5198214Y-22796786D01*
X5212500Y-22825357D01*
X5212500Y-22911071D01*
X5198214Y-22939643D01*
X5183928Y-22953929D01*
X5155357Y-22968214D01*
X5098214Y-22968214D01*
X5069643Y-22953929D01*
X5341071Y-22939643D02*
X5355357Y-22953929D01*
X5341071Y-22968214D01*
X5326786Y-22953929D01*
X5341071Y-22939643D01*
X5341071Y-22968214D01*
X5341071Y-22782500D02*
X5355357Y-22796786D01*
X5341071Y-22811071D01*
X5326786Y-22796786D01*
X5341071Y-22782500D01*
X5341071Y-22811071D01*
X2957500Y-23442500D02*
X2997500Y-23482500D01*
X2997500Y-23442500D02*
X2957500Y-23482500D01*
X3341071Y-23298214D02*
X3369643Y-23298214D01*
X3398214Y-23312500D01*
X3412500Y-23326786D01*
X3426786Y-23355357D01*
X3441071Y-23412500D01*
X3441071Y-23483929D01*
X3426786Y-23541071D01*
X3412500Y-23569643D01*
X3398214Y-23583929D01*
X3369643Y-23598214D01*
X3341071Y-23598214D01*
X3312500Y-23583929D01*
X3298214Y-23569643D01*
X3283928Y-23541071D01*
X3269643Y-23483929D01*
X3269643Y-23412500D01*
X3283928Y-23355357D01*
X3298214Y-23326786D01*
X3312500Y-23312500D01*
X3341071Y-23298214D01*
X3569643Y-23569643D02*
X3583928Y-23583929D01*
X3569643Y-23598214D01*
X3555357Y-23583929D01*
X3569643Y-23569643D01*
X3569643Y-23598214D01*
X3841071Y-23398214D02*
X3841071Y-23598214D01*
X3769643Y-23283929D02*
X3698214Y-23498214D01*
X3883928Y-23498214D01*
X4055357Y-23298214D02*
X4083928Y-23298214D01*
X4112500Y-23312500D01*
X4126786Y-23326786D01*
X4141071Y-23355357D01*
X4155357Y-23412500D01*
X4155357Y-23483929D01*
X4141071Y-23541071D01*
X4126786Y-23569643D01*
X4112500Y-23583929D01*
X4083928Y-23598214D01*
X4055357Y-23598214D01*
X4026786Y-23583929D01*
X4012500Y-23569643D01*
X3998214Y-23541071D01*
X3983928Y-23483929D01*
X3983928Y-23412500D01*
X3998214Y-23355357D01*
X4012500Y-23326786D01*
X4026786Y-23312500D01*
X4055357Y-23298214D01*
X4283928Y-23598214D02*
X4283928Y-23398214D01*
X4283928Y-23426786D02*
X4298214Y-23412500D01*
X4326786Y-23398214D01*
X4369643Y-23398214D01*
X4398214Y-23412500D01*
X4412500Y-23441071D01*
X4412500Y-23598214D01*
X4412500Y-23441071D02*
X4426786Y-23412500D01*
X4455357Y-23398214D01*
X4498214Y-23398214D01*
X4526786Y-23412500D01*
X4541071Y-23441071D01*
X4541071Y-23598214D01*
X4683928Y-23598214D02*
X4683928Y-23398214D01*
X4683928Y-23426786D02*
X4698214Y-23412500D01*
X4726786Y-23398214D01*
X4769643Y-23398214D01*
X4798214Y-23412500D01*
X4812500Y-23441071D01*
X4812500Y-23598214D01*
X4812500Y-23441071D02*
X4826786Y-23412500D01*
X4855357Y-23398214D01*
X4898214Y-23398214D01*
X4926786Y-23412500D01*
X4941071Y-23441071D01*
X4941071Y-23598214D01*
X5526786Y-23283929D02*
X5269643Y-23669643D01*
X5912500Y-23298214D02*
X5941071Y-23298214D01*
X5969643Y-23312500D01*
X5983928Y-23326786D01*
X5998214Y-23355357D01*
X6012500Y-23412500D01*
X6012500Y-23483929D01*
X5998214Y-23541071D01*
X5983928Y-23569643D01*
X5969643Y-23583929D01*
X5941071Y-23598214D01*
X5912500Y-23598214D01*
X5883928Y-23583929D01*
X5869643Y-23569643D01*
X5855357Y-23541071D01*
X5841071Y-23483929D01*
X5841071Y-23412500D01*
X5855357Y-23355357D01*
X5869643Y-23326786D01*
X5883928Y-23312500D01*
X5912500Y-23298214D01*
X6141071Y-23569643D02*
X6155357Y-23583929D01*
X6141071Y-23598214D01*
X6126786Y-23583929D01*
X6141071Y-23569643D01*
X6141071Y-23598214D01*
X6341071Y-23298214D02*
X6369643Y-23298214D01*
X6398214Y-23312500D01*
X6412500Y-23326786D01*
X6426786Y-23355357D01*
X6441071Y-23412500D01*
X6441071Y-23483929D01*
X6426786Y-23541071D01*
X6412500Y-23569643D01*
X6398214Y-23583929D01*
X6369643Y-23598214D01*
X6341071Y-23598214D01*
X6312500Y-23583929D01*
X6298214Y-23569643D01*
X6283928Y-23541071D01*
X6269643Y-23483929D01*
X6269643Y-23412500D01*
X6283928Y-23355357D01*
X6298214Y-23326786D01*
X6312500Y-23312500D01*
X6341071Y-23298214D01*
X6726786Y-23598214D02*
X6555357Y-23598214D01*
X6641071Y-23598214D02*
X6641071Y-23298214D01*
X6612500Y-23341071D01*
X6583928Y-23369643D01*
X6555357Y-23383929D01*
X6983928Y-23298214D02*
X6926786Y-23298214D01*
X6898214Y-23312500D01*
X6883928Y-23326786D01*
X6855357Y-23369643D01*
X6841071Y-23426786D01*
X6841071Y-23541071D01*
X6855357Y-23569643D01*
X6869643Y-23583929D01*
X6898214Y-23598214D01*
X6955357Y-23598214D01*
X6983928Y-23583929D01*
X6998214Y-23569643D01*
X7012500Y-23541071D01*
X7012500Y-23469643D01*
X6998214Y-23441071D01*
X6983928Y-23426786D01*
X6955357Y-23412500D01*
X6898214Y-23412500D01*
X6869643Y-23426786D01*
X6855357Y-23441071D01*
X6841071Y-23469643D01*
X7126786Y-23298214D02*
X7126786Y-23355357D01*
X7241071Y-23298214D02*
X7241071Y-23355357D01*
X7683928Y-23712500D02*
X7669643Y-23698214D01*
X7641071Y-23655357D01*
X7626786Y-23626786D01*
X7612500Y-23583929D01*
X7598214Y-23512500D01*
X7598214Y-23455357D01*
X7612500Y-23383929D01*
X7626786Y-23341071D01*
X7641071Y-23312500D01*
X7669643Y-23269643D01*
X7683928Y-23255357D01*
X7841071Y-23426786D02*
X7812500Y-23412500D01*
X7798214Y-23398214D01*
X7783928Y-23369643D01*
X7783928Y-23355357D01*
X7798214Y-23326786D01*
X7812500Y-23312500D01*
X7841071Y-23298214D01*
X7898214Y-23298214D01*
X7926786Y-23312500D01*
X7941071Y-23326786D01*
X7955357Y-23355357D01*
X7955357Y-23369643D01*
X7941071Y-23398214D01*
X7926786Y-23412500D01*
X7898214Y-23426786D01*
X7841071Y-23426786D01*
X7812500Y-23441071D01*
X7798214Y-23455357D01*
X7783928Y-23483929D01*
X7783928Y-23541071D01*
X7798214Y-23569643D01*
X7812500Y-23583929D01*
X7841071Y-23598214D01*
X7898214Y-23598214D01*
X7926786Y-23583929D01*
X7941071Y-23569643D01*
X7955357Y-23541071D01*
X7955357Y-23483929D01*
X7941071Y-23455357D01*
X7926786Y-23441071D01*
X7898214Y-23426786D01*
X8141071Y-23298214D02*
X8169643Y-23298214D01*
X8198214Y-23312500D01*
X8212500Y-23326786D01*
X8226786Y-23355357D01*
X8241071Y-23412500D01*
X8241071Y-23483929D01*
X8226786Y-23541071D01*
X8212500Y-23569643D01*
X8198214Y-23583929D01*
X8169643Y-23598214D01*
X8141071Y-23598214D01*
X8112500Y-23583929D01*
X8098214Y-23569643D01*
X8083928Y-23541071D01*
X8069643Y-23483929D01*
X8069643Y-23412500D01*
X8083928Y-23355357D01*
X8098214Y-23326786D01*
X8112500Y-23312500D01*
X8141071Y-23298214D01*
X8598214Y-23598214D02*
X8598214Y-23298214D01*
X8726786Y-23598214D02*
X8726786Y-23441071D01*
X8712500Y-23412500D01*
X8683928Y-23398214D01*
X8641071Y-23398214D01*
X8612500Y-23412500D01*
X8598214Y-23426786D01*
X8912500Y-23598214D02*
X8883928Y-23583929D01*
X8869643Y-23569643D01*
X8855357Y-23541071D01*
X8855357Y-23455357D01*
X8869643Y-23426786D01*
X8883928Y-23412500D01*
X8912500Y-23398214D01*
X8955357Y-23398214D01*
X8983928Y-23412500D01*
X8998214Y-23426786D01*
X9012500Y-23455357D01*
X9012500Y-23541071D01*
X8998214Y-23569643D01*
X8983928Y-23583929D01*
X8955357Y-23598214D01*
X8912500Y-23598214D01*
X9183928Y-23598214D02*
X9155357Y-23583929D01*
X9141071Y-23555357D01*
X9141071Y-23298214D01*
X9412500Y-23583929D02*
X9383928Y-23598214D01*
X9326786Y-23598214D01*
X9298214Y-23583929D01*
X9283928Y-23555357D01*
X9283928Y-23441071D01*
X9298214Y-23412500D01*
X9326786Y-23398214D01*
X9383928Y-23398214D01*
X9412500Y-23412500D01*
X9426786Y-23441071D01*
X9426786Y-23469643D01*
X9283928Y-23498214D01*
X9541071Y-23583929D02*
X9569643Y-23598214D01*
X9626786Y-23598214D01*
X9655357Y-23583929D01*
X9669643Y-23555357D01*
X9669643Y-23541071D01*
X9655357Y-23512500D01*
X9626786Y-23498214D01*
X9583928Y-23498214D01*
X9555357Y-23483929D01*
X9541071Y-23455357D01*
X9541071Y-23441071D01*
X9555357Y-23412500D01*
X9583928Y-23398214D01*
X9626786Y-23398214D01*
X9655357Y-23412500D01*
X9769643Y-23712500D02*
X9783928Y-23698214D01*
X9812500Y-23655357D01*
X9826786Y-23626786D01*
X9841071Y-23583929D01*
X9855357Y-23512500D01*
X9855357Y-23455357D01*
X9841071Y-23383929D01*
X9826786Y-23341071D01*
X9812500Y-23312500D01*
X9783928Y-23269643D01*
X9769643Y-23255357D01*
X2997500Y-23858500D02*
G75*
G03*
X2997500Y-23858500I-45000J0D01*
G01*
X3341071Y-23694214D02*
X3369643Y-23694214D01*
X3398214Y-23708500D01*
X3412500Y-23722786D01*
X3426786Y-23751357D01*
X3441071Y-23808500D01*
X3441071Y-23879929D01*
X3426786Y-23937071D01*
X3412500Y-23965643D01*
X3398214Y-23979929D01*
X3369643Y-23994214D01*
X3341071Y-23994214D01*
X3312500Y-23979929D01*
X3298214Y-23965643D01*
X3283928Y-23937071D01*
X3269643Y-23879929D01*
X3269643Y-23808500D01*
X3283928Y-23751357D01*
X3298214Y-23722786D01*
X3312500Y-23708500D01*
X3341071Y-23694214D01*
X3569643Y-23965643D02*
X3583928Y-23979929D01*
X3569643Y-23994214D01*
X3555357Y-23979929D01*
X3569643Y-23965643D01*
X3569643Y-23994214D01*
X3726786Y-23994214D02*
X3783928Y-23994214D01*
X3812500Y-23979929D01*
X3826786Y-23965643D01*
X3855357Y-23922786D01*
X3869643Y-23865643D01*
X3869643Y-23751357D01*
X3855357Y-23722786D01*
X3841071Y-23708500D01*
X3812500Y-23694214D01*
X3755357Y-23694214D01*
X3726786Y-23708500D01*
X3712500Y-23722786D01*
X3698214Y-23751357D01*
X3698214Y-23822786D01*
X3712500Y-23851357D01*
X3726786Y-23865643D01*
X3755357Y-23879929D01*
X3812500Y-23879929D01*
X3841071Y-23865643D01*
X3855357Y-23851357D01*
X3869643Y-23822786D01*
X4055357Y-23694214D02*
X4083928Y-23694214D01*
X4112500Y-23708500D01*
X4126786Y-23722786D01*
X4141071Y-23751357D01*
X4155357Y-23808500D01*
X4155357Y-23879929D01*
X4141071Y-23937071D01*
X4126786Y-23965643D01*
X4112500Y-23979929D01*
X4083928Y-23994214D01*
X4055357Y-23994214D01*
X4026786Y-23979929D01*
X4012500Y-23965643D01*
X3998214Y-23937071D01*
X3983928Y-23879929D01*
X3983928Y-23808500D01*
X3998214Y-23751357D01*
X4012500Y-23722786D01*
X4026786Y-23708500D01*
X4055357Y-23694214D01*
X4283928Y-23994214D02*
X4283928Y-23794214D01*
X4283928Y-23822786D02*
X4298214Y-23808500D01*
X4326786Y-23794214D01*
X4369643Y-23794214D01*
X4398214Y-23808500D01*
X4412500Y-23837071D01*
X4412500Y-23994214D01*
X4412500Y-23837071D02*
X4426786Y-23808500D01*
X4455357Y-23794214D01*
X4498214Y-23794214D01*
X4526786Y-23808500D01*
X4541071Y-23837071D01*
X4541071Y-23994214D01*
X4683928Y-23994214D02*
X4683928Y-23794214D01*
X4683928Y-23822786D02*
X4698214Y-23808500D01*
X4726786Y-23794214D01*
X4769643Y-23794214D01*
X4798214Y-23808500D01*
X4812500Y-23837071D01*
X4812500Y-23994214D01*
X4812500Y-23837071D02*
X4826786Y-23808500D01*
X4855357Y-23794214D01*
X4898214Y-23794214D01*
X4926786Y-23808500D01*
X4941071Y-23837071D01*
X4941071Y-23994214D01*
X5526786Y-23679929D02*
X5269643Y-24065643D01*
X5912500Y-23694214D02*
X5941071Y-23694214D01*
X5969643Y-23708500D01*
X5983928Y-23722786D01*
X5998214Y-23751357D01*
X6012500Y-23808500D01*
X6012500Y-23879929D01*
X5998214Y-23937071D01*
X5983928Y-23965643D01*
X5969643Y-23979929D01*
X5941071Y-23994214D01*
X5912500Y-23994214D01*
X5883928Y-23979929D01*
X5869643Y-23965643D01*
X5855357Y-23937071D01*
X5841071Y-23879929D01*
X5841071Y-23808500D01*
X5855357Y-23751357D01*
X5869643Y-23722786D01*
X5883928Y-23708500D01*
X5912500Y-23694214D01*
X6141071Y-23965643D02*
X6155357Y-23979929D01*
X6141071Y-23994214D01*
X6126786Y-23979929D01*
X6141071Y-23965643D01*
X6141071Y-23994214D01*
X6341071Y-23694214D02*
X6369643Y-23694214D01*
X6398214Y-23708500D01*
X6412500Y-23722786D01*
X6426786Y-23751357D01*
X6441071Y-23808500D01*
X6441071Y-23879929D01*
X6426786Y-23937071D01*
X6412500Y-23965643D01*
X6398214Y-23979929D01*
X6369643Y-23994214D01*
X6341071Y-23994214D01*
X6312500Y-23979929D01*
X6298214Y-23965643D01*
X6283928Y-23937071D01*
X6269643Y-23879929D01*
X6269643Y-23808500D01*
X6283928Y-23751357D01*
X6298214Y-23722786D01*
X6312500Y-23708500D01*
X6341071Y-23694214D01*
X6541071Y-23694214D02*
X6726786Y-23694214D01*
X6626786Y-23808500D01*
X6669643Y-23808500D01*
X6698214Y-23822786D01*
X6712500Y-23837071D01*
X6726786Y-23865643D01*
X6726786Y-23937071D01*
X6712500Y-23965643D01*
X6698214Y-23979929D01*
X6669643Y-23994214D01*
X6583928Y-23994214D01*
X6555357Y-23979929D01*
X6541071Y-23965643D01*
X6998214Y-23694214D02*
X6855357Y-23694214D01*
X6841071Y-23837071D01*
X6855357Y-23822786D01*
X6883928Y-23808500D01*
X6955357Y-23808500D01*
X6983928Y-23822786D01*
X6998214Y-23837071D01*
X7012500Y-23865643D01*
X7012500Y-23937071D01*
X6998214Y-23965643D01*
X6983928Y-23979929D01*
X6955357Y-23994214D01*
X6883928Y-23994214D01*
X6855357Y-23979929D01*
X6841071Y-23965643D01*
X7126786Y-23694214D02*
X7126786Y-23751357D01*
X7241071Y-23694214D02*
X7241071Y-23751357D01*
X7683928Y-24108500D02*
X7669643Y-24094214D01*
X7641071Y-24051357D01*
X7626786Y-24022786D01*
X7612500Y-23979929D01*
X7598214Y-23908500D01*
X7598214Y-23851357D01*
X7612500Y-23779929D01*
X7626786Y-23737071D01*
X7641071Y-23708500D01*
X7669643Y-23665643D01*
X7683928Y-23651357D01*
X7955357Y-23994214D02*
X7783928Y-23994214D01*
X7869643Y-23994214D02*
X7869643Y-23694214D01*
X7841071Y-23737071D01*
X7812500Y-23765643D01*
X7783928Y-23779929D01*
X8069643Y-23722786D02*
X8083928Y-23708500D01*
X8112500Y-23694214D01*
X8183928Y-23694214D01*
X8212500Y-23708500D01*
X8226786Y-23722786D01*
X8241071Y-23751357D01*
X8241071Y-23779929D01*
X8226786Y-23822786D01*
X8055357Y-23994214D01*
X8241071Y-23994214D01*
X8412500Y-23822786D02*
X8383928Y-23808500D01*
X8369643Y-23794214D01*
X8355357Y-23765643D01*
X8355357Y-23751357D01*
X8369643Y-23722786D01*
X8383928Y-23708500D01*
X8412500Y-23694214D01*
X8469643Y-23694214D01*
X8498214Y-23708500D01*
X8512500Y-23722786D01*
X8526786Y-23751357D01*
X8526786Y-23765643D01*
X8512500Y-23794214D01*
X8498214Y-23808500D01*
X8469643Y-23822786D01*
X8412500Y-23822786D01*
X8383928Y-23837071D01*
X8369643Y-23851357D01*
X8355357Y-23879929D01*
X8355357Y-23937071D01*
X8369643Y-23965643D01*
X8383928Y-23979929D01*
X8412500Y-23994214D01*
X8469643Y-23994214D01*
X8498214Y-23979929D01*
X8512500Y-23965643D01*
X8526786Y-23937071D01*
X8526786Y-23879929D01*
X8512500Y-23851357D01*
X8498214Y-23837071D01*
X8469643Y-23822786D01*
X8883928Y-23994214D02*
X8883928Y-23694214D01*
X9012500Y-23994214D02*
X9012500Y-23837071D01*
X8998214Y-23808500D01*
X8969643Y-23794214D01*
X8926786Y-23794214D01*
X8898214Y-23808500D01*
X8883928Y-23822786D01*
X9198214Y-23994214D02*
X9169643Y-23979929D01*
X9155357Y-23965643D01*
X9141071Y-23937071D01*
X9141071Y-23851357D01*
X9155357Y-23822786D01*
X9169643Y-23808500D01*
X9198214Y-23794214D01*
X9241071Y-23794214D01*
X9269643Y-23808500D01*
X9283928Y-23822786D01*
X9298214Y-23851357D01*
X9298214Y-23937071D01*
X9283928Y-23965643D01*
X9269643Y-23979929D01*
X9241071Y-23994214D01*
X9198214Y-23994214D01*
X9469643Y-23994214D02*
X9441071Y-23979929D01*
X9426786Y-23951357D01*
X9426786Y-23694214D01*
X9698214Y-23979929D02*
X9669643Y-23994214D01*
X9612500Y-23994214D01*
X9583928Y-23979929D01*
X9569643Y-23951357D01*
X9569643Y-23837071D01*
X9583928Y-23808500D01*
X9612500Y-23794214D01*
X9669643Y-23794214D01*
X9698214Y-23808500D01*
X9712500Y-23837071D01*
X9712500Y-23865643D01*
X9569643Y-23894214D01*
X9826786Y-23979929D02*
X9855357Y-23994214D01*
X9912500Y-23994214D01*
X9941071Y-23979929D01*
X9955357Y-23951357D01*
X9955357Y-23937071D01*
X9941071Y-23908500D01*
X9912500Y-23894214D01*
X9869643Y-23894214D01*
X9841071Y-23879929D01*
X9826786Y-23851357D01*
X9826786Y-23837071D01*
X9841071Y-23808500D01*
X9869643Y-23794214D01*
X9912500Y-23794214D01*
X9941071Y-23808500D01*
X10055357Y-24108500D02*
X10069643Y-24094214D01*
X10098214Y-24051357D01*
X10112500Y-24022786D01*
X10126786Y-23979929D01*
X10141071Y-23908500D01*
X10141071Y-23851357D01*
X10126786Y-23779929D01*
X10112500Y-23737071D01*
X10098214Y-23708500D01*
X10069643Y-23665643D01*
X10055357Y-23651357D01*
X2947500Y-24204500D02*
X2947500Y-24304500D01*
X2897500Y-24254500D02*
X2997500Y-24254500D01*
X3441071Y-24390214D02*
X3269643Y-24390214D01*
X3355357Y-24390214D02*
X3355357Y-24090214D01*
X3326786Y-24133071D01*
X3298214Y-24161643D01*
X3269643Y-24175929D01*
X3569643Y-24361643D02*
X3583928Y-24375929D01*
X3569643Y-24390214D01*
X3555357Y-24375929D01*
X3569643Y-24361643D01*
X3569643Y-24390214D01*
X3769643Y-24090214D02*
X3798214Y-24090214D01*
X3826786Y-24104500D01*
X3841071Y-24118786D01*
X3855357Y-24147357D01*
X3869643Y-24204500D01*
X3869643Y-24275929D01*
X3855357Y-24333071D01*
X3841071Y-24361643D01*
X3826786Y-24375929D01*
X3798214Y-24390214D01*
X3769643Y-24390214D01*
X3741071Y-24375929D01*
X3726786Y-24361643D01*
X3712500Y-24333071D01*
X3698214Y-24275929D01*
X3698214Y-24204500D01*
X3712500Y-24147357D01*
X3726786Y-24118786D01*
X3741071Y-24104500D01*
X3769643Y-24090214D01*
X4055357Y-24090214D02*
X4083928Y-24090214D01*
X4112500Y-24104500D01*
X4126786Y-24118786D01*
X4141071Y-24147357D01*
X4155357Y-24204500D01*
X4155357Y-24275929D01*
X4141071Y-24333071D01*
X4126786Y-24361643D01*
X4112500Y-24375929D01*
X4083928Y-24390214D01*
X4055357Y-24390214D01*
X4026786Y-24375929D01*
X4012500Y-24361643D01*
X3998214Y-24333071D01*
X3983928Y-24275929D01*
X3983928Y-24204500D01*
X3998214Y-24147357D01*
X4012500Y-24118786D01*
X4026786Y-24104500D01*
X4055357Y-24090214D01*
X4283928Y-24390214D02*
X4283928Y-24190214D01*
X4283928Y-24218786D02*
X4298214Y-24204500D01*
X4326786Y-24190214D01*
X4369643Y-24190214D01*
X4398214Y-24204500D01*
X4412500Y-24233071D01*
X4412500Y-24390214D01*
X4412500Y-24233071D02*
X4426786Y-24204500D01*
X4455357Y-24190214D01*
X4498214Y-24190214D01*
X4526786Y-24204500D01*
X4541071Y-24233071D01*
X4541071Y-24390214D01*
X4683928Y-24390214D02*
X4683928Y-24190214D01*
X4683928Y-24218786D02*
X4698214Y-24204500D01*
X4726786Y-24190214D01*
X4769643Y-24190214D01*
X4798214Y-24204500D01*
X4812500Y-24233071D01*
X4812500Y-24390214D01*
X4812500Y-24233071D02*
X4826786Y-24204500D01*
X4855357Y-24190214D01*
X4898214Y-24190214D01*
X4926786Y-24204500D01*
X4941071Y-24233071D01*
X4941071Y-24390214D01*
X5526786Y-24075929D02*
X5269643Y-24461643D01*
X5912500Y-24090214D02*
X5941071Y-24090214D01*
X5969643Y-24104500D01*
X5983928Y-24118786D01*
X5998214Y-24147357D01*
X6012500Y-24204500D01*
X6012500Y-24275929D01*
X5998214Y-24333071D01*
X5983928Y-24361643D01*
X5969643Y-24375929D01*
X5941071Y-24390214D01*
X5912500Y-24390214D01*
X5883928Y-24375929D01*
X5869643Y-24361643D01*
X5855357Y-24333071D01*
X5841071Y-24275929D01*
X5841071Y-24204500D01*
X5855357Y-24147357D01*
X5869643Y-24118786D01*
X5883928Y-24104500D01*
X5912500Y-24090214D01*
X6141071Y-24361643D02*
X6155357Y-24375929D01*
X6141071Y-24390214D01*
X6126786Y-24375929D01*
X6141071Y-24361643D01*
X6141071Y-24390214D01*
X6341071Y-24090214D02*
X6369643Y-24090214D01*
X6398214Y-24104500D01*
X6412500Y-24118786D01*
X6426786Y-24147357D01*
X6441071Y-24204500D01*
X6441071Y-24275929D01*
X6426786Y-24333071D01*
X6412500Y-24361643D01*
X6398214Y-24375929D01*
X6369643Y-24390214D01*
X6341071Y-24390214D01*
X6312500Y-24375929D01*
X6298214Y-24361643D01*
X6283928Y-24333071D01*
X6269643Y-24275929D01*
X6269643Y-24204500D01*
X6283928Y-24147357D01*
X6298214Y-24118786D01*
X6312500Y-24104500D01*
X6341071Y-24090214D01*
X6541071Y-24090214D02*
X6726786Y-24090214D01*
X6626786Y-24204500D01*
X6669643Y-24204500D01*
X6698214Y-24218786D01*
X6712500Y-24233071D01*
X6726786Y-24261643D01*
X6726786Y-24333071D01*
X6712500Y-24361643D01*
X6698214Y-24375929D01*
X6669643Y-24390214D01*
X6583928Y-24390214D01*
X6555357Y-24375929D01*
X6541071Y-24361643D01*
X6869643Y-24390214D02*
X6926786Y-24390214D01*
X6955357Y-24375929D01*
X6969643Y-24361643D01*
X6998214Y-24318786D01*
X7012500Y-24261643D01*
X7012500Y-24147357D01*
X6998214Y-24118786D01*
X6983928Y-24104500D01*
X6955357Y-24090214D01*
X6898214Y-24090214D01*
X6869643Y-24104500D01*
X6855357Y-24118786D01*
X6841071Y-24147357D01*
X6841071Y-24218786D01*
X6855357Y-24247357D01*
X6869643Y-24261643D01*
X6898214Y-24275929D01*
X6955357Y-24275929D01*
X6983928Y-24261643D01*
X6998214Y-24247357D01*
X7012500Y-24218786D01*
X7126786Y-24090214D02*
X7126786Y-24147357D01*
X7241071Y-24090214D02*
X7241071Y-24147357D01*
X7683928Y-24504500D02*
X7669643Y-24490214D01*
X7641071Y-24447357D01*
X7626786Y-24418786D01*
X7612500Y-24375929D01*
X7598214Y-24304500D01*
X7598214Y-24247357D01*
X7612500Y-24175929D01*
X7626786Y-24133071D01*
X7641071Y-24104500D01*
X7669643Y-24061643D01*
X7683928Y-24047357D01*
X7941071Y-24090214D02*
X7798214Y-24090214D01*
X7783928Y-24233071D01*
X7798214Y-24218786D01*
X7826786Y-24204500D01*
X7898214Y-24204500D01*
X7926786Y-24218786D01*
X7941071Y-24233071D01*
X7955357Y-24261643D01*
X7955357Y-24333071D01*
X7941071Y-24361643D01*
X7926786Y-24375929D01*
X7898214Y-24390214D01*
X7826786Y-24390214D01*
X7798214Y-24375929D01*
X7783928Y-24361643D01*
X8069643Y-24118786D02*
X8083928Y-24104500D01*
X8112500Y-24090214D01*
X8183928Y-24090214D01*
X8212500Y-24104500D01*
X8226786Y-24118786D01*
X8241071Y-24147357D01*
X8241071Y-24175929D01*
X8226786Y-24218786D01*
X8055357Y-24390214D01*
X8241071Y-24390214D01*
X8598214Y-24390214D02*
X8598214Y-24090214D01*
X8726786Y-24390214D02*
X8726786Y-24233071D01*
X8712500Y-24204500D01*
X8683928Y-24190214D01*
X8641071Y-24190214D01*
X8612500Y-24204500D01*
X8598214Y-24218786D01*
X8912500Y-24390214D02*
X8883928Y-24375929D01*
X8869643Y-24361643D01*
X8855357Y-24333071D01*
X8855357Y-24247357D01*
X8869643Y-24218786D01*
X8883928Y-24204500D01*
X8912500Y-24190214D01*
X8955357Y-24190214D01*
X8983928Y-24204500D01*
X8998214Y-24218786D01*
X9012500Y-24247357D01*
X9012500Y-24333071D01*
X8998214Y-24361643D01*
X8983928Y-24375929D01*
X8955357Y-24390214D01*
X8912500Y-24390214D01*
X9183928Y-24390214D02*
X9155357Y-24375929D01*
X9141071Y-24347357D01*
X9141071Y-24090214D01*
X9412500Y-24375929D02*
X9383928Y-24390214D01*
X9326786Y-24390214D01*
X9298214Y-24375929D01*
X9283928Y-24347357D01*
X9283928Y-24233071D01*
X9298214Y-24204500D01*
X9326786Y-24190214D01*
X9383928Y-24190214D01*
X9412500Y-24204500D01*
X9426786Y-24233071D01*
X9426786Y-24261643D01*
X9283928Y-24290214D01*
X9541071Y-24375929D02*
X9569643Y-24390214D01*
X9626786Y-24390214D01*
X9655357Y-24375929D01*
X9669643Y-24347357D01*
X9669643Y-24333071D01*
X9655357Y-24304500D01*
X9626786Y-24290214D01*
X9583928Y-24290214D01*
X9555357Y-24275929D01*
X9541071Y-24247357D01*
X9541071Y-24233071D01*
X9555357Y-24204500D01*
X9583928Y-24190214D01*
X9626786Y-24190214D01*
X9655357Y-24204500D01*
X9769643Y-24504500D02*
X9783928Y-24490214D01*
X9812500Y-24447357D01*
X9826786Y-24418786D01*
X9841071Y-24375929D01*
X9855357Y-24304500D01*
X9855357Y-24247357D01*
X9841071Y-24175929D01*
X9826786Y-24133071D01*
X9812500Y-24104500D01*
X9783928Y-24061643D01*
X9769643Y-24047357D01*
X2982270Y-24687270D02*
X2982270Y-24613730D01*
X2908730Y-24613730D01*
X2908730Y-24687270D01*
X2982270Y-24687270D01*
X3441071Y-24786214D02*
X3269643Y-24786214D01*
X3355357Y-24786214D02*
X3355357Y-24486214D01*
X3326786Y-24529071D01*
X3298214Y-24557643D01*
X3269643Y-24571929D01*
X3569643Y-24757643D02*
X3583928Y-24771929D01*
X3569643Y-24786214D01*
X3555357Y-24771929D01*
X3569643Y-24757643D01*
X3569643Y-24786214D01*
X3769643Y-24486214D02*
X3798214Y-24486214D01*
X3826786Y-24500500D01*
X3841071Y-24514786D01*
X3855357Y-24543357D01*
X3869643Y-24600500D01*
X3869643Y-24671929D01*
X3855357Y-24729071D01*
X3841071Y-24757643D01*
X3826786Y-24771929D01*
X3798214Y-24786214D01*
X3769643Y-24786214D01*
X3741071Y-24771929D01*
X3726786Y-24757643D01*
X3712500Y-24729071D01*
X3698214Y-24671929D01*
X3698214Y-24600500D01*
X3712500Y-24543357D01*
X3726786Y-24514786D01*
X3741071Y-24500500D01*
X3769643Y-24486214D01*
X4126786Y-24586214D02*
X4126786Y-24786214D01*
X4055357Y-24471929D02*
X3983928Y-24686214D01*
X4169643Y-24686214D01*
X4283928Y-24786214D02*
X4283928Y-24586214D01*
X4283928Y-24614786D02*
X4298214Y-24600500D01*
X4326786Y-24586214D01*
X4369643Y-24586214D01*
X4398214Y-24600500D01*
X4412500Y-24629071D01*
X4412500Y-24786214D01*
X4412500Y-24629071D02*
X4426786Y-24600500D01*
X4455357Y-24586214D01*
X4498214Y-24586214D01*
X4526786Y-24600500D01*
X4541071Y-24629071D01*
X4541071Y-24786214D01*
X4683928Y-24786214D02*
X4683928Y-24586214D01*
X4683928Y-24614786D02*
X4698214Y-24600500D01*
X4726786Y-24586214D01*
X4769643Y-24586214D01*
X4798214Y-24600500D01*
X4812500Y-24629071D01*
X4812500Y-24786214D01*
X4812500Y-24629071D02*
X4826786Y-24600500D01*
X4855357Y-24586214D01*
X4898214Y-24586214D01*
X4926786Y-24600500D01*
X4941071Y-24629071D01*
X4941071Y-24786214D01*
X5526786Y-24471929D02*
X5269643Y-24857643D01*
X5912500Y-24486214D02*
X5941071Y-24486214D01*
X5969643Y-24500500D01*
X5983928Y-24514786D01*
X5998214Y-24543357D01*
X6012500Y-24600500D01*
X6012500Y-24671929D01*
X5998214Y-24729071D01*
X5983928Y-24757643D01*
X5969643Y-24771929D01*
X5941071Y-24786214D01*
X5912500Y-24786214D01*
X5883928Y-24771929D01*
X5869643Y-24757643D01*
X5855357Y-24729071D01*
X5841071Y-24671929D01*
X5841071Y-24600500D01*
X5855357Y-24543357D01*
X5869643Y-24514786D01*
X5883928Y-24500500D01*
X5912500Y-24486214D01*
X6141071Y-24757643D02*
X6155357Y-24771929D01*
X6141071Y-24786214D01*
X6126786Y-24771929D01*
X6141071Y-24757643D01*
X6141071Y-24786214D01*
X6341071Y-24486214D02*
X6369643Y-24486214D01*
X6398214Y-24500500D01*
X6412500Y-24514786D01*
X6426786Y-24543357D01*
X6441071Y-24600500D01*
X6441071Y-24671929D01*
X6426786Y-24729071D01*
X6412500Y-24757643D01*
X6398214Y-24771929D01*
X6369643Y-24786214D01*
X6341071Y-24786214D01*
X6312500Y-24771929D01*
X6298214Y-24757643D01*
X6283928Y-24729071D01*
X6269643Y-24671929D01*
X6269643Y-24600500D01*
X6283928Y-24543357D01*
X6298214Y-24514786D01*
X6312500Y-24500500D01*
X6341071Y-24486214D01*
X6698214Y-24586214D02*
X6698214Y-24786214D01*
X6626786Y-24471929D02*
X6555357Y-24686214D01*
X6741071Y-24686214D01*
X7012500Y-24786214D02*
X6841071Y-24786214D01*
X6926786Y-24786214D02*
X6926786Y-24486214D01*
X6898214Y-24529071D01*
X6869643Y-24557643D01*
X6841071Y-24571929D01*
X7126786Y-24486214D02*
X7126786Y-24543357D01*
X7241071Y-24486214D02*
X7241071Y-24543357D01*
X7683928Y-24900500D02*
X7669643Y-24886214D01*
X7641071Y-24843357D01*
X7626786Y-24814786D01*
X7612500Y-24771929D01*
X7598214Y-24700500D01*
X7598214Y-24643357D01*
X7612500Y-24571929D01*
X7626786Y-24529071D01*
X7641071Y-24500500D01*
X7669643Y-24457643D01*
X7683928Y-24443357D01*
X7769643Y-24486214D02*
X7955357Y-24486214D01*
X7855357Y-24600500D01*
X7898214Y-24600500D01*
X7926786Y-24614786D01*
X7941071Y-24629071D01*
X7955357Y-24657643D01*
X7955357Y-24729071D01*
X7941071Y-24757643D01*
X7926786Y-24771929D01*
X7898214Y-24786214D01*
X7812500Y-24786214D01*
X7783928Y-24771929D01*
X7769643Y-24757643D01*
X8126786Y-24614786D02*
X8098214Y-24600500D01*
X8083928Y-24586214D01*
X8069643Y-24557643D01*
X8069643Y-24543357D01*
X8083928Y-24514786D01*
X8098214Y-24500500D01*
X8126786Y-24486214D01*
X8183928Y-24486214D01*
X8212500Y-24500500D01*
X8226786Y-24514786D01*
X8241071Y-24543357D01*
X8241071Y-24557643D01*
X8226786Y-24586214D01*
X8212500Y-24600500D01*
X8183928Y-24614786D01*
X8126786Y-24614786D01*
X8098214Y-24629071D01*
X8083928Y-24643357D01*
X8069643Y-24671929D01*
X8069643Y-24729071D01*
X8083928Y-24757643D01*
X8098214Y-24771929D01*
X8126786Y-24786214D01*
X8183928Y-24786214D01*
X8212500Y-24771929D01*
X8226786Y-24757643D01*
X8241071Y-24729071D01*
X8241071Y-24671929D01*
X8226786Y-24643357D01*
X8212500Y-24629071D01*
X8183928Y-24614786D01*
X8598214Y-24786214D02*
X8598214Y-24486214D01*
X8726786Y-24786214D02*
X8726786Y-24629071D01*
X8712500Y-24600500D01*
X8683928Y-24586214D01*
X8641071Y-24586214D01*
X8612500Y-24600500D01*
X8598214Y-24614786D01*
X8912500Y-24786214D02*
X8883928Y-24771929D01*
X8869643Y-24757643D01*
X8855357Y-24729071D01*
X8855357Y-24643357D01*
X8869643Y-24614786D01*
X8883928Y-24600500D01*
X8912500Y-24586214D01*
X8955357Y-24586214D01*
X8983928Y-24600500D01*
X8998214Y-24614786D01*
X9012500Y-24643357D01*
X9012500Y-24729071D01*
X8998214Y-24757643D01*
X8983928Y-24771929D01*
X8955357Y-24786214D01*
X8912500Y-24786214D01*
X9183928Y-24786214D02*
X9155357Y-24771929D01*
X9141071Y-24743357D01*
X9141071Y-24486214D01*
X9412500Y-24771929D02*
X9383928Y-24786214D01*
X9326786Y-24786214D01*
X9298214Y-24771929D01*
X9283928Y-24743357D01*
X9283928Y-24629071D01*
X9298214Y-24600500D01*
X9326786Y-24586214D01*
X9383928Y-24586214D01*
X9412500Y-24600500D01*
X9426786Y-24629071D01*
X9426786Y-24657643D01*
X9283928Y-24686214D01*
X9541071Y-24771929D02*
X9569643Y-24786214D01*
X9626786Y-24786214D01*
X9655357Y-24771929D01*
X9669643Y-24743357D01*
X9669643Y-24729071D01*
X9655357Y-24700500D01*
X9626786Y-24686214D01*
X9583928Y-24686214D01*
X9555357Y-24671929D01*
X9541071Y-24643357D01*
X9541071Y-24629071D01*
X9555357Y-24600500D01*
X9583928Y-24586214D01*
X9626786Y-24586214D01*
X9655357Y-24600500D01*
X9769643Y-24900500D02*
X9783928Y-24886214D01*
X9812500Y-24843357D01*
X9826786Y-24814786D01*
X9841071Y-24771929D01*
X9855357Y-24700500D01*
X9855357Y-24643357D01*
X9841071Y-24571929D01*
X9826786Y-24529071D01*
X9812500Y-24500500D01*
X9783928Y-24457643D01*
X9769643Y-24443357D01*
X2942500Y-25101500D02*
X2997500Y-25046500D01*
X2942500Y-24991500D01*
X2887500Y-25046500D01*
X2942500Y-25101500D01*
X3441071Y-25182214D02*
X3269643Y-25182214D01*
X3355357Y-25182214D02*
X3355357Y-24882214D01*
X3326786Y-24925071D01*
X3298214Y-24953643D01*
X3269643Y-24967929D01*
X3569643Y-25153643D02*
X3583928Y-25167929D01*
X3569643Y-25182214D01*
X3555357Y-25167929D01*
X3569643Y-25153643D01*
X3569643Y-25182214D01*
X3869643Y-25182214D02*
X3698214Y-25182214D01*
X3783928Y-25182214D02*
X3783928Y-24882214D01*
X3755357Y-24925071D01*
X3726786Y-24953643D01*
X3698214Y-24967929D01*
X4055357Y-24882214D02*
X4083928Y-24882214D01*
X4112500Y-24896500D01*
X4126786Y-24910786D01*
X4141071Y-24939357D01*
X4155357Y-24996500D01*
X4155357Y-25067929D01*
X4141071Y-25125071D01*
X4126786Y-25153643D01*
X4112500Y-25167929D01*
X4083928Y-25182214D01*
X4055357Y-25182214D01*
X4026786Y-25167929D01*
X4012500Y-25153643D01*
X3998214Y-25125071D01*
X3983928Y-25067929D01*
X3983928Y-24996500D01*
X3998214Y-24939357D01*
X4012500Y-24910786D01*
X4026786Y-24896500D01*
X4055357Y-24882214D01*
X4283928Y-25182214D02*
X4283928Y-24982214D01*
X4283928Y-25010786D02*
X4298214Y-24996500D01*
X4326786Y-24982214D01*
X4369643Y-24982214D01*
X4398214Y-24996500D01*
X4412500Y-25025071D01*
X4412500Y-25182214D01*
X4412500Y-25025071D02*
X4426786Y-24996500D01*
X4455357Y-24982214D01*
X4498214Y-24982214D01*
X4526786Y-24996500D01*
X4541071Y-25025071D01*
X4541071Y-25182214D01*
X4683928Y-25182214D02*
X4683928Y-24982214D01*
X4683928Y-25010786D02*
X4698214Y-24996500D01*
X4726786Y-24982214D01*
X4769643Y-24982214D01*
X4798214Y-24996500D01*
X4812500Y-25025071D01*
X4812500Y-25182214D01*
X4812500Y-25025071D02*
X4826786Y-24996500D01*
X4855357Y-24982214D01*
X4898214Y-24982214D01*
X4926786Y-24996500D01*
X4941071Y-25025071D01*
X4941071Y-25182214D01*
X5526786Y-24867929D02*
X5269643Y-25253643D01*
X5912500Y-24882214D02*
X5941071Y-24882214D01*
X5969643Y-24896500D01*
X5983928Y-24910786D01*
X5998214Y-24939357D01*
X6012500Y-24996500D01*
X6012500Y-25067929D01*
X5998214Y-25125071D01*
X5983928Y-25153643D01*
X5969643Y-25167929D01*
X5941071Y-25182214D01*
X5912500Y-25182214D01*
X5883928Y-25167929D01*
X5869643Y-25153643D01*
X5855357Y-25125071D01*
X5841071Y-25067929D01*
X5841071Y-24996500D01*
X5855357Y-24939357D01*
X5869643Y-24910786D01*
X5883928Y-24896500D01*
X5912500Y-24882214D01*
X6141071Y-25153643D02*
X6155357Y-25167929D01*
X6141071Y-25182214D01*
X6126786Y-25167929D01*
X6141071Y-25153643D01*
X6141071Y-25182214D01*
X6341071Y-24882214D02*
X6369643Y-24882214D01*
X6398214Y-24896500D01*
X6412500Y-24910786D01*
X6426786Y-24939357D01*
X6441071Y-24996500D01*
X6441071Y-25067929D01*
X6426786Y-25125071D01*
X6412500Y-25153643D01*
X6398214Y-25167929D01*
X6369643Y-25182214D01*
X6341071Y-25182214D01*
X6312500Y-25167929D01*
X6298214Y-25153643D01*
X6283928Y-25125071D01*
X6269643Y-25067929D01*
X6269643Y-24996500D01*
X6283928Y-24939357D01*
X6298214Y-24910786D01*
X6312500Y-24896500D01*
X6341071Y-24882214D01*
X6698214Y-24982214D02*
X6698214Y-25182214D01*
X6626786Y-24867929D02*
X6555357Y-25082214D01*
X6741071Y-25082214D01*
X6826786Y-24882214D02*
X7012500Y-24882214D01*
X6912500Y-24996500D01*
X6955357Y-24996500D01*
X6983928Y-25010786D01*
X6998214Y-25025071D01*
X7012500Y-25053643D01*
X7012500Y-25125071D01*
X6998214Y-25153643D01*
X6983928Y-25167929D01*
X6955357Y-25182214D01*
X6869643Y-25182214D01*
X6841071Y-25167929D01*
X6826786Y-25153643D01*
X7126786Y-24882214D02*
X7126786Y-24939357D01*
X7241071Y-24882214D02*
X7241071Y-24939357D01*
X7683928Y-25296500D02*
X7669643Y-25282214D01*
X7641071Y-25239357D01*
X7626786Y-25210786D01*
X7612500Y-25167929D01*
X7598214Y-25096500D01*
X7598214Y-25039357D01*
X7612500Y-24967929D01*
X7626786Y-24925071D01*
X7641071Y-24896500D01*
X7669643Y-24853643D01*
X7683928Y-24839357D01*
X7812500Y-25182214D02*
X7869643Y-25182214D01*
X7898214Y-25167929D01*
X7912500Y-25153643D01*
X7941071Y-25110786D01*
X7955357Y-25053643D01*
X7955357Y-24939357D01*
X7941071Y-24910786D01*
X7926786Y-24896500D01*
X7898214Y-24882214D01*
X7841071Y-24882214D01*
X7812500Y-24896500D01*
X7798214Y-24910786D01*
X7783928Y-24939357D01*
X7783928Y-25010786D01*
X7798214Y-25039357D01*
X7812500Y-25053643D01*
X7841071Y-25067929D01*
X7898214Y-25067929D01*
X7926786Y-25053643D01*
X7941071Y-25039357D01*
X7955357Y-25010786D01*
X8212500Y-24882214D02*
X8155357Y-24882214D01*
X8126786Y-24896500D01*
X8112500Y-24910786D01*
X8083928Y-24953643D01*
X8069643Y-25010786D01*
X8069643Y-25125071D01*
X8083928Y-25153643D01*
X8098214Y-25167929D01*
X8126786Y-25182214D01*
X8183928Y-25182214D01*
X8212500Y-25167929D01*
X8226786Y-25153643D01*
X8241071Y-25125071D01*
X8241071Y-25053643D01*
X8226786Y-25025071D01*
X8212500Y-25010786D01*
X8183928Y-24996500D01*
X8126786Y-24996500D01*
X8098214Y-25010786D01*
X8083928Y-25025071D01*
X8069643Y-25053643D01*
X8598214Y-25182214D02*
X8598214Y-24882214D01*
X8726786Y-25182214D02*
X8726786Y-25025071D01*
X8712500Y-24996500D01*
X8683928Y-24982214D01*
X8641071Y-24982214D01*
X8612500Y-24996500D01*
X8598214Y-25010786D01*
X8912500Y-25182214D02*
X8883928Y-25167929D01*
X8869643Y-25153643D01*
X8855357Y-25125071D01*
X8855357Y-25039357D01*
X8869643Y-25010786D01*
X8883928Y-24996500D01*
X8912500Y-24982214D01*
X8955357Y-24982214D01*
X8983928Y-24996500D01*
X8998214Y-25010786D01*
X9012500Y-25039357D01*
X9012500Y-25125071D01*
X8998214Y-25153643D01*
X8983928Y-25167929D01*
X8955357Y-25182214D01*
X8912500Y-25182214D01*
X9183928Y-25182214D02*
X9155357Y-25167929D01*
X9141071Y-25139357D01*
X9141071Y-24882214D01*
X9412500Y-25167929D02*
X9383928Y-25182214D01*
X9326786Y-25182214D01*
X9298214Y-25167929D01*
X9283928Y-25139357D01*
X9283928Y-25025071D01*
X9298214Y-24996500D01*
X9326786Y-24982214D01*
X9383928Y-24982214D01*
X9412500Y-24996500D01*
X9426786Y-25025071D01*
X9426786Y-25053643D01*
X9283928Y-25082214D01*
X9541071Y-25167929D02*
X9569643Y-25182214D01*
X9626786Y-25182214D01*
X9655357Y-25167929D01*
X9669643Y-25139357D01*
X9669643Y-25125071D01*
X9655357Y-25096500D01*
X9626786Y-25082214D01*
X9583928Y-25082214D01*
X9555357Y-25067929D01*
X9541071Y-25039357D01*
X9541071Y-25025071D01*
X9555357Y-24996500D01*
X9583928Y-24982214D01*
X9626786Y-24982214D01*
X9655357Y-24996500D01*
X9769643Y-25296500D02*
X9783928Y-25282214D01*
X9812500Y-25239357D01*
X9826786Y-25210786D01*
X9841071Y-25167929D01*
X9855357Y-25096500D01*
X9855357Y-25039357D01*
X9841071Y-24967929D01*
X9826786Y-24925071D01*
X9812500Y-24896500D01*
X9783928Y-24853643D01*
X9769643Y-24839357D01*
X2857500Y-25372500D02*
X2997500Y-25512500D01*
X2997500Y-25372500D02*
X2857500Y-25512500D01*
X2997500Y-25442500D02*
G75*
G03*
X2997500Y-25442500I-70000J0D01*
G01*
X3441071Y-25578214D02*
X3269643Y-25578214D01*
X3355357Y-25578214D02*
X3355357Y-25278214D01*
X3326786Y-25321071D01*
X3298214Y-25349643D01*
X3269643Y-25363929D01*
X3569643Y-25549643D02*
X3583928Y-25563929D01*
X3569643Y-25578214D01*
X3555357Y-25563929D01*
X3569643Y-25549643D01*
X3569643Y-25578214D01*
X3841071Y-25378214D02*
X3841071Y-25578214D01*
X3769643Y-25263929D02*
X3698214Y-25478214D01*
X3883928Y-25478214D01*
X4055357Y-25278214D02*
X4083928Y-25278214D01*
X4112500Y-25292500D01*
X4126786Y-25306786D01*
X4141071Y-25335357D01*
X4155357Y-25392500D01*
X4155357Y-25463929D01*
X4141071Y-25521071D01*
X4126786Y-25549643D01*
X4112500Y-25563929D01*
X4083928Y-25578214D01*
X4055357Y-25578214D01*
X4026786Y-25563929D01*
X4012500Y-25549643D01*
X3998214Y-25521071D01*
X3983928Y-25463929D01*
X3983928Y-25392500D01*
X3998214Y-25335357D01*
X4012500Y-25306786D01*
X4026786Y-25292500D01*
X4055357Y-25278214D01*
X4283928Y-25578214D02*
X4283928Y-25378214D01*
X4283928Y-25406786D02*
X4298214Y-25392500D01*
X4326786Y-25378214D01*
X4369643Y-25378214D01*
X4398214Y-25392500D01*
X4412500Y-25421071D01*
X4412500Y-25578214D01*
X4412500Y-25421071D02*
X4426786Y-25392500D01*
X4455357Y-25378214D01*
X4498214Y-25378214D01*
X4526786Y-25392500D01*
X4541071Y-25421071D01*
X4541071Y-25578214D01*
X4683928Y-25578214D02*
X4683928Y-25378214D01*
X4683928Y-25406786D02*
X4698214Y-25392500D01*
X4726786Y-25378214D01*
X4769643Y-25378214D01*
X4798214Y-25392500D01*
X4812500Y-25421071D01*
X4812500Y-25578214D01*
X4812500Y-25421071D02*
X4826786Y-25392500D01*
X4855357Y-25378214D01*
X4898214Y-25378214D01*
X4926786Y-25392500D01*
X4941071Y-25421071D01*
X4941071Y-25578214D01*
X5526786Y-25263929D02*
X5269643Y-25649643D01*
X5912500Y-25278214D02*
X5941071Y-25278214D01*
X5969643Y-25292500D01*
X5983928Y-25306786D01*
X5998214Y-25335357D01*
X6012500Y-25392500D01*
X6012500Y-25463929D01*
X5998214Y-25521071D01*
X5983928Y-25549643D01*
X5969643Y-25563929D01*
X5941071Y-25578214D01*
X5912500Y-25578214D01*
X5883928Y-25563929D01*
X5869643Y-25549643D01*
X5855357Y-25521071D01*
X5841071Y-25463929D01*
X5841071Y-25392500D01*
X5855357Y-25335357D01*
X5869643Y-25306786D01*
X5883928Y-25292500D01*
X5912500Y-25278214D01*
X6141071Y-25549643D02*
X6155357Y-25563929D01*
X6141071Y-25578214D01*
X6126786Y-25563929D01*
X6141071Y-25549643D01*
X6141071Y-25578214D01*
X6341071Y-25278214D02*
X6369643Y-25278214D01*
X6398214Y-25292500D01*
X6412500Y-25306786D01*
X6426786Y-25335357D01*
X6441071Y-25392500D01*
X6441071Y-25463929D01*
X6426786Y-25521071D01*
X6412500Y-25549643D01*
X6398214Y-25563929D01*
X6369643Y-25578214D01*
X6341071Y-25578214D01*
X6312500Y-25563929D01*
X6298214Y-25549643D01*
X6283928Y-25521071D01*
X6269643Y-25463929D01*
X6269643Y-25392500D01*
X6283928Y-25335357D01*
X6298214Y-25306786D01*
X6312500Y-25292500D01*
X6341071Y-25278214D01*
X6712500Y-25278214D02*
X6569643Y-25278214D01*
X6555357Y-25421071D01*
X6569643Y-25406786D01*
X6598214Y-25392500D01*
X6669643Y-25392500D01*
X6698214Y-25406786D01*
X6712500Y-25421071D01*
X6726786Y-25449643D01*
X6726786Y-25521071D01*
X6712500Y-25549643D01*
X6698214Y-25563929D01*
X6669643Y-25578214D01*
X6598214Y-25578214D01*
X6569643Y-25563929D01*
X6555357Y-25549643D01*
X6998214Y-25278214D02*
X6855357Y-25278214D01*
X6841071Y-25421071D01*
X6855357Y-25406786D01*
X6883928Y-25392500D01*
X6955357Y-25392500D01*
X6983928Y-25406786D01*
X6998214Y-25421071D01*
X7012500Y-25449643D01*
X7012500Y-25521071D01*
X6998214Y-25549643D01*
X6983928Y-25563929D01*
X6955357Y-25578214D01*
X6883928Y-25578214D01*
X6855357Y-25563929D01*
X6841071Y-25549643D01*
X7126786Y-25278214D02*
X7126786Y-25335357D01*
X7241071Y-25278214D02*
X7241071Y-25335357D01*
X7683928Y-25692500D02*
X7669643Y-25678214D01*
X7641071Y-25635357D01*
X7626786Y-25606786D01*
X7612500Y-25563929D01*
X7598214Y-25492500D01*
X7598214Y-25435357D01*
X7612500Y-25363929D01*
X7626786Y-25321071D01*
X7641071Y-25292500D01*
X7669643Y-25249643D01*
X7683928Y-25235357D01*
X7769643Y-25278214D02*
X7955357Y-25278214D01*
X7855357Y-25392500D01*
X7898214Y-25392500D01*
X7926786Y-25406786D01*
X7941071Y-25421071D01*
X7955357Y-25449643D01*
X7955357Y-25521071D01*
X7941071Y-25549643D01*
X7926786Y-25563929D01*
X7898214Y-25578214D01*
X7812500Y-25578214D01*
X7783928Y-25563929D01*
X7769643Y-25549643D01*
X8312500Y-25578214D02*
X8312500Y-25278214D01*
X8441071Y-25578214D02*
X8441071Y-25421071D01*
X8426786Y-25392500D01*
X8398214Y-25378214D01*
X8355357Y-25378214D01*
X8326786Y-25392500D01*
X8312500Y-25406786D01*
X8626786Y-25578214D02*
X8598214Y-25563929D01*
X8583928Y-25549643D01*
X8569643Y-25521071D01*
X8569643Y-25435357D01*
X8583928Y-25406786D01*
X8598214Y-25392500D01*
X8626786Y-25378214D01*
X8669643Y-25378214D01*
X8698214Y-25392500D01*
X8712500Y-25406786D01*
X8726786Y-25435357D01*
X8726786Y-25521071D01*
X8712500Y-25549643D01*
X8698214Y-25563929D01*
X8669643Y-25578214D01*
X8626786Y-25578214D01*
X8898214Y-25578214D02*
X8869643Y-25563929D01*
X8855357Y-25535357D01*
X8855357Y-25278214D01*
X9126786Y-25563929D02*
X9098214Y-25578214D01*
X9041071Y-25578214D01*
X9012500Y-25563929D01*
X8998214Y-25535357D01*
X8998214Y-25421071D01*
X9012500Y-25392500D01*
X9041071Y-25378214D01*
X9098214Y-25378214D01*
X9126786Y-25392500D01*
X9141071Y-25421071D01*
X9141071Y-25449643D01*
X8998214Y-25478214D01*
X9255357Y-25563929D02*
X9283928Y-25578214D01*
X9341071Y-25578214D01*
X9369643Y-25563929D01*
X9383928Y-25535357D01*
X9383928Y-25521071D01*
X9369643Y-25492500D01*
X9341071Y-25478214D01*
X9298214Y-25478214D01*
X9269643Y-25463929D01*
X9255357Y-25435357D01*
X9255357Y-25421071D01*
X9269643Y-25392500D01*
X9298214Y-25378214D01*
X9341071Y-25378214D01*
X9369643Y-25392500D01*
X9483928Y-25692500D02*
X9498214Y-25678214D01*
X9526786Y-25635357D01*
X9541071Y-25606786D01*
X9555357Y-25563929D01*
X9569643Y-25492500D01*
X9569643Y-25435357D01*
X9555357Y-25363929D01*
X9541071Y-25321071D01*
X9526786Y-25292500D01*
X9498214Y-25249643D01*
X9483928Y-25235357D01*
X2837500Y-25758500D02*
X2997500Y-25918500D01*
X2997500Y-25758500D02*
X2837500Y-25918500D01*
X2917500Y-25758500D02*
X2917500Y-25918500D01*
X2837500Y-25838500D02*
X2997500Y-25838500D01*
X3441071Y-25974214D02*
X3269643Y-25974214D01*
X3355357Y-25974214D02*
X3355357Y-25674214D01*
X3326786Y-25717071D01*
X3298214Y-25745643D01*
X3269643Y-25759929D01*
X3569643Y-25945643D02*
X3583928Y-25959929D01*
X3569643Y-25974214D01*
X3555357Y-25959929D01*
X3569643Y-25945643D01*
X3569643Y-25974214D01*
X3841071Y-25674214D02*
X3783928Y-25674214D01*
X3755357Y-25688500D01*
X3741071Y-25702786D01*
X3712500Y-25745643D01*
X3698214Y-25802786D01*
X3698214Y-25917071D01*
X3712500Y-25945643D01*
X3726786Y-25959929D01*
X3755357Y-25974214D01*
X3812500Y-25974214D01*
X3841071Y-25959929D01*
X3855357Y-25945643D01*
X3869643Y-25917071D01*
X3869643Y-25845643D01*
X3855357Y-25817071D01*
X3841071Y-25802786D01*
X3812500Y-25788500D01*
X3755357Y-25788500D01*
X3726786Y-25802786D01*
X3712500Y-25817071D01*
X3698214Y-25845643D01*
X4055357Y-25674214D02*
X4083928Y-25674214D01*
X4112500Y-25688500D01*
X4126786Y-25702786D01*
X4141071Y-25731357D01*
X4155357Y-25788500D01*
X4155357Y-25859929D01*
X4141071Y-25917071D01*
X4126786Y-25945643D01*
X4112500Y-25959929D01*
X4083928Y-25974214D01*
X4055357Y-25974214D01*
X4026786Y-25959929D01*
X4012500Y-25945643D01*
X3998214Y-25917071D01*
X3983928Y-25859929D01*
X3983928Y-25788500D01*
X3998214Y-25731357D01*
X4012500Y-25702786D01*
X4026786Y-25688500D01*
X4055357Y-25674214D01*
X4283928Y-25974214D02*
X4283928Y-25774214D01*
X4283928Y-25802786D02*
X4298214Y-25788500D01*
X4326786Y-25774214D01*
X4369643Y-25774214D01*
X4398214Y-25788500D01*
X4412500Y-25817071D01*
X4412500Y-25974214D01*
X4412500Y-25817071D02*
X4426786Y-25788500D01*
X4455357Y-25774214D01*
X4498214Y-25774214D01*
X4526786Y-25788500D01*
X4541071Y-25817071D01*
X4541071Y-25974214D01*
X4683928Y-25974214D02*
X4683928Y-25774214D01*
X4683928Y-25802786D02*
X4698214Y-25788500D01*
X4726786Y-25774214D01*
X4769643Y-25774214D01*
X4798214Y-25788500D01*
X4812500Y-25817071D01*
X4812500Y-25974214D01*
X4812500Y-25817071D02*
X4826786Y-25788500D01*
X4855357Y-25774214D01*
X4898214Y-25774214D01*
X4926786Y-25788500D01*
X4941071Y-25817071D01*
X4941071Y-25974214D01*
X5526786Y-25659929D02*
X5269643Y-26045643D01*
X5912500Y-25674214D02*
X5941071Y-25674214D01*
X5969643Y-25688500D01*
X5983928Y-25702786D01*
X5998214Y-25731357D01*
X6012500Y-25788500D01*
X6012500Y-25859929D01*
X5998214Y-25917071D01*
X5983928Y-25945643D01*
X5969643Y-25959929D01*
X5941071Y-25974214D01*
X5912500Y-25974214D01*
X5883928Y-25959929D01*
X5869643Y-25945643D01*
X5855357Y-25917071D01*
X5841071Y-25859929D01*
X5841071Y-25788500D01*
X5855357Y-25731357D01*
X5869643Y-25702786D01*
X5883928Y-25688500D01*
X5912500Y-25674214D01*
X6141071Y-25945643D02*
X6155357Y-25959929D01*
X6141071Y-25974214D01*
X6126786Y-25959929D01*
X6141071Y-25945643D01*
X6141071Y-25974214D01*
X6341071Y-25674214D02*
X6369643Y-25674214D01*
X6398214Y-25688500D01*
X6412500Y-25702786D01*
X6426786Y-25731357D01*
X6441071Y-25788500D01*
X6441071Y-25859929D01*
X6426786Y-25917071D01*
X6412500Y-25945643D01*
X6398214Y-25959929D01*
X6369643Y-25974214D01*
X6341071Y-25974214D01*
X6312500Y-25959929D01*
X6298214Y-25945643D01*
X6283928Y-25917071D01*
X6269643Y-25859929D01*
X6269643Y-25788500D01*
X6283928Y-25731357D01*
X6298214Y-25702786D01*
X6312500Y-25688500D01*
X6341071Y-25674214D01*
X6698214Y-25674214D02*
X6641071Y-25674214D01*
X6612500Y-25688500D01*
X6598214Y-25702786D01*
X6569643Y-25745643D01*
X6555357Y-25802786D01*
X6555357Y-25917071D01*
X6569643Y-25945643D01*
X6583928Y-25959929D01*
X6612500Y-25974214D01*
X6669643Y-25974214D01*
X6698214Y-25959929D01*
X6712500Y-25945643D01*
X6726786Y-25917071D01*
X6726786Y-25845643D01*
X6712500Y-25817071D01*
X6698214Y-25802786D01*
X6669643Y-25788500D01*
X6612500Y-25788500D01*
X6583928Y-25802786D01*
X6569643Y-25817071D01*
X6555357Y-25845643D01*
X6826786Y-25674214D02*
X7012500Y-25674214D01*
X6912500Y-25788500D01*
X6955357Y-25788500D01*
X6983928Y-25802786D01*
X6998214Y-25817071D01*
X7012500Y-25845643D01*
X7012500Y-25917071D01*
X6998214Y-25945643D01*
X6983928Y-25959929D01*
X6955357Y-25974214D01*
X6869643Y-25974214D01*
X6841071Y-25959929D01*
X6826786Y-25945643D01*
X7126786Y-25674214D02*
X7126786Y-25731357D01*
X7241071Y-25674214D02*
X7241071Y-25731357D01*
X7683928Y-26088500D02*
X7669643Y-26074214D01*
X7641071Y-26031357D01*
X7626786Y-26002786D01*
X7612500Y-25959929D01*
X7598214Y-25888500D01*
X7598214Y-25831357D01*
X7612500Y-25759929D01*
X7626786Y-25717071D01*
X7641071Y-25688500D01*
X7669643Y-25645643D01*
X7683928Y-25631357D01*
X7955357Y-25974214D02*
X7783928Y-25974214D01*
X7869643Y-25974214D02*
X7869643Y-25674214D01*
X7841071Y-25717071D01*
X7812500Y-25745643D01*
X7783928Y-25759929D01*
X8069643Y-25702786D02*
X8083928Y-25688500D01*
X8112500Y-25674214D01*
X8183928Y-25674214D01*
X8212500Y-25688500D01*
X8226786Y-25702786D01*
X8241071Y-25731357D01*
X8241071Y-25759929D01*
X8226786Y-25802786D01*
X8055357Y-25974214D01*
X8241071Y-25974214D01*
X8598214Y-25974214D02*
X8598214Y-25674214D01*
X8726786Y-25974214D02*
X8726786Y-25817071D01*
X8712500Y-25788500D01*
X8683928Y-25774214D01*
X8641071Y-25774214D01*
X8612500Y-25788500D01*
X8598214Y-25802786D01*
X8912500Y-25974214D02*
X8883928Y-25959929D01*
X8869643Y-25945643D01*
X8855357Y-25917071D01*
X8855357Y-25831357D01*
X8869643Y-25802786D01*
X8883928Y-25788500D01*
X8912500Y-25774214D01*
X8955357Y-25774214D01*
X8983928Y-25788500D01*
X8998214Y-25802786D01*
X9012500Y-25831357D01*
X9012500Y-25917071D01*
X8998214Y-25945643D01*
X8983928Y-25959929D01*
X8955357Y-25974214D01*
X8912500Y-25974214D01*
X9183928Y-25974214D02*
X9155357Y-25959929D01*
X9141071Y-25931357D01*
X9141071Y-25674214D01*
X9412500Y-25959929D02*
X9383928Y-25974214D01*
X9326786Y-25974214D01*
X9298214Y-25959929D01*
X9283928Y-25931357D01*
X9283928Y-25817071D01*
X9298214Y-25788500D01*
X9326786Y-25774214D01*
X9383928Y-25774214D01*
X9412500Y-25788500D01*
X9426786Y-25817071D01*
X9426786Y-25845643D01*
X9283928Y-25874214D01*
X9541071Y-25959929D02*
X9569643Y-25974214D01*
X9626786Y-25974214D01*
X9655357Y-25959929D01*
X9669643Y-25931357D01*
X9669643Y-25917071D01*
X9655357Y-25888500D01*
X9626786Y-25874214D01*
X9583928Y-25874214D01*
X9555357Y-25859929D01*
X9541071Y-25831357D01*
X9541071Y-25817071D01*
X9555357Y-25788500D01*
X9583928Y-25774214D01*
X9626786Y-25774214D01*
X9655357Y-25788500D01*
X9769643Y-26088500D02*
X9783928Y-26074214D01*
X9812500Y-26031357D01*
X9826786Y-26002786D01*
X9841071Y-25959929D01*
X9855357Y-25888500D01*
X9855357Y-25831357D01*
X9841071Y-25759929D01*
X9826786Y-25717071D01*
X9812500Y-25688500D01*
X9783928Y-25645643D01*
X9769643Y-25631357D01*
M02*
