%TF.GenerationSoftware,KiCad,Pcbnew,(5.1.9-0-10_14)*%
%TF.CreationDate,2021-06-23T09:28:56+02:00*%
%TF.ProjectId,MechanicalTheatre,4d656368-616e-4696-9361-6c5468656174,rev?*%
%TF.SameCoordinates,Original*%
%TF.FileFunction,Paste,Bot*%
%TF.FilePolarity,Positive*%
%FSLAX46Y46*%
G04 Gerber Fmt 4.6, Leading zero omitted, Abs format (unit mm)*
G04 Created by KiCad (PCBNEW (5.1.9-0-10_14)) date 2021-06-23 09:28:56*
%MOMM*%
%LPD*%
G01*
G04 APERTURE LIST*
G04 APERTURE END LIST*
%TO.C,R18*%
G36*
G01*
X120158500Y-181546000D02*
X120633500Y-181546000D01*
G75*
G02*
X120871000Y-181783500I0J-237500D01*
G01*
X120871000Y-182283500D01*
G75*
G02*
X120633500Y-182521000I-237500J0D01*
G01*
X120158500Y-182521000D01*
G75*
G02*
X119921000Y-182283500I0J237500D01*
G01*
X119921000Y-181783500D01*
G75*
G02*
X120158500Y-181546000I237500J0D01*
G01*
G37*
G36*
G01*
X120158500Y-179721000D02*
X120633500Y-179721000D01*
G75*
G02*
X120871000Y-179958500I0J-237500D01*
G01*
X120871000Y-180458500D01*
G75*
G02*
X120633500Y-180696000I-237500J0D01*
G01*
X120158500Y-180696000D01*
G75*
G02*
X119921000Y-180458500I0J237500D01*
G01*
X119921000Y-179958500D01*
G75*
G02*
X120158500Y-179721000I237500J0D01*
G01*
G37*
%TD*%
%TO.C,R19*%
G36*
G01*
X121364500Y-177482000D02*
X121839500Y-177482000D01*
G75*
G02*
X122077000Y-177719500I0J-237500D01*
G01*
X122077000Y-178219500D01*
G75*
G02*
X121839500Y-178457000I-237500J0D01*
G01*
X121364500Y-178457000D01*
G75*
G02*
X121127000Y-178219500I0J237500D01*
G01*
X121127000Y-177719500D01*
G75*
G02*
X121364500Y-177482000I237500J0D01*
G01*
G37*
G36*
G01*
X121364500Y-175657000D02*
X121839500Y-175657000D01*
G75*
G02*
X122077000Y-175894500I0J-237500D01*
G01*
X122077000Y-176394500D01*
G75*
G02*
X121839500Y-176632000I-237500J0D01*
G01*
X121364500Y-176632000D01*
G75*
G02*
X121127000Y-176394500I0J237500D01*
G01*
X121127000Y-175894500D01*
G75*
G02*
X121364500Y-175657000I237500J0D01*
G01*
G37*
%TD*%
%TO.C,U14*%
G36*
G01*
X83130000Y-166141000D02*
X82830000Y-166141000D01*
G75*
G02*
X82680000Y-165991000I0J150000D01*
G01*
X82680000Y-164316000D01*
G75*
G02*
X82830000Y-164166000I150000J0D01*
G01*
X83130000Y-164166000D01*
G75*
G02*
X83280000Y-164316000I0J-150000D01*
G01*
X83280000Y-165991000D01*
G75*
G02*
X83130000Y-166141000I-150000J0D01*
G01*
G37*
G36*
G01*
X81860000Y-166141000D02*
X81560000Y-166141000D01*
G75*
G02*
X81410000Y-165991000I0J150000D01*
G01*
X81410000Y-164316000D01*
G75*
G02*
X81560000Y-164166000I150000J0D01*
G01*
X81860000Y-164166000D01*
G75*
G02*
X82010000Y-164316000I0J-150000D01*
G01*
X82010000Y-165991000D01*
G75*
G02*
X81860000Y-166141000I-150000J0D01*
G01*
G37*
G36*
G01*
X80590000Y-166141000D02*
X80290000Y-166141000D01*
G75*
G02*
X80140000Y-165991000I0J150000D01*
G01*
X80140000Y-164316000D01*
G75*
G02*
X80290000Y-164166000I150000J0D01*
G01*
X80590000Y-164166000D01*
G75*
G02*
X80740000Y-164316000I0J-150000D01*
G01*
X80740000Y-165991000D01*
G75*
G02*
X80590000Y-166141000I-150000J0D01*
G01*
G37*
G36*
G01*
X79320000Y-166141000D02*
X79020000Y-166141000D01*
G75*
G02*
X78870000Y-165991000I0J150000D01*
G01*
X78870000Y-164316000D01*
G75*
G02*
X79020000Y-164166000I150000J0D01*
G01*
X79320000Y-164166000D01*
G75*
G02*
X79470000Y-164316000I0J-150000D01*
G01*
X79470000Y-165991000D01*
G75*
G02*
X79320000Y-166141000I-150000J0D01*
G01*
G37*
G36*
G01*
X78050000Y-166141000D02*
X77750000Y-166141000D01*
G75*
G02*
X77600000Y-165991000I0J150000D01*
G01*
X77600000Y-164316000D01*
G75*
G02*
X77750000Y-164166000I150000J0D01*
G01*
X78050000Y-164166000D01*
G75*
G02*
X78200000Y-164316000I0J-150000D01*
G01*
X78200000Y-165991000D01*
G75*
G02*
X78050000Y-166141000I-150000J0D01*
G01*
G37*
G36*
G01*
X76780000Y-166141000D02*
X76480000Y-166141000D01*
G75*
G02*
X76330000Y-165991000I0J150000D01*
G01*
X76330000Y-164316000D01*
G75*
G02*
X76480000Y-164166000I150000J0D01*
G01*
X76780000Y-164166000D01*
G75*
G02*
X76930000Y-164316000I0J-150000D01*
G01*
X76930000Y-165991000D01*
G75*
G02*
X76780000Y-166141000I-150000J0D01*
G01*
G37*
G36*
G01*
X75510000Y-166141000D02*
X75210000Y-166141000D01*
G75*
G02*
X75060000Y-165991000I0J150000D01*
G01*
X75060000Y-164316000D01*
G75*
G02*
X75210000Y-164166000I150000J0D01*
G01*
X75510000Y-164166000D01*
G75*
G02*
X75660000Y-164316000I0J-150000D01*
G01*
X75660000Y-165991000D01*
G75*
G02*
X75510000Y-166141000I-150000J0D01*
G01*
G37*
G36*
G01*
X75510000Y-173066000D02*
X75210000Y-173066000D01*
G75*
G02*
X75060000Y-172916000I0J150000D01*
G01*
X75060000Y-171241000D01*
G75*
G02*
X75210000Y-171091000I150000J0D01*
G01*
X75510000Y-171091000D01*
G75*
G02*
X75660000Y-171241000I0J-150000D01*
G01*
X75660000Y-172916000D01*
G75*
G02*
X75510000Y-173066000I-150000J0D01*
G01*
G37*
G36*
G01*
X76780000Y-173066000D02*
X76480000Y-173066000D01*
G75*
G02*
X76330000Y-172916000I0J150000D01*
G01*
X76330000Y-171241000D01*
G75*
G02*
X76480000Y-171091000I150000J0D01*
G01*
X76780000Y-171091000D01*
G75*
G02*
X76930000Y-171241000I0J-150000D01*
G01*
X76930000Y-172916000D01*
G75*
G02*
X76780000Y-173066000I-150000J0D01*
G01*
G37*
G36*
G01*
X78050000Y-173066000D02*
X77750000Y-173066000D01*
G75*
G02*
X77600000Y-172916000I0J150000D01*
G01*
X77600000Y-171241000D01*
G75*
G02*
X77750000Y-171091000I150000J0D01*
G01*
X78050000Y-171091000D01*
G75*
G02*
X78200000Y-171241000I0J-150000D01*
G01*
X78200000Y-172916000D01*
G75*
G02*
X78050000Y-173066000I-150000J0D01*
G01*
G37*
G36*
G01*
X79320000Y-173066000D02*
X79020000Y-173066000D01*
G75*
G02*
X78870000Y-172916000I0J150000D01*
G01*
X78870000Y-171241000D01*
G75*
G02*
X79020000Y-171091000I150000J0D01*
G01*
X79320000Y-171091000D01*
G75*
G02*
X79470000Y-171241000I0J-150000D01*
G01*
X79470000Y-172916000D01*
G75*
G02*
X79320000Y-173066000I-150000J0D01*
G01*
G37*
G36*
G01*
X80590000Y-173066000D02*
X80290000Y-173066000D01*
G75*
G02*
X80140000Y-172916000I0J150000D01*
G01*
X80140000Y-171241000D01*
G75*
G02*
X80290000Y-171091000I150000J0D01*
G01*
X80590000Y-171091000D01*
G75*
G02*
X80740000Y-171241000I0J-150000D01*
G01*
X80740000Y-172916000D01*
G75*
G02*
X80590000Y-173066000I-150000J0D01*
G01*
G37*
G36*
G01*
X81860000Y-173066000D02*
X81560000Y-173066000D01*
G75*
G02*
X81410000Y-172916000I0J150000D01*
G01*
X81410000Y-171241000D01*
G75*
G02*
X81560000Y-171091000I150000J0D01*
G01*
X81860000Y-171091000D01*
G75*
G02*
X82010000Y-171241000I0J-150000D01*
G01*
X82010000Y-172916000D01*
G75*
G02*
X81860000Y-173066000I-150000J0D01*
G01*
G37*
G36*
G01*
X83130000Y-173066000D02*
X82830000Y-173066000D01*
G75*
G02*
X82680000Y-172916000I0J150000D01*
G01*
X82680000Y-171241000D01*
G75*
G02*
X82830000Y-171091000I150000J0D01*
G01*
X83130000Y-171091000D01*
G75*
G02*
X83280000Y-171241000I0J-150000D01*
G01*
X83280000Y-172916000D01*
G75*
G02*
X83130000Y-173066000I-150000J0D01*
G01*
G37*
%TD*%
%TO.C,U10*%
G36*
G01*
X104456000Y-166141000D02*
X104156000Y-166141000D01*
G75*
G02*
X104006000Y-165991000I0J150000D01*
G01*
X104006000Y-164316000D01*
G75*
G02*
X104156000Y-164166000I150000J0D01*
G01*
X104456000Y-164166000D01*
G75*
G02*
X104606000Y-164316000I0J-150000D01*
G01*
X104606000Y-165991000D01*
G75*
G02*
X104456000Y-166141000I-150000J0D01*
G01*
G37*
G36*
G01*
X103186000Y-166141000D02*
X102886000Y-166141000D01*
G75*
G02*
X102736000Y-165991000I0J150000D01*
G01*
X102736000Y-164316000D01*
G75*
G02*
X102886000Y-164166000I150000J0D01*
G01*
X103186000Y-164166000D01*
G75*
G02*
X103336000Y-164316000I0J-150000D01*
G01*
X103336000Y-165991000D01*
G75*
G02*
X103186000Y-166141000I-150000J0D01*
G01*
G37*
G36*
G01*
X101916000Y-166141000D02*
X101616000Y-166141000D01*
G75*
G02*
X101466000Y-165991000I0J150000D01*
G01*
X101466000Y-164316000D01*
G75*
G02*
X101616000Y-164166000I150000J0D01*
G01*
X101916000Y-164166000D01*
G75*
G02*
X102066000Y-164316000I0J-150000D01*
G01*
X102066000Y-165991000D01*
G75*
G02*
X101916000Y-166141000I-150000J0D01*
G01*
G37*
G36*
G01*
X100646000Y-166141000D02*
X100346000Y-166141000D01*
G75*
G02*
X100196000Y-165991000I0J150000D01*
G01*
X100196000Y-164316000D01*
G75*
G02*
X100346000Y-164166000I150000J0D01*
G01*
X100646000Y-164166000D01*
G75*
G02*
X100796000Y-164316000I0J-150000D01*
G01*
X100796000Y-165991000D01*
G75*
G02*
X100646000Y-166141000I-150000J0D01*
G01*
G37*
G36*
G01*
X99376000Y-166141000D02*
X99076000Y-166141000D01*
G75*
G02*
X98926000Y-165991000I0J150000D01*
G01*
X98926000Y-164316000D01*
G75*
G02*
X99076000Y-164166000I150000J0D01*
G01*
X99376000Y-164166000D01*
G75*
G02*
X99526000Y-164316000I0J-150000D01*
G01*
X99526000Y-165991000D01*
G75*
G02*
X99376000Y-166141000I-150000J0D01*
G01*
G37*
G36*
G01*
X98106000Y-166141000D02*
X97806000Y-166141000D01*
G75*
G02*
X97656000Y-165991000I0J150000D01*
G01*
X97656000Y-164316000D01*
G75*
G02*
X97806000Y-164166000I150000J0D01*
G01*
X98106000Y-164166000D01*
G75*
G02*
X98256000Y-164316000I0J-150000D01*
G01*
X98256000Y-165991000D01*
G75*
G02*
X98106000Y-166141000I-150000J0D01*
G01*
G37*
G36*
G01*
X96836000Y-166141000D02*
X96536000Y-166141000D01*
G75*
G02*
X96386000Y-165991000I0J150000D01*
G01*
X96386000Y-164316000D01*
G75*
G02*
X96536000Y-164166000I150000J0D01*
G01*
X96836000Y-164166000D01*
G75*
G02*
X96986000Y-164316000I0J-150000D01*
G01*
X96986000Y-165991000D01*
G75*
G02*
X96836000Y-166141000I-150000J0D01*
G01*
G37*
G36*
G01*
X96836000Y-173066000D02*
X96536000Y-173066000D01*
G75*
G02*
X96386000Y-172916000I0J150000D01*
G01*
X96386000Y-171241000D01*
G75*
G02*
X96536000Y-171091000I150000J0D01*
G01*
X96836000Y-171091000D01*
G75*
G02*
X96986000Y-171241000I0J-150000D01*
G01*
X96986000Y-172916000D01*
G75*
G02*
X96836000Y-173066000I-150000J0D01*
G01*
G37*
G36*
G01*
X98106000Y-173066000D02*
X97806000Y-173066000D01*
G75*
G02*
X97656000Y-172916000I0J150000D01*
G01*
X97656000Y-171241000D01*
G75*
G02*
X97806000Y-171091000I150000J0D01*
G01*
X98106000Y-171091000D01*
G75*
G02*
X98256000Y-171241000I0J-150000D01*
G01*
X98256000Y-172916000D01*
G75*
G02*
X98106000Y-173066000I-150000J0D01*
G01*
G37*
G36*
G01*
X99376000Y-173066000D02*
X99076000Y-173066000D01*
G75*
G02*
X98926000Y-172916000I0J150000D01*
G01*
X98926000Y-171241000D01*
G75*
G02*
X99076000Y-171091000I150000J0D01*
G01*
X99376000Y-171091000D01*
G75*
G02*
X99526000Y-171241000I0J-150000D01*
G01*
X99526000Y-172916000D01*
G75*
G02*
X99376000Y-173066000I-150000J0D01*
G01*
G37*
G36*
G01*
X100646000Y-173066000D02*
X100346000Y-173066000D01*
G75*
G02*
X100196000Y-172916000I0J150000D01*
G01*
X100196000Y-171241000D01*
G75*
G02*
X100346000Y-171091000I150000J0D01*
G01*
X100646000Y-171091000D01*
G75*
G02*
X100796000Y-171241000I0J-150000D01*
G01*
X100796000Y-172916000D01*
G75*
G02*
X100646000Y-173066000I-150000J0D01*
G01*
G37*
G36*
G01*
X101916000Y-173066000D02*
X101616000Y-173066000D01*
G75*
G02*
X101466000Y-172916000I0J150000D01*
G01*
X101466000Y-171241000D01*
G75*
G02*
X101616000Y-171091000I150000J0D01*
G01*
X101916000Y-171091000D01*
G75*
G02*
X102066000Y-171241000I0J-150000D01*
G01*
X102066000Y-172916000D01*
G75*
G02*
X101916000Y-173066000I-150000J0D01*
G01*
G37*
G36*
G01*
X103186000Y-173066000D02*
X102886000Y-173066000D01*
G75*
G02*
X102736000Y-172916000I0J150000D01*
G01*
X102736000Y-171241000D01*
G75*
G02*
X102886000Y-171091000I150000J0D01*
G01*
X103186000Y-171091000D01*
G75*
G02*
X103336000Y-171241000I0J-150000D01*
G01*
X103336000Y-172916000D01*
G75*
G02*
X103186000Y-173066000I-150000J0D01*
G01*
G37*
G36*
G01*
X104456000Y-173066000D02*
X104156000Y-173066000D01*
G75*
G02*
X104006000Y-172916000I0J150000D01*
G01*
X104006000Y-171241000D01*
G75*
G02*
X104156000Y-171091000I150000J0D01*
G01*
X104456000Y-171091000D01*
G75*
G02*
X104606000Y-171241000I0J-150000D01*
G01*
X104606000Y-172916000D01*
G75*
G02*
X104456000Y-173066000I-150000J0D01*
G01*
G37*
%TD*%
%TO.C,U6*%
G36*
G01*
X125781000Y-166141000D02*
X125481000Y-166141000D01*
G75*
G02*
X125331000Y-165991000I0J150000D01*
G01*
X125331000Y-164316000D01*
G75*
G02*
X125481000Y-164166000I150000J0D01*
G01*
X125781000Y-164166000D01*
G75*
G02*
X125931000Y-164316000I0J-150000D01*
G01*
X125931000Y-165991000D01*
G75*
G02*
X125781000Y-166141000I-150000J0D01*
G01*
G37*
G36*
G01*
X124511000Y-166141000D02*
X124211000Y-166141000D01*
G75*
G02*
X124061000Y-165991000I0J150000D01*
G01*
X124061000Y-164316000D01*
G75*
G02*
X124211000Y-164166000I150000J0D01*
G01*
X124511000Y-164166000D01*
G75*
G02*
X124661000Y-164316000I0J-150000D01*
G01*
X124661000Y-165991000D01*
G75*
G02*
X124511000Y-166141000I-150000J0D01*
G01*
G37*
G36*
G01*
X123241000Y-166141000D02*
X122941000Y-166141000D01*
G75*
G02*
X122791000Y-165991000I0J150000D01*
G01*
X122791000Y-164316000D01*
G75*
G02*
X122941000Y-164166000I150000J0D01*
G01*
X123241000Y-164166000D01*
G75*
G02*
X123391000Y-164316000I0J-150000D01*
G01*
X123391000Y-165991000D01*
G75*
G02*
X123241000Y-166141000I-150000J0D01*
G01*
G37*
G36*
G01*
X121971000Y-166141000D02*
X121671000Y-166141000D01*
G75*
G02*
X121521000Y-165991000I0J150000D01*
G01*
X121521000Y-164316000D01*
G75*
G02*
X121671000Y-164166000I150000J0D01*
G01*
X121971000Y-164166000D01*
G75*
G02*
X122121000Y-164316000I0J-150000D01*
G01*
X122121000Y-165991000D01*
G75*
G02*
X121971000Y-166141000I-150000J0D01*
G01*
G37*
G36*
G01*
X120701000Y-166141000D02*
X120401000Y-166141000D01*
G75*
G02*
X120251000Y-165991000I0J150000D01*
G01*
X120251000Y-164316000D01*
G75*
G02*
X120401000Y-164166000I150000J0D01*
G01*
X120701000Y-164166000D01*
G75*
G02*
X120851000Y-164316000I0J-150000D01*
G01*
X120851000Y-165991000D01*
G75*
G02*
X120701000Y-166141000I-150000J0D01*
G01*
G37*
G36*
G01*
X119431000Y-166141000D02*
X119131000Y-166141000D01*
G75*
G02*
X118981000Y-165991000I0J150000D01*
G01*
X118981000Y-164316000D01*
G75*
G02*
X119131000Y-164166000I150000J0D01*
G01*
X119431000Y-164166000D01*
G75*
G02*
X119581000Y-164316000I0J-150000D01*
G01*
X119581000Y-165991000D01*
G75*
G02*
X119431000Y-166141000I-150000J0D01*
G01*
G37*
G36*
G01*
X118161000Y-166141000D02*
X117861000Y-166141000D01*
G75*
G02*
X117711000Y-165991000I0J150000D01*
G01*
X117711000Y-164316000D01*
G75*
G02*
X117861000Y-164166000I150000J0D01*
G01*
X118161000Y-164166000D01*
G75*
G02*
X118311000Y-164316000I0J-150000D01*
G01*
X118311000Y-165991000D01*
G75*
G02*
X118161000Y-166141000I-150000J0D01*
G01*
G37*
G36*
G01*
X118161000Y-173066000D02*
X117861000Y-173066000D01*
G75*
G02*
X117711000Y-172916000I0J150000D01*
G01*
X117711000Y-171241000D01*
G75*
G02*
X117861000Y-171091000I150000J0D01*
G01*
X118161000Y-171091000D01*
G75*
G02*
X118311000Y-171241000I0J-150000D01*
G01*
X118311000Y-172916000D01*
G75*
G02*
X118161000Y-173066000I-150000J0D01*
G01*
G37*
G36*
G01*
X119431000Y-173066000D02*
X119131000Y-173066000D01*
G75*
G02*
X118981000Y-172916000I0J150000D01*
G01*
X118981000Y-171241000D01*
G75*
G02*
X119131000Y-171091000I150000J0D01*
G01*
X119431000Y-171091000D01*
G75*
G02*
X119581000Y-171241000I0J-150000D01*
G01*
X119581000Y-172916000D01*
G75*
G02*
X119431000Y-173066000I-150000J0D01*
G01*
G37*
G36*
G01*
X120701000Y-173066000D02*
X120401000Y-173066000D01*
G75*
G02*
X120251000Y-172916000I0J150000D01*
G01*
X120251000Y-171241000D01*
G75*
G02*
X120401000Y-171091000I150000J0D01*
G01*
X120701000Y-171091000D01*
G75*
G02*
X120851000Y-171241000I0J-150000D01*
G01*
X120851000Y-172916000D01*
G75*
G02*
X120701000Y-173066000I-150000J0D01*
G01*
G37*
G36*
G01*
X121971000Y-173066000D02*
X121671000Y-173066000D01*
G75*
G02*
X121521000Y-172916000I0J150000D01*
G01*
X121521000Y-171241000D01*
G75*
G02*
X121671000Y-171091000I150000J0D01*
G01*
X121971000Y-171091000D01*
G75*
G02*
X122121000Y-171241000I0J-150000D01*
G01*
X122121000Y-172916000D01*
G75*
G02*
X121971000Y-173066000I-150000J0D01*
G01*
G37*
G36*
G01*
X123241000Y-173066000D02*
X122941000Y-173066000D01*
G75*
G02*
X122791000Y-172916000I0J150000D01*
G01*
X122791000Y-171241000D01*
G75*
G02*
X122941000Y-171091000I150000J0D01*
G01*
X123241000Y-171091000D01*
G75*
G02*
X123391000Y-171241000I0J-150000D01*
G01*
X123391000Y-172916000D01*
G75*
G02*
X123241000Y-173066000I-150000J0D01*
G01*
G37*
G36*
G01*
X124511000Y-173066000D02*
X124211000Y-173066000D01*
G75*
G02*
X124061000Y-172916000I0J150000D01*
G01*
X124061000Y-171241000D01*
G75*
G02*
X124211000Y-171091000I150000J0D01*
G01*
X124511000Y-171091000D01*
G75*
G02*
X124661000Y-171241000I0J-150000D01*
G01*
X124661000Y-172916000D01*
G75*
G02*
X124511000Y-173066000I-150000J0D01*
G01*
G37*
G36*
G01*
X125781000Y-173066000D02*
X125481000Y-173066000D01*
G75*
G02*
X125331000Y-172916000I0J150000D01*
G01*
X125331000Y-171241000D01*
G75*
G02*
X125481000Y-171091000I150000J0D01*
G01*
X125781000Y-171091000D01*
G75*
G02*
X125931000Y-171241000I0J-150000D01*
G01*
X125931000Y-172916000D01*
G75*
G02*
X125781000Y-173066000I-150000J0D01*
G01*
G37*
%TD*%
%TO.C,R67*%
G36*
G01*
X79137500Y-177482000D02*
X79612500Y-177482000D01*
G75*
G02*
X79850000Y-177719500I0J-237500D01*
G01*
X79850000Y-178219500D01*
G75*
G02*
X79612500Y-178457000I-237500J0D01*
G01*
X79137500Y-178457000D01*
G75*
G02*
X78900000Y-178219500I0J237500D01*
G01*
X78900000Y-177719500D01*
G75*
G02*
X79137500Y-177482000I237500J0D01*
G01*
G37*
G36*
G01*
X79137500Y-175657000D02*
X79612500Y-175657000D01*
G75*
G02*
X79850000Y-175894500I0J-237500D01*
G01*
X79850000Y-176394500D01*
G75*
G02*
X79612500Y-176632000I-237500J0D01*
G01*
X79137500Y-176632000D01*
G75*
G02*
X78900000Y-176394500I0J237500D01*
G01*
X78900000Y-175894500D01*
G75*
G02*
X79137500Y-175657000I237500J0D01*
G01*
G37*
%TD*%
%TO.C,R66*%
G36*
G01*
X77994500Y-181546000D02*
X78469500Y-181546000D01*
G75*
G02*
X78707000Y-181783500I0J-237500D01*
G01*
X78707000Y-182283500D01*
G75*
G02*
X78469500Y-182521000I-237500J0D01*
G01*
X77994500Y-182521000D01*
G75*
G02*
X77757000Y-182283500I0J237500D01*
G01*
X77757000Y-181783500D01*
G75*
G02*
X77994500Y-181546000I237500J0D01*
G01*
G37*
G36*
G01*
X77994500Y-179721000D02*
X78469500Y-179721000D01*
G75*
G02*
X78707000Y-179958500I0J-237500D01*
G01*
X78707000Y-180458500D01*
G75*
G02*
X78469500Y-180696000I-237500J0D01*
G01*
X77994500Y-180696000D01*
G75*
G02*
X77757000Y-180458500I0J237500D01*
G01*
X77757000Y-179958500D01*
G75*
G02*
X77994500Y-179721000I237500J0D01*
G01*
G37*
%TD*%
%TO.C,R63*%
G36*
G01*
X83963500Y-177482000D02*
X84438500Y-177482000D01*
G75*
G02*
X84676000Y-177719500I0J-237500D01*
G01*
X84676000Y-178219500D01*
G75*
G02*
X84438500Y-178457000I-237500J0D01*
G01*
X83963500Y-178457000D01*
G75*
G02*
X83726000Y-178219500I0J237500D01*
G01*
X83726000Y-177719500D01*
G75*
G02*
X83963500Y-177482000I237500J0D01*
G01*
G37*
G36*
G01*
X83963500Y-175657000D02*
X84438500Y-175657000D01*
G75*
G02*
X84676000Y-175894500I0J-237500D01*
G01*
X84676000Y-176394500D01*
G75*
G02*
X84438500Y-176632000I-237500J0D01*
G01*
X83963500Y-176632000D01*
G75*
G02*
X83726000Y-176394500I0J237500D01*
G01*
X83726000Y-175894500D01*
G75*
G02*
X83963500Y-175657000I237500J0D01*
G01*
G37*
%TD*%
%TO.C,R62*%
G36*
G01*
X82820500Y-181546000D02*
X83295500Y-181546000D01*
G75*
G02*
X83533000Y-181783500I0J-237500D01*
G01*
X83533000Y-182283500D01*
G75*
G02*
X83295500Y-182521000I-237500J0D01*
G01*
X82820500Y-182521000D01*
G75*
G02*
X82583000Y-182283500I0J237500D01*
G01*
X82583000Y-181783500D01*
G75*
G02*
X82820500Y-181546000I237500J0D01*
G01*
G37*
G36*
G01*
X82820500Y-179721000D02*
X83295500Y-179721000D01*
G75*
G02*
X83533000Y-179958500I0J-237500D01*
G01*
X83533000Y-180458500D01*
G75*
G02*
X83295500Y-180696000I-237500J0D01*
G01*
X82820500Y-180696000D01*
G75*
G02*
X82583000Y-180458500I0J237500D01*
G01*
X82583000Y-179958500D01*
G75*
G02*
X82820500Y-179721000I237500J0D01*
G01*
G37*
%TD*%
%TO.C,R59*%
G36*
G01*
X105520500Y-159995000D02*
X105045500Y-159995000D01*
G75*
G02*
X104808000Y-159757500I0J237500D01*
G01*
X104808000Y-159257500D01*
G75*
G02*
X105045500Y-159020000I237500J0D01*
G01*
X105520500Y-159020000D01*
G75*
G02*
X105758000Y-159257500I0J-237500D01*
G01*
X105758000Y-159757500D01*
G75*
G02*
X105520500Y-159995000I-237500J0D01*
G01*
G37*
G36*
G01*
X105520500Y-161820000D02*
X105045500Y-161820000D01*
G75*
G02*
X104808000Y-161582500I0J237500D01*
G01*
X104808000Y-161082500D01*
G75*
G02*
X105045500Y-160845000I237500J0D01*
G01*
X105520500Y-160845000D01*
G75*
G02*
X105758000Y-161082500I0J-237500D01*
G01*
X105758000Y-161582500D01*
G75*
G02*
X105520500Y-161820000I-237500J0D01*
G01*
G37*
%TD*%
%TO.C,R58*%
G36*
G01*
X106790500Y-156081000D02*
X106315500Y-156081000D01*
G75*
G02*
X106078000Y-155843500I0J237500D01*
G01*
X106078000Y-155343500D01*
G75*
G02*
X106315500Y-155106000I237500J0D01*
G01*
X106790500Y-155106000D01*
G75*
G02*
X107028000Y-155343500I0J-237500D01*
G01*
X107028000Y-155843500D01*
G75*
G02*
X106790500Y-156081000I-237500J0D01*
G01*
G37*
G36*
G01*
X106790500Y-157906000D02*
X106315500Y-157906000D01*
G75*
G02*
X106078000Y-157668500I0J237500D01*
G01*
X106078000Y-157168500D01*
G75*
G02*
X106315500Y-156931000I237500J0D01*
G01*
X106790500Y-156931000D01*
G75*
G02*
X107028000Y-157168500I0J-237500D01*
G01*
X107028000Y-157668500D01*
G75*
G02*
X106790500Y-157906000I-237500J0D01*
G01*
G37*
%TD*%
%TO.C,R55*%
G36*
G01*
X100694500Y-159995000D02*
X100219500Y-159995000D01*
G75*
G02*
X99982000Y-159757500I0J237500D01*
G01*
X99982000Y-159257500D01*
G75*
G02*
X100219500Y-159020000I237500J0D01*
G01*
X100694500Y-159020000D01*
G75*
G02*
X100932000Y-159257500I0J-237500D01*
G01*
X100932000Y-159757500D01*
G75*
G02*
X100694500Y-159995000I-237500J0D01*
G01*
G37*
G36*
G01*
X100694500Y-161820000D02*
X100219500Y-161820000D01*
G75*
G02*
X99982000Y-161582500I0J237500D01*
G01*
X99982000Y-161082500D01*
G75*
G02*
X100219500Y-160845000I237500J0D01*
G01*
X100694500Y-160845000D01*
G75*
G02*
X100932000Y-161082500I0J-237500D01*
G01*
X100932000Y-161582500D01*
G75*
G02*
X100694500Y-161820000I-237500J0D01*
G01*
G37*
%TD*%
%TO.C,R54*%
G36*
G01*
X101964500Y-156081000D02*
X101489500Y-156081000D01*
G75*
G02*
X101252000Y-155843500I0J237500D01*
G01*
X101252000Y-155343500D01*
G75*
G02*
X101489500Y-155106000I237500J0D01*
G01*
X101964500Y-155106000D01*
G75*
G02*
X102202000Y-155343500I0J-237500D01*
G01*
X102202000Y-155843500D01*
G75*
G02*
X101964500Y-156081000I-237500J0D01*
G01*
G37*
G36*
G01*
X101964500Y-157906000D02*
X101489500Y-157906000D01*
G75*
G02*
X101252000Y-157668500I0J237500D01*
G01*
X101252000Y-157168500D01*
G75*
G02*
X101489500Y-156931000I237500J0D01*
G01*
X101964500Y-156931000D01*
G75*
G02*
X102202000Y-157168500I0J-237500D01*
G01*
X102202000Y-157668500D01*
G75*
G02*
X101964500Y-157906000I-237500J0D01*
G01*
G37*
%TD*%
%TO.C,R51*%
G36*
G01*
X100694500Y-176632000D02*
X100219500Y-176632000D01*
G75*
G02*
X99982000Y-176394500I0J237500D01*
G01*
X99982000Y-175894500D01*
G75*
G02*
X100219500Y-175657000I237500J0D01*
G01*
X100694500Y-175657000D01*
G75*
G02*
X100932000Y-175894500I0J-237500D01*
G01*
X100932000Y-176394500D01*
G75*
G02*
X100694500Y-176632000I-237500J0D01*
G01*
G37*
G36*
G01*
X100694500Y-178457000D02*
X100219500Y-178457000D01*
G75*
G02*
X99982000Y-178219500I0J237500D01*
G01*
X99982000Y-177719500D01*
G75*
G02*
X100219500Y-177482000I237500J0D01*
G01*
X100694500Y-177482000D01*
G75*
G02*
X100932000Y-177719500I0J-237500D01*
G01*
X100932000Y-178219500D01*
G75*
G02*
X100694500Y-178457000I-237500J0D01*
G01*
G37*
%TD*%
%TO.C,R50*%
G36*
G01*
X99076500Y-181546000D02*
X99551500Y-181546000D01*
G75*
G02*
X99789000Y-181783500I0J-237500D01*
G01*
X99789000Y-182283500D01*
G75*
G02*
X99551500Y-182521000I-237500J0D01*
G01*
X99076500Y-182521000D01*
G75*
G02*
X98839000Y-182283500I0J237500D01*
G01*
X98839000Y-181783500D01*
G75*
G02*
X99076500Y-181546000I237500J0D01*
G01*
G37*
G36*
G01*
X99076500Y-179721000D02*
X99551500Y-179721000D01*
G75*
G02*
X99789000Y-179958500I0J-237500D01*
G01*
X99789000Y-180458500D01*
G75*
G02*
X99551500Y-180696000I-237500J0D01*
G01*
X99076500Y-180696000D01*
G75*
G02*
X98839000Y-180458500I0J237500D01*
G01*
X98839000Y-179958500D01*
G75*
G02*
X99076500Y-179721000I237500J0D01*
G01*
G37*
%TD*%
%TO.C,R47*%
G36*
G01*
X95393500Y-177482000D02*
X95868500Y-177482000D01*
G75*
G02*
X96106000Y-177719500I0J-237500D01*
G01*
X96106000Y-178219500D01*
G75*
G02*
X95868500Y-178457000I-237500J0D01*
G01*
X95393500Y-178457000D01*
G75*
G02*
X95156000Y-178219500I0J237500D01*
G01*
X95156000Y-177719500D01*
G75*
G02*
X95393500Y-177482000I237500J0D01*
G01*
G37*
G36*
G01*
X95393500Y-175657000D02*
X95868500Y-175657000D01*
G75*
G02*
X96106000Y-175894500I0J-237500D01*
G01*
X96106000Y-176394500D01*
G75*
G02*
X95868500Y-176632000I-237500J0D01*
G01*
X95393500Y-176632000D01*
G75*
G02*
X95156000Y-176394500I0J237500D01*
G01*
X95156000Y-175894500D01*
G75*
G02*
X95393500Y-175657000I237500J0D01*
G01*
G37*
%TD*%
%TO.C,R46*%
G36*
G01*
X94250500Y-181546000D02*
X94725500Y-181546000D01*
G75*
G02*
X94963000Y-181783500I0J-237500D01*
G01*
X94963000Y-182283500D01*
G75*
G02*
X94725500Y-182521000I-237500J0D01*
G01*
X94250500Y-182521000D01*
G75*
G02*
X94013000Y-182283500I0J237500D01*
G01*
X94013000Y-181783500D01*
G75*
G02*
X94250500Y-181546000I237500J0D01*
G01*
G37*
G36*
G01*
X94250500Y-179721000D02*
X94725500Y-179721000D01*
G75*
G02*
X94963000Y-179958500I0J-237500D01*
G01*
X94963000Y-180458500D01*
G75*
G02*
X94725500Y-180696000I-237500J0D01*
G01*
X94250500Y-180696000D01*
G75*
G02*
X94013000Y-180458500I0J237500D01*
G01*
X94013000Y-179958500D01*
G75*
G02*
X94250500Y-179721000I237500J0D01*
G01*
G37*
%TD*%
%TO.C,R43*%
G36*
G01*
X95868500Y-159995000D02*
X95393500Y-159995000D01*
G75*
G02*
X95156000Y-159757500I0J237500D01*
G01*
X95156000Y-159257500D01*
G75*
G02*
X95393500Y-159020000I237500J0D01*
G01*
X95868500Y-159020000D01*
G75*
G02*
X96106000Y-159257500I0J-237500D01*
G01*
X96106000Y-159757500D01*
G75*
G02*
X95868500Y-159995000I-237500J0D01*
G01*
G37*
G36*
G01*
X95868500Y-161820000D02*
X95393500Y-161820000D01*
G75*
G02*
X95156000Y-161582500I0J237500D01*
G01*
X95156000Y-161082500D01*
G75*
G02*
X95393500Y-160845000I237500J0D01*
G01*
X95868500Y-160845000D01*
G75*
G02*
X96106000Y-161082500I0J-237500D01*
G01*
X96106000Y-161582500D01*
G75*
G02*
X95868500Y-161820000I-237500J0D01*
G01*
G37*
%TD*%
%TO.C,R42*%
G36*
G01*
X97138500Y-156081000D02*
X96663500Y-156081000D01*
G75*
G02*
X96426000Y-155843500I0J237500D01*
G01*
X96426000Y-155343500D01*
G75*
G02*
X96663500Y-155106000I237500J0D01*
G01*
X97138500Y-155106000D01*
G75*
G02*
X97376000Y-155343500I0J-237500D01*
G01*
X97376000Y-155843500D01*
G75*
G02*
X97138500Y-156081000I-237500J0D01*
G01*
G37*
G36*
G01*
X97138500Y-157906000D02*
X96663500Y-157906000D01*
G75*
G02*
X96426000Y-157668500I0J237500D01*
G01*
X96426000Y-157168500D01*
G75*
G02*
X96663500Y-156931000I237500J0D01*
G01*
X97138500Y-156931000D01*
G75*
G02*
X97376000Y-157168500I0J-237500D01*
G01*
X97376000Y-157668500D01*
G75*
G02*
X97138500Y-157906000I-237500J0D01*
G01*
G37*
%TD*%
%TO.C,R39*%
G36*
G01*
X105045500Y-177482000D02*
X105520500Y-177482000D01*
G75*
G02*
X105758000Y-177719500I0J-237500D01*
G01*
X105758000Y-178219500D01*
G75*
G02*
X105520500Y-178457000I-237500J0D01*
G01*
X105045500Y-178457000D01*
G75*
G02*
X104808000Y-178219500I0J237500D01*
G01*
X104808000Y-177719500D01*
G75*
G02*
X105045500Y-177482000I237500J0D01*
G01*
G37*
G36*
G01*
X105045500Y-175657000D02*
X105520500Y-175657000D01*
G75*
G02*
X105758000Y-175894500I0J-237500D01*
G01*
X105758000Y-176394500D01*
G75*
G02*
X105520500Y-176632000I-237500J0D01*
G01*
X105045500Y-176632000D01*
G75*
G02*
X104808000Y-176394500I0J237500D01*
G01*
X104808000Y-175894500D01*
G75*
G02*
X105045500Y-175657000I237500J0D01*
G01*
G37*
%TD*%
%TO.C,R38*%
G36*
G01*
X103902500Y-181546000D02*
X104377500Y-181546000D01*
G75*
G02*
X104615000Y-181783500I0J-237500D01*
G01*
X104615000Y-182283500D01*
G75*
G02*
X104377500Y-182521000I-237500J0D01*
G01*
X103902500Y-182521000D01*
G75*
G02*
X103665000Y-182283500I0J237500D01*
G01*
X103665000Y-181783500D01*
G75*
G02*
X103902500Y-181546000I237500J0D01*
G01*
G37*
G36*
G01*
X103902500Y-179721000D02*
X104377500Y-179721000D01*
G75*
G02*
X104615000Y-179958500I0J-237500D01*
G01*
X104615000Y-180458500D01*
G75*
G02*
X104377500Y-180696000I-237500J0D01*
G01*
X103902500Y-180696000D01*
G75*
G02*
X103665000Y-180458500I0J237500D01*
G01*
X103665000Y-179958500D01*
G75*
G02*
X103902500Y-179721000I237500J0D01*
G01*
G37*
%TD*%
%TO.C,R35*%
G36*
G01*
X126729500Y-159995000D02*
X126254500Y-159995000D01*
G75*
G02*
X126017000Y-159757500I0J237500D01*
G01*
X126017000Y-159257500D01*
G75*
G02*
X126254500Y-159020000I237500J0D01*
G01*
X126729500Y-159020000D01*
G75*
G02*
X126967000Y-159257500I0J-237500D01*
G01*
X126967000Y-159757500D01*
G75*
G02*
X126729500Y-159995000I-237500J0D01*
G01*
G37*
G36*
G01*
X126729500Y-161820000D02*
X126254500Y-161820000D01*
G75*
G02*
X126017000Y-161582500I0J237500D01*
G01*
X126017000Y-161082500D01*
G75*
G02*
X126254500Y-160845000I237500J0D01*
G01*
X126729500Y-160845000D01*
G75*
G02*
X126967000Y-161082500I0J-237500D01*
G01*
X126967000Y-161582500D01*
G75*
G02*
X126729500Y-161820000I-237500J0D01*
G01*
G37*
%TD*%
%TO.C,R34*%
G36*
G01*
X127872500Y-156081000D02*
X127397500Y-156081000D01*
G75*
G02*
X127160000Y-155843500I0J237500D01*
G01*
X127160000Y-155343500D01*
G75*
G02*
X127397500Y-155106000I237500J0D01*
G01*
X127872500Y-155106000D01*
G75*
G02*
X128110000Y-155343500I0J-237500D01*
G01*
X128110000Y-155843500D01*
G75*
G02*
X127872500Y-156081000I-237500J0D01*
G01*
G37*
G36*
G01*
X127872500Y-157906000D02*
X127397500Y-157906000D01*
G75*
G02*
X127160000Y-157668500I0J237500D01*
G01*
X127160000Y-157168500D01*
G75*
G02*
X127397500Y-156931000I237500J0D01*
G01*
X127872500Y-156931000D01*
G75*
G02*
X128110000Y-157168500I0J-237500D01*
G01*
X128110000Y-157668500D01*
G75*
G02*
X127872500Y-157906000I-237500J0D01*
G01*
G37*
%TD*%
%TO.C,R31*%
G36*
G01*
X121776500Y-159995000D02*
X121301500Y-159995000D01*
G75*
G02*
X121064000Y-159757500I0J237500D01*
G01*
X121064000Y-159257500D01*
G75*
G02*
X121301500Y-159020000I237500J0D01*
G01*
X121776500Y-159020000D01*
G75*
G02*
X122014000Y-159257500I0J-237500D01*
G01*
X122014000Y-159757500D01*
G75*
G02*
X121776500Y-159995000I-237500J0D01*
G01*
G37*
G36*
G01*
X121776500Y-161820000D02*
X121301500Y-161820000D01*
G75*
G02*
X121064000Y-161582500I0J237500D01*
G01*
X121064000Y-161082500D01*
G75*
G02*
X121301500Y-160845000I237500J0D01*
G01*
X121776500Y-160845000D01*
G75*
G02*
X122014000Y-161082500I0J-237500D01*
G01*
X122014000Y-161582500D01*
G75*
G02*
X121776500Y-161820000I-237500J0D01*
G01*
G37*
%TD*%
%TO.C,R30*%
G36*
G01*
X123046500Y-156081000D02*
X122571500Y-156081000D01*
G75*
G02*
X122334000Y-155843500I0J237500D01*
G01*
X122334000Y-155343500D01*
G75*
G02*
X122571500Y-155106000I237500J0D01*
G01*
X123046500Y-155106000D01*
G75*
G02*
X123284000Y-155343500I0J-237500D01*
G01*
X123284000Y-155843500D01*
G75*
G02*
X123046500Y-156081000I-237500J0D01*
G01*
G37*
G36*
G01*
X123046500Y-157906000D02*
X122571500Y-157906000D01*
G75*
G02*
X122334000Y-157668500I0J237500D01*
G01*
X122334000Y-157168500D01*
G75*
G02*
X122571500Y-156931000I237500J0D01*
G01*
X123046500Y-156931000D01*
G75*
G02*
X123284000Y-157168500I0J-237500D01*
G01*
X123284000Y-157668500D01*
G75*
G02*
X123046500Y-157906000I-237500J0D01*
G01*
G37*
%TD*%
%TO.C,R27*%
G36*
G01*
X116950500Y-159995000D02*
X116475500Y-159995000D01*
G75*
G02*
X116238000Y-159757500I0J237500D01*
G01*
X116238000Y-159257500D01*
G75*
G02*
X116475500Y-159020000I237500J0D01*
G01*
X116950500Y-159020000D01*
G75*
G02*
X117188000Y-159257500I0J-237500D01*
G01*
X117188000Y-159757500D01*
G75*
G02*
X116950500Y-159995000I-237500J0D01*
G01*
G37*
G36*
G01*
X116950500Y-161820000D02*
X116475500Y-161820000D01*
G75*
G02*
X116238000Y-161582500I0J237500D01*
G01*
X116238000Y-161082500D01*
G75*
G02*
X116475500Y-160845000I237500J0D01*
G01*
X116950500Y-160845000D01*
G75*
G02*
X117188000Y-161082500I0J-237500D01*
G01*
X117188000Y-161582500D01*
G75*
G02*
X116950500Y-161820000I-237500J0D01*
G01*
G37*
%TD*%
%TO.C,R26*%
G36*
G01*
X118220500Y-156081000D02*
X117745500Y-156081000D01*
G75*
G02*
X117508000Y-155843500I0J237500D01*
G01*
X117508000Y-155343500D01*
G75*
G02*
X117745500Y-155106000I237500J0D01*
G01*
X118220500Y-155106000D01*
G75*
G02*
X118458000Y-155343500I0J-237500D01*
G01*
X118458000Y-155843500D01*
G75*
G02*
X118220500Y-156081000I-237500J0D01*
G01*
G37*
G36*
G01*
X118220500Y-157906000D02*
X117745500Y-157906000D01*
G75*
G02*
X117508000Y-157668500I0J237500D01*
G01*
X117508000Y-157168500D01*
G75*
G02*
X117745500Y-156931000I237500J0D01*
G01*
X118220500Y-156931000D01*
G75*
G02*
X118458000Y-157168500I0J-237500D01*
G01*
X118458000Y-157668500D01*
G75*
G02*
X118220500Y-157906000I-237500J0D01*
G01*
G37*
%TD*%
%TO.C,R23*%
G36*
G01*
X116475500Y-177482000D02*
X116950500Y-177482000D01*
G75*
G02*
X117188000Y-177719500I0J-237500D01*
G01*
X117188000Y-178219500D01*
G75*
G02*
X116950500Y-178457000I-237500J0D01*
G01*
X116475500Y-178457000D01*
G75*
G02*
X116238000Y-178219500I0J237500D01*
G01*
X116238000Y-177719500D01*
G75*
G02*
X116475500Y-177482000I237500J0D01*
G01*
G37*
G36*
G01*
X116475500Y-175657000D02*
X116950500Y-175657000D01*
G75*
G02*
X117188000Y-175894500I0J-237500D01*
G01*
X117188000Y-176394500D01*
G75*
G02*
X116950500Y-176632000I-237500J0D01*
G01*
X116475500Y-176632000D01*
G75*
G02*
X116238000Y-176394500I0J237500D01*
G01*
X116238000Y-175894500D01*
G75*
G02*
X116475500Y-175657000I237500J0D01*
G01*
G37*
%TD*%
%TO.C,R22*%
G36*
G01*
X115332500Y-181546000D02*
X115807500Y-181546000D01*
G75*
G02*
X116045000Y-181783500I0J-237500D01*
G01*
X116045000Y-182283500D01*
G75*
G02*
X115807500Y-182521000I-237500J0D01*
G01*
X115332500Y-182521000D01*
G75*
G02*
X115095000Y-182283500I0J237500D01*
G01*
X115095000Y-181783500D01*
G75*
G02*
X115332500Y-181546000I237500J0D01*
G01*
G37*
G36*
G01*
X115332500Y-179721000D02*
X115807500Y-179721000D01*
G75*
G02*
X116045000Y-179958500I0J-237500D01*
G01*
X116045000Y-180458500D01*
G75*
G02*
X115807500Y-180696000I-237500J0D01*
G01*
X115332500Y-180696000D01*
G75*
G02*
X115095000Y-180458500I0J237500D01*
G01*
X115095000Y-179958500D01*
G75*
G02*
X115332500Y-179721000I237500J0D01*
G01*
G37*
%TD*%
%TO.C,R17*%
G36*
G01*
X126254500Y-177482000D02*
X126729500Y-177482000D01*
G75*
G02*
X126967000Y-177719500I0J-237500D01*
G01*
X126967000Y-178219500D01*
G75*
G02*
X126729500Y-178457000I-237500J0D01*
G01*
X126254500Y-178457000D01*
G75*
G02*
X126017000Y-178219500I0J237500D01*
G01*
X126017000Y-177719500D01*
G75*
G02*
X126254500Y-177482000I237500J0D01*
G01*
G37*
G36*
G01*
X126254500Y-175657000D02*
X126729500Y-175657000D01*
G75*
G02*
X126967000Y-175894500I0J-237500D01*
G01*
X126967000Y-176394500D01*
G75*
G02*
X126729500Y-176632000I-237500J0D01*
G01*
X126254500Y-176632000D01*
G75*
G02*
X126017000Y-176394500I0J237500D01*
G01*
X126017000Y-175894500D01*
G75*
G02*
X126254500Y-175657000I237500J0D01*
G01*
G37*
%TD*%
%TO.C,R16*%
G36*
G01*
X124984500Y-181546000D02*
X125459500Y-181546000D01*
G75*
G02*
X125697000Y-181783500I0J-237500D01*
G01*
X125697000Y-182283500D01*
G75*
G02*
X125459500Y-182521000I-237500J0D01*
G01*
X124984500Y-182521000D01*
G75*
G02*
X124747000Y-182283500I0J237500D01*
G01*
X124747000Y-181783500D01*
G75*
G02*
X124984500Y-181546000I237500J0D01*
G01*
G37*
G36*
G01*
X124984500Y-179721000D02*
X125459500Y-179721000D01*
G75*
G02*
X125697000Y-179958500I0J-237500D01*
G01*
X125697000Y-180458500D01*
G75*
G02*
X125459500Y-180696000I-237500J0D01*
G01*
X124984500Y-180696000D01*
G75*
G02*
X124747000Y-180458500I0J237500D01*
G01*
X124747000Y-179958500D01*
G75*
G02*
X124984500Y-179721000I237500J0D01*
G01*
G37*
%TD*%
%TO.C,C20*%
G36*
G01*
X80407500Y-181446000D02*
X80882500Y-181446000D01*
G75*
G02*
X81120000Y-181683500I0J-237500D01*
G01*
X81120000Y-182283500D01*
G75*
G02*
X80882500Y-182521000I-237500J0D01*
G01*
X80407500Y-182521000D01*
G75*
G02*
X80170000Y-182283500I0J237500D01*
G01*
X80170000Y-181683500D01*
G75*
G02*
X80407500Y-181446000I237500J0D01*
G01*
G37*
G36*
G01*
X80407500Y-179721000D02*
X80882500Y-179721000D01*
G75*
G02*
X81120000Y-179958500I0J-237500D01*
G01*
X81120000Y-180558500D01*
G75*
G02*
X80882500Y-180796000I-237500J0D01*
G01*
X80407500Y-180796000D01*
G75*
G02*
X80170000Y-180558500I0J237500D01*
G01*
X80170000Y-179958500D01*
G75*
G02*
X80407500Y-179721000I237500J0D01*
G01*
G37*
%TD*%
%TO.C,C18*%
G36*
G01*
X85233500Y-181446000D02*
X85708500Y-181446000D01*
G75*
G02*
X85946000Y-181683500I0J-237500D01*
G01*
X85946000Y-182283500D01*
G75*
G02*
X85708500Y-182521000I-237500J0D01*
G01*
X85233500Y-182521000D01*
G75*
G02*
X84996000Y-182283500I0J237500D01*
G01*
X84996000Y-181683500D01*
G75*
G02*
X85233500Y-181446000I237500J0D01*
G01*
G37*
G36*
G01*
X85233500Y-179721000D02*
X85708500Y-179721000D01*
G75*
G02*
X85946000Y-179958500I0J-237500D01*
G01*
X85946000Y-180558500D01*
G75*
G02*
X85708500Y-180796000I-237500J0D01*
G01*
X85233500Y-180796000D01*
G75*
G02*
X84996000Y-180558500I0J237500D01*
G01*
X84996000Y-179958500D01*
G75*
G02*
X85233500Y-179721000I237500J0D01*
G01*
G37*
%TD*%
%TO.C,C17*%
G36*
G01*
X86216500Y-168451000D02*
X85741500Y-168451000D01*
G75*
G02*
X85504000Y-168213500I0J237500D01*
G01*
X85504000Y-167613500D01*
G75*
G02*
X85741500Y-167376000I237500J0D01*
G01*
X86216500Y-167376000D01*
G75*
G02*
X86454000Y-167613500I0J-237500D01*
G01*
X86454000Y-168213500D01*
G75*
G02*
X86216500Y-168451000I-237500J0D01*
G01*
G37*
G36*
G01*
X86216500Y-170176000D02*
X85741500Y-170176000D01*
G75*
G02*
X85504000Y-169938500I0J237500D01*
G01*
X85504000Y-169338500D01*
G75*
G02*
X85741500Y-169101000I237500J0D01*
G01*
X86216500Y-169101000D01*
G75*
G02*
X86454000Y-169338500I0J-237500D01*
G01*
X86454000Y-169938500D01*
G75*
G02*
X86216500Y-170176000I-237500J0D01*
G01*
G37*
%TD*%
%TO.C,C16*%
G36*
G01*
X104377500Y-156181000D02*
X103902500Y-156181000D01*
G75*
G02*
X103665000Y-155943500I0J237500D01*
G01*
X103665000Y-155343500D01*
G75*
G02*
X103902500Y-155106000I237500J0D01*
G01*
X104377500Y-155106000D01*
G75*
G02*
X104615000Y-155343500I0J-237500D01*
G01*
X104615000Y-155943500D01*
G75*
G02*
X104377500Y-156181000I-237500J0D01*
G01*
G37*
G36*
G01*
X104377500Y-157906000D02*
X103902500Y-157906000D01*
G75*
G02*
X103665000Y-157668500I0J237500D01*
G01*
X103665000Y-157068500D01*
G75*
G02*
X103902500Y-156831000I237500J0D01*
G01*
X104377500Y-156831000D01*
G75*
G02*
X104615000Y-157068500I0J-237500D01*
G01*
X104615000Y-157668500D01*
G75*
G02*
X104377500Y-157906000I-237500J0D01*
G01*
G37*
%TD*%
%TO.C,C15*%
G36*
G01*
X99551500Y-156181000D02*
X99076500Y-156181000D01*
G75*
G02*
X98839000Y-155943500I0J237500D01*
G01*
X98839000Y-155343500D01*
G75*
G02*
X99076500Y-155106000I237500J0D01*
G01*
X99551500Y-155106000D01*
G75*
G02*
X99789000Y-155343500I0J-237500D01*
G01*
X99789000Y-155943500D01*
G75*
G02*
X99551500Y-156181000I-237500J0D01*
G01*
G37*
G36*
G01*
X99551500Y-157906000D02*
X99076500Y-157906000D01*
G75*
G02*
X98839000Y-157668500I0J237500D01*
G01*
X98839000Y-157068500D01*
G75*
G02*
X99076500Y-156831000I237500J0D01*
G01*
X99551500Y-156831000D01*
G75*
G02*
X99789000Y-157068500I0J-237500D01*
G01*
X99789000Y-157668500D01*
G75*
G02*
X99551500Y-157906000I-237500J0D01*
G01*
G37*
%TD*%
%TO.C,C14*%
G36*
G01*
X101489500Y-181446000D02*
X101964500Y-181446000D01*
G75*
G02*
X102202000Y-181683500I0J-237500D01*
G01*
X102202000Y-182283500D01*
G75*
G02*
X101964500Y-182521000I-237500J0D01*
G01*
X101489500Y-182521000D01*
G75*
G02*
X101252000Y-182283500I0J237500D01*
G01*
X101252000Y-181683500D01*
G75*
G02*
X101489500Y-181446000I237500J0D01*
G01*
G37*
G36*
G01*
X101489500Y-179721000D02*
X101964500Y-179721000D01*
G75*
G02*
X102202000Y-179958500I0J-237500D01*
G01*
X102202000Y-180558500D01*
G75*
G02*
X101964500Y-180796000I-237500J0D01*
G01*
X101489500Y-180796000D01*
G75*
G02*
X101252000Y-180558500I0J237500D01*
G01*
X101252000Y-179958500D01*
G75*
G02*
X101489500Y-179721000I237500J0D01*
G01*
G37*
%TD*%
%TO.C,C13*%
G36*
G01*
X96663500Y-181446000D02*
X97138500Y-181446000D01*
G75*
G02*
X97376000Y-181683500I0J-237500D01*
G01*
X97376000Y-182283500D01*
G75*
G02*
X97138500Y-182521000I-237500J0D01*
G01*
X96663500Y-182521000D01*
G75*
G02*
X96426000Y-182283500I0J237500D01*
G01*
X96426000Y-181683500D01*
G75*
G02*
X96663500Y-181446000I237500J0D01*
G01*
G37*
G36*
G01*
X96663500Y-179721000D02*
X97138500Y-179721000D01*
G75*
G02*
X97376000Y-179958500I0J-237500D01*
G01*
X97376000Y-180558500D01*
G75*
G02*
X97138500Y-180796000I-237500J0D01*
G01*
X96663500Y-180796000D01*
G75*
G02*
X96426000Y-180558500I0J237500D01*
G01*
X96426000Y-179958500D01*
G75*
G02*
X96663500Y-179721000I237500J0D01*
G01*
G37*
%TD*%
%TO.C,C12*%
G36*
G01*
X94725500Y-156181000D02*
X94250500Y-156181000D01*
G75*
G02*
X94013000Y-155943500I0J237500D01*
G01*
X94013000Y-155343500D01*
G75*
G02*
X94250500Y-155106000I237500J0D01*
G01*
X94725500Y-155106000D01*
G75*
G02*
X94963000Y-155343500I0J-237500D01*
G01*
X94963000Y-155943500D01*
G75*
G02*
X94725500Y-156181000I-237500J0D01*
G01*
G37*
G36*
G01*
X94725500Y-157906000D02*
X94250500Y-157906000D01*
G75*
G02*
X94013000Y-157668500I0J237500D01*
G01*
X94013000Y-157068500D01*
G75*
G02*
X94250500Y-156831000I237500J0D01*
G01*
X94725500Y-156831000D01*
G75*
G02*
X94963000Y-157068500I0J-237500D01*
G01*
X94963000Y-157668500D01*
G75*
G02*
X94725500Y-157906000I-237500J0D01*
G01*
G37*
%TD*%
%TO.C,C11*%
G36*
G01*
X106315500Y-181446000D02*
X106790500Y-181446000D01*
G75*
G02*
X107028000Y-181683500I0J-237500D01*
G01*
X107028000Y-182283500D01*
G75*
G02*
X106790500Y-182521000I-237500J0D01*
G01*
X106315500Y-182521000D01*
G75*
G02*
X106078000Y-182283500I0J237500D01*
G01*
X106078000Y-181683500D01*
G75*
G02*
X106315500Y-181446000I237500J0D01*
G01*
G37*
G36*
G01*
X106315500Y-179721000D02*
X106790500Y-179721000D01*
G75*
G02*
X107028000Y-179958500I0J-237500D01*
G01*
X107028000Y-180558500D01*
G75*
G02*
X106790500Y-180796000I-237500J0D01*
G01*
X106315500Y-180796000D01*
G75*
G02*
X106078000Y-180558500I0J237500D01*
G01*
X106078000Y-179958500D01*
G75*
G02*
X106315500Y-179721000I237500J0D01*
G01*
G37*
%TD*%
%TO.C,C10*%
G36*
G01*
X107679500Y-168451000D02*
X107204500Y-168451000D01*
G75*
G02*
X106967000Y-168213500I0J237500D01*
G01*
X106967000Y-167613500D01*
G75*
G02*
X107204500Y-167376000I237500J0D01*
G01*
X107679500Y-167376000D01*
G75*
G02*
X107917000Y-167613500I0J-237500D01*
G01*
X107917000Y-168213500D01*
G75*
G02*
X107679500Y-168451000I-237500J0D01*
G01*
G37*
G36*
G01*
X107679500Y-170176000D02*
X107204500Y-170176000D01*
G75*
G02*
X106967000Y-169938500I0J237500D01*
G01*
X106967000Y-169338500D01*
G75*
G02*
X107204500Y-169101000I237500J0D01*
G01*
X107679500Y-169101000D01*
G75*
G02*
X107917000Y-169338500I0J-237500D01*
G01*
X107917000Y-169938500D01*
G75*
G02*
X107679500Y-170176000I-237500J0D01*
G01*
G37*
%TD*%
%TO.C,C9*%
G36*
G01*
X125459500Y-156181000D02*
X124984500Y-156181000D01*
G75*
G02*
X124747000Y-155943500I0J237500D01*
G01*
X124747000Y-155343500D01*
G75*
G02*
X124984500Y-155106000I237500J0D01*
G01*
X125459500Y-155106000D01*
G75*
G02*
X125697000Y-155343500I0J-237500D01*
G01*
X125697000Y-155943500D01*
G75*
G02*
X125459500Y-156181000I-237500J0D01*
G01*
G37*
G36*
G01*
X125459500Y-157906000D02*
X124984500Y-157906000D01*
G75*
G02*
X124747000Y-157668500I0J237500D01*
G01*
X124747000Y-157068500D01*
G75*
G02*
X124984500Y-156831000I237500J0D01*
G01*
X125459500Y-156831000D01*
G75*
G02*
X125697000Y-157068500I0J-237500D01*
G01*
X125697000Y-157668500D01*
G75*
G02*
X125459500Y-157906000I-237500J0D01*
G01*
G37*
%TD*%
%TO.C,C8*%
G36*
G01*
X120633500Y-156181000D02*
X120158500Y-156181000D01*
G75*
G02*
X119921000Y-155943500I0J237500D01*
G01*
X119921000Y-155343500D01*
G75*
G02*
X120158500Y-155106000I237500J0D01*
G01*
X120633500Y-155106000D01*
G75*
G02*
X120871000Y-155343500I0J-237500D01*
G01*
X120871000Y-155943500D01*
G75*
G02*
X120633500Y-156181000I-237500J0D01*
G01*
G37*
G36*
G01*
X120633500Y-157906000D02*
X120158500Y-157906000D01*
G75*
G02*
X119921000Y-157668500I0J237500D01*
G01*
X119921000Y-157068500D01*
G75*
G02*
X120158500Y-156831000I237500J0D01*
G01*
X120633500Y-156831000D01*
G75*
G02*
X120871000Y-157068500I0J-237500D01*
G01*
X120871000Y-157668500D01*
G75*
G02*
X120633500Y-157906000I-237500J0D01*
G01*
G37*
%TD*%
%TO.C,C7*%
G36*
G01*
X115807500Y-156181000D02*
X115332500Y-156181000D01*
G75*
G02*
X115095000Y-155943500I0J237500D01*
G01*
X115095000Y-155343500D01*
G75*
G02*
X115332500Y-155106000I237500J0D01*
G01*
X115807500Y-155106000D01*
G75*
G02*
X116045000Y-155343500I0J-237500D01*
G01*
X116045000Y-155943500D01*
G75*
G02*
X115807500Y-156181000I-237500J0D01*
G01*
G37*
G36*
G01*
X115807500Y-157906000D02*
X115332500Y-157906000D01*
G75*
G02*
X115095000Y-157668500I0J237500D01*
G01*
X115095000Y-157068500D01*
G75*
G02*
X115332500Y-156831000I237500J0D01*
G01*
X115807500Y-156831000D01*
G75*
G02*
X116045000Y-157068500I0J-237500D01*
G01*
X116045000Y-157668500D01*
G75*
G02*
X115807500Y-157906000I-237500J0D01*
G01*
G37*
%TD*%
%TO.C,C6*%
G36*
G01*
X127397500Y-181446000D02*
X127872500Y-181446000D01*
G75*
G02*
X128110000Y-181683500I0J-237500D01*
G01*
X128110000Y-182283500D01*
G75*
G02*
X127872500Y-182521000I-237500J0D01*
G01*
X127397500Y-182521000D01*
G75*
G02*
X127160000Y-182283500I0J237500D01*
G01*
X127160000Y-181683500D01*
G75*
G02*
X127397500Y-181446000I237500J0D01*
G01*
G37*
G36*
G01*
X127397500Y-179721000D02*
X127872500Y-179721000D01*
G75*
G02*
X128110000Y-179958500I0J-237500D01*
G01*
X128110000Y-180558500D01*
G75*
G02*
X127872500Y-180796000I-237500J0D01*
G01*
X127397500Y-180796000D01*
G75*
G02*
X127160000Y-180558500I0J237500D01*
G01*
X127160000Y-179958500D01*
G75*
G02*
X127397500Y-179721000I237500J0D01*
G01*
G37*
%TD*%
%TO.C,C5*%
G36*
G01*
X128761500Y-168451000D02*
X128286500Y-168451000D01*
G75*
G02*
X128049000Y-168213500I0J237500D01*
G01*
X128049000Y-167613500D01*
G75*
G02*
X128286500Y-167376000I237500J0D01*
G01*
X128761500Y-167376000D01*
G75*
G02*
X128999000Y-167613500I0J-237500D01*
G01*
X128999000Y-168213500D01*
G75*
G02*
X128761500Y-168451000I-237500J0D01*
G01*
G37*
G36*
G01*
X128761500Y-170176000D02*
X128286500Y-170176000D01*
G75*
G02*
X128049000Y-169938500I0J237500D01*
G01*
X128049000Y-169338500D01*
G75*
G02*
X128286500Y-169101000I237500J0D01*
G01*
X128761500Y-169101000D01*
G75*
G02*
X128999000Y-169338500I0J-237500D01*
G01*
X128999000Y-169938500D01*
G75*
G02*
X128761500Y-170176000I-237500J0D01*
G01*
G37*
%TD*%
%TO.C,C3*%
G36*
G01*
X117745500Y-181446000D02*
X118220500Y-181446000D01*
G75*
G02*
X118458000Y-181683500I0J-237500D01*
G01*
X118458000Y-182283500D01*
G75*
G02*
X118220500Y-182521000I-237500J0D01*
G01*
X117745500Y-182521000D01*
G75*
G02*
X117508000Y-182283500I0J237500D01*
G01*
X117508000Y-181683500D01*
G75*
G02*
X117745500Y-181446000I237500J0D01*
G01*
G37*
G36*
G01*
X117745500Y-179721000D02*
X118220500Y-179721000D01*
G75*
G02*
X118458000Y-179958500I0J-237500D01*
G01*
X118458000Y-180558500D01*
G75*
G02*
X118220500Y-180796000I-237500J0D01*
G01*
X117745500Y-180796000D01*
G75*
G02*
X117508000Y-180558500I0J237500D01*
G01*
X117508000Y-179958500D01*
G75*
G02*
X117745500Y-179721000I237500J0D01*
G01*
G37*
%TD*%
%TO.C,C2*%
G36*
G01*
X122571500Y-181446000D02*
X123046500Y-181446000D01*
G75*
G02*
X123284000Y-181683500I0J-237500D01*
G01*
X123284000Y-182283500D01*
G75*
G02*
X123046500Y-182521000I-237500J0D01*
G01*
X122571500Y-182521000D01*
G75*
G02*
X122334000Y-182283500I0J237500D01*
G01*
X122334000Y-181683500D01*
G75*
G02*
X122571500Y-181446000I237500J0D01*
G01*
G37*
G36*
G01*
X122571500Y-179721000D02*
X123046500Y-179721000D01*
G75*
G02*
X123284000Y-179958500I0J-237500D01*
G01*
X123284000Y-180558500D01*
G75*
G02*
X123046500Y-180796000I-237500J0D01*
G01*
X122571500Y-180796000D01*
G75*
G02*
X122334000Y-180558500I0J237500D01*
G01*
X122334000Y-179958500D01*
G75*
G02*
X122571500Y-179721000I237500J0D01*
G01*
G37*
%TD*%
M02*
