%TF.GenerationSoftware,KiCad,Pcbnew,(5.1.9-0-10_14)*%
%TF.CreationDate,2021-06-23T09:28:56+02:00*%
%TF.ProjectId,MechanicalTheatre,4d656368-616e-4696-9361-6c5468656174,rev?*%
%TF.SameCoordinates,Original*%
%TF.FileFunction,Paste,Top*%
%TF.FilePolarity,Positive*%
%FSLAX46Y46*%
G04 Gerber Fmt 4.6, Leading zero omitted, Abs format (unit mm)*
G04 Created by KiCad (PCBNEW (5.1.9-0-10_14)) date 2021-06-23 09:28:56*
%MOMM*%
%LPD*%
G01*
G04 APERTURE LIST*
G04 APERTURE END LIST*
%TO.C,U13*%
G36*
G01*
X122860000Y-171705000D02*
X122560000Y-171705000D01*
G75*
G02*
X122410000Y-171555000I0J150000D01*
G01*
X122410000Y-169880000D01*
G75*
G02*
X122560000Y-169730000I150000J0D01*
G01*
X122860000Y-169730000D01*
G75*
G02*
X123010000Y-169880000I0J-150000D01*
G01*
X123010000Y-171555000D01*
G75*
G02*
X122860000Y-171705000I-150000J0D01*
G01*
G37*
G36*
G01*
X124130000Y-171705000D02*
X123830000Y-171705000D01*
G75*
G02*
X123680000Y-171555000I0J150000D01*
G01*
X123680000Y-169880000D01*
G75*
G02*
X123830000Y-169730000I150000J0D01*
G01*
X124130000Y-169730000D01*
G75*
G02*
X124280000Y-169880000I0J-150000D01*
G01*
X124280000Y-171555000D01*
G75*
G02*
X124130000Y-171705000I-150000J0D01*
G01*
G37*
G36*
G01*
X125400000Y-171705000D02*
X125100000Y-171705000D01*
G75*
G02*
X124950000Y-171555000I0J150000D01*
G01*
X124950000Y-169880000D01*
G75*
G02*
X125100000Y-169730000I150000J0D01*
G01*
X125400000Y-169730000D01*
G75*
G02*
X125550000Y-169880000I0J-150000D01*
G01*
X125550000Y-171555000D01*
G75*
G02*
X125400000Y-171705000I-150000J0D01*
G01*
G37*
G36*
G01*
X126670000Y-171705000D02*
X126370000Y-171705000D01*
G75*
G02*
X126220000Y-171555000I0J150000D01*
G01*
X126220000Y-169880000D01*
G75*
G02*
X126370000Y-169730000I150000J0D01*
G01*
X126670000Y-169730000D01*
G75*
G02*
X126820000Y-169880000I0J-150000D01*
G01*
X126820000Y-171555000D01*
G75*
G02*
X126670000Y-171705000I-150000J0D01*
G01*
G37*
G36*
G01*
X127940000Y-171705000D02*
X127640000Y-171705000D01*
G75*
G02*
X127490000Y-171555000I0J150000D01*
G01*
X127490000Y-169880000D01*
G75*
G02*
X127640000Y-169730000I150000J0D01*
G01*
X127940000Y-169730000D01*
G75*
G02*
X128090000Y-169880000I0J-150000D01*
G01*
X128090000Y-171555000D01*
G75*
G02*
X127940000Y-171705000I-150000J0D01*
G01*
G37*
G36*
G01*
X129210000Y-171705000D02*
X128910000Y-171705000D01*
G75*
G02*
X128760000Y-171555000I0J150000D01*
G01*
X128760000Y-169880000D01*
G75*
G02*
X128910000Y-169730000I150000J0D01*
G01*
X129210000Y-169730000D01*
G75*
G02*
X129360000Y-169880000I0J-150000D01*
G01*
X129360000Y-171555000D01*
G75*
G02*
X129210000Y-171705000I-150000J0D01*
G01*
G37*
G36*
G01*
X130480000Y-171705000D02*
X130180000Y-171705000D01*
G75*
G02*
X130030000Y-171555000I0J150000D01*
G01*
X130030000Y-169880000D01*
G75*
G02*
X130180000Y-169730000I150000J0D01*
G01*
X130480000Y-169730000D01*
G75*
G02*
X130630000Y-169880000I0J-150000D01*
G01*
X130630000Y-171555000D01*
G75*
G02*
X130480000Y-171705000I-150000J0D01*
G01*
G37*
G36*
G01*
X130480000Y-178630000D02*
X130180000Y-178630000D01*
G75*
G02*
X130030000Y-178480000I0J150000D01*
G01*
X130030000Y-176805000D01*
G75*
G02*
X130180000Y-176655000I150000J0D01*
G01*
X130480000Y-176655000D01*
G75*
G02*
X130630000Y-176805000I0J-150000D01*
G01*
X130630000Y-178480000D01*
G75*
G02*
X130480000Y-178630000I-150000J0D01*
G01*
G37*
G36*
G01*
X129210000Y-178630000D02*
X128910000Y-178630000D01*
G75*
G02*
X128760000Y-178480000I0J150000D01*
G01*
X128760000Y-176805000D01*
G75*
G02*
X128910000Y-176655000I150000J0D01*
G01*
X129210000Y-176655000D01*
G75*
G02*
X129360000Y-176805000I0J-150000D01*
G01*
X129360000Y-178480000D01*
G75*
G02*
X129210000Y-178630000I-150000J0D01*
G01*
G37*
G36*
G01*
X127940000Y-178630000D02*
X127640000Y-178630000D01*
G75*
G02*
X127490000Y-178480000I0J150000D01*
G01*
X127490000Y-176805000D01*
G75*
G02*
X127640000Y-176655000I150000J0D01*
G01*
X127940000Y-176655000D01*
G75*
G02*
X128090000Y-176805000I0J-150000D01*
G01*
X128090000Y-178480000D01*
G75*
G02*
X127940000Y-178630000I-150000J0D01*
G01*
G37*
G36*
G01*
X126670000Y-178630000D02*
X126370000Y-178630000D01*
G75*
G02*
X126220000Y-178480000I0J150000D01*
G01*
X126220000Y-176805000D01*
G75*
G02*
X126370000Y-176655000I150000J0D01*
G01*
X126670000Y-176655000D01*
G75*
G02*
X126820000Y-176805000I0J-150000D01*
G01*
X126820000Y-178480000D01*
G75*
G02*
X126670000Y-178630000I-150000J0D01*
G01*
G37*
G36*
G01*
X125400000Y-178630000D02*
X125100000Y-178630000D01*
G75*
G02*
X124950000Y-178480000I0J150000D01*
G01*
X124950000Y-176805000D01*
G75*
G02*
X125100000Y-176655000I150000J0D01*
G01*
X125400000Y-176655000D01*
G75*
G02*
X125550000Y-176805000I0J-150000D01*
G01*
X125550000Y-178480000D01*
G75*
G02*
X125400000Y-178630000I-150000J0D01*
G01*
G37*
G36*
G01*
X124130000Y-178630000D02*
X123830000Y-178630000D01*
G75*
G02*
X123680000Y-178480000I0J150000D01*
G01*
X123680000Y-176805000D01*
G75*
G02*
X123830000Y-176655000I150000J0D01*
G01*
X124130000Y-176655000D01*
G75*
G02*
X124280000Y-176805000I0J-150000D01*
G01*
X124280000Y-178480000D01*
G75*
G02*
X124130000Y-178630000I-150000J0D01*
G01*
G37*
G36*
G01*
X122860000Y-178630000D02*
X122560000Y-178630000D01*
G75*
G02*
X122410000Y-178480000I0J150000D01*
G01*
X122410000Y-176805000D01*
G75*
G02*
X122560000Y-176655000I150000J0D01*
G01*
X122860000Y-176655000D01*
G75*
G02*
X123010000Y-176805000I0J-150000D01*
G01*
X123010000Y-178480000D01*
G75*
G02*
X122860000Y-178630000I-150000J0D01*
G01*
G37*
%TD*%
%TO.C,U12*%
G36*
G01*
X138100000Y-171705000D02*
X137800000Y-171705000D01*
G75*
G02*
X137650000Y-171555000I0J150000D01*
G01*
X137650000Y-169880000D01*
G75*
G02*
X137800000Y-169730000I150000J0D01*
G01*
X138100000Y-169730000D01*
G75*
G02*
X138250000Y-169880000I0J-150000D01*
G01*
X138250000Y-171555000D01*
G75*
G02*
X138100000Y-171705000I-150000J0D01*
G01*
G37*
G36*
G01*
X139370000Y-171705000D02*
X139070000Y-171705000D01*
G75*
G02*
X138920000Y-171555000I0J150000D01*
G01*
X138920000Y-169880000D01*
G75*
G02*
X139070000Y-169730000I150000J0D01*
G01*
X139370000Y-169730000D01*
G75*
G02*
X139520000Y-169880000I0J-150000D01*
G01*
X139520000Y-171555000D01*
G75*
G02*
X139370000Y-171705000I-150000J0D01*
G01*
G37*
G36*
G01*
X140640000Y-171705000D02*
X140340000Y-171705000D01*
G75*
G02*
X140190000Y-171555000I0J150000D01*
G01*
X140190000Y-169880000D01*
G75*
G02*
X140340000Y-169730000I150000J0D01*
G01*
X140640000Y-169730000D01*
G75*
G02*
X140790000Y-169880000I0J-150000D01*
G01*
X140790000Y-171555000D01*
G75*
G02*
X140640000Y-171705000I-150000J0D01*
G01*
G37*
G36*
G01*
X141910000Y-171705000D02*
X141610000Y-171705000D01*
G75*
G02*
X141460000Y-171555000I0J150000D01*
G01*
X141460000Y-169880000D01*
G75*
G02*
X141610000Y-169730000I150000J0D01*
G01*
X141910000Y-169730000D01*
G75*
G02*
X142060000Y-169880000I0J-150000D01*
G01*
X142060000Y-171555000D01*
G75*
G02*
X141910000Y-171705000I-150000J0D01*
G01*
G37*
G36*
G01*
X143180000Y-171705000D02*
X142880000Y-171705000D01*
G75*
G02*
X142730000Y-171555000I0J150000D01*
G01*
X142730000Y-169880000D01*
G75*
G02*
X142880000Y-169730000I150000J0D01*
G01*
X143180000Y-169730000D01*
G75*
G02*
X143330000Y-169880000I0J-150000D01*
G01*
X143330000Y-171555000D01*
G75*
G02*
X143180000Y-171705000I-150000J0D01*
G01*
G37*
G36*
G01*
X144450000Y-171705000D02*
X144150000Y-171705000D01*
G75*
G02*
X144000000Y-171555000I0J150000D01*
G01*
X144000000Y-169880000D01*
G75*
G02*
X144150000Y-169730000I150000J0D01*
G01*
X144450000Y-169730000D01*
G75*
G02*
X144600000Y-169880000I0J-150000D01*
G01*
X144600000Y-171555000D01*
G75*
G02*
X144450000Y-171705000I-150000J0D01*
G01*
G37*
G36*
G01*
X145720000Y-171705000D02*
X145420000Y-171705000D01*
G75*
G02*
X145270000Y-171555000I0J150000D01*
G01*
X145270000Y-169880000D01*
G75*
G02*
X145420000Y-169730000I150000J0D01*
G01*
X145720000Y-169730000D01*
G75*
G02*
X145870000Y-169880000I0J-150000D01*
G01*
X145870000Y-171555000D01*
G75*
G02*
X145720000Y-171705000I-150000J0D01*
G01*
G37*
G36*
G01*
X145720000Y-178630000D02*
X145420000Y-178630000D01*
G75*
G02*
X145270000Y-178480000I0J150000D01*
G01*
X145270000Y-176805000D01*
G75*
G02*
X145420000Y-176655000I150000J0D01*
G01*
X145720000Y-176655000D01*
G75*
G02*
X145870000Y-176805000I0J-150000D01*
G01*
X145870000Y-178480000D01*
G75*
G02*
X145720000Y-178630000I-150000J0D01*
G01*
G37*
G36*
G01*
X144450000Y-178630000D02*
X144150000Y-178630000D01*
G75*
G02*
X144000000Y-178480000I0J150000D01*
G01*
X144000000Y-176805000D01*
G75*
G02*
X144150000Y-176655000I150000J0D01*
G01*
X144450000Y-176655000D01*
G75*
G02*
X144600000Y-176805000I0J-150000D01*
G01*
X144600000Y-178480000D01*
G75*
G02*
X144450000Y-178630000I-150000J0D01*
G01*
G37*
G36*
G01*
X143180000Y-178630000D02*
X142880000Y-178630000D01*
G75*
G02*
X142730000Y-178480000I0J150000D01*
G01*
X142730000Y-176805000D01*
G75*
G02*
X142880000Y-176655000I150000J0D01*
G01*
X143180000Y-176655000D01*
G75*
G02*
X143330000Y-176805000I0J-150000D01*
G01*
X143330000Y-178480000D01*
G75*
G02*
X143180000Y-178630000I-150000J0D01*
G01*
G37*
G36*
G01*
X141910000Y-178630000D02*
X141610000Y-178630000D01*
G75*
G02*
X141460000Y-178480000I0J150000D01*
G01*
X141460000Y-176805000D01*
G75*
G02*
X141610000Y-176655000I150000J0D01*
G01*
X141910000Y-176655000D01*
G75*
G02*
X142060000Y-176805000I0J-150000D01*
G01*
X142060000Y-178480000D01*
G75*
G02*
X141910000Y-178630000I-150000J0D01*
G01*
G37*
G36*
G01*
X140640000Y-178630000D02*
X140340000Y-178630000D01*
G75*
G02*
X140190000Y-178480000I0J150000D01*
G01*
X140190000Y-176805000D01*
G75*
G02*
X140340000Y-176655000I150000J0D01*
G01*
X140640000Y-176655000D01*
G75*
G02*
X140790000Y-176805000I0J-150000D01*
G01*
X140790000Y-178480000D01*
G75*
G02*
X140640000Y-178630000I-150000J0D01*
G01*
G37*
G36*
G01*
X139370000Y-178630000D02*
X139070000Y-178630000D01*
G75*
G02*
X138920000Y-178480000I0J150000D01*
G01*
X138920000Y-176805000D01*
G75*
G02*
X139070000Y-176655000I150000J0D01*
G01*
X139370000Y-176655000D01*
G75*
G02*
X139520000Y-176805000I0J-150000D01*
G01*
X139520000Y-178480000D01*
G75*
G02*
X139370000Y-178630000I-150000J0D01*
G01*
G37*
G36*
G01*
X138100000Y-178630000D02*
X137800000Y-178630000D01*
G75*
G02*
X137650000Y-178480000I0J150000D01*
G01*
X137650000Y-176805000D01*
G75*
G02*
X137800000Y-176655000I150000J0D01*
G01*
X138100000Y-176655000D01*
G75*
G02*
X138250000Y-176805000I0J-150000D01*
G01*
X138250000Y-178480000D01*
G75*
G02*
X138100000Y-178630000I-150000J0D01*
G01*
G37*
%TD*%
%TO.C,U11*%
G36*
G01*
X107620000Y-171705000D02*
X107320000Y-171705000D01*
G75*
G02*
X107170000Y-171555000I0J150000D01*
G01*
X107170000Y-169880000D01*
G75*
G02*
X107320000Y-169730000I150000J0D01*
G01*
X107620000Y-169730000D01*
G75*
G02*
X107770000Y-169880000I0J-150000D01*
G01*
X107770000Y-171555000D01*
G75*
G02*
X107620000Y-171705000I-150000J0D01*
G01*
G37*
G36*
G01*
X108890000Y-171705000D02*
X108590000Y-171705000D01*
G75*
G02*
X108440000Y-171555000I0J150000D01*
G01*
X108440000Y-169880000D01*
G75*
G02*
X108590000Y-169730000I150000J0D01*
G01*
X108890000Y-169730000D01*
G75*
G02*
X109040000Y-169880000I0J-150000D01*
G01*
X109040000Y-171555000D01*
G75*
G02*
X108890000Y-171705000I-150000J0D01*
G01*
G37*
G36*
G01*
X110160000Y-171705000D02*
X109860000Y-171705000D01*
G75*
G02*
X109710000Y-171555000I0J150000D01*
G01*
X109710000Y-169880000D01*
G75*
G02*
X109860000Y-169730000I150000J0D01*
G01*
X110160000Y-169730000D01*
G75*
G02*
X110310000Y-169880000I0J-150000D01*
G01*
X110310000Y-171555000D01*
G75*
G02*
X110160000Y-171705000I-150000J0D01*
G01*
G37*
G36*
G01*
X111430000Y-171705000D02*
X111130000Y-171705000D01*
G75*
G02*
X110980000Y-171555000I0J150000D01*
G01*
X110980000Y-169880000D01*
G75*
G02*
X111130000Y-169730000I150000J0D01*
G01*
X111430000Y-169730000D01*
G75*
G02*
X111580000Y-169880000I0J-150000D01*
G01*
X111580000Y-171555000D01*
G75*
G02*
X111430000Y-171705000I-150000J0D01*
G01*
G37*
G36*
G01*
X112700000Y-171705000D02*
X112400000Y-171705000D01*
G75*
G02*
X112250000Y-171555000I0J150000D01*
G01*
X112250000Y-169880000D01*
G75*
G02*
X112400000Y-169730000I150000J0D01*
G01*
X112700000Y-169730000D01*
G75*
G02*
X112850000Y-169880000I0J-150000D01*
G01*
X112850000Y-171555000D01*
G75*
G02*
X112700000Y-171705000I-150000J0D01*
G01*
G37*
G36*
G01*
X113970000Y-171705000D02*
X113670000Y-171705000D01*
G75*
G02*
X113520000Y-171555000I0J150000D01*
G01*
X113520000Y-169880000D01*
G75*
G02*
X113670000Y-169730000I150000J0D01*
G01*
X113970000Y-169730000D01*
G75*
G02*
X114120000Y-169880000I0J-150000D01*
G01*
X114120000Y-171555000D01*
G75*
G02*
X113970000Y-171705000I-150000J0D01*
G01*
G37*
G36*
G01*
X115240000Y-171705000D02*
X114940000Y-171705000D01*
G75*
G02*
X114790000Y-171555000I0J150000D01*
G01*
X114790000Y-169880000D01*
G75*
G02*
X114940000Y-169730000I150000J0D01*
G01*
X115240000Y-169730000D01*
G75*
G02*
X115390000Y-169880000I0J-150000D01*
G01*
X115390000Y-171555000D01*
G75*
G02*
X115240000Y-171705000I-150000J0D01*
G01*
G37*
G36*
G01*
X115240000Y-178630000D02*
X114940000Y-178630000D01*
G75*
G02*
X114790000Y-178480000I0J150000D01*
G01*
X114790000Y-176805000D01*
G75*
G02*
X114940000Y-176655000I150000J0D01*
G01*
X115240000Y-176655000D01*
G75*
G02*
X115390000Y-176805000I0J-150000D01*
G01*
X115390000Y-178480000D01*
G75*
G02*
X115240000Y-178630000I-150000J0D01*
G01*
G37*
G36*
G01*
X113970000Y-178630000D02*
X113670000Y-178630000D01*
G75*
G02*
X113520000Y-178480000I0J150000D01*
G01*
X113520000Y-176805000D01*
G75*
G02*
X113670000Y-176655000I150000J0D01*
G01*
X113970000Y-176655000D01*
G75*
G02*
X114120000Y-176805000I0J-150000D01*
G01*
X114120000Y-178480000D01*
G75*
G02*
X113970000Y-178630000I-150000J0D01*
G01*
G37*
G36*
G01*
X112700000Y-178630000D02*
X112400000Y-178630000D01*
G75*
G02*
X112250000Y-178480000I0J150000D01*
G01*
X112250000Y-176805000D01*
G75*
G02*
X112400000Y-176655000I150000J0D01*
G01*
X112700000Y-176655000D01*
G75*
G02*
X112850000Y-176805000I0J-150000D01*
G01*
X112850000Y-178480000D01*
G75*
G02*
X112700000Y-178630000I-150000J0D01*
G01*
G37*
G36*
G01*
X111430000Y-178630000D02*
X111130000Y-178630000D01*
G75*
G02*
X110980000Y-178480000I0J150000D01*
G01*
X110980000Y-176805000D01*
G75*
G02*
X111130000Y-176655000I150000J0D01*
G01*
X111430000Y-176655000D01*
G75*
G02*
X111580000Y-176805000I0J-150000D01*
G01*
X111580000Y-178480000D01*
G75*
G02*
X111430000Y-178630000I-150000J0D01*
G01*
G37*
G36*
G01*
X110160000Y-178630000D02*
X109860000Y-178630000D01*
G75*
G02*
X109710000Y-178480000I0J150000D01*
G01*
X109710000Y-176805000D01*
G75*
G02*
X109860000Y-176655000I150000J0D01*
G01*
X110160000Y-176655000D01*
G75*
G02*
X110310000Y-176805000I0J-150000D01*
G01*
X110310000Y-178480000D01*
G75*
G02*
X110160000Y-178630000I-150000J0D01*
G01*
G37*
G36*
G01*
X108890000Y-178630000D02*
X108590000Y-178630000D01*
G75*
G02*
X108440000Y-178480000I0J150000D01*
G01*
X108440000Y-176805000D01*
G75*
G02*
X108590000Y-176655000I150000J0D01*
G01*
X108890000Y-176655000D01*
G75*
G02*
X109040000Y-176805000I0J-150000D01*
G01*
X109040000Y-178480000D01*
G75*
G02*
X108890000Y-178630000I-150000J0D01*
G01*
G37*
G36*
G01*
X107620000Y-178630000D02*
X107320000Y-178630000D01*
G75*
G02*
X107170000Y-178480000I0J150000D01*
G01*
X107170000Y-176805000D01*
G75*
G02*
X107320000Y-176655000I150000J0D01*
G01*
X107620000Y-176655000D01*
G75*
G02*
X107770000Y-176805000I0J-150000D01*
G01*
X107770000Y-178480000D01*
G75*
G02*
X107620000Y-178630000I-150000J0D01*
G01*
G37*
%TD*%
%TO.C,U9*%
G36*
G01*
X87300000Y-171705000D02*
X87000000Y-171705000D01*
G75*
G02*
X86850000Y-171555000I0J150000D01*
G01*
X86850000Y-169880000D01*
G75*
G02*
X87000000Y-169730000I150000J0D01*
G01*
X87300000Y-169730000D01*
G75*
G02*
X87450000Y-169880000I0J-150000D01*
G01*
X87450000Y-171555000D01*
G75*
G02*
X87300000Y-171705000I-150000J0D01*
G01*
G37*
G36*
G01*
X88570000Y-171705000D02*
X88270000Y-171705000D01*
G75*
G02*
X88120000Y-171555000I0J150000D01*
G01*
X88120000Y-169880000D01*
G75*
G02*
X88270000Y-169730000I150000J0D01*
G01*
X88570000Y-169730000D01*
G75*
G02*
X88720000Y-169880000I0J-150000D01*
G01*
X88720000Y-171555000D01*
G75*
G02*
X88570000Y-171705000I-150000J0D01*
G01*
G37*
G36*
G01*
X89840000Y-171705000D02*
X89540000Y-171705000D01*
G75*
G02*
X89390000Y-171555000I0J150000D01*
G01*
X89390000Y-169880000D01*
G75*
G02*
X89540000Y-169730000I150000J0D01*
G01*
X89840000Y-169730000D01*
G75*
G02*
X89990000Y-169880000I0J-150000D01*
G01*
X89990000Y-171555000D01*
G75*
G02*
X89840000Y-171705000I-150000J0D01*
G01*
G37*
G36*
G01*
X91110000Y-171705000D02*
X90810000Y-171705000D01*
G75*
G02*
X90660000Y-171555000I0J150000D01*
G01*
X90660000Y-169880000D01*
G75*
G02*
X90810000Y-169730000I150000J0D01*
G01*
X91110000Y-169730000D01*
G75*
G02*
X91260000Y-169880000I0J-150000D01*
G01*
X91260000Y-171555000D01*
G75*
G02*
X91110000Y-171705000I-150000J0D01*
G01*
G37*
G36*
G01*
X92380000Y-171705000D02*
X92080000Y-171705000D01*
G75*
G02*
X91930000Y-171555000I0J150000D01*
G01*
X91930000Y-169880000D01*
G75*
G02*
X92080000Y-169730000I150000J0D01*
G01*
X92380000Y-169730000D01*
G75*
G02*
X92530000Y-169880000I0J-150000D01*
G01*
X92530000Y-171555000D01*
G75*
G02*
X92380000Y-171705000I-150000J0D01*
G01*
G37*
G36*
G01*
X93650000Y-171705000D02*
X93350000Y-171705000D01*
G75*
G02*
X93200000Y-171555000I0J150000D01*
G01*
X93200000Y-169880000D01*
G75*
G02*
X93350000Y-169730000I150000J0D01*
G01*
X93650000Y-169730000D01*
G75*
G02*
X93800000Y-169880000I0J-150000D01*
G01*
X93800000Y-171555000D01*
G75*
G02*
X93650000Y-171705000I-150000J0D01*
G01*
G37*
G36*
G01*
X94920000Y-171705000D02*
X94620000Y-171705000D01*
G75*
G02*
X94470000Y-171555000I0J150000D01*
G01*
X94470000Y-169880000D01*
G75*
G02*
X94620000Y-169730000I150000J0D01*
G01*
X94920000Y-169730000D01*
G75*
G02*
X95070000Y-169880000I0J-150000D01*
G01*
X95070000Y-171555000D01*
G75*
G02*
X94920000Y-171705000I-150000J0D01*
G01*
G37*
G36*
G01*
X94920000Y-178630000D02*
X94620000Y-178630000D01*
G75*
G02*
X94470000Y-178480000I0J150000D01*
G01*
X94470000Y-176805000D01*
G75*
G02*
X94620000Y-176655000I150000J0D01*
G01*
X94920000Y-176655000D01*
G75*
G02*
X95070000Y-176805000I0J-150000D01*
G01*
X95070000Y-178480000D01*
G75*
G02*
X94920000Y-178630000I-150000J0D01*
G01*
G37*
G36*
G01*
X93650000Y-178630000D02*
X93350000Y-178630000D01*
G75*
G02*
X93200000Y-178480000I0J150000D01*
G01*
X93200000Y-176805000D01*
G75*
G02*
X93350000Y-176655000I150000J0D01*
G01*
X93650000Y-176655000D01*
G75*
G02*
X93800000Y-176805000I0J-150000D01*
G01*
X93800000Y-178480000D01*
G75*
G02*
X93650000Y-178630000I-150000J0D01*
G01*
G37*
G36*
G01*
X92380000Y-178630000D02*
X92080000Y-178630000D01*
G75*
G02*
X91930000Y-178480000I0J150000D01*
G01*
X91930000Y-176805000D01*
G75*
G02*
X92080000Y-176655000I150000J0D01*
G01*
X92380000Y-176655000D01*
G75*
G02*
X92530000Y-176805000I0J-150000D01*
G01*
X92530000Y-178480000D01*
G75*
G02*
X92380000Y-178630000I-150000J0D01*
G01*
G37*
G36*
G01*
X91110000Y-178630000D02*
X90810000Y-178630000D01*
G75*
G02*
X90660000Y-178480000I0J150000D01*
G01*
X90660000Y-176805000D01*
G75*
G02*
X90810000Y-176655000I150000J0D01*
G01*
X91110000Y-176655000D01*
G75*
G02*
X91260000Y-176805000I0J-150000D01*
G01*
X91260000Y-178480000D01*
G75*
G02*
X91110000Y-178630000I-150000J0D01*
G01*
G37*
G36*
G01*
X89840000Y-178630000D02*
X89540000Y-178630000D01*
G75*
G02*
X89390000Y-178480000I0J150000D01*
G01*
X89390000Y-176805000D01*
G75*
G02*
X89540000Y-176655000I150000J0D01*
G01*
X89840000Y-176655000D01*
G75*
G02*
X89990000Y-176805000I0J-150000D01*
G01*
X89990000Y-178480000D01*
G75*
G02*
X89840000Y-178630000I-150000J0D01*
G01*
G37*
G36*
G01*
X88570000Y-178630000D02*
X88270000Y-178630000D01*
G75*
G02*
X88120000Y-178480000I0J150000D01*
G01*
X88120000Y-176805000D01*
G75*
G02*
X88270000Y-176655000I150000J0D01*
G01*
X88570000Y-176655000D01*
G75*
G02*
X88720000Y-176805000I0J-150000D01*
G01*
X88720000Y-178480000D01*
G75*
G02*
X88570000Y-178630000I-150000J0D01*
G01*
G37*
G36*
G01*
X87300000Y-178630000D02*
X87000000Y-178630000D01*
G75*
G02*
X86850000Y-178480000I0J150000D01*
G01*
X86850000Y-176805000D01*
G75*
G02*
X87000000Y-176655000I150000J0D01*
G01*
X87300000Y-176655000D01*
G75*
G02*
X87450000Y-176805000I0J-150000D01*
G01*
X87450000Y-178480000D01*
G75*
G02*
X87300000Y-178630000I-150000J0D01*
G01*
G37*
%TD*%
%TO.C,U8*%
G36*
G01*
X56820000Y-171705000D02*
X56520000Y-171705000D01*
G75*
G02*
X56370000Y-171555000I0J150000D01*
G01*
X56370000Y-169880000D01*
G75*
G02*
X56520000Y-169730000I150000J0D01*
G01*
X56820000Y-169730000D01*
G75*
G02*
X56970000Y-169880000I0J-150000D01*
G01*
X56970000Y-171555000D01*
G75*
G02*
X56820000Y-171705000I-150000J0D01*
G01*
G37*
G36*
G01*
X58090000Y-171705000D02*
X57790000Y-171705000D01*
G75*
G02*
X57640000Y-171555000I0J150000D01*
G01*
X57640000Y-169880000D01*
G75*
G02*
X57790000Y-169730000I150000J0D01*
G01*
X58090000Y-169730000D01*
G75*
G02*
X58240000Y-169880000I0J-150000D01*
G01*
X58240000Y-171555000D01*
G75*
G02*
X58090000Y-171705000I-150000J0D01*
G01*
G37*
G36*
G01*
X59360000Y-171705000D02*
X59060000Y-171705000D01*
G75*
G02*
X58910000Y-171555000I0J150000D01*
G01*
X58910000Y-169880000D01*
G75*
G02*
X59060000Y-169730000I150000J0D01*
G01*
X59360000Y-169730000D01*
G75*
G02*
X59510000Y-169880000I0J-150000D01*
G01*
X59510000Y-171555000D01*
G75*
G02*
X59360000Y-171705000I-150000J0D01*
G01*
G37*
G36*
G01*
X60630000Y-171705000D02*
X60330000Y-171705000D01*
G75*
G02*
X60180000Y-171555000I0J150000D01*
G01*
X60180000Y-169880000D01*
G75*
G02*
X60330000Y-169730000I150000J0D01*
G01*
X60630000Y-169730000D01*
G75*
G02*
X60780000Y-169880000I0J-150000D01*
G01*
X60780000Y-171555000D01*
G75*
G02*
X60630000Y-171705000I-150000J0D01*
G01*
G37*
G36*
G01*
X61900000Y-171705000D02*
X61600000Y-171705000D01*
G75*
G02*
X61450000Y-171555000I0J150000D01*
G01*
X61450000Y-169880000D01*
G75*
G02*
X61600000Y-169730000I150000J0D01*
G01*
X61900000Y-169730000D01*
G75*
G02*
X62050000Y-169880000I0J-150000D01*
G01*
X62050000Y-171555000D01*
G75*
G02*
X61900000Y-171705000I-150000J0D01*
G01*
G37*
G36*
G01*
X63170000Y-171705000D02*
X62870000Y-171705000D01*
G75*
G02*
X62720000Y-171555000I0J150000D01*
G01*
X62720000Y-169880000D01*
G75*
G02*
X62870000Y-169730000I150000J0D01*
G01*
X63170000Y-169730000D01*
G75*
G02*
X63320000Y-169880000I0J-150000D01*
G01*
X63320000Y-171555000D01*
G75*
G02*
X63170000Y-171705000I-150000J0D01*
G01*
G37*
G36*
G01*
X64440000Y-171705000D02*
X64140000Y-171705000D01*
G75*
G02*
X63990000Y-171555000I0J150000D01*
G01*
X63990000Y-169880000D01*
G75*
G02*
X64140000Y-169730000I150000J0D01*
G01*
X64440000Y-169730000D01*
G75*
G02*
X64590000Y-169880000I0J-150000D01*
G01*
X64590000Y-171555000D01*
G75*
G02*
X64440000Y-171705000I-150000J0D01*
G01*
G37*
G36*
G01*
X64440000Y-178630000D02*
X64140000Y-178630000D01*
G75*
G02*
X63990000Y-178480000I0J150000D01*
G01*
X63990000Y-176805000D01*
G75*
G02*
X64140000Y-176655000I150000J0D01*
G01*
X64440000Y-176655000D01*
G75*
G02*
X64590000Y-176805000I0J-150000D01*
G01*
X64590000Y-178480000D01*
G75*
G02*
X64440000Y-178630000I-150000J0D01*
G01*
G37*
G36*
G01*
X63170000Y-178630000D02*
X62870000Y-178630000D01*
G75*
G02*
X62720000Y-178480000I0J150000D01*
G01*
X62720000Y-176805000D01*
G75*
G02*
X62870000Y-176655000I150000J0D01*
G01*
X63170000Y-176655000D01*
G75*
G02*
X63320000Y-176805000I0J-150000D01*
G01*
X63320000Y-178480000D01*
G75*
G02*
X63170000Y-178630000I-150000J0D01*
G01*
G37*
G36*
G01*
X61900000Y-178630000D02*
X61600000Y-178630000D01*
G75*
G02*
X61450000Y-178480000I0J150000D01*
G01*
X61450000Y-176805000D01*
G75*
G02*
X61600000Y-176655000I150000J0D01*
G01*
X61900000Y-176655000D01*
G75*
G02*
X62050000Y-176805000I0J-150000D01*
G01*
X62050000Y-178480000D01*
G75*
G02*
X61900000Y-178630000I-150000J0D01*
G01*
G37*
G36*
G01*
X60630000Y-178630000D02*
X60330000Y-178630000D01*
G75*
G02*
X60180000Y-178480000I0J150000D01*
G01*
X60180000Y-176805000D01*
G75*
G02*
X60330000Y-176655000I150000J0D01*
G01*
X60630000Y-176655000D01*
G75*
G02*
X60780000Y-176805000I0J-150000D01*
G01*
X60780000Y-178480000D01*
G75*
G02*
X60630000Y-178630000I-150000J0D01*
G01*
G37*
G36*
G01*
X59360000Y-178630000D02*
X59060000Y-178630000D01*
G75*
G02*
X58910000Y-178480000I0J150000D01*
G01*
X58910000Y-176805000D01*
G75*
G02*
X59060000Y-176655000I150000J0D01*
G01*
X59360000Y-176655000D01*
G75*
G02*
X59510000Y-176805000I0J-150000D01*
G01*
X59510000Y-178480000D01*
G75*
G02*
X59360000Y-178630000I-150000J0D01*
G01*
G37*
G36*
G01*
X58090000Y-178630000D02*
X57790000Y-178630000D01*
G75*
G02*
X57640000Y-178480000I0J150000D01*
G01*
X57640000Y-176805000D01*
G75*
G02*
X57790000Y-176655000I150000J0D01*
G01*
X58090000Y-176655000D01*
G75*
G02*
X58240000Y-176805000I0J-150000D01*
G01*
X58240000Y-178480000D01*
G75*
G02*
X58090000Y-178630000I-150000J0D01*
G01*
G37*
G36*
G01*
X56820000Y-178630000D02*
X56520000Y-178630000D01*
G75*
G02*
X56370000Y-178480000I0J150000D01*
G01*
X56370000Y-176805000D01*
G75*
G02*
X56520000Y-176655000I150000J0D01*
G01*
X56820000Y-176655000D01*
G75*
G02*
X56970000Y-176805000I0J-150000D01*
G01*
X56970000Y-178480000D01*
G75*
G02*
X56820000Y-178630000I-150000J0D01*
G01*
G37*
%TD*%
%TO.C,U7*%
G36*
G01*
X72060000Y-171705000D02*
X71760000Y-171705000D01*
G75*
G02*
X71610000Y-171555000I0J150000D01*
G01*
X71610000Y-169880000D01*
G75*
G02*
X71760000Y-169730000I150000J0D01*
G01*
X72060000Y-169730000D01*
G75*
G02*
X72210000Y-169880000I0J-150000D01*
G01*
X72210000Y-171555000D01*
G75*
G02*
X72060000Y-171705000I-150000J0D01*
G01*
G37*
G36*
G01*
X73330000Y-171705000D02*
X73030000Y-171705000D01*
G75*
G02*
X72880000Y-171555000I0J150000D01*
G01*
X72880000Y-169880000D01*
G75*
G02*
X73030000Y-169730000I150000J0D01*
G01*
X73330000Y-169730000D01*
G75*
G02*
X73480000Y-169880000I0J-150000D01*
G01*
X73480000Y-171555000D01*
G75*
G02*
X73330000Y-171705000I-150000J0D01*
G01*
G37*
G36*
G01*
X74600000Y-171705000D02*
X74300000Y-171705000D01*
G75*
G02*
X74150000Y-171555000I0J150000D01*
G01*
X74150000Y-169880000D01*
G75*
G02*
X74300000Y-169730000I150000J0D01*
G01*
X74600000Y-169730000D01*
G75*
G02*
X74750000Y-169880000I0J-150000D01*
G01*
X74750000Y-171555000D01*
G75*
G02*
X74600000Y-171705000I-150000J0D01*
G01*
G37*
G36*
G01*
X75870000Y-171705000D02*
X75570000Y-171705000D01*
G75*
G02*
X75420000Y-171555000I0J150000D01*
G01*
X75420000Y-169880000D01*
G75*
G02*
X75570000Y-169730000I150000J0D01*
G01*
X75870000Y-169730000D01*
G75*
G02*
X76020000Y-169880000I0J-150000D01*
G01*
X76020000Y-171555000D01*
G75*
G02*
X75870000Y-171705000I-150000J0D01*
G01*
G37*
G36*
G01*
X77140000Y-171705000D02*
X76840000Y-171705000D01*
G75*
G02*
X76690000Y-171555000I0J150000D01*
G01*
X76690000Y-169880000D01*
G75*
G02*
X76840000Y-169730000I150000J0D01*
G01*
X77140000Y-169730000D01*
G75*
G02*
X77290000Y-169880000I0J-150000D01*
G01*
X77290000Y-171555000D01*
G75*
G02*
X77140000Y-171705000I-150000J0D01*
G01*
G37*
G36*
G01*
X78410000Y-171705000D02*
X78110000Y-171705000D01*
G75*
G02*
X77960000Y-171555000I0J150000D01*
G01*
X77960000Y-169880000D01*
G75*
G02*
X78110000Y-169730000I150000J0D01*
G01*
X78410000Y-169730000D01*
G75*
G02*
X78560000Y-169880000I0J-150000D01*
G01*
X78560000Y-171555000D01*
G75*
G02*
X78410000Y-171705000I-150000J0D01*
G01*
G37*
G36*
G01*
X79680000Y-171705000D02*
X79380000Y-171705000D01*
G75*
G02*
X79230000Y-171555000I0J150000D01*
G01*
X79230000Y-169880000D01*
G75*
G02*
X79380000Y-169730000I150000J0D01*
G01*
X79680000Y-169730000D01*
G75*
G02*
X79830000Y-169880000I0J-150000D01*
G01*
X79830000Y-171555000D01*
G75*
G02*
X79680000Y-171705000I-150000J0D01*
G01*
G37*
G36*
G01*
X79680000Y-178630000D02*
X79380000Y-178630000D01*
G75*
G02*
X79230000Y-178480000I0J150000D01*
G01*
X79230000Y-176805000D01*
G75*
G02*
X79380000Y-176655000I150000J0D01*
G01*
X79680000Y-176655000D01*
G75*
G02*
X79830000Y-176805000I0J-150000D01*
G01*
X79830000Y-178480000D01*
G75*
G02*
X79680000Y-178630000I-150000J0D01*
G01*
G37*
G36*
G01*
X78410000Y-178630000D02*
X78110000Y-178630000D01*
G75*
G02*
X77960000Y-178480000I0J150000D01*
G01*
X77960000Y-176805000D01*
G75*
G02*
X78110000Y-176655000I150000J0D01*
G01*
X78410000Y-176655000D01*
G75*
G02*
X78560000Y-176805000I0J-150000D01*
G01*
X78560000Y-178480000D01*
G75*
G02*
X78410000Y-178630000I-150000J0D01*
G01*
G37*
G36*
G01*
X77140000Y-178630000D02*
X76840000Y-178630000D01*
G75*
G02*
X76690000Y-178480000I0J150000D01*
G01*
X76690000Y-176805000D01*
G75*
G02*
X76840000Y-176655000I150000J0D01*
G01*
X77140000Y-176655000D01*
G75*
G02*
X77290000Y-176805000I0J-150000D01*
G01*
X77290000Y-178480000D01*
G75*
G02*
X77140000Y-178630000I-150000J0D01*
G01*
G37*
G36*
G01*
X75870000Y-178630000D02*
X75570000Y-178630000D01*
G75*
G02*
X75420000Y-178480000I0J150000D01*
G01*
X75420000Y-176805000D01*
G75*
G02*
X75570000Y-176655000I150000J0D01*
G01*
X75870000Y-176655000D01*
G75*
G02*
X76020000Y-176805000I0J-150000D01*
G01*
X76020000Y-178480000D01*
G75*
G02*
X75870000Y-178630000I-150000J0D01*
G01*
G37*
G36*
G01*
X74600000Y-178630000D02*
X74300000Y-178630000D01*
G75*
G02*
X74150000Y-178480000I0J150000D01*
G01*
X74150000Y-176805000D01*
G75*
G02*
X74300000Y-176655000I150000J0D01*
G01*
X74600000Y-176655000D01*
G75*
G02*
X74750000Y-176805000I0J-150000D01*
G01*
X74750000Y-178480000D01*
G75*
G02*
X74600000Y-178630000I-150000J0D01*
G01*
G37*
G36*
G01*
X73330000Y-178630000D02*
X73030000Y-178630000D01*
G75*
G02*
X72880000Y-178480000I0J150000D01*
G01*
X72880000Y-176805000D01*
G75*
G02*
X73030000Y-176655000I150000J0D01*
G01*
X73330000Y-176655000D01*
G75*
G02*
X73480000Y-176805000I0J-150000D01*
G01*
X73480000Y-178480000D01*
G75*
G02*
X73330000Y-178630000I-150000J0D01*
G01*
G37*
G36*
G01*
X72060000Y-178630000D02*
X71760000Y-178630000D01*
G75*
G02*
X71610000Y-178480000I0J150000D01*
G01*
X71610000Y-176805000D01*
G75*
G02*
X71760000Y-176655000I150000J0D01*
G01*
X72060000Y-176655000D01*
G75*
G02*
X72210000Y-176805000I0J-150000D01*
G01*
X72210000Y-178480000D01*
G75*
G02*
X72060000Y-178630000I-150000J0D01*
G01*
G37*
%TD*%
%TO.C,U5*%
G36*
G01*
X41580000Y-171705000D02*
X41280000Y-171705000D01*
G75*
G02*
X41130000Y-171555000I0J150000D01*
G01*
X41130000Y-169880000D01*
G75*
G02*
X41280000Y-169730000I150000J0D01*
G01*
X41580000Y-169730000D01*
G75*
G02*
X41730000Y-169880000I0J-150000D01*
G01*
X41730000Y-171555000D01*
G75*
G02*
X41580000Y-171705000I-150000J0D01*
G01*
G37*
G36*
G01*
X42850000Y-171705000D02*
X42550000Y-171705000D01*
G75*
G02*
X42400000Y-171555000I0J150000D01*
G01*
X42400000Y-169880000D01*
G75*
G02*
X42550000Y-169730000I150000J0D01*
G01*
X42850000Y-169730000D01*
G75*
G02*
X43000000Y-169880000I0J-150000D01*
G01*
X43000000Y-171555000D01*
G75*
G02*
X42850000Y-171705000I-150000J0D01*
G01*
G37*
G36*
G01*
X44120000Y-171705000D02*
X43820000Y-171705000D01*
G75*
G02*
X43670000Y-171555000I0J150000D01*
G01*
X43670000Y-169880000D01*
G75*
G02*
X43820000Y-169730000I150000J0D01*
G01*
X44120000Y-169730000D01*
G75*
G02*
X44270000Y-169880000I0J-150000D01*
G01*
X44270000Y-171555000D01*
G75*
G02*
X44120000Y-171705000I-150000J0D01*
G01*
G37*
G36*
G01*
X45390000Y-171705000D02*
X45090000Y-171705000D01*
G75*
G02*
X44940000Y-171555000I0J150000D01*
G01*
X44940000Y-169880000D01*
G75*
G02*
X45090000Y-169730000I150000J0D01*
G01*
X45390000Y-169730000D01*
G75*
G02*
X45540000Y-169880000I0J-150000D01*
G01*
X45540000Y-171555000D01*
G75*
G02*
X45390000Y-171705000I-150000J0D01*
G01*
G37*
G36*
G01*
X46660000Y-171705000D02*
X46360000Y-171705000D01*
G75*
G02*
X46210000Y-171555000I0J150000D01*
G01*
X46210000Y-169880000D01*
G75*
G02*
X46360000Y-169730000I150000J0D01*
G01*
X46660000Y-169730000D01*
G75*
G02*
X46810000Y-169880000I0J-150000D01*
G01*
X46810000Y-171555000D01*
G75*
G02*
X46660000Y-171705000I-150000J0D01*
G01*
G37*
G36*
G01*
X47930000Y-171705000D02*
X47630000Y-171705000D01*
G75*
G02*
X47480000Y-171555000I0J150000D01*
G01*
X47480000Y-169880000D01*
G75*
G02*
X47630000Y-169730000I150000J0D01*
G01*
X47930000Y-169730000D01*
G75*
G02*
X48080000Y-169880000I0J-150000D01*
G01*
X48080000Y-171555000D01*
G75*
G02*
X47930000Y-171705000I-150000J0D01*
G01*
G37*
G36*
G01*
X49200000Y-171705000D02*
X48900000Y-171705000D01*
G75*
G02*
X48750000Y-171555000I0J150000D01*
G01*
X48750000Y-169880000D01*
G75*
G02*
X48900000Y-169730000I150000J0D01*
G01*
X49200000Y-169730000D01*
G75*
G02*
X49350000Y-169880000I0J-150000D01*
G01*
X49350000Y-171555000D01*
G75*
G02*
X49200000Y-171705000I-150000J0D01*
G01*
G37*
G36*
G01*
X49200000Y-178630000D02*
X48900000Y-178630000D01*
G75*
G02*
X48750000Y-178480000I0J150000D01*
G01*
X48750000Y-176805000D01*
G75*
G02*
X48900000Y-176655000I150000J0D01*
G01*
X49200000Y-176655000D01*
G75*
G02*
X49350000Y-176805000I0J-150000D01*
G01*
X49350000Y-178480000D01*
G75*
G02*
X49200000Y-178630000I-150000J0D01*
G01*
G37*
G36*
G01*
X47930000Y-178630000D02*
X47630000Y-178630000D01*
G75*
G02*
X47480000Y-178480000I0J150000D01*
G01*
X47480000Y-176805000D01*
G75*
G02*
X47630000Y-176655000I150000J0D01*
G01*
X47930000Y-176655000D01*
G75*
G02*
X48080000Y-176805000I0J-150000D01*
G01*
X48080000Y-178480000D01*
G75*
G02*
X47930000Y-178630000I-150000J0D01*
G01*
G37*
G36*
G01*
X46660000Y-178630000D02*
X46360000Y-178630000D01*
G75*
G02*
X46210000Y-178480000I0J150000D01*
G01*
X46210000Y-176805000D01*
G75*
G02*
X46360000Y-176655000I150000J0D01*
G01*
X46660000Y-176655000D01*
G75*
G02*
X46810000Y-176805000I0J-150000D01*
G01*
X46810000Y-178480000D01*
G75*
G02*
X46660000Y-178630000I-150000J0D01*
G01*
G37*
G36*
G01*
X45390000Y-178630000D02*
X45090000Y-178630000D01*
G75*
G02*
X44940000Y-178480000I0J150000D01*
G01*
X44940000Y-176805000D01*
G75*
G02*
X45090000Y-176655000I150000J0D01*
G01*
X45390000Y-176655000D01*
G75*
G02*
X45540000Y-176805000I0J-150000D01*
G01*
X45540000Y-178480000D01*
G75*
G02*
X45390000Y-178630000I-150000J0D01*
G01*
G37*
G36*
G01*
X44120000Y-178630000D02*
X43820000Y-178630000D01*
G75*
G02*
X43670000Y-178480000I0J150000D01*
G01*
X43670000Y-176805000D01*
G75*
G02*
X43820000Y-176655000I150000J0D01*
G01*
X44120000Y-176655000D01*
G75*
G02*
X44270000Y-176805000I0J-150000D01*
G01*
X44270000Y-178480000D01*
G75*
G02*
X44120000Y-178630000I-150000J0D01*
G01*
G37*
G36*
G01*
X42850000Y-178630000D02*
X42550000Y-178630000D01*
G75*
G02*
X42400000Y-178480000I0J150000D01*
G01*
X42400000Y-176805000D01*
G75*
G02*
X42550000Y-176655000I150000J0D01*
G01*
X42850000Y-176655000D01*
G75*
G02*
X43000000Y-176805000I0J-150000D01*
G01*
X43000000Y-178480000D01*
G75*
G02*
X42850000Y-178630000I-150000J0D01*
G01*
G37*
G36*
G01*
X41580000Y-178630000D02*
X41280000Y-178630000D01*
G75*
G02*
X41130000Y-178480000I0J150000D01*
G01*
X41130000Y-176805000D01*
G75*
G02*
X41280000Y-176655000I150000J0D01*
G01*
X41580000Y-176655000D01*
G75*
G02*
X41730000Y-176805000I0J-150000D01*
G01*
X41730000Y-178480000D01*
G75*
G02*
X41580000Y-178630000I-150000J0D01*
G01*
G37*
%TD*%
%TO.C,U3*%
G36*
G01*
X113142000Y-139171000D02*
X113142000Y-138871000D01*
G75*
G02*
X113292000Y-138721000I150000J0D01*
G01*
X114967000Y-138721000D01*
G75*
G02*
X115117000Y-138871000I0J-150000D01*
G01*
X115117000Y-139171000D01*
G75*
G02*
X114967000Y-139321000I-150000J0D01*
G01*
X113292000Y-139321000D01*
G75*
G02*
X113142000Y-139171000I0J150000D01*
G01*
G37*
G36*
G01*
X113142000Y-140441000D02*
X113142000Y-140141000D01*
G75*
G02*
X113292000Y-139991000I150000J0D01*
G01*
X114967000Y-139991000D01*
G75*
G02*
X115117000Y-140141000I0J-150000D01*
G01*
X115117000Y-140441000D01*
G75*
G02*
X114967000Y-140591000I-150000J0D01*
G01*
X113292000Y-140591000D01*
G75*
G02*
X113142000Y-140441000I0J150000D01*
G01*
G37*
G36*
G01*
X113142000Y-141711000D02*
X113142000Y-141411000D01*
G75*
G02*
X113292000Y-141261000I150000J0D01*
G01*
X114967000Y-141261000D01*
G75*
G02*
X115117000Y-141411000I0J-150000D01*
G01*
X115117000Y-141711000D01*
G75*
G02*
X114967000Y-141861000I-150000J0D01*
G01*
X113292000Y-141861000D01*
G75*
G02*
X113142000Y-141711000I0J150000D01*
G01*
G37*
G36*
G01*
X113142000Y-142981000D02*
X113142000Y-142681000D01*
G75*
G02*
X113292000Y-142531000I150000J0D01*
G01*
X114967000Y-142531000D01*
G75*
G02*
X115117000Y-142681000I0J-150000D01*
G01*
X115117000Y-142981000D01*
G75*
G02*
X114967000Y-143131000I-150000J0D01*
G01*
X113292000Y-143131000D01*
G75*
G02*
X113142000Y-142981000I0J150000D01*
G01*
G37*
G36*
G01*
X113142000Y-144251000D02*
X113142000Y-143951000D01*
G75*
G02*
X113292000Y-143801000I150000J0D01*
G01*
X114967000Y-143801000D01*
G75*
G02*
X115117000Y-143951000I0J-150000D01*
G01*
X115117000Y-144251000D01*
G75*
G02*
X114967000Y-144401000I-150000J0D01*
G01*
X113292000Y-144401000D01*
G75*
G02*
X113142000Y-144251000I0J150000D01*
G01*
G37*
G36*
G01*
X113142000Y-145521000D02*
X113142000Y-145221000D01*
G75*
G02*
X113292000Y-145071000I150000J0D01*
G01*
X114967000Y-145071000D01*
G75*
G02*
X115117000Y-145221000I0J-150000D01*
G01*
X115117000Y-145521000D01*
G75*
G02*
X114967000Y-145671000I-150000J0D01*
G01*
X113292000Y-145671000D01*
G75*
G02*
X113142000Y-145521000I0J150000D01*
G01*
G37*
G36*
G01*
X113142000Y-146791000D02*
X113142000Y-146491000D01*
G75*
G02*
X113292000Y-146341000I150000J0D01*
G01*
X114967000Y-146341000D01*
G75*
G02*
X115117000Y-146491000I0J-150000D01*
G01*
X115117000Y-146791000D01*
G75*
G02*
X114967000Y-146941000I-150000J0D01*
G01*
X113292000Y-146941000D01*
G75*
G02*
X113142000Y-146791000I0J150000D01*
G01*
G37*
G36*
G01*
X106217000Y-146791000D02*
X106217000Y-146491000D01*
G75*
G02*
X106367000Y-146341000I150000J0D01*
G01*
X108042000Y-146341000D01*
G75*
G02*
X108192000Y-146491000I0J-150000D01*
G01*
X108192000Y-146791000D01*
G75*
G02*
X108042000Y-146941000I-150000J0D01*
G01*
X106367000Y-146941000D01*
G75*
G02*
X106217000Y-146791000I0J150000D01*
G01*
G37*
G36*
G01*
X106217000Y-145521000D02*
X106217000Y-145221000D01*
G75*
G02*
X106367000Y-145071000I150000J0D01*
G01*
X108042000Y-145071000D01*
G75*
G02*
X108192000Y-145221000I0J-150000D01*
G01*
X108192000Y-145521000D01*
G75*
G02*
X108042000Y-145671000I-150000J0D01*
G01*
X106367000Y-145671000D01*
G75*
G02*
X106217000Y-145521000I0J150000D01*
G01*
G37*
G36*
G01*
X106217000Y-144251000D02*
X106217000Y-143951000D01*
G75*
G02*
X106367000Y-143801000I150000J0D01*
G01*
X108042000Y-143801000D01*
G75*
G02*
X108192000Y-143951000I0J-150000D01*
G01*
X108192000Y-144251000D01*
G75*
G02*
X108042000Y-144401000I-150000J0D01*
G01*
X106367000Y-144401000D01*
G75*
G02*
X106217000Y-144251000I0J150000D01*
G01*
G37*
G36*
G01*
X106217000Y-142981000D02*
X106217000Y-142681000D01*
G75*
G02*
X106367000Y-142531000I150000J0D01*
G01*
X108042000Y-142531000D01*
G75*
G02*
X108192000Y-142681000I0J-150000D01*
G01*
X108192000Y-142981000D01*
G75*
G02*
X108042000Y-143131000I-150000J0D01*
G01*
X106367000Y-143131000D01*
G75*
G02*
X106217000Y-142981000I0J150000D01*
G01*
G37*
G36*
G01*
X106217000Y-141711000D02*
X106217000Y-141411000D01*
G75*
G02*
X106367000Y-141261000I150000J0D01*
G01*
X108042000Y-141261000D01*
G75*
G02*
X108192000Y-141411000I0J-150000D01*
G01*
X108192000Y-141711000D01*
G75*
G02*
X108042000Y-141861000I-150000J0D01*
G01*
X106367000Y-141861000D01*
G75*
G02*
X106217000Y-141711000I0J150000D01*
G01*
G37*
G36*
G01*
X106217000Y-140441000D02*
X106217000Y-140141000D01*
G75*
G02*
X106367000Y-139991000I150000J0D01*
G01*
X108042000Y-139991000D01*
G75*
G02*
X108192000Y-140141000I0J-150000D01*
G01*
X108192000Y-140441000D01*
G75*
G02*
X108042000Y-140591000I-150000J0D01*
G01*
X106367000Y-140591000D01*
G75*
G02*
X106217000Y-140441000I0J150000D01*
G01*
G37*
G36*
G01*
X106217000Y-139171000D02*
X106217000Y-138871000D01*
G75*
G02*
X106367000Y-138721000I150000J0D01*
G01*
X108042000Y-138721000D01*
G75*
G02*
X108192000Y-138871000I0J-150000D01*
G01*
X108192000Y-139171000D01*
G75*
G02*
X108042000Y-139321000I-150000J0D01*
G01*
X106367000Y-139321000D01*
G75*
G02*
X106217000Y-139171000I0J150000D01*
G01*
G37*
%TD*%
%TO.C,R65*%
G36*
G01*
X148888500Y-187095000D02*
X149363500Y-187095000D01*
G75*
G02*
X149601000Y-187332500I0J-237500D01*
G01*
X149601000Y-187832500D01*
G75*
G02*
X149363500Y-188070000I-237500J0D01*
G01*
X148888500Y-188070000D01*
G75*
G02*
X148651000Y-187832500I0J237500D01*
G01*
X148651000Y-187332500D01*
G75*
G02*
X148888500Y-187095000I237500J0D01*
G01*
G37*
G36*
G01*
X148888500Y-185270000D02*
X149363500Y-185270000D01*
G75*
G02*
X149601000Y-185507500I0J-237500D01*
G01*
X149601000Y-186007500D01*
G75*
G02*
X149363500Y-186245000I-237500J0D01*
G01*
X148888500Y-186245000D01*
G75*
G02*
X148651000Y-186007500I0J237500D01*
G01*
X148651000Y-185507500D01*
G75*
G02*
X148888500Y-185270000I237500J0D01*
G01*
G37*
%TD*%
%TO.C,R64*%
G36*
G01*
X149335500Y-190920000D02*
X148860500Y-190920000D01*
G75*
G02*
X148623000Y-190682500I0J237500D01*
G01*
X148623000Y-190182500D01*
G75*
G02*
X148860500Y-189945000I237500J0D01*
G01*
X149335500Y-189945000D01*
G75*
G02*
X149573000Y-190182500I0J-237500D01*
G01*
X149573000Y-190682500D01*
G75*
G02*
X149335500Y-190920000I-237500J0D01*
G01*
G37*
G36*
G01*
X149335500Y-192745000D02*
X148860500Y-192745000D01*
G75*
G02*
X148623000Y-192507500I0J237500D01*
G01*
X148623000Y-192007500D01*
G75*
G02*
X148860500Y-191770000I237500J0D01*
G01*
X149335500Y-191770000D01*
G75*
G02*
X149573000Y-192007500I0J-237500D01*
G01*
X149573000Y-192507500D01*
G75*
G02*
X149335500Y-192745000I-237500J0D01*
G01*
G37*
%TD*%
%TO.C,R61*%
G36*
G01*
X141243500Y-187095000D02*
X141718500Y-187095000D01*
G75*
G02*
X141956000Y-187332500I0J-237500D01*
G01*
X141956000Y-187832500D01*
G75*
G02*
X141718500Y-188070000I-237500J0D01*
G01*
X141243500Y-188070000D01*
G75*
G02*
X141006000Y-187832500I0J237500D01*
G01*
X141006000Y-187332500D01*
G75*
G02*
X141243500Y-187095000I237500J0D01*
G01*
G37*
G36*
G01*
X141243500Y-185270000D02*
X141718500Y-185270000D01*
G75*
G02*
X141956000Y-185507500I0J-237500D01*
G01*
X141956000Y-186007500D01*
G75*
G02*
X141718500Y-186245000I-237500J0D01*
G01*
X141243500Y-186245000D01*
G75*
G02*
X141006000Y-186007500I0J237500D01*
G01*
X141006000Y-185507500D01*
G75*
G02*
X141243500Y-185270000I237500J0D01*
G01*
G37*
%TD*%
%TO.C,R60*%
G36*
G01*
X141695500Y-190920000D02*
X141220500Y-190920000D01*
G75*
G02*
X140983000Y-190682500I0J237500D01*
G01*
X140983000Y-190182500D01*
G75*
G02*
X141220500Y-189945000I237500J0D01*
G01*
X141695500Y-189945000D01*
G75*
G02*
X141933000Y-190182500I0J-237500D01*
G01*
X141933000Y-190682500D01*
G75*
G02*
X141695500Y-190920000I-237500J0D01*
G01*
G37*
G36*
G01*
X141695500Y-192745000D02*
X141220500Y-192745000D01*
G75*
G02*
X140983000Y-192507500I0J237500D01*
G01*
X140983000Y-192007500D01*
G75*
G02*
X141220500Y-191770000I237500J0D01*
G01*
X141695500Y-191770000D01*
G75*
G02*
X141933000Y-192007500I0J-237500D01*
G01*
X141933000Y-192507500D01*
G75*
G02*
X141695500Y-192745000I-237500J0D01*
G01*
G37*
%TD*%
%TO.C,R57*%
G36*
G01*
X133597500Y-187095000D02*
X134072500Y-187095000D01*
G75*
G02*
X134310000Y-187332500I0J-237500D01*
G01*
X134310000Y-187832500D01*
G75*
G02*
X134072500Y-188070000I-237500J0D01*
G01*
X133597500Y-188070000D01*
G75*
G02*
X133360000Y-187832500I0J237500D01*
G01*
X133360000Y-187332500D01*
G75*
G02*
X133597500Y-187095000I237500J0D01*
G01*
G37*
G36*
G01*
X133597500Y-185270000D02*
X134072500Y-185270000D01*
G75*
G02*
X134310000Y-185507500I0J-237500D01*
G01*
X134310000Y-186007500D01*
G75*
G02*
X134072500Y-186245000I-237500J0D01*
G01*
X133597500Y-186245000D01*
G75*
G02*
X133360000Y-186007500I0J237500D01*
G01*
X133360000Y-185507500D01*
G75*
G02*
X133597500Y-185270000I237500J0D01*
G01*
G37*
%TD*%
%TO.C,R56*%
G36*
G01*
X134055500Y-190920000D02*
X133580500Y-190920000D01*
G75*
G02*
X133343000Y-190682500I0J237500D01*
G01*
X133343000Y-190182500D01*
G75*
G02*
X133580500Y-189945000I237500J0D01*
G01*
X134055500Y-189945000D01*
G75*
G02*
X134293000Y-190182500I0J-237500D01*
G01*
X134293000Y-190682500D01*
G75*
G02*
X134055500Y-190920000I-237500J0D01*
G01*
G37*
G36*
G01*
X134055500Y-192745000D02*
X133580500Y-192745000D01*
G75*
G02*
X133343000Y-192507500I0J237500D01*
G01*
X133343000Y-192007500D01*
G75*
G02*
X133580500Y-191770000I237500J0D01*
G01*
X134055500Y-191770000D01*
G75*
G02*
X134293000Y-192007500I0J-237500D01*
G01*
X134293000Y-192507500D01*
G75*
G02*
X134055500Y-192745000I-237500J0D01*
G01*
G37*
%TD*%
%TO.C,R53*%
G36*
G01*
X125952500Y-187095000D02*
X126427500Y-187095000D01*
G75*
G02*
X126665000Y-187332500I0J-237500D01*
G01*
X126665000Y-187832500D01*
G75*
G02*
X126427500Y-188070000I-237500J0D01*
G01*
X125952500Y-188070000D01*
G75*
G02*
X125715000Y-187832500I0J237500D01*
G01*
X125715000Y-187332500D01*
G75*
G02*
X125952500Y-187095000I237500J0D01*
G01*
G37*
G36*
G01*
X125952500Y-185270000D02*
X126427500Y-185270000D01*
G75*
G02*
X126665000Y-185507500I0J-237500D01*
G01*
X126665000Y-186007500D01*
G75*
G02*
X126427500Y-186245000I-237500J0D01*
G01*
X125952500Y-186245000D01*
G75*
G02*
X125715000Y-186007500I0J237500D01*
G01*
X125715000Y-185507500D01*
G75*
G02*
X125952500Y-185270000I237500J0D01*
G01*
G37*
%TD*%
%TO.C,R52*%
G36*
G01*
X126416500Y-190920000D02*
X125941500Y-190920000D01*
G75*
G02*
X125704000Y-190682500I0J237500D01*
G01*
X125704000Y-190182500D01*
G75*
G02*
X125941500Y-189945000I237500J0D01*
G01*
X126416500Y-189945000D01*
G75*
G02*
X126654000Y-190182500I0J-237500D01*
G01*
X126654000Y-190682500D01*
G75*
G02*
X126416500Y-190920000I-237500J0D01*
G01*
G37*
G36*
G01*
X126416500Y-192745000D02*
X125941500Y-192745000D01*
G75*
G02*
X125704000Y-192507500I0J237500D01*
G01*
X125704000Y-192007500D01*
G75*
G02*
X125941500Y-191770000I237500J0D01*
G01*
X126416500Y-191770000D01*
G75*
G02*
X126654000Y-192007500I0J-237500D01*
G01*
X126654000Y-192507500D01*
G75*
G02*
X126416500Y-192745000I-237500J0D01*
G01*
G37*
%TD*%
%TO.C,R49*%
G36*
G01*
X98342500Y-187372000D02*
X98817500Y-187372000D01*
G75*
G02*
X99055000Y-187609500I0J-237500D01*
G01*
X99055000Y-188109500D01*
G75*
G02*
X98817500Y-188347000I-237500J0D01*
G01*
X98342500Y-188347000D01*
G75*
G02*
X98105000Y-188109500I0J237500D01*
G01*
X98105000Y-187609500D01*
G75*
G02*
X98342500Y-187372000I237500J0D01*
G01*
G37*
G36*
G01*
X98342500Y-185547000D02*
X98817500Y-185547000D01*
G75*
G02*
X99055000Y-185784500I0J-237500D01*
G01*
X99055000Y-186284500D01*
G75*
G02*
X98817500Y-186522000I-237500J0D01*
G01*
X98342500Y-186522000D01*
G75*
G02*
X98105000Y-186284500I0J237500D01*
G01*
X98105000Y-185784500D01*
G75*
G02*
X98342500Y-185547000I237500J0D01*
G01*
G37*
%TD*%
%TO.C,R48*%
G36*
G01*
X98817500Y-190897000D02*
X98342500Y-190897000D01*
G75*
G02*
X98105000Y-190659500I0J237500D01*
G01*
X98105000Y-190159500D01*
G75*
G02*
X98342500Y-189922000I237500J0D01*
G01*
X98817500Y-189922000D01*
G75*
G02*
X99055000Y-190159500I0J-237500D01*
G01*
X99055000Y-190659500D01*
G75*
G02*
X98817500Y-190897000I-237500J0D01*
G01*
G37*
G36*
G01*
X98817500Y-192722000D02*
X98342500Y-192722000D01*
G75*
G02*
X98105000Y-192484500I0J237500D01*
G01*
X98105000Y-191984500D01*
G75*
G02*
X98342500Y-191747000I237500J0D01*
G01*
X98817500Y-191747000D01*
G75*
G02*
X99055000Y-191984500I0J-237500D01*
G01*
X99055000Y-192484500D01*
G75*
G02*
X98817500Y-192722000I-237500J0D01*
G01*
G37*
%TD*%
%TO.C,R45*%
G36*
G01*
X110661500Y-187095000D02*
X111136500Y-187095000D01*
G75*
G02*
X111374000Y-187332500I0J-237500D01*
G01*
X111374000Y-187832500D01*
G75*
G02*
X111136500Y-188070000I-237500J0D01*
G01*
X110661500Y-188070000D01*
G75*
G02*
X110424000Y-187832500I0J237500D01*
G01*
X110424000Y-187332500D01*
G75*
G02*
X110661500Y-187095000I237500J0D01*
G01*
G37*
G36*
G01*
X110661500Y-185270000D02*
X111136500Y-185270000D01*
G75*
G02*
X111374000Y-185507500I0J-237500D01*
G01*
X111374000Y-186007500D01*
G75*
G02*
X111136500Y-186245000I-237500J0D01*
G01*
X110661500Y-186245000D01*
G75*
G02*
X110424000Y-186007500I0J237500D01*
G01*
X110424000Y-185507500D01*
G75*
G02*
X110661500Y-185270000I237500J0D01*
G01*
G37*
%TD*%
%TO.C,R44*%
G36*
G01*
X111136500Y-190920000D02*
X110661500Y-190920000D01*
G75*
G02*
X110424000Y-190682500I0J237500D01*
G01*
X110424000Y-190182500D01*
G75*
G02*
X110661500Y-189945000I237500J0D01*
G01*
X111136500Y-189945000D01*
G75*
G02*
X111374000Y-190182500I0J-237500D01*
G01*
X111374000Y-190682500D01*
G75*
G02*
X111136500Y-190920000I-237500J0D01*
G01*
G37*
G36*
G01*
X111136500Y-192745000D02*
X110661500Y-192745000D01*
G75*
G02*
X110424000Y-192507500I0J237500D01*
G01*
X110424000Y-192007500D01*
G75*
G02*
X110661500Y-191770000I237500J0D01*
G01*
X111136500Y-191770000D01*
G75*
G02*
X111374000Y-192007500I0J-237500D01*
G01*
X111374000Y-192507500D01*
G75*
G02*
X111136500Y-192745000I-237500J0D01*
G01*
G37*
%TD*%
%TO.C,R41*%
G36*
G01*
X118306500Y-187095000D02*
X118781500Y-187095000D01*
G75*
G02*
X119019000Y-187332500I0J-237500D01*
G01*
X119019000Y-187832500D01*
G75*
G02*
X118781500Y-188070000I-237500J0D01*
G01*
X118306500Y-188070000D01*
G75*
G02*
X118069000Y-187832500I0J237500D01*
G01*
X118069000Y-187332500D01*
G75*
G02*
X118306500Y-187095000I237500J0D01*
G01*
G37*
G36*
G01*
X118306500Y-185270000D02*
X118781500Y-185270000D01*
G75*
G02*
X119019000Y-185507500I0J-237500D01*
G01*
X119019000Y-186007500D01*
G75*
G02*
X118781500Y-186245000I-237500J0D01*
G01*
X118306500Y-186245000D01*
G75*
G02*
X118069000Y-186007500I0J237500D01*
G01*
X118069000Y-185507500D01*
G75*
G02*
X118306500Y-185270000I237500J0D01*
G01*
G37*
%TD*%
%TO.C,R40*%
G36*
G01*
X118776500Y-190920000D02*
X118301500Y-190920000D01*
G75*
G02*
X118064000Y-190682500I0J237500D01*
G01*
X118064000Y-190182500D01*
G75*
G02*
X118301500Y-189945000I237500J0D01*
G01*
X118776500Y-189945000D01*
G75*
G02*
X119014000Y-190182500I0J-237500D01*
G01*
X119014000Y-190682500D01*
G75*
G02*
X118776500Y-190920000I-237500J0D01*
G01*
G37*
G36*
G01*
X118776500Y-192745000D02*
X118301500Y-192745000D01*
G75*
G02*
X118064000Y-192507500I0J237500D01*
G01*
X118064000Y-192007500D01*
G75*
G02*
X118301500Y-191770000I237500J0D01*
G01*
X118776500Y-191770000D01*
G75*
G02*
X119014000Y-192007500I0J-237500D01*
G01*
X119014000Y-192507500D01*
G75*
G02*
X118776500Y-192745000I-237500J0D01*
G01*
G37*
%TD*%
%TO.C,R37*%
G36*
G01*
X90686200Y-187372000D02*
X91161200Y-187372000D01*
G75*
G02*
X91398700Y-187609500I0J-237500D01*
G01*
X91398700Y-188109500D01*
G75*
G02*
X91161200Y-188347000I-237500J0D01*
G01*
X90686200Y-188347000D01*
G75*
G02*
X90448700Y-188109500I0J237500D01*
G01*
X90448700Y-187609500D01*
G75*
G02*
X90686200Y-187372000I237500J0D01*
G01*
G37*
G36*
G01*
X90686200Y-185547000D02*
X91161200Y-185547000D01*
G75*
G02*
X91398700Y-185784500I0J-237500D01*
G01*
X91398700Y-186284500D01*
G75*
G02*
X91161200Y-186522000I-237500J0D01*
G01*
X90686200Y-186522000D01*
G75*
G02*
X90448700Y-186284500I0J237500D01*
G01*
X90448700Y-185784500D01*
G75*
G02*
X90686200Y-185547000I237500J0D01*
G01*
G37*
%TD*%
%TO.C,R36*%
G36*
G01*
X91161200Y-190897000D02*
X90686200Y-190897000D01*
G75*
G02*
X90448700Y-190659500I0J237500D01*
G01*
X90448700Y-190159500D01*
G75*
G02*
X90686200Y-189922000I237500J0D01*
G01*
X91161200Y-189922000D01*
G75*
G02*
X91398700Y-190159500I0J-237500D01*
G01*
X91398700Y-190659500D01*
G75*
G02*
X91161200Y-190897000I-237500J0D01*
G01*
G37*
G36*
G01*
X91161200Y-192722000D02*
X90686200Y-192722000D01*
G75*
G02*
X90448700Y-192484500I0J237500D01*
G01*
X90448700Y-191984500D01*
G75*
G02*
X90686200Y-191747000I237500J0D01*
G01*
X91161200Y-191747000D01*
G75*
G02*
X91398700Y-191984500I0J-237500D01*
G01*
X91398700Y-192484500D01*
G75*
G02*
X91161200Y-192722000I-237500J0D01*
G01*
G37*
%TD*%
%TO.C,R33*%
G36*
G01*
X83029900Y-187372000D02*
X83504900Y-187372000D01*
G75*
G02*
X83742400Y-187609500I0J-237500D01*
G01*
X83742400Y-188109500D01*
G75*
G02*
X83504900Y-188347000I-237500J0D01*
G01*
X83029900Y-188347000D01*
G75*
G02*
X82792400Y-188109500I0J237500D01*
G01*
X82792400Y-187609500D01*
G75*
G02*
X83029900Y-187372000I237500J0D01*
G01*
G37*
G36*
G01*
X83029900Y-185547000D02*
X83504900Y-185547000D01*
G75*
G02*
X83742400Y-185784500I0J-237500D01*
G01*
X83742400Y-186284500D01*
G75*
G02*
X83504900Y-186522000I-237500J0D01*
G01*
X83029900Y-186522000D01*
G75*
G02*
X82792400Y-186284500I0J237500D01*
G01*
X82792400Y-185784500D01*
G75*
G02*
X83029900Y-185547000I237500J0D01*
G01*
G37*
%TD*%
%TO.C,R32*%
G36*
G01*
X83504900Y-190897000D02*
X83029900Y-190897000D01*
G75*
G02*
X82792400Y-190659500I0J237500D01*
G01*
X82792400Y-190159500D01*
G75*
G02*
X83029900Y-189922000I237500J0D01*
G01*
X83504900Y-189922000D01*
G75*
G02*
X83742400Y-190159500I0J-237500D01*
G01*
X83742400Y-190659500D01*
G75*
G02*
X83504900Y-190897000I-237500J0D01*
G01*
G37*
G36*
G01*
X83504900Y-192722000D02*
X83029900Y-192722000D01*
G75*
G02*
X82792400Y-192484500I0J237500D01*
G01*
X82792400Y-191984500D01*
G75*
G02*
X83029900Y-191747000I237500J0D01*
G01*
X83504900Y-191747000D01*
G75*
G02*
X83742400Y-191984500I0J-237500D01*
G01*
X83742400Y-192484500D01*
G75*
G02*
X83504900Y-192722000I-237500J0D01*
G01*
G37*
%TD*%
%TO.C,R29*%
G36*
G01*
X75373600Y-187372000D02*
X75848600Y-187372000D01*
G75*
G02*
X76086100Y-187609500I0J-237500D01*
G01*
X76086100Y-188109500D01*
G75*
G02*
X75848600Y-188347000I-237500J0D01*
G01*
X75373600Y-188347000D01*
G75*
G02*
X75136100Y-188109500I0J237500D01*
G01*
X75136100Y-187609500D01*
G75*
G02*
X75373600Y-187372000I237500J0D01*
G01*
G37*
G36*
G01*
X75373600Y-185547000D02*
X75848600Y-185547000D01*
G75*
G02*
X76086100Y-185784500I0J-237500D01*
G01*
X76086100Y-186284500D01*
G75*
G02*
X75848600Y-186522000I-237500J0D01*
G01*
X75373600Y-186522000D01*
G75*
G02*
X75136100Y-186284500I0J237500D01*
G01*
X75136100Y-185784500D01*
G75*
G02*
X75373600Y-185547000I237500J0D01*
G01*
G37*
%TD*%
%TO.C,R28*%
G36*
G01*
X75848600Y-190897000D02*
X75373600Y-190897000D01*
G75*
G02*
X75136100Y-190659500I0J237500D01*
G01*
X75136100Y-190159500D01*
G75*
G02*
X75373600Y-189922000I237500J0D01*
G01*
X75848600Y-189922000D01*
G75*
G02*
X76086100Y-190159500I0J-237500D01*
G01*
X76086100Y-190659500D01*
G75*
G02*
X75848600Y-190897000I-237500J0D01*
G01*
G37*
G36*
G01*
X75848600Y-192722000D02*
X75373600Y-192722000D01*
G75*
G02*
X75136100Y-192484500I0J237500D01*
G01*
X75136100Y-191984500D01*
G75*
G02*
X75373600Y-191747000I237500J0D01*
G01*
X75848600Y-191747000D01*
G75*
G02*
X76086100Y-191984500I0J-237500D01*
G01*
X76086100Y-192484500D01*
G75*
G02*
X75848600Y-192722000I-237500J0D01*
G01*
G37*
%TD*%
%TO.C,R25*%
G36*
G01*
X67717400Y-187372000D02*
X68192400Y-187372000D01*
G75*
G02*
X68429900Y-187609500I0J-237500D01*
G01*
X68429900Y-188109500D01*
G75*
G02*
X68192400Y-188347000I-237500J0D01*
G01*
X67717400Y-188347000D01*
G75*
G02*
X67479900Y-188109500I0J237500D01*
G01*
X67479900Y-187609500D01*
G75*
G02*
X67717400Y-187372000I237500J0D01*
G01*
G37*
G36*
G01*
X67717400Y-185547000D02*
X68192400Y-185547000D01*
G75*
G02*
X68429900Y-185784500I0J-237500D01*
G01*
X68429900Y-186284500D01*
G75*
G02*
X68192400Y-186522000I-237500J0D01*
G01*
X67717400Y-186522000D01*
G75*
G02*
X67479900Y-186284500I0J237500D01*
G01*
X67479900Y-185784500D01*
G75*
G02*
X67717400Y-185547000I237500J0D01*
G01*
G37*
%TD*%
%TO.C,R24*%
G36*
G01*
X68192400Y-190897000D02*
X67717400Y-190897000D01*
G75*
G02*
X67479900Y-190659500I0J237500D01*
G01*
X67479900Y-190159500D01*
G75*
G02*
X67717400Y-189922000I237500J0D01*
G01*
X68192400Y-189922000D01*
G75*
G02*
X68429900Y-190159500I0J-237500D01*
G01*
X68429900Y-190659500D01*
G75*
G02*
X68192400Y-190897000I-237500J0D01*
G01*
G37*
G36*
G01*
X68192400Y-192722000D02*
X67717400Y-192722000D01*
G75*
G02*
X67479900Y-192484500I0J237500D01*
G01*
X67479900Y-191984500D01*
G75*
G02*
X67717400Y-191747000I237500J0D01*
G01*
X68192400Y-191747000D01*
G75*
G02*
X68429900Y-191984500I0J-237500D01*
G01*
X68429900Y-192484500D01*
G75*
G02*
X68192400Y-192722000I-237500J0D01*
G01*
G37*
%TD*%
%TO.C,R21*%
G36*
G01*
X60061100Y-187372000D02*
X60536100Y-187372000D01*
G75*
G02*
X60773600Y-187609500I0J-237500D01*
G01*
X60773600Y-188109500D01*
G75*
G02*
X60536100Y-188347000I-237500J0D01*
G01*
X60061100Y-188347000D01*
G75*
G02*
X59823600Y-188109500I0J237500D01*
G01*
X59823600Y-187609500D01*
G75*
G02*
X60061100Y-187372000I237500J0D01*
G01*
G37*
G36*
G01*
X60061100Y-185547000D02*
X60536100Y-185547000D01*
G75*
G02*
X60773600Y-185784500I0J-237500D01*
G01*
X60773600Y-186284500D01*
G75*
G02*
X60536100Y-186522000I-237500J0D01*
G01*
X60061100Y-186522000D01*
G75*
G02*
X59823600Y-186284500I0J237500D01*
G01*
X59823600Y-185784500D01*
G75*
G02*
X60061100Y-185547000I237500J0D01*
G01*
G37*
%TD*%
%TO.C,R20*%
G36*
G01*
X60536100Y-190897000D02*
X60061100Y-190897000D01*
G75*
G02*
X59823600Y-190659500I0J237500D01*
G01*
X59823600Y-190159500D01*
G75*
G02*
X60061100Y-189922000I237500J0D01*
G01*
X60536100Y-189922000D01*
G75*
G02*
X60773600Y-190159500I0J-237500D01*
G01*
X60773600Y-190659500D01*
G75*
G02*
X60536100Y-190897000I-237500J0D01*
G01*
G37*
G36*
G01*
X60536100Y-192722000D02*
X60061100Y-192722000D01*
G75*
G02*
X59823600Y-192484500I0J237500D01*
G01*
X59823600Y-191984500D01*
G75*
G02*
X60061100Y-191747000I237500J0D01*
G01*
X60536100Y-191747000D01*
G75*
G02*
X60773600Y-191984500I0J-237500D01*
G01*
X60773600Y-192484500D01*
G75*
G02*
X60536100Y-192722000I-237500J0D01*
G01*
G37*
%TD*%
%TO.C,R15*%
G36*
G01*
X44748500Y-187372000D02*
X45223500Y-187372000D01*
G75*
G02*
X45461000Y-187609500I0J-237500D01*
G01*
X45461000Y-188109500D01*
G75*
G02*
X45223500Y-188347000I-237500J0D01*
G01*
X44748500Y-188347000D01*
G75*
G02*
X44511000Y-188109500I0J237500D01*
G01*
X44511000Y-187609500D01*
G75*
G02*
X44748500Y-187372000I237500J0D01*
G01*
G37*
G36*
G01*
X44748500Y-185547000D02*
X45223500Y-185547000D01*
G75*
G02*
X45461000Y-185784500I0J-237500D01*
G01*
X45461000Y-186284500D01*
G75*
G02*
X45223500Y-186522000I-237500J0D01*
G01*
X44748500Y-186522000D01*
G75*
G02*
X44511000Y-186284500I0J237500D01*
G01*
X44511000Y-185784500D01*
G75*
G02*
X44748500Y-185547000I237500J0D01*
G01*
G37*
%TD*%
%TO.C,R14*%
G36*
G01*
X45223500Y-190897000D02*
X44748500Y-190897000D01*
G75*
G02*
X44511000Y-190659500I0J237500D01*
G01*
X44511000Y-190159500D01*
G75*
G02*
X44748500Y-189922000I237500J0D01*
G01*
X45223500Y-189922000D01*
G75*
G02*
X45461000Y-190159500I0J-237500D01*
G01*
X45461000Y-190659500D01*
G75*
G02*
X45223500Y-190897000I-237500J0D01*
G01*
G37*
G36*
G01*
X45223500Y-192722000D02*
X44748500Y-192722000D01*
G75*
G02*
X44511000Y-192484500I0J237500D01*
G01*
X44511000Y-191984500D01*
G75*
G02*
X44748500Y-191747000I237500J0D01*
G01*
X45223500Y-191747000D01*
G75*
G02*
X45461000Y-191984500I0J-237500D01*
G01*
X45461000Y-192484500D01*
G75*
G02*
X45223500Y-192722000I-237500J0D01*
G01*
G37*
%TD*%
%TO.C,R13*%
G36*
G01*
X109076500Y-93407500D02*
X108601500Y-93407500D01*
G75*
G02*
X108364000Y-93170000I0J237500D01*
G01*
X108364000Y-92670000D01*
G75*
G02*
X108601500Y-92432500I237500J0D01*
G01*
X109076500Y-92432500D01*
G75*
G02*
X109314000Y-92670000I0J-237500D01*
G01*
X109314000Y-93170000D01*
G75*
G02*
X109076500Y-93407500I-237500J0D01*
G01*
G37*
G36*
G01*
X109076500Y-95232500D02*
X108601500Y-95232500D01*
G75*
G02*
X108364000Y-94995000I0J237500D01*
G01*
X108364000Y-94495000D01*
G75*
G02*
X108601500Y-94257500I237500J0D01*
G01*
X109076500Y-94257500D01*
G75*
G02*
X109314000Y-94495000I0J-237500D01*
G01*
X109314000Y-94995000D01*
G75*
G02*
X109076500Y-95232500I-237500J0D01*
G01*
G37*
%TD*%
%TO.C,R12*%
G36*
G01*
X114156500Y-93367000D02*
X113681500Y-93367000D01*
G75*
G02*
X113444000Y-93129500I0J237500D01*
G01*
X113444000Y-92629500D01*
G75*
G02*
X113681500Y-92392000I237500J0D01*
G01*
X114156500Y-92392000D01*
G75*
G02*
X114394000Y-92629500I0J-237500D01*
G01*
X114394000Y-93129500D01*
G75*
G02*
X114156500Y-93367000I-237500J0D01*
G01*
G37*
G36*
G01*
X114156500Y-95192000D02*
X113681500Y-95192000D01*
G75*
G02*
X113444000Y-94954500I0J237500D01*
G01*
X113444000Y-94454500D01*
G75*
G02*
X113681500Y-94217000I237500J0D01*
G01*
X114156500Y-94217000D01*
G75*
G02*
X114394000Y-94454500I0J-237500D01*
G01*
X114394000Y-94954500D01*
G75*
G02*
X114156500Y-95192000I-237500J0D01*
G01*
G37*
%TD*%
%TO.C,R11*%
G36*
G01*
X117355000Y-142593500D02*
X117355000Y-143068500D01*
G75*
G02*
X117117500Y-143306000I-237500J0D01*
G01*
X116617500Y-143306000D01*
G75*
G02*
X116380000Y-143068500I0J237500D01*
G01*
X116380000Y-142593500D01*
G75*
G02*
X116617500Y-142356000I237500J0D01*
G01*
X117117500Y-142356000D01*
G75*
G02*
X117355000Y-142593500I0J-237500D01*
G01*
G37*
G36*
G01*
X119180000Y-142593500D02*
X119180000Y-143068500D01*
G75*
G02*
X118942500Y-143306000I-237500J0D01*
G01*
X118442500Y-143306000D01*
G75*
G02*
X118205000Y-143068500I0J237500D01*
G01*
X118205000Y-142593500D01*
G75*
G02*
X118442500Y-142356000I237500J0D01*
G01*
X118942500Y-142356000D01*
G75*
G02*
X119180000Y-142593500I0J-237500D01*
G01*
G37*
%TD*%
%TO.C,R10*%
G36*
G01*
X117355000Y-146403500D02*
X117355000Y-146878500D01*
G75*
G02*
X117117500Y-147116000I-237500J0D01*
G01*
X116617500Y-147116000D01*
G75*
G02*
X116380000Y-146878500I0J237500D01*
G01*
X116380000Y-146403500D01*
G75*
G02*
X116617500Y-146166000I237500J0D01*
G01*
X117117500Y-146166000D01*
G75*
G02*
X117355000Y-146403500I0J-237500D01*
G01*
G37*
G36*
G01*
X119180000Y-146403500D02*
X119180000Y-146878500D01*
G75*
G02*
X118942500Y-147116000I-237500J0D01*
G01*
X118442500Y-147116000D01*
G75*
G02*
X118205000Y-146878500I0J237500D01*
G01*
X118205000Y-146403500D01*
G75*
G02*
X118442500Y-146166000I237500J0D01*
G01*
X118942500Y-146166000D01*
G75*
G02*
X119180000Y-146403500I0J-237500D01*
G01*
G37*
%TD*%
%TO.C,R9*%
G36*
G01*
X104081000Y-145608500D02*
X104081000Y-145133500D01*
G75*
G02*
X104318500Y-144896000I237500J0D01*
G01*
X104818500Y-144896000D01*
G75*
G02*
X105056000Y-145133500I0J-237500D01*
G01*
X105056000Y-145608500D01*
G75*
G02*
X104818500Y-145846000I-237500J0D01*
G01*
X104318500Y-145846000D01*
G75*
G02*
X104081000Y-145608500I0J237500D01*
G01*
G37*
G36*
G01*
X102256000Y-145608500D02*
X102256000Y-145133500D01*
G75*
G02*
X102493500Y-144896000I237500J0D01*
G01*
X102993500Y-144896000D01*
G75*
G02*
X103231000Y-145133500I0J-237500D01*
G01*
X103231000Y-145608500D01*
G75*
G02*
X102993500Y-145846000I-237500J0D01*
G01*
X102493500Y-145846000D01*
G75*
G02*
X102256000Y-145608500I0J237500D01*
G01*
G37*
%TD*%
%TO.C,R8*%
G36*
G01*
X104081000Y-155133500D02*
X104081000Y-154658500D01*
G75*
G02*
X104318500Y-154421000I237500J0D01*
G01*
X104818500Y-154421000D01*
G75*
G02*
X105056000Y-154658500I0J-237500D01*
G01*
X105056000Y-155133500D01*
G75*
G02*
X104818500Y-155371000I-237500J0D01*
G01*
X104318500Y-155371000D01*
G75*
G02*
X104081000Y-155133500I0J237500D01*
G01*
G37*
G36*
G01*
X102256000Y-155133500D02*
X102256000Y-154658500D01*
G75*
G02*
X102493500Y-154421000I237500J0D01*
G01*
X102993500Y-154421000D01*
G75*
G02*
X103231000Y-154658500I0J-237500D01*
G01*
X103231000Y-155133500D01*
G75*
G02*
X102993500Y-155371000I-237500J0D01*
G01*
X102493500Y-155371000D01*
G75*
G02*
X102256000Y-155133500I0J237500D01*
G01*
G37*
%TD*%
%TO.C,R7*%
G36*
G01*
X104081000Y-141781500D02*
X104081000Y-141306500D01*
G75*
G02*
X104318500Y-141069000I237500J0D01*
G01*
X104818500Y-141069000D01*
G75*
G02*
X105056000Y-141306500I0J-237500D01*
G01*
X105056000Y-141781500D01*
G75*
G02*
X104818500Y-142019000I-237500J0D01*
G01*
X104318500Y-142019000D01*
G75*
G02*
X104081000Y-141781500I0J237500D01*
G01*
G37*
G36*
G01*
X102256000Y-141781500D02*
X102256000Y-141306500D01*
G75*
G02*
X102493500Y-141069000I237500J0D01*
G01*
X102993500Y-141069000D01*
G75*
G02*
X103231000Y-141306500I0J-237500D01*
G01*
X103231000Y-141781500D01*
G75*
G02*
X102993500Y-142019000I-237500J0D01*
G01*
X102493500Y-142019000D01*
G75*
G02*
X102256000Y-141781500I0J237500D01*
G01*
G37*
%TD*%
%TO.C,R6*%
G36*
G01*
X48017500Y-85637000D02*
X47542500Y-85637000D01*
G75*
G02*
X47305000Y-85399500I0J237500D01*
G01*
X47305000Y-84899500D01*
G75*
G02*
X47542500Y-84662000I237500J0D01*
G01*
X48017500Y-84662000D01*
G75*
G02*
X48255000Y-84899500I0J-237500D01*
G01*
X48255000Y-85399500D01*
G75*
G02*
X48017500Y-85637000I-237500J0D01*
G01*
G37*
G36*
G01*
X48017500Y-87462000D02*
X47542500Y-87462000D01*
G75*
G02*
X47305000Y-87224500I0J237500D01*
G01*
X47305000Y-86724500D01*
G75*
G02*
X47542500Y-86487000I237500J0D01*
G01*
X48017500Y-86487000D01*
G75*
G02*
X48255000Y-86724500I0J-237500D01*
G01*
X48255000Y-87224500D01*
G75*
G02*
X48017500Y-87462000I-237500J0D01*
G01*
G37*
%TD*%
%TO.C,R5*%
G36*
G01*
X52404800Y-187372000D02*
X52879800Y-187372000D01*
G75*
G02*
X53117300Y-187609500I0J-237500D01*
G01*
X53117300Y-188109500D01*
G75*
G02*
X52879800Y-188347000I-237500J0D01*
G01*
X52404800Y-188347000D01*
G75*
G02*
X52167300Y-188109500I0J237500D01*
G01*
X52167300Y-187609500D01*
G75*
G02*
X52404800Y-187372000I237500J0D01*
G01*
G37*
G36*
G01*
X52404800Y-185547000D02*
X52879800Y-185547000D01*
G75*
G02*
X53117300Y-185784500I0J-237500D01*
G01*
X53117300Y-186284500D01*
G75*
G02*
X52879800Y-186522000I-237500J0D01*
G01*
X52404800Y-186522000D01*
G75*
G02*
X52167300Y-186284500I0J237500D01*
G01*
X52167300Y-185784500D01*
G75*
G02*
X52404800Y-185547000I237500J0D01*
G01*
G37*
%TD*%
%TO.C,R4*%
G36*
G01*
X52879800Y-190897000D02*
X52404800Y-190897000D01*
G75*
G02*
X52167300Y-190659500I0J237500D01*
G01*
X52167300Y-190159500D01*
G75*
G02*
X52404800Y-189922000I237500J0D01*
G01*
X52879800Y-189922000D01*
G75*
G02*
X53117300Y-190159500I0J-237500D01*
G01*
X53117300Y-190659500D01*
G75*
G02*
X52879800Y-190897000I-237500J0D01*
G01*
G37*
G36*
G01*
X52879800Y-192722000D02*
X52404800Y-192722000D01*
G75*
G02*
X52167300Y-192484500I0J237500D01*
G01*
X52167300Y-191984500D01*
G75*
G02*
X52404800Y-191747000I237500J0D01*
G01*
X52879800Y-191747000D01*
G75*
G02*
X53117300Y-191984500I0J-237500D01*
G01*
X53117300Y-192484500D01*
G75*
G02*
X52879800Y-192722000I-237500J0D01*
G01*
G37*
%TD*%
%TO.C,R3*%
G36*
G01*
X67862500Y-122197000D02*
X68337500Y-122197000D01*
G75*
G02*
X68575000Y-122434500I0J-237500D01*
G01*
X68575000Y-122934500D01*
G75*
G02*
X68337500Y-123172000I-237500J0D01*
G01*
X67862500Y-123172000D01*
G75*
G02*
X67625000Y-122934500I0J237500D01*
G01*
X67625000Y-122434500D01*
G75*
G02*
X67862500Y-122197000I237500J0D01*
G01*
G37*
G36*
G01*
X67862500Y-120372000D02*
X68337500Y-120372000D01*
G75*
G02*
X68575000Y-120609500I0J-237500D01*
G01*
X68575000Y-121109500D01*
G75*
G02*
X68337500Y-121347000I-237500J0D01*
G01*
X67862500Y-121347000D01*
G75*
G02*
X67625000Y-121109500I0J237500D01*
G01*
X67625000Y-120609500D01*
G75*
G02*
X67862500Y-120372000I237500J0D01*
G01*
G37*
%TD*%
%TO.C,R2*%
G36*
G01*
X70460000Y-81494500D02*
X70460000Y-81019500D01*
G75*
G02*
X70697500Y-80782000I237500J0D01*
G01*
X71197500Y-80782000D01*
G75*
G02*
X71435000Y-81019500I0J-237500D01*
G01*
X71435000Y-81494500D01*
G75*
G02*
X71197500Y-81732000I-237500J0D01*
G01*
X70697500Y-81732000D01*
G75*
G02*
X70460000Y-81494500I0J237500D01*
G01*
G37*
G36*
G01*
X68635000Y-81494500D02*
X68635000Y-81019500D01*
G75*
G02*
X68872500Y-80782000I237500J0D01*
G01*
X69372500Y-80782000D01*
G75*
G02*
X69610000Y-81019500I0J-237500D01*
G01*
X69610000Y-81494500D01*
G75*
G02*
X69372500Y-81732000I-237500J0D01*
G01*
X68872500Y-81732000D01*
G75*
G02*
X68635000Y-81494500I0J237500D01*
G01*
G37*
%TD*%
%TO.C,R1*%
G36*
G01*
X74810000Y-81494500D02*
X74810000Y-81019500D01*
G75*
G02*
X75047500Y-80782000I237500J0D01*
G01*
X75547500Y-80782000D01*
G75*
G02*
X75785000Y-81019500I0J-237500D01*
G01*
X75785000Y-81494500D01*
G75*
G02*
X75547500Y-81732000I-237500J0D01*
G01*
X75047500Y-81732000D01*
G75*
G02*
X74810000Y-81494500I0J237500D01*
G01*
G37*
G36*
G01*
X72985000Y-81494500D02*
X72985000Y-81019500D01*
G75*
G02*
X73222500Y-80782000I237500J0D01*
G01*
X73722500Y-80782000D01*
G75*
G02*
X73960000Y-81019500I0J-237500D01*
G01*
X73960000Y-81494500D01*
G75*
G02*
X73722500Y-81732000I-237500J0D01*
G01*
X73222500Y-81732000D01*
G75*
G02*
X72985000Y-81494500I0J237500D01*
G01*
G37*
%TD*%
%TO.C,D4*%
G36*
G01*
X109095250Y-89547500D02*
X108582750Y-89547500D01*
G75*
G02*
X108364000Y-89328750I0J218750D01*
G01*
X108364000Y-88891250D01*
G75*
G02*
X108582750Y-88672500I218750J0D01*
G01*
X109095250Y-88672500D01*
G75*
G02*
X109314000Y-88891250I0J-218750D01*
G01*
X109314000Y-89328750D01*
G75*
G02*
X109095250Y-89547500I-218750J0D01*
G01*
G37*
G36*
G01*
X109095250Y-91122500D02*
X108582750Y-91122500D01*
G75*
G02*
X108364000Y-90903750I0J218750D01*
G01*
X108364000Y-90466250D01*
G75*
G02*
X108582750Y-90247500I218750J0D01*
G01*
X109095250Y-90247500D01*
G75*
G02*
X109314000Y-90466250I0J-218750D01*
G01*
X109314000Y-90903750D01*
G75*
G02*
X109095250Y-91122500I-218750J0D01*
G01*
G37*
%TD*%
%TO.C,D3*%
G36*
G01*
X114175250Y-89547500D02*
X113662750Y-89547500D01*
G75*
G02*
X113444000Y-89328750I0J218750D01*
G01*
X113444000Y-88891250D01*
G75*
G02*
X113662750Y-88672500I218750J0D01*
G01*
X114175250Y-88672500D01*
G75*
G02*
X114394000Y-88891250I0J-218750D01*
G01*
X114394000Y-89328750D01*
G75*
G02*
X114175250Y-89547500I-218750J0D01*
G01*
G37*
G36*
G01*
X114175250Y-91122500D02*
X113662750Y-91122500D01*
G75*
G02*
X113444000Y-90903750I0J218750D01*
G01*
X113444000Y-90466250D01*
G75*
G02*
X113662750Y-90247500I218750J0D01*
G01*
X114175250Y-90247500D01*
G75*
G02*
X114394000Y-90466250I0J-218750D01*
G01*
X114394000Y-90903750D01*
G75*
G02*
X114175250Y-91122500I-218750J0D01*
G01*
G37*
%TD*%
%TO.C,D2*%
G36*
G01*
X48036250Y-81419500D02*
X47523750Y-81419500D01*
G75*
G02*
X47305000Y-81200750I0J218750D01*
G01*
X47305000Y-80763250D01*
G75*
G02*
X47523750Y-80544500I218750J0D01*
G01*
X48036250Y-80544500D01*
G75*
G02*
X48255000Y-80763250I0J-218750D01*
G01*
X48255000Y-81200750D01*
G75*
G02*
X48036250Y-81419500I-218750J0D01*
G01*
G37*
G36*
G01*
X48036250Y-82994500D02*
X47523750Y-82994500D01*
G75*
G02*
X47305000Y-82775750I0J218750D01*
G01*
X47305000Y-82338250D01*
G75*
G02*
X47523750Y-82119500I218750J0D01*
G01*
X48036250Y-82119500D01*
G75*
G02*
X48255000Y-82338250I0J-218750D01*
G01*
X48255000Y-82775750D01*
G75*
G02*
X48036250Y-82994500I-218750J0D01*
G01*
G37*
%TD*%
%TO.C,D1*%
G36*
G01*
X67843750Y-128042000D02*
X68356250Y-128042000D01*
G75*
G02*
X68575000Y-128260750I0J-218750D01*
G01*
X68575000Y-128698250D01*
G75*
G02*
X68356250Y-128917000I-218750J0D01*
G01*
X67843750Y-128917000D01*
G75*
G02*
X67625000Y-128698250I0J218750D01*
G01*
X67625000Y-128260750D01*
G75*
G02*
X67843750Y-128042000I218750J0D01*
G01*
G37*
G36*
G01*
X67843750Y-126467000D02*
X68356250Y-126467000D01*
G75*
G02*
X68575000Y-126685750I0J-218750D01*
G01*
X68575000Y-127123250D01*
G75*
G02*
X68356250Y-127342000I-218750J0D01*
G01*
X67843750Y-127342000D01*
G75*
G02*
X67625000Y-127123250I0J218750D01*
G01*
X67625000Y-126685750D01*
G75*
G02*
X67843750Y-126467000I218750J0D01*
G01*
G37*
%TD*%
%TO.C,C4*%
G36*
G01*
X138374000Y-72789000D02*
X138374000Y-74789000D01*
G75*
G02*
X138124000Y-75039000I-250000J0D01*
G01*
X134224000Y-75039000D01*
G75*
G02*
X133974000Y-74789000I0J250000D01*
G01*
X133974000Y-72789000D01*
G75*
G02*
X134224000Y-72539000I250000J0D01*
G01*
X138124000Y-72539000D01*
G75*
G02*
X138374000Y-72789000I0J-250000D01*
G01*
G37*
G36*
G01*
X145774000Y-72789000D02*
X145774000Y-74789000D01*
G75*
G02*
X145524000Y-75039000I-250000J0D01*
G01*
X141624000Y-75039000D01*
G75*
G02*
X141374000Y-74789000I0J250000D01*
G01*
X141374000Y-72789000D01*
G75*
G02*
X141624000Y-72539000I250000J0D01*
G01*
X145524000Y-72539000D01*
G75*
G02*
X145774000Y-72789000I0J-250000D01*
G01*
G37*
%TD*%
%TO.C,C1*%
G36*
G01*
X127230000Y-74853000D02*
X127230000Y-72853000D01*
G75*
G02*
X127480000Y-72603000I250000J0D01*
G01*
X131380000Y-72603000D01*
G75*
G02*
X131630000Y-72853000I0J-250000D01*
G01*
X131630000Y-74853000D01*
G75*
G02*
X131380000Y-75103000I-250000J0D01*
G01*
X127480000Y-75103000D01*
G75*
G02*
X127230000Y-74853000I0J250000D01*
G01*
G37*
G36*
G01*
X119830000Y-74853000D02*
X119830000Y-72853000D01*
G75*
G02*
X120080000Y-72603000I250000J0D01*
G01*
X123980000Y-72603000D01*
G75*
G02*
X124230000Y-72853000I0J-250000D01*
G01*
X124230000Y-74853000D01*
G75*
G02*
X123980000Y-75103000I-250000J0D01*
G01*
X120080000Y-75103000D01*
G75*
G02*
X119830000Y-74853000I0J250000D01*
G01*
G37*
%TD*%
%TO.C,U4*%
G36*
G01*
X113142000Y-152506000D02*
X113142000Y-152206000D01*
G75*
G02*
X113292000Y-152056000I150000J0D01*
G01*
X114967000Y-152056000D01*
G75*
G02*
X115117000Y-152206000I0J-150000D01*
G01*
X115117000Y-152506000D01*
G75*
G02*
X114967000Y-152656000I-150000J0D01*
G01*
X113292000Y-152656000D01*
G75*
G02*
X113142000Y-152506000I0J150000D01*
G01*
G37*
G36*
G01*
X113142000Y-153776000D02*
X113142000Y-153476000D01*
G75*
G02*
X113292000Y-153326000I150000J0D01*
G01*
X114967000Y-153326000D01*
G75*
G02*
X115117000Y-153476000I0J-150000D01*
G01*
X115117000Y-153776000D01*
G75*
G02*
X114967000Y-153926000I-150000J0D01*
G01*
X113292000Y-153926000D01*
G75*
G02*
X113142000Y-153776000I0J150000D01*
G01*
G37*
G36*
G01*
X113142000Y-155046000D02*
X113142000Y-154746000D01*
G75*
G02*
X113292000Y-154596000I150000J0D01*
G01*
X114967000Y-154596000D01*
G75*
G02*
X115117000Y-154746000I0J-150000D01*
G01*
X115117000Y-155046000D01*
G75*
G02*
X114967000Y-155196000I-150000J0D01*
G01*
X113292000Y-155196000D01*
G75*
G02*
X113142000Y-155046000I0J150000D01*
G01*
G37*
G36*
G01*
X113142000Y-156316000D02*
X113142000Y-156016000D01*
G75*
G02*
X113292000Y-155866000I150000J0D01*
G01*
X114967000Y-155866000D01*
G75*
G02*
X115117000Y-156016000I0J-150000D01*
G01*
X115117000Y-156316000D01*
G75*
G02*
X114967000Y-156466000I-150000J0D01*
G01*
X113292000Y-156466000D01*
G75*
G02*
X113142000Y-156316000I0J150000D01*
G01*
G37*
G36*
G01*
X113142000Y-157586000D02*
X113142000Y-157286000D01*
G75*
G02*
X113292000Y-157136000I150000J0D01*
G01*
X114967000Y-157136000D01*
G75*
G02*
X115117000Y-157286000I0J-150000D01*
G01*
X115117000Y-157586000D01*
G75*
G02*
X114967000Y-157736000I-150000J0D01*
G01*
X113292000Y-157736000D01*
G75*
G02*
X113142000Y-157586000I0J150000D01*
G01*
G37*
G36*
G01*
X113142000Y-158856000D02*
X113142000Y-158556000D01*
G75*
G02*
X113292000Y-158406000I150000J0D01*
G01*
X114967000Y-158406000D01*
G75*
G02*
X115117000Y-158556000I0J-150000D01*
G01*
X115117000Y-158856000D01*
G75*
G02*
X114967000Y-159006000I-150000J0D01*
G01*
X113292000Y-159006000D01*
G75*
G02*
X113142000Y-158856000I0J150000D01*
G01*
G37*
G36*
G01*
X113142000Y-160126000D02*
X113142000Y-159826000D01*
G75*
G02*
X113292000Y-159676000I150000J0D01*
G01*
X114967000Y-159676000D01*
G75*
G02*
X115117000Y-159826000I0J-150000D01*
G01*
X115117000Y-160126000D01*
G75*
G02*
X114967000Y-160276000I-150000J0D01*
G01*
X113292000Y-160276000D01*
G75*
G02*
X113142000Y-160126000I0J150000D01*
G01*
G37*
G36*
G01*
X106217000Y-160126000D02*
X106217000Y-159826000D01*
G75*
G02*
X106367000Y-159676000I150000J0D01*
G01*
X108042000Y-159676000D01*
G75*
G02*
X108192000Y-159826000I0J-150000D01*
G01*
X108192000Y-160126000D01*
G75*
G02*
X108042000Y-160276000I-150000J0D01*
G01*
X106367000Y-160276000D01*
G75*
G02*
X106217000Y-160126000I0J150000D01*
G01*
G37*
G36*
G01*
X106217000Y-158856000D02*
X106217000Y-158556000D01*
G75*
G02*
X106367000Y-158406000I150000J0D01*
G01*
X108042000Y-158406000D01*
G75*
G02*
X108192000Y-158556000I0J-150000D01*
G01*
X108192000Y-158856000D01*
G75*
G02*
X108042000Y-159006000I-150000J0D01*
G01*
X106367000Y-159006000D01*
G75*
G02*
X106217000Y-158856000I0J150000D01*
G01*
G37*
G36*
G01*
X106217000Y-157586000D02*
X106217000Y-157286000D01*
G75*
G02*
X106367000Y-157136000I150000J0D01*
G01*
X108042000Y-157136000D01*
G75*
G02*
X108192000Y-157286000I0J-150000D01*
G01*
X108192000Y-157586000D01*
G75*
G02*
X108042000Y-157736000I-150000J0D01*
G01*
X106367000Y-157736000D01*
G75*
G02*
X106217000Y-157586000I0J150000D01*
G01*
G37*
G36*
G01*
X106217000Y-156316000D02*
X106217000Y-156016000D01*
G75*
G02*
X106367000Y-155866000I150000J0D01*
G01*
X108042000Y-155866000D01*
G75*
G02*
X108192000Y-156016000I0J-150000D01*
G01*
X108192000Y-156316000D01*
G75*
G02*
X108042000Y-156466000I-150000J0D01*
G01*
X106367000Y-156466000D01*
G75*
G02*
X106217000Y-156316000I0J150000D01*
G01*
G37*
G36*
G01*
X106217000Y-155046000D02*
X106217000Y-154746000D01*
G75*
G02*
X106367000Y-154596000I150000J0D01*
G01*
X108042000Y-154596000D01*
G75*
G02*
X108192000Y-154746000I0J-150000D01*
G01*
X108192000Y-155046000D01*
G75*
G02*
X108042000Y-155196000I-150000J0D01*
G01*
X106367000Y-155196000D01*
G75*
G02*
X106217000Y-155046000I0J150000D01*
G01*
G37*
G36*
G01*
X106217000Y-153776000D02*
X106217000Y-153476000D01*
G75*
G02*
X106367000Y-153326000I150000J0D01*
G01*
X108042000Y-153326000D01*
G75*
G02*
X108192000Y-153476000I0J-150000D01*
G01*
X108192000Y-153776000D01*
G75*
G02*
X108042000Y-153926000I-150000J0D01*
G01*
X106367000Y-153926000D01*
G75*
G02*
X106217000Y-153776000I0J150000D01*
G01*
G37*
G36*
G01*
X106217000Y-152506000D02*
X106217000Y-152206000D01*
G75*
G02*
X106367000Y-152056000I150000J0D01*
G01*
X108042000Y-152056000D01*
G75*
G02*
X108192000Y-152206000I0J-150000D01*
G01*
X108192000Y-152506000D01*
G75*
G02*
X108042000Y-152656000I-150000J0D01*
G01*
X106367000Y-152656000D01*
G75*
G02*
X106217000Y-152506000I0J150000D01*
G01*
G37*
%TD*%
M02*
