M48
; DRILL file {KiCad (5.1.9-0-10_14)} date Wednesday, June 23, 2021 at 09:30:59 AM
; FORMAT={-:-/ absolute / metric / decimal}
; #@! TF.CreationDate,2021-06-23T09:30:59+02:00
; #@! TF.GenerationSoftware,Kicad,Pcbnew,(5.1.9-0-10_14)
; #@! TF.FileFunction,Plated,1,2,PTH
FMAT,2
METRIC
T1C0.400
T2C0.900
T3C1.000
T4C1.040
T5C1.100
T6C1.400
T7C1.600
%
G90
G05
T1
X43.085Y-179.268
X45.153Y-169.114
X46.895Y-179.233
X47.78Y-169.114
X53.564Y-210.492
X59.21Y-182.003
X60.278Y-131.991
X62.649Y-151.462
X63.02Y-179.26
X63.066Y-141.496
X64.016Y-192.366
X64.795Y-194.081
X66.294Y-144.153
X67.588Y-145.282
X68.006Y-146.686
X70.515Y-204.801
X71.116Y-195.117
X71.528Y-158.021
X71.599Y-82.284
X73.84Y-128.0
X78.26Y-160.745
X78.884Y-132.551
X80.42Y-201.277
X80.59Y-135.004
X83.385Y-178.886
X83.964Y-132.69
X85.409Y-199.701
X85.41Y-158.963
X88.42Y-174.695
X89.69Y-182.653
X91.62Y-175.421
X92.609Y-182.905
X93.767Y-175.782
X96.246Y-162.721
X98.457Y-175.128
X99.407Y-179.114
X100.104Y-206.204
X100.556Y-197.693
X100.674Y-163.561
X102.743Y-144.274
X105.305Y-146.814
X105.331Y-197.709
X105.569Y-156.288
X105.575Y-203.478
X108.356Y-181.531
X108.956Y-164.585
X109.903Y-137.15
X110.137Y-167.454
X110.277Y-188.762
X112.365Y-137.037
X112.502Y-138.941
X112.55Y-172.339
X112.576Y-160.813
X113.68Y-196.105
X115.748Y-143.131
X116.459Y-134.984
X116.731Y-155.594
X117.434Y-186.14
X117.822Y-178.403
X118.846Y-151.045
X119.011Y-163.244
X119.112Y-153.492
X119.317Y-155.824
X122.381Y-184.135
X123.05Y-153.457
X123.572Y-184.149
X126.618Y-181.179
X127.404Y-195.303
X127.541Y-168.892
X128.172Y-185.594
X130.975Y-179.357
X135.084Y-186.989
X136.899Y-152.058
X140.49Y-168.801
X142.382Y-176.182
X144.3Y-168.825
X148.392Y-188.554
X149.098Y-193.355
X155.73Y-189.44
X158.707Y-195.114
T2
X43.6Y-202.08
X43.6Y-208.65
X44.86Y-199.54
X44.86Y-206.11
X46.14Y-202.08
X46.14Y-208.65
X47.4Y-199.54
X47.4Y-206.11
X48.68Y-202.08
X48.68Y-208.65
X49.94Y-199.54
X49.94Y-206.11
X51.22Y-202.08
X51.22Y-208.65
X52.48Y-199.54
X52.48Y-206.11
X57.57Y-202.08
X57.57Y-208.65
X58.83Y-199.54
X58.83Y-206.11
X60.11Y-202.08
X60.11Y-208.65
X61.37Y-199.54
X61.37Y-206.11
X62.65Y-202.08
X62.65Y-208.65
X63.91Y-199.54
X63.91Y-206.11
X65.19Y-202.08
X65.19Y-208.65
X66.45Y-199.54
X66.45Y-206.11
X71.54Y-202.08
X71.54Y-208.65
X72.8Y-199.54
X72.8Y-206.11
X74.08Y-202.08
X74.08Y-208.65
X75.34Y-199.54
X75.34Y-206.11
X76.62Y-202.08
X76.62Y-208.65
X77.88Y-199.54
X77.88Y-206.11
X79.16Y-202.08
X79.16Y-208.65
X80.42Y-199.54
X80.42Y-206.11
X85.51Y-202.08
X85.51Y-208.65
X86.77Y-199.54
X86.77Y-206.11
X88.05Y-202.08
X88.05Y-208.65
X89.31Y-199.54
X89.31Y-206.11
X90.59Y-202.08
X90.59Y-208.65
X91.85Y-199.54
X91.85Y-206.11
X93.13Y-202.08
X93.13Y-208.65
X94.39Y-199.54
X94.39Y-206.11
X108.6Y-202.08
X108.6Y-208.65
X109.86Y-199.54
X109.86Y-206.11
X111.14Y-202.08
X111.14Y-208.65
X112.4Y-199.54
X112.4Y-206.11
X113.68Y-202.08
X113.68Y-208.65
X114.94Y-199.54
X114.94Y-206.11
X116.22Y-202.08
X116.22Y-208.65
X117.48Y-199.54
X117.48Y-206.11
X122.57Y-202.08
X122.57Y-208.65
X123.83Y-199.54
X123.83Y-206.11
X125.11Y-202.08
X125.11Y-208.65
X126.37Y-199.54
X126.37Y-206.11
X127.65Y-202.08
X127.65Y-208.65
X128.91Y-199.54
X128.91Y-206.11
X130.19Y-202.08
X130.19Y-208.65
X131.45Y-199.54
X131.45Y-206.11
X136.54Y-202.08
X136.54Y-208.65
X137.8Y-199.54
X137.8Y-206.11
X139.08Y-202.08
X139.08Y-208.65
X140.34Y-199.54
X140.34Y-206.11
X141.62Y-202.08
X141.62Y-208.65
X142.88Y-199.54
X142.88Y-206.11
X144.16Y-202.08
X144.16Y-208.65
X145.42Y-199.54
X145.42Y-206.11
X150.51Y-202.08
X150.51Y-208.65
X151.77Y-199.54
X151.77Y-206.11
X153.05Y-202.08
X153.05Y-208.65
X154.31Y-199.54
X154.31Y-206.11
X155.59Y-202.08
X155.59Y-208.65
X156.85Y-199.54
X156.85Y-206.11
X158.13Y-202.08
X158.13Y-208.65
X159.39Y-199.54
X159.39Y-206.11
T3
X41.42Y-187.42
X41.42Y-189.96
X49.04Y-187.42
X49.04Y-189.96
X56.66Y-187.42
X56.66Y-189.96
X64.28Y-187.42
X64.28Y-189.96
X71.9Y-187.42
X71.9Y-189.96
X79.52Y-187.42
X79.52Y-189.96
X87.14Y-187.42
X87.14Y-189.96
X87.884Y-83.759
X87.884Y-122.113
X94.76Y-187.42
X94.76Y-189.96
X95.484Y-83.759
X95.484Y-122.113
X101.473Y-72.583
X101.552Y-64.173
X104.013Y-72.583
X104.052Y-64.173
X106.2Y-100.54
X106.299Y-85.41
X106.552Y-64.173
X106.553Y-72.583
X106.934Y-134.178
X107.46Y-187.42
X107.46Y-189.96
X108.74Y-100.54
X108.839Y-85.41
X109.474Y-134.178
X111.28Y-100.54
X111.379Y-85.41
X112.014Y-134.178
X113.82Y-100.54
X113.919Y-85.41
X114.554Y-134.178
X115.08Y-187.42
X115.08Y-189.96
X116.459Y-85.41
X118.999Y-85.41
X122.7Y-187.42
X122.7Y-189.96
X130.32Y-187.42
X130.32Y-189.96
X137.94Y-187.42
X137.94Y-189.96
X145.56Y-187.42
X145.56Y-189.96
T4
X35.32Y-50.542
X35.32Y-75.942
X37.86Y-50.542
X37.86Y-75.942
X40.4Y-50.542
X40.4Y-75.942
X42.94Y-50.542
X42.94Y-75.942
X45.48Y-50.542
X45.48Y-75.942
X48.02Y-50.542
X48.02Y-75.942
X50.56Y-50.542
X50.56Y-75.942
X53.1Y-50.542
X53.1Y-75.942
X55.64Y-50.542
X55.64Y-75.942
X58.18Y-50.542
X58.18Y-75.942
X60.72Y-50.542
X60.72Y-75.942
X63.26Y-50.542
X63.26Y-75.942
X65.8Y-50.542
X65.8Y-75.942
X68.34Y-50.542
X68.34Y-75.942
X70.88Y-50.542
X70.88Y-75.942
X73.42Y-50.542
X73.42Y-75.942
X75.96Y-50.542
X75.96Y-75.942
X78.5Y-50.542
X78.5Y-75.942
X81.04Y-50.542
X81.04Y-75.942
T5
X34.61Y-95.5
X34.61Y-110.74
X34.61Y-133.6
X34.61Y-148.84
X37.15Y-95.5
X37.15Y-110.74
X37.15Y-133.6
X37.15Y-148.84
X39.69Y-95.5
X39.69Y-110.74
X39.69Y-133.6
X39.69Y-148.84
X42.23Y-95.5
X42.23Y-110.74
X42.23Y-133.6
X42.23Y-148.84
X44.77Y-95.5
X44.77Y-110.74
X44.77Y-133.6
X44.77Y-148.84
X47.31Y-95.5
X47.31Y-110.74
X47.31Y-133.6
X47.31Y-148.84
X49.85Y-95.5
X49.85Y-110.74
X49.85Y-133.6
X49.85Y-148.84
X52.39Y-95.5
X52.39Y-110.74
X52.39Y-133.6
X52.39Y-148.84
X54.93Y-95.5
X54.93Y-110.74
X54.93Y-133.6
X54.93Y-148.84
X57.47Y-95.5
X57.47Y-110.74
X57.47Y-133.6
X57.47Y-148.84
X60.01Y-95.5
X60.01Y-110.74
X60.01Y-133.6
X60.01Y-148.84
X62.55Y-95.5
X62.55Y-110.74
X62.55Y-133.6
X62.55Y-148.84
X65.09Y-95.5
X65.09Y-110.74
X65.09Y-133.6
X65.09Y-148.84
X67.63Y-95.5
X67.63Y-110.74
X67.63Y-133.6
X67.63Y-148.84
X70.17Y-95.5
X70.17Y-110.74
X70.17Y-133.6
X70.17Y-148.84
X72.71Y-95.5
X72.71Y-110.74
X72.71Y-133.6
X72.71Y-148.84
X75.25Y-95.5
X75.25Y-110.74
X75.25Y-133.6
X75.25Y-148.84
X77.79Y-95.5
X77.79Y-110.74
X77.79Y-133.6
X77.79Y-148.84
X80.33Y-95.5
X80.33Y-110.74
X80.33Y-133.6
X80.33Y-148.84
X82.87Y-95.5
X82.87Y-110.74
X82.87Y-133.6
X82.87Y-148.84
X85.41Y-95.5
X85.41Y-110.74
X85.41Y-133.6
X85.41Y-148.84
X87.95Y-95.5
X87.95Y-110.74
X87.95Y-133.6
X87.95Y-148.84
X90.49Y-95.5
X90.49Y-110.74
X90.49Y-133.6
X90.49Y-148.84
X93.03Y-95.5
X93.03Y-110.74
X93.03Y-133.6
X93.03Y-148.84
T6
X127.287Y-60.01
X132.287Y-60.01
X137.287Y-60.01
T7
X39.54Y-199.54
X39.54Y-219.57
X40.205Y-205.85
X97.795Y-209.15
X98.46Y-203.6
X98.46Y-219.57
X104.54Y-199.54
X104.54Y-219.57
X105.205Y-205.85
X162.795Y-209.15
X163.46Y-203.6
X163.46Y-219.57
T0
M30
